<svg width="201" height="201" fill="none" xmlns="http://www.w3.org/2000/svg"><path d="M60.77 79.55a4.95 4.95 0 0 1-.82-6.95l8.4-10.62a4.95 4.95 0 0 1 7.77 6.14l-8.4 10.61a4.95 4.95 0 0 1-6.95.82Z" fill="#4AFEBF"/><path d="M117.08 98.08a16.3 16.3 0 1 1-32.6 0 16.3 16.3 0 0 1 32.6 0Z" fill="#51EEDA"/><path fill-rule="evenodd" clip-rule="evenodd" d="M111.59 164.74a14.18 14.18 0 0 1-21.61 0L43.1 109.57a14.18 14.18 0 0 1 0-18.36l4.7-5.52a7.09 7.09 0 1 1 10.8 9.18l-4.7 5.52 46.88 55.17 13.59-16a7.09 7.09 0 1 1 10.8 9.19l-13.58 15.99Zm29.3-45.44a7.09 7.09 0 0 1-.81-10l7.58-8.9-46.88-55.17-9.87 11.61a7.09 7.09 0 0 1-10.8-9.18l9.87-11.61a14.18 14.18 0 0 1 21.6 0l46.88 55.16c4.5 5.3 4.5 13.07 0 18.36l-7.58 8.92a7.09 7.09 0 0 1-9.99.81Z" fill="url(#a)"/><path fill-rule="evenodd" clip-rule="evenodd" d="M100.78 14.57a85.82 85.82 0 0 0 0 171.64 7.09 7.09 0 1 1 0 14.18c-55.23 0-100-44.77-100-100S45.55.4 100.78.4a7.09 7.09 0 1 1 0 14.18Z" fill="url(#b)"/><path fill-rule="evenodd" clip-rule="evenodd" d="M161.14 171.38a7.09 7.09 0 0 1 .05-10.02 85.54 85.54 0 0 0 25.41-60.97c0-23.84-9.7-45.4-25.41-60.96a7.09 7.09 0 1 1 9.98-10.07 99.71 99.71 0 0 1 29.61 71.03 99.71 99.71 0 0 1-29.61 71.04 7.09 7.09 0 0 1-10.03-.05Z" fill="url(#c)"/><path d="M142.96 186.24a7.62 7.62 0 1 1-15.24 0 7.62 7.62 0 0 1 15.24 0Z" fill="#4AFEBF"/><defs><linearGradient id="a" x1="100.78" y1="169.73" x2="100.78" y2="31.05" gradientUnits="userSpaceOnUse"><stop stop-color="#4AFEBF"/><stop offset="1" stop-color="#51EEDA"/></linearGradient><linearGradient id="b" x1="54.33" y1=".39" x2="54.33" y2="200.39" gradientUnits="userSpaceOnUse"><stop stop-color="#4AFEBF"/><stop offset="1" stop-color="#51EEDA"/></linearGradient><linearGradient id="c" x1="179.94" y1="173.48" x2="179.94" y2="27.3" gradientUnits="userSpaceOnUse"><stop stop-color="#4AFEBF"/><stop offset="1" stop-color="#51EEDA"/></linearGradient></defs></svg>