<svg width="20" height="21" viewBox="0 0 20 21" fill="none" xmlns="http://www.w3.org/2000/svg">
<path fill-rule="evenodd" clip-rule="evenodd" d="M10 20.5C15.5228 20.5 20 16.0228 20 10.5C20 4.97715 15.5228 0.5 10 0.5C4.47715 0.5 0 4.97715 0 10.5C0 16.0228 4.47715 20.5 10 20.5ZM11.2465 4.61444L10.9493 12.1426H9.06727L8.77011 4.61444H11.2465ZM11.3125 15.0812C11.3125 15.8076 10.7182 16.3855 9.99178 16.3855C9.26538 16.3855 8.68756 15.8076 8.68756 15.0812C8.68756 14.3548 9.26538 13.7605 9.99178 13.7605C10.7182 13.7605 11.3125 14.3548 11.3125 15.0812Z" fill="#D84747"/>
</svg>
