<svg width="29" height="38" viewBox="0 0 29 38" fill="none" xmlns="http://www.w3.org/2000/svg">
<path d="M7.33287 8.59027L6.63024 7.61749L6.63024 7.61749L7.33287 8.59027ZM17.8317 6.35515L18.8045 5.65252C19.112 6.07828 19.1069 6.65454 18.7919 7.07481L17.8317 6.35515ZM21.5774 29.4662L20.8829 28.4876L20.8829 28.4876L21.5774 29.4662ZM11.0601 31.613L10.0815 32.3074C9.77755 31.8791 9.78747 31.3029 10.106 30.8853L11.0601 31.613ZM3.36188 27.5026C-1.23649 21.1363 0.237286 12.2351 6.63024 7.61749L8.03551 9.56306C2.70487 13.4133 1.49396 20.8177 5.30745 26.0974L3.36188 27.5026ZM6.63024 7.61749C10.0659 5.13595 14.2291 4.39266 18.0561 5.22207L17.5478 7.56762C14.3612 6.87701 10.8983 7.49527 8.03551 9.56306L6.63024 7.61749ZM18.0593 5.22276L18.1287 5.23801L17.614 7.58217L17.5446 7.56693L18.0593 5.22276ZM14.9967 0.380742L18.8045 5.65252L16.8589 7.05778L13.0511 1.78601L14.9967 0.380742ZM18.7919 7.07481L18.7622 7.1145L16.8417 5.67519L16.8714 5.63549L18.7919 7.07481ZM18.7622 7.11451L15.1937 11.8759L13.2732 10.4366L16.8417 5.67518L18.7622 7.11451ZM25.7072 10.5879C30.2519 16.9927 28.7033 25.8812 22.2718 30.4449L20.8829 28.4876C26.2457 24.6823 27.5189 17.2884 23.7499 11.9768L25.7072 10.5879ZM22.2718 30.4449C18.8154 32.8975 14.6461 33.6057 10.8262 32.7442L11.3542 30.403C14.5349 31.1203 18.0028 30.5312 20.8829 28.4876L22.2718 30.4449ZM10.823 32.7434L10.7537 32.7276L11.2881 30.3879L11.3574 30.4037L10.823 32.7434ZM13.8448 37.611L10.0815 32.3074L12.0388 30.9186L15.8021 36.2222L13.8448 37.611ZM10.106 30.8853L10.136 30.8459L12.0444 32.3013L12.0143 32.3407L10.106 30.8853ZM10.1361 30.8458L13.7444 26.1146L15.6528 27.57L12.0444 32.3013L10.1361 30.8458Z" fill="black"/>
</svg>
