<svg width="435" height="716" fill="none" xmlns="http://www.w3.org/2000/svg"><mask id="a" style="mask-type:alpha" maskUnits="userSpaceOnUse" x="0" y="0" width="435" height="716"><path fill="#C4C4C4" d="M0 0h435v716H0z"/></mask><g opacity=".3" mask="url(#a)"><path d="M441.823 709.762c-2.95.527-6.028.965-9.016 1.274-44.045 4.606-92.018-12.062-131.678-45.881-32.708-27.736-59.741-65.953-82.822-116.71-6.17-13.661-12.02-28.054-17.792-42.011-20.107-49.26-40.874-100.318-82.006-133.535-11.204-9.042-23.85-16.698-35.982-23.996-18.713-11.305-38.05-22.949-52.361-39.887-16.569-19.465-25.228-45.753-24.513-73.829.763-27.184 10.06-53.301 26.142-73.644 30.082-37.834 82.478-59.372 140.086-57.5 6.68.159 13.548.734 20.068 1.259 21.934 1.601 44.671 3.284 64.604-5.013 17.827-7.47 31.552-22.094 44.68-36.274 6.231-6.749 12.75-13.775 19.645-19.966 22.056-19.72 50.636-32.606 82.621-37.196 31.001-4.416 62.885-.762 92.289 10.435 55.783 21.245 103.927 68.423 132.134 129.533 8.322 18.121 14.925 37.339 21.391 55.792 6.317 18.255 12.861 37.145 21.035 55.067 13.832 29.984 38.719 68.81 79.093 83.343 4.82 1.73 9.909 3.075 14.889 4.438 10.911 3.008 22.279 6.047 31.562 13.178 14.475 10.936 22.554 31.467 20.398 52.138-1.679 16.416-8.918 33.262-22.196 51.639-16.993 23.435-39.517 43.69-65.025 58.619-25.618 14.947-54.439 24.607-83.283 27.848-6.414.696-12.868 1.173-19.102 1.612-11.358.791-23.044 1.64-34.326 4.108-19.963 4.357-35.354 14.096-43.258 27.229-5.562 9.222-7.635 20.298-9.657 31.028-.906 5.008-1.901 10.144-3.264 15.121-10.902 41.055-49.022 73.677-94.356 81.781Zm-312.41-600.493c-39.545 7.069-73.709 25.911-95.795 53.639-33.766 42.437-34.54 106.023-1.702 144.555 14.144 16.63 33.372 28.294 51.827 39.42 12.26 7.387 24.907 15.044 36.24 24.175 41.537 33.595 62.453 84.852 82.619 134.44 5.643 13.867 11.493 28.26 17.663 41.92 22.913 50.449 49.778 88.358 82.228 115.915 39.235 33.332 86.622 49.879 129.992 45.281 2.989-.309 5.958-.727 8.907-1.254 44.57-7.968 81.913-39.888 92.496-80.209 1.273-4.848 2.269-9.985 3.175-14.993 2.092-10.967 4.145-22.153 9.976-31.76 8.243-13.758 24.032-23.793 44.65-28.268 11.392-2.487 23.186-3.356 34.544-4.147 6.235-.438 12.688-.916 19.103-1.611 57.887-6.63 112.801-38.648 146.896-85.539 13.009-17.991 20.178-34.599 21.826-50.558 1.945-19.957-5.649-39.674-19.589-50.142-8.986-6.733-20.136-9.811-30.809-12.749-4.98-1.364-10.088-2.817-15.017-4.528-41.089-14.743-66.402-54.057-80.312-84.477-8.283-17.903-14.738-36.922-21.074-55.285-6.357-18.473-12.94-37.582-21.243-55.594-27.98-60.474-75.609-107.294-130.896-128.289C434.972-3.733 365.62 6.862 322.502 45.562c-6.805 6.063-13.215 13.069-19.466 19.708-13.327 14.329-27.122 29.191-45.475 36.867-20.46 8.504-43.416 6.86-65.587 5.189-6.63-.505-13.368-.991-20.048-1.149-14.601-.32-28.858.651-42.513 3.092Z" fill="url(#b)"/><path d="M434.412 696.099a143.106 143.106 0 0 1-9.672 1.39c-43.101 4.212-89.883-12.105-128.325-44.789-31.915-27.089-58.226-64.422-80.417-113.985-5.853-13.154-11.457-26.802-16.873-40.034-19.545-48.008-39.71-97.596-79.035-130.798-10.49-8.831-22.114-16.445-33.353-23.789-17.362-11.322-35.478-23.072-48.907-39.491-31.728-38.618-30.45-101.28 2.71-142.707 29.403-36.586 80.418-57.652 136.508-56.071 6.462.197 13.181.573 19.682.989 21.328 1.371 43.46 2.824 62.699-5.574 17.37-7.5 30.935-21.758 44.013-35.591 6.539-6.917 13.386-14.001 20.609-20.251 21.955-19.026 50.177-31.397 81.455-35.523 30.385-4.08 61.614-.309 90.343 10.896 54.542 21.241 101.675 67.811 129.229 127.798 8.007 17.615 14.382 36.197 20.641 54.123 6.544 18.891 13.334 38.525 21.934 56.935 13.636 28.892 38.218 66.646 78.203 82.15 4.105 1.52 8.192 2.931 12.278 4.341 11.891 4.073 23.158 7.806 32.341 15.631 13.312 11.369 19.665 31.082 16.756 51.324-2.343 15.858-9.648 31.702-23.203 49.79-32.44 43.552-81.521 73.514-135.704 83.2-3.059.547-6.246 1.004-9.324 1.441-8.034 1.098-16.274 1.67-24.276 2.312-10.336.833-21.018 1.616-31.068 3.413-14.748 2.636-34.288 8.721-44.142 23.556-5.699 8.456-7.8 18.749-9.85 28.695-.894 4.442-1.859 9.122-3.19 13.643-5.929 21.007-19.168 39.602-38.024 53.904-15.862 11.514-34.593 19.595-54.038 23.072ZM136.348 110.847c-38.78 6.932-72.348 25.33-94.115 52.324-32.62 40.654-33.895 102.077-2.762 139.899 13.262 16.111 30.367 27.253 48.373 39.023 11.348 7.325 22.992 15.048 33.611 23.968 39.711 33.472 60.044 83.367 79.628 131.594 5.416 13.232 10.911 26.9 16.874 40.034 22.022 49.255 48.165 86.279 79.842 113.298 38.036 32.306 84.213 48.393 126.768 44.28 46.983-4.568 87.979-36.239 99.506-76.955 1.242-4.391 2.226-8.963 3.121-13.405 2.12-10.183 4.29-20.714 10.149-29.538 10.303-15.478 30.479-21.789 45.554-24.484 10.269-1.836 20.951-2.619 31.287-3.452 8.002-.642 16.242-1.213 24.166-2.292 57.364-7.663 109.614-38.19 143.597-83.822 13.376-17.83 20.611-33.436 22.814-48.819 2.808-19.547-3.299-38.516-15.967-49.436-8.796-7.556-19.845-11.329-31.588-15.202-4.086-1.411-8.281-2.802-12.387-4.322-40.699-15.714-65.598-53.975-79.402-83.175-8.728-18.5-15.518-38.134-21.973-57.153-6.149-17.947-12.505-36.419-20.492-53.925-27.367-59.57-73.965-105.671-128.031-126.772C435.54-.565 369.039 8.956 325.327 46.86c-7.113 6.23-13.85 13.295-20.409 20.102-13.277 13.982-26.932 28.369-44.719 36.056-19.765 8.605-42.116 7.191-63.682 5.75-6.392-.435-13.111-.812-19.573-1.009-13.926-.328-27.597.764-40.596 3.088Z" fill="url(#c)"/><path d="M427.657 682.317c-3.605.645-7.338 1.2-11.002 1.516-42.266 3.837-87.749-12.149-124.993-43.807-31.142-26.551-56.602-62.909-78.031-111.369-5.517-12.537-10.875-25.441-15.955-38.056-18.982-46.757-38.694-95.073-76.192-128.151-9.776-8.621-20.378-16.192-30.684-23.365-16.934-12.074-32.947-23.411-45.603-39.293-14.862-18.755-22.424-43.324-21.446-69.306.967-25.417 9.902-49.779 25.236-68.635 28.527-35.19 78.29-55.694 132.912-54.753 6.224.127 12.486.473 18.64.838 20.961 1.211 42.598 2.415 61.341-6.233 16.785-7.62 30.21-21.403 43.257-34.78 6.956-7.104 14.092-14.465 21.642-20.773C370.885 9.19 437.066.4 495.445 23.548c53.539 21.308 99.552 67.289 126.345 126.172 7.819 17.197 14.007 35.362 20.078 52.872 6.642 19.436 13.639 39.597 22.645 58.385 19 39.316 46.374 68.118 77.312 80.957 2.678 1.099 5.464 2.178 8.142 3.277 12.981 5.118 25.247 10.025 34.555 19.18 11.893 11.623 16.837 31.024 13.006 50.529-3.025 15.191-10.507 30.053-24.301 48.07-17.169 22.454-38.827 41.877-62.557 56.037-25.251 15.107-51.926 24.159-79.28 26.907-6.086.638-12.411 1.205-18.626 1.753-12.868 1.173-26.083 2.296-38.743 3.995-22.243 2.963-37.397 9.616-45.046 19.774-5.727 7.673-7.824 16.725-10.042 26.363-.863 3.986-1.817 8.1-3.117 12.165-11.011 36.678-45.883 64.776-88.159 72.333ZM143.391 112.405c-38.233 6.835-71.333 24.698-92.561 50.919-31.495 38.763-33.123 98.22-3.823 135.243 12.379 15.593 28.282 26.95 45.068 38.825 10.325 7.282 20.927 14.853 30.832 23.564 37.885 33.347 57.656 81.991 76.676 128.966 5.081 12.615 10.439 25.519 15.956 38.056 21.241 48.043 46.553 84.201 77.527 110.444 36.729 31.3 81.715 47.037 123.435 43.298 46.367-4.232 85.57-33.329 97.718-72.465 1.211-3.936 2.165-8.05 3.048-11.927 2.148-9.4 4.346-19.147 10.361-27.097 8.008-10.672 23.669-17.642 46.478-20.592 12.66-1.7 25.984-2.842 38.742-3.996 6.106-.528 12.431-1.095 18.517-1.733 53.288-5.244 104.415-35.119 140.297-82.105 13.614-17.76 20.936-32.255 23.892-47.208 3.73-18.811-1.078-37.448-12.435-48.603-8.902-8.777-21.04-13.594-33.783-18.641-2.677-1.099-5.464-2.179-8.141-3.278-31.305-12.999-59.195-42.16-78.383-81.892-9.134-18.878-16.022-39.059-22.793-58.585-6.071-17.509-12.24-35.565-20.039-52.653C593.484 92.46 547.877 46.857 494.834 25.799 437.259 2.733 371.862 11.494 328.333 47.9c-7.441 6.288-14.596 13.54-21.443 20.625-13.137 13.505-26.761 27.436-43.854 35.225-19.289 8.745-41.253 7.6-62.324 6.408-6.153-.365-12.416-.711-18.511-.748a194.322 194.322 0 0 0-38.81 2.994Z" fill="url(#d)"/><path d="M420.465 668.615c-3.933.703-7.904 1.187-11.896 1.563-41.322 3.443-85.704-12.064-121.64-42.717-30.092-25.724-54.829-61.197-75.516-108.663-4.994-11.503-9.848-23.483-14.624-35.026-18.586-45.813-37.814-93.314-73.744-126.447-8.933-8.321-18.474-15.631-27.648-22.781-15.841-12.269-30.652-23.821-42.446-39.294-13.89-18.365-20.968-42.118-19.903-66.989 1.014-24.524 9.887-47.973 24.792-66.077 27.76-33.813 76.161-53.735 129.445-53.344 5.876.077 12.01.333 17.816.647 20.357.981 41.498 1.935 59.784-6.743 16.09-7.722 29.484-21.049 42.282-33.93 7.264-7.271 14.817-14.82 22.804-21.206 44.013-35.592 109.072-43.729 165.733-20.725 52.408 21.284 97.41 66.657 123.352 124.566 7.522 16.799 13.612 34.418 19.495 51.51 6.849 19.963 13.944 40.67 23.485 59.926 18.617 37.806 45.804 66.191 76.422 79.763l.863.41c16.162 7.14 30.014 13.342 39.783 24.443 10.602 11.966 14.059 30.619 9.256 49.734-4.612 18.293-15.948 34.294-25.308 46.222-33.619 42.637-78.487 70.943-124.805 79.223-4.588.82-9.106 1.403-13.643 1.876-9.313.876-19.063 1.83-28.377 2.706a2483.984 2483.984 0 0 1-30.818 2.917c-23.512 2.175-38.593 7.35-46.04 16.12-5.883 6.799-7.989 15.177-10.254 23.921-.942 3.55-1.755 7.189-3.044 10.687-11.551 34.296-45.188 60.482-85.606 67.708ZM150.416 113.854c-37.579 6.718-70.19 24.155-91.01 49.515-30.816 37.515-32.922 93.676-4.883 130.586 11.536 15.293 26.436 26.716 42.04 38.916 9.174 7.15 18.715 14.46 27.776 22.87 36.227 33.531 55.584 81.122 74.21 127.153 4.666 11.563 9.52 23.542 14.514 35.046 20.628 47.138 45.107 82.431 75.051 107.957 35.53 30.274 79.327 45.66 120.103 42.315 44.876-3.74 83.37-31.132 95.801-68.065 1.18-3.479 2.122-7.028 2.955-10.558 2.175-8.616 4.401-17.579 10.663-24.784 7.845-9.065 23.324-14.537 47.381-16.809 9.988-.884 20.612-1.995 30.819-2.918 9.422-.895 19.063-1.83 28.376-2.706 50.577-4.647 100.56-33.98 137.126-80.299 9.29-11.691 20.428-27.543 24.88-45.469 4.592-18.402 1.272-36.29-8.814-47.898-9.492-10.812-23.215-16.924-39.12-23.885l-.862-.41c-30.986-13.731-58.559-42.385-77.383-80.718-9.541-19.256-16.656-40.072-23.524-60.144-5.883-17.092-11.974-34.711-19.347-51.312C591.324 94.874 546.837 49.86 494.906 28.716 438.868 6.052 374.665 13.923 331.338 48.94 323.46 55.308 316.016 62.837 308.732 70c-12.996 13.03-26.48 26.485-42.898 34.266-18.793 8.994-40.172 7.97-60.747 7.028-5.806-.315-11.94-.57-17.817-.647-12.626.003-24.947 1.079-36.854 3.208Z" fill="url(#e)"/><path d="M413.511 654.982c-4.26.761-8.669 1.324-13.008 1.649-40.487 3.068-83.57-12.107-118.307-41.735-29.28-24.968-53.205-59.684-73.111-105.937-4.619-10.669-9.078-21.705-13.369-32.433-18.192-44.869-36.877-91.228-71.129-124.435-8.051-7.802-16.183-14.801-24.167-21.6-14.768-12.574-28.745-24.501-39.824-39.763-26.798-36.906-24.188-92.143 5.95-128.41 26.991-32.436 74.121-51.905 125.867-51.915 5.638.006 11.425.212 17.102.436 19.861.732 40.506 1.437 58.207-7.363 15.524-7.733 28.669-20.564 41.327-32.97 7.662-7.568 15.632-15.303 24.036-21.877 43.722-34.075 107.478-41.302 162.532-18.462 51.276 21.26 95.158 66.045 120.467 122.94 7.334 16.382 13.237 33.584 18.933 50.259 7.075 20.598 14.377 41.832 24.195 61.376 18.363 36.387 45.124 64.285 75.532 78.57 16.994 8.007 30.098 15.694 38.814 27.209 9.181 12.22 11.21 30.452 5.595 48.811-5.283 17.06-16.25 31.981-26.316 44.374-33.974 41.911-77.829 69.585-121.832 77.564-4.479.801-8.888 1.364-13.316 1.817-7.546.673-15.291 1.494-22.817 2.276-12.719 1.372-25.895 2.713-38.294 3.352-16.977.894-37.659 3.126-46.943 12.337-6.04 5.925-8.174 13.519-10.467 21.48-.911 3.093-1.802 6.295-2.951 9.318-6.536 17.622-19.192 33.183-36.512 44.731-13.592 9.079-29.371 15.393-46.194 18.401Zm-255.942-539.59c-36.923 6.601-69.048 23.614-89.458 48.111-29.58 35.604-32.168 89.71-5.815 126.02 10.931 15.063 24.779 26.9 39.438 39.493 7.984 6.8 16.245 13.888 24.296 21.69 34.529 33.496 53.362 80.053 71.593 125.141 4.272 10.619 8.731 21.655 13.35 32.324 19.866 46.035 43.623 80.442 72.646 105.231 34.331 29.249 76.938 44.285 116.859 41.205 43.933-3.346 80.832-28.312 93.904-63.556 1.149-3.023 1.951-6.096 2.862-9.189 2.204-7.832 4.567-16.031 10.876-22.343 9.772-9.635 29.869-11.988 48.304-12.917 12.4-.639 25.556-2.09 38.295-3.353 7.526-.782 15.38-1.622 22.816-2.276 47.955-4.177 96.706-32.84 133.826-78.581 9.977-12.265 20.854-27.056 25.978-43.75 5.494-17.774 3.563-35.46-5.283-47.064-8.439-11.226-21.285-18.734-38.04-26.67-30.776-14.446-57.814-42.632-76.364-79.436-9.947-19.634-17.268-40.977-24.344-61.575-5.676-16.566-11.579-33.768-18.785-50.06-25.101-56.369-68.577-100.775-119.486-121.876-54.559-22.59-117.53-15.39-160.675 18.13-8.314 6.445-16.175 14.161-23.838 21.73-12.856 12.553-26.09 25.512-41.833 33.285-18.208 9.116-39.091 8.341-59.19 7.539-5.568-.244-11.355-.449-16.993-.456-12.041.124-23.688 1.192-34.939 3.203Z" fill="url(#f)"/><path d="M406.537 641.24c-4.588.82-9.324 1.442-14.12 1.735-39.543 2.674-81.435-12.15-114.955-40.643-28.487-24.321-51.561-58.062-70.725-103.321-4.115-9.745-8.16-19.728-12.037-29.403-17.688-43.945-36.106-89.45-68.7-122.841-6.763-6.906-13.408-13.156-19.815-19.336-14.121-13.365-27.43-25.974-37.984-41.443-12.076-17.676-18.075-39.819-16.728-62.486 1.218-22.757 9.73-44.451 23.758-61.159 26.711-31.484 71.208-49.919 122.29-50.487 5.4-.063 10.949.072 16.279.246 19.365.482 39.425 1.066 56.739-8.002 14.85-7.726 27.745-20.061 40.153-31.972 8.189-7.775 16.667-15.826 25.508-22.478 43.539-32.577 106.081-39.024 159.419-16.328 50.144 21.238 93.015 65.414 117.563 121.206 7.037 15.984 12.752 32.768 18.37 49.007 7.154 21.035 14.683 42.904 24.907 62.827 17.979 34.877 44.552 62.357 74.532 77.396 18.083 9.051 29.803 18.451 36.892 29.693 7.87 12.455 8.541 30.028 1.845 48.017-5.886 15.59-16.552 29.668-27.305 42.634-20.699 24.775-62.294 65.682-118.333 75.7-4.37.781-8.888 1.363-13.445 1.727a774.283 774.283 0 0 0-22.579 2.346c-13.483 1.509-27.404 3.096-40.448 3.287-19.337.301-39.014 1.227-47.936 8.682-6.088 5.033-8.249 11.843-10.57 19.019-.88 2.637-1.741 5.383-2.859 7.949-12.463 29.839-42.902 51.847-79.716 58.428ZM163.809 116.869c-36.159 6.464-66.941 22.786-87.212 46.808-28.364 33.582-31.304 85.723-6.875 121.363 10.514 15.25 23.714 27.879 37.707 41.155 6.516 6.16 13.161 12.41 19.924 19.315 32.851 33.571 51.309 79.294 69.037 123.458 3.876 9.675 7.921 19.658 12.036 29.403 19.105 44.931 42.031 78.473 70.261 102.615 33.133 28.224 74.439 42.928 113.526 40.223 42.314-2.944 78.415-26.077 92.007-59.047 1.009-2.547 1.889-5.184 2.769-7.821 2.321-7.176 4.622-14.462 11.217-19.811 9.43-7.771 29.434-8.755 49.099-9.116 13.044-.19 26.855-1.758 40.339-3.267a755.583 755.583 0 0 1 22.688-2.365c62.082-5.238 108.443-50.378 130.545-76.756 10.683-12.728 21.26-26.677 27.075-42.03 6.556-17.512 5.913-34.302-1.661-46.359-6.921-10.934-18.382-20.154-36.099-29.046-30.456-15.179-57.197-42.967-75.453-78.133-10.353-20.012-17.882-41.882-25.056-63.026-5.508-16.258-11.313-32.913-18.221-48.808-24.36-55.374-66.934-99.153-116.603-120.25-52.771-22.685-114.53-16.265-157.581 15.886-8.752 6.523-17.229 14.575-25.309 22.33-12.607 12.059-25.612 24.414-40.66 32.288-17.732 9.255-38.01 8.711-57.613 8.158-5.33-.174-10.879-.309-16.17-.265-11.584.155-22.903 1.165-33.717 3.098Z" fill="url(#g)"/><path d="M399.911 627.549c-5.025.898-10.218 1.488-15.45 1.86-38.709 2.3-79.282-12.085-111.513-39.681-27.567-23.584-49.938-56.549-68.32-100.595-3.572-8.603-7.183-17.424-10.517-25.956-17.352-43.329-35.396-87.999-66.351-121.684a2216.407 2216.407 0 0 0-12.979-13.908c-15.009-15.799-27.948-29.488-38.717-46.158-23.286-36.183-19.845-86.159 8.11-118.88 25.815-30.196 69.168-48.089 118.803-49.187 5.162-.134 10.363-.049 15.455.055 18.87.233 38.434.567 55.183-8.513 14.065-7.698 26.73-19.429 38.889-30.844 8.696-8.09 17.68-16.459 27.048-23.317 43.228-31.169 104.577-36.727 156.287-14.303 49.013 21.215 90.783 64.912 114.678 119.58 6.85 15.567 12.378 31.934 17.808 47.755 7.361 21.562 14.969 43.868 25.708 64.149 17.595 33.368 43.763 60.471 73.622 76.094 16.932 8.919 28.391 19.38 34.95 32.069 8.95 17.22 2.677 36.936-1.905 47.222-6.588 14.814-17.591 28.276-28.422 40.806-38.896 45.27-84.585 72.145-128.587 75.729a752.683 752.683 0 0 0-22.688 2.366c-14.01 1.715-28.587 3.42-42.275 3.162l-2.481-.007c-19.455-.354-37.887-.665-46.468 4.926-6.264 4.05-8.453 10.076-10.801 16.469-.85 2.18-1.679 4.47-2.638 6.669-13.123 28.041-41.582 47.892-76.429 54.122Zm-228.84-509.161c-35.612 6.366-65.907 22.263-85.769 45.423-27.506 32.077-30.776 81.121-7.954 116.597 10.639 16.581 23.559 30.161 38.459 45.98 4.177 4.437 8.613 9.053 13.087 13.888 31.214 33.864 49.296 78.753 66.777 122.171 3.443 8.513 6.945 17.353 10.497 25.847 18.235 43.847 40.438 76.504 67.855 99.889 31.826 27.218 72.051 41.552 110.194 39.241 41.152-2.511 75.619-23.435 90.199-54.667.978-2.091 1.808-4.38 2.657-6.56 2.349-6.393 4.787-12.915 11.558-17.281 8.978-5.887 27.739-5.635 47.541-5.23l2.481.007c13.559.168 28.026-1.517 42.056-3.123 7.507-.892 15.341-1.841 22.797-2.385 43.566-3.506 88.728-30.175 127.246-75.039 10.632-12.382 21.654-25.734 28.063-40.291 4.423-9.919 10.466-29.031 1.98-45.545-6.391-12.381-17.572-22.553-34.138-31.312-30.136-15.912-56.561-43.194-74.453-76.96-10.759-20.39-18.386-42.806-25.767-64.476-5.43-15.821-10.958-32.188-17.679-47.666-23.727-54.36-65.18-97.55-113.717-118.625-51.106-22.194-111.78-16.644-154.52 14.1-9.278 6.73-18.263 15.098-26.849 23.17-12.268 11.433-24.914 23.273-39.307 31.03-17.166 9.267-36.929 9.081-56.146 8.798-5.092-.104-10.293-.189-15.346-.074-11.019.166-21.643 1.277-31.802 3.093Z" fill="url(#h)"/><path d="M392.61 613.865a135.273 135.273 0 0 1-16.235 1.888c-37.765 1.906-77.147-12.128-108.18-38.699-26.774-22.937-48.294-54.927-65.934-97.979-2.99-7.241-5.89-14.612-8.751-21.764-17.145-42.802-34.782-87.094-64.337-121.142-18.321-21.067-33.335-38.781-45.612-59.463-10.152-17.006-14.964-37.558-13.553-57.982 1.492-21.229 9.392-40.673 22.742-56.132 25.047-28.82 67.02-46.241 115.226-47.759 4.815-.184 9.778-.17 14.523-.116 19.287.045 37.442.068 53.715-9.152 13.409-7.581 25.607-18.778 37.427-29.568 9.203-8.407 18.784-17.22 28.807-24.196 42.917-29.76 103.053-34.538 153.175-12.169 47.792 21.32 88.531 64.3 111.794 117.955 6.553 15.169 12.022 31.209 17.264 46.613 7.459 22.107 15.274 44.94 26.399 65.49 17.212 31.859 43.064 58.454 72.732 74.901 16.148 8.946 27.256 20.596 33.028 34.553 6.769 16.371.728 34.242-5.565 46.299-6.793 13.047-16.848 24.875-29.43 38.957-25.702 28.938-65.346 63.748-113.084 72.282-4.042.722-8.013 1.207-12.114 1.602-7.565.564-15.38 1.623-22.887 2.514-14.665 1.833-29.768 3.744-43.991 3.018-3.762-.229-7.394-.368-10.937-.637-16.873-1.04-31.462-1.926-38.916 1.773-6.311 3.157-8.548 8.29-11.033 13.919-.819 1.724-1.617 3.557-2.525 5.41-13.753 25.786-41.086 43.745-73.748 49.584ZM178.314 119.798c-35.066 6.269-65.003 21.651-84.435 44.057-26.54 30.552-30.23 76.629-8.996 112.051 12.257 20.573 26.569 37.511 45.444 59.156 29.704 34.246 47.47 78.628 64.654 121.648 2.861 7.152 5.761 14.523 8.75 21.764 17.473 42.744 38.954 74.516 65.47 97.273 30.627 26.193 69.662 40.176 106.97 38.24 39.095-2.031 72.963-21.271 88.302-50.158.927-1.744 1.726-3.577 2.435-5.282 2.486-5.628 4.952-11.366 11.899-14.749 7.871-3.886 22.679-3.04 39.899-1.948 3.543.268 7.176.407 10.937.636 13.985.656 29.107-1.146 43.754-3.088 7.615-.911 15.43-1.97 22.996-2.533 52.57-4.215 96.5-42.158 124.054-73.342 12.852-14.468 22.439-25.762 29.142-38.68 6.114-11.799 12.034-29.086 5.492-44.821-5.584-13.539-16.415-24.901-32.306-33.668-29.926-16.626-56.054-43.51-73.434-75.677-11.274-20.749-18.98-43.601-26.567-65.798-5.243-15.404-10.692-31.334-17.245-46.504-23.075-53.237-63.428-95.948-110.834-117-49.606-22.01-109.087-17.35-151.497 12.095-9.933 6.847-19.425 15.531-28.628 23.938-11.909 10.92-24.107 22.116-37.715 29.845-16.69 9.408-35.957 9.471-54.569 9.418-4.745-.054-9.689.041-14.523.116-10.086.338-19.945 1.312-29.449 3.011Z" fill="url(#i)"/><path d="M388.972 599.865a148.452 148.452 0 0 1-20.682 2.232c-36.911 1.64-75.123-12.152-104.828-37.608-25.962-22.18-46.779-53.394-63.529-95.253-2.22-5.464-4.459-11.036-6.57-16.519-17.036-42.822-34.544-87.024-62.738-121.653-15.784-19.492-27.286-36.482-39.509-58.752-19.446-35.516-15.214-80.45 10.27-109.348 24.279-27.443 64.98-44.411 111.648-46.33 4.597-.146 9.193-.291 13.7-.308 18.791-.204 36.56-.45 52.247-9.791 12.536-7.425 24.285-17.978 35.637-28.234 9.909-8.871 20.106-18.02 30.785-25.113 21.049-14.018 46.273-22.359 72.89-24.187 26.508-1.809 53.317 3.09 77.262 14.024 46.66 21.298 86.389 63.669 108.909 116.329 6.385 14.862 11.667 30.484 16.741 45.579 7.647 22.525 15.559 45.904 27.091 66.832 16.829 30.35 42.274 56.567 71.841 73.708 15.621 9.153 26.36 21.884 31.087 36.929 5.2 16.426-2.179 33.748-9.316 45.504-7.027 11.737-16.662 22.137-27.771 34.379l-2.647 2.839c-40.8 44.709-81.778 68.939-121.918 72.058-7.565.564-15.489 1.642-23.085 2.662-15.193 2.04-31.06 4.088-45.708 2.875-21.497-1.68-41.069-2.689-51.175-2.46-5.4.064-7.286 4.008-9.382 8.665-1.157 2.348-2.295 4.805-3.968 6.795-8.819 21.862-34.183 38.229-67.282 44.146ZM185.685 121.298c-34.628 6.19-64.078 21.147-83.191 42.82-25.016 28.364-29.166 72.494-10.056 107.394 12.204 22.161 23.597 39.17 39.361 58.553 28.342 34.828 45.999 79.229 63.054 122.16 2.22 5.464 4.35 11.056 6.57 16.519 16.711 41.64 37.36 72.547 63.064 94.548 29.428 25.167 67.273 38.799 103.638 37.257 42.291-1.813 76.174-19.703 86.314-45.52l.18-.258c1.602-1.751 2.74-4.208 3.808-6.428 2.205-4.677 4.5-9.482 10.903-9.612 10.235-.14 29.44.71 51.303 2.549 14.52 1.123 30.278-.905 45.361-2.926 7.596-1.019 15.54-1.989 23.195-2.681 39.684-3.15 80.243-27.193 120.775-71.515l2.647-2.84c11.019-12.113 20.654-22.513 27.592-34.121 6.867-11.371 14.087-28.326 9.113-44.116-4.559-14.737-15.129-27.16-30.364-36.044-29.825-17.32-55.548-43.826-72.525-74.374-11.66-21.018-19.573-44.397-27.239-67.031-5.074-15.096-10.336-30.609-16.701-45.361-22.154-52.5-61.496-94.603-107.789-115.74-48-21.848-106.267-17.968-148.495 9.98-10.569 7.073-20.786 16.112-30.586 24.964-11.332 10.365-23.19 20.937-35.925 28.511-16.105 9.528-34.896 9.731-53.102 10.056-4.506.017-9.103.162-13.699.308-9.302.31-18.357 1.366-27.206 2.948Z" fill="url(#j)"/><path d="M383.02 586.166c-7.209 1.289-14.954 2.11-22.906 2.404-35.966 1.246-72.968-12.086-101.495-36.626-25.06-21.553-45.154-51.882-61.123-92.528-1.224-3.049-2.466-6.208-3.69-9.258-17.044-43.496-34.67-88.354-61.858-124.289-14.316-18.853-22.048-34.939-29.682-50.479-1.255-2.593-2.49-5.077-3.743-7.67-14.538-29.52-16.751-73.301 11.349-104.583 23.402-26.046 62.851-42.452 108.072-44.902 4.249-.196 8.627-.302 12.766-.479 18.296-.453 35.569-.949 50.78-10.43 11.771-7.288 22.963-17.178 33.757-26.77 10.506-9.317 21.519-18.949 32.942-26.288 42.911-27.28 99.291-30.372 147.04-8.03 45.529 21.275 84.137 63.058 106.025 114.704 6.088 14.464 11.311 29.759 16.198 44.437 7.744 23.071 15.735 46.886 27.762 68.064 16.337 28.86 41.465 54.57 70.951 72.514 19.615 11.933 26.672 28.027 29.165 39.414 2.915 13.116-1.48 28.214-12.976 44.581-6.545 9.397-14.706 17.956-24.201 27.88-2.379 2.454-4.738 5.017-7.206 7.599-38.169 40.52-72.639 62.685-107.377 68.895-3.714.664-7.468 1.11-11.24 1.446-7.675.583-15.599 1.662-23.285 2.81-15.848 2.157-32.242 4.412-47.534 2.751a831.042 831.042 0 0 1-26.664-3.461c-10.875-1.549-19.558-2.814-25.196-2.821-4.978 1.792-7.098 4.425-9.418 7.206-1.205 1.455-2.499 3.039-4.27 4.482-8.138 19.374-31.919 33.881-62.943 39.427ZM193.147 122.668c-34.192 6.113-63.263 20.664-82.076 41.495-27.543 30.618-25.447 73.744-11.117 102.737 1.254 2.594 2.489 5.078 3.743 7.671 7.525 15.559 15.347 31.516 29.515 50.17 27.316 36.025 44.982 81.101 62.135 124.578 1.223 3.05 2.466 6.209 3.689 9.258 15.93 40.428 35.767 70.578 60.679 91.932 28.249 24.251 64.775 37.443 100.394 36.146 41.456-1.438 74.541-17.495 84.527-41.031l.07-.238.199-.148c1.661-1.424 2.975-2.898 4.18-4.353 2.429-2.801 4.819-5.82 10.342-7.709l.219-.04c5.747-.013 14.539 1.233 25.652 2.853 7.988 1.164 17.018 2.479 26.664 3.46 15.054 1.591 31.339-.644 47.078-2.782 7.705-1.039 15.629-2.117 23.284-2.81 38.225-3.114 75.524-25.222 117.475-69.798 2.468-2.583 4.827-5.146 7.206-7.599 9.405-9.796 17.566-18.355 24.021-27.623 11.208-16.09 15.483-30.604 12.755-43.301-2.434-11.06-9.304-26.737-28.403-38.311-29.634-18.143-55.04-44.142-71.505-73.091-12.047-21.288-20.167-45.193-27.931-68.372-4.887-14.679-10.09-29.864-16.178-44.328-21.7-51.229-60.031-92.723-105.193-113.838-47.254-22.093-102.959-19.01-145.472 7.974-11.334 7.21-22.237 16.823-32.743 26.14-10.903 9.612-22.095 19.501-33.956 26.918-15.628 9.669-33.924 10.122-51.654 10.587-4.159.067-8.517.283-12.766.479-8.35.591-16.75 1.529-24.833 2.974Z" fill="url(#k)"/><path d="M378.181 572.38c-8.084 1.445-16.831 2.333-26.043 2.515-35.023.851-70.834-12.13-98.143-35.535-24.267-20.906-43.51-50.26-58.738-89.912-4.033-10.549-7.817-21.593-11.523-32.2-12.111-35.475-24.655-72.113-50.115-96.524l-.129-.09-.019-.109c-4.314-9.597-8.939-17.786-13.061-25.051-6.394-11.14-11.859-20.869-14.262-32.386-19.308-27.201-13.858-71 12.429-99.817 22.635-24.669 60.702-40.603 104.585-43.602 3.901-.247 7.932-.404 11.833-.65 17.8-.703 34.687-1.468 49.442-10.98 10.807-7.004 21.442-16.23 31.588-25.031 11.321-9.8 23.02-20.005 35.427-27.52 42.599-25.872 97.766-28.184 143.908-6.005 44.288 21.271 81.885 62.446 103.121 112.969 5.92 14.156 10.955 29.033 15.803 43.493 7.823 23.508 16.001 47.74 28.434 69.296 15.824 27.261 40.656 52.574 69.952 71.341 19.603 12.499 25.615 29.681 27.223 41.79 1.713 13.33-3.732 27.601-16.617 43.767-5.895 7.364-13.09 14.398-20.662 21.837-3.841 3.73-7.772 7.588-11.753 11.793-31.806 32.621-71.64 56.308-115.119 68.476-23.949 6.648-49.852 8.687-72.863 5.475-15.609-2.168-29.915-5.246-40.452-7.419-4.92-1.036-9.276-2.061-12.53-2.606-4.986 1.117-7.154 2.857-9.502 4.854-1.283 1.018-2.566 2.037-4.177 3.114-8.093 17.111-29.416 29.601-58.037 34.717ZM134.773 319.616c25.737 24.7 38.301 61.447 50.432 97.031 3.596 10.627 7.361 21.562 11.503 32.091 15.169 39.324 34.283 68.589 58.273 89.206 27.051 23.225 62.387 36.067 97.062 35.165 41.098-.924 72.729-15.031 82.61-36.632l.07-.238.199-.148c1.739-.987 3.022-2.005 4.196-3.004 2.566-2.036 4.914-4.034 10.337-5.229l.218-.039c3.255.545 7.719 1.55 12.749 2.567 10.447 2.302 24.753 5.38 40.342 7.439 22.426 3.09 48.786 1.083 72.189-5.468 43.279-12.019 82.805-35.539 114.413-68.011 4.09-4.225 8.021-8.083 11.752-11.793 7.573-7.439 14.767-14.473 20.573-21.709 12.616-15.779 18.011-29.703 16.266-42.577-1.549-11.782-7.353-28.437-26.461-40.686-29.553-18.947-54.643-44.438-70.506-71.918-12.543-21.537-20.651-46.007-28.583-69.495-4.828-14.351-9.754-29.248-15.674-43.403-21.067-50.216-58.388-91.102-102.309-112.213-45.478-21.622-100.079-19.299-142.171 6.258-12.208 7.366-23.907 17.572-35.119 27.352-10.236 8.93-20.871 18.156-31.787 25.179-15.044 9.789-32.953 10.512-50.187 11.226-3.921.137-7.823.384-11.833.65-43.446 2.921-81.205 18.687-103.551 43.08-25.82 28.282-31.189 71.277-12.197 97.972l.129.09.039.218c2.255 11.317 7.7 20.937 14.095 32.078 3.992 7.175 8.727 15.344 12.931 24.961Z" fill="url(#l)"/><path d="M549.668 537.216c-19.117 3.418-38.653 3.867-55.839 1.079-25.193-4.061-46.685-11.376-53.995-13.788-5.122.353-7.319 1.309-9.803 2.542-1.252.562-2.395 1.104-4.104 1.635-10.015 19.596-41.374 32.077-81.964 32.684-34.188.477-68.7-12.174-94.81-34.553-23.475-20.258-41.887-48.747-56.333-87.186-3.865-10.241-7.482-20.977-10.91-31.295-11.291-34.045-23.015-69.251-46.968-92.805l-.129-.09-.039-.218c-3.303-8.989-6.808-16.589-9.937-23.355-5.381-11.773-10.011-21.876-11.283-33.369-17.852-25.997-12.03-67.722 13.51-95.052 29.789-31.922 76.126-40.093 101.007-42.174 3.664-.317 7.347-.524 10.812-.693 17.393-1.081 33.804-1.986 48.082-11.639 9.844-6.718 19.722-15.133 29.093-23.232 12.206-10.521 24.81-21.34 38.091-29.01 42.179-24.445 96.152-25.867 140.796-3.87 43.156 21.247 79.633 61.833 100.126 111.362 5.753 13.848 10.62 28.417 15.28 42.46 8.01 23.924 16.177 48.722 29.087 70.419 19.523 32.798 48.31 56.277 69.061 70.148 20.88 13.96 24.752 33.666 25.301 44.274.621 13.525-5.855 27.079-20.367 42.972-5.186 5.66-11.106 11.001-17.513 16.767-5.143 4.638-10.466 9.534-16.019 15.035-31.674 31.47-70.385 54.506-111.839 66.649-5.672 1.691-12.058 3.17-18.394 4.303Zm-113.642-13.831c1.092-.195 2.422-.32 3.971-.485l.11-.019.128.089c7.092 2.452 28.584 9.767 53.886 13.808 22.653 3.727 49.687 1.711 74.104-5.471 41.235-12.105 79.638-34.973 111.113-66.295 5.553-5.5 10.876-10.396 16.019-15.035 6.298-5.746 12.308-11.216 17.404-16.747 14.243-15.507 20.54-28.803 19.888-41.872-.491-10.281-4.264-29.441-24.629-43.043-20.88-13.96-49.906-37.509-69.596-70.615-12.929-21.806-21.225-46.694-29.255-70.727-4.66-14.043-9.527-28.612-15.26-42.351-20.434-49.201-56.634-89.499-99.424-110.587-44.257-21.727-97.665-20.293-139.446 3.855-13.171 7.651-25.775 18.47-37.891 28.862-9.481 8.119-19.339 16.643-29.292 23.381-14.567 9.929-31.196 10.873-48.808 11.993-3.574.188-7.258.396-10.812.693-24.772 2.062-70.562 10.135-100.083 41.671-25.072 26.796-30.902 67.845-13.276 93.207l.148.199.039.218c1.143 11.403 5.566 20.981 11.114 33.062 3.13 6.765 6.635 14.366 9.938 23.354 24.101 23.753 35.845 59.069 47.265 93.203 3.428 10.318 7.025 20.945 10.91 31.295 14.407 38.22 32.67 66.51 55.887 86.589 25.743 22.22 59.998 34.691 93.729 34.183 40.263-.548 71.204-12.842 80.712-32.122l.18-.257.327-.059c1.709-.531 2.961-1.093 4.213-1.655 1.958-1.026 3.737-1.795 6.687-2.322Z" fill="url(#m)"/><path d="M540.935 536.298c-19.335 3.456-38.911 3.688-56.065.443-23.336-4.393-43.646-12.032-54.918-17.68-5.608-.462-7.812-.181-10.582.089-.983.176-2.095.262-3.316.367-9.841 17.424-39.746 27.954-79.978 28.047-33.244.083-66.546-12.108-91.477-33.571-22.663-19.502-40.263-47.235-53.947-84.57-3.717-10.042-7.036-20.38-10.317-30.5-11.072-34.083-21.463-66.26-43.801-88.976l-.128-.089-.04-.219c-2.283-7.706-4.629-14.499-6.728-20.547-4.632-13.259-8.318-23.757-8.299-35.594-16.505-24.772-10.073-64.352 14.59-90.286 28.554-30.01 73.373-38.473 97.43-40.745 3.316-.368 6.543-.606 9.77-.845 16.898-1.331 32.902-2.614 46.833-12.317 8.811-6.196 17.694-13.87 26.309-21.157 13.11-11.134 26.689-22.802 41.172-30.688 41.758-23.017 94.518-23.66 137.773-1.865 41.896 21.135 77.382 61.222 97.242 109.737 5.585 13.54 10.284 27.801 14.776 41.536 8.089 24.361 16.443 49.576 29.739 71.542 15.007 24.59 37.898 47.883 68.171 68.954 15.458 10.76 23.913 27.731 23.359 46.65-.64 17.808-14.018 32.484-24.028 42.049-4.418 4.283-9.441 8.337-14.733 12.777-6.376 5.309-12.951 10.767-19.787 17.286-31.542 30.319-69.11 52.813-108.538 64.933-6.578 2.302-13.49 3.989-20.482 5.239Zm-125.901-18.064.437-.078c1.44-.144 2.552-.231 3.644-.426 2.969-.418 5.193-.59 11.039-.057l.238.07c11.163 5.668 31.344 13.217 54.68 17.61 22.988 4.342 50.698 2.319 75.911-5.457 39.209-12.08 76.489-34.297 107.922-64.597 6.816-6.628 13.501-12.105 19.787-17.286 5.312-4.33 10.206-8.474 14.624-12.757 9.811-9.417 23.009-23.835 23.529-41.058.24-8.72-1.304-30.533-22.687-45.418-30.421-21.27-53.531-44.524-68.597-69.442-13.425-22.055-21.799-47.379-29.907-71.85-4.492-13.735-9.3-27.976-14.756-41.426-19.802-48.188-55.01-87.986-96.54-108.962-42.778-21.653-95.082-20.98-136.423 1.85-14.373 7.866-27.862 19.406-40.973 30.54-8.595 7.396-17.498 14.961-26.417 21.176-14.111 9.96-30.334 11.283-47.56 12.672-3.226.239-6.562.497-9.769.845-23.929 2.362-68.311 10.747-96.596 40.371-24.304 25.419-30.506 64.394-14.337 88.55l.149.199.039.218c-.059 11.619 3.627 22.117 8.24 35.266 2.08 5.94 4.425 12.733 6.709 20.439 22.485 22.914 33.389 56.69 43.988 89.393 3.261 10.01 6.6 20.458 10.297 30.39 13.536 37.137 31.077 64.541 53.502 83.973 24.544 21.195 57.589 33.206 90.505 33.182 39.994-.163 69.501-10.396 78.815-27.614l.507-.316Z" fill="url(#n)"/><path d="M532.311 535.36c-19.553 3.496-39.277 3.528-56.381-.063-19.684-4.145-35.964-11.941-47.801-17.6-3.084-1.478-5.8-2.795-8.13-3.844-5.375-2.307-7.677-2.572-10.764-2.809-1.022-.042-2.064-.194-3.453-.397-9.776 15.272-38.117 23.832-77.991 23.409-32.409-.292-64.411-12.151-88.015-32.499-21.87-18.855-38.728-45.593-51.542-81.845-3.44-9.753-6.61-19.892-9.703-29.595-10.232-32.543-19.823-63.397-40.505-85.057l-.129-.089-.039-.219c-1.257-5.748-2.653-11.02-3.713-15.677-3.951-15.747-6.791-27.185-5.211-39.752-15.049-23.568-8.136-61.092 15.688-85.411 27.428-28.118 70.639-36.745 93.943-39.446l8.638-.868c16.512-1.599 32.13-3.152 45.566-13.104 7.667-5.653 15.197-12.07 23.125-18.785 14.195-12.004 28.858-24.543 44.632-32.772 41.229-21.57 92.885-21.45 134.661.27 40.655 21.13 75.11 60.501 94.358 108.111 5.416 13.232 9.947 27.185 14.381 40.592 8.167 24.798 16.599 50.45 30.391 72.665 14.405 23.12 36.426 45.329 67.28 67.761 22.314 16.297 22.345 39.732 21.309 49.046-1.901 17.695-15.802 31.337-27.669 41.234-3.919 3.293-8.096 6.406-12.581 9.687-7.071 5.209-15.007 11.248-22.947 18.528-31.609 29.317-67.945 51.139-105.149 63.087-7.252 2.31-14.711 4.095-22.249 5.442Zm-127.15-26.292.456.031c1.499.183 2.65.315 3.801.448 3.106.346 5.607.462 11.13 2.969 2.33 1.048 5.046 2.366 8.239 3.823 11.729 5.68 27.88 13.386 47.454 17.55 23.434 4.939 51.729 3.036 77.846-5.352 36.986-11.908 73.232-33.602 104.642-62.771 7.92-7.389 15.985-13.338 23.037-18.656a328.853 328.853 0 0 0 12.581-9.687c11.668-9.749 25.28-23.114 27.15-40.353.966-9.076.924-31.945-20.746-47.793-30.983-22.523-53.133-44.821-67.577-68.159-13.92-22.305-22.373-48.066-30.559-72.974-4.434-13.407-8.965-27.36-14.381-40.592-19.169-47.173-53.367-86.364-93.764-107.316-41.409-21.56-92.48-21.559-133.311-.285-15.665 8.21-30.238 20.62-44.433 32.624-7.928 6.714-15.458 13.131-23.235 18.804-13.744 10.12-29.471 11.692-46.31 13.35l-8.638.868c-23.086 2.662-65.969 11.23-93.128 38.963-23.427 24.022-30.13 60.832-15.288 83.874l.148.199-.07.238c-1.619 12.348 1.221 23.786 5.172 39.533 1.17 4.637 2.437 9.82 3.694 15.568 20.85 21.967 30.55 52.802 40.692 85.474 3.093 9.703 6.155 19.862 9.704 29.595 12.755 35.924 29.484 62.573 51.096 81.248 23.346 20.169 55.091 31.849 87.173 32.199 39.744.333 67.777-8.059 77.027-23.123l.398-.297Z" fill="url(#o)"/><path d="M523.817 534.512c-19.773 3.535-39.645 3.368-56.827-.66-23.77-5.555-42.959-17.001-54.447-23.85l-2.408-1.485c-7.057-4.148-9.13-5.017-14.316-6.907-9.513 12.97-36.489 19.708-75.985 18.88-31.464-.686-62.367-12.066-84.682-31.518-20.969-18.227-37.104-44.08-49.136-79.119-3.272-9.445-6.166-19.295-9.11-28.799-9.303-31.132-18.163-60.426-37.339-81.228l-.148-.199-.039-.218c-.361-2.641-.792-5.043-1.113-7.465-3.166-20.17-5.336-33.531-1.728-47.361-13.593-22.363-6.288-57.704 16.769-80.646 24.858-24.842 62.841-34.337 90.366-38.018 2.532-.339 4.955-.66 7.506-.891 16.106-1.977 31.447-3.818 44.426-13.802 6.434-4.982 12.701-10.272 19.346-15.968 15.459-13.131 31.424-26.579 48.599-35.171 40.808-20.143 91.232-19.353 131.529 2.294 39.414 21.128 72.749 59.909 91.453 106.377 5.268 13.032 9.612 26.568 13.897 39.777 8.245 25.235 16.756 51.324 31.024 73.679 17.748 27.931 44.752 50.264 66.281 66.587 23.481 17.778 20.716 43.855 19.367 51.421-3.212 17.93-18.452 31.022-31.31 40.421-3.381 2.52-7.129 4.88-10.948 7.479-7.855 5.236-16.833 11.123-25.568 18.996-31.657 28.424-66.978 49.614-101.869 61.261-7.65 2.607-15.616 4.707-23.59 6.133Zm-128.511-34.501.972.389c5.316 1.98 7.498 2.83 14.574 7.087l2.409 1.485c12.112 7.189 30.419 18.116 54.079 23.69 23.879 5.536 52.849 3.625 79.762-5.356 34.781-11.627 69.775-32.759 101.342-61.054 8.845-7.892 17.803-13.889 25.768-19.144 3.818-2.598 7.566-4.959 10.947-7.479 12.66-9.251 27.611-22.066 30.792-39.539 1.388-7.348 3.923-32.82-18.914-50.15-21.658-16.413-48.79-38.835-66.667-66.856-14.287-22.465-22.818-48.663-31.083-74.007-4.265-13.099-8.738-26.725-13.877-39.668-18.556-46.269-51.614-84.761-90.88-105.69-40.019-21.358-89.897-22.246-130.288-2.29-17.084 8.463-33.05 21.91-48.399 35.022-6.645 5.696-13.021 11.006-19.456 15.988-13.268 10.26-28.718 12.121-45.042 14.138-2.423.32-4.974.551-7.506.891-27.307 3.642-65.071 13.097-89.641 37.662-22.659 22.646-29.843 57.401-16.348 79.218l.148.199-.089.129c-3.628 13.721-1.477 26.973 1.688 47.143.412 2.293.733 4.715 1.183 7.227 19.324 21 28.095 50.424 37.507 81.536 2.835 9.523 5.838 19.354 9.11 28.799 11.993 34.82 27.87 60.494 48.819 78.612 22.148 19.144 52.703 30.473 83.821 31.108 39.495.829 66.144-5.851 75.11-18.724l.159-.366Z" fill="url(#p)"/><path d="M515.521 533.516c-19.991 3.574-40.012 3.208-57.362-1.128-25.643-6.573-45.255-19.746-57.868-29.099-2.358-1.832-4.181-3.196-5.875-4.471-3.022-2.39-5.231-4.024-8.67-6.227-11.677 13.47-46.543 15.196-73.888 14.224-30.521-1.08-60.233-12.11-81.33-30.427-19.899-17.291-35.687-43.094-46.751-76.502-3.014-9.266-5.849-18.789-8.535-28.113-8.572-29.572-16.503-57.455-34.152-77.29l-.149-.199-.039-.219c-2.025-23.867-2.87-39.268 3.243-54.223-12.305-21.466-4.729-54.037 17.739-75.86 23.752-22.841 60.364-32.429 86.918-36.5 2.075-.371 4.061-.613 6.156-.875 15.829-2.266 30.783-4.376 43.376-14.629 4.913-4.034 9.807-8.177 15.099-12.616 16.812-14.388 34.22-29.22 53.252-38.145 40.258-18.805 89.489-17.125 128.525 4.409 38.283 21.105 70.498 59.297 88.57 104.751 4.991 12.744 9.404 26.042 13.521 38.942 8.324 25.672 16.913 52.198 31.548 74.713 17.088 26.134 42.674 47.48 65.371 65.285 19.031 14.968 21.515 37.626 17.425 53.797-4.522 18.163-21.101 30.706-34.951 39.606-3.022 2.005-6.303 3.831-9.762 5.915-8.569 5.025-18.262 10.703-27.742 18.821-32.41 27.995-65.575 48.011-98.569 59.544-8.286 2.834-16.798 5.032-25.1 6.516Zm-130.069-42.562.496.249c3.786 2.253 6.144 4.086 9.295 6.565 1.585 1.295 3.408 2.659 5.766 4.492 12.484 9.263 31.966 22.346 57.371 28.849 24.344 6.241 54.098 4.303 81.678-5.361 32.885-11.513 65.851-31.381 98.172-59.247 9.569-8.247 19.371-13.944 27.94-18.97 3.479-1.974 6.631-3.89 9.782-5.805 13.651-8.752 29.941-21.018 34.413-38.834 3.931-15.804 1.544-37.917-16.972-52.525-22.845-18.005-48.541-39.331-65.667-65.683-14.783-22.714-23.392-49.349-31.716-75.021-4.117-12.9-8.421-26.218-13.502-38.833-17.923-45.255-49.99-83.249-88.015-104.174-38.65-21.265-87.424-22.914-127.265-4.296-18.942 8.795-36.241 23.608-52.943 37.976-5.292 4.44-10.187 8.583-15.1 12.617-12.901 10.42-28.054 12.679-44.011 14.855-2.095.262-4.062.614-6.157.875-26.335 4.032-62.729 13.581-86.172 36.254-22.18 21.546-29.616 53.641-17.409 74.562l.168.308-.179.257c-6.152 14.736-5.217 30.009-3.232 53.658 17.689 20.053 25.748 48.026 34.211 77.617 2.667 9.215 5.393 18.758 8.516 28.004 11.025 33.191 26.664 58.794 46.415 75.887 20.949 18.118 50.313 29.097 80.596 30.107 39.246 1.323 64.64-3.555 73.213-14.216l.308-.167Z" fill="url(#q)"/><path d="M507.135 532.648c-20.209 3.613-40.487 3.068-57.916-1.705-26.565-7.309-46.56-21.991-58.772-32.881-3.357-3.006-5.594-5.424-7.683-7.642-2.238-2.418-4.198-4.546-7.09-6.847-8.856 8.458-32.429 11.545-71.882 9.695-30.123-1.377-57.821-11.864-77.997-29.444-19.107-16.645-34.043-41.472-44.346-73.778-2.865-9.066-5.443-18.41-7.961-27.427-7.713-27.922-14.933-54.354-30.946-73.242l-.149-.199-.039-.218c-.308-23.724 1.052-39.407 9.326-53.62-10.829-20.153-2.772-50.669 18.82-71.095 17.641-16.678 45.087-28.346 81.464-34.849l1.747-.312 4.698-.84c15.551-2.555 30.318-5.082 42.543-15.494 3.233-2.719 6.536-5.677 9.968-8.544 18.324-16.01 37.355-32.485 58.571-41.8 40.236-17.674 87.122-15.237 125.394 6.433 37.022 20.992 68.226 58.577 85.685 103.126 4.823 12.436 9.088 25.535 13.146 38.108 8.402 26.109 17.07 53.071 32.181 75.726 16.634 24.863 41.369 45.234 63.301 63.176l1.179.916c19.445 16.021 20.526 40.282 15.483 56.173-5.903 18.635-23.73 30.5-38.611 38.682a515.187 515.187 0 0 1-8.975 4.648c-9.193 4.686-19.53 9.915-29.537 18.24-33.273 27.586-64.389 46.447-95.289 57.718-8.644 3.349-17.465 5.714-26.313 7.296Zm-131.537-50.752.406.378c3.151 2.48 5.24 4.699 7.625 7.315 2.07 2.109 4.327 4.636 7.665 7.533 12.102 10.909 31.949 25.392 58.275 32.632 24.918 6.928 55.347 4.981 83.485-5.345 30.7-11.124 61.708-29.965 94.871-57.531 10.116-8.345 20.542-13.703 29.845-18.408a515.187 515.187 0 0 0 8.975-4.648c14.662-8.143 32.311-19.75 38.054-38.019 4.883-15.524 3.88-39.349-15.03-54.901l-1.179-.916c-21.952-18.052-46.796-38.404-63.579-63.465-15.259-22.854-23.946-49.926-32.348-76.034-4.058-12.573-8.195-25.582-13.127-37.999-17.29-44.241-48.346-81.627-85.13-102.549-37.905-21.51-84.335-23.916-124.263-6.41-21.107 9.295-40.028 25.75-58.263 41.632a300.961 300.961 0 0 1-9.967 8.544c-12.514 10.689-27.41 13.127-43.16 15.83l-4.697.84c-37.072 6.401-64.845 18.128-82.685 34.954-21.303 20.149-29.22 50.189-18.47 69.905l.168.308-.179.257c-8.204 13.976-9.603 29.44-9.315 53.055 16.053 19.106 23.273 45.539 31.005 73.57 2.519 9.016 4.987 18.38 7.942 27.318 10.154 32.106 24.942 56.735 44.029 73.27 20.028 17.381 47.468 27.69 77.264 29.125 39.691 1.92 63.115-1.366 71.425-9.726l.358-.515Z" fill="url(#r)"/><path d="M498.839 531.652c-20.537 3.672-40.854 2.909-58.58-2.262-30.124-8.927-50.359-26.835-59.695-36.774-3.604-3.751-5.869-6.952-8.223-10.025-2.078-2.784-4.027-5.478-6.779-8.254-10.452 7.729-39.763 7.108-69.984 5.186-29.18-1.771-55.688-11.908-74.646-28.354-18.442-16.086-32.528-39.939-41.959-71.16-2.717-8.868-5.018-17.924-7.279-26.761-6.872-26.382-13.252-51.274-27.63-69.214l-.149-.199-.039-.219c1.435-25.951 5.62-40.335 15.429-52.908-9.373-18.947-.834-47.408 19.9-66.329 17.162-15.577 43.266-26.555 79.853-33.772l2.949-.527c15.364-2.972 29.853-5.787 41.911-16.508l3.79-3.382c19.221-17.298 41.098-36.761 65.026-46.673 39.687-16.336 85.36-13.119 122.262 8.458 36.277 21.238 65.639 57.349 82.8 101.5 4.675 12.238 8.752 24.919 12.662 37.293 8.461 26.436 17.098 53.855 32.814 76.741 14.844 21.801 35.696 39.373 55.883 56.387 2.655 2.23 5.181 4.371 7.706 6.511 19.95 16.945 19.748 42.225 13.542 58.548-7.264 19.218-26.47 30.314-42.361 37.888-2.703 1.272-5.515 2.564-8.457 3.766-9.728 4.219-20.689 9.108-31.153 17.402-21.593 17.271-54.739 41.792-91.899 55.873a148.963 148.963 0 0 1-27.694 7.768Zm-133.095-58.813.406.378c3.01 2.956 5.088 5.74 7.205 8.742 2.226 2.983 4.6 6.165 8.095 9.936 9.316 9.829 29.293 27.557 59.179 36.414 25.472 7.505 56.596 5.66 85.4-5.349 37.051-14.062 70.088-38.563 91.591-55.705 10.553-8.423 21.643-13.223 31.352-17.551 2.922-1.311 5.754-2.493 8.457-3.765 15.692-7.426 34.57-18.464 41.695-37.206 6.025-16.066 6.236-40.671-13.198-57.257-2.526-2.14-5.072-4.39-7.707-6.511-20.187-17.014-41.058-34.696-56.032-56.586-15.735-22.995-24.501-50.503-32.872-77.068-3.909-12.374-7.987-25.056-12.642-37.184-17.013-43.953-46.207-79.755-82.246-100.923-36.535-21.417-81.861-24.584-121.24-8.416-23.728 9.764-45.496 29.208-64.627 46.377l-3.791 3.382c-12.237 10.978-26.945 13.833-42.418 16.824l-2.949.527c-36.388 7.069-62.254 18.117-79.217 33.546-20.446 18.643-28.824 46.737-19.53 65.248l.168.309-.179.257c-9.719 12.444-13.944 26.61-15.418 52.343 14.398 18.049 20.907 43.031 27.799 69.522 2.261 8.837 4.67 17.873 7.278 26.76 9.373 30.894 23.33 54.657 41.624 70.545 18.829 16.356 45.079 26.314 73.931 28.143 30.33 1.903 59.75 2.504 69.508-5.326l.378-.406Z" fill="url(#s)"/><path d="M490.672 530.746c-20.756 3.71-41.331 2.768-59.244-2.82-33.118-10.533-53.394-31.815-60.598-40.557-3.722-4.406-6.124-8.371-8.378-12.138-2.085-3.459-4.003-6.61-6.744-9.951-10.009 5.17-36.875 3.098-67.958.766-28.236-2.165-53.553-11.951-71.313-27.371-17.65-15.44-30.904-38.427-39.554-68.436-2.46-8.688-4.611-17.545-6.724-26.183-6.013-24.732-11.682-48.174-24.405-65.058l-.148-.199.07-.237c3.07-25.004 9.252-40.197 21.512-52.306-7.788-17.653 1.123-44.039 20.98-61.563 20.941-18.394 51.744-27.057 76.147-32.433l.983-.176c15.285-3.409 29.716-6.552 41.586-17.69 21.123-19.892 43.886-40.076 69.113-49.657 39.028-14.979 83.597-11 119.149 10.592 35.037 21.235 63.368 56.628 79.916 99.875 4.507 11.929 8.545 24.392 12.307 36.567 8.429 26.893 17.254 54.729 33.336 77.774 13.63 19.426 32.163 35.384 50.031 50.785 4.389 3.723 8.519 7.267 12.56 10.94 19.036 16.882 19.517 42.829 11.491 60.943-8.805 20.056-30.442 30.799-46.002 37.074a624.841 624.841 0 0 1-8.227 3.161c-10.154 3.731-21.561 8.024-32.371 16.268-26.972 20.599-56.277 41.39-88.6 54.156-9.538 3.395-19.302 6.155-28.915 7.874ZM355.91 463.891l.296.398c2.89 3.54 4.956 6.89 7.171 10.438 2.254 3.767 4.636 7.624 8.248 12.049 7.076 8.653 27.223 29.844 60.084 40.198 26.046 8.191 57.845 6.338 87.335-5.245 32.233-12.637 61.538-33.428 88.401-54.007 10.9-8.373 22.525-12.705 32.679-16.436a398.3 398.3 0 0 0 8.117-3.141c15.342-6.237 36.78-16.831 45.316-36.501 7.847-17.856 7.375-43.129-11.275-59.742-4.041-3.673-8.172-7.217-12.56-10.94-17.997-15.49-36.529-31.448-50.179-50.984-16.211-23.134-24.946-51.099-33.485-77.972-3.851-12.047-7.781-24.53-12.287-36.459-16.4-43.048-44.602-78.351-79.381-99.406-35.294-21.414-79.516-25.342-118.237-10.53-25.008 9.541-47.661 29.706-68.695 49.469-12.069 11.286-26.59 14.558-42.113 17.897l-.983.176c-24.293 5.357-54.898 13.871-75.73 32.246-19.677 17.266-28.428 43.286-20.59 60.592l.168.308-.288.277c-12.17 11.98-18.392 26.954-21.392 51.72 12.871 17.083 18.54 40.524 24.573 65.366 2.113 8.638 4.264 17.495 6.724 26.183 8.611 29.79 21.736 52.688 39.238 67.929 17.521 15.35 42.691 24.937 70.707 27.141 31.322 2.402 58.426 4.544 67.72-.836l.418-.188Z" fill="url(#t)"/><path d="M482.505 529.839c-20.974 3.749-41.807 2.628-60.036-3.467-34.773-11.59-54.618-34.864-61.503-44.339-3.729-5.081-6.14-9.721-8.53-14.253-2.075-4.024-4.11-7.83-6.84-11.737-7.49 2.241-23.676.626-46.094-1.79-6.321-.673-12.861-1.307-19.858-1.972-19.272-1.851-46.842-7.854-67.979-26.389-16.858-14.793-29.389-36.895-37.149-65.71-2.311-8.49-4.225-17.276-6.189-25.716-5.154-23.083-10.092-44.964-21.289-60.881l-.148-.199.07-.238c4.717-24.622 12.994-40.076 27.596-51.702-6.332-16.449 3.06-40.78 22.059-56.799 19.089-16.147 46.12-24.473 72.679-31.024 14.025-3.521 28.487-7.121 40.279-18.695 18.21-17.906 42.465-39.823 69.28-49.35 38.37-13.621 81.727-8.863 116.128 12.598 33.776 21.122 61.115 56.016 77.011 98.14 4.468 11.711 8.229 23.886 11.932 35.733 8.508 27.329 17.282 55.513 33.95 78.678 12.473 17.38 29.183 31.973 45.357 46.099 5.735 4.947 11.084 9.626 16.233 14.453 19.322 17.845 18.489 45.267 9.55 63.318-7.872 15.833-23.624 27.326-49.643 36.26-2.544.906-5.216 1.722-8.107 2.576-10.47 3.225-22.431 6.941-33.589 15.134-25.319 18.5-54.019 39.521-85.319 52.329-9.729 4.219-19.801 7.146-29.851 8.943Zm-136.559-74.986.168.308c2.988 4.087 5.043 8.002 7.156 12.245 2.372 4.422 4.782 9.062 8.402 14.162 6.866 9.367 26.562 32.442 60.987 43.981 26.749 8.967 59.204 6.997 89.252-5.249 31.191-12.789 59.91-33.701 85.12-52.182 11.267-8.212 23.228-11.928 33.788-15.281 2.781-.835 5.454-1.651 8.106-2.576 25.692-8.876 41.355-20.241 49.067-35.706 8.779-17.685 9.581-44.65-9.335-62.118-5.259-4.807-10.607-9.486-16.233-14.453-16.174-14.125-32.993-28.699-45.615-46.277-16.688-23.275-25.481-51.568-34.118-78.987-3.703-11.847-7.464-24.022-11.931-35.733-15.877-42.015-43.068-76.71-76.586-97.652-34.054-21.41-77.172-26.099-115.214-12.536-26.597 9.488-50.782 31.166-68.883 49.053-11.882 11.703-26.542 15.451-40.696 18.883-26.341 6.512-53.263 14.818-72.262 30.837-18.801 15.87-28.013 39.943-21.65 55.936l.168.308-.051.347c-14.531 11.388-22.828 26.733-27.475 51.117 11.216 16.026 16.155 37.908 21.328 61.1 1.855 8.459 3.878 17.226 6.189 25.716 7.721 28.597 20.123 50.609 36.833 65.203 20.988 18.336 48.211 24.288 67.355 26.05 6.996.665 13.536 1.299 19.857 1.972 21.833 2.295 38.951 4.081 46.074 1.681l.199-.149Z" fill="url(#u)"/><path d="M474.337 528.932c-21.192 3.789-42.282 2.488-60.809-4.005-36.1-12.705-55.711-37.823-62.406-48.122-3.718-5.646-6.156-11.07-8.555-16.276-2.192-4.68-4.126-9.18-7.063-13.613-5.123.352-14.629-1.104-27.608-3.066-10.091-1.577-22.613-3.509-36.427-5.096-18.637-2.078-44.986-8.186-64.627-25.298-16.065-14.146-27.765-35.382-34.763-63.094-2.074-8.42-3.858-17.116-5.585-25.485-4.294-21.434-8.372-41.666-18.023-56.507l-.149-.199.07-.238c6.325-24.459 16.698-40.175 33.679-51.099-4.895-15.353 4.729-37.134 23.031-52.013 19.495-15.769 48.153-23.823 69.082-29.705 14.384-4.037 27.16-8.237 37.878-19.507 24.702-25.715 47.424-41.723 69.578-48.951 37.602-12.245 79.835-6.835 113.015 14.732 32.407 21.028 58.735 55.314 74.018 96.534 4.299 11.402 7.932 23.488 11.576 35.007 8.566 27.657 17.419 56.277 34.453 79.603 11.615 15.73 26.759 29.138 41.567 41.93 6.695 5.903 13.113 11.517 19.223 17.299 19.736 18.899 17.73 47.319 7.608 65.695-11.228 20.376-32.078 34.246-53.393 35.465-13.839.784-29.061 6.435-42.575 15.951-3.003 2.114-6.095 4.357-9.208 6.492-23.01 16.284-46.836 33.053-72.811 44.12-9.908 4.476-20.289 7.572-30.776 9.446ZM149.543 268.065c9.671 14.951 13.769 35.292 18.063 56.726 1.727 8.369 3.383 16.976 5.565 25.376 6.85 27.513 18.511 48.531 34.447 62.586 19.403 17.042 45.514 23.081 64.022 25.069 13.794 1.478 26.336 3.518 36.427 5.095 13.217 2.033 22.742 3.598 27.717 3.047l.328-.059.148.199c2.976 4.652 5.039 9.242 7.251 14.031 2.399 5.206 4.818 10.521 8.536 16.167 6.675 10.189 26.028 35.129 61.891 47.763 27.323 9.653 60.581 7.765 91.167-5.254 25.885-10.938 49.602-27.687 72.612-43.972 3.113-2.134 6.205-4.377 9.208-6.492 13.733-9.555 29.044-15.335 43.101-16.157 20.878-1.141 41.53-14.863 52.579-34.982 9.942-18.118 11.828-45.953-7.502-64.473-6.001-5.802-12.419-11.416-19.224-17.3-14.718-12.921-30.081-26.29-41.714-42.129-17.164-23.415-26.036-52.144-34.622-79.91-3.535-11.54-7.277-23.605-11.576-35.008-15.244-41.001-41.424-75.088-73.702-96.027-32.922-21.387-74.827-26.856-112.211-14.65-21.935 7.19-44.567 23.068-69.179 48.655-10.938 11.309-23.803 15.637-38.296 19.693-20.821 5.864-49.369 13.897-68.685 29.409-17.923 14.474-27.617 36.492-22.602 51.26l.059.328-.308.168c-16.853 11.014-27.245 26.621-33.5 50.841Z" fill="url(#v)"/><path d="M466.717 527.928c-21.63 3.867-43.415 2.465-62.019-4.465-26.321-9.72-49.451-28.687-63.31-51.905-3.726-6.321-6.282-12.4-8.58-18.3-2.2-5.354-4.233-10.401-7.178-15.509-2.907-.494-7.153-1.538-12.57-2.824-11.547-2.782-28.897-7.118-49.548-9.737-26.207-3.429-46.833-11.575-61.294-24.317-15.401-13.587-26.25-33.849-32.358-60.368-1.964-8.439-3.491-16.956-4.979-25.255-3.524-19.655-6.853-38.219-14.849-52.003l-.148-.199.07-.238c7.913-24.405 20.579-40.531 39.782-50.387-3.31-14.059 6.666-33.874 24.11-47.248 16.937-13.057 40.422-20.411 61.125-26.93l4.381-1.346c14.831-4.68 25.991-9.718 35.607-20.227 15.826-17.368 40.768-39.858 69.765-48.535 36.814-10.977 77.963-4.697 109.882 16.757 31.147 20.916 56.355 54.613 71.134 94.908 4.151 11.204 7.725 22.962 11.22 34.283 8.536 28.113 17.467 57.17 35.067 80.507 10.794 14.299 24.72 26.572 38.24 38.468 7.617 6.639 14.847 13.01 21.57 19.697 19.21 19.105 17.399 48.617 5.667 68.07-12.36 20.353-34.619 33.912-56.926 34.631-15.029.433-30.477 5.449-43.672 14.231-5.647 3.715-11.365 7.667-16.973 11.6-19.668 13.546-40.023 27.665-61.766 37.187-10.056 4.277-20.745 7.54-31.45 9.454ZM150.976 262.851c8.016 13.893 11.344 32.457 14.868 52.112 1.488 8.299 3.016 16.816 4.98 25.255 6.069 26.301 16.788 46.473 32.041 59.861 14.313 12.543 34.721 20.728 60.799 24.067 20.67 2.729 38.11 6.936 49.677 9.827 5.545 1.375 9.9 2.4 12.698 2.914l.238.07.149.199c2.965 5.218 5.126 10.353 7.345 15.817 2.408 5.88 4.835 11.87 8.541 18.082 13.73 23.128 36.713 41.896 62.795 51.546 27.659 10.269 62.486 8.326 93.083-5.258 21.723-9.631 41.988-23.622 61.656-37.168 5.628-3.823 11.326-7.885 16.974-11.599 13.194-8.783 28.841-13.946 44.109-14.309 21.978-.661 44.039-14.071 56.219-34.167 11.463-19.067 13.243-48.123-5.58-66.959-6.723-6.687-13.825-12.968-21.441-19.607-13.52-11.896-27.555-24.15-38.369-38.558-17.64-23.555-26.57-52.612-35.235-80.815-3.495-11.321-7.069-23.079-11.111-34.302-14.74-40.077-39.799-73.576-70.836-94.51-31.791-21.365-72.593-27.594-109.189-16.657-28.887 8.658-53.63 31-69.367 48.239-9.705 10.638-20.954 15.804-36.005 20.523l-4.381 1.347c-20.593 6.499-43.969 13.833-60.816 26.762-17.246 13.226-27.241 32.931-23.662 46.604l.059.328-.309.167c-19.381 10.114-31.978 26.002-39.93 50.189Z" fill="url(#w)"/><path d="M458.659 527.002c-21.848 3.906-43.891 2.324-62.921-5.093-27.132-10.476-50.607-30.734-64.213-55.687-3.715-6.887-6.279-13.641-8.695-20.196-2.208-6.029-4.358-11.73-7.312-17.513-8.527-3.547-30.571-12.679-60.22-17.071-25.61-3.874-44.57-11.528-57.833-23.244-14.628-13.05-24.754-32.427-29.952-57.643-1.746-8.478-3.055-17.035-4.324-25.373-2.626-17.787-5.204-34.681-11.635-47.281l-.039-.218.09-.129c9.59-24.479 24.59-40.797 45.974-49.803-1.834-12.745 8.733-30.524 25.081-42.463 14.668-10.623 34.528-17.442 52.063-23.394 3.398-1.171 6.796-2.342 9.975-3.474 11.336-4.055 23.132-9.319 33.207-21.037 12.215-14.243 37.581-39.4 70.062-48.137 36.136-9.729 75.963-2.649 106.88 18.871 29.776 20.823 54.102 54.002 68.248 93.283 4.003 11.005 7.409 22.455 10.756 33.577 8.595 28.44 17.494 57.954 35.571 81.431 10.122 13.066 22.978 24.404 35.518 35.235 8.003 6.909 16.194 14.235 23.382 21.628 19.514 20.177 16.639 50.669 3.705 70.336-13.362 20.42-37.139 33.687-60.585 33.708-11.495.027-28.584 2.18-44.661 12.492-7.496 4.721-14.824 9.75-22.551 15.076-16.864 11.579-34.344 23.495-52.798 31.865-10.634 4.831-21.631 8.262-32.773 10.254ZM152.428 257.745c6.45 12.709 9.029 29.603 11.654 47.39 1.27 8.338 2.579 16.895 4.305 25.264 5.178 25.107 15.175 44.394 29.656 57.245 13.262 11.716 31.964 19.191 57.465 23.085 29.778 4.481 52.079 13.792 60.478 17.249l.129.09.02.109c3.082 5.873 5.232 11.574 7.46 17.712 2.415 6.555 4.85 13.22 8.566 20.107 13.567 24.734 36.803 44.922 63.807 55.309 28.452 10.916 63.973 9.074 94.909-5.134 18.435-8.48 35.806-20.375 52.69-31.846 7.437-5.048 15.163-10.374 22.66-15.095 16.295-10.351 33.602-12.543 45.097-12.57 23.208-.092 46.677-13.19 59.86-33.353 12.755-19.41 15.49-49.425-3.638-69.334-7.188-7.393-14.973-14.34-23.363-21.518-12.559-10.94-25.415-22.278-35.537-35.345-18.206-23.567-27.105-53.08-35.719-81.63-3.348-11.122-6.863-22.552-10.756-33.576-14.127-39.173-38.304-72.153-67.952-92.886-30.659-21.34-70.248-28.35-106.166-18.66-32.262 8.697-57.429 33.706-69.644 47.949-10.114 11.5-22 16.893-33.445 20.967a1056.345 1056.345 0 0 1-9.975 3.474c-17.426 5.932-37.176 12.731-51.735 23.336-16.368 11.829-26.736 29.46-24.722 41.947l.058.328-.308.167c-21.423 8.789-36.353 24.869-45.854 49.219Z" fill="url(#x)"/><path d="M450.62 526.185c-22.066 3.945-44.386 2.075-63.803-5.611-27.944-11.232-51.673-32.91-65.117-59.47-3.813-7.433-6.276-14.881-8.7-22.111-2.216-6.704-4.374-13.08-7.426-19.409-10.524-7.134-32.029-17.038-58.323-21.579-17.096-2.917-38.672-8.188-54.499-22.263-13.688-12.203-23.19-31.241-27.567-55.026-1.547-8.627-2.528-17.241-3.579-25.618-1.946-15.881-3.625-30.907-8.6-42.302l-.039-.218.09-.129c11.139-24.643 28.691-41.192 52.058-49.201-.269-11.56 10.47-27.116 26.161-37.697 12.558-8.556 28.435-14.324 43.676-19.866 5.176-1.94 10.045-3.712 14.784-5.573 13.673-5.487 22.99-11.999 30.916-21.868 19.755-24.38 45.379-41.809 70.23-47.829 35.22-8.55 74.053-.729 103.748 20.897 28.516 20.709 51.702 53.191 65.364 91.657 3.854 10.806 7.221 22.037 10.42 32.96 8.673 28.878 17.522 58.738 36.184 82.336 9.47 11.944 21.494 22.416 32.984 32.421 8.538 7.376 17.373 15.151 24.897 23.159 9.078 9.76 13.721 22.453 13.457 36.7-.21 12.66-4.501 25.823-11.674 36.121-14.365 20.487-39.551 33.442-64.227 32.894-18.214-.35-33.152 3.11-45.777 10.663-8.858 5.303-17.996 11.557-26.736 17.515-14.567 9.929-29.641 20.174-45.423 27.729-10.594 5.049-22.009 8.668-33.479 10.718ZM153.861 252.531c4.884 11.523 6.673 26.53 8.619 42.41 1.051 8.377 2.051 17.101 3.579 25.619 2.956 16.488 10.076 39.22 27.25 54.519 15.698 13.985 37.256 19.147 54.133 22.103 26.422 4.63 48.166 14.605 58.69 21.739l.129.09.019.109c3.071 6.438 5.397 13.122 7.575 19.607 2.404 7.121 4.867 14.57 8.68 22.002 13.295 26.361 36.896 47.949 64.711 59.092 29.283 11.783 65.46 9.823 96.825-5.138 15.673-7.535 30.747-17.78 45.314-27.71 8.74-5.957 17.878-12.212 26.736-17.514 12.735-7.573 27.871-11.181 46.195-10.85 24.328.497 49.315-12.31 63.61-32.559 13.558-19.328 17.568-51.036-1.697-71.709-7.524-8.009-16.339-15.674-24.787-23.18-11.619-10.094-23.643-20.566-33.133-32.619-18.681-23.707-27.64-53.548-36.332-82.534-3.199-10.924-6.566-22.155-10.4-32.852-13.623-38.248-36.68-70.639-65.068-91.26C464.962 70.47 426.477 62.7 391.456 71.102c-24.742 6.001-50.276 23.3-69.832 47.533-8.035 9.888-17.442 16.529-31.224 22.035-4.63 1.842-9.608 3.634-14.785 5.573-15.24 5.542-30.988 11.4-43.566 19.847-15.691 10.581-26.231 25.989-25.764 37.401l.059.327-.328.059c-23.515 7.81-40.977 24.23-52.155 48.655Z" fill="url(#y)"/><path d="M442.691 525.349c-22.285 3.983-44.971 1.953-64.724-6.348-28.756-11.99-52.721-34.978-66.021-63.254-3.802-7.998-6.273-16.121-8.685-23.916-2.166-7.051-4.391-14.429-7.56-21.413-9.12-8.738-29.301-20.682-56.426-26.089-18.236-3.614-37.182-8.679-51.167-21.28-16.51-14.742-22.799-36.608-25.161-52.301-1.368-8.884-2.06-17.776-2.803-26.321-1.117-13.775-2.207-26.765-5.616-36.975l-.019-.109.09-.129c12.797-24.827 32.9-41.606 58.27-48.508 1.316-10.265 12.427-23.747 27.112-33.021 10.538-6.617 23.505-11.64 36.054-16.475 6.756-2.56 13.076-5.042 18.919-7.665 11.995-5.412 20.777-12.392 28.535-22.569 18.425-24.255 44.774-42.038 70.527-47.431 34.433-7.283 72.052 1.319 100.616 22.922 27.147 20.616 49.322 52.489 62.46 89.922 3.687 10.498 6.905 21.53 10.064 32.235 8.642 29.334 17.55 59.522 36.669 83.151 8.966 11.019 20.049 20.646 30.856 29.983 9.053 7.736 18.403 15.869 26.154 24.513 19.758 22.163 14.632 55.197-.178 75.088-17.2 22.909-46.342 30.147-67.758 32.06-2.989.309-6.017.399-9.244.638-12.489.768-25.435 1.504-37.631 8.305-9.931 5.607-19.974 12.474-29.708 19.173-12.539 8.665-25.605 17.537-39.171 24.245a124.924 124.924 0 0 1-34.454 11.569ZM155.313 247.425c3.409 10.209 4.498 23.2 5.615 36.975.743 8.544 1.435 17.436 2.803 26.32 2.343 15.584 8.612 37.341 24.865 51.903 13.945 12.383 32.673 17.487 50.909 21.102 27.234 5.386 47.672 17.51 56.812 26.357l.129.09c3.188 7.093 5.413 14.471 7.708 21.612 2.413 7.795 4.884 15.918 8.686 23.916 13.151 28.077 37.096 50.956 65.615 62.875 30.095 12.539 67.075 10.661 98.74-5.142 13.457-6.688 26.523-15.561 39.062-24.226 9.735-6.699 19.777-13.565 29.708-19.172 12.286-6.93 25.907-7.675 37.94-8.473 3.227-.239 6.254-.33 9.134-.619 21.287-2.002 50.23-9.092 67.341-31.873 14.631-19.633 19.725-52.211.225-74.194-7.751-8.645-17.081-16.669-26.025-24.423-10.807-9.338-22-18.945-30.985-30.073-19.247-23.719-28.194-54.125-36.836-83.459-3.16-10.705-6.359-21.628-10.065-32.235-13.118-37.324-35.165-69.108-62.183-89.634-28.434-21.513-65.925-30.025-100.03-22.801-25.515 5.463-51.794 23.008-70.129 47.134-7.848 10.306-16.72 17.415-28.824 22.847-5.843 2.622-12.163 5.104-18.919 7.664-12.44 4.816-25.426 9.73-35.855 16.327-17.13 10.726-25.94 24.472-26.824 32.744l-.07.238-.218.039c-25.479 6.922-45.492 23.572-58.329 48.181Z" fill="url(#z)"/><path d="M435.07 524.345c-22.612 4.042-46.122 1.821-66.043-6.789-29.44-12.656-53.787-37.153-66.925-67.036-3.227-7.311-5.035-14.877-6.784-22.115-2.398-9.601-4.589-18.676-9.6-27.134-6.277-10.486-25.51-24.064-54.529-30.597-17.143-3.81-34.919-8.634-47.814-20.19-15.589-14.005-21.007-34.787-22.776-49.684-1.099-9.271-1.413-18.568-1.778-27.519-.378-11.54-.747-22.405-2.88-31.152l-.019-.11.089-.128c14.745-25.288 36.912-41.873 64.354-47.906 2.5-7.434 12.138-19.074 28.192-28.255 8.589-4.916 18.903-9.014 28.799-12.924 8.098-3.251 15.779-6.315 22.597-9.788 10.536-5.377 18.405-12.418 26.245-23.399 17.472-24.536 43.97-42.12 70.714-47.014l.327-.058c33.428-5.976 69.725 3.425 97.177 25.114 26.253 20.663 46.843 51.242 59.575 88.297 3.538 10.299 6.717 21.113 9.709 31.51 8.591 29.681 17.597 60.414 37.281 84.055 8.482 10.204 18.863 19.055 28.966 27.617 9.44 8.004 19.177 16.406 27.134 25.577 19.973 23.364 13.893 57.358-2.119 77.463-14.718 18.521-40.108 29.709-71.399 31.246-3.118.219-6.274.22-9.65.26-12.696.241-25.958.471-38.323 6.964-10.715 5.634-21.335 13.055-31.666 20.199-10.928 7.588-22.164 15.344-33.823 21.373-10.894 5.892-22.796 9.935-35.031 12.123ZM156.854 242.191c2.023 8.767 2.393 19.632 2.771 31.172.365 8.951.66 18.139 1.758 27.409 1.75 14.789 7.019 35.372 22.479 49.287 12.767 11.467 30.523 16.181 47.557 20.01 29.128 6.513 48.619 20.272 54.915 30.866 5.012 8.458 7.331 17.623 9.62 27.244 1.769 7.347 3.666 14.784 6.765 22.006 13.008 29.793 37.207 54.091 66.518 66.657 30.541 13.136 69.09 11.203 100.676-5.037 11.659-6.029 22.895-13.785 33.824-21.374 10.331-7.143 20.951-14.564 31.775-20.218 12.454-6.621 25.716-6.851 38.542-7.003 3.375-.04 6.512-.15 9.54-.24 18.088-.98 51.305-6.242 70.981-31.059 15.813-19.957 21.863-53.495 2.167-76.57-7.848-9.19-17.565-17.483-27.005-25.488-10.123-8.671-20.504-17.521-29.095-27.706-19.813-23.73-28.709-54.483-37.32-84.274-2.992-10.396-6.171-21.21-9.709-31.509-12.713-36.946-33.283-67.416-59.408-87.99-27.323-21.598-63.491-30.91-96.7-24.973l-.327.058c-26.635 4.874-52.934 22.31-70.317 46.718-7.929 11.109-15.798 18.151-26.443 23.547-6.818 3.473-14.499 6.537-22.597 9.787-9.897 3.911-20.101 7.989-28.69 12.905-16.054 9.181-25.602 20.693-27.884 28.088l-.09.129-.218.039c-27.352 5.904-49.539 22.379-64.085 47.519Z" fill="url(#A)"/><path d="M427.141 523.508c-22.831 4.082-46.598 1.682-67.054-7.396-30.143-13.432-54.834-39.22-67.719-70.839-3.236-7.986-5.29-16.296-7.176-24.299-2.386-10.167-4.656-19.678-9.457-28.85-6.391-12.381-25.103-28.081-52.631-35.106l-.714-.21c-14.881-3.764-31.665-8.089-43.768-18.998-11.568-10.441-18.723-27.081-20.261-46.978-.779-10.004-.516-19.855-.304-29.36.181-9.048.461-17.55-.355-24.617l-.02-.109.09-.129c16.223-25.214 40.962-41.92 69.801-47.076l.764-.136c3.579-5.824 13.35-15.46 29.144-23.58 6.599-3.434 14.28-6.497 21.743-9.522 9.042-3.645 18.412-7.348 26.056-11.87 11.233-6.516 18.095-15.406 23.954-24.23 16.34-24.559 43.455-42.478 71.011-46.616 32.6-4.926 67.883 5.107 94.481 27.061 24.864 20.461 44.443 50.432 56.691 86.672 3.389 10.1 6.42 20.715 9.373 30.893 8.669 30.118 17.515 61.219 37.785 84.98 7.997 9.389 17.824 17.663 27.244 25.558 9.826 8.273 19.91 16.726 27.857 26.462 8.946 10.91 13.227 25.359 11.919 40.694-1.177 14.185-6.97 28.406-15.981 39.145-21.634 25.843-56.358 30.248-75.04 30.432-3.266.02-6.551-.069-10.055-.118-12.904-.286-26.373-.582-38.906 5.602-11.3 5.514-22.298 13.341-32.898 20.87-9.407 6.641-19.212 13.578-29.291 18.986a120.714 120.714 0 0 1-36.283 12.684ZM158.287 236.976c.816 7.067.646 15.549.355 24.617-.212 9.505-.475 19.356.304 29.359 1.609 19.66 8.744 36.191 20.074 46.562 11.974 10.819 28.739 15.035 43.51 18.818l.714.21c27.637 7.005 46.497 22.905 53.018 35.375 4.692 9.191 7.168 19.23 9.476 28.96 1.886 8.002 3.92 16.203 7.156 24.19 12.846 31.399 37.409 57.098 67.423 70.44 31.501 14.091 70.834 12.13 102.592-5.042 10.079-5.408 19.774-12.325 29.29-18.985 10.601-7.53 21.619-15.247 33.008-20.89 12.642-6.204 26.112-5.907 39.124-5.642 3.504.05 6.79.139 10.056.119 18.662-.294 53.187-4.55 74.622-30.245 16.906-20.152 24.02-54.669 3.98-79.035-7.927-9.628-18.011-18.08-27.837-26.354-9.44-8.004-19.266-16.277-27.372-25.647-20.379-23.742-29.245-54.952-37.934-85.178-2.953-10.179-5.984-20.794-9.373-30.894-12.228-36.131-31.788-65.992-56.523-86.363-26.469-21.865-61.533-31.938-94.005-26.921-27.318 4.207-54.362 21.89-70.594 46.429-5.859 8.823-12.81 17.842-24.152 24.377-7.774 4.433-17.124 8.245-26.166 11.89-7.353 3.005-15.034 6.069-21.653 9.393-15.794 8.121-25.565 17.756-29.054 23.451l-.09.129-.109.019-.874.157c-28.293 5.058-52.832 21.616-68.966 46.701Z" fill="url(#B)"/><path d="M419.232 522.781c-23.05 4.12-47.095 1.431-68.085-8.114-30.826-14.099-55.772-41.307-68.603-74.512-3.373-8.751-5.436-17.736-7.458-26.503-2.387-10.167-4.833-20.661-9.185-30.476-5.983-13.243-22.921-31.627-50.734-39.615-1.3-.331-2.49-.682-3.809-1.122-13.312-3.819-26.971-7.688-37.34-17.104-14.688-13.377-17.506-33.497-17.856-44.253-.429-11.193.73-22.332 1.778-32.211.581-6.189 1.221-12.051 1.323-17.141l-.02-.109.09-.129c18.33-26.041 45.589-42.522 76.649-46.61 6.438-6.222 17.792-13.323 30.223-18.814 4.592-2.06 9.44-3.941 14.597-5.99 10.423-4.117 21.283-8.313 29.735-13.993 9.684-6.352 15.563-15.066 21.553-25.04 15.35-25.058 42.721-42.799 71.179-46.308 31.665-3.858 65.864 7.046 91.369 29.195 23.475 20.258 42.063 49.73 53.807 85.046 3.241 9.901 6.213 20.189 9.017 30.168 8.619 30.465 17.563 62.111 38.27 85.795 7.641 8.664 16.784 16.27 25.67 23.698 10.064 8.343 20.515 16.956 28.431 27.148 8.915 11.366 12.947 26.31 11.369 42.032-1.446 14.571-7.835 29.237-17.392 40.073-17.132 19.517-45.866 30.288-78.681 29.618a221.776 221.776 0 0 1-10.57-.477c-13.111-.811-26.659-1.545-39.488 4.242-11.667 5.354-22.755 13.309-33.535 21.096-8.174 5.97-16.676 11.997-25.374 16.933-11.413 6.774-24.04 11.172-36.93 13.477ZM159.739 231.87c-.102 5.09-.762 10.843-1.343 17.032-.938 9.86-2.097 20.998-1.688 32.082.35 10.756 3.239 30.638 17.688 43.945 10.24 9.326 23.899 13.196 37.082 16.924 1.3.332 2.619.772 3.809 1.123 27.943 8.077 45.009 26.551 51.011 39.903 4.463 9.796 6.908 20.29 9.185 30.477 2.023 8.767 4.085 17.752 7.439 26.393 12.811 33.097 37.738 60.195 68.326 74.224 32.551 14.917 72.559 12.948 104.508-5.047 8.698-4.936 17.18-11.073 25.374-16.933 10.78-7.787 21.848-15.851 33.644-21.116 12.829-5.787 26.486-5.073 39.706-4.28 3.653.248 7.067.427 10.571.476 32.705.69 61.221-10.042 78.264-29.43 18.157-20.714 25.325-56.819 5.921-81.411-7.896-10.083-18.347-18.696-28.411-27.039-8.886-7.428-18.138-15.015-25.799-23.788-20.836-23.773-29.78-55.419-38.418-85.993-2.804-9.98-5.776-20.267-9.018-30.169-11.724-35.206-30.292-64.569-53.638-84.738-25.486-22.04-59.447-32.873-91.002-29.035-28.349 3.49-55.522 21.082-70.781 46.012-6.1 9.993-11.979 18.707-21.753 25.188-8.471 5.571-19.311 9.876-29.843 14.013-5.157 2.048-10.006 3.93-14.488 5.97-12.412 5.6-23.676 12.573-30.114 18.795l-.219.039c-30.732 4.029-57.773 20.471-76.013 46.383Z" fill="url(#C)"/><path d="M411.63 521.886a121.28 121.28 0 0 1-15.36 1.731c-18.892.899-37.585-2.747-53.973-10.523-31.42-14.894-56.82-43.373-69.508-78.295-3.51-9.515-5.709-19.265-7.76-28.815-2.355-10.624-4.879-21.555-9.002-31.974-6.433-15.755-22.623-35.625-48.837-44.124-1.924-.671-4.066-1.302-5.99-1.972-11.338-3.496-22.932-7.17-31.806-15.163-10.132-9.346-15.772-24.453-15.471-41.637.261-13.007 3.004-26.006 5.213-36.318.603-2.926 1.226-5.742 1.669-8.3l.089-.129c20.008-26.116 50.147-42.886 82.752-45.898 7.774-4.432 18.934-9.47 31.175-14.138 2.216-.846 4.451-1.584 6.776-2.451 11.535-4.203 24.669-8.918 33.998-15.995 8.225-6.316 13.011-14.835 18.175-23.76l1.107-2.001c14.198-25.19 42.315-43.176 71.476-45.91 15.31-1.385 31.593.776 46.896 6.267 15.065 5.42 29.347 14.025 41.341 24.953 22.085 20.056 39.643 48.811 50.902 83.311 3.202 9.683 5.917 19.791 8.681 29.553 8.589 30.921 17.482 62.914 38.884 86.699 7.305 8.048 15.894 15.077 24.334 21.908 10.302 8.414 20.991 17.096 28.966 27.616 8.884 11.823 12.757 27.134 10.82 43.37-1.805 15.086-8.592 30.048-18.675 41.092-18.494 20.098-48.508 30.647-82.322 28.803-3.633-.139-7.434-.587-11.086-.835-13.298-1.229-27.053-2.489-39.961 2.861-11.964 4.956-23.012 13.13-33.644 21.116-7.051 5.318-14.43 10.694-21.965 15.196a118.281 118.281 0 0 1-37.894 13.762Zm-250.458-295.23c-.444 2.558-1.086 5.265-1.689 8.19-2.33 10.898-4.952 23.312-5.212 36.319-.231 16.945 5.28 31.963 15.392 41.2 8.764 8.012 20.34 11.577 31.567 15.092l6.1 1.953c26.363 8.698 42.682 28.658 49.114 44.412 4.213 10.291 6.647 21.351 9.112 31.955 2.16 9.531 4.359 19.28 7.76 28.815 12.668 34.812 37.959 63.311 69.359 78.096 33.62 15.853 74.433 13.966 106.423-5.051 7.536-4.503 14.805-9.859 21.966-15.196 10.74-8.006 21.789-16.18 33.753-21.136 13.017-5.37 26.881-4.129 40.179-2.9 3.672.358 7.453.696 10.977.855 33.685 1.754 63.61-8.667 81.994-28.745 19.25-20.909 27.373-57.974 7.843-83.896-7.845-10.431-18.534-19.113-28.836-27.527-8.441-6.83-17.049-13.969-24.354-22.017-21.511-23.765-30.424-55.868-39.032-86.898-2.656-9.781-5.479-19.869-8.681-29.552-11.24-34.392-28.797-63.146-50.754-83.113-24.503-22.216-57.379-33.919-87.98-31.04-28.942 2.694-56.86 20.532-71.078 45.613l-1.106 2.001c-5.145 9.034-9.931 17.553-18.246 23.998-9.328 7.077-22.552 11.921-34.087 16.124-2.325.866-4.561 1.604-6.776 2.451-12.351 4.687-23.421 9.596-31.175 14.138-32.586 3.121-62.616 19.871-82.533 45.859Z" fill="url(#D)"/><path d="M404.048 521.1c-23.595 4.218-48.721 1.159-70.582-9.47-32.103-15.561-57.757-45.46-70.411-82.078-3.538-10.299-5.894-20.922-8.082-31.237-2.434-11.06-4.927-22.447-8.91-33.343-8.36-22.735-25.934-40.893-46.958-48.742-2.42-.92-5.058-1.801-7.568-2.592-9.6-3.242-19.439-6.554-26.877-13.452-9.448-8.679-14.315-23.248-13.065-38.911 1.211-15.881 5.139-30.445 10.752-40.013 17.554-29.735 53.5-38.64 88.835-45.295 5.79-1.035 12.495-3.248 20.184-5.637 3.835-1.249 7.888-2.537 12.07-3.735 12.964-3.783 27.647-8.662 37.178-17.127 6.606-5.915 10.347-13.345 14.318-21.38.818-1.724 1.745-3.468 2.673-5.211 6.523-12.662 16.934-23.764 29.809-31.813 12.766-8.03 27.25-12.76 41.764-13.552 15.17-.909 30.51 1.646 45.692 7.722 14.449 5.757 28.095 14.587 39.542 25.613 20.955 20.033 37.036 47.473 48.018 81.686 3.054 9.484 5.71 19.264 8.326 28.826 8.558 31.378 17.42 63.828 39.368 87.515 6.86 7.451 15.132 13.974 23.037 20.336 10.521 8.375 21.448 17.128 29.263 28.015 8.853 12.278 12.496 28.194 10.271 44.707-2.163 15.601-9.438 30.988-20.087 42.02-10.251 10.736-23.493 18.625-39.327 23.372-14.325 4.364-30.509 5.905-46.527 4.598a251.422 251.422 0 0 1-11.62-1.303c-13.486-1.646-27.448-3.433-40.543 1.5-12.043 4.52-22.834 12.872-33.356 20.839-6.146 4.705-12.491 9.558-18.973 13.647-11.662 7.269-24.668 12.073-38.214 14.495Zm-4.76-442.158c-26.217 4.687-49.625 21.268-61.425 44.114-.928 1.744-1.746 3.468-2.674 5.211-3.971 8.035-7.692 15.575-14.407 21.509-9.621 8.594-24.323 13.364-37.377 17.275-4.291 1.218-8.235 2.486-12.07 3.735-7.669 2.498-14.394 4.602-20.184 5.637-35.226 6.636-71.171 15.541-88.637 45.147-5.522 9.439-9.45 24.003-10.681 39.775-1.16 15.534 3.668 29.885 13.007 38.584 7.418 6.788 17.256 10.1 26.748 13.362 2.529.9 5.147 1.672 7.567 2.592 11.365 4.279 21.502 11.144 29.956 20.565 7.434 8.137 13.376 18.006 17.151 28.376 3.983 10.895 6.476 22.283 8.91 33.343 2.188 10.315 4.544 20.938 8.082 31.237 12.634 36.509 38.269 66.298 70.262 81.879 34.215 16.648 76.814 14.667 108.359-4.947 6.482-4.089 12.828-8.942 18.974-13.647 10.502-8.076 21.293-16.429 33.445-20.967 13.204-4.953 27.166-3.167 40.761-1.54 3.801.448 7.731.985 11.512 1.323 34.685 2.928 65.889-7.271 85.635-27.931 20.233-21.085 29.401-59.237 9.785-86.271-7.795-10.778-18.722-19.531-29.243-27.905-7.905-6.363-16.177-12.886-23.057-20.446-22.077-23.777-30.959-56.336-39.516-87.713-2.617-9.563-5.292-19.452-8.326-28.827-10.853-34.123-27.044-61.544-47.889-81.596-23.558-22.61-55.312-34.965-84.867-33.175-3.227.239-6.524.715-9.801 1.301Z" fill="url(#E)"/><path d="M396.268 520.462c-23.705 4.238-49.327.93-71.742-10.277-32.677-16.247-58.695-47.546-71.315-85.86-3.675-11.064-6.078-22.58-8.423-33.769-2.403-11.516-4.865-23.36-8.688-34.622-5.035-14.877-17.604-41.593-45.061-53.251-2.807-1.189-5.703-2.249-8.598-3.309-7.974-2.97-16.275-5.881-22.514-11.753-8.695-8.25-12.859-22.043-10.66-36.185 1.889-12.734 7.261-25.528 14.532-35.28 10.307-13.563 24.499-24.327 42.376-32.143 15.373-6.693 33.112-10.879 52.652-12.568 12.43-1.096 22.996-2.534 33.314-4.716 15.434-3.21 26.773-8.506 33.71-15.719 5.424-5.59 8.241-12.517 11.307-19.94 1.028-2.437 2.037-4.984 3.284-7.461 12.235-26.079 41.117-44.202 71.851-45.076 14.811-.394 29.792 2.675 44.358 9.087 13.723 6.112 26.843 15.149 37.724 26.163 19.417 19.632 34.636 46.663 45.134 80.06 2.885 9.176 5.412 18.867 7.99 28.211 8.526 31.834 17.358 64.74 39.98 88.419 6.653 6.925 14.391 12.98 21.87 18.855 10.74 8.336 21.776 17.069 29.521 28.194 8.822 12.735 12.215 29.145 9.632 46.174-2.483 16.334-10.105 31.671-21.48 43.058-10.886 10.962-24.803 18.859-41.203 23.594-15.02 4.263-31.699 5.554-48.272 3.671-4.019-.409-8.077-1.035-12.136-1.662-13.673-2.064-27.823-4.268-41.125.139-12.12 4.083-22.584 12.377-32.63 20.484-5.331 4.221-10.752 8.571-16.399 12.285-11.822 7.636-25.116 12.717-38.989 15.197ZM241.141 174.043c-33.864 6.054-60.89 20.69-77.104 42.183-7.291 9.643-12.534 22.526-14.442 35.151-2.11 14.013 1.946 27.826 10.601 35.858 6.239 5.872 14.431 8.803 22.404 11.772 2.896 1.06 5.792 2.121 8.598 3.309 10.858 4.596 20.547 12.105 28.701 22.367 6.986 8.781 12.627 19.493 16.619 31.064 3.842 11.371 6.304 23.215 8.707 34.731 2.345 11.189 4.748 22.705 8.403 33.659 12.601 38.206 38.49 69.415 71.167 85.662 35.522 17.654 78.796 15.665 110.274-4.951 5.648-3.714 11.069-8.064 16.4-12.285 10.155-8.127 20.618-16.421 32.739-20.504 13.411-4.426 27.541-2.331 41.234-.159 3.949.647 8.117 1.254 12.027 1.682 35.209 3.961 68.567-6.172 89.276-27.117 24.172-24.268 29.352-63.286 11.727-88.647-7.745-11.125-18.781-19.858-29.411-28.213-7.48-5.875-15.217-11.93-21.89-18.964-22.642-23.788-31.474-56.694-40.02-88.637-2.468-9.364-5.084-18.926-7.97-28.102-10.498-33.397-25.588-60.339-45.005-79.97-23-23.274-52.807-36.09-81.844-35.18-30.734.873-59.397 18.957-71.543 44.907a241.591 241.591 0 0 0-3.284 7.462c-3.086 7.313-5.992 14.369-11.416 19.96-7.026 7.341-18.365 12.637-33.908 15.866-10.319 2.183-20.994 3.64-33.315 4.716-6.196.657-12.044 1.364-17.725 2.38Z" fill="url(#F)"/><path d="M388.905 519.637c-5.244.938-10.546 1.548-15.927 1.721-19.844.617-39.676-3.726-57.283-12.637-17.002-8.681-32.118-21.306-44.814-37.405-11.953-15.106-21.407-33.251-27.405-52.238-3.702-11.848-6.282-24.347-8.654-36.319-2.462-11.844-4.893-24.144-8.576-35.882-6.154-19.861-18.715-45.903-43.164-57.76-2.955-1.388-5.999-2.647-9.024-3.796-6.674-2.639-13.457-5.258-18.735-10.175-8.031-7.692-11.294-20.858-8.274-33.569 2.487-10.024 8.458-20.107 18.42-30.565 12.7-13.428 28.62-24.613 46.099-32.133 17.46-7.629 36.459-11.702 54.923-11.847 4.05-.048 8.249.103 12.229.293 7.265.279 14.749.519 22.166-.244 13.265-1.47 23.969-6.538 30.113-14.399 4.421-5.523 6.691-12.353 8.892-18.944 1.039-3.004 2.04-6.225 3.318-9.159 5.513-13.269 15.646-24.66 29.196-32.717 12.824-7.702 28.062-12.004 42.952-11.96 28.081.05 56.913 13.716 79.079 37.364 18.266 19.5 32.118 45.197 42.249 78.435 2.737 8.977 5.205 18.34 7.634 27.485 8.496 32.29 17.297 65.653 40.485 89.343 6.337 6.418 13.668 12.095 20.722 17.483 10.849 8.316 21.975 16.92 29.669 28.392 8.682 13.211 11.935 30.098 9.082 47.512-2.841 16.849-10.861 32.482-22.781 43.967-22.18 21.546-57.056 31.387-93.245 26.361-4.168-.607-8.464-1.304-12.671-2.13-13.861-2.48-28.089-5.121-41.579-1.131-12.109 3.517-22.007 11.822-31.616 19.851-4.515 3.738-9.211 7.732-14.133 11.092-11.564 7.814-24.928 13.134-39.347 15.711Zm-145.34-350.31c-29.494 5.273-57.613 20.104-78.076 41.794-9.853 10.439-15.844 20.413-18.331 30.437-3.039 12.601.204 25.658 8.215 33.241 5.17 4.936 11.953 7.555 18.626 10.194 3.025 1.15 6.179 2.389 9.133 3.777 24.578 11.947 37.159 38.097 43.313 57.959 3.683 11.738 6.114 24.038 8.596 35.991 2.481 11.953 4.951 24.471 8.654 36.319 12.566 39.902 38.819 72.511 72.07 89.444 36.225 18.43 81.415 16.437 112.191-4.955 4.921-3.359 9.508-7.335 14.133-11.092 9.609-8.028 19.615-16.354 31.725-19.871 13.509-3.88 27.827-1.368 41.707 1.222 4.187.716 8.394 1.542 12.562 2.149 36.079 5.045 70.846-4.776 92.917-26.302 25.264-24.464 31.271-64.531 13.648-91.132-7.584-11.492-18.71-20.096-29.539-28.303-7.074-5.497-14.495-11.045-20.851-17.572-23.318-23.78-32.118-57.143-40.633-89.542-2.41-9.036-4.897-18.508-7.634-27.485-10.132-33.238-23.965-58.826-42.121-78.345-22.037-23.558-50.759-37.244-78.841-37.295-31.367-.14-60.884 18.21-71.84 44.51-1.258 3.043-2.278 6.155-3.318 9.158-2.2 6.592-4.56 13.55-8.981 19.074-6.254 7.88-17.047 13.077-30.332 14.438-7.417.762-14.901.523-22.166.244-3.98-.19-8.179-.341-12.229-.294-7.425.088-15.06.89-22.598 2.237Z" fill="url(#G)"/></g><defs><linearGradient id="b" x1="516.057" y1="24.538" x2="283.01" y2="672.929" gradientUnits="userSpaceOnUse"><stop stop-color="#4AFEBF"/><stop offset="1" stop-color="#51EEDA"/></linearGradient><linearGradient id="c" x1="516.057" y1="24.538" x2="283.01" y2="672.929" gradientUnits="userSpaceOnUse"><stop stop-color="#4AFEBF"/><stop offset="1" stop-color="#51EEDA"/></linearGradient><linearGradient id="d" x1="516.057" y1="24.538" x2="283.01" y2="672.929" gradientUnits="userSpaceOnUse"><stop stop-color="#4AFEBF"/><stop offset="1" stop-color="#51EEDA"/></linearGradient><linearGradient id="e" x1="516.057" y1="24.538" x2="283.01" y2="672.929" gradientUnits="userSpaceOnUse"><stop stop-color="#4AFEBF"/><stop offset="1" stop-color="#51EEDA"/></linearGradient><linearGradient id="f" x1="516.057" y1="24.538" x2="283.01" y2="672.929" gradientUnits="userSpaceOnUse"><stop stop-color="#4AFEBF"/><stop offset="1" stop-color="#51EEDA"/></linearGradient><linearGradient id="g" x1="516.057" y1="24.538" x2="283.01" y2="672.929" gradientUnits="userSpaceOnUse"><stop stop-color="#4AFEBF"/><stop offset="1" stop-color="#51EEDA"/></linearGradient><linearGradient id="h" x1="516.057" y1="24.538" x2="283.01" y2="672.929" gradientUnits="userSpaceOnUse"><stop stop-color="#4AFEBF"/><stop offset="1" stop-color="#51EEDA"/></linearGradient><linearGradient id="i" x1="516.057" y1="24.538" x2="283.01" y2="672.929" gradientUnits="userSpaceOnUse"><stop stop-color="#4AFEBF"/><stop offset="1" stop-color="#51EEDA"/></linearGradient><linearGradient id="j" x1="516.057" y1="24.538" x2="283.01" y2="672.929" gradientUnits="userSpaceOnUse"><stop stop-color="#4AFEBF"/><stop offset="1" stop-color="#51EEDA"/></linearGradient><linearGradient id="k" x1="516.057" y1="24.538" x2="283.01" y2="672.929" gradientUnits="userSpaceOnUse"><stop stop-color="#4AFEBF"/><stop offset="1" stop-color="#51EEDA"/></linearGradient><linearGradient id="l" x1="516.057" y1="24.538" x2="283.01" y2="672.929" gradientUnits="userSpaceOnUse"><stop stop-color="#4AFEBF"/><stop offset="1" stop-color="#51EEDA"/></linearGradient><linearGradient id="m" x1="516.057" y1="24.538" x2="283.01" y2="672.929" gradientUnits="userSpaceOnUse"><stop stop-color="#4AFEBF"/><stop offset="1" stop-color="#51EEDA"/></linearGradient><linearGradient id="n" x1="516.057" y1="24.538" x2="283.01" y2="672.929" gradientUnits="userSpaceOnUse"><stop stop-color="#4AFEBF"/><stop offset="1" stop-color="#51EEDA"/></linearGradient><linearGradient id="o" x1="516.057" y1="24.538" x2="283.01" y2="672.929" gradientUnits="userSpaceOnUse"><stop stop-color="#4AFEBF"/><stop offset="1" stop-color="#51EEDA"/></linearGradient><linearGradient id="p" x1="516.057" y1="24.538" x2="283.01" y2="672.929" gradientUnits="userSpaceOnUse"><stop stop-color="#4AFEBF"/><stop offset="1" stop-color="#51EEDA"/></linearGradient><linearGradient id="q" x1="516.057" y1="24.538" x2="283.01" y2="672.929" gradientUnits="userSpaceOnUse"><stop stop-color="#4AFEBF"/><stop offset="1" stop-color="#51EEDA"/></linearGradient><linearGradient id="r" x1="516.057" y1="24.538" x2="283.01" y2="672.929" gradientUnits="userSpaceOnUse"><stop stop-color="#4AFEBF"/><stop offset="1" stop-color="#51EEDA"/></linearGradient><linearGradient id="s" x1="516.057" y1="24.538" x2="283.01" y2="672.929" gradientUnits="userSpaceOnUse"><stop stop-color="#4AFEBF"/><stop offset="1" stop-color="#51EEDA"/></linearGradient><linearGradient id="t" x1="516.057" y1="24.538" x2="283.01" y2="672.929" gradientUnits="userSpaceOnUse"><stop stop-color="#4AFEBF"/><stop offset="1" stop-color="#51EEDA"/></linearGradient><linearGradient id="u" x1="516.057" y1="24.538" x2="283.01" y2="672.929" gradientUnits="userSpaceOnUse"><stop stop-color="#4AFEBF"/><stop offset="1" stop-color="#51EEDA"/></linearGradient><linearGradient id="v" x1="516.057" y1="24.538" x2="283.01" y2="672.929" gradientUnits="userSpaceOnUse"><stop stop-color="#4AFEBF"/><stop offset="1" stop-color="#51EEDA"/></linearGradient><linearGradient id="w" x1="516.057" y1="24.538" x2="283.01" y2="672.929" gradientUnits="userSpaceOnUse"><stop stop-color="#4AFEBF"/><stop offset="1" stop-color="#51EEDA"/></linearGradient><linearGradient id="x" x1="516.057" y1="24.538" x2="283.01" y2="672.929" gradientUnits="userSpaceOnUse"><stop stop-color="#4AFEBF"/><stop offset="1" stop-color="#51EEDA"/></linearGradient><linearGradient id="y" x1="516.057" y1="24.538" x2="283.01" y2="672.929" gradientUnits="userSpaceOnUse"><stop stop-color="#4AFEBF"/><stop offset="1" stop-color="#51EEDA"/></linearGradient><linearGradient id="z" x1="516.057" y1="24.538" x2="283.01" y2="672.929" gradientUnits="userSpaceOnUse"><stop stop-color="#4AFEBF"/><stop offset="1" stop-color="#51EEDA"/></linearGradient><linearGradient id="A" x1="516.057" y1="24.538" x2="283.01" y2="672.929" gradientUnits="userSpaceOnUse"><stop stop-color="#4AFEBF"/><stop offset="1" stop-color="#51EEDA"/></linearGradient><linearGradient id="B" x1="516.057" y1="24.538" x2="283.01" y2="672.929" gradientUnits="userSpaceOnUse"><stop stop-color="#4AFEBF"/><stop offset="1" stop-color="#51EEDA"/></linearGradient><linearGradient id="C" x1="516.057" y1="24.538" x2="283.01" y2="672.929" gradientUnits="userSpaceOnUse"><stop stop-color="#4AFEBF"/><stop offset="1" stop-color="#51EEDA"/></linearGradient><linearGradient id="D" x1="516.057" y1="24.538" x2="283.01" y2="672.929" gradientUnits="userSpaceOnUse"><stop stop-color="#4AFEBF"/><stop offset="1" stop-color="#51EEDA"/></linearGradient><linearGradient id="E" x1="516.057" y1="24.538" x2="283.01" y2="672.929" gradientUnits="userSpaceOnUse"><stop stop-color="#4AFEBF"/><stop offset="1" stop-color="#51EEDA"/></linearGradient><linearGradient id="F" x1="516.057" y1="24.538" x2="283.01" y2="672.929" gradientUnits="userSpaceOnUse"><stop stop-color="#4AFEBF"/><stop offset="1" stop-color="#51EEDA"/></linearGradient><linearGradient id="G" x1="516.057" y1="24.538" x2="283.01" y2="672.929" gradientUnits="userSpaceOnUse"><stop stop-color="#4AFEBF"/><stop offset="1" stop-color="#51EEDA"/></linearGradient></defs></svg>