<svg width="24" height="24" viewBox="0 0 24 24" fill="none" xmlns="http://www.w3.org/2000/svg">
<circle cx="12" cy="12" r="12" fill="#D84747"/>
<g clip-path="url(#clip0_1063_2562)">
<path d="M9.68419 16.0242C9.68419 15.1361 10.7154 13.6189 11.231 13.2489C10.9217 13.8039 10.7591 15.6373 12.1591 16.5792C13.3966 17.4117 14.4278 18.5219 14.6341 19.0769C15.4591 18.4294 17.7896 16.8012 18.0371 14.359C18.2846 11.9168 16.9028 10.0111 16.1809 9.36352C15.9747 11.3062 15.3766 14.3035 14.6341 10.7512C13.8916 7.19881 11.4373 5.38564 10.3029 4.9231C10.3029 5.38564 10.2413 6.63206 9.99355 7.69836C9.3207 10.5944 6.28109 11.8613 5.97176 14.359C5.66243 16.8567 7.27111 18.4109 11.231 19.0769C11.231 19.0769 9.68419 17.6894 9.68419 16.0242Z" fill="white"/>
</g>
<defs>
<clipPath id="clip0_1063_2562">
<rect width="14.1538" height="14.1538" fill="white" transform="translate(4.92383 4.9231)"/>
</clipPath>
</defs>
</svg>
