<svg width="16" height="15" viewBox="0 0 16 15" fill="none" xmlns="http://www.w3.org/2000/svg">
<path d="M11.3212 2.92548H2.12339C1.22695 2.92548 0.500244 3.61915 0.500244 4.47485V13.2546C0.500244 14.1103 1.22695 14.804 2.12339 14.804H11.3212C12.2177 14.804 12.9444 14.1103 12.9444 13.2546V4.47485C12.9444 3.61915 12.2177 2.92548 11.3212 2.92548ZM11.8623 13.2546C11.8623 13.5399 11.6201 13.7711 11.3212 13.7711H2.12339C1.82457 13.7711 1.58233 13.5399 1.58233 13.2546V4.47485C1.58233 4.18961 1.82457 3.95838 2.12339 3.95838H11.3212C11.6201 3.95838 11.8623 4.18961 11.8623 4.47485V13.2546Z" fill="#4AFEBF"/>
<path d="M14.0264 0.34314H4.28746C3.39102 0.34314 2.66431 1.03682 2.66431 1.89251C2.66431 2.17775 2.90654 2.40898 3.20537 2.40898C3.50419 2.40898 3.7464 2.17775 3.7464 1.89251C3.7464 1.60727 3.98863 1.37604 4.28746 1.37604H14.0264C14.3252 1.37604 14.5674 1.60727 14.5674 1.89251V11.1887C14.5674 11.474 14.3252 11.7052 14.0264 11.7052C13.7275 11.7052 13.4853 11.9364 13.4853 12.2217C13.4853 12.5069 13.7275 12.7381 14.0264 12.7381C14.9228 12.7381 15.6495 12.0445 15.6495 11.1888V1.89251C15.6495 1.03682 14.9228 0.34314 14.0264 0.34314Z" fill="#4AFEBF"/>
</svg>
