<svg width="32" height="32" viewBox="0 0 32 32" fill="none" xmlns="http://www.w3.org/2000/svg">
<path d="M21.3332 15.9999C21.3332 17.4666 22.5332 18.6666 23.9998 18.6666C25.4665 18.6666 26.6665 17.4666 26.6665 15.9999C26.6665 14.5333 25.4665 13.3333 23.9998 13.3333C22.5332 13.3333 21.3332 14.5333 21.3332 15.9999ZM18.6665 15.9999C18.6665 14.5333 17.4665 13.3333 15.9998 13.3333C14.5332 13.3333 13.3332 14.5333 13.3332 15.9999C13.3332 17.4666 14.5332 18.6666 15.9998 18.6666C17.4665 18.6666 18.6665 17.4666 18.6665 15.9999ZM10.6665 15.9999C10.6665 14.5333 9.4665 13.3333 7.99984 13.3333C6.53317 13.3333 5.33317 14.5333 5.33317 15.9999C5.33317 17.4666 6.53317 18.6666 7.99984 18.6666C9.4665 18.6666 10.6665 17.4666 10.6665 15.9999Z" fill="#4AFEBF"/>
</svg>
