<svg width="20" height="20" viewBox="0 0 20 20" fill="none" xmlns="http://www.w3.org/2000/svg">
<path d="M7.38153 14.549C7.38153 13.5451 8.54727 11.8301 9.13014 11.4118C8.78041 12.0392 8.59664 14.1117 10.1793 15.1765C11.5782 16.1176 12.7439 17.3726 12.9771 18C13.9097 17.268 16.5442 15.4275 16.824 12.6667C17.1038 9.90588 15.5417 7.75163 14.7257 7.01961C14.4925 9.21569 13.8164 12.6039 12.9771 8.58824C12.1377 4.57255 9.36328 2.52288 8.08097 2C8.08097 2.52288 8.01131 3.93187 7.73125 5.13725C6.97063 8.41098 3.53455 9.84314 3.18487 12.6667C2.8352 15.4902 4.6537 17.2471 9.13014 18C9.13014 18 7.38153 16.4314 7.38153 14.549Z" fill="#D84747"/>
</svg>
