<svg width="33" height="32" viewBox="0 0 33 32" fill="none" xmlns="http://www.w3.org/2000/svg">
<rect x="32.4148" y="31.5" width="31" height="31" rx="5.5" transform="rotate(-180 32.4148 31.5)" fill="white" fill-opacity="0.05" stroke="#D84747"/>
<g clip-path="url(#clip0_813_2840)">
<path d="M20.6245 12.2902H18.7694V15.0728H15.9868V16.9279H18.7694V19.7105H20.6245V16.9279H23.4071V15.0728H20.6245V12.2902ZM7.63901 16.0004C7.63901 13.4125 9.16017 11.1772 11.3584 10.1383V8.13485C8.12133 9.28499 5.78394 12.3737 5.78394 16.0004C5.78394 19.627 8.12133 22.7157 11.3584 23.8659V21.8624C9.16017 20.8235 7.63901 18.5882 7.63901 16.0004ZM19.697 7.65253C15.0964 7.65253 11.3492 11.3998 11.3492 16.0004C11.3492 20.6009 15.0964 24.3482 19.697 24.3482C24.2976 24.3482 28.0448 20.6009 28.0448 16.0004C28.0448 11.3998 24.2976 7.65253 19.697 7.65253ZM19.697 22.4931C16.1167 22.4931 13.2042 19.5806 13.2042 16.0004C13.2042 12.4201 16.1167 9.5076 19.697 9.5076C23.2773 9.5076 26.1897 12.4201 26.1897 16.0004C26.1897 19.5806 23.2773 22.4931 19.697 22.4931Z" fill="white" fill-opacity="0.6"/>
</g>
<path d="M3.12378 29.5436L30.2542 2.41315" stroke="#D84747"/>
<defs>
<clipPath id="clip0_813_2840">
<rect width="22.2609" height="22.2609" fill="white" transform="translate(5.78394 4.86993)"/>
</clipPath>
</defs>
</svg>
