<svg width="14" height="14" viewBox="0 0 14 14" fill="none" xmlns="http://www.w3.org/2000/svg">
<path d="M5.54688 5.94531C5.04167 6.46615 4.41146 6.72656 3.65625 6.72656C2.90104 6.72656 2.26823 6.46615 1.75781 5.94531C1.2526 5.42448 1 4.72917 1 3.85938C1 2.98958 1.2526 2.29688 1.75781 1.78125C2.26823 1.26042 2.90104 1 3.65625 1C4.41146 1 5.04167 1.26042 5.54688 1.78125C6.05729 2.29688 6.3125 2.98958 6.3125 3.85938C6.3125 4.72917 6.05729 5.42448 5.54688 5.94531ZM5.0625 12.4062H4.11719L9.59375 1.20312H10.5547L5.0625 12.4062ZM3.65625 5.91406C4.17188 5.91406 4.59635 5.72135 4.92969 5.33594C5.26302 4.94531 5.42969 4.45312 5.42969 3.85938C5.42969 3.26042 5.26562 2.77083 4.9375 2.39062C4.60938 2.00521 4.18229 1.8125 3.65625 1.8125C3.125 1.8125 2.69792 2.00521 2.375 2.39062C2.05729 2.77083 1.89844 3.26042 1.89844 3.85938C1.89844 4.45833 2.05729 4.95052 2.375 5.33594C2.69792 5.72135 3.125 5.91406 3.65625 5.91406ZM11 12.5859C10.2448 12.5859 9.61198 12.3255 9.10156 11.8047C8.59635 11.2839 8.34375 10.5885 8.34375 9.71875C8.34375 8.84896 8.59635 8.15365 9.10156 7.63281C9.61198 7.11198 10.2448 6.85156 11 6.85156C11.75 6.85156 12.3802 7.11198 12.8906 7.63281C13.401 8.15365 13.6562 8.84896 13.6562 9.71875C13.6562 10.5885 13.401 11.2839 12.8906 11.8047C12.3802 12.3255 11.75 12.5859 11 12.5859ZM11 11.7656C11.5208 11.7656 11.9453 11.5729 12.2734 11.1875C12.6068 10.8021 12.7734 10.3125 12.7734 9.71875C12.7734 9.11979 12.6094 8.63021 12.2812 8.25C11.9531 7.86458 11.526 7.67188 11 7.67188C10.4688 7.67188 10.0417 7.86458 9.71875 8.25C9.40104 8.63021 9.24219 9.11979 9.24219 9.71875C9.24219 10.3177 9.40104 10.8099 9.71875 11.1953C10.0417 11.5755 10.4688 11.7656 11 11.7656Z" fill="#141616" fill-opacity="0.5"/>
</svg>
