<svg width="15" height="32" viewBox="0 0 15 32" fill="none" xmlns="http://www.w3.org/2000/svg">
<path fill-rule="evenodd" clip-rule="evenodd" d="M7.5 15C11.6421 15 15 11.6421 15 7.5C15 3.35786 11.6421 0 7.5 0C3.35786 0 0 3.35786 0 7.5C0 11.6421 3.35786 15 7.5 15ZM7.84956 8.05982L7.77188 8.97902H6.49018L6.4125 7.16651C8.03081 6.86875 8.60045 6.2991 8.60045 5.53526C8.60045 4.79732 8.16027 4.39598 7.44822 4.39598C6.83973 4.39598 6.25714 4.56428 5.55804 5.06919L4.78125 3.78749C5.81697 3.15312 6.61964 2.90714 7.5 2.90714C9.39018 2.90714 10.2188 4.16294 10.2188 5.4058C10.2188 6.80401 9.20893 7.63259 7.84956 8.05982ZM7.09866 12.2804C6.51607 12.2804 6.05 11.8013 6.05 11.2317C6.05 10.6621 6.51607 10.196 7.09866 10.196C7.68125 10.196 8.14732 10.6621 8.14732 11.2317C8.14732 11.8013 7.68125 12.2804 7.09866 12.2804Z" fill="#4AFEBF"/>
<path fill-rule="evenodd" clip-rule="evenodd" d="M7.5 32C11.6421 32 15 28.6421 15 24.5C15 20.3579 11.6421 17 7.5 17C3.35786 17 0 20.3579 0 24.5C0 28.6421 3.35786 32 7.5 32ZM7.84956 25.0598L7.77188 25.979H6.49018L6.4125 24.1665C8.03081 23.8687 8.60045 23.2991 8.60045 22.5353C8.60045 21.7973 8.16027 21.396 7.44822 21.396C6.83973 21.396 6.25714 21.5643 5.55804 22.0692L4.78125 20.7875C5.81697 20.1531 6.61964 19.9071 7.5 19.9071C9.39018 19.9071 10.2188 21.1629 10.2188 22.4058C10.2188 23.804 9.20893 24.6326 7.84956 25.0598ZM7.09866 29.2804C6.51607 29.2804 6.05 28.8013 6.05 28.2317C6.05 27.6621 6.51607 27.196 7.09866 27.196C7.68125 27.196 8.14732 27.6621 8.14732 28.2317C8.14732 28.8013 7.68125 29.2804 7.09866 29.2804Z" fill="white"/>
</svg>
