<svg width="20" height="20" viewBox="0 0 20 20" fill="none" xmlns="http://www.w3.org/2000/svg">
<rect x="1" y="1" width="18" height="18" fill="#434545"/>
<path d="M10.6696 12.212H8.92284L8.81961 9.76543C9.88086 9.57155 10.6409 9.29211 11.0998 8.9272C11.5645 8.55648 11.7968 8.10026 11.7968 7.5585C11.7968 7.06236 11.6563 6.68028 11.3752 6.41225C11.0998 6.14422 10.7155 6.01021 10.2222 6.01021C9.35592 6.01021 8.49836 6.3153 7.64937 6.9255L6.59961 5.18902C7.29946 4.76702 7.93906 4.46478 8.51843 4.28228C9.10358 4.09409 9.69725 4 10.2996 4C10.9192 4 11.4698 4.09695 11.9517 4.29084C12.4393 4.47903 12.8265 4.73565 13.1134 5.06071C13.4059 5.38576 13.6267 5.74503 13.7759 6.13853C13.9251 6.53201 13.9996 6.94546 13.9996 7.37887C13.9996 8.27419 13.7099 9.0184 13.1306 9.61151C12.5512 10.2045 11.7653 10.658 10.7728 10.9715L10.6696 12.212ZM8.73358 16.2666C8.45821 15.9872 8.32054 15.6535 8.32054 15.2658C8.32054 14.8779 8.45821 14.5472 8.73358 14.2734C9.01469 13.9997 9.35306 13.8629 9.74896 13.8629C10.1448 13.8629 10.4803 13.9997 10.7556 14.2734C11.0367 14.5472 11.1772 14.8779 11.1772 15.2658C11.1772 15.6535 11.0367 15.9872 10.7556 16.2666C10.4803 16.546 10.1448 16.6857 9.74896 16.6857C9.35306 16.6857 9.01469 16.546 8.73358 16.2666Z" fill="white" fill-opacity="0.4"/>
</svg>
