<svg width="40" height="41" viewBox="0 0 40 41" fill="none" xmlns="http://www.w3.org/2000/svg">
<circle cx="20" cy="20.2057" r="20" fill="white"/>
<path d="M12.0421 9.54407H29.2318C30.6732 9.54407 31.8417 10.7126 31.8417 12.154V28.2574C31.8417 29.6988 30.6732 30.8673 29.2318 30.8673H12.0421C11.1493 30.8673 10.4255 30.1436 10.4255 29.2507V28.1062V27.3569V13.0546V12.3052V11.1606C10.4255 10.2679 11.1493 9.54407 12.0421 9.54407Z" fill="#51EEDA"/>
<path d="M8.99793 9.54407H26.1876C27.629 9.54407 28.7975 10.7126 28.7975 12.154V28.2574C28.7975 29.6988 27.629 30.8673 26.1876 30.8673H8.99793C8.10514 30.8673 7.38135 30.1436 7.38135 29.2507V28.1062V27.3569V13.0546V12.3052V11.1606C7.38135 10.2679 8.10514 9.54407 8.99793 9.54407Z" fill="#4AFEBF"/>
<path d="M24.7346 20.2057C24.7346 18.5384 26.0862 17.1868 27.7535 17.1868H32.481C34.1483 17.1868 35.4999 18.5384 35.4999 20.2057C35.4999 21.873 34.1483 23.2246 32.481 23.2246H27.7535C26.0862 23.2246 24.7346 21.873 24.7346 20.2057Z" fill="#35C3B1"/>
<path d="M27.7036 21.9999C28.6946 21.9999 29.4978 21.1966 29.4978 20.2057C29.4978 19.2148 28.6946 18.4115 27.7036 18.4115C26.7127 18.4115 25.9094 19.2148 25.9094 20.2057C25.9094 21.1966 26.7127 21.9999 27.7036 21.9999Z" fill="white"/>
</svg>
