<svg width="600" height="600" viewBox="0 0 600 600" fill="none" xmlns="http://www.w3.org/2000/svg">
<rect width="600" height="600" fill="#1E2121"/>
<path d="M157.557 212.394C156.571 211.615 156.404 210.184 157.182 209.198L161.037 204.315C161.815 203.329 163.245 203.161 164.23 203.94C165.215 204.719 165.383 206.15 164.605 207.137L160.75 212.019C159.972 213.005 158.542 213.173 157.557 212.394Z" fill="#4AFEBF"/>
<path d="M183.425 220.913C183.425 225.051 180.073 228.406 175.938 228.406C171.803 228.406 168.451 225.051 168.451 220.913C168.451 216.774 171.803 213.42 175.938 213.42C180.073 213.42 183.425 216.774 183.425 220.913Z" fill="#51EEDA"/>
<path fill-rule="evenodd" clip-rule="evenodd" d="M180.902 251.559C178.301 254.623 173.576 254.623 170.975 251.559L149.442 226.197C147.376 223.763 147.375 220.189 149.442 217.755L151.596 215.218C152.761 213.846 154.816 213.679 156.186 214.845C157.557 216.01 157.724 218.067 156.559 219.439L154.405 221.976L175.939 247.338L182.179 239.989C183.343 238.617 185.398 238.45 186.769 239.615C188.14 240.781 188.306 242.838 187.142 244.209L180.902 251.559ZM194.364 230.67C192.993 229.505 192.826 227.448 193.991 226.076L197.472 221.976L175.939 196.613L171.403 201.955C170.239 203.326 168.184 203.494 166.813 202.328C165.443 201.162 165.276 199.106 166.44 197.734L170.975 192.392C173.576 189.329 178.301 189.329 180.902 192.392L202.435 217.755C204.502 220.189 204.502 223.763 202.435 226.197L198.954 230.297C197.789 231.668 195.734 231.836 194.364 230.67Z" fill="url(#paint0_linear_1006_2314)"/>
<path fill-rule="evenodd" clip-rule="evenodd" d="M175.938 182.518C154.164 182.518 136.513 200.184 136.513 221.976C136.513 243.768 154.164 261.434 175.938 261.434C177.737 261.434 179.195 262.893 179.195 264.693C179.195 266.493 177.737 267.952 175.938 267.952C150.567 267.952 130 247.368 130 221.976C130 196.584 150.567 176 175.938 176C177.737 176 179.195 177.459 179.195 179.259C179.195 181.059 177.737 182.518 175.938 182.518Z" fill="url(#paint1_linear_1006_2314)"/>
<path fill-rule="evenodd" clip-rule="evenodd" d="M203.667 254.614C202.401 253.336 202.41 251.272 203.688 250.005C210.902 242.851 215.364 232.938 215.364 221.976C215.364 211.014 210.902 201.101 203.688 193.947C202.41 192.68 202.401 190.617 203.667 189.338C204.933 188.059 206.995 188.05 208.272 189.317C216.67 197.645 221.877 209.205 221.877 221.976C221.877 234.747 216.67 246.307 208.272 254.635C206.995 255.902 204.933 255.893 203.667 254.614Z" fill="url(#paint2_linear_1006_2314)"/>
<path d="M195.314 261.448C195.314 263.383 193.747 264.951 191.814 264.951C189.88 264.951 188.313 263.383 188.313 261.448C188.313 259.513 189.88 257.944 191.814 257.944C193.747 257.944 195.314 259.513 195.314 261.448Z" fill="#4AFEBF"/>
<path d="M276.797 239.929V234.787H260.175V226.738H275.769V221.595H260.175V213.769H276.573V208.627H254.456V239.929H276.797Z" fill="white"/>
<path d="M288.887 239.929V218.331H288.931L304.793 239.929H310.334V208.627H304.614V230.181H304.57L288.663 208.627H283.167V239.929H288.887Z" fill="white"/>
<path d="M332.959 239.929L345.872 208.627H339.84L330.144 232.372H330.055L320.359 208.627H314.327L327.24 239.929H332.959Z" fill="white"/>
<path d="M372.181 239.929V234.787H355.561V226.738H371.154V221.595H355.561V213.769H371.959V208.627H349.84V239.929H372.181Z" fill="white"/>
<path d="M398.883 239.929V234.876H384.271V208.627H378.553V239.929H398.883Z" fill="white"/>
<path d="M418.329 240.511C427.354 240.511 434.371 233.401 434.371 224.278C434.371 215.156 427.354 208.045 418.329 208.045C409.304 208.045 402.29 215.156 402.29 224.278C402.29 233.401 409.304 240.511 418.329 240.511ZM418.329 235.279C412.075 235.279 408.098 230.136 408.098 224.278C408.098 218.42 412.075 213.277 418.329 213.277C424.628 213.277 428.605 218.42 428.605 224.278C428.605 230.136 424.628 235.279 418.329 235.279Z" fill="white"/>
<path d="M445.707 239.929V229.018H451.919C457.147 229.018 463 226.022 463 218.778C463 211.533 457.147 208.627 451.919 208.627H439.989V239.929H445.707ZM445.707 213.769H451.383C455.761 213.769 457.236 216.05 457.236 218.778C457.236 221.55 455.761 223.876 451.383 223.876H445.707V213.769Z" fill="white"/>
<path d="M90.1914 348.857L91.2852 350.061C90.3919 351.081 89.2754 351.888 87.9355 352.48C86.6048 353.073 85.2376 353.369 83.834 353.369C82.4577 353.369 81.1497 353.105 79.9102 352.576C78.6706 352.038 77.6042 351.318 76.7109 350.416C75.8268 349.505 75.1204 348.424 74.5918 347.176C74.0723 345.918 73.8125 344.592 73.8125 343.197C73.8125 341.803 74.0723 340.481 74.5918 339.232C75.1204 337.975 75.8268 336.895 76.7109 335.992C77.6042 335.09 78.6706 334.374 79.9102 333.846C81.1497 333.308 82.4577 333.039 83.834 333.039C85.2559 333.039 86.6276 333.335 87.9492 333.928C89.2708 334.511 90.401 335.313 91.3398 336.334L90.1641 337.578C89.4349 336.721 88.5234 336.01 87.4297 335.445C86.3359 334.88 85.1374 334.598 83.834 334.598C82.6855 334.598 81.5872 334.83 80.5391 335.295C79.5 335.76 78.6113 336.38 77.873 337.154C77.1348 337.929 76.5469 338.845 76.1094 339.902C75.6719 340.951 75.4531 342.049 75.4531 343.197C75.4531 344.346 75.6719 345.449 76.1094 346.506C76.5469 347.554 77.1348 348.465 77.873 349.24C78.6113 350.015 79.5 350.635 80.5391 351.1C81.5872 351.564 82.6855 351.797 83.834 351.797C85.1465 351.797 86.3359 351.528 87.4023 350.99C88.4779 350.452 89.4076 349.742 90.1914 348.857Z" fill="white"/>
<path d="M95.2637 353H93.4453L102.182 333.395H103.521L112.258 353H110.412L108.088 347.791H97.5879L95.2637 353ZM102.824 336.061L98.3125 346.137H107.363L102.852 336.061H102.824Z" fill="white"/>
<path d="M117.357 353H115.73V333.395H117.193L129.73 350.143H129.758V333.395H131.385V353H129.84L117.385 336.334H117.357V353Z" fill="white"/>
<path d="M139.123 353H137.496V333.395H138.959L151.496 350.143H151.523V333.395H153.15V353H151.605L139.15 336.334H139.123V353Z" fill="white"/>
<path d="M171.676 352.576C170.436 353.105 169.128 353.369 167.752 353.369C166.376 353.369 165.068 353.105 163.828 352.576C162.598 352.038 161.536 351.318 160.643 350.416C159.758 349.505 159.057 348.424 158.537 347.176C158.018 345.918 157.758 344.592 157.758 343.197C157.758 341.803 158.018 340.481 158.537 339.232C159.057 337.975 159.758 336.895 160.643 335.992C161.536 335.09 162.598 334.374 163.828 333.846C165.068 333.308 166.376 333.039 167.752 333.039C169.128 333.039 170.436 333.308 171.676 333.846C172.915 334.374 173.977 335.09 174.861 335.992C175.755 336.895 176.461 337.975 176.98 339.232C177.509 340.481 177.773 341.803 177.773 343.197C177.773 344.592 177.509 345.918 176.98 347.176C176.461 348.424 175.755 349.505 174.861 350.416C173.977 351.318 172.915 352.038 171.676 352.576ZM167.752 351.797C169.292 351.797 170.705 351.405 171.99 350.621C173.285 349.837 174.296 348.789 175.025 347.477C175.755 346.155 176.119 344.729 176.119 343.197C176.119 341.666 175.755 340.244 175.025 338.932C174.296 337.61 173.285 336.557 171.99 335.773C170.705 334.99 169.292 334.598 167.752 334.598C166.604 334.598 165.505 334.83 164.457 335.295C163.418 335.76 162.529 336.38 161.791 337.154C161.053 337.929 160.465 338.845 160.027 339.902C159.59 340.951 159.371 342.049 159.371 343.197C159.371 344.346 159.59 345.449 160.027 346.506C160.465 347.554 161.053 348.465 161.791 349.24C162.529 350.015 163.418 350.635 164.457 351.1C165.505 351.564 166.604 351.797 167.752 351.797Z" fill="white"/>
<path d="M188.301 353H186.688V334.967H179.852V333.395H195.109V334.967H188.301V353Z" fill="white"/>
<path d="M216.424 353H204.324V333.395H205.951V351.428H216.424V353Z" fill="white"/>
<path d="M233.008 352.576C231.768 353.105 230.46 353.369 229.084 353.369C227.708 353.369 226.4 353.105 225.16 352.576C223.93 352.038 222.868 351.318 221.975 350.416C221.09 349.505 220.389 348.424 219.869 347.176C219.35 345.918 219.09 344.592 219.09 343.197C219.09 341.803 219.35 340.481 219.869 339.232C220.389 337.975 221.09 336.895 221.975 335.992C222.868 335.09 223.93 334.374 225.16 333.846C226.4 333.308 227.708 333.039 229.084 333.039C230.46 333.039 231.768 333.308 233.008 333.846C234.247 334.374 235.309 335.09 236.193 335.992C237.087 336.895 237.793 337.975 238.312 339.232C238.841 340.481 239.105 341.803 239.105 343.197C239.105 344.592 238.841 345.918 238.312 347.176C237.793 348.424 237.087 349.505 236.193 350.416C235.309 351.318 234.247 352.038 233.008 352.576ZM229.084 351.797C230.624 351.797 232.037 351.405 233.322 350.621C234.617 349.837 235.628 348.789 236.357 347.477C237.087 346.155 237.451 344.729 237.451 343.197C237.451 341.666 237.087 340.244 236.357 338.932C235.628 337.61 234.617 336.557 233.322 335.773C232.037 334.99 230.624 334.598 229.084 334.598C227.936 334.598 226.837 334.83 225.789 335.295C224.75 335.76 223.861 336.38 223.123 337.154C222.385 337.929 221.797 338.845 221.359 339.902C220.922 340.951 220.703 342.049 220.703 343.197C220.703 344.346 220.922 345.449 221.359 346.506C221.797 347.554 222.385 348.465 223.123 349.24C223.861 350.015 224.75 350.635 225.789 351.1C226.837 351.564 227.936 351.797 229.084 351.797Z" fill="white"/>
<path d="M242.756 353H240.938L249.674 333.395H251.014L259.75 353H257.904L255.58 347.791H245.08L242.756 353ZM250.316 336.061L245.805 346.137H254.855L250.344 336.061H250.316Z" fill="white"/>
<path d="M270.4 353H263.223V333.395H270.4C272.232 333.395 273.882 333.818 275.35 334.666C276.826 335.505 277.979 336.671 278.809 338.166C279.638 339.661 280.053 341.338 280.053 343.197C280.053 345.057 279.638 346.734 278.809 348.229C277.979 349.723 276.826 350.895 275.35 351.742C273.882 352.581 272.232 353 270.4 353ZM264.85 334.967V351.428H270.359C271.918 351.428 273.312 351.063 274.543 350.334C275.773 349.605 276.721 348.616 277.387 347.367C278.061 346.118 278.398 344.729 278.398 343.197C278.398 341.666 278.061 340.276 277.387 339.027C276.721 337.779 275.773 336.79 274.543 336.061C273.312 335.331 271.918 334.967 270.359 334.967H264.85Z" fill="white"/>
<path d="M291.838 353H290.211V333.395H291.674L304.211 350.143H304.238V333.395H305.865V353H304.32L291.865 336.334H291.838V353Z" fill="white"/>
<path d="M324.391 352.576C323.151 353.105 321.843 353.369 320.467 353.369C319.09 353.369 317.783 353.105 316.543 352.576C315.312 352.038 314.251 351.318 313.357 350.416C312.473 349.505 311.771 348.424 311.252 347.176C310.732 345.918 310.473 344.592 310.473 343.197C310.473 341.803 310.732 340.481 311.252 339.232C311.771 337.975 312.473 336.895 313.357 335.992C314.251 335.09 315.312 334.374 316.543 333.846C317.783 333.308 319.09 333.039 320.467 333.039C321.843 333.039 323.151 333.308 324.391 333.846C325.63 334.374 326.692 335.09 327.576 335.992C328.469 336.895 329.176 337.975 329.695 339.232C330.224 340.481 330.488 341.803 330.488 343.197C330.488 344.592 330.224 345.918 329.695 347.176C329.176 348.424 328.469 349.505 327.576 350.416C326.692 351.318 325.63 352.038 324.391 352.576ZM320.467 351.797C322.007 351.797 323.42 351.405 324.705 350.621C325.999 349.837 327.011 348.789 327.74 347.477C328.469 346.155 328.834 344.729 328.834 343.197C328.834 341.666 328.469 340.244 327.74 338.932C327.011 337.61 325.999 336.557 324.705 335.773C323.42 334.99 322.007 334.598 320.467 334.598C319.318 334.598 318.22 334.83 317.172 335.295C316.133 335.76 315.244 336.38 314.506 337.154C313.768 337.929 313.18 338.845 312.742 339.902C312.305 340.951 312.086 342.049 312.086 343.197C312.086 344.346 312.305 345.449 312.742 346.506C313.18 347.554 313.768 348.465 314.506 349.24C315.244 350.015 316.133 350.635 317.172 351.1C318.22 351.564 319.318 351.797 320.467 351.797Z" fill="white"/>
<path d="M336.682 353H335.055V333.395H336.518L349.055 350.143H349.082V333.395H350.709V353H349.164L336.709 336.334H336.682V353Z" fill="white"/>
<path d="M366.541 343.867H357.162V342.309H366.541V343.867Z" fill="white"/>
<path d="M374.607 353H372.98V333.395H386.064V334.967H374.607V342.309H385.832V343.867H374.607V353Z" fill="white"/>
<path d="M390.508 344.934V333.395H392.135V344.797C392.135 346.009 392.29 347.076 392.6 347.996C392.91 348.908 393.347 349.637 393.912 350.184C394.477 350.721 395.124 351.127 395.854 351.4C396.583 351.665 397.394 351.797 398.287 351.797C399.18 351.797 399.992 351.665 400.721 351.4C401.45 351.127 402.097 350.721 402.662 350.184C403.227 349.637 403.665 348.908 403.975 347.996C404.294 347.076 404.453 346.009 404.453 344.797V333.395H406.066V344.934C406.066 347.65 405.355 349.737 403.934 351.195C402.521 352.645 400.639 353.369 398.287 353.369C395.936 353.369 394.049 352.645 392.627 351.195C391.214 349.737 390.508 347.65 390.508 344.934Z" fill="white"/>
<path d="M413.518 353H411.891V333.395H413.354L425.891 350.143H425.918V333.395H427.545V353H426L413.545 336.334H413.518V353Z" fill="white"/>
<path d="M448.504 344.346H442.119V342.773H450.117V350.006C449.151 351.072 447.939 351.902 446.48 352.494C445.022 353.077 443.577 353.369 442.146 353.369C440.77 353.369 439.462 353.105 438.223 352.576C436.983 352.038 435.917 351.318 435.023 350.416C434.139 349.505 433.433 348.424 432.904 347.176C432.385 345.918 432.125 344.592 432.125 343.197C432.125 341.803 432.385 340.481 432.904 339.232C433.433 337.975 434.139 336.895 435.023 335.992C435.917 335.09 436.983 334.374 438.223 333.846C439.462 333.308 440.77 333.039 442.146 333.039C443.587 333.039 444.963 333.335 446.275 333.928C447.588 334.511 448.704 335.313 449.625 336.334L448.477 337.551C447.729 336.685 446.818 335.979 445.742 335.432C444.667 334.876 443.468 334.598 442.146 334.598C440.998 334.598 439.9 334.83 438.852 335.295C437.812 335.76 436.924 336.38 436.186 337.154C435.447 337.929 434.859 338.845 434.422 339.902C433.984 340.951 433.766 342.049 433.766 343.197C433.766 344.346 433.984 345.449 434.422 346.506C434.859 347.554 435.447 348.465 436.186 349.24C436.924 350.015 437.812 350.635 438.852 351.1C439.9 351.564 440.998 351.797 442.146 351.797C444.626 351.797 446.745 350.986 448.504 349.363V344.346Z" fill="white"/>
<path d="M457.021 353H455.395V333.395H457.021V353Z" fill="white"/>
<path d="M470.775 353H463.133V333.395H470.078C470.743 333.395 471.386 333.449 472.006 333.559C472.635 333.668 473.25 333.855 473.852 334.119C474.453 334.374 474.973 334.698 475.41 335.09C475.857 335.482 476.212 335.983 476.477 336.594C476.75 337.195 476.887 337.874 476.887 338.631C476.887 339.105 476.832 339.547 476.723 339.957C476.613 340.367 476.458 340.723 476.258 341.023C476.057 341.315 475.843 341.579 475.615 341.816C475.396 342.044 475.15 342.24 474.877 342.404C474.604 342.568 474.357 342.701 474.139 342.801C473.92 342.892 473.697 342.969 473.469 343.033V343.061C473.742 343.124 474.016 343.211 474.289 343.32C474.562 343.421 474.909 343.598 475.328 343.854C475.757 344.109 476.126 344.4 476.436 344.729C476.745 345.057 477.014 345.499 477.242 346.055C477.47 346.602 477.584 347.208 477.584 347.873C477.584 348.757 477.402 349.536 477.037 350.211C476.682 350.876 476.185 351.41 475.547 351.811C474.918 352.212 474.202 352.512 473.4 352.713C472.598 352.904 471.723 353 470.775 353ZM464.76 334.967V342.309H470.748C472.079 342.309 473.159 342.008 473.988 341.406C474.818 340.796 475.232 339.902 475.232 338.727C475.232 337.451 474.763 336.507 473.824 335.896C472.895 335.277 471.6 334.967 469.941 334.967H464.76ZM464.76 343.867V351.428H470.611C472.416 351.428 473.751 351.113 474.617 350.484C475.492 349.846 475.93 348.949 475.93 347.791C475.93 346.579 475.46 345.622 474.521 344.92C473.583 344.218 472.384 343.867 470.926 343.867H464.76Z" fill="white"/>
<path d="M494.291 353H482.191V333.395H483.818V351.428H494.291V353Z" fill="white"/>
<path d="M511.736 353H498.461V333.395H511.572V334.967H500.088V342.309H511.039V343.867H500.088V351.428H511.736V353Z" fill="white"/>
<path d="M189.928 389H188.314V370.967H181.479V369.395H196.736V370.967H189.928V389Z" fill="white"/>
<path d="M212.76 388.576C211.52 389.105 210.212 389.369 208.836 389.369C207.46 389.369 206.152 389.105 204.912 388.576C203.682 388.038 202.62 387.318 201.727 386.416C200.842 385.505 200.141 384.424 199.621 383.176C199.102 381.918 198.842 380.592 198.842 379.197C198.842 377.803 199.102 376.481 199.621 375.232C200.141 373.975 200.842 372.895 201.727 371.992C202.62 371.09 203.682 370.374 204.912 369.846C206.152 369.308 207.46 369.039 208.836 369.039C210.212 369.039 211.52 369.308 212.76 369.846C213.999 370.374 215.061 371.09 215.945 371.992C216.839 372.895 217.545 373.975 218.064 375.232C218.593 376.481 218.857 377.803 218.857 379.197C218.857 380.592 218.593 381.918 218.064 383.176C217.545 384.424 216.839 385.505 215.945 386.416C215.061 387.318 213.999 388.038 212.76 388.576ZM208.836 387.797C210.376 387.797 211.789 387.405 213.074 386.621C214.368 385.837 215.38 384.789 216.109 383.477C216.839 382.155 217.203 380.729 217.203 379.197C217.203 377.666 216.839 376.244 216.109 374.932C215.38 373.61 214.368 372.557 213.074 371.773C211.789 370.99 210.376 370.598 208.836 370.598C207.688 370.598 206.589 370.83 205.541 371.295C204.502 371.76 203.613 372.38 202.875 373.154C202.137 373.929 201.549 374.845 201.111 375.902C200.674 376.951 200.455 378.049 200.455 379.197C200.455 380.346 200.674 381.449 201.111 382.506C201.549 383.554 202.137 384.465 202.875 385.24C203.613 386.015 204.502 386.635 205.541 387.1C206.589 387.564 207.688 387.797 208.836 387.797Z" fill="white"/>
<path d="M225.051 389H223.424V369.395H225.051V379.457L234.854 369.395H237.096L229.139 377.57L237.738 389H235.715L227.99 378.746L225.051 381.781V389Z" fill="white"/>
<path d="M254.855 389H241.58V369.395H254.691V370.967H243.207V378.309H254.158V379.867H243.207V387.428H254.855V389Z" fill="white"/>
<path d="M261.418 389H259.791V369.395H261.254L273.791 386.143H273.818V369.395H275.445V389H273.9L261.445 372.334H261.418V389Z" fill="white"/>
<path d="M288.789 389H287.162V369.395H294.025C294.736 369.395 295.411 369.463 296.049 369.6C296.687 369.727 297.298 369.946 297.881 370.256C298.464 370.566 298.965 370.953 299.385 371.418C299.804 371.874 300.137 372.452 300.383 373.154C300.629 373.856 300.752 374.649 300.752 375.533C300.752 376.627 300.565 377.589 300.191 378.418C299.818 379.238 299.307 379.885 298.66 380.359C298.022 380.833 297.316 381.184 296.541 381.412C295.766 381.64 294.928 381.754 294.025 381.754H288.789V389ZM288.789 370.967V380.182H293.807C294.636 380.182 295.37 380.09 296.008 379.908C296.646 379.726 297.156 379.493 297.539 379.211C297.922 378.919 298.232 378.564 298.469 378.145C298.715 377.725 298.879 377.311 298.961 376.9C299.052 376.481 299.098 376.025 299.098 375.533C299.098 372.489 297.334 370.967 293.807 370.967H288.789Z" fill="white"/>
<path d="M306.809 389H305.182V369.395H313.139C313.749 369.395 314.328 369.445 314.875 369.545C315.422 369.645 315.96 369.818 316.488 370.064C317.017 370.311 317.473 370.63 317.855 371.021C318.238 371.404 318.544 371.906 318.771 372.525C319.008 373.136 319.127 373.838 319.127 374.631C319.127 375.551 318.958 376.363 318.621 377.064C318.293 377.757 317.842 378.304 317.268 378.705C316.693 379.097 316.06 379.389 315.367 379.58C314.674 379.771 313.932 379.867 313.139 379.867H312.469L319.359 389H317.336L310.391 379.867H306.809V389ZM306.809 370.967V378.309H312.906C313.626 378.309 314.26 378.24 314.807 378.104C315.354 377.967 315.791 377.789 316.119 377.57C316.456 377.342 316.725 377.069 316.926 376.75C317.135 376.422 317.277 376.089 317.35 375.752C317.432 375.415 317.473 375.041 317.473 374.631C317.473 374.093 317.404 373.619 317.268 373.209C317.14 372.799 316.912 372.416 316.584 372.061C316.265 371.705 315.796 371.436 315.176 371.254C314.556 371.062 313.799 370.967 312.906 370.967H306.809Z" fill="white"/>
<path d="M337.324 389H324.049V369.395H337.16V370.967H325.676V378.309H336.627V379.867H325.676V387.428H337.324V389Z" fill="white"/>
<path d="M349.602 389H348.002L339.635 369.395H341.398L348.781 386.648H348.809L356.205 369.395H357.996L349.602 389Z" fill="white"/>
<path d="M363.082 389H361.455V369.395H363.082V389Z" fill="white"/>
<path d="M382.469 389H369.193V369.395H382.305V370.967H370.82V378.309H381.771V379.867H370.82V387.428H382.469V389Z" fill="white"/>
<path d="M392.805 389H391.219L384.725 369.395H386.406L391.971 386.252H391.998L397.426 369.395H399.025L404.426 386.252H404.453L410.031 369.395H411.74L405.246 389H403.646L398.246 371.951H398.219L392.805 389Z" fill="white"/>
<defs>
<linearGradient id="paint0_linear_1006_2314" x1="175.939" y1="253.857" x2="175.939" y2="190.095" gradientUnits="userSpaceOnUse">
<stop stop-color="#4AFEBF"/>
<stop offset="1" stop-color="#51EEDA"/>
</linearGradient>
<linearGradient id="paint1_linear_1006_2314" x1="154.597" y1="176" x2="154.597" y2="267.952" gradientUnits="userSpaceOnUse">
<stop stop-color="#4AFEBF"/>
<stop offset="1" stop-color="#51EEDA"/>
</linearGradient>
<linearGradient id="paint2_linear_1006_2314" x1="212.3" y1="255.579" x2="212.3" y2="188.373" gradientUnits="userSpaceOnUse">
<stop stop-color="#4AFEBF"/>
<stop offset="1" stop-color="#51EEDA"/>
</linearGradient>
</defs>
</svg>
