<svg width="120" height="120" viewBox="0 0 120 120" fill="none" xmlns="http://www.w3.org/2000/svg">
<path d="M36.2804 47.4928C35.6654 47.0073 35.2684 46.2976 35.1766 45.5195C35.0848 44.7414 35.3057 43.9588 35.7908 43.3435L40.8057 37.0032C41.2918 36.3881 42.0024 35.9912 42.7811 35.9C43.5598 35.8087 44.3428 36.0306 44.958 36.5167C45.5731 37.0028 45.97 37.7133 46.0612 38.492C46.1525 39.2707 45.9306 40.0538 45.4445 40.6689L40.4296 47.0032C39.9442 47.6182 39.2344 48.0152 38.4563 48.107C37.6783 48.1988 36.8956 47.9778 36.2804 47.4928V47.4928Z" fill="#4AFEBF"/>
<path d="M69.8982 58.5551C69.8982 61.136 68.873 63.6112 67.048 65.4362C65.223 67.2612 62.7478 68.2864 60.1669 68.2864C57.586 68.2864 55.1108 67.2612 53.2858 65.4362C51.4608 63.6112 50.4355 61.136 50.4355 58.5551C50.4355 55.9742 51.4608 53.499 53.2858 51.674C55.1108 49.849 57.586 48.8237 60.1669 48.8237C62.7478 48.8237 65.223 49.849 67.048 51.674C68.873 53.499 69.8982 55.9742 69.8982 58.5551V58.5551Z" fill="#51EEDA"/>
<path fill-rule="evenodd" clip-rule="evenodd" d="M66.6218 98.3522C65.8271 99.2873 64.8385 100.038 63.7247 100.554C62.6108 101.069 61.3983 101.336 60.171 101.336C58.9438 101.336 57.7313 101.069 56.6174 100.554C55.5036 100.038 54.515 99.2873 53.7203 98.3522L25.7322 65.4149C24.4324 63.8846 23.7188 61.9421 23.7188 59.9343C23.7188 57.9265 24.4324 55.984 25.7322 54.4537L28.5382 51.1582C28.8924 50.7168 29.3315 50.351 29.8296 50.0823C30.3276 49.8135 30.8745 49.6474 31.4379 49.5938C32.0012 49.5401 32.5696 49.5999 33.1095 49.7697C33.6493 49.9395 34.1496 50.2158 34.5808 50.5823C35.012 50.9488 35.3653 51.3981 35.6199 51.9035C35.8744 52.409 36.025 52.9603 36.0628 53.525C36.1006 54.0896 36.0248 54.6561 35.8398 55.1909C35.6548 55.7258 35.3645 56.2181 34.986 56.6388L32.18 59.9343L60.1681 92.8716L68.2815 83.3194C69.0091 82.4643 70.0465 81.9334 71.1655 81.8432C72.2846 81.7531 73.3936 82.1112 74.2487 82.8388C75.1037 83.5663 75.6347 84.6038 75.7248 85.7228C75.8149 86.8419 75.4568 87.9509 74.7293 88.8059L66.6218 98.3522ZM84.1143 71.2238C83.6903 70.8638 83.3414 70.4237 83.0875 69.9287C82.8337 69.4337 82.6799 68.8935 82.635 68.339C82.5901 67.7845 82.655 67.2267 82.8258 66.6972C82.9967 66.1678 83.2702 65.6773 83.6307 65.2537L88.1561 59.9403L60.1681 27.003L54.2755 33.9343C53.5385 34.7534 52.511 35.2529 51.4115 35.3264C50.312 35.4 49.2272 35.0419 48.3876 34.3282C47.548 33.6145 47.0198 32.6015 46.9152 31.5046C46.8107 30.4076 47.1381 29.3131 47.8278 28.4537L53.7203 21.5224C54.515 20.5883 55.5032 19.838 56.6165 19.3235C57.7298 18.809 58.9416 18.5425 60.1681 18.5425C61.3945 18.5425 62.6063 18.809 63.7196 19.3235C64.8329 19.838 65.8211 20.5883 66.6158 21.5224L94.6039 54.4537C97.2905 57.6179 97.2905 62.2567 94.6039 65.4149L90.0785 70.7403C89.3515 71.5949 88.3149 72.1259 87.1965 72.2166C86.0781 72.3073 84.9695 71.9502 84.1143 71.2238V71.2238Z" fill="url(#paint0_linear_1718_3882)"/>
<path fill-rule="evenodd" clip-rule="evenodd" d="M60.1663 8.69847C46.5777 8.69847 33.5457 14.0965 23.9371 23.7051C14.3286 33.3137 8.93052 46.3457 8.93052 59.9343C8.93052 73.5229 14.3286 86.5549 23.9371 96.1635C33.5457 105.772 46.5777 111.17 60.1663 111.17C60.7222 111.17 61.2726 111.28 61.7862 111.492C62.2997 111.705 62.7663 112.017 63.1594 112.41C63.5525 112.803 63.8642 113.27 64.077 113.783C64.2897 114.297 64.3992 114.847 64.3992 115.403C64.3992 115.959 64.2897 116.509 64.077 117.023C63.8642 117.536 63.5525 118.003 63.1594 118.396C62.7663 118.789 62.2997 119.101 61.7862 119.314C61.2726 119.526 60.7222 119.636 60.1663 119.636C27.1932 119.636 0.464844 92.9074 0.464844 59.9343C0.464844 26.9612 27.1932 0.23877 60.1663 0.23877C61.289 0.23877 62.3656 0.684728 63.1594 1.47854C63.9532 2.27235 64.3992 3.34899 64.3992 4.47161C64.3992 5.59422 63.9532 6.67086 63.1594 7.46467C62.3656 8.25848 61.289 8.70444 60.1663 8.70444V8.69847Z" fill="url(#paint1_linear_1718_3882)"/>
<path fill-rule="evenodd" clip-rule="evenodd" d="M96.2026 102.316C95.414 101.519 94.9742 100.441 94.9798 99.3192C94.9854 98.1976 95.4359 97.124 96.2325 96.3343C101.048 91.5754 104.868 85.9066 107.473 79.6577C110.077 73.4087 111.413 66.7043 111.403 59.9343C111.403 45.7015 105.612 32.8299 96.2325 23.5403C95.8259 23.1518 95.5008 22.6862 95.2761 22.1706C95.0515 21.655 94.9319 21.0999 94.9242 20.5376C94.9166 19.9752 95.021 19.417 95.2315 18.8955C95.442 18.3741 95.7543 17.8997 96.1502 17.5003C96.5461 17.1009 97.0176 16.7843 97.5371 16.5691C98.0567 16.354 98.614 16.2445 99.1763 16.2471C99.7387 16.2497 100.295 16.3644 100.812 16.5844C101.33 16.8044 101.799 17.1253 102.191 17.5284C107.8 23.0732 112.251 29.6774 115.285 36.9572C118.32 44.237 119.878 52.0473 119.868 59.9343C119.879 67.8223 118.321 75.6338 115.287 82.9147C112.252 90.1955 107.8 96.8007 102.191 102.346C101.796 102.738 101.327 103.047 100.813 103.258C100.298 103.468 99.7466 103.575 99.1905 103.572C98.6344 103.569 98.0843 103.457 97.5716 103.242C97.0589 103.026 96.5938 102.712 96.2026 102.316V102.316Z" fill="url(#paint2_linear_1718_3882)"/>
<path d="M85.3485 111.188C85.3485 112.394 84.8692 113.552 84.0161 114.405C83.1629 115.258 82.0058 115.737 80.7993 115.737C79.5927 115.737 78.4356 115.258 77.5824 114.405C76.7293 113.552 76.25 112.394 76.25 111.188C76.25 109.981 76.7293 108.824 77.5824 107.971C78.4356 107.118 79.5927 106.639 80.7993 106.639C82.0058 106.639 83.1629 107.118 84.0161 107.971C84.8692 108.824 85.3485 109.981 85.3485 111.188V111.188Z" fill="#4AFEBF"/>
<defs>
<linearGradient id="paint0_linear_1718_3882" x1="60.1681" y1="101.331" x2="60.1681" y2="18.5373" gradientUnits="userSpaceOnUse">
<stop stop-color="#4AFEBF"/>
<stop offset="1" stop-color="#51EEDA"/>
</linearGradient>
<linearGradient id="paint1_linear_1718_3882" x1="32.435" y1="0.232799" x2="32.435" y2="119.636" gradientUnits="userSpaceOnUse">
<stop stop-color="#4AFEBF"/>
<stop offset="1" stop-color="#51EEDA"/>
</linearGradient>
<linearGradient id="paint2_linear_1718_3882" x1="107.427" y1="103.57" x2="107.427" y2="16.2985" gradientUnits="userSpaceOnUse">
<stop stop-color="#4AFEBF"/>
<stop offset="1" stop-color="#51EEDA"/>
</linearGradient>
</defs>
</svg>
