<svg width="18" height="21" viewBox="0 0 18 21" fill="none" xmlns="http://www.w3.org/2000/svg">
<path fill-rule="evenodd" clip-rule="evenodd" d="M17.5862 5.59915L8.81026 0.5L0 5.5607V15.435L8.80874 20.5L17.5862 15.5006V5.59915ZM1.21885 6.27091L1.21885 14.2695L3.58533 12.9149V9.42981L3.8107 9.3008L5.55739 11.7861L8.20559 10.2702V2.2716L5.83911 3.6262V7.11132L5.61374 7.24033L3.86705 4.75504L1.21885 6.27091ZM9.34449 2.2716L11.9927 3.78747L13.7394 8.27241L13.9648 8.40142L13.9648 4.9163L16.3312 6.27091V14.2695L13.683 12.7537L11.9363 8.26872L11.711 8.13971V11.6248L9.34449 10.2702V2.2716ZM8.786 11.0758L1.79925 15.0751L4.16573 16.4297L7.20996 14.6872L7.43533 14.8162L6.1378 17.5586L8.786 19.0745L15.7727 15.0751L13.4063 13.7205L10.362 15.4631L10.1367 15.3341L11.4342 12.5917L8.786 11.0758Z" fill="black" fill-opacity="0.25"/>
</svg>
