<svg width="42" height="50" viewBox="0 0 42 50" fill="none" xmlns="http://www.w3.org/2000/svg">
<path fill-rule="evenodd" clip-rule="evenodd" d="M42 12.9929L21.041 0.5L0 12.8987V37.0906L21.0373 49.5L42 37.2515V12.9929ZM2.91089 14.6387L2.91089 34.2353L8.5626 30.9166V22.378L9.10086 22.062L13.2724 28.1509L19.5969 24.437V4.84042L13.9452 8.1592V16.6977L13.4069 17.0138L9.23542 10.9249L2.91089 14.6387ZM22.3168 4.84042L28.6414 8.55429L32.8129 19.5424L33.3511 19.8585L33.3511 11.3199L39.0028 14.6387V34.2353L32.6783 30.5215L28.5068 19.5334L27.9685 19.2173V27.7558L22.3168 24.437V4.84042ZM20.983 26.4108L4.29703 36.2091L9.94874 39.5279L17.2191 35.2586L17.7573 35.5747L14.6585 42.2935L20.983 46.0074L37.669 36.2091L32.0173 32.8903L24.747 37.1596L24.2087 36.8435L27.3076 30.1247L20.983 26.4108Z" fill="#181E23"/>
</svg>
