<svg width="24" height="24" viewBox="0 0 24 24" fill="none" xmlns="http://www.w3.org/2000/svg">
<g clip-path="url(#clip0)">
<path fill-rule="evenodd" clip-rule="evenodd" d="M15.0541 3.02704C15.0541 4.69882 13.6988 6.05408 12.027 6.05408C10.3553 6.05408 9 4.69882 9 3.02704C9 1.35525 10.3553 0 12.027 0C13.6988 0 15.0541 1.35525 15.0541 3.02704ZM15.0541 12.0001C15.0541 13.6719 13.6988 15.0271 12.027 15.0271C10.3553 15.0271 9 13.6719 9 12.0001C9 10.3283 10.3553 8.97305 12.027 8.97305C13.6988 8.97305 15.0541 10.3283 15.0541 12.0001ZM12.027 24.0002C13.6988 24.0002 15.0541 22.6449 15.0541 20.9731C15.0541 19.3013 13.6988 17.9461 12.027 17.9461C10.3553 17.9461 9 19.3013 9 20.9731C9 22.6449 10.3553 24.0002 12.027 24.0002Z" fill="#4AFEBF"/>
</g>
<defs>
<clipPath id="clip0">
<rect width="24" height="24" fill="white"/>
</clipPath>
</defs>
</svg>
