<svg width="28" height="38" viewBox="0 0 28 38" fill="none" xmlns="http://www.w3.org/2000/svg">
<path d="M21.2828 8.5069L21.8684 7.69625L21.2828 8.5069ZM10.7841 6.27178L9.9734 5.68625L9.54258 6.28271L9.98384 6.87149L10.7841 6.27178ZM7.03837 29.3829L7.61706 28.5673L7.03837 29.3829ZM17.5556 31.5296L18.3711 32.1083L18.7969 31.5083L18.3507 30.9232L17.5556 31.5296ZM25.0917 27.3022C29.6247 21.0264 28.1728 12.2499 21.8684 7.69625L20.6973 9.31755C26.1165 13.2318 27.3493 20.7608 23.4704 26.1311L25.0917 27.3022ZM21.8684 7.69625C18.4805 5.24919 14.3756 4.51632 10.602 5.33416L11.0256 7.28878C14.2656 6.58661 17.7868 7.21529 20.6973 9.31755L21.8684 7.69625ZM10.602 5.33416C10.5771 5.33956 10.5522 5.34503 10.5273 5.35057L10.9615 7.30287C10.9828 7.29811 11.0042 7.29342 11.0256 7.28878L10.602 5.33416ZM13.7812 0.414473L9.9734 5.68625L11.5947 6.85731L15.4025 1.58553L13.7812 0.414473ZM9.98384 6.87149L10.0136 6.91119L11.614 5.71176L11.5843 5.67206L9.98384 6.87149ZM10.0136 6.91119L13.5821 11.6726L15.1825 10.4732L11.614 5.71175L10.0136 6.91119ZM3.07162 10.6203C-1.40842 16.934 0.11719 25.6979 6.45968 30.1984L7.61706 28.5673C2.16518 24.6988 0.869106 17.1803 4.70271 11.7777L3.07162 10.6203ZM6.45968 30.1984C9.86805 32.6169 13.9789 33.3152 17.7455 32.4657L17.3055 30.5147C14.0716 31.2441 10.5452 30.645 7.61706 28.5673L6.45968 30.1984ZM17.7455 32.4657C17.7704 32.4601 17.7953 32.4544 17.8201 32.4486L17.3695 30.5001C17.3482 30.505 17.3268 30.5099 17.3055 30.5147L17.7455 32.4657ZM14.6078 37.4119L18.3711 32.1083L16.74 30.9509L12.9767 36.2545L14.6078 37.4119ZM18.3507 30.9232L18.3206 30.8838L16.7304 32.0966L16.7604 32.1361L18.3507 30.9232ZM18.3206 30.8838L14.7122 26.1525L13.122 27.3654L16.7304 32.0966L18.3206 30.8838Z" fill="white"/>
</svg>
