<svg width="216" height="212" viewBox="0 0 216 212" fill="none" xmlns="http://www.w3.org/2000/svg">
<path fill-rule="evenodd" clip-rule="evenodd" d="M39.7193 109.892C54.9356 94.6759 79.6061 94.6759 94.8223 109.892L101.607 116.677C116.824 131.894 116.824 156.564 101.607 171.78L73.4391 199.949C58.2228 215.165 33.5523 215.165 18.336 199.949L11.5509 193.164C-3.6654 177.947 -3.6654 153.277 11.5509 138.061L39.7193 109.892ZM78.3737 126.341C72.2417 120.209 62.2999 120.209 56.1679 126.341L27.9996 154.509C21.8676 160.641 21.8676 170.583 27.9996 176.715L34.7847 183.5C40.9166 189.632 50.8584 189.632 56.9904 183.5L85.1588 155.332C91.2907 149.2 91.2907 139.258 85.1588 133.126L78.3737 126.341Z" fill="white"/>
<path fill-rule="evenodd" clip-rule="evenodd" d="M145.139 59.2858C129.922 44.0695 105.252 44.0695 90.0357 59.2858L61.8673 87.4541C46.651 102.67 46.651 127.341 61.8673 142.557L68.6524 149.342C72.6591 153.349 77.3214 156.301 82.2939 158.197L85.1596 155.332C91.2915 149.2 91.2915 139.258 85.1596 133.126L78.3745 126.341L78.4614 126.254L78.316 126.109C72.184 119.977 72.184 110.035 78.316 103.903L106.484 75.7344C112.616 69.6025 122.558 69.6025 128.69 75.7344L135.475 82.5195C141.607 88.6515 141.607 98.5933 135.475 104.725L110.301 129.9C113.86 138.916 113.926 148.993 110.498 158.049C115.326 156.148 119.852 153.246 123.755 149.342L151.924 121.174C167.14 105.958 167.14 81.2871 151.924 66.0708L145.139 59.2858Z" fill="#4AFEBF"/>
<path fill-rule="evenodd" clip-rule="evenodd" d="M140.661 11.6105C155.877 -3.60583 180.547 -3.60583 195.764 11.6105L202.549 18.3956C216.199 32.0452 221.597 56.5546 205.424 73.1162L192.589 87.9479C188.385 92.8052 181.04 93.3353 176.183 89.1318C171.325 84.9284 170.795 77.5831 174.999 72.7258L188.358 57.2886L188.654 56.9922C193.438 52.2084 193.709 42.4533 186.1 34.8442L179.315 28.0591C173.183 21.9272 163.241 21.9272 157.109 28.0591L128.941 56.2275C122.809 62.3595 122.809 72.3013 128.941 78.4332L135.726 85.2183C140.268 89.7605 140.268 97.1248 135.726 101.667C131.184 106.209 123.82 106.209 119.277 101.667L112.492 94.8819C97.276 79.6656 97.276 54.9951 112.492 39.7788L140.661 11.6105Z" fill="white"/>
</svg>
