<svg width="25" height="25" viewBox="0 0 25 25" fill="none" xmlns="http://www.w3.org/2000/svg">
<path d="M4.4 12.644C4.4 10.934 5.79 9.54404 7.5 9.54404H11.5V7.64404H7.5C4.74 7.64404 2.5 9.88404 2.5 12.644C2.5 15.404 4.74 17.644 7.5 17.644H11.5V15.744H7.5C5.79 15.744 4.4 14.354 4.4 12.644ZM8.5 13.644H16.5V11.644H8.5V13.644ZM17.5 7.64404H13.5V9.54404H17.5C19.21 9.54404 20.6 10.934 20.6 12.644C20.6 14.354 19.21 15.744 17.5 15.744H13.5V17.644H17.5C20.26 17.644 22.5 15.404 22.5 12.644C22.5 9.88404 20.26 7.64404 17.5 7.64404Z" fill="white"/>
</svg>
