<svg width="42" height="41" viewBox="0 0 42 41" fill="none" xmlns="http://www.w3.org/2000/svg">
<path d="M38.8751 0.5L23.3994 12.9888L26.2773 5.62874L38.8751 0.5Z" fill="#F5841F"/>
<path d="M3.17853 0.5L18.5164 13.1054L15.7764 5.62873L3.17853 0.5Z" fill="#F5841F"/>
<path d="M33.3029 29.4573L29.1852 36.3178L38.0022 38.9655L40.5279 29.6073L33.3029 29.4573Z" fill="#F5841F"/>
<path d="M1.54056 29.6073L4.05093 38.9655L12.8526 36.3178L8.75025 29.4573L1.54056 29.6073Z" fill="#F5841F"/>
<path d="M12.378 17.8677L9.92889 21.8974L18.654 22.3304L18.3632 12.0896L12.378 17.8677Z" fill="#F5841F"/>
<path d="M29.675 17.8679L23.5981 11.9732L23.3991 22.3306L32.1242 21.8976L29.675 17.8679Z" fill="#F5841F"/>
<path d="M12.8526 36.3178L18.1337 33.537L13.5875 29.6738L12.8526 36.3178Z" fill="#F5841F"/>
<path d="M23.9198 33.537L29.1852 36.3178L28.466 29.6738L23.9198 33.537Z" fill="#F5841F"/>
<path d="M29.1852 36.3178L23.9198 33.537L24.3483 37.2671L24.3024 38.8491L29.1852 36.3178Z" fill="#F5841F"/>
<path d="M12.8526 36.3178L17.7511 38.8491L17.7204 37.2671L18.1337 33.537L12.8526 36.3178Z" fill="#F5841F"/>
<path d="M17.8428 27.2094L13.4649 25.8107L16.5569 24.2621L17.8428 27.2094Z" fill="#F5841F"/>
<path d="M24.2106 27.2094L25.4965 24.2621L28.6039 25.8107L24.2106 27.2094Z" fill="#F5841F"/>
<path d="M12.8526 36.3178L13.618 29.4573L8.75033 29.6073L12.8526 36.3178Z" fill="#F5841F"/>
<path d="M28.4352 29.4573L29.1852 36.3178L33.3029 29.6073L28.4352 29.4573Z" fill="#F5841F"/>
<path d="M32.1242 21.8976L23.3991 22.3306L24.2106 27.2094L25.4965 24.2621L28.6039 25.8107L32.1242 21.8976Z" fill="#F5841F"/>
<path d="M13.4649 25.8107L16.5569 24.2621L17.8428 27.2094L18.654 22.3304L9.92889 21.8974L13.4649 25.8107Z" fill="#F5841F"/>
<path d="M9.92889 21.8974L13.5875 29.6738L13.4649 25.8107L9.92889 21.8974Z" fill="#F5841F"/>
<path d="M28.6039 25.8107L28.466 29.6738L32.1242 21.8976L28.6039 25.8107Z" fill="#F5841F"/>
<path d="M18.654 22.3304L17.8428 27.2094L18.8687 32.9708L19.0983 25.3777L18.654 22.3304Z" fill="#F5841F"/>
<path d="M23.3991 22.3306L22.9707 25.3611L23.1851 32.9708L24.2106 27.2094L23.3991 22.3306Z" fill="#F5841F"/>
<path d="M24.2106 27.2094L23.1851 32.9708L23.9198 33.537L28.466 29.6738L28.6039 25.8107L24.2106 27.2094Z" fill="#F5841F"/>
<path d="M13.4649 25.8107L13.5875 29.6738L18.1337 33.537L18.8687 32.9708L17.8428 27.2094L13.4649 25.8107Z" fill="#F5841F"/>
<path d="M24.3024 38.8491L24.3483 37.2671L23.9505 36.9006H18.1031L17.7204 37.2671L17.7511 38.8491L12.8526 36.3178L14.5671 37.8498L18.0419 40.4642H23.9963L27.4864 37.8498L29.1852 36.3178L24.3024 38.8491Z" fill="#F5841F"/>
<path d="M23.9198 33.537L23.1851 32.9708H18.8687L18.1337 33.537L17.7204 37.2671L18.1031 36.9006H23.9505L24.3483 37.2671L23.9198 33.537Z" fill="#F5841F"/>
<path d="M39.5331 13.8047L40.8342 6.91092L38.8751 0.5L23.9198 12.5726L29.675 17.8679L37.8034 20.4488L39.5943 18.1675L38.8137 17.5513L40.0535 16.3192L39.1045 15.5199L40.3444 14.4875L39.5331 13.8047Z" fill="#F5841F"/>
<path d="M1.21924 6.91092L2.53566 13.8047L1.69377 14.4875L2.94895 15.5199L1.99991 16.3192L3.23979 17.5513L2.45912 18.1675L4.25007 20.4488L12.378 17.8677L18.1337 12.5726L3.17853 0.5L1.21924 6.91092Z" fill="#F5841F"/>
<path d="M37.8034 20.4488L29.675 17.8679L32.1242 21.8976L28.466 29.6738L33.3029 29.6073H40.5279L37.8034 20.4488Z" fill="#F5841F"/>
<path d="M12.378 17.8677L4.25007 20.4488L1.54056 29.6073H8.75033L13.5875 29.6738L9.92889 21.8974L12.378 17.8677Z" fill="#F5841F"/>
<path d="M23.3991 22.3306L23.9198 12.5726L26.2773 5.62874L15.7764 5.62873L18.1337 12.5726L18.654 22.3304L18.853 25.3943L18.8687 32.9708H23.1851L23.2003 25.3943L23.3991 22.3306Z" fill="#F5841F"/>
<path d="M38.8751 0.5L23.3994 12.9888L26.2772 5.62874M38.8751 0.5L26.2772 5.62874M38.8751 0.5L40.8342 6.91092L39.5331 13.8047L40.3444 14.4875L39.1045 15.5199L40.0535 16.3192L38.8137 17.5513L39.5943 18.1675L37.8034 20.4488M38.8751 0.5L23.9198 12.5726M26.2772 5.62874L23.9198 12.5726M26.2772 5.62874L15.7764 5.62873M3.17853 0.5L18.5164 13.1054L15.7764 5.62873M3.17853 0.5L15.7764 5.62873M3.17853 0.5L18.1337 12.5726M3.17853 0.5L1.21924 6.91092L2.53566 13.8047L1.69377 14.4875L2.94895 15.5199L1.99991 16.3192L3.23979 17.5513L2.45912 18.1675L4.25007 20.4488M15.7764 5.62873L18.1337 12.5726M29.1852 36.3178L33.3029 29.4573L40.5279 29.6073M29.1852 36.3178L38.0022 38.9655L40.5279 29.6073M29.1852 36.3178L23.9198 33.537M29.1852 36.3178L28.466 29.6738M29.1852 36.3178L24.3024 38.8491L24.3483 37.2671M29.1852 36.3178L28.4352 29.4573L33.3029 29.6073M29.1852 36.3178L33.3029 29.6073M29.1852 36.3178L27.4864 37.8498L23.9963 40.4642H18.0419L14.5671 37.8498L12.8526 36.3178M40.5279 29.6073H33.3029M40.5279 29.6073L37.8034 20.4488M1.54056 29.6073L4.05093 38.9655L12.8526 36.3178M1.54056 29.6073L8.75025 29.4573L12.8526 36.3178M1.54056 29.6073L4.25007 20.4488M1.54056 29.6073H8.75033M12.8526 36.3178L18.1337 33.537M12.8526 36.3178L13.5875 29.6738M12.8526 36.3178L17.7511 38.8491L17.7204 37.2671M12.8526 36.3178L13.618 29.4573L8.75033 29.6073M12.8526 36.3178L8.75033 29.6073M12.378 17.8677L9.9289 21.8974M12.378 17.8677L18.3632 12.0896L18.654 22.3304M12.378 17.8677L4.25007 20.4488M12.378 17.8677L18.1337 12.5726M9.9289 21.8974L18.654 22.3304M9.9289 21.8974L13.4649 25.8107M9.9289 21.8974L13.5875 29.6738M18.654 22.3304L17.8428 27.2094M18.654 22.3304L19.0983 25.3777L18.8687 32.9708M18.654 22.3304L18.1337 12.5726M18.654 22.3304L18.853 25.3943L18.8687 32.9708M29.675 17.8679L23.5981 11.9732L23.3991 22.3306M29.675 17.8679L32.1242 21.8976M29.675 17.8679L23.9198 12.5726M29.675 17.8679L37.8034 20.4488M23.3991 22.3306L32.1242 21.8976M23.3991 22.3306L24.2106 27.2094M23.3991 22.3306L22.9707 25.3611L23.1851 32.9708M23.3991 22.3306L23.9198 12.5726M23.3991 22.3306L23.2003 25.3943L23.1851 32.9708M32.1242 21.8976L28.6039 25.8107M32.1242 21.8976L28.466 29.6738M18.1337 33.537L13.5875 29.6738M18.1337 33.537L17.7204 37.2671M18.1337 33.537L18.8687 32.9708M13.5875 29.6738L13.4649 25.8107M13.5875 29.6738L8.75033 29.6073M23.9198 33.537L28.466 29.6738M23.9198 33.537L24.3483 37.2671M23.9198 33.537L23.1851 32.9708M28.466 29.6738L28.6039 25.8107M28.466 29.6738L33.3029 29.6073M24.3483 37.2671L23.9505 36.9006H18.1031L17.7204 37.2671M17.8428 27.2094L13.4649 25.8107M17.8428 27.2094L16.5569 24.2621L13.4649 25.8107M17.8428 27.2094L18.8687 32.9708M24.2106 27.2094L25.4965 24.2621L28.6039 25.8107M24.2106 27.2094L28.6039 25.8107M24.2106 27.2094L23.1851 32.9708M18.8687 32.9708H23.1851" stroke="#F5841F" stroke-width="0.25" stroke-linecap="round" stroke-linejoin="round"/>
<path d="M39.0215 0.535889L23.3955 13.0247L26.3013 5.66463L39.0215 0.535889Z" fill="#E17726" stroke="#E17726" stroke-width="0.25" stroke-linecap="round" stroke-linejoin="round"/>
<path d="M2.97852 0.535889L18.4654 13.1412L15.6988 5.66462L2.97852 0.535889Z" fill="#E27625" stroke="#E27625" stroke-width="0.25" stroke-linecap="round" stroke-linejoin="round"/>
<path d="M33.3954 29.4932L29.2378 36.3537L38.1404 39.0013L40.6907 29.6431L33.3954 29.4932Z" fill="#E27625" stroke="#E27625" stroke-width="0.25" stroke-linecap="round" stroke-linejoin="round"/>
<path d="M1.32471 29.6431L3.85947 39.0013L12.7467 36.3537L8.60446 29.4932L1.32471 29.6431Z" fill="#E27625" stroke="#E27625" stroke-width="0.25" stroke-linecap="round" stroke-linejoin="round"/>
<path d="M12.2673 17.9033L9.79443 21.9331L18.6043 22.366L18.3107 12.1252L12.2673 17.9033Z" fill="#E27625" stroke="#E27625" stroke-width="0.25" stroke-linecap="round" stroke-linejoin="round"/>
<path d="M29.7324 17.9037L23.5965 12.009L23.3955 22.3664L32.2053 21.9335L29.7324 17.9037Z" fill="#E27625" stroke="#E27625" stroke-width="0.25" stroke-linecap="round" stroke-linejoin="round"/>
<path d="M12.7466 36.3535L18.0788 33.5727L13.4885 29.7095L12.7466 36.3535Z" fill="#E27625" stroke="#E27625" stroke-width="0.25" stroke-linecap="round" stroke-linejoin="round"/>
<path d="M23.9214 33.5727L29.2382 36.3535L28.5117 29.7095L23.9214 33.5727Z" fill="#E27625" stroke="#E27625" stroke-width="0.25" stroke-linecap="round" stroke-linejoin="round"/>
<path d="M29.2382 36.3538L23.9214 33.573L24.3541 37.3029L24.3077 38.8849L29.2382 36.3538Z" fill="#D5BFB2" stroke="#D5BFB2" stroke-width="0.25" stroke-linecap="round" stroke-linejoin="round"/>
<path d="M12.7466 36.3538L17.6925 38.8849L17.6616 37.3029L18.0788 33.573L12.7466 36.3538Z" fill="#D5BFB2" stroke="#D5BFB2" stroke-width="0.25" stroke-linecap="round" stroke-linejoin="round"/>
<path d="M17.7852 27.2452L13.3647 25.8465L16.4868 24.2979L17.7852 27.2452Z" fill="#233447" stroke="#233447" stroke-width="0.25" stroke-linecap="round" stroke-linejoin="round"/>
<path d="M24.2148 27.2452L25.5132 24.2979L28.6508 25.8465L24.2148 27.2452Z" fill="#233447" stroke="#233447" stroke-width="0.25" stroke-linecap="round" stroke-linejoin="round"/>
<path d="M12.7462 36.3537L13.519 29.4932L8.604 29.6431L12.7462 36.3537Z" fill="#CC6228" stroke="#CC6228" stroke-width="0.25" stroke-linecap="round" stroke-linejoin="round"/>
<path d="M28.4805 29.4932L29.2378 36.3537L33.3955 29.6431L28.4805 29.4932Z" fill="#CC6228" stroke="#CC6228" stroke-width="0.25" stroke-linecap="round" stroke-linejoin="round"/>
<path d="M32.2053 21.9331L23.3955 22.366L24.2146 27.2451L25.513 24.2977L28.6505 25.8463L32.2053 21.9331Z" fill="#CC6228" stroke="#CC6228" stroke-width="0.25" stroke-linecap="round" stroke-linejoin="round"/>
<path d="M13.3648 25.8463L16.4868 24.2977L17.7852 27.2451L18.6043 22.366L9.79443 21.9331L13.3648 25.8463Z" fill="#CC6228" stroke="#CC6228" stroke-width="0.25" stroke-linecap="round" stroke-linejoin="round"/>
<path d="M9.79443 21.9331L13.4884 29.7095L13.3647 25.8463L9.79443 21.9331Z" fill="#E27525" stroke="#E27525" stroke-width="0.25" stroke-linecap="round" stroke-linejoin="round"/>
<path d="M28.6508 25.8463L28.5117 29.7095L32.2057 21.9331L28.6508 25.8463Z" fill="#E27525" stroke="#E27525" stroke-width="0.25" stroke-linecap="round" stroke-linejoin="round"/>
<path d="M18.6044 22.3662L17.7852 27.2453L18.8207 33.0067L19.0526 25.4135L18.6044 22.3662Z" fill="#E27525" stroke="#E27525" stroke-width="0.25" stroke-linecap="round" stroke-linejoin="round"/>
<path d="M23.3957 22.3662L22.9629 25.3969L23.1793 33.0067L24.2148 27.2453L23.3957 22.3662Z" fill="#E27525" stroke="#E27525" stroke-width="0.25" stroke-linecap="round" stroke-linejoin="round"/>
<path d="M24.2147 27.2455L23.1792 33.0069L23.9211 33.5731L28.5116 29.7099L28.6506 25.8467L24.2147 27.2455Z" fill="#F5841F" stroke="#F5841F" stroke-width="0.25" stroke-linecap="round" stroke-linejoin="round"/>
<path d="M13.3647 25.8467L13.4885 29.7099L18.0788 33.5731L18.8207 33.0069L17.7852 27.2455L13.3647 25.8467Z" fill="#F5841F" stroke="#F5841F" stroke-width="0.25" stroke-linecap="round" stroke-linejoin="round"/>
<path d="M24.3077 38.8849L24.3539 37.3029L23.9522 36.9365H18.048L17.6616 37.3029L17.6925 38.8849L12.7466 36.3538L14.4776 37.8857L17.9862 40.5001H23.9985L27.5224 37.8857L29.238 36.3538L24.3077 38.8849Z" fill="#C0AC9D" stroke="#C0AC9D" stroke-width="0.25" stroke-linecap="round" stroke-linejoin="round"/>
<path d="M23.9213 33.5727L23.1793 33.0066H18.8208L18.079 33.5727L17.6616 37.3027L18.048 36.9364H23.9522L24.3541 37.3027L23.9213 33.5727Z" fill="#161616" stroke="#161616" stroke-width="0.25" stroke-linecap="round" stroke-linejoin="round"/>
<path d="M39.6864 13.8406L41.0002 6.94681L39.0218 0.535889L23.9214 12.6084L29.7327 17.9036L37.9399 20.4847L39.7482 18.2034L38.96 17.5872L40.2119 16.3551L39.2537 15.5558L40.5056 14.5233L39.6864 13.8406Z" fill="#763E1A" stroke="#763E1A" stroke-width="0.25" stroke-linecap="round" stroke-linejoin="round"/>
<path d="M1 6.94681L2.32921 13.8406L1.47914 14.5233L2.74652 15.5558L1.78826 16.3551L3.04018 17.5872L2.25193 18.2034L4.06028 20.4847L12.2675 17.9036L18.0788 12.6084L2.97837 0.535889L1 6.94681Z" fill="#763E1A" stroke="#763E1A" stroke-width="0.25" stroke-linecap="round" stroke-linejoin="round"/>
<path d="M37.9398 20.4845L29.7327 17.9036L32.2057 21.9333L28.5117 29.7096L33.3958 29.643H40.691L37.9398 20.4845Z" fill="#F5841F" stroke="#F5841F" stroke-width="0.25" stroke-linecap="round" stroke-linejoin="round"/>
<path d="M12.2675 17.9036L4.06041 20.4845L1.32471 29.643H8.60446L13.4885 29.7096L9.79457 21.9333L12.2675 17.9036Z" fill="#F5841F" stroke="#F5841F" stroke-width="0.25" stroke-linecap="round" stroke-linejoin="round"/>
<path d="M23.3958 22.3663L23.9213 12.6083L26.3015 5.66455H15.6987L18.0789 12.6083L18.6044 22.3663L18.8054 25.4301L18.8208 33.0067H23.1794L23.1949 25.4301L23.3958 22.3663Z" fill="#F5841F" stroke="#F5841F" stroke-width="0.25" stroke-linecap="round" stroke-linejoin="round"/>
</svg>
