<svg width="38" height="26" fill="none" xmlns="http://www.w3.org/2000/svg"><path d="M8.26 5.66a14.5 14.5 0 0121.48 0l.71.76c.3.32.3.83 0 1.15l-2.44 2.61a.36.36 0 01-.54 0l-.98-1.05a10.11 10.11 0 00-14.98 0l-1.05 1.13a.36.36 0 01-.54 0L7.48 7.64a.85.85 0 010-1.14l.78-.84zm26.53 5.4l2.17 2.32c.15.16.22.37.22.58 0 .2-.07.41-.22.57l-9.8 10.48a.72.72 0 01-1.07 0l-6.96-7.44a.18.18 0 00-.26 0l-6.96 7.44a.72.72 0 01-1.07 0l-9.8-10.48a.84.84 0 01-.22-.57c0-.21.07-.42.22-.58l2.17-2.32a.72.72 0 011.08 0l6.95 7.44c.08.08.2.08.27 0l6.95-7.44a.72.72 0 011.08 0l6.95 7.44c.07.08.2.08.27 0l6.95-7.44a.72.72 0 011.08 0z" fill="#181E23"/><path fill-rule="evenodd" clip-rule="evenodd" d="M36.96 13.38c.15.16.22.37.22.58 0 .2-.07.41-.22.57l-9.8 10.48a.72.72 0 01-1.07 0l-6.96-7.44a.18.18 0 00-.26 0l-6.96 7.44a.72.72 0 01-1.07 0l-9.8-10.48a.84.84 0 01-.22-.57c0-.21.07-.42.22-.58l2.17-2.32a.72.72 0 011.08 0l6.95 7.44c.08.08.2.08.27 0l6.95-7.44a.72.72 0 011.08 0l6.95 7.44c.07.08.2.08.27 0l6.95-7.44a.72.72 0 011.08 0l2.17 2.32zm-7.22-7.72a14.5 14.5 0 00-21.48 0l-.78.84c-.3.31-.3.83 0 1.14l2.44 2.62c.15.15.39.15.54 0l1.05-1.13a10.11 10.11 0 0114.98 0l.98 1.05c.15.16.4.16.54 0l2.44-2.61c.3-.32.3-.83 0-1.15l-.71-.76z" fill="#181E23"/></svg>