<svg width="120" height="118" viewBox="0 0 120 118" fill="none" xmlns="http://www.w3.org/2000/svg">
<g clip-path="url(#clip0_1718_3878)">
<path fill-rule="evenodd" clip-rule="evenodd" d="M22.0654 61.051C30.5189 52.5976 44.2247 52.5976 52.6782 61.051L56.4475 64.8204C64.9014 73.2743 64.9014 86.9799 56.4475 95.4332L40.7986 111.083C32.3451 119.536 18.6393 119.536 10.1858 111.083L6.4163 107.313C-2.0372 98.8593 -2.0372 85.1538 6.4163 76.7004L22.0654 61.051ZM43.5401 70.1893C40.1334 66.7826 34.6102 66.7826 31.2035 70.1893L15.5545 85.8382C12.1478 89.2449 12.1478 94.7682 15.5545 98.1749L19.324 101.944C22.7306 105.351 28.2538 105.351 31.6605 101.944L47.3096 86.2954C50.7162 82.8888 50.7162 77.3654 47.3096 73.9588L43.5401 70.1893Z" fill="white"/>
<path fill-rule="evenodd" clip-rule="evenodd" d="M80.6334 32.9363C72.1796 24.4828 58.474 24.4828 50.0205 32.9363L34.3714 48.5854C25.9179 57.0387 25.9179 70.7448 34.3714 79.1981L38.1409 82.9675C40.3668 85.1937 42.957 86.8337 45.7195 87.887L47.3115 86.2953C50.7182 82.8887 50.7182 77.3653 47.3115 73.9587L43.542 70.1892L43.5903 70.1409L43.5095 70.0603C40.1029 66.6537 40.1029 61.1303 43.5095 57.7236L59.1584 42.0744C62.5651 38.6678 68.0884 38.6678 71.4951 42.0744L75.2645 45.8439C78.6712 49.2506 78.6712 54.7738 75.2645 58.1803L61.279 72.1664C63.2562 77.1753 63.2929 82.7737 61.3884 87.8048C64.0707 86.7487 66.5851 85.1364 68.7534 82.9675L84.4029 67.3187C92.8562 58.8653 92.8562 45.1593 84.4029 36.7058L80.6334 32.9363Z" fill="#4AFEBF"/>
<path fill-rule="evenodd" clip-rule="evenodd" d="M78.1457 6.45049C86.599 -2.00303 100.305 -2.00303 108.758 6.45049L112.528 10.22C120.111 17.8031 123.11 31.4194 114.125 40.6203L106.995 48.8602C104.659 51.5587 100.578 51.8532 97.8801 49.5179C95.1813 47.1827 94.8868 43.1019 97.2224 40.4034L104.644 31.8272L104.808 31.6625C107.466 29.0049 107.617 23.5854 103.39 19.3581L99.6201 15.5886C96.2135 12.182 90.6901 12.182 87.2835 15.5886L71.6346 31.2377C68.2279 34.6444 68.2279 40.1676 71.6346 43.5742L75.404 47.3437C77.9274 49.8672 77.9274 53.9584 75.404 56.4819C72.8807 59.0052 68.7896 59.0052 66.2657 56.4819L62.4962 52.7124C54.0429 44.2589 54.0429 30.553 62.4962 22.0995L78.1457 6.45049Z" fill="white"/>
</g>
<defs>
<clipPath id="clip0_1718_3878">
<rect width="120" height="117.778" fill="white"/>
</clipPath>
</defs>
</svg>
