<svg width="29" height="38" viewBox="0 0 29 38" fill="none" xmlns="http://www.w3.org/2000/svg">
<path d="M7.33287 8.59027L6.74735 7.77962L6.74735 7.77962L7.33287 8.59027ZM17.8317 6.35515L18.6423 5.76963C18.8986 6.12442 18.8944 6.60464 18.6319 6.95487L17.8317 6.35515ZM21.5774 29.4662L20.9987 28.6507L20.9987 28.6507L21.5774 29.4662ZM11.0601 31.613L10.2446 32.1917C9.99132 31.8348 9.99958 31.3546 10.265 31.0066L11.0601 31.613ZM3.52401 27.3855C-1.00895 21.1097 0.442918 12.3332 6.74735 7.77962L7.9184 9.40093C2.49924 13.3151 1.26642 20.8442 5.14532 26.2145L3.52401 27.3855ZM6.74735 7.77962C10.1353 5.33256 14.2401 4.59969 18.0137 5.41753L17.5901 7.37216C14.3502 6.66998 10.829 7.29866 7.9184 9.40093L6.74735 7.77962ZM18.0164 5.41811L18.0858 5.43336L17.6569 7.38682L17.5875 7.37158L18.0164 5.41811ZM14.8346 0.497847L18.6423 5.76963L17.021 6.94068L13.2133 1.6689L14.8346 0.497847ZM18.6319 6.95487L18.6021 6.99456L17.0017 5.79513L17.0315 5.75544L18.6319 6.95487ZM18.6021 6.99457L15.0336 11.756L13.4332 10.5565L17.0017 5.79512L18.6021 6.99457ZM25.5441 10.7036C30.0241 17.0174 28.4985 25.7813 22.156 30.2818L20.9987 28.6507C26.4505 24.7822 27.7466 17.2637 23.913 11.861L25.5441 10.7036ZM22.156 30.2818C18.7477 32.7003 14.6368 33.3986 10.8702 32.5491L11.3102 30.5981C14.5442 31.3275 18.0705 30.7284 20.9987 28.6507L22.156 30.2818ZM10.8676 32.5485L10.7983 32.5326L11.2436 30.5828L11.3129 30.5987L10.8676 32.5485ZM14.0079 37.4953L10.2446 32.1917L11.8757 31.0343L15.639 36.3379L14.0079 37.4953ZM10.265 31.0066L10.2951 30.9671L11.8854 32.18L11.8553 32.2194L10.265 31.0066ZM10.2951 30.9671L13.9035 26.2359L15.4937 27.4487L11.8854 32.18L10.2951 30.9671Z" fill="#F5AC37"/>
</svg>
