<svg width="32" height="32" viewBox="0 0 32 32" fill="none" xmlns="http://www.w3.org/2000/svg">
<path d="M9.59787 12.6655C9.25468 12.3943 9.19632 11.8963 9.46746 11.5532L10.81 9.85395C11.0811 9.51084 11.5791 9.4524 11.9223 9.72354C12.2654 9.99469 12.3238 10.4927 12.0527 10.8359L10.7102 12.535C10.439 12.8782 9.94106 12.9365 9.59787 12.6655Z" fill="#4AFEBF"/>
<path d="M18.6077 15.63C18.6077 17.0702 17.4403 18.2377 16.0002 18.2377C14.5601 18.2377 13.3926 17.0702 13.3926 15.63C13.3926 14.1899 14.5601 13.0225 16.0002 13.0225C17.4403 13.0225 18.6077 14.1899 18.6077 15.63Z" fill="#51EEDA"/>
<path fill-rule="evenodd" clip-rule="evenodd" d="M17.7285 26.2954C16.8226 27.3614 15.1771 27.3614 14.2712 26.2954L6.77123 17.4689C6.05152 16.622 6.05151 15.3782 6.77123 14.5312L7.52155 13.6482C7.92712 13.1709 8.64293 13.1127 9.12024 13.5183C9.59762 13.924 9.65576 14.6397 9.25012 15.1171L8.49981 16.0001L15.9999 24.8265L18.1733 22.2686C18.5789 21.7913 19.2947 21.7332 19.772 22.1387C20.2493 22.5444 20.3075 23.2601 19.9019 23.7375L17.7285 26.2954ZM22.4172 19.0258C21.9399 18.6201 21.8818 17.9044 22.2874 17.427L23.4999 16.0001L15.9999 7.17366L14.4202 9.0326C14.0147 9.50991 13.2988 9.56813 12.8215 9.16249C12.3442 8.75685 12.286 8.04111 12.6917 7.56373L14.2712 5.70482C15.1771 4.63876 16.8226 4.63876 17.7285 5.70482L25.2285 14.5312C25.9482 15.3782 25.9482 16.622 25.2285 17.4689L24.016 18.8959C23.6104 19.3732 22.8946 19.4313 22.4172 19.0258Z" fill="url(#paint0_linear_993_2310)"/>
<path fill-rule="evenodd" clip-rule="evenodd" d="M16 2.26838C8.41625 2.26838 2.26838 8.41625 2.26838 16C2.26838 23.5837 8.41625 29.7316 16 29.7316C16.6264 29.7316 17.1342 30.2394 17.1342 30.8658C17.1342 31.4922 16.6264 32 16 32C7.16344 32 0 24.8366 0 16C0 7.16344 7.16344 0 16 0C16.6264 0 17.1342 0.507794 17.1342 1.13419C17.1342 1.76059 16.6264 2.26838 16 2.26838Z" fill="url(#paint1_linear_993_2310)"/>
<path fill-rule="evenodd" clip-rule="evenodd" d="M25.6576 27.3585C25.2167 26.9135 25.22 26.1954 25.665 25.7545C28.1775 23.2648 29.7317 19.815 29.7317 16.0001C29.7317 12.1852 28.1775 8.73538 25.665 6.24575C25.22 5.80486 25.2167 5.08674 25.6576 4.64179C26.0985 4.19683 26.8166 4.19355 27.2616 4.63444C30.1864 7.53259 32.0001 11.5556 32.0001 16.0001C32.0001 20.4446 30.1864 24.4676 27.2616 27.3658C26.8166 27.8067 26.0985 27.8034 25.6576 27.3585Z" fill="url(#paint2_linear_993_2310)"/>
<path d="M22.7491 29.7364C22.7491 30.4097 22.2031 30.9556 21.5298 30.9556C20.8564 30.9556 20.3105 30.4097 20.3105 29.7364C20.3105 29.0629 20.8564 28.5171 21.5298 28.5171C22.2031 28.5171 22.7491 29.0629 22.7491 29.7364Z" fill="#4AFEBF"/>
<defs>
<linearGradient id="paint0_linear_993_2310" x1="15.9999" y1="27.0949" x2="15.9999" y2="4.90527" gradientUnits="userSpaceOnUse">
<stop stop-color="#4AFEBF"/>
<stop offset="1" stop-color="#51EEDA"/>
</linearGradient>
<linearGradient id="paint1_linear_993_2310" x1="8.5671" y1="0" x2="8.5671" y2="32" gradientUnits="userSpaceOnUse">
<stop stop-color="#4AFEBF"/>
<stop offset="1" stop-color="#51EEDA"/>
</linearGradient>
<linearGradient id="paint2_linear_993_2310" x1="28.6646" y1="27.6944" x2="28.6646" y2="4.30591" gradientUnits="userSpaceOnUse">
<stop stop-color="#4AFEBF"/>
<stop offset="1" stop-color="#51EEDA"/>
</linearGradient>
</defs>
</svg>
