<svg width="57" height="52" fill="none" xmlns="http://www.w3.org/2000/svg"><path d="m53.52.23-21.66 16.1 4.03-9.49L53.52.24ZM3.56.23l21.46 16.24-3.83-9.63L3.56.24ZM45.72 37.54l-5.76 8.84 12.34 3.4 3.53-12.05-10.11-.2ZM1.27 37.73l3.5 12.06 12.33-3.41-5.74-8.84-10.1.2Z" fill="#F5841F"/><path d="m16.43 22.6-3.42 5.2 12.2.56-.4-13.2-8.38 7.45ZM40.64 22.61l-8.5-7.6-.28 13.35 12.2-.56-3.42-5.19ZM17.1 46.38l7.39-3.58-6.36-4.98-1.03 8.56ZM32.59 42.8l7.37 3.58-1.01-8.56-6.36 4.98ZM39.96 46.38l-7.37-3.58.6 4.8-.07 2.04 6.84-3.26Z" fill="#F5841F"/><path d="m17.1 46.38 6.85 3.26-.04-2.04.58-4.8-7.4 3.58ZM24.08 34.64l-6.12-1.8 4.32-2 1.8 3.8ZM33 34.64l1.8-3.8 4.34 2-6.15 1.8Z" fill="#F5841F"/><path d="m17.1 46.38 1.07-8.84-6.81.2 5.74 8.64ZM38.9 37.54l1.06 8.84 5.76-8.65-6.81-.2ZM44.07 27.8l-12.21.56 1.13 6.28 1.8-3.8 4.35 2 4.93-5.04ZM17.95 32.84l4.33-2 1.8 3.8 1.14-6.28L13 27.8l4.94 5.04Z" fill="#F5841F"/><path d="m13 27.8 5.13 10.02-.18-4.98-4.94-5.04ZM39.14 32.84l-.2 4.98 5.13-10.02-4.93 5.04ZM25.22 28.36l-1.14 6.28 1.44 7.43.32-9.79-.62-3.92ZM31.86 28.36l-.6 3.9.3 9.8 1.43-7.42-1.13-6.28Z" fill="#F5841F"/><path d="m33 34.64-1.44 7.43 1.03.73 6.36-4.98.2-4.98-6.16 1.8ZM17.96 32.84l.17 4.98 6.36 4.98 1.03-.73-1.44-7.43-6.12-1.8ZM33.12 49.64l.07-2.04-.56-.47h-8.18l-.54.47.04 2.04-6.85-3.26 2.4 1.97 4.86 3.37h8.33l4.89-3.37 2.38-1.97-6.84 3.26Z" fill="#F5841F"/><path d="m32.59 42.8-1.03-.73h-6.04l-1.03.73-.58 4.8.54-.47h8.18l.56.47-.6-4.8ZM54.44 17.37l1.82-8.88L53.52.23 32.59 15.8l8.05 6.82 11.38 3.32 2.5-2.93-1.09-.8 1.74-1.59-1.33-1.03 1.73-1.33-1.13-.88ZM.81 8.5l1.85 8.87-1.18.88 1.76 1.33-1.33 1.03 1.73 1.6-1.09.79 2.5 2.93 11.38-3.32 8.06-6.82L3.56.23.8 8.5Z" fill="#F5841F"/><path d="m52.02 25.93-11.38-3.32 3.43 5.2-5.12 10 6.77-.08h10.11l-3.81-11.8ZM16.43 22.6 5.06 25.94l-3.8 11.8h10.1l6.77.09L13 27.8l3.42-5.2ZM31.86 28.36l.73-12.57 3.3-8.95h-14.7l3.3 8.95.73 12.57.28 3.95.02 9.76h6.04l.02-9.76.28-3.95Z" fill="#F5841F"/><path d="M25.52 42.07h6.04M53.52.23l-21.66 16.1 4.02-9.49L53.52.24Zm0 0L35.88 6.84 53.52.24Zm0 0 2.74 8.26-1.82 8.88 1.13.88-1.73 1.33 1.33 1.03-1.74 1.6 1.1.79-2.51 2.93 1.5-25.7Zm0 0L32.59 15.8 53.52.23ZM35.88 6.84l-3.3 8.95 3.3-8.95Zm0 0h-14.7 14.7ZM3.56.24l21.46 16.23-3.83-9.63L3.56.24Zm0 0 17.63 6.6L3.56.24Zm0 0 20.93 15.55L3.56.23Zm0 0L.8 8.48l1.85 8.88-1.18.88 1.76 1.33-1.33 1.03 1.73 1.6-1.09.79 2.5 2.93L3.56.23Zm17.63 6.6 3.3 8.95-3.3-8.95Zm18.76 39.54 5.77-8.84 10.1.2-15.87 8.64Zm0 0 12.34 3.4 3.54-12.05-15.88 8.65Zm0 0L32.6 42.8l7.36 3.58Zm0 0-1-8.56 1 8.56Zm0 0-6.83 3.26.06-2.04 6.77-1.22Zm0 0-1.05-8.84 6.82.2-5.77 8.64Zm0 0 5.77-8.65-5.77 8.65Zm0 0-2.37 1.97-4.89 3.37h-8.33l-4.86-3.37-2.4-1.97h22.85Zm15.88-8.65H45.72h10.1Zm0 0-3.81-11.8 3.8 11.8Zm-54.57 0L4.78 49.8l12.32-3.41-15.84-8.65Zm0 0 10.1-.19 5.74 8.84-15.84-8.65Zm0 0 3.8-11.8-3.8 11.8Zm0 0h10.1-10.1Zm15.84 8.65 7.39-3.58-7.4 3.58Zm0 0 1.02-8.56-1.02 8.56Zm0 0 6.85 3.26-.04-2.04-6.81-1.22Zm0 0 1.07-8.84-6.82.2 5.75 8.64Zm0 0-5.75-8.65 5.75 8.65Zm-.67-23.77L13 27.8l3.43-5.2Zm0 0 8.38-7.44.4 13.19-8.78-5.75Zm0 0L5.06 25.93l11.37-3.32Zm0 0 8.06-6.82-8.06 6.82ZM13 27.8l12.22.56L13 27.8Zm0 0 4.95 5.04L13 27.8Zm0 0 5.12 10.02L13 27.8Zm12.22.56-1.14 6.28 1.14-6.28Zm0 0 .62 3.92-.32 9.79-.3-13.71Zm0 0-.73-12.57.73 12.57Zm0 0 .27 3.95.03 9.76-.3-13.71Zm15.42-5.75-8.5-7.6-.28 13.35 8.78-5.75Zm0 0 3.43 5.2-3.43-5.2Zm0 0-8.05-6.82 8.05 6.82Zm0 0 11.38 3.32-11.38-3.32Zm-8.78 5.75 12.2-.56-12.2.56Zm0 0 1.13 6.28-1.13-6.28Zm0 0-.6 3.9.3 9.8.3-13.7Zm0 0 .73-12.57-.73 12.57Zm0 0-.28 3.95-.02 9.76.3-13.71Zm12.2-.56-4.92 5.04 4.93-5.04Zm0 0-5.11 10.02 5.12-10.02Zm-19.57 15-6.37-4.98 6.37 4.98Zm0 0-.58 4.8.58-4.8Zm0 0 1.03-.73-1.03.73Zm-6.37-4.98-.17-4.98.17 4.98Zm0 0-6.77-.09 6.77.09ZM32.6 42.8l6.36-4.98-6.36 4.98Zm0 0 .6 4.8-.6-4.8Zm0 0-1.03-.73 1.03.73Zm6.36-4.98.2-4.98-.2 4.98Zm0 0 6.77-.09-6.77.09Zm-5.77 9.78-.55-.47h-8.19l-.53.47h9.27Zm-9.1-12.96-6.13-1.8 6.13 1.8Zm0 0-1.8-3.8-4.33 2 6.13 1.8Zm0 0 1.44 7.43-1.44-7.43Zm8.91 0 1.8-3.8 4.35 2-6.15 1.8Zm0 0 6.15-1.8-6.15 1.8Zm0 0-1.43 7.43 1.43-7.43Z" stroke="#F5841F" stroke-width=".25" stroke-linecap="round" stroke-linejoin="round"/><path d="M53.72.28 31.85 16.37l4.07-9.48L53.72.28Z" fill="#E17726" stroke="#E17726" stroke-width=".25" stroke-linecap="round" stroke-linejoin="round"/><path d="m3.28.28 21.67 16.24-3.87-9.63L3.28.28ZM45.85 37.59l-5.82 8.83 12.46 3.41 3.57-12.05-10.21-.2ZM.96 37.78l3.55 12.05 12.44-3.4-5.8-8.84-10.19.19Z" fill="#E27625" stroke="#E27625" stroke-width=".25" stroke-linecap="round" stroke-linejoin="round"/><path d="m16.28 22.65-3.46 5.2 12.33.55-.41-13.19-8.46 7.44ZM40.72 22.66l-8.59-7.6-.28 13.34 12.33-.55-3.46-5.2ZM16.95 46.42l7.46-3.58L18 37.86l-1.04 8.56ZM32.59 42.84l7.44 3.58L39 37.86l-6.42 4.98Z" fill="#E27625" stroke="#E27625" stroke-width=".25" stroke-linecap="round" stroke-linejoin="round"/><path d="m40.03 46.42-7.44-3.58.6 4.8-.06 2.04 6.9-3.26ZM16.95 46.42l6.92 3.26-.04-2.03.58-4.8-7.46 3.57Z" fill="#D5BFB2" stroke="#D5BFB2" stroke-width=".25" stroke-linecap="round" stroke-linejoin="round"/><path d="m24 34.69-6.19-1.8 4.37-2L24 34.7ZM33 34.69l1.82-3.8 4.39 2-6.21 1.8Z" fill="#233447" stroke="#233447" stroke-width=".25" stroke-linecap="round" stroke-linejoin="round"/><path d="m16.95 46.42 1.08-8.83-6.88.19 5.8 8.64ZM38.97 37.59l1.06 8.83 5.82-8.64-6.88-.2ZM44.18 27.85l-12.33.55L33 34.7l1.82-3.8 4.39 2 4.97-5.04ZM17.81 32.89l4.37-2L24 34.7l1.15-6.29-12.33-.55 5 5.04Z" fill="#CC6228" stroke="#CC6228" stroke-width=".25" stroke-linecap="round" stroke-linejoin="round"/><path d="m12.82 27.85 5.17 10.01-.18-4.97-5-5.04ZM39.2 32.89l-.19 4.97 5.17-10.01-4.97 5.04ZM25.15 28.4 24 34.7l1.45 7.42.32-9.78-.62-3.93ZM31.85 28.4l-.6 3.9.3 9.81L33 34.7l-1.15-6.29Z" fill="#E27525" stroke="#E27525" stroke-width=".25" stroke-linecap="round" stroke-linejoin="round"/><path d="m33 34.69-1.45 7.42 1.04.73L39 37.86l.2-4.97-6.21 1.8ZM17.81 32.89l.18 4.97 6.42 4.98 1.04-.73L24 34.7l-6.19-1.8Z" fill="#F5841F" stroke="#F5841F" stroke-width=".25" stroke-linecap="round" stroke-linejoin="round"/><path d="m33.13 49.68.06-2.03-.56-.48h-8.26l-.54.48.04 2.03-6.92-3.26 2.42 1.98 4.91 3.37h8.42l4.93-3.37 2.4-1.98-6.9 3.26Z" fill="#C0AC9D" stroke="#C0AC9D" stroke-width=".25" stroke-linecap="round" stroke-linejoin="round"/><path d="m32.59 42.84-1.04-.73h-6.1l-1.04.73-.58 4.8.54-.47h8.26l.56.48-.6-4.8Z" fill="#161616" stroke="#161616" stroke-width=".25" stroke-linecap="round" stroke-linejoin="round"/><path d="m54.65 17.42 1.84-8.88L53.72.28 32.6 15.83l8.13 6.82 11.49 3.33 2.53-2.94-1.1-.8 1.75-1.58-1.34-1.03 1.75-1.33-1.15-.88ZM.51 8.54l1.86 8.88-1.19.88 1.77 1.33-1.34 1.03 1.76 1.59-1.1.8 2.52 2.93 11.49-3.33 8.13-6.82L3.28.28.5 8.54Z" fill="#763E1A" stroke="#763E1A" stroke-width=".25" stroke-linecap="round" stroke-linejoin="round"/><path d="m52.2 25.98-11.48-3.32 3.46 5.19-5.17 10.01 6.84-.08h10.2l-3.84-11.8ZM16.28 22.66 4.79 25.98.96 37.78h10.2l6.83.08-5.17-10.01 3.46-5.2ZM31.85 28.4l.74-12.57 3.33-8.94H21.08l3.33 8.94.74 12.57.28 3.95.02 9.76h6.1l.02-9.76.28-3.95Z" fill="#F5841F" stroke="#F5841F" stroke-width=".25" stroke-linecap="round" stroke-linejoin="round"/></svg>