<svg width="74" height="52" fill="none" xmlns="http://www.w3.org/2000/svg"><path d="M15.15 12.74a31.68 31.68 0 0 1 43.69 0l1.45 1.4c.6.58.6 1.52 0 2.1l-4.97 4.8c-.3.3-.79.3-1.1 0l-1.99-1.93a22.1 22.1 0 0 0-30.48 0l-2.14 2.07c-.3.3-.79.3-1.1 0l-4.96-4.8c-.6-.58-.6-1.52 0-2.1l1.6-1.54Zm53.96 9.91 4.42 4.27c.6.58.6 1.53 0 2.11L53.6 48.28c-.6.58-1.59.58-2.19 0L37.26 34.62a.4.4 0 0 0-.54 0L22.57 48.28c-.6.58-1.58.58-2.18 0L.45 29.03c-.6-.58-.6-1.53 0-2.1l4.42-4.28c.6-.58 1.58-.58 2.19 0L21.2 36.31c.15.15.39.15.54 0L35.9 22.65c.6-.58 1.58-.58 2.18 0l14.15 13.66c.15.15.4.15.55 0l14.14-13.66c.6-.58 1.58-.58 2.19 0Z" fill="#3B99FC"/></svg>