<svg width="273" height="606" fill="none" xmlns="http://www.w3.org/2000/svg"><g opacity=".3" clip-path="url(#clip0)"><path d="M667.23 750.55a142.87 142.87 0 01-9.22 4.86c-45.63 22.02-103.73 22.64-159.52 1.56-45.94-17.21-89.84-47.92-134.33-93.66-11.93-12.32-23.8-25.56-35.4-38.36-40.72-45.29-82.83-92.25-139.97-112.1-15.56-5.4-32.14-8.76-48.03-11.92-24.52-4.94-49.84-10-71.8-22.7C43.59 463.68 24.09 438.71 14 408.2c-9.7-29.58-9.8-61.31-.36-89.46 17.75-52.4 65.83-95.9 128.57-116.18 7.26-2.42 14.87-4.46 22.1-6.42 24.23-6.76 49.36-13.75 67.61-30.4 16.3-14.96 25.42-36.03 34.07-56.39 4.1-9.68 8.4-19.77 13.42-29.11 16.11-29.79 41.9-54.73 74.56-72.06a212.89 212.89 0 01103.4-24.5c68.27 1.3 138.36 33.48 192.38 88.39 15.97 16.3 30.52 34.44 44.62 51.82 13.86 17.22 28.22 35.03 43.95 51.17 26.5 26.95 68.32 59.14 117.4 59.16 5.87 0 11.87-.52 17.75-.98 12.92-.99 26.33-2.11 39.08 1.97 19.82 6.18 36.46 25.17 42.14 48.27 4.55 18.34 3.27 39.29-3.91 64.22-9.23 31.83-25.64 62.37-47.33 88.33-21.8 26.02-49.09 47.59-78.88 62.25a577.55 577.55 0 01-19.95 9.13c-11.92 5.25-24.17 10.69-35.36 17.72-19.81 12.42-32.61 28.87-36.04 46.08-2.42 12.09-.36 24.82 1.61 37.16.96 5.75 1.88 11.67 2.34 17.56 4.15 48.45-24.27 98.35-69.94 124.63zM98.5 224.62c-39.84 22.93-69.33 56.46-82.38 94.88-19.93 58.79 3.84 127.59 54.11 156.38 21.66 12.44 46.88 17.56 71.05 22.4 16.06 3.21 32.64 6.56 48.37 12.01 57.72 20.1 100.08 67.23 140.98 112.84 11.44 12.75 23.3 26 35.23 38.32 44.2 45.47 87.79 75.91 133.39 93.03 55.14 20.72 112.56 20.2 157.47-1.55 3.1-1.49 6.13-3.09 9.1-4.8 44.9-25.84 72.76-74.69 68.55-122.22-.5-5.72-1.42-11.63-2.38-17.38-2-12.63-4.11-25.47-1.55-38.08 3.55-18.01 16.66-34.93 37.13-47.74 11.3-7.09 23.66-12.6 35.59-17.84 6.54-2.89 13.3-5.9 19.94-9.13 59.76-29.56 106.49-85.31 125.05-149.03 7.04-24.42 8.34-45.08 3.93-62.91-5.62-22.26-21.43-40.56-40.49-46.44-12.28-3.77-25.47-2.77-38.1-1.8-5.9.46-11.95.87-17.92.94-49.94.02-92.4-32.53-119.16-59.91-15.84-16.08-30.15-34.07-44.08-51.4-14-17.44-28.47-35.48-44.38-51.66C594.43 19.2 525.04-12.78 457.39-14c-73.63-1.43-144.2 36.84-175.65 95.22-4.98 9.17-9.17 19.2-13.33 28.77-8.8 20.6-17.9 41.95-34.69 57.32-18.74 17.08-44.09 24.2-68.6 30.99a440.46 440.46 0 00-22.03 6.52 245.97 245.97 0 00-44.58 19.8z" fill="url(#paint0_linear)"/><path d="M653.96 738.7c-3.19 1.84-6.55 3.63-9.87 5.24-44.77 21.23-101.46 21.76-155.5 1.44-44.83-16.82-87.6-46.85-130.68-91.65-11.39-11.9-22.7-24.44-33.66-36.6-39.62-44.15-80.51-89.76-135.7-110.3-14.71-5.45-30.17-9.15-45.11-12.71C120.36 488.63 96.3 483 75.5 470.5c-49.1-29.32-71.97-97.32-52.3-154.78 17.5-50.8 64.27-93.25 125.27-113.26a682.23 682.23 0 0121.57-6.56c23.5-6.78 47.88-13.78 65.34-30.28 15.8-14.8 24.89-35.42 33.62-55.38 4.36-9.98 9-20.27 14.35-29.8 16.27-29 41.87-53.25 73.95-69.8A208.6 208.6 0 01458.78-12.6c66.94 1.77 135.7 33.69 188.58 87.64 15.44 15.88 29.5 33.42 43.17 50.31 14.36 17.82 29.26 36.34 45.65 52.84 25.86 25.85 66.93 57 115.98 58.22 5 .05 9.95-.01 14.9-.07 14.38-.22 27.95-.56 40.87 4.31 18.73 7.1 33.2 25.87 37.9 48.8 3.61 18 1.88 37.89-5.72 62.62-18.07 59.48-59.32 110.76-113.9 142.18-3.09 1.77-6.34 3.5-9.49 5.16-8.22 4.3-16.87 8.1-25.24 11.89-10.8 4.9-22 9.88-32.12 15.7-14.86 8.55-33.54 22.68-38.41 42.47-2.87 11.32-1.15 23.22.5 34.73.75 5.13 1.52 10.55 1.84 15.93 1.75 24.93-5.31 50.09-20.08 72.8a151.57 151.57 0 01-49.25 45.77zM106.6 223.64c-39.07 22.48-68.09 55.3-81.08 92.8-19.39 56.43 3 123.1 51.16 151.78 20.52 12.22 43.24 17.6 67.18 23.31 15.06 3.5 30.58 7.31 45.46 12.8 55.71 20.69 96.91 66.57 136.65 110.94 10.96 12.15 22.16 24.75 33.66 36.6 42.77 44.53 85.25 74.29 129.8 91.13 53.46 20.08 109.4 19.52 153.62-1.38 48.82-23.12 80.7-73.1 77.35-121.43a206.64 206.64 0 00-1.82-15.65c-1.66-11.8-3.4-23.98-.5-35.75 5.1-20.66 24.38-35.28 39.56-44.02 10.35-5.95 21.55-10.93 32.35-15.83 8.37-3.79 17.02-7.6 25.13-11.82 58.8-30.47 103.24-83.59 122.16-145.9 7.5-24.4 9.26-44 5.68-61.43-4.55-22.14-18.46-40.21-36.33-47.07-12.39-4.74-25.74-4.52-39.88-4.15-4.95.06-10 .19-15.01.14-49.9-1.17-91.51-32.74-117.68-58.86-16.55-16.54-31.46-35.07-45.77-53.06-13.56-16.95-27.55-34.39-42.93-50.15-52.51-53.58-120.52-85.2-186.9-87-72.86-1.87-140.77 34.14-173.16 91.9l-1.06-.57 1.06.56c-5.25 9.47-9.77 19.69-14.2 29.56-8.88 20.2-18.01 40.99-34.19 56.16-17.95 16.92-42.56 24.05-66.34 30.85-7.05 2-14.43 4.2-21.46 6.5a233.33 233.33 0 00-42.51 19.04z" fill="url(#paint1_linear)"/><path d="M641.36 726.47a141.54 141.54 0 01-11.26 5.9c-44.02 20.5-99.18 20.88-151.52 1.2-43.8-16.55-85.28-45.86-127.1-89.76a1500.93 1500.93 0 01-31.91-34.82c-38.53-43.02-78.45-87.44-131.62-108.55-13.86-5.5-28.2-9.56-42.08-13.3-22.9-6.44-44.53-12.46-64.3-24.66-23.26-14.46-40.9-38-49.9-66.36-8.8-27.76-8.61-57.46.6-83.71 17.1-48.96 62.74-90.31 121.91-110.45a550.38 550.38 0 0120.4-6.31c23.03-6.81 46.79-13.9 63.62-30.47 15.12-14.7 24.24-34.75 33.12-54.22 4.74-10.34 9.57-21.03 15.26-30.75C319.76 23.3 387.6-11.78 459.42-9.45c65.89 2.23 133.22 33.94 184.85 87 15.07 15.5 28.76 32.67 42.08 49.19 14.67 18.36 30 37.37 46.97 54.13 35.67 35 76.28 55.42 114.56 57.27 3.3.15 6.73.23 10.03.38 15.96.49 31.07 1.02 44.63 7.28 17.3 7.92 30.13 26.9 33.56 49.4 2.62 17.54.31 36.44-7.57 61.2-9.8 30.83-25.6 60.14-45.66 84.58-21.34 26.05-46.56 46.13-74.95 59.69-6.3 3.04-12.9 6.1-19.37 9.1-13.4 6.24-27.2 12.57-40.16 19.3-22.8 11.8-36.55 24.84-40.85 38.74-3.2 10.49-1.95 21.05-.61 32.3.61 4.62 1.18 9.42 1.35 14.3 2.34 43.78-24.33 87.55-66.92 112.06zM114.78 222.59c-38.52 22.16-67.25 54.22-79.95 90.7-18.91 53.94 2.34 118.63 48.21 147.16 19.37 12 40.88 18.09 63.55 24.38 13.93 3.85 28.28 7.9 42.31 13.45 53.7 21.25 93.8 66 132.46 109.24a1500.97 1500.97 0 0031.9 34.82c41.46 43.53 82.7 72.68 126.2 88.96 51.66 19.5 106.19 19.03 149.66-1.15 48.28-22.52 79.22-69.04 77.16-115.9-.22-4.71-.79-9.51-1.33-14.03-1.33-10.96-2.74-22.31.66-33.2 4.5-14.6 18.66-28.17 42.07-40.18 12.98-6.74 26.88-13.13 40.17-19.31 6.37-2.93 12.96-6 19.26-9.04 55.35-26.28 98.83-78.26 119.28-142.77 7.78-24.4 10.06-42.85 7.45-60.1-3.26-21.71-15.65-39.93-32.2-47.55-12.97-6-27.9-6.5-43.58-7-3.3-.15-6.72-.23-10.03-.38-38.73-1.88-80.04-22.5-116.08-57.87-17.14-16.8-32.36-35.87-47.2-54.28-13.32-16.52-26.95-33.58-41.96-48.97C591.64 26.83 524.9-4.64 459.63-6.79c-70.9-2.55-137.93 32.2-170.7 88.28-5.58 9.66-10.48 20.24-15.1 30.52-8.93 19.64-18.2 39.92-33.6 54.93-17.37 16.89-41.46 24.16-64.61 31.03a402.52 402.52 0 00-20.22 6.37 222.28 222.28 0 00-40.62 18.25z" fill="url(#paint2_linear)"/><path d="M628.31 714.5a164.84 164.84 0 01-12.2 6.28c-43.16 19.71-96.94 20.2-147.5 1.09-42.34-16.07-82.7-44.7-123.34-87.82-9.83-10.46-19.7-21.49-29.3-32.07-37.74-42.16-76.82-85.89-128.32-107.67-12.84-5.5-25.94-9.69-38.59-13.83-21.8-7.09-42.22-13.8-60.9-25.9-22.06-14.4-38.87-37.25-47.35-64.46-8.4-26.81-7.92-55.5 1.12-80.78 16.8-47.17 61.2-87.38 118.72-107.59 6.36-2.19 13.06-4.29 19.44-6.2 22.3-6.82 45.42-13.98 61.75-30.41 14.34-14.55 23.6-34.1 32.4-52.92 5-10.65 10.21-21.7 16.34-31.68l.94.63-.94-.63c33.61-55.38 100.5-89.34 170.41-86.5 64.66 2.64 130.67 34.1 181 86.43 14.6 15.19 27.98 31.81 40.93 47.95 15.1 18.85 30.75 38.4 48.47 55.46 34.67 33.52 74.93 53.57 113.14 56.34l1.09.1c20.16 1.44 37.48 2.75 52.29 10.93 16.04 8.79 26.98 27.54 29.21 50 2.11 21.49-3.9 43.11-9.36 59.59-19.7 58.94-57.05 106.81-103.71 133.66a214.4 214.4 0 01-13.96 7.3c-9.7 4.56-19.82 9.36-29.5 13.91a2849.99 2849.99 0 01-32.06 15.08c-24.47 11.44-38.7 22.86-43.33 35.19-3.7 9.6-2.73 19.44-1.78 29.74.36 4.18.9 8.42.86 12.69.83 41.42-25.25 82.65-65.97 106.08zM122.9 221.42c-37.86 21.79-66.22 53.2-78.82 88.58-18.66 52.34.8 113.66 45.27 142.57 18.34 12 38.8 18.54 60.32 25.64 12.65 4.15 25.75 8.33 38.76 13.88 51.97 22.1 91.23 65.87 129.1 108.25 9.5 10.65 19.36 21.67 29.18 32.13 40.45 42.8 80.46 71.34 122.58 87.24 49.97 18.86 103.07 18.48 145.68-.92 46.87-21.4 77.71-65.82 76.8-110.42-.07-4.2-.43-8.39-.9-12.51-1-10.13-2.07-20.64 1.89-30.83 4.94-12.8 19.48-24.7 44.5-36.45 10.42-4.83 21.42-10.13 32.06-15.08 9.8-4.61 19.81-9.35 29.5-13.9 52.65-24.6 95.11-75.55 116.56-139.6 5.48-16.2 11.33-37.58 9.19-58.62-2.18-21.6-12.67-39.58-28.02-48.18-14.4-7.98-31.55-9.25-51.36-10.59l-1.1-.1c-38.66-2.8-79.44-23-114.54-57-17.72-17.05-33.44-36.72-48.6-55.68-12.95-16.14-26.32-32.76-40.68-47.79C590.25 30.27 524.93-1 460.84-3.67c-69.1-2.72-135.18 30.62-168.27 85.12-6.02 9.9-11.12 20.9-16.2 31.44-8.94 19.07-18.25 38.78-32.92 53.52-16.75 16.97-40.17 24.14-62.68 31.1a505.3 505.3 0 00-19.43 6.2 239.81 239.81 0 00-38.44 17.72z" fill="url(#paint3_linear)"/><path d="M615.55 702.5c-4.3 2.47-8.82 4.78-13.37 6.81-42.4 18.99-94.65 19.32-143.52.85-41.18-15.56-80.38-43.7-119.7-85.81-9.1-9.7-18.18-19.87-26.95-29.76-36.95-41.3-75-84-124.73-106.52-11.69-5.28-23.15-9.67-34.38-13.9-20.76-7.83-40.42-15.27-58.26-27.42-43.13-29.38-61.7-89.9-43.28-140.64 16.5-45.39 59.71-84.61 115.42-104.66 6.07-2.17 12.38-4.2 18.58-6.15 21.67-6.9 44.17-14.14 59.82-30.47 13.72-14.34 22.9-33.25 31.73-51.52 5.32-11.12 10.91-22.54 17.42-32.87C328.2 26.8 394.06-5.67 462.17-2.38c63.43 3.05 128 34.3 177.27 85.8 14.23 14.8 27.24 31.04 39.83 46.8 15.59 19.45 31.66 39.5 49.8 56.75 33.85 32.1 73.45 51.78 111.72 55.4 21.4 2.04 38.48 5.25 52.32 14.28 14.61 9.61 23.85 28.47 24.91 50.42.91 20.42-5.12 40.74-11.16 57.99-20.36 58.3-56.87 105.1-101.15 130.73-4.52 2.6-9.05 4.91-13.64 7.11-7.86 3.65-15.88 7.53-23.68 11.29-13.16 6.4-26.83 12.95-39.93 18.44-17.93 7.53-39.34 17.95-45.77 31.46-4.2 8.73-3.57 17.73-2.96 27.2.22 3.68.5 7.48.43 11.18-.21 21.51-7.82 43.17-22 62.32a139.4 139.4 0 01-42.61 37.71zM131.2 220.32C94 241.72 66 272.49 53.5 306.78c-18.07 49.81.08 109.1 42.5 138.01 17.6 12 37.1 19.39 57.75 27.28 11.22 4.23 22.86 8.67 34.55 13.95 50.13 22.72 88.43 65.58 125.5 107.1a1548.1 1548.1 0 0026.88 29.65c39.2 41.9 78.1 69.76 118.94 85.23 48.28 18.22 99.97 17.92 141.75-.86 46-20.61 76.07-61.8 76.5-104.82.08-3.7-.25-7.33-.47-11.01-.65-9.3-1.28-19.04 3.07-28.28 6.79-14.16 27.51-24.48 47-32.62 13.1-5.49 26.7-12.15 39.93-18.44 7.8-3.76 15.94-7.7 23.69-11.29 50.01-23.06 91.4-72.82 113.67-136.47 6-17.07 11.98-37.22 11.04-57.18-.96-21.28-9.89-39.58-23.9-48.66-13.43-8.83-30.16-11.94-51.28-14-38.72-3.65-78.74-23.54-112.95-56-18.3-17.3-34.45-37.46-50.04-56.91-12.52-15.65-25.53-31.9-39.6-46.66-48.83-51-112.82-82-175.8-85.03-67.48-3.2-132.49 28.93-165.96 81.75-6.46 10.16-11.94 21.52-17.26 32.64-8.98 18.5-18.22 37.58-32.16 52.05-16.07 16.87-38.86 24.12-60.8 31.04-6.1 1.9-12.4 3.91-18.48 6.09a240.92 240.92 0 00-36.37 16.98z" fill="url(#paint4_linear)"/><path d="M602.72 690.4a140.92 140.92 0 01-14.53 7.33c-41.54 18.2-92.37 18.44-139.49.73-40.08-15.17-77.98-42.59-116.12-83.92-8.2-8.9-16.42-18.1-24.34-27.01-36.05-40.5-73.49-82.39-121.5-105.74-9.95-4.82-19.52-8.98-28.81-13.15-20.38-8.94-39.59-17.37-56.94-29.94-19.84-14.37-34.86-35.9-42.18-60.84-7.5-24.99-6.73-51.65 1.9-75.08 16.58-44.26 57.35-81.35 112.13-101.74a422.39 422.39 0 0117.62-6.04c21.04-6.98 42.86-14.12 58-30.59 12.99-14.07 22.1-32.35 30.85-49.99 5.8-11.55 11.82-23.5 18.76-34.09C332.34 28.38 397.18-2.78 463.4 1.01c62.2 3.47 125.45 34.46 173.47 85.05 13.76 14.5 26.41 30.37 38.74 45.69 15.85 19.89 32.41 40.53 51.13 58.03 32.85 30.61 72.1 49.93 110.2 54.52 22.96 2.75 39.22 8.34 51.2 17.7 13.3 10.37 20.82 29.05 20.57 51.02-.3 19.07-6.34 38.37-12.9 56.5-12.7 34.7-41.65 94.87-98.1 127.37-4.41 2.53-9.05 4.9-13.81 7.06a887.74 887.74 0 00-23.4 11.27c-13.94 6.85-28.31 13.95-42.28 19.2-20.7 7.82-41.53 16.43-48.25 27.92-4.6 7.77-4.3 15.95-4.02 24.58.07 3.18.2 6.47 0 9.67-1.87 36.97-26.13 72.46-63.22 93.8zM138.48 219.5c-36.42 20.96-63.25 50.46-75.78 84.18-17.54 47.16-.53 104.47 39.57 133.4 17.22 12.36 36.32 20.86 56.52 29.74 9.4 4.12 18.97 8.28 28.92 13.1 48.36 23.44 85.93 65.55 122.1 106.26 7.92 8.92 16.14 18.11 24.34 27.02 37.95 41 75.62 68.26 115.35 83.33 46.6 17.58 96.75 17.43 137.79-.62 44.42-19.56 74.33-58.45 76.2-99.24.1-3.13.03-6.31-.04-9.5-.28-8.62-.62-17.36 4.41-25.68 7.15-12.02 28.3-20.83 49.34-28.83 13.96-5.25 28.23-12.29 42.16-19.14a867.03 867.03 0 0123.51-11.33c64.81-29.68 97.26-96.26 110.85-133.23 6.57-17.85 12.56-36.97 12.88-55.76.28-21.4-6.9-39.25-19.72-49.3-11.69-9.1-27.6-14.6-50.1-17.31-38.67-4.56-78.21-24.15-111.48-54.96-18.89-17.55-35.46-38.2-51.36-58.2-12.22-15.38-24.92-31.07-38.5-45.52C587.77 37.7 525 7.01 463.35 3.51c-65.59-4-129.6 26.83-163.5 78.14l-.95-.63.95.63c-6.9 10.41-12.91 22.37-18.6 33.85-8.92 17.87-18.14 36.22-31.3 50.53-15.5 16.83-37.54 24.1-58.86 31.1a457.91 457.91 0 00-17.51 5.97 237.8 237.8 0 00-35.1 16.4z" fill="url(#paint5_linear)"/><path d="M590.3 678.21a168.83 168.83 0 01-15.92 7.99c-40.79 17.46-90.03 17.68-135.42.43-38.8-14.73-75.64-41.58-112.48-81.91a1545.13 1545.13 0 01-21.36-23.9c-35.45-39.95-72.16-81.09-118.52-105.39-6.7-3.48-13.14-6.8-19.36-9.96-22.27-11.2-41.5-20.94-59.54-34.73-39.08-29.96-54.71-85.13-37.28-131.2 16.11-42.53 55.86-78.6 108.88-99 5.5-2.14 11.13-4.06 16.66-5.92 20.4-7.05 41.6-14.27 56.11-30.54 12.17-13.74 21.26-31.28 29.94-48.28 6.23-12.08 12.66-24.58 20.1-35.6l.88.52-.88-.51C336.58 29.89 400.48.15 464.83 4.28 525.81 8.16 587.7 39.06 634.57 88.7c13.4 14.12 25.68 29.61 37.65 44.55 16.27 20.38 33.1 41.46 52.5 59.15 31.86 29.14 70.52 48.2 108.71 53.47 21.68 3.05 38.07 9.89 50.04 21.01 16.3 15.1 17.17 38.76 16.22 51.61-1.36 18.51-8 37.28-14.8 54.97-24.37 63.83-63.16 110.47-109.14 131.37a862.72 862.72 0 00-23.51 11.33c-14.42 7.27-29.46 14.75-44.3 19.77l-2.67.96c-21.08 7.15-41.05 13.95-48.12 23.3-5.18 6.78-5.2 14.12-5.26 21.92-.07 2.68-.07 5.47-.26 8.2-3.27 35.3-26.23 67.7-61.34 87.9zm-443.4-459.9c-35.89 20.65-62.35 49.5-74.77 82.15-17.2 45.2-1.74 99.3 36.55 128.69 17.87 13.74 37.04 23.36 59.2 34.64 6.22 3.16 12.78 6.41 19.47 9.89 46.7 24.4 83.54 65.75 119.16 105.75 7 7.84 14.2 16.01 21.3 23.78 36.6 40.18 73.15 66.76 111.72 81.34 44.8 17 93.65 16.86 133.82-.4 43.33-18.63 72.34-54.52 75.95-93.81.25-2.63.25-5.42.33-8.1.05-7.8.15-15.76 5.75-23.09 7.39-9.82 27.69-16.8 49.16-24.04l2.68-.95c14.66-5.07 29.58-12.49 44.06-19.65 7.74-3.87 15.8-7.92 23.63-11.4 45.54-20.64 83.85-66.86 107.95-130.1 6.66-17.46 13.36-36.11 14.63-54.27.92-12.4.03-35.33-15.5-49.83-11.67-10.87-27.64-17.5-48.87-20.52-38.6-5.47-77.6-24.63-109.94-54.08-19.47-17.8-36.35-38.99-52.69-59.48-11.96-14.94-24.25-30.43-37.47-44.5-46.59-49.37-107.93-79.85-168.34-83.76-63.6-4.12-126.78 25.35-160.9 75.02-7.39 10.84-13.82 23.33-19.94 35.35-8.78 17.07-17.82 34.72-30.31 48.65-14.9 16.63-36.25 24.08-57.05 31.22a411.44 411.44 0 00-16.55 5.86 225.96 225.96 0 00-33.04 15.65z" fill="url(#paint6_linear)"/><path d="M577.14 666.3a154.92 154.92 0 01-16.75 8.32c-39.92 16.67-87.75 16.8-131.45.2-37.7-14.35-73.24-40.48-108.9-80.02-6.02-6.65-12-13.46-17.84-20.06-35.02-39.47-71.15-80.36-116.14-105.6-27.88-15.6-50.9-28.86-72.12-46.39-17.51-14.39-30.64-34.67-37.03-57.21-6.6-23.45-5.62-47.46 2.77-69.28 15.81-40.74 54.26-75.76 105.57-96.06a339.15 339.15 0 0115.59-5.75c20.78-7.42 40.34-14.43 54.29-30.66 11.5-13.36 20.3-30.14 28.85-46.34 6.66-12.62 13.56-25.83 21.65-37.22 34.7-48.68 97.59-77.11 160.2-72.42 59.7 4.46 120.2 34.99 166 83.78 12.93 13.8 25.03 28.97 36.63 43.53 16.59 20.93 33.84 42.5 53.77 60.33 30.86 27.66 68.98 46.3 107.29 52.53 20.84 3.38 37.31 11.63 48.93 24.43 13.62 15.02 14.03 36.6 11.92 52.03-2.26 16.69-8.51 33.32-16.61 53.37-16.47 41.12-45.68 93.97-93.78 121.65-4.07 2.34-8.16 4.4-12.42 6.42-7.93 3.53-15.93 7.7-23.67 11.57-15.08 7.65-30.6 15.55-46.2 20.28-4.13 1.21-8.1 2.47-12.01 3.55-18.57 5.41-34.62 10.1-41.21 16.98-5.58 5.84-6 12.24-6.5 19.26-.21 2.18-.36 4.46-.62 6.8-4.83 33.11-27.3 63.04-60.21 81.98zm-421.9-449.27c-35.33 20.33-61.61 48.5-73.86 80.16-16.75 43.18-2.9 94.25 33.67 124.19 21.16 17.41 43.12 30.12 71.82 46.13 45.23 25.39 81.53 66.32 116.68 106.01 5.85 6.6 11.82 13.42 17.84 20.06 35.36 39.28 70.78 65.19 108.13 79.44 43.11 16.36 90.55 16.3 129.97-.23 41.3-17.32 70.32-51.16 75.65-88.22.33-2.24.48-4.52.58-6.63.5-7.03.93-14.16 7.1-20.5 6.97-7.23 23.25-12.05 42.2-17.55 3.93-1.08 7.89-2.33 12.03-3.54 15.3-4.71 30.9-12.5 45.9-20.27 7.86-3.93 15.86-8.1 23.79-11.64 54.96-24.89 87.58-82.77 105.18-127.04 8.23-20.56 14.19-36.44 16.4-52.95 2.02-15.08 1.7-36-11.43-50.41-11.25-12.42-27.3-20.47-47.8-23.76-38.66-6.32-77.2-25.17-108.35-53.1-20.17-17.98-37.3-39.61-54.07-60.59-11.6-14.56-23.63-29.61-36.56-43.42-45.44-48.41-105.41-78.8-164.6-83.12-61.92-4.5-124.16 23.54-158.42 71.69-8.05 11.22-14.9 24.25-21.56 36.87-8.6 16.37-17.4 33.16-29.06 46.75-14.33 16.6-35.05 24.13-55.1 31.28-5.13 1.78-10.42 3.8-15.6 5.75a236.7 236.7 0 00-30.53 14.64z" fill="url(#paint7_linear)"/><path d="M567.8 652.63a169.82 169.82 0 01-21.4 10.4c-39.1 16.07-85.58 16-127.41.08-36.54-13.84-71.03-39.4-105.26-78.01-4.5-5.03-9.07-10.16-13.47-15.25-34.9-39.54-70.86-80.38-114.61-106.76-24.54-14.9-43.5-28.74-65.28-48-34.68-30.73-47.5-80.77-31.25-121.77 15.52-38.97 52.77-73 102.27-93.14 4.9-1.94 9.79-3.87 14.63-5.64 20.15-7.5 39.19-14.64 52.46-30.78 10.63-12.85 19.2-28.76 27.44-44.2 7.24-13.4 14.68-27.2 23.43-38.98 17.24-23.25 41.17-42 69.12-54.28a183.64 183.64 0 0188.6-14.8c58.48 4.87 117.65 35.13 162.27 83.14 12.63 13.54 24.36 28.32 35.66 42.62 16.95 21.3 34.52 43.43 55.03 61.5 29.87 26.18 67.4 44.58 105.87 51.6 20.36 3.8 36.85 13.36 47.76 27.74 11.95 15.68 10.71 37.2 7.58 52.63-3.03 15.36-9.37 30.3-16.6 47.78l-1.75 4.09c-26.62 63.96-61.37 105.93-103.37 124.83-7.93 3.53-16.04 7.76-23.83 11.8-15.57 8.08-31.86 16.43-48.1 20.8-23.79 6.51-45.25 13-56.04 17.16-5.8 2.16-6.3 7.14-6.75 12.97-.34 2.98-.61 6.07-1.64 8.86-1.04 26.96-22.01 54.42-55.36 73.6zM163.75 215.79c-34.88 20.08-60.8 47.6-73 78.34-15.95 40.24-3.34 89.4 30.74 119.59 21.71 19.15 40.56 33.06 65.03 47.83 44 26.55 80.18 67.55 115.16 107.19 4.5 5.03 8.96 10.23 13.46 15.25 34.1 38.39 68.3 63.69 104.49 77.44 41.42 15.71 87.44 15.75 126 0 44.82-18.32 74.38-50.72 75.3-82.45l.05-.18.05-.17c1.05-2.5 1.32-5.6 1.61-8.4.57-5.9 1.18-11.96 8.02-14.58 10.97-4.1 31.97-10.63 56.22-17.12 16.07-4.4 32.25-12.7 47.7-20.71a624.61 624.61 0 0123.94-11.87c41.5-18.76 75.87-60.36 102.35-123.8l1.76-4.09c7.17-17.31 13.52-32.25 16.5-47.44 3-14.9 4.2-35.97-7.26-51.05-10.61-14.11-26.8-23.4-46.64-27.07-38.81-7.12-76.76-25.7-106.86-52.04-20.69-18.13-38.25-40.25-55.27-61.67-11.3-14.3-22.97-28.97-35.53-42.4-44.17-47.98-102.82-78.1-160.84-82.94-60.13-4.96-121.36 21.79-156 68.24-8.65 11.72-16.15 25.4-23.28 38.74-8.18 15.55-16.86 31.53-27.64 44.62-13.65 16.5-33.8 24-53.28 31.4-4.84 1.76-9.74 3.7-14.63 5.63a217.74 217.74 0 00-28.15 13.71z" fill="url(#paint8_linear)"/><path d="M556.1 640.17a189.61 189.61 0 01-23.74 11.46c-38.24 15.27-83.23 15.23-123.44-.16-35.32-13.51-68.7-38.4-101.61-76-2.5-2.82-5.06-5.74-7.56-8.55-35.18-40.26-71.51-81.76-114.7-109.94-22.7-14.77-37.25-29.1-51.48-42.89-2.35-2.3-4.65-4.5-7-6.81-27.07-26.17-46.4-72.48-28.25-117.06 15.12-37.12 51.24-70.07 98.98-90.22 4.5-1.85 9.17-3.66 13.56-5.46 19.52-7.57 37.92-14.8 50.63-30.9 9.85-12.4 18.08-27.4 25.99-41.9 7.7-14.1 15.83-28.75 25.29-41.08l.77.58-.77-.58c35.64-46 95.14-71.16 155.2-65.58 57.25 5.29 114.98 35.35 158.53 82.51 12.15 13.23 23.7 27.68 34.64 41.6 17.26 21.86 35.08 44.42 56.23 62.58 28.75 24.76 65.75 42.73 104.44 50.64 25.74 5.26 39.56 19.87 46.65 31.17 8.22 13 9.33 30.97 3.28 53.05-3.4 12.66-8.88 25.04-15.26 39.4-1.61 3.57-3.16 7.24-4.82 10.98-25.41 58.43-53.95 95.65-88.94 115.8a147.1 147.1 0 01-11.55 5.9 374.77 374.77 0 00-23.98 12.05c-16.23 8.46-33 17.23-50.11 21.36-10.83 2.57-21 4.76-30.05 6.6-12.3 2.54-22.14 4.54-28.21 6.72-4.67 3.85-5.93 7.51-7.36 11.4-.73 2.04-1.51 4.25-2.86 6.49-1.26 24.02-21.25 48.85-52.5 66.84zM172.3 214.38c-34.44 19.82-60.1 46.75-72.3 76.48-17.8 43.65 1.14 89.3 27.78 114.98 2.36 2.3 4.65 4.5 7 6.81 14.13 13.85 28.72 28.01 51.2 42.62 43.34 28.24 79.8 69.95 115.1 110.15 2.5 2.81 5.05 5.73 7.55 8.54 32.8 37.39 65.82 62.18 100.9 75.54 39.8 15.19 84.23 15.26 122.08.07 44.07-17.6 73.48-47.7 75.12-76.93l-.01-.28.15-.24a39.68 39.68 0 002.82-6.3c1.53-3.97 2.93-8.14 8.15-12.32l.11-.06.11-.06c6.18-2.24 16.13-4.3 28.72-6.86a693.56 693.56 0 0030.05-6.6c16.82-4.12 33.49-12.83 49.6-21.22 7.9-4.1 16.01-8.34 23.99-12.05 39.95-18.15 71.55-56.41 99.46-120.67 1.66-3.74 3.2-7.42 4.82-10.98 6.33-14.2 11.81-26.57 15.17-39.06 5.84-21.67 4.83-38.96-3.02-51.58-6.9-10.98-20.36-25.2-45.4-30.28-38.93-8.07-76.34-26.24-105.27-51.05-21.21-18.27-39.2-40.88-56.53-62.84-10.94-13.92-22.42-28.27-34.57-41.49-43.19-46.79-100.51-76.64-157.3-81.9-59.43-5.5-118.2 19.38-153.54 64.91-9.41 12.16-17.43 26.74-25.13 40.84-8.02 14.58-16.25 29.56-26.15 42.15-13.08 16.46-32.6 24.04-51.51 31.4-4.45 1.68-9.06 3.6-13.56 5.46a271.43 271.43 0 00-25.59 12.82z" fill="url(#paint9_linear)"/><path d="M545.55 627.2a191.2 191.2 0 01-27.07 12.79c-37.37 14.48-80.95 14.36-119.41-.28-34.22-13.13-66.3-37.3-98.03-74.12-8.43-9.8-16.77-20.23-24.87-30.22-26.76-33.53-54.45-68.14-91.3-84.58l-.18-.05-.06-.1c-8.36-8.68-16.5-15.7-23.75-21.94-11.2-9.52-20.85-17.89-27.9-29.36-31.3-21.83-42.39-71.13-25.24-112.35 14.83-35.34 49.64-67.24 95.73-87.46 4.1-1.78 8.38-3.5 12.49-5.29 18.89-7.65 36.78-15 48.98-30.97 8.92-11.73 16.8-25.78 24.32-39.2 8.4-14.93 17.04-30.46 27.5-43.36l.77.58-.78-.58c35.86-44.36 94.35-68.21 152.61-62.19C525.28 24.3 581.7 54.1 624.1 100.3c11.85 12.96 23.03 27.04 33.85 40.74 17.51 22.3 35.7 45.23 57.42 63.64 27.59 23.24 64.12 40.9 102.92 49.77 25.94 5.87 39.06 22.05 45.48 34.48 7 13.7 6.66 31.18-.95 53.58-3.5 10.21-8.52 20.58-13.8 31.52a445.8 445.8 0 00-8.09 17.26 295.79 295.79 0 01-97.44 118.34c-23.21 16.43-50.31 28.66-76.33 34.1-17.64 3.72-34.23 5.94-46.42 7.68-5.7.79-10.78 1.37-14.5 2.04-4.93 3.14-6.6 5.85-8.35 8.91-.99 1.6-1.97 3.19-3.3 4.97-2.08 21.57-20.2 43.28-49.04 59.88zM185.68 449.15c37.27 16.64 65.01 51.36 91.84 85a808.72 808.72 0 0024.8 30.12c31.55 36.48 63.46 60.6 97.26 73.53 38.12 14.55 81.13 14.7 118.11.3 43.89-16.9 72.48-44.35 74.76-71.45l-.01-.28.15-.24a29.94 29.94 0 003.36-4.86c1.97-3.19 3.73-6.25 9.1-9.63l.12-.07.1-.06c3.72-.67 8.91-1.32 14.72-2.17 12.14-1.57 28.74-3.79 46.32-7.6 25.34-5.36 52.94-17.73 75.6-33.85a292.12 292.12 0 0096.86-117.57c2.77-6.13 5.5-11.8 8.1-17.25 5.26-10.95 10.29-21.3 13.74-31.35 7.48-21.89 7.9-38.98 1.04-52.17-6.23-12.09-18.92-27.79-44.24-33.58-39.15-8.97-76.02-26.72-103.73-50.18-21.84-18.34-40.04-41.56-57.67-63.8-10.75-13.59-21.82-27.73-33.67-40.68-42.11-45.94-98.11-75.54-153.57-81.27C411.44 14.35 353.56 38 318.13 81.83c-10.3 12.66-18.94 28.18-27.23 43.06-7.56 13.58-15.44 27.64-24.48 39.43-12.4 16.37-31.4 24.09-49.69 31.53a430.62 430.62 0 00-12.48 5.28c-45.65 19.97-80.2 51.57-94.82 86.5-16.85 40.47-6 88.87 24.78 110.27l.17.05.13.22c6.8 11.31 16.4 19.57 27.59 29.1 7.07 6.18 15.33 13.15 23.58 21.88z" fill="url(#paint10_linear)"/><path d="M716.57 522.91c-19.26 11.09-40.12 19.14-59.7 22.79-28.7 5.38-54.67 5.82-63.47 6.05-5.38 2.37-7.37 4.25-9.57 6.53-1.13 1.1-2.15 2.12-3.79 3.36-3.2 24.98-32.13 50.57-75.6 66.94-36.62 13.75-78.67 13.49-115.44-.51-33.11-12.74-63.96-36.3-94.38-72.11a955.41 955.41 0 01-23.86-29.5c-25.33-32.3-51.58-65.68-86.48-81.78l-.17-.05-.13-.22c-7.03-8.4-13.75-15.23-19.73-21.31-10.35-10.6-19.25-19.69-25.06-31.58-29.28-21.1-39.16-68.3-22.24-107.63 19.72-45.92 66.44-72.66 92.42-84.54 3.83-1.76 7.71-3.4 11.38-4.93 18.3-7.9 35.62-15.23 47.26-31.16 8-11.04 15.38-23.94 22.33-36.29 9.07-16.06 18.46-32.6 29.79-46l.6.53-.6-.53c35.95-42.66 93.5-65.1 150.08-58.68 54.69 6.18 109.66 35.77 150.9 81.2 11.54 12.69 22.42 26.5 32.87 39.82 17.88 22.67 36.27 46.22 58.57 64.6 33.7 27.77 73.79 41.92 101.5 48.83 27.88 6.95 39.67 26.68 44.37 37.9 5.9 14.32 4.17 31.43-5.3 54.17-3.4 8.1-7.7 16.15-12.37 24.85a526.47 526.47 0 00-11.43 22.4c-21.92 46.16-54.68 85.96-94.61 115.1a196.1 196.1 0 01-18.14 11.75zm-127.7 29.1c1.1-.63 2.48-1.28 4.09-2.05l.1-.07.18.05c8.58-.1 34.55-.55 63.36-5.99 25.83-4.76 54.15-17.4 77.66-34.59 39.71-29 72.2-68.5 93.97-114.44a528.82 528.82 0 0111.43-22.4c4.56-8.62 8.91-16.84 12.26-24.77 9.33-22.22 10.97-38.99 5.2-52.81-4.5-10.89-15.98-30.07-43.16-36.83-27.89-6.96-68.25-21.09-102.26-49.13-22.36-18.48-40.92-42.08-58.86-64.86-10.46-13.33-21.33-27.14-32.82-39.72-41.04-45.09-95.6-74.48-149.84-80.63-56.05-6.27-113 15.95-148.63 58.14-11.23 13.34-20.6 29.88-29.63 45.77-7.07 12.41-14.38 25.41-22.49 36.52-11.84 16.34-29.38 23.8-47.9 31.82a405.23 405.23 0 00-11.38 4.94c-25.87 11.8-72.05 38.24-91.63 83.64-16.62 38.57-7.01 85.05 21.78 105.55l.24.15.12.22c5.65 11.85 14.11 20.45 24.76 31.32 5.99 6.07 12.7 12.9 19.74 21.3 35.14 16.26 61.45 49.76 86.95 82.11a998.41 998.41 0 0023.86 29.5c30.3 35.59 60.9 59 93.67 71.63 36.32 13.97 78.02 14.14 114.14.53 43.14-16.18 71.7-41.4 74.47-65.85l.1-.35.32-.19a39.79 39.79 0 003.9-3.41 24 24 0 016.3-5.1z" fill="url(#paint11_linear)"/><path d="M706.81 525.3c-19.48 11.22-40.46 19.05-60.19 22.2-26.82 4.3-51.64 3.93-65.97 2.21-6.21 1.67-8.48 2.83-11.36 4.2-.99.56-2.15 1.09-3.42 1.67-3.86 22.58-31.98 45.5-75.26 61.18-35.75 12.97-76.33 12.73-111.47-.74-31.95-12.24-61.63-35.3-90.8-70.22-7.9-9.38-15.47-19.23-22.92-28.86-25.1-32.43-48.75-63.07-81.58-78.89l-.18-.05-.13-.22a521.3 521.3 0 00-15.19-19.53c-10.12-12.49-18.15-22.37-22.7-35.13-27.36-20.3-35.75-65.42-19.24-102.9 19.13-43.4 64.1-69.87 89.13-81.63a302.3 302.3 0 0110.2-4.69c17.67-7.98 34.4-15.56 45.65-31.4 7.09-10.09 13.68-21.8 20.13-32.98 9.81-17.07 19.92-34.9 32.46-49l.6.53-.6-.53c36.05-40.97 92.6-62.09 147.6-55.36 53.29 6.55 107 36 147.16 80.57 11.25 12.42 21.83 25.96 31.98 39.02 18.14 23.11 36.89 47.04 59.7 65.56 25.68 20.68 59.34 36.9 100.08 47.88 20.8 5.61 36.48 20.62 43.2 41.21 6.2 19.44-2.52 40.43-9.6 54.6-3.1 6.33-6.93 12.64-10.91 19.47-4.81 8.2-9.78 16.62-14.62 26.29-22.22 44.87-53.97 83.65-91.73 111.97a152.05 152.05 0 01-20.02 13.58zm-142.54 29.3l.44-.26c1.5-.71 2.66-1.23 3.76-1.87 3.04-1.6 5.36-2.64 11.86-4.33l.29-.02c14.2 1.78 38.86 2.1 65.68-2.2 26.43-4.22 55.48-17.13 79.62-35.27 37.54-28.2 69.08-66.56 91.2-111.38 4.77-9.78 9.84-18.26 14.6-26.28 4.05-6.72 7.71-13.08 10.81-19.4 6.92-13.95 15.55-34.6 9.45-53.34-3.12-9.5-13.22-32.4-42-40.15-40.99-11.13-74.87-27.24-100.73-48.25-22.99-18.56-41.8-42.6-60-65.82-10.15-13.05-20.84-26.53-31.92-38.91-39.96-44.25-93.27-73.49-146.1-80-54.43-6.77-110.48 14.21-146.16 54.81-12.43 14.04-22.48 31.7-32.3 48.77-6.38 11.3-13.04 22.89-20.24 33.04-11.34 16.2-28.29 23.9-46.3 32.06-3.38 1.51-6.87 3.08-10.19 4.7-24.85 11.8-69.38 38.02-88.37 80.89-16.33 36.8-7.93 81.18 18.83 100.94l.23.16.13.22c4.43 12.54 12.46 22.42 22.52 34.8 4.53 5.6 9.69 12 15.13 19.42 33.08 15.98 57.88 48.14 81.95 79.27 7.38 9.52 15.02 19.48 22.85 28.75 28.94 34.76 58.43 57.5 90.1 69.75 34.62 13.32 74.84 13.47 110.27.7 43-15.66 70.8-38.11 74.17-60.27l.42-.53z" fill="url(#paint12_linear)"/><path d="M697.16 527.64c-19.7 11.33-40.92 19-60.72 21.76-22.8 3.16-43.34 1.06-58.28-.45-3.89-.4-7.32-.77-10.24-1-6.68-.4-9.26.2-12.67 1.15-1.12.35-2.3.59-3.87.9-4.62 20.24-31.82 40.44-74.91 55.42-35 12.24-74.05 11.85-107.34-.93-30.84-11.84-59.33-34.12-87.16-68.21-7.48-9.18-14.81-18.87-21.9-28.13-23.6-31.1-45.87-60.62-76.52-75.94l-.17-.05-.13-.22c-3.58-5.7-7.12-10.84-10.06-15.45-10.35-15.43-17.84-26.66-21-40.8-25.32-19.57-32.4-62.67-16.16-98.1 18.65-40.9 61.84-66.93 85.88-78.86l8.96-4.28c17.16-8.11 33.38-15.83 43.99-31.76 6.07-9.06 11.69-18.89 17.63-29.19 10.63-18.43 21.57-37.61 35.37-52.58 36.04-39.2 91.7-59.08 145.08-51.85 51.95 7.02 104.28 36.09 143.42 79.93 10.96 12.15 21.23 25.43 31.2 38.16 18.38 23.55 37.39 47.92 60.83 66.5 24.46 19.34 56.76 34.74 98.66 46.96 30.33 8.91 39.43 34.14 41.92 44.58 4.8 19.8-4.89 39.88-13.83 55.13a271.06 271.06 0 01-9.8 15.31c-5.6 8.35-11.8 17.93-17.54 28.84-22.68 43.82-53.36 81.4-88.79 108.68a199.6 199.6 0 01-21.85 14.48zm-147.06 20.9l.5-.14c1.68-.38 2.97-.68 4.26-.99 3.48-.83 6.22-1.67 13.14-1.1 2.91.22 6.35.59 10.35.92 14.82 1.58 35.2 3.63 57.88.53 27.14-3.75 56.86-16.76 81.74-35.9 35.2-27.16 65.84-64.56 88.37-108.14 5.66-11.03 12.04-20.56 17.58-29.02a375.74 375.74 0 009.8-15.3c8.78-15.03 18.27-34.7 13.61-54-2.47-10.14-11.37-34.76-40.83-43.44-42.07-12.27-74.55-27.72-99.13-47.26-23.62-18.64-42.69-43.12-61.14-66.78-9.96-12.73-20.24-26-31.19-38.16-38.89-43.4-90.87-72.38-142.47-79.3-52.93-7.2-107.91 12.58-143.64 51.3l-.6-.53.6.53c-13.69 14.91-24.57 33.92-35.21 52.35-5.94 10.3-11.56 20.13-17.74 29.25-10.88 16.23-27.2 24.01-44.7 32.32l-8.96 4.28c-23.82 11.8-66.67 37.64-85.18 78.03-15.93 34.95-8.9 77.2 16 96.27l.23.16.02.28c3.03 13.93 10.52 25.16 20.86 40.59 3.06 4.54 6.43 9.63 10 15.34 30.95 15.6 53.33 45.05 76.89 76.32 7.08 9.26 14.31 19.02 21.9 28.13 27.63 33.76 55.95 55.99 86.45 67.74 32.94 12.69 71.64 12.98 106.31.93 42.92-15.03 69.85-34.92 73.98-54.73l.32-.48z" fill="url(#paint13_linear)"/><path d="M687.69 530.01c-19.92 11.47-41.38 18.98-61.44 21.3-27.74 3.21-52.83-1.69-67.84-4.62l-3.17-.67c-9.2-1.73-11.77-1.87-18.09-1.9-5.22 17.66-31.66 35.37-74.5 49.77-34.14 11.44-71.81 11.15-103.36-1.17-29.63-11.51-57-33.12-83.52-66.2-7.18-8.91-14.1-18.4-20.95-27.5-22.07-29.94-42.94-58.06-71.64-73.05l-.23-.16-.13-.21c-1.4-2.71-2.8-5.13-4.09-7.62-11.2-20.5-18.72-34.05-20.18-50.35-23.3-18.82-29.1-59.73-13.16-93.37 17.15-36.38 54.37-61.32 82.58-75.94 2.6-1.35 5.08-2.63 7.74-3.87 16.57-8.36 32.38-16.29 42.49-32.07 5-7.86 9.7-15.98 14.65-24.7 11.56-20.12 23.54-40.8 38.7-56.7l.6.54-.6-.54c36.15-37.5 90.74-56.17 142.5-48.45 50.61 7.5 101.5 36.37 139.63 79.18 10.71 12 20.63 24.9 30.35 37.47 18.64 24 37.9 48.8 61.91 67.36 29.92 23.22 67.63 36.82 97.13 46.07 32.16 10.06 39.27 39.22 40.75 47.9 3.48 20.56-7.86 40.56-18.07 55.66-2.66 4.03-5.79 8.02-8.9 12.3-6.42 8.68-13.81 18.5-20.17 30.36-23.08 42.88-52.9 79.38-85.97 105.44-7.22 5.77-14.99 11.12-23.02 15.74zm-151.7 12.6l1.19.04c6.49.07 9.17.14 18.43 1.99l3.17.66c15.82 3.06 39.76 7.74 67.39 4.59 27.85-3.28 58.3-16.56 83.8-36.66 32.95-25.99 62.44-62.3 85.48-105 6.47-11.93 13.8-21.86 20.34-30.6 3.1-4.28 6.22-8.28 8.89-12.3 10.05-14.87 21.19-34.47 17.85-54.52-1.35-8.45-8.48-36.88-39.77-46.7-29.67-9.3-67.56-22.95-97.65-46.21-24.07-18.67-43.4-43.59-62.1-67.7-9.66-12.45-19.75-25.4-30.29-37.35-37.88-42.66-88.37-71.33-138.74-78.67-51.35-7.51-105.4 10.84-141.16 47.98-15.12 15.73-27.1 36.4-38.55 56.47-4.95 8.7-9.76 16.9-14.76 24.76-10.32 16.19-26.23 24.17-43.02 32.67-2.49 1.28-5.15 2.52-7.74 3.86-28 14.5-64.99 39.3-81.94 75.28-15.63 33.17-9.91 73.4 13.06 91.67l.23.16-.04.17c1.4 16.19 8.84 29.63 20.06 50.13 1.33 2.32 2.61 4.8 4.07 7.33 28.93 15.14 49.76 43.44 71.93 73.32a790.3 790.3 0 0020.95 27.5c26.39 32.86 53.42 54.37 82.98 65.78 31.25 12.04 68.53 12.42 102.28 1.05 42.84-14.4 68.95-31.91 73.62-49.25l.03-.46z" fill="url(#paint14_linear)"/><path d="M678.37 532.15c-20.14 11.6-41.83 18.95-62.2 21-30.14 2.85-56.35-3.75-73.55-8.94-3.25-1.07-5.74-1.83-8.06-2.55-4.18-1.4-7.19-2.3-11.74-3.35-7.36 19.04-44.23 34.4-74.05 43.93-33.27 10.66-69.53 10.28-99.33-1.28-28.12-10.93-55.1-32.6-79.94-64.32a998.25 998.25 0 01-20.07-26.97c-20.67-28.54-40-55.51-66.68-70.04l-.23-.16-.13-.22c-11.41-24.93-18.28-41.2-17.49-59.67-21.55-18.36-26-56.38-10.26-88.59 16.74-33.8 52.45-58.3 79.46-72.97 2.09-1.2 4.13-2.24 6.29-3.33 16.16-8.57 31.44-16.63 41.04-32.55 3.72-6.25 7.39-12.61 11.37-19.44 12.53-22.01 25.53-44.73 42.57-61.71l.49.6-.49-.6c36.07-35.85 89.72-53.1 140.08-45.02 49.38 7.91 98.84 36.58 135.89 78.55 10.3 11.8 20.2 24.42 29.63 36.72 18.9 24.43 38.4 49.68 62.87 68.27 28.51 21.54 64.32 34.63 95.64 45.02 26.29 8.75 37.73 32.2 39.58 51.2 2.16 21.32-10.83 41.25-22.3 56.2-2.48 3.33-5.3 6.57-8.22 10.16-7.28 8.73-15.52 18.6-22.58 31.01-24.07 42.71-52.03 77.11-83.09 102.31a196 196 0 01-24.5 16.74zm-156.5 4.51l.63.08c4.95.96 8.2 2.02 12.55 3.47 2.2.78 4.7 1.55 7.94 2.6 17.03 5.15 43.06 11.7 72.93 8.87 28.63-2.7 59.91-16.3 85.86-37.4 30.95-25.13 58.76-59.3 82.77-101.83 7.11-12.6 15.46-22.53 22.74-31.26 2.98-3.47 5.63-6.76 8.29-10.04 11.3-14.71 24.1-34.23 22.02-55.16-1.88-18.55-13.01-41.44-38.6-50.01-31.56-10.55-67.48-23.58-96.11-45.33-24.71-18.75-44.28-44.1-63.18-68.54-9.43-12.3-19.21-24.98-29.56-36.6-36.81-41.82-86.04-70.33-135.07-78.15-49.84-7.94-103 9.17-138.68 44.65-17 16.8-29.88 39.46-42.3 61.4-3.99 6.84-7.65 13.2-11.38 19.45-9.86 16.22-25.3 24.52-41.64 33.04-2.15 1.1-4.13 2.23-6.29 3.33-26.79 14.54-62.28 38.92-78.74 72.42-15.54 31.8-11.13 69.25 10.1 87.06l.3.27-.08.34c-.93 18.26 5.99 34.35 17.28 59.06 26.8 14.75 46.3 41.77 66.87 70.37 6.43 8.9 13.06 18.12 20 26.87 24.71 31.48 51.46 53.01 79.34 63.78 29.56 11.4 65.43 11.86 98.42 1.22 42.76-13.77 68.22-28.85 73.32-43.66l.27-.3z" fill="url(#paint15_linear)"/><path d="M669 534.46c-20.35 11.72-42.4 18.99-63 20.6-31.43 2.4-58.64-5.67-76-12.67-4.78-1.94-8.13-3.68-11.23-5.26-3.35-1.74-6.28-3.27-10.29-4.63-6.26 12.54-30.44 25-73.63 38.27-32.97 10.18-66.85 9.61-95.37-1.52-27.01-10.53-52.7-31.5-76.3-62.3-6.59-8.66-12.98-17.73-19.18-26.47-19.1-27.09-37.1-52.77-61.66-66.92l-.23-.15-.13-.22c-9.51-25.44-14.12-42.86-10.7-61.38-19.47-17.51-22.6-53.5-7.26-83.87 12.54-24.8 37.57-48 74.22-69.09.55-.31 1.21-.7 1.76-1 1.54-.9 3.2-1.85 4.74-2.73 15.75-8.78 30.67-17.22 39.8-33.17 2.43-4.18 4.84-8.64 7.43-13.06 13.53-24.34 27.64-49.46 46.88-67.7 36.48-34.63 87.9-50.16 137.5-41.63 47.98 8.28 96.11 36.69 132.15 77.92 10 11.53 19.66 23.99 28.9 35.96 19.15 24.87 38.91 50.56 63.95 69.12 27.53 20.34 62.04 32.7 92.6 43.54l1.62.53c27.13 9.73 37.69 35.45 38.4 54.52.86 22.36-13.74 42.05-26.6 56.62-2.5 2.77-5.13 5.6-7.86 8.49-8.08 8.6-17.19 18.24-24.74 31.08-25.15 42.6-51.35 74.97-80.25 99.07A162.2 162.2 0 01669 534.46zm-161.25-3.74l.59.25a67.83 67.83 0 0111.04 4.93c3.04 1.47 6.45 3.32 11.16 5.14 17.25 7.07 44.23 14.99 75.37 12.6 29.51-2.2 61.52-16.07 87.81-38.09 28.75-23.87 54.85-56.17 79.88-98.7 7.66-12.92 16.82-22.72 25.01-31.4a594.8 594.8 0 007.87-8.48c12.63-14.45 27.14-33.78 26.25-55.69-.75-18.61-11.05-43.89-37.42-53.32l-1.63-.53c-30.62-10.95-65.24-23.25-93-43.75-25.28-18.72-45.1-44.51-64.25-69.39-9.24-11.97-18.73-24.38-28.84-35.85-35.74-40.96-83.64-69.21-131.34-77.51A159.44 159.44 0 00340 82.13c-19.13 18.2-33.13 43.25-46.62 67.42a344.84 344.84 0 01-7.42 13.06c-9.34 16.36-24.43 24.75-40.34 33.76l-4.74 2.73c-37.43 21.25-62.8 44.64-75.5 69.67-15.13 29.95-12.03 65.38 7.17 82.46l.3.26-.09.35c-3.42 18.23 1.06 35.43 10.5 60.76 24.68 14.37 42.68 40.05 61.85 67.25 6.2 8.74 12.48 17.87 19.12 26.35 23.36 30.66 48.81 51.46 75.76 61.89 28.29 10.97 61.82 11.45 94.45 1.46 43.48-13.3 67.43-25.91 73.14-38.14l.18-.69z" fill="url(#paint16_linear)"/><path d="M659.7 536.6c-20.7 11.9-42.87 18.95-63.95 20.25-35.89 2.04-64.6-9.41-78.5-16.5-5.33-2.65-9.01-5.22-12.73-7.62-3.32-2.2-6.46-4.34-10.5-6.27-8.26 12.38-40.06 23.06-73.34 32.69-32.1 9.39-64.56 8.73-91.33-1.64-26.08-10.2-50.48-30.44-72.71-60.42-6.36-8.5-12.34-17.36-18.2-26-17.6-25.77-34.1-50.11-56.53-63.87l-.23-.16-.13-.22c-8.5-28.51-9.56-45.63-3.86-62.97-17.43-16.78-19.25-50.75-4.24-79.16 12.45-23.42 36.3-45.36 72.9-67.3l2.97-1.7c15.4-9.16 29.9-17.8 38.73-34.02l2.78-5.11c14-26.08 30.02-55.52 51.94-75.46a158.76 158.76 0 01134.9-38.23c47.28 8.84 92.87 36.37 128.43 77.29 9.76 11.37 19.06 23.45 28.06 35.27 19.34 25.2 39.25 51.4 65.02 69.96 24.42 17.74 53.67 28.6 81.99 39.11l10.82 4.03c28.03 10.53 37.6 37.84 37.23 57.83-.38 23.51-16.77 42.9-30.95 57.22-2.41 2.41-4.94 4.9-7.64 7.33-8.84 8.31-18.75 17.82-26.8 30.8-16.57 26.97-42.77 66.22-77.33 95.78a170.34 170.34 0 01-26.8 19.1zm-166.06-11.82l.58.25a68.09 68.09 0 0111.14 6.63c3.55 2.35 7.34 4.86 12.56 7.57 13.84 6.98 42.2 18.34 77.8 16.31 30.34-1.78 63.13-15.82 89.88-38.83 34.45-29.5 60.54-68.68 77.05-95.47 8.1-13.16 18.19-22.63 26.97-31.05 2.63-2.54 5.23-4.91 7.64-7.33 14.03-14.07 30.08-33.28 30.5-56.22.27-19.64-9.03-46.23-36.37-56.57-3.55-1.33-7.16-2.77-10.81-4.03-28.32-10.52-57.63-21.48-82.23-39.27-25.84-18.68-45.92-44.92-65.21-70.3-9-11.81-18.3-23.9-28-35.16-35.32-40.76-80.6-68.02-127.6-76.87-47.62-8.93-97.65 5.21-133.79 37.88l-.42-.5.42.5c-21.76 19.7-37.68 49.08-51.63 74.98l-2.77 5.11c-8.93 16.56-23.66 25.34-39.16 34.55l-2.97 1.7c-36.44 21.71-60.01 43.63-72.3 66.82-14.8 28-12.95 61.5 4.22 77.85l.3.27-.1.34c-5.65 17.17-4.71 34.07 3.66 62.36 22.48 13.87 39.16 38.26 56.83 64.13a909.43 909.43 0 0018.2 26.01c22.04 29.65 46.26 49.85 72.1 59.88 26.6 10.33 58.72 10.9 90.49 1.7 33.39-9.7 65.3-20.44 72.77-32.66l.25-.58z" fill="url(#paint17_linear)"/><path d="M650.55 538.79c-20.91 12.03-43.43 18.98-64.88 19.9-39.73 1.47-69.8-13.6-80.93-20.23-5.71-3.3-9.83-6.64-13.72-9.83-3.58-2.92-6.87-5.57-11.11-8.1-8.78 9.44-38.5 17.6-72.87 27.13-31.24 8.6-62.28 7.86-87.37-1.88-24.97-9.8-48.14-29.42-69.06-58.4-6.01-8.41-11.76-17.12-17.38-25.6-16.04-24.32-31.21-47.38-51.44-60.64l-.24-.16-.02-.28c-6.37-28.13-5.6-46.89 2.92-64.68-15.21-16-15.83-47.87-1.23-74.44 15.42-27.92 45.24-49.18 69.43-64.42l.99-.57c15.14-9.6 29.46-18.57 37.93-35.16 15.04-29.61 31.74-60.17 55.19-80.26l.43.49-.43-.49c36.22-31.24 85.74-44.22 132.38-34.72 45.93 9.3 90.13 36.47 124.68 76.65a723.77 723.77 0 0127.4 34.63c19.48 25.7 39.76 52.27 65.99 70.87 22.19 15.65 48.32 25.67 73.51 35.34a557.03 557.03 0 0117.76 6.92c27.03 10.82 37.59 38.58 35.95 61.2-1.71 25.02-20.85 44.97-35.18 57.75a733.15 733.15 0 01-7.63 6.6c-9.49 7.95-20.1 16.99-28.56 30.05-21.06 32.64-44.57 66.38-74.43 92.65a209.54 209.54 0 01-28.08 19.68zm-170.96-19.84l.47.31c4.48 2.7 8 5.5 11.76 8.47a108.3 108.3 0 0013.55 9.79c10.96 6.58 40.85 21.6 80.24 20.03 31.2-1.26 64.73-15.56 92-39.46 29.8-26.1 53.31-59.84 74.27-92.41 8.5-13.24 19.33-22.4 28.82-30.36 2.66-2.26 5.2-4.46 7.53-6.53 14.1-12.65 33.08-32.37 34.66-56.86 1.54-22.28-8.75-49.32-35.26-60a557.03 557.03 0 00-17.75-6.92c-25.37-9.72-51.5-19.73-73.75-35.5-26.41-18.64-46.64-45.38-66.23-71.02-8.8-11.49-17.87-23.42-27.33-34.52-34.32-40.03-78.34-67.14-123.94-76.35-46.28-9.4-95.41 3.49-131.37 34.43-23.23 19.97-39.81 50.46-54.81 79.9-8.63 16.83-23 25.97-38.41 35.58l-1 .57c-24.08 15.18-53.73 36.2-69.05 64.06-14.5 26.22-13.86 57.64 1.28 73.25l.3.26-.2.41c-8.47 17.62-9.37 36.16-3.02 64 20.47 13.42 35.64 36.48 51.75 60.9 5.62 8.5 11.36 17.2 17.37 25.6 20.8 28.77 43.79 48.35 68.53 58 24.8 9.74 55.61 10.33 86.63 1.85 34.65-9.54 64.66-17.72 72.58-27.12l.38-.36z" fill="url(#paint18_linear)"/><path d="M641.4 540.97c-21.13 12.16-43.99 19.02-65.97 19.51-41.93.98-72.3-16.4-83.38-23.95-5.98-4.03-10.37-8.1-14.7-12.05a112.6 112.6 0 00-11.9-10c-7.2 5.32-25.25 9.85-50.32 15.92-7.06 1.73-14.35 3.58-22.14 5.57-21.47 5.47-53.47 9.68-83.4-2.1-23.88-9.42-45.92-28.37-65.42-56.41-5.78-8.25-11.24-16.98-16.62-25.3-14.48-22.88-28.26-44.54-46.48-57.35l-.23-.16-.02-.28c-4.45-28.35-1.52-48.2 9.7-66.38-13.18-15.27-12.48-45.12 1.77-69.73 14.3-24.79 40.19-44.22 66.25-61.56 13.73-9.23 27.91-18.7 36.13-35.74 12.67-26.34 30.3-59.34 55.49-79.99 36.04-29.53 84.56-41.19 129.9-31.39 44.54 9.68 87.47 36.68 120.89 75.9 9.34 10.9 18.1 22.55 26.67 33.88 19.74 26.15 40.09 53.11 67 71.61 20.15 13.9 43.79 23.15 66.67 32.1 8.09 3.1 15.66 6.08 23.07 9.29 27.7 11.74 37.42 41.6 34.78 64.5-2.35 20.11-14.86 38.6-39.41 58.3a178.68 178.68 0 01-7.74 5.9c-10.02 7.53-21.46 16.17-30.3 29.31-20.1 29.74-42.87 63.5-71.6 89.41a154.06 154.06 0 01-28.69 21.2zm-176.03-27.9l.3.27c4.8 3.24 8.52 6.66 12.44 10.41 4.26 3.85 8.65 7.92 14.52 12 11.02 7.44 41.15 24.67 82.68 23.77 32.27-.7 66.45-15.38 94.06-40.2 28.63-25.86 51.46-59.51 71.45-89.18 8.95-13.21 20.4-21.84 30.46-29.54 2.68-1.98 5.24-3.9 7.74-5.92 24.22-19.5 36.69-37.81 39-57.46 2.61-22.45-6.96-51.81-34.08-63.3-7.52-3.15-15.1-6.12-23.07-9.29-22.88-8.95-46.63-18.14-67.02-32.2-26.97-18.6-47.39-45.68-67.3-71.87-8.57-11.33-17.33-22.99-26.67-33.87-33.35-39.12-76.05-65.97-120.24-75.55-44.95-9.88-93.19 1.77-128.9 31.1l-.42-.48.43.49c-24.97 20.52-42.62 53.24-55.18 79.51-8.27 17.21-22.6 26.92-36.51 36.1-25.84 17.22-51.6 36.59-65.87 61.2-14.1 24.38-14.7 53.88-1.66 68.64l.3.27.08.4c-11.24 17.89-14.23 37.63-9.8 65.7 18.28 12.92 32.06 34.58 46.6 57.56a611.28 611.28 0 0016.62 25.3c19.38 27.82 41.25 46.73 64.89 55.98 29.69 11.63 61.3 7.5 82.6 1.99 7.78-2 15.07-3.84 22.13-5.56 24.4-5.99 43.52-10.7 50.26-16.03l.16-.24z" fill="url(#paint19_linear)"/><path d="M632.26 543.16c-21.35 12.29-44.56 19.05-67.02 19.23-43.78.3-74.61-19.17-85.8-27.68-6.2-4.64-10.92-9.54-15.52-14.22-4.17-4.2-8-8.29-12.87-11.93-5.38 2.36-16.18 4.48-30.9 7.39-11.48 2.2-25.71 4.97-41.2 8.61-20.87 4.98-51.6 8.6-79.37-2.23-22.77-9.01-43.58-27.36-61.84-54.5-5.49-8.27-10.78-16.95-15.87-25.3-12.92-21.42-25.14-41.64-41.27-53.9l-.24-.15-.02-.28c-2.65-28.8 2.44-49.75 16.49-68.09-11.21-14.65-9.28-41.83 4.67-64.95 14.88-24.54 42.62-44.3 62.88-58.75 13.92-9.92 26.05-19.39 33.23-35.68 16.64-37.26 34.91-63.3 55.97-79.67 35.74-27.75 83.3-38.28 127.37-27.9C523.98 63.28 565.6 90.03 598 128.5c9.04 10.62 17.63 22.23 26 33.23 19.93 26.48 40.54 53.88 67.9 72.42 18.6 12.44 40.09 21.03 60.98 29.07 9.5 3.77 18.57 7.33 27.39 11.2 28.56 12.71 37.4 44.1 33.61 67.82-4.2 26.3-21.28 49.31-43.76 58.88-14.6 6.2-28.8 18.18-39.66 33.67-2.42 3.44-4.88 7.05-7.4 10.56-18.48 26.45-37.64 53.74-61.32 75.72a149.34 149.34 0 01-29.48 22.09zM181.63 387.89c16.2 12.37 28.49 32.7 41.4 54.12 5.1 8.35 10.21 16.98 15.81 25.18 18.02 26.99 38.71 45.11 61.3 54.09 27.5 10.84 57.94 7.24 78.64 2.21 15.42-3.75 29.71-6.4 41.19-8.61 15.01-2.93 25.87-4.93 31.01-7.45l.33-.2.24.16c5 3.86 9 8 13.24 12.31 4.6 4.68 9.26 9.47 15.44 14.11 11.13 8.4 41.62 27.77 85.12 27.5 33.15-.19 68.23-15.1 96.12-40.97 23.63-21.8 42.69-49.03 61.16-75.48 2.52-3.5 4.99-7.12 7.4-10.56 11.09-15.61 25.34-27.77 40.15-34.1 22.04-9.3 38.96-32.09 43.07-58.04 3.7-23.37-5.05-54.08-33.02-66.55a533.78 533.78 0 00-27.4-11.2c-20.84-8.21-42.55-16.67-61.2-29.22-27.55-18.58-48.22-46.1-68.2-72.68-8.28-11.07-16.97-22.61-26.01-33.23C565.13 91 523.75 64.42 480.9 54.37c-43.72-10.3-90.96.04-126.48 27.66l-.36-.38.36.38c-20.83 16.24-39.06 42.1-55.65 79.2-7.4 16.42-19.58 26.06-33.61 36.05-20.15 14.37-47.78 34.08-62.57 58.27-13.7 22.53-15.61 50-4.5 63.97l.2.33-.27.3c-13.88 18.4-19.03 39.23-16.4 67.74z" fill="url(#paint20_linear)"/><path d="M623.67 545.03c-21.8 12.54-45.79 19.46-68.5 19.2-32.1-.28-64.34-11.75-88.25-31.4-6.46-5.37-11.56-10.93-16.32-16.4-4.44-4.9-8.58-9.56-13.73-13.92-3.32.6-8.3 1.11-14.62 1.82-13.51 1.48-33.87 3.53-57.11 8.7-29.55 6.45-54.9 5.66-75.4-2.46-21.84-8.68-41.36-26.3-58.2-52.5a573.86 573.86 0 01-15.13-25.29c-11.4-19.8-22.17-38.51-36.12-50.27l-.23-.15-.02-.29c-.92-29.35 6.47-51.63 23.33-69.68-9-13.87-5.93-39.07 7.68-60.23 13.18-20.63 35.62-37.65 55.39-52.68l4.2-3.15c14.15-10.79 24.21-20.53 30.5-35.58 10.32-24.83 28.47-58.72 56.33-79.3 35.39-26.07 82.12-35.24 124.78-24.49 41.63 10.47 81.81 37.01 113.31 74.7 8.8 10.46 17.2 21.75 25.35 32.59 20.07 26.98 40.93 54.82 68.9 73.15 17.16 11.22 36.9 19.05 56.06 26.63 10.77 4.2 21.02 8.27 30.85 12.87 28.07 13.14 37.54 45.64 32.44 71.13-5.43 26.72-24.15 49.94-47.89 59.35-16.01 6.29-30.7 17.67-41.5 32.24a796.1 796.1 0 00-13.8 19.07c-15.93 22.2-32.38 45.3-52.1 63.98a168.44 168.44 0 01-30.2 22.36zm-442.51-163.3c14 11.86 24.77 30.56 36.17 50.37a574.83 574.83 0 0015.14 25.28c16.7 25.99 36.05 43.57 57.66 52.08 20.26 7.97 45.4 8.89 74.77 2.39 23.3-5.06 43.71-7.29 57.28-8.65 6.5-.67 11.59-1.25 14.8-1.78l.28-.01.24.15c5.21 4.48 9.53 9.17 14.03 14.2 4.87 5.4 9.8 10.91 16.2 16.17 23.72 19.6 55.73 30.92 87.54 31.22 33.76.35 70.5-15.23 98.19-41.71 19.66-18.79 36.06-41.7 52-63.91 4.57-6.3 9.14-12.88 13.78-19.07 10.8-14.57 25.65-26.2 41.95-32.5 23.4-9.22 41.97-32.2 47.3-58.57 4.97-24.98-4.36-56.97-31.91-69.97-9.83-4.6-19.9-8.62-30.67-12.82-19.16-7.58-39.01-15.35-56.23-26.68-28.1-18.55-48.97-46.4-69.21-73.42-8.14-10.84-16.54-22.12-25.24-32.65C563.86 94.38 523.91 68 482.4 57.46c-42.5-10.7-88.83-1.61-124 24.34l-.25-.44.25.44c-27.75 20.51-45.75 54.16-56.02 78.82-6.33 15.22-16.44 25.14-30.82 36.05l-4.2 3.15c-19.65 14.97-41.98 31.93-55.11 52.38-13.45 20.92-16.59 46.02-7.44 59.37l.19.32-.27.3c-16.95 18.4-24.37 40.4-23.57 69.53z" fill="url(#paint21_linear)"/><path d="M614.63 547.15c-22 12.67-46.35 19.5-69.7 18.88-33.27-.78-66.39-13.52-90.7-35.13-6.66-5.98-12.03-12.26-17.17-18.39-4.7-5.64-9.23-10.95-14.65-16.04a284.72 284.72 0 00-71.44 4.93c-29.07 5.75-52.44 4.84-71.26-2.65-20.8-8.39-39.2-25.34-54.55-50.5a568.22 568.22 0 01-14.47-25.65c-9.71-18.15-19.03-35.35-30.82-46.43l-.13-.22.05-.18c.85-30.08 10.68-53.47 30.22-71.45-6.9-13.02-2.4-36.26 10.57-55.45 11.68-17.13 30.43-32.16 47-45.37 3.2-2.57 6.41-5.15 9.4-7.6 10.63-8.76 21.3-19 27.6-35.52 7.65-20.07 25.22-57 56.81-78.98 35.14-24.48 80.76-32.27 122.37-21.06 40.12 10.9 79.15 37.23 109.58 74.07 8.56 10.3 16.66 21.32 24.57 32 20.26 27.31 41.26 55.66 69.8 73.95 15.96 10.16 34.19 17.4 51.88 24.21 11.29 4.34 22.94 9.06 33.54 14.25 28.82 14.18 37.52 48.14 31.21 74.33-6.49 27.17-26.95 50.67-52.18 59.77-12.37 4.48-29.93 13.42-43.25 30.75a748.83 748.83 0 00-18.45 24.97c-13.67 19-27.88 38.61-44.51 54.77a157.79 157.79 0 01-31.32 23.74zM180.75 375.66c11.86 11.2 21.17 28.4 30.88 46.54 4.6 8.49 9.31 17.2 14.41 25.55 15.3 25.04 33.52 41.95 54.08 50.18 18.81 7.49 41.84 8.3 70.8 2.62 33.8-6.7 61.41-5.3 71.79-4.83l.17.04.07.11c5.59 5.14 10.1 10.45 14.88 16.2 5.14 6.12 10.34 12.36 17 18.34 24.18 21.4 57.01 34.14 90.1 34.88 34.86.74 72.39-15 100.2-42.28 16.57-16.27 30.66-35.82 44.4-54.71 6.06-8.32 12.31-17.05 18.56-25.04 13.54-17.46 31.32-26.52 43.69-31 24.95-9.08 45.14-32.28 51.54-59.1 6.22-25.85-2.45-59.25-30.75-73.29-10.6-5.18-21.67-9.65-33.48-14.13-17.75-6.93-35.98-14.16-51.94-24.32-28.72-18.34-49.72-46.69-70.04-74.1a862.6 862.6 0 00-24.57-32.01c-30.37-36.73-69.16-62.9-109.1-73.75-41.27-11.12-86.6-3.35-121.53 21l-.25-.44.25.44c-31.37 21.86-48.78 58.55-56.42 78.62-6.44 16.3-17.15 26.72-27.9 35.54a1202.7 1202.7 0 01-9.4 7.6c-16.46 13.14-35.09 28.11-46.66 45.17-13.05 19.08-17.38 42.1-10.38 54.76l.19.33-.27.3c-19.67 17.77-29.52 40.87-30.32 70.78z" fill="url(#paint22_linear)"/><path d="M605.66 549.38c-22.23 12.8-46.98 19.42-70.86 18.66-34.43-1.28-68.37-15.44-93.12-38.85-6.98-6.53-12.51-13.6-17.92-20.45-4.98-6.36-9.77-12.4-15.5-18.03-14.1-3.61-41.08-5.96-71.15-.67-19.53 3.48-44.8 6.15-67.29-2.88-19.46-7.85-37.06-24.68-50.97-48.6-5-8.7-9.4-17.6-13.77-26.21-8.24-16.36-15.86-31.9-25.63-42.25l-.12-.22.04-.17c2.46-30.86 14.95-55.48 37.01-73.16-4.76-12.35.78-33.26 13.58-50.74 10.21-14.08 25.07-26.44 39.34-38.31 4.82-4.1 9.37-7.89 13.76-11.73 12.6-11.2 20.1-21.83 24.82-35.53 11.83-33.91 32.68-62.6 57.1-78.71 34.61-22.85 79.44-29.46 119.78-17.66 38.72 11.27 76.25 37.28 105.85 73.43 8.33 10.15 16.3 20.94 23.97 31.47 20.5 27.75 41.6 56.5 70.81 74.69 14.82 9.2 31.82 15.82 48.06 22.15 12.05 4.64 24.57 9.6 35.77 15.31 13.55 7 23.46 18.88 28.69 34.33a76.43 76.43 0 011.4 43.43c-7.53 27.63-29.63 51.34-56.41 60.3-19.75 6.68-34.5 16.19-45.16 29.21-7.49 9.15-14.9 19.42-22 29.22-11.85 16.34-24.11 33.21-38.18 47.46a151.57 151.57 0 01-31.9 24.51zm-425.39-179.9c9.72 10.53 17.45 26 25.7 42.36 4.37 8.62 8.82 17.63 13.76 26.21 9.56 16.62 26.02 38.35 50.43 48.18 22.32 8.99 47.52 6.2 66.84 2.85 30.24-5.24 57.5-2.91 71.6.7l.17.04.06.11c5.8 5.75 10.9 12.05 15.75 18.2 5.34 6.73 10.87 13.8 17.85 20.33 24.52 23.25 58.28 37.37 92.54 38.6 36.09 1.36 74.28-14.76 102.26-43.02 13.95-14.19 26.22-31.06 38.06-47.4 7.1-9.8 14.52-20.07 22-29.22 10.79-13.09 25.69-22.83 45.54-29.57 26.39-8.89 48.33-32.36 55.89-59.7 7.11-26.08-.84-61.79-29.58-76.6-11.2-5.71-23.66-10.56-35.66-15.37-16.41-6.38-33.4-13-48.29-22.31-29.29-18.3-50.48-46.99-71.05-74.85-7.67-10.53-15.64-21.32-23.91-31.36-29.47-35.93-66.83-61.9-105.37-73.12-40.1-11.64-84.54-5.1-119 17.5l-.25-.44.25.44c-24.31 16.05-45.1 44.57-56.79 78.25-4.82 13.76-12.38 24.56-25.08 35.83-4.28 3.77-8.94 7.63-13.76 11.72-14.27 11.88-28.96 24.28-39.23 38.25-12.8 17.48-18.18 38.16-13.26 50.27l.19.33-.34.19c-22.29 17.52-34.74 41.97-37.32 72.6z" fill="url(#paint23_linear)"/><path d="M596.8 551.55c-22.45 12.92-47.66 19.52-72.14 18.22-35.6-1.78-70.3-17.26-95.55-42.57-7.2-7.15-13-14.94-18.6-22.4-5.07-6.76-10.32-13.85-16.43-20.15-13.2-5.88-39.55-10.93-70.85-6.25-21.03 3.17-43.39 5.05-63.32-3.11-23.48-9.5-38.71-30.61-47.33-46.6-4.9-9.05-9.1-18.36-13.2-27.27-6.53-14.41-12.73-27.98-20.35-37.66l-.07-.11.05-.17c4.17-31.7 19.32-57.56 43.96-74.82-2.55-11.57 4.2-30.4 16.41-46.07 8.79-11.21 20.8-21.64 32.44-31.71a395.72 395.72 0 0017.4-15.58c10.83-10.48 17.58-21.4 22-35.37 10.45-33.26 31.93-62.62 57.57-78.4 34.26-21.18 78.09-26.48 117.2-14.26 37.2 11.7 73.41 37.44 102.04 72.68 8.03 9.88 15.76 20.52 23.3 30.83 20.66 28.25 41.94 57.33 71.66 75.38 13.92 8.4 29.58 14.48 44.83 20.35 12.74 4.83 25.95 9.97 37.64 16.28 29.85 16.23 37.11 53.8 28.86 80.96-9.65 31.34-38.22 50.42-60.54 60.77-3.1 1.5-6.32 2.76-9.7 4.27-13.15 5.66-26.8 11.47-37.3 23.52-8.53 9.88-16.68 21.17-24.57 32.15-10.15 14.2-20.78 28.81-32.8 41.29a142.88 142.88 0 01-32.6 25.8zM179.86 363.43c7.62 9.67 13.82 23.25 20.35 37.65 4.1 8.92 8.3 18.23 13.2 27.27 8.56 15.88 23.73 36.9 46.86 46.29 19.8 7.94 41.94 6.19 62.98 3.02 31.4-4.74 58.1.4 71.36 6.4l.17.04c6.18 6.4 11.43 13.5 16.67 20.3 5.6 7.46 11.41 15.26 18.6 22.4a145.98 145.98 0 0094.97 42.33c37.26 1.85 76.34-14.49 104.32-43.77 11.9-12.42 22.53-27.04 32.68-41.23 7.89-10.98 16.04-22.27 24.56-32.15 10.55-12.23 24.93-18.3 37.57-23.82 3.38-1.5 6.6-2.78 9.6-4.2 22.14-10.4 50.56-29.25 60.16-60.41 8.16-26.82 1.04-63.89-28.46-80.02-11.7-6.31-24.84-11.34-37.47-16.23-15.25-5.88-31.02-11.9-45-20.4-29.9-18.1-51.3-47.4-71.95-75.65-7.55-10.3-15.22-20.83-23.31-30.82-28.57-35.13-64.6-60.84-101.64-72.49-38.93-12.16-82.6-6.82-116.51 14.17l-.2-.33.2.33c-25.36 15.77-46.86 44.84-57.27 77.93-4.46 14.14-11.26 25.24-22.19 35.77a396.25 396.25 0 01-17.4 15.59c-11.53 10-23.61 20.32-32.29 31.47-14.29 18.18-18.45 36.4-16.2 45.66l.01.28-.22.13c-24.75 17.32-39.85 43-44.15 74.49z" fill="url(#paint24_linear)"/><path d="M588.2 553.42c-22.77 13.11-48.94 19.82-73.72 18.26-36.6-2.23-72.29-19.2-98-46.3-6.3-6.63-11.17-14.08-15.86-21.2-6.3-9.42-12.16-18.34-20.83-25.51-10.82-8.87-36.78-16.05-70.55-11.85-19.93 2.53-40.93 4.22-59.29-3.24-22.2-9.05-36.08-29.34-43.75-44.7-4.77-9.56-8.7-19.46-12.56-28.96-4.87-12.28-9.47-23.85-15.15-32.44l-.07-.11.05-.18c6.09-32.95 23.54-59.4 50.75-76.52-.19-8.98 5.68-25.25 19.41-41.36 7.35-8.62 16.87-17.03 26-25.07 7.47-6.64 14.55-12.91 20.55-19.3 9.26-9.87 15.01-20.5 19.2-35.36 9.32-33.2 31.04-62.4 57.94-78.03l.33-.19c33.68-19.38 76.4-23.3 114.34-10.57 36.26 12.1 70.26 37.06 98.3 72.05 7.8 9.73 15.41 20.15 22.65 30.19 20.74 28.65 42.33 58.27 72.67 76.11 13.08 7.71 27.68 13.23 41.87 18.54 13.26 4.96 27 10.25 39.11 17.05 30.54 17.43 37.15 56.4 27.7 84.26-8.68 25.65-31.69 47.54-64.78 61.31-3.28 1.44-6.67 2.67-10.3 4.02-13.57 5.17-27.76 10.55-38.56 22.34-9.35 10.21-17.91 22.32-26.27 34.02-8.83 12.4-17.93 25.1-28.15 36.12a133.88 133.88 0 01-33.02 26.62zM179.5 357.2c5.56 8.66 10.17 20.22 15.04 32.5 3.86 9.5 7.73 19.3 12.5 28.85 7.6 15.26 21.24 35.4 43.27 44.4 18.18 7.4 39.12 5.6 58.94 3.14 33.88-4.26 60.2 3.01 71.07 11.99 8.67 7.17 14.71 16.14 20.9 25.62 4.75 7.23 9.67 14.5 15.8 21.09 25.53 27.06 60.99 43.86 97.4 46.05 37.97 2.32 78.73-14.68 106.45-44.4 10.22-11.02 19.31-23.72 28.14-36.13 8.36-11.7 16.92-23.8 26.39-34.08 10.85-11.96 25.03-17.34 38.78-22.47 3.62-1.35 6.96-2.68 10.18-3.95 19.1-8.06 52.82-26.6 64.4-60.95 9.3-27.62 2.84-66.09-27.3-83.32-12-6.86-25.67-12.03-38.93-17-14.25-5.42-28.86-10.94-42.04-18.58-30.52-17.9-52-47.58-72.8-76.34a753.32 753.32 0 00-22.64-30.18c-27.98-34.88-61.92-59.74-98.01-71.79-37.77-12.69-80.32-8.72-113.77 10.54l-.33.19-.2-.33.2.33c-26.8 15.56-48.36 44.53-57.63 77.55-4.24 15.04-9.98 25.67-19.36 35.6-6 6.39-13.08 12.66-20.54 19.3-9.14 8.05-18.55 16.39-25.9 25.01-13.72 16.1-19.55 32.2-19.14 41.05l-.05.18-.22.13c-27.16 16.95-44.67 43.29-50.6 76z" fill="url(#paint25_linear)"/><path d="M579.35 555.59c-23 13.24-49.52 19.85-75.06 18-37.65-2.8-74.2-21.02-100.31-50.1-6.58-7.35-12-15.5-17.13-23.4-6.5-10.02-12.63-19.4-21.35-27.41-11.67-10.87-37.9-20.53-70.25-17.44l-.85.05c-17.47 1.7-37.22 3.54-54.47-3.52-16.5-6.77-30.64-21.92-40-42.76-4.7-10.48-8.23-21.2-11.68-31.51-3.3-9.82-6.3-19.09-9.9-26.39l-.07-.1.04-.18c7.71-33.44 27.88-61.02 56.94-77.74l.77-.44c1.6-7.66 8.39-21.83 22.25-36.69 5.78-6.25 12.86-12.53 19.72-18.68 8.33-7.42 16.98-15.04 23.46-22.87 9.58-11.37 13.52-23.6 16.42-35.38 8.08-32.78 30.34-62.58 58.4-77.71 33.2-17.93 75.07-20.78 112.2-7.43 34.69 12.41 67.36 37.12 94.57 71.42 7.56 9.56 14.93 19.83 22.05 29.65 20.99 29.09 42.55 59.16 73.56 76.91 12.25 7.02 26.03 12.13 39.23 16.99 13.78 5.1 27.9 10.3 40.23 17.72 13.85 8.29 24.05 22.2 28.58 39.22 4.22 15.74 3.48 33.3-2.06 48.36-13.3 36.21-48.97 54.4-69.01 61.84-3.51 1.28-7.09 2.46-10.88 3.76-14 4.7-28.62 9.59-39.72 21.1-10.03 10.32-18.84 23-27.34 35.22-7.56 10.8-15.43 22.07-24.19 31.8a138.12 138.12 0 01-34.15 27.71zM179.02 351.02c3.61 7.3 6.71 16.5 9.9 26.38 3.46 10.32 6.98 21.03 11.7 31.5 9.33 20.56 23.41 35.61 39.62 42.4 17.08 7.01 36.76 5.06 54.13 3.42l.85-.05c32.46-3.15 58.92 6.67 70.77 17.58 8.6 8.09 15.16 17.94 21.4 27.53 5.13 7.89 10.5 15.94 17.07 23.29 25.98 28.85 62.37 47.02 99.85 49.77 39.36 2.99 80.95-14.36 108.5-45.15 8.76-9.73 16.52-20.94 24.19-31.8 8.5-12.21 17.37-24.79 27.45-35.28 11.21-11.58 25.83-16.47 39.94-21.22 3.8-1.3 7.36-2.48 10.87-3.77 19.98-7.54 55.5-25.5 68.64-61.48 10.4-28.25 4.7-68.19-26.3-86.68-12.26-7.3-26.39-12.5-40.17-17.6-13.26-4.98-27.04-10.09-39.4-17.04-31.12-17.69-52.74-47.87-73.8-77.07-7.11-9.82-14.48-20.09-22.04-29.65-27.15-34.2-59.76-58.79-94.27-71.16-36.96-13.3-78.61-10.57-111.63 7.4-27.78 15.11-50.06 44.63-58.04 77.35-2.89 11.78-6.88 24.18-16.56 35.62-6.66 7.78-15.25 15.5-23.57 22.94-6.76 6.08-13.84 12.35-19.68 18.5-13.86 14.86-20.65 29.02-22.2 36.51l-.05.17-.11.07-.88.5c-28.5 16.4-48.52 43.75-56.18 77.02z" fill="url(#paint26_linear)"/><path d="M570.55 557.87c-23.22 13.36-50.15 19.78-76.44 17.62-38.64-3.25-76.03-22.9-102.7-53.7-7.01-8.13-12.7-17-18.28-25.67-6.5-10.03-13.2-20.39-21.68-29.27-11.56-11.95-36.91-25.2-69.95-23.04-1.53.15-2.94.23-4.54.27-15.8 1.04-32 2.16-46.81-3.97-21-8.72-31.81-29.3-36.35-40.76-4.8-11.89-7.86-24.34-10.55-35.38-1.77-6.9-3.35-13.46-5.21-18.98l-.06-.11.04-.18c9.66-35.15 32.63-63.45 64.49-79.88 4.52-9.2 14-21.25 25.26-31.97 4.14-4 8.63-7.9 13.4-12.11 9.62-8.47 19.7-17.2 26.6-26.59 7.96-10.59 10.92-22.25 13.5-35.32C328.12 125.9 350.72 96.2 380 81.4c32.6-16.42 73.64-17.92 109.67-3.93 33.11 12.73 64.53 37.29 90.84 70.78a858.85 858.85 0 0121.38 29.01c21.07 29.48 42.94 60.11 74.4 77.6 11.58 6.38 24.37 11.04 36.8 15.6 14.07 5.09 28.65 10.32 41.12 18.23 14 8.8 24.12 23.33 28.5 40.88a83.54 83.54 0 01-3.21 49.9c-10.9 27.66-37.66 50.4-73.25 62.38a253.88 253.88 0 01-11.57 3.58c-14.42 4.2-29.3 8.65-40.87 19.85-10.49 10.29-19.34 23.15-27.94 35.72-6.49 9.6-13.3 19.38-20.76 28.06-9.67 11.72-21.56 21.35-34.55 28.82zM178.61 344.95c1.85 5.53 3.37 11.98 5.14 18.87 2.8 10.99 5.87 23.44 10.6 35.22 4.54 11.45 15.34 31.75 36.05 40.49 14.63 6.08 30.83 4.96 46.47 3.87 1.52-.14 3.12-.18 4.53-.26 33.21-2.12 58.74 11.17 70.36 23.23 8.6 8.83 15.3 19.19 21.69 29.28 5.57 8.66 11.26 17.54 18.22 25.55 26.6 30.7 63.92 50.23 102.28 53.5 40.82 3.47 83.13-14.14 110.56-45.9 7.46-8.68 14.22-18.58 20.77-28.06 8.6-12.57 17.39-25.54 28.05-35.78 11.57-11.2 26.55-15.72 41.1-19.98a223.3 223.3 0 0011.56-3.58c35.48-11.92 62.02-34.53 72.87-62.01 11.53-29.35 5.28-71.02-25.13-90-12.4-7.8-26.99-13.03-41.05-18.12-12.44-4.56-25.34-9.15-36.98-15.64-31.63-17.54-53.5-48.17-74.64-77.76a858.85 858.85 0 00-21.38-29.01c-26.25-33.39-57.6-57.83-90.54-70.52-35.97-13.87-76.72-12.4-109.21 3.96-29.17 14.74-51.62 44.2-58.4 76.97-2.7 13.13-5.66 24.8-13.67 35.56-6.97 9.28-16.97 18.12-26.71 26.65-4.76 4.2-9.25 8.1-13.29 12.04-11.2 10.84-20.62 22.71-25.15 31.9l-.1.07-.12.06c-31.52 16.25-54.27 44.43-63.89 79.4z" fill="url(#paint27_linear)"/><path d="M562.02 559.85a138.7 138.7 0 01-15.87 7.81c-19.99 8.28-41.52 11.6-62.18 9.56-39.59-3.88-77.95-24.72-105.13-57.43-7.46-8.9-13.6-18.54-19.5-28.04-6.65-10.53-13.6-21.33-22.07-30.95-13.02-14.49-38.14-29.62-69.65-28.63-2.33.02-4.88.17-7.21.2-13.56.62-27.47 1.15-40.11-4.02-14.53-6.15-26.45-20.24-32.77-38.87-4.75-14.11-6.83-29.18-8.44-41.14-.49-3.38-.9-6.66-1.42-9.59l.05-.17c11.43-35.88 37.4-65.62 71.33-81.49 6.66-7.78 16.72-17.53 28.1-27.3 2.05-1.77 4.17-3.43 6.34-5.26 10.8-9 23.1-19.16 30.41-30.4 6.42-9.98 8.27-21.02 10.38-32.63l.42-2.58c5.53-32.64 28.84-62.9 59.18-77.14 15.95-7.42 34.32-11.4 52.92-11.4 18.31 0 37.02 3.74 54.16 10.87 31.54 13.06 61.57 37.23 87.04 70.04 7.2 9.2 14.03 19.03 20.78 28.47 21.22 29.99 43.17 61.01 75.42 78.35 10.97 5.84 22.94 10.09 34.67 14.18 14.35 5.07 29.22 10.29 41.87 18.53 14.14 9.3 24.24 24.3 28.43 42.53 3.9 16.95 2.38 35.7-4.2 51.5-12.13 28.81-40.37 51.8-77.48 62.9-3.97 1.26-8.23 2.25-12.26 3.4-14.8 3.82-30.1 7.79-41.92 18.55-10.96 9.97-19.7 23.06-28.05 35.78-5.53 8.45-11.4 17.1-17.77 24.87a135.3 135.3 0 01-35.47 29.5zM178.13 338.78c.51 2.93.87 6.1 1.35 9.48 1.71 12.64 3.7 27.03 8.44 41.14 6.31 18.35 18.06 32.4 32.52 38.43 12.53 5.23 26.38 4.6 39.82 4.03l7.33-.26c31.75-.83 57.04 14.35 70.06 28.83 8.52 9.46 15.42 20.43 22.18 30.9 6 9.43 12.15 19.08 19.5 28.03 27.11 32.6 65.37 53.51 104.9 57.28 42.32 4.06 85.53-13.78 112.62-46.65 6.37-7.77 12.12-16.35 17.76-24.88 8.47-12.78 17.2-25.86 28.16-35.83 11.94-10.83 27.35-14.86 42.14-18.68 4.1-1.04 8.3-2.14 12.15-3.33 36.95-11.16 65.13-33.97 77.15-62.72 12.64-29.98 7.04-73.05-24.02-93.41-12.48-8.2-27.35-13.42-41.7-18.49-11.73-4.1-23.76-8.45-34.74-14.29-32.35-17.27-54.37-48.4-75.64-78.5a656.42 656.42 0 00-20.79-28.47c-25.4-32.7-55.44-56.88-86.8-69.89-34.98-14.44-74.9-14.32-106.73.63-30.12 14.11-53.27 44.14-58.88 76.66l-.41 2.58c-2.05 11.73-3.9 22.76-10.36 32.92-7.3 11.24-19.67 21.57-30.46 30.57-2.17 1.83-4.29 3.5-6.35 5.26-11.48 9.83-21.5 19.4-28.09 27.3a135.7 135.7 0 00-71.11 81.36z" fill="url(#paint28_linear)"/><path d="M553.55 561.94c-23.77 13.68-52 20.11-79.65 17.12-40.58-4.33-79.77-26.6-107.57-61.15-7.8-9.73-14.44-20.26-20.79-30.52-6.9-10.98-13.99-22.28-22.5-32.47-17.79-21.26-43.74-34.01-69.4-34.33-2.97-.05-6.15.02-9.16.14-11.59.22-23.46.46-34.14-4.09-13.53-5.69-24.4-19.5-29.12-36.85-4.85-17.58-6.25-34.8-3.91-47.27 7.4-38.83 42.65-62.34 78.11-83.2 5.84-3.35 12.2-8.33 19.55-13.88a400.5 400.5 0 0111.55-8.7c12.5-9.1 26.41-20.03 33.4-32.84 4.82-8.93 5.97-18.39 7.14-28.58.21-2.17.54-4.41.86-6.65 2.13-16.16 9.04-32.16 19.78-45.81 10.64-13.6 24.4-24.3 39.73-30.77 15.98-6.85 33.48-10.04 52.18-9.38 17.78.61 35.89 4.84 52.48 12.29 30.31 13.46 58.24 36.8 83.3 69.4 6.96 9.04 13.6 18.54 20.13 27.83 21.35 30.49 43.45 62.02 76.24 79.03 10.27 5.38 21.7 9.2 32.68 13 14.56 4.94 29.71 10.14 42.34 18.84 14.28 9.8 24.37 25.53 28.36 44.19 3.7 17.64 1.83 37.03-5.37 53.04-6.88 15.54-18.08 29.16-33.3 40.4-13.73 10.25-30.56 18.18-48.3 22.97a288.8 288.8 0 01-13.02 3.1c-15.16 3.45-30.88 6.93-43.07 17.31-11.22 9.53-19.6 22.71-27.85 35.37-4.8 7.45-9.75 15.13-15.14 22.05a123.64 123.64 0 01-35.54 30.4zM377.33 87.46c-26.41 15.2-45.2 42.12-49.06 71.3-.32 2.24-.54 4.42-.86 6.65-1.17 10.2-2.26 19.76-7.2 28.75-7.02 12.99-21 23.82-33.55 33.08-4.15 2.98-7.9 5.87-11.55 8.7-7.29 5.66-13.71 10.53-19.55 13.89-35.35 20.79-70.6 44.3-77.95 82.95-2.3 12.31-.89 29.52 3.89 46.99 4.76 17.18 15.51 30.77 28.93 36.53 10.62 4.44 22.49 4.2 33.97 4.03 3.07 0 6.19-.19 9.15-.13 13.9.2 27.46 3.68 40.21 10.55a98.76 98.76 0 0129.45 23.93c8.5 10.2 15.6 21.5 22.5 32.47 6.34 10.26 12.99 20.8 20.78 30.52 27.73 34.44 66.86 56.6 107.33 61 43.28 4.69 88.37-13.94 114.75-47.28 5.4-6.92 10.35-14.6 15.14-22.05 8.18-12.77 16.57-25.94 27.9-35.54 12.3-10.45 28.02-13.93 43.29-17.44 4.26-.99 8.7-1.93 12.9-3.03 38.48-10.28 68.13-33.35 81.39-63.25 13.62-30.55 8.73-75.2-22.85-96.72-12.56-8.6-27.71-13.8-42.28-18.74-10.97-3.8-22.4-7.62-32.74-13.1-32.97-17.07-55.13-48.7-76.48-79.2-6.52-9.28-13.23-18.9-20.12-27.82-24.89-32.56-52.93-55.83-83.13-69.36-34.12-15.24-73.08-16.25-104.21-2.88a110.5 110.5 0 00-10.05 5.2z" fill="url(#paint29_linear)"/><path d="M544.93 564.26a132.72 132.72 0 01-81.21 16.71c-41.47-4.85-81.6-28.5-110-64.88-8.25-10.5-15.29-21.97-22.14-33.12-7.05-11.47-14.28-23.28-22.75-33.93-11.18-14.08-35.05-38-69.12-39.92-3.49-.2-7.02-.22-10.54-.24-9.74-.1-19.8-.03-28.79-3.94-12.55-5.52-22.37-18.77-25.48-34.85-2.9-14.45-2.06-30.31 2-43.63 5.84-18.6 16.96-35.7 33.18-51.04 13.96-13.16 31.44-24.54 51.82-33.93 12.96-5.99 23.78-11.63 34.05-17.98 15.37-9.43 25.53-19.52 30.2-29.98 3.68-8.12 4.03-16.68 4.46-25.86.17-3.02.27-6.16.65-9.3 3.08-32.84 27.16-63.55 59.91-76.39 15.8-6.16 33.11-8.65 51.28-7.38a143.44 143.44 0 0150.74 13.57c28.5 13.64 55.34 36.86 79.57 68.77 6.65 8.77 13.13 18.23 19.52 27.3 21.5 31 43.74 63.02 77.25 79.77 9.85 4.89 20.52 8.41 30.85 11.85 14.78 4.82 30.05 9.95 42.69 18.94 14.43 10.3 24.43 26.67 28.24 46.01 3.64 18.56 1.37 38.03-6.47 54.7-7.48 16.03-19.4 29.92-35.23 41.37-14.52 10.41-31.98 18.26-50.55 22.65-4.48 1.11-9.1 2.01-13.7 2.9-15.52 3.08-31.61 6.18-44.23 16.08-11.47 9.1-19.52 22.08-27.2 34.7-4.1 6.61-8.26 13.4-12.9 19.58a121.57 121.57 0 01-36.1 31.47zM243.87 251.14c-34.12 19.63-57.55 45.87-66.7 75.3-4.1 13.2-4.77 29.12-1.94 43.46 3.15 15.91 12.87 29.22 25.3 34.52 8.98 3.91 18.93 3.9 28.67 4 3.53.03 7.05.05 10.54.24 13.46.75 26.8 5.09 39.55 12.99 10.92 6.75 21.14 16.1 29.91 27.03 8.54 10.76 15.77 22.56 22.82 34.04 6.85 11.14 13.9 22.62 22.07 33 28.35 36.28 68.3 59.88 109.77 64.73 45.07 5.26 90.9-13.63 116.8-48.03 4.65-6.19 8.8-12.97 12.9-19.59 7.8-12.68 15.85-25.67 27.32-34.76 12.73-9.96 28.75-13.18 44.33-16.14 4.5-.83 9.22-1.79 13.6-2.84 39.44-9.37 71.43-33.2 85.62-63.78 16.64-35.5 7.12-79.54-21.67-100.04-12.65-8.98-27.9-14.12-42.59-19-10.32-3.44-21-6.96-30.9-11.96-33.58-16.86-55.83-48.89-77.39-79.99a719.04 719.04 0 00-19.45-27.19c-24.23-31.9-50.9-55.09-79.4-68.72-33.77-16.16-70.82-18.43-101.73-6.2-32.75 12.83-56.61 43.41-59.65 76.07-.27 3.09-.48 6.29-.64 9.31-.5 9.07-.9 17.8-4.57 25.92-4.73 10.63-14.88 20.73-30.37 30.22-10.26 6.35-21.2 12.05-34.04 17.98a287.63 287.63 0 00-18.16 9.43z" fill="url(#paint30_linear)"/><path d="M536.68 566.23a126.46 126.46 0 01-16.48 8.01 136.1 136.1 0 01-66.56 8.57c-21.66-2.77-42.82-10.51-62.72-22.94-18.72-11.65-35.92-27.53-49.72-45.66-8.57-11.33-16.18-23.8-23.37-35.78-7.23-11.8-14.61-24.11-23.12-35.33-14.31-19.02-37.91-42.2-68.82-45.51-3.72-.35-7.48-.53-11.18-.6-8.21-.26-16.53-.45-24.11-3.7-11.63-5.18-20.23-18.1-21.9-32.97-1.2-11.76 1.32-24.93 8-40.05a160.59 160.59 0 0137.2-52.47 161.53 161.53 0 0154.55-34.03c4.34-1.62 8.92-3.08 13.28-4.42 7.92-2.5 16.07-5.15 23.77-8.84 13.7-6.72 23.27-16.33 26.84-27.17 2.63-7.66 2.43-15.9 2.25-23.85-.05-3.64-.22-7.5.03-11.16.8-16.42 7.3-32.62 18.77-46.55A96.3 96.3 0 01395 82.27c30.25-10.82 66.58-7.26 99.6 9.63 27.21 13.94 52.07 36.26 75.84 68.14 6.42 8.61 12.7 17.74 18.85 26.65 21.64 31.5 44.03 64.03 78.16 80.57 9.3 4.46 19.4 7.74 29.07 10.81 14.9 4.76 30.21 9.72 42.93 19.1 14.46 10.87 24.5 27.8 28.17 47.67 3.46 19.25.87 39.2-7.52 56.18-15.54 31.8-49.28 55.9-90.18 64.5-4.73.97-9.62 1.88-14.47 2.62-15.88 2.7-32.22 5.36-45.2 14.88-11.68 8.47-19.12 21.25-26.36 33.62-3.41 5.78-6.92 11.9-10.92 17.42-9.43 12.9-21.76 23.8-36.29 32.17zm-292.03-321.1c-29.71 17.1-54.25 43.96-67.88 75.25-6.57 15.06-9.16 28.12-7.96 39.88 1.6 14.75 10.15 27.56 21.7 32.63 7.48 3.32 15.8 3.51 24 3.77 3.7.07 7.58.18 11.3.53 31.08 3.36 54.75 26.66 69.06 45.67 8.5 11.22 15.88 23.53 23.18 35.44 7.3 11.92 14.8 24.45 23.37 35.78 28.97 38.12 69.85 63.08 112.2 68.45 46.14 5.83 94.02-13.82 118.87-48.78 4-5.52 7.4-11.58 10.93-17.42 7.24-12.37 14.79-25.21 26.46-33.69 13.05-9.41 29.43-12.25 45.38-14.83 4.78-.85 9.63-1.6 14.36-2.55 40.8-8.54 74.42-32.58 89.85-64.31 17.74-36.14 8.7-81.63-20.57-103.46-12.6-9.44-27.92-14.4-42.75-19.05-9.74-3.19-19.88-6.29-29.25-10.86-34.3-16.59-56.7-49.12-78.4-80.73-6.09-8.8-12.43-18.04-18.85-26.65-23.77-31.88-48.56-54.1-75.66-68.1-32.85-16.84-69.06-20.46-99.32-9.64-33.82 12-58.5 43.19-60.12 75.77-.18 3.76-.07 7.5-.03 11.15.19 7.95.34 16.36-2.29 24.02-3.68 10.91-13.29 20.69-27.06 27.3-7.7 3.7-15.85 6.33-23.78 8.84-4.35 1.34-8.93 2.8-13.27 4.42a158.46 158.46 0 00-23.47 11.16z" fill="url(#paint31_linear)"/></g><defs><linearGradient id="paint0_linear" x1="305.87" y1="35.71" x2="704.81" y2="728.92" gradientUnits="userSpaceOnUse"><stop stop-color="#4AFEBF"/><stop offset="1" stop-color="#51EEDA"/></linearGradient><linearGradient id="paint1_linear" x1="308.21" y1="38.65" x2="696.88" y2="714" gradientUnits="userSpaceOnUse"><stop stop-color="#4AFEBF"/><stop offset="1" stop-color="#51EEDA"/></linearGradient><linearGradient id="paint2_linear" x1="309.78" y1="41" x2="688.61" y2="699.28" gradientUnits="userSpaceOnUse"><stop stop-color="#4AFEBF"/><stop offset="1" stop-color="#51EEDA"/></linearGradient><linearGradient id="paint3_linear" x1="312.39" y1="43.8" x2="680.94" y2="684.2" gradientUnits="userSpaceOnUse"><stop stop-color="#4AFEBF"/><stop offset="1" stop-color="#51EEDA"/></linearGradient><linearGradient id="paint4_linear" x1="314.82" y1="46.34" x2="673.31" y2="669.26" gradientUnits="userSpaceOnUse"><stop stop-color="#4AFEBF"/><stop offset="1" stop-color="#51EEDA"/></linearGradient><linearGradient id="paint5_linear" x1="317.38" y1="48.72" x2="665.78" y2="654.11" gradientUnits="userSpaceOnUse"><stop stop-color="#4AFEBF"/><stop offset="1" stop-color="#51EEDA"/></linearGradient><linearGradient id="paint6_linear" x1="320.44" y1="50.85" x2="658.79" y2="638.79" gradientUnits="userSpaceOnUse"><stop stop-color="#4AFEBF"/><stop offset="1" stop-color="#51EEDA"/></linearGradient><linearGradient id="paint7_linear" x1="323.14" y1="52.98" x2="651.49" y2="623.51" gradientUnits="userSpaceOnUse"><stop stop-color="#4AFEBF"/><stop offset="1" stop-color="#51EEDA"/></linearGradient><linearGradient id="paint8_linear" x1="326.14" y1="55.17" x2="644.55" y2="608.46" gradientUnits="userSpaceOnUse"><stop stop-color="#4AFEBF"/><stop offset="1" stop-color="#51EEDA"/></linearGradient><linearGradient id="paint9_linear" x1="328.99" y1="57.05" x2="637.59" y2="593.27" gradientUnits="userSpaceOnUse"><stop stop-color="#4AFEBF"/><stop offset="1" stop-color="#51EEDA"/></linearGradient><linearGradient id="paint10_linear" x1="330.99" y1="59.75" x2="629.68" y2="578.78" gradientUnits="userSpaceOnUse"><stop stop-color="#4AFEBF"/><stop offset="1" stop-color="#51EEDA"/></linearGradient><linearGradient id="paint11_linear" x1="333.92" y1="61.77" x2="628.48" y2="573.61" gradientUnits="userSpaceOnUse"><stop stop-color="#4AFEBF"/><stop offset="1" stop-color="#51EEDA"/></linearGradient><linearGradient id="paint12_linear" x1="337.44" y1="62.92" x2="629.23" y2="569.95" gradientUnits="userSpaceOnUse"><stop stop-color="#4AFEBF"/><stop offset="1" stop-color="#51EEDA"/></linearGradient><linearGradient id="paint13_linear" x1="341.08" y1="64.82" x2="629.75" y2="566.43" gradientUnits="userSpaceOnUse"><stop stop-color="#4AFEBF"/><stop offset="1" stop-color="#51EEDA"/></linearGradient><linearGradient id="paint14_linear" x1="342.62" y1="67.4" x2="628.47" y2="564.09" gradientUnits="userSpaceOnUse"><stop stop-color="#4AFEBF"/><stop offset="1" stop-color="#51EEDA"/></linearGradient><linearGradient id="paint15_linear" x1="343.07" y1="70.51" x2="626.07" y2="562.25" gradientUnits="userSpaceOnUse"><stop stop-color="#4AFEBF"/><stop offset="1" stop-color="#51EEDA"/></linearGradient><linearGradient id="paint16_linear" x1="343.22" y1="73.56" x2="623.53" y2="560.63" gradientUnits="userSpaceOnUse"><stop stop-color="#4AFEBF"/><stop offset="1" stop-color="#51EEDA"/></linearGradient><linearGradient id="paint17_linear" x1="343.77" y1="76.46" x2="621.29" y2="558.7" gradientUnits="userSpaceOnUse"><stop stop-color="#4AFEBF"/><stop offset="1" stop-color="#51EEDA"/></linearGradient><linearGradient id="paint18_linear" x1="344.27" y1="79.43" x2="619.05" y2="556.91" gradientUnits="userSpaceOnUse"><stop stop-color="#4AFEBF"/><stop offset="1" stop-color="#51EEDA"/></linearGradient><linearGradient id="paint19_linear" x1="344.29" y1="82.01" x2="616.63" y2="555.23" gradientUnits="userSpaceOnUse"><stop stop-color="#4AFEBF"/><stop offset="1" stop-color="#51EEDA"/></linearGradient><linearGradient id="paint20_linear" x1="344.45" y1="84.68" x2="614.26" y2="553.52" gradientUnits="userSpaceOnUse"><stop stop-color="#4AFEBF"/><stop offset="1" stop-color="#51EEDA"/></linearGradient><linearGradient id="paint21_linear" x1="344.9" y1="87.63" x2="612" y2="551.74" gradientUnits="userSpaceOnUse"><stop stop-color="#4AFEBF"/><stop offset="1" stop-color="#51EEDA"/></linearGradient><linearGradient id="paint22_linear" x1="345.36" y1="90.02" x2="609.98" y2="549.83" gradientUnits="userSpaceOnUse"><stop stop-color="#4AFEBF"/><stop offset="1" stop-color="#51EEDA"/></linearGradient><linearGradient id="paint23_linear" x1="345.44" y1="92.48" x2="607.71" y2="548.2" gradientUnits="userSpaceOnUse"><stop stop-color="#4AFEBF"/><stop offset="1" stop-color="#51EEDA"/></linearGradient><linearGradient id="paint24_linear" x1="344.2" y1="95.61" x2="604.15" y2="547.32" gradientUnits="userSpaceOnUse"><stop stop-color="#4AFEBF"/><stop offset="1" stop-color="#51EEDA"/></linearGradient><linearGradient id="paint25_linear" x1="342.74" y1="98.58" x2="600.45" y2="546.38" gradientUnits="userSpaceOnUse"><stop stop-color="#4AFEBF"/><stop offset="1" stop-color="#51EEDA"/></linearGradient><linearGradient id="paint26_linear" x1="341.32" y1="101.4" x2="596.89" y2="545.5" gradientUnits="userSpaceOnUse"><stop stop-color="#4AFEBF"/><stop offset="1" stop-color="#51EEDA"/></linearGradient><linearGradient id="paint27_linear" x1="339.68" y1="104.42" x2="593.15" y2="544.86" gradientUnits="userSpaceOnUse"><stop stop-color="#4AFEBF"/><stop offset="1" stop-color="#51EEDA"/></linearGradient><linearGradient id="paint28_linear" x1="338.32" y1="107.61" x2="589.49" y2="544.04" gradientUnits="userSpaceOnUse"><stop stop-color="#4AFEBF"/><stop offset="1" stop-color="#51EEDA"/></linearGradient><linearGradient id="paint29_linear" x1="336.42" y1="110.63" x2="585.55" y2="543.52" gradientUnits="userSpaceOnUse"><stop stop-color="#4AFEBF"/><stop offset="1" stop-color="#51EEDA"/></linearGradient><linearGradient id="paint30_linear" x1="334.59" y1="113.34" x2="581.86" y2="543.01" gradientUnits="userSpaceOnUse"><stop stop-color="#4AFEBF"/><stop offset="1" stop-color="#51EEDA"/></linearGradient><linearGradient id="paint31_linear" x1="332.78" y1="116.33" x2="578.01" y2="542.44" gradientUnits="userSpaceOnUse"><stop stop-color="#4AFEBF"/><stop offset="1" stop-color="#51EEDA"/></linearGradient><clipPath id="clip0"><path fill="#fff" transform="rotate(-180 136.5 302.66)" d="M0 0h273v605H0z"/></clipPath></defs></svg>