<svg width="293" height="773" fill="none" xmlns="http://www.w3.org/2000/svg"><g opacity=".3" clip-path="url(#clip0)"><path d="M226.57 634.37c-1.4.54-2.8 1.07-4.34 1.55-35.15 11.1-82.99 2.22-127.93-23.73-5.23-3.03-10.44-6.29-15.48-9.39-16.86-10.46-34.27-21.25-52.58-24.63-16.34-2.95-31.5.5-46.17 3.86-7 1.6-14.2 3.19-21.53 4.18-23.36 3.04-49.78-1.08-76.4-11.88a212.38 212.38 0 01-69.64-46.26c-37.57-37.45-61.34-88.1-65.19-138.98-1.17-15.08-.6-30.08-.06-44.63.51-14.33 1.07-29.1 0-43.9-1.81-24.9-9.79-60.28-37.29-86.8a205.29 205.29 0 00-10.37-9.2c-7.76-6.56-15.75-13.46-21-21.84-8.17-13.25-8.3-29.8-.39-42.15 6.31-9.8 17.22-17.4 33.26-23.33 41.46-15.33 95-11.95 143.24 8.88 5.26 2.27 10.5 4.76 15.6 7.2 9.18 4.4 18.72 8.9 28.33 12.18 17.1 5.77 32.18 6.31 42.38 1.34 7.12-3.48 11.87-9.26 16.89-15.46 2.25-2.8 4.6-5.62 7.14-8.2 22.42-22.82 66.27-26.33 106.74-8.42 36.1 15.96 68.93 47.18 90.04 85.57 17.47 31.65 27.37 67.58 30.2 109.65.81 11.36 1.1 23.03 1.34 34.29 1.02 39.87 2.04 81.13 24.47 119.87 6.07 10.53 13.77 20.86 21.2 30.76 11.36 15.14 23.07 30.9 29.32 47.77 7.03 18.94 6.23 38.95-2.25 56.22-7.97 16.12-22.26 28.87-39.53 35.48zm-515.8-514.72c-14.94 5.72-25.04 12.9-30.88 21.99-7.49 11.75-7.37 27.45.34 40.03 5.04 8.13 12.87 14.88 20.5 21.38 3.51 3.04 7.16 6.14 10.53 9.35 28 26.98 36.15 62.83 37.93 88.17 1.13 14.98.58 29.76-.03 44.13-.57 14.45-1.09 29.32.08 44.4 3.91 50.22 27.42 100.44 64.75 137.54 40.64 40.45 98.63 63.54 144.33 57.61 7.24-.95 14.42-2.62 21.31-4.2 14.89-3.34 30.25-6.86 47.03-3.86 18.63 3.36 36.3 14.27 53.32 24.88 5.04 3.1 10.25 6.36 15.47 9.4 44.4 25.61 91.57 34.43 126.26 23.51 18.73-5.88 34.27-19 42.54-35.99 8.26-16.75 9-36.1 2.14-54.57-6.18-16.7-17.82-32.26-29.05-47.34-7.46-10-15.17-20.32-21.27-30.94-22.7-39.18-23.73-80.75-24.73-120.85-.24-11.25-.59-22.8-1.31-34.19-2.85-41.85-12.6-77.4-29.87-108.8-20.98-38.02-53.35-68.89-89.09-84.76-39.7-17.57-82.67-14.3-104.55 8-2.45 2.55-4.8 5.37-6.99 8.03-4.95 6.08-10.06 12.31-17.53 16.03-10.66 5.15-26.22 4.79-43.83-1.21-9.7-3.25-19.27-7.83-28.55-12.2a345.66 345.66 0 00-15.56-7.1c-47.76-20.7-100.73-23.98-141.76-8.92-.6.12-1.06.3-1.53.48z" fill="url(#paint0_linear)"/><path d="M218.14 630c-1.58.6-3.11 1.08-4.74 1.6-34.2 10.51-80.8 1.8-124.6-23.41a465.06 465.06 0 01-15.02-9.03c-16.52-10.16-33.7-20.62-51.62-23.82-16.27-2.76-31.4.24-46.01 3.16-7.06 1.42-14.4 2.94-21.71 3.7-23.03 2.5-48.8-1.87-74.57-12.68a209.12 209.12 0 01-67.58-45.65c-36.74-37.23-59.5-86.88-62.58-136.34-.9-14.65-.1-29.09.7-43.2.81-14.67 1.67-29.77.53-45.07-2.47-33.86-15.3-64.28-36.24-85.71-2.82-2.89-5.78-5.6-8.66-8.36-7.73-7.32-15.09-14.25-19.7-22.65-7.01-12.74-6.22-27.71 2.02-39.22 6.5-9.02 17.06-15.84 33.15-21.36 41.97-14.56 92.95-11.17 140.02 9.15 7.03 2.98 14.06 6.5 20.79 9.82 7.92 3.92 16.1 7.96 24.07 11.13 11.98 4.73 28.74 9.34 40.68 3.91C-46.25 153-41.96 147.7-37.4 142c2.1-2.63 4.2-5.25 6.64-7.57 21.4-21.58 63.85-24.24 103.09-6.49 35.23 15.96 67.11 46.37 87.45 83.56 16.87 30.91 26.28 65.86 28.74 106.68.72 10.85.9 21.93 1.14 32.64.88 38.65 1.74 78.68 22.87 116.53 5.6 10.17 12.65 19.9 19.49 29.37 10.31 14.36 20.94 29.25 26.57 45.08 6.6 18.36 5.6 37.58-2.63 54.12-7.6 15.65-21.28 27.74-37.82 34.07zm-264.01-49.71c7.31-.76 14.56-2.25 21.62-3.67 14.8-3 30.12-6.07 46.73-3.22 18.34 3.15 35.58 13.79 52.33 23.98 4.92 3.04 9.96 6.14 14.99 8.93 43.34 24.85 89.3 33.6 123.04 23.25 18.2-5.58 33.23-18.08 41.44-34.39 8-16.02 9-34.7 2.57-52.6-5.56-15.64-16.11-30.34-26.39-44.6-6.88-9.58-13.86-19.44-19.6-29.66-21.3-38.32-22.24-78.54-23.13-117.5-.25-10.71-.5-21.75-1.11-32.55-2.38-40.63-11.78-75.26-28.45-105.93-20.1-36.85-51.65-66.96-86.5-82.75-38.5-17.49-80.04-14.97-100.9 6.07a73.01 73.01 0 00-6.44 7.5c-4.5 5.58-9.16 11.33-16.3 14.49-12.5 5.64-29.84.93-42.17-3.88-8.09-3.22-16.27-7.26-24.2-11.19-6.73-3.31-13.75-6.83-20.65-9.76-45.95-19.89-97.79-23.28-138.73-9.11-15.68 5.47-25.94 11.96-32.23 20.69-7.85 10.82-8.59 25.13-1.95 37.15 4.54 8.22 11.74 15 19.34 22.26 2.87 2.75 5.84 5.47 8.7 8.45 21.27 21.73 34.36 52.59 36.79 86.89 1.08 15.43.26 30.63-.55 45.29-.75 13.99-1.54 28.43-.68 42.98 3 48.96 25.52 98.27 61.89 135.1 38.86 39.42 95.3 62.67 140.54 57.78z" fill="url(#paint1_linear)"/><path d="M209.9 625.54c-1.77.68-3.48 1.23-5.3 1.82-33.24 9.94-78.63 1.3-121.35-23.04-4.9-2.73-9.81-5.78-14.52-8.58-16.3-9.82-33.04-20-50.68-23-16.1-2.62-31.18-.06-45.72 2.5a284.55 284.55 0 01-22.11 3.23c-45.86 3.84-100.07-19.2-138.2-58.67-35.91-37.01-57.67-85.75-59.95-133.93-.62-14.21.4-28.31 1.43-41.87 1.15-14.9 2.22-30.3 1.11-46.04-2.34-32.4-14.8-62.44-35.17-84.62a335.58 335.58 0 00-5.98-6.38c-7.73-8.18-15.03-15.77-19.28-24.64a33.71 33.71 0 014.42-36.28c6.7-8.24 16.95-14.2 33.15-19.43 41.54-13.44 91.48-9.97 136.93 9.47 8.8 3.7 17.4 8.23 25.72 12.64 6.97 3.65 13.42 7.07 20 10.01 16.83 7.6 30.16 9.98 38.75 6.7l.28-.12c6.23-2.48 10.12-7.4 14.27-12.52 1.89-2.33 3.84-4.8 6.08-7.04 10.4-10.3 25.67-16.04 44.1-16.56 17.54-.61 37.2 3.75 55.29 12.13 34.34 15.88 65.25 45.7 84.77 81.6 16.16 29.9 25.08 63.84 27.3 103.79.55 10.07.75 20.38.9 30.28.73 37.73 1.43 76.76 21.36 114 5.2 9.68 11.56 19.02 17.72 28.12 9.7 14.17 18.81 27.6 23.92 42.35 6.16 17.77 5.1 36.27-3 52.01-7.7 14.83-20.35 26-36.23 32.07zm-484.8-494.46c-11.76 4.5-19.64 9.66-25.1 16.36a31.97 31.97 0 00-4.23 34.27c4.1 8.5 11.3 16.12 18.97 24.11 1.96 2.04 4.08 4.22 6.1 6.44 20.71 22.49 33.4 52.86 35.7 85.7 1.1 15.75-.02 31.28-1.13 46.27-1.06 13.47-2 27.53-1.44 41.56 2.19 47.67 23.77 95.94 59.22 132.6 37.76 39.08 91.46 61.88 136.72 58.16 7.39-.58 14.8-1.92 21.93-3.15 14.76-2.54 30-5.27 46.35-2.54 17.95 2.98 34.96 13.28 51.38 23.17 4.75 2.9 9.63 5.84 14.52 8.57 42.3 24.07 87.16 32.7 119.9 22.85 17.87-5.34 32.17-16.92 40.25-32.75 7.84-15.32 8.89-33.28 2.9-50.58-5.03-14.57-14.06-27.81-23.64-41.92-6.16-9.1-12.65-18.5-17.8-28.3-20.07-37.62-20.84-76.83-21.55-114.79-.15-9.9-.35-20.2-.89-30.28-2.12-39.67-10.94-73.34-27.02-103.05-19.29-35.56-49.96-65.04-83.91-80.74-17.84-8.27-37.14-12.55-54.37-11.95-17.98.56-32.78 6.12-42.88 16.09-2.1 2.08-4.04 4.54-5.93 6.87-4.15 5.12-8.35 10.37-15.04 13.04-9.17 3.72-22.79 1.44-40.42-6.58a423.19 423.19 0 01-20.13-10.07c-8.3-4.32-16.88-8.85-25.6-12.59-45.02-19.17-94.42-22.63-135.6-9.34-2.64.9-5.01 1.71-7.25 2.57z" fill="url(#paint2_linear)"/><path d="M201.49 621.16a63.54 63.54 0 01-5.8 1.9c-32.1 9.3-76.25.81-118.02-22.7-4.52-2.56-9.23-5.36-13.65-7.96-16.09-9.58-32.76-19.58-50.2-22.33-15.84-2.5-30.84-.29-45.34 1.83-7.39 1.12-15.1 2.25-22.64 2.68-45.2 2.74-97.88-20.47-134.36-58.97-34.72-36.71-55.5-84.55-56.91-131.33-.44-13.75.82-27.51 2.08-40.74 1.35-15.19 2.85-30.86 1.77-46.83-2.21-30.95-14.3-60.59-34.08-83.43l-1.57-1.86c-8.96-10.27-16.66-19.21-20.68-29.13-4.58-11.42-2.06-23.84 6.87-33.25 8.74-9.34 21.6-14.05 33.04-17.47 41.34-12.29 90.1-8.8 133.81 9.7 10.74 4.57 21.19 10.31 31.15 15.92 5.42 2.96 10.48 5.84 15.53 8.4 17.07 8.78 29.61 11.9 37.34 9.16 5.77-2 9.22-6.42 12.9-11.04 1.75-2.17 3.54-4.46 5.49-6.38 19.82-19.26 58.3-20.29 95.7-2.59 33.49 15.88 63.44 44.9 82.18 79.58 15.61 29.04 24.05 62 25.8 100.95.46 9.35.6 18.94.69 28.12.56 36.72 1.15 74.61 19.75 111.18 4.7 9.23 10.39 18.19 15.92 26.78 8.53 13.33 16.68 25.95 21.27 39.61 5.72 17.2 4.47 34.9-3.44 50.04-7.43 13.87-19.47 24.37-34.6 30.16zm-469.7-484.4c-8.04 3.08-15.87 7.25-21.73 13.46-8.35 8.98-10.84 20.64-6.42 31.37 3.87 9.55 11.54 18.39 20.38 28.6l1.57 1.87c20.1 23.14 32.37 53.24 34.6 84.51 1.06 16.2-.4 31.96-1.76 47.15-1.26 13.22-2.47 26.85-2.06 40.51 1.46 46.34 22.06 93.7 56.45 130.12 36.1 38.1 88.27 61.08 132.94 58.33 7.54-.43 15.12-1.61 22.42-2.7 14.59-2.15 29.78-4.43 45.88-1.82 17.78 2.83 34.59 12.89 50.84 22.62a587.1 587.1 0 0013.55 7.99c41.38 23.35 85.05 31.69 116.68 22.58 17.26-5 31.15-16 39.06-31.12 7.68-14.62 8.89-31.89 3.34-48.61-4.51-13.48-12.53-26.04-21.03-39.28-5.57-8.68-11.34-17.6-16.09-26.92-18.74-36.95-19.43-75.12-19.98-112.07-.08-9.17-.31-18.72-.7-28.1-1.81-38.6-10.15-71.29-25.6-100.17-18.5-34.36-48.12-63.07-81.35-78.83-36.75-17.41-74.32-16.52-93.6 2.2a62.4 62.4 0 00-5.33 6.22c-3.69 4.63-7.53 9.42-13.76 11.59-8.33 2.87-20.93-.13-38.77-9.25-5.05-2.57-10.12-5.45-15.53-8.4-9.97-5.61-20.28-11.3-31.02-15.86-43.32-18.33-91.55-21.82-132.51-9.67-3.4 1.2-6.93 2.33-10.48 3.69z" fill="url(#paint3_linear)"/><path d="M193.06 616.78a72.32 72.32 0 01-6.17 2.05c-31.05 8.67-74 .27-114.81-22.44-4.35-2.4-8.77-5-12.96-7.57-15.8-9.37-32.24-19.03-49.38-21.57-15.58-2.4-30.41-.57-44.83 1.2-7.68.91-15.55 1.89-23.26 2.16-44.47 1.6-95.79-21.69-130.51-59.26-33.63-36.38-53.42-83.3-54.2-128.73-.21-13.41 1.2-26.8 2.69-39.68 1.7-15.43 3.43-31.3 2.43-47.62-2.05-29.41-13.78-58.65-33.01-82.34-9.34-11.52-16.22-21.1-19.34-30.93-3.35-10.71.03-21.75 9.28-30.32 8.79-8.08 21.01-12.22 32.93-15.5 41.2-11.27 88.83-7.66 130.6 9.98 12.99 5.4 25.12 12.76 36.88 19.71 3.74 2.21 7.22 4.3 10.66 6.3 17.44 10.04 28.84 13.81 35.69 11.83 5.31-1.5 8.3-5.43 11.63-9.6 1.5-1.96 3.18-4 4.98-5.75 18.83-17.92 55.8-18.15 91.95-.61 32.64 15.88 61.63 44.07 79.5 77.6 14.97 28.21 22.97 60.28 24.33 97.98.28 8.56.41 17.3.53 25.71.43 35.81.88 72.8 18.16 108.7 4.21 8.77 9.27 17.22 14.08 25.33 7.49 12.56 14.6 24.4 18.66 36.98 5.28 16.6 3.88 33.63-3.91 47.96-6.77 13.09-18.3 22.96-32.6 28.43zM-58.5 568.85c7.72-.28 15.18-1.2 23.18-2.13 14.42-1.77 29.47-3.57 45.27-1.16 17.5 2.62 34.1 12.43 50.02 21.86 4.3 2.54 8.58 5.07 12.93 7.48 40.43 22.53 82.8 30.83 113.44 22.21 16.73-4.69 30.1-15.06 37.9-29.39 7.52-13.9 8.88-30.5 3.77-46.63-3.9-12.43-10.96-24.18-18.41-36.64-4.95-8.17-10-16.62-14.25-25.49-17.46-36.36-17.98-73.53-18.35-109.47-.12-8.42-.21-17.06-.5-25.62-1.38-37.48-9.27-69.26-24.13-97.2-17.73-33.15-46.43-61.14-78.77-76.81-35.51-17.25-71.66-17.12-89.95.27a45.53 45.53 0 00-4.82 5.6c-3.33 4.16-6.72 8.45-12.5 10.13-7.44 2.1-19.16-1.66-37.02-11.95-3.44-2-6.92-4.1-10.66-6.31-11.76-6.95-23.85-14.21-36.76-19.66-41.46-17.43-88.7-21.08-129.48-9.86-11.13 3.08-23.67 7.24-32.13 15.08-8.7 8.04-11.88 18.47-8.69 28.5 3.02 9.54 9.77 19.06 19 30.3 19.53 23.9 31.4 53.51 33.4 83.37 1.08 16.5-.72 32.5-2.42 47.93-1.4 12.85-2.84 26.15-2.67 39.47.74 45 20.35 91.47 53.64 127.55 34.24 37.11 84.94 60.21 128.96 58.57z" fill="url(#paint4_linear)"/><path d="M184.64 612.4a53.26 53.26 0 01-6.58 2.1c-30.1 8.1-71.7-.18-111.57-22.08-4.09-2.29-8.3-4.63-12.34-7.05-15.55-9.04-31.7-18.5-48.68-20.88-15.29-2.18-29.85-.78-44 .57-8.35.84-16.2 1.6-24.2 1.66-43.82.5-93.47-22.9-126.63-59.46-32.54-36.05-51.24-82.1-51.27-126.1.03-13.08 1.7-26.04 3.34-38.55 2.07-15.57 4.12-31.77 3.1-48.4-1.76-27.81-13.12-56.66-31.95-81.25-9.17-11.91-14.31-21.72-16.33-30.9-2.12-10.01 1.98-19.72 11.59-27.35 8.23-6.47 19.05-10.08 32.83-13.54 41.05-10.25 87.46-6.5 127.47 10.2 15.45 6.52 30.17 15.87 43.1 24.2 1.82 1.12 3.58 2.38 5.37 3.4 12.6 8.03 26.47 16 34.03 14.5 4.77-.97 7.5-4.48 10.28-8.11a43.08 43.08 0 014.46-5.14c17.98-16.52 53.43-15.95 88.3 1.32 31.75 15.8 59.86 43.37 76.92 75.6 14.39 27.26 21.93 58.42 22.9 95.1.24 7.62.33 15.4.31 22.9.27 36.52.65 71.06 16.57 106.51 3.72 8.32 8.03 16.2 12.22 23.81 6.44 11.78 12.59 22.8 16.1 34.52 4.86 16.03 3.3 32.37-4.34 46-6.62 12.06-17.55 21.28-31 26.42zm-247.26-47.33c7.91-.03 15.76-.79 24.02-1.6 14.25-1.38 28.94-2.72 44.45-.52 17.23 2.5 33.57 11.89 49.29 21.08 4 2.32 8.16 4.8 12.3 6.96 39.48 21.72 80.64 29.95 110.23 21.94 16.11-4.34 29.07-14.12 36.61-27.72 7.37-13.2 8.88-29.1 4.22-44.66-3.46-11.52-9.47-22.5-15.88-34.18-4.19-7.6-8.53-15.58-12.34-23.86-16.07-35.83-16.46-72.08-16.73-107.2-.08-7.47-.16-15.26-.4-22.88-1.1-36.41-8.49-67.2-22.72-94.3-16.64-31.44-45.15-59.5-76.08-74.85-34.24-16.99-69-17.71-86.4-1.63a31.49 31.49 0 00-4.2 4.94c-2.89 3.67-5.88 7.6-11.34 8.72-8.12 1.72-21.79-6-35.27-14.66-1.73-1.16-3.55-2.28-5.37-3.4-12.9-8.24-27.52-17.63-42.84-24.08-39.86-16.86-85.92-20.54-126.6-10.43-13.5 3.34-24.13 6.88-32.17 13.28-5.27 4.16-13.74 13.07-10.97 25.61 1.9 8.91 6.98 18.53 15.95 30.2 19.03 24.83 30.5 53.96 32.3 82.18 1.1 16.82-1.04 33.06-3.08 48.72-1.63 12.51-3.35 25.37-3.32 38.32.02 43.68 18.64 89.24 50.97 125.04 32.74 36.3 81.96 59.43 125.37 58.98z" fill="url(#paint5_linear)"/><path d="M176.22 608.03a62.34 62.34 0 01-7.05 2.27c-29.42 7.62-68.86-.3-108.32-21.71-3.93-2.14-7.8-4.41-11.62-6.58-15.36-8.8-31.27-17.91-47.99-20.18-14.8-2.05-29.07-.98-42.95-.05a283.6 283.6 0 01-25.4 1.05c-43.08-.64-91.28-24.17-122.69-59.8-31.57-35.77-49.25-80.83-48.6-123.59.18-12.7 2.06-25.41 3.9-37.68 2.3-15.77 4.76-32.02 3.73-48.97-1.65-26.14-12.55-54.62-30.86-80.06-7.95-10.98-12.25-21.11-13.32-30.88-.97-9.26 3.85-17.64 14.04-24.32 8.12-5.36 18.53-8.38 32.73-11.57 41.5-9.35 85.66-5.59 124.34 10.44 18.44 7.61 35.59 19.68 49.37 29.4 13.46 9.4 26.07 17.75 32.43 17.02 4.32-.47 6.6-3.48 9.02-6.66 1.23-1.54 2.42-3.17 3.95-4.5 17.33-15.42 50.5-14.1 84.56 3.28 30.47 15.53 58.23 43.03 74.23 73.63 13.75 26.43 20.8 56.6 21.45 92.12.16 6.57.13 13.22.19 19.52.24 35.88.37 69.78 15.02 104.97 3.15 7.68 6.8 14.96 10.24 22 5.42 11.08 10.6 21.53 13.63 32.25 4.32 15.48 2.6 31.13-4.93 44.18-6.26 11.07-16.49 19.59-29.1 24.42zm-243.09-46.8c8.3.15 16.54-.43 25.18-1.07 13.89-.92 28.24-2.03 43.27.04 17.04 2.26 32.98 11.46 48.5 20.4 3.84 2.18 7.7 4.45 11.59 6.5 38.98 21.26 78.07 29.11 107.11 21.63 15.4-3.97 27.95-13.16 35.27-25.92 7.3-12.54 8.97-27.74 4.7-42.8-2.96-10.55-8.04-21.02-13.52-31.99-3.44-7.03-7.09-14.31-10.28-22.08-14.75-35.47-14.95-69.55-15.13-105.57 0-6.42-.07-13.04-.2-19.52-.66-35.3-7.6-65.19-21.29-91.43-15.85-30.23-43.32-57.51-73.53-72.93-33.42-17.09-65.95-18.44-82.74-3.56-1.37 1.17-2.57 2.8-3.7 4.31-2.49 3.3-5.16 6.68-10.16 7.31-7 .75-19.32-7.38-33.62-17.32-13.74-9.62-30.86-21.6-49.07-29.19-38.34-15.95-82.15-19.63-123.37-10.38-14.01 3.11-24.2 6.16-32.17 11.35-6.67 4.37-14.38 11.93-13.3 22.87.95 9.48 5.25 19.3 13.03 30.13 18.5 25.68 29.52 54.44 31.18 80.9 1.25 16.97-1.16 33.31-3.53 49.21-1.88 12.18-3.7 24.76-3.87 37.46-.7 42.35 16.92 87 48.17 122.48 31.17 35.28 78.81 58.48 121.48 59.18z" fill="url(#paint6_linear)"/><path d="M167.84 603.74a68.13 68.13 0 01-7.47 2.32c-28.37 7-66.7-.8-105.02-21.47-3.63-1.93-7.33-4.05-10.86-6.02-15.16-8.54-30.83-17.32-47.26-19.39-14.29-1.8-28.19-1.2-41.55-.58-9.26.44-18 .8-26.82.42-42.34-1.78-89.05-25.34-118.84-60.09-30.49-35.44-47.17-79.6-45.8-121.03.38-12.45 2.5-24.83 4.57-36.76 2.69-15.91 5.48-32.4 4.47-49.57-1.89-31.5-17.3-60.3-29.8-78.97-7.17-10.63-10.5-20.71-10.21-30.89.16-8.52 5.52-15.5 16.44-21.39 8.53-4.55 19.38-6.99 32.58-9.69 41.36-8.33 84.39-4.46 121.14 10.7 18.7 7.73 35.91 19.99 50.29 30.97l3.01 2.28c12.16 9.37 22.7 17.33 27.86 17.39 3.77.05 5.53-2.33 7.65-5.18a24.21 24.21 0 013.35-3.85c16.51-13.93 48.26-11.84 80.91 5.22 29.61 15.54 56.33 42.25 71.64 71.62 13.21 25.57 19.78 54.75 20.03 89.24.03 5.13.06 10.25.06 15.29.01 35.54.09 69.03 13.34 104.21 2.65 6.91 5.43 13.35 8.05 19.62 4.58 10.57 8.81 20.5 11.37 30.56 3.83 15.02 1.86 30.02-5.55 42.27-6.28 10.44-15.82 18.27-27.58 22.77zm-411.32-444.86a51.33 51.33 0 00-6.3 2.84c-10.3 5.55-15.39 12.1-15.58 20-.2 9.82 3.01 19.62 9.99 30 12.66 18.82 28.18 47.9 30.08 79.72 1.08 17.36-1.77 33.98-4.42 49.99-1.98 11.89-4.1 24.26-4.5 36.63-1.3 41.07 15.24 84.85 45.49 119.96 29.55 34.4 75.75 57.74 117.63 59.48 8.73.4 17.44-.04 26.7-.48 13.46-.65 27.36-1.26 41.78.6 16.77 2.15 32.48 11.02 47.77 19.63 3.53 1.96 7.23 4.08 10.86 6 38.03 20.47 75.91 28.24 103.87 21.28 14.79-3.62 26.82-12.19 33.92-24.12 7.14-11.83 9.03-26.48 5.39-41.03-2.5-9.87-6.73-19.8-11.3-30.37a363.85 363.85 0 01-8.09-19.71c-13.45-35.44-13.41-69.18-13.46-104.82 0-5.03-.03-10.16-.06-15.28-.27-34.27-6.82-63.14-19.87-88.55-15.08-29.03-41.63-55.6-70.95-70.93-32.13-16.82-63.15-18.97-79.09-5.49-1.22 1-2.2 2.35-3.13 3.56-2.12 2.84-4.4 5.86-8.93 5.77-5.7-.07-15.95-7.81-28.85-17.76l-3.01-2.27c-14.35-10.9-31.47-23.18-49.91-30.8-36.5-15.04-79.17-18.84-120.24-10.61-9.97 2.2-18.6 4.01-25.79 6.76z" fill="url(#paint7_linear)"/><path d="M159.5 599.33c-2.51.96-5.2 1.78-8.05 2.44-27.32 6.39-64.4-1.26-101.78-21.11-3.37-1.82-6.77-3.73-10.15-5.54-14.95-8.3-30.3-16.78-46.55-18.7-13.6-1.64-26.84-1.28-39.71-1.07-10 .19-19.42.48-28.79-.22-41.46-2.87-86.59-26.5-114.85-60.33-29.27-35.05-45.06-78.26-43.03-118.55.58-12.21 2.93-24.25 5.07-36 3.06-16.05 6.13-32.64 5.15-50.04-1.38-23.46-11.07-49.62-28.7-77.78-6.6-10.53-8.94-20.56-7.21-30.86 1.65-9.95 10.96-15.01 18.79-18.33 8.2-3.46 18.13-5.23 30.7-7.36l1.82-.27c29.22-5.08 73.43-7.34 118 10.94 15.77 6.49 32.48 17.12 51.17 32.66 3.28 2.71 6.34 5.4 9.33 7.89C-20.2 214.87-13.04 221-9.3 221.5c3.18.5 4.59-1.43 6.25-3.79a13.82 13.82 0 012.84-3.22c15.97-12.54 45.5-9.82 77.2 7.28 28.85 15.5 54.65 41.5 68.96 69.65 12.63 24.61 18.62 52.83 18.6 86.36.01 3.1.02 6.2-.06 9.34-.15 35.7-.37 69.52 11.74 105.36 1.81 5.3 3.52 10.32 5.25 15.12 4.01 11.32 7.54 21.1 9.72 30.98 6.03 27.24-6.84 51.23-31.68 60.74zm-234.78-45.8c9.33.6 18.7.45 28.69.26 12.84-.3 26.21-.6 39.93 1.1 16.48 1.94 32.08 10.53 47.17 18.89 3.28 1.85 6.78 3.72 10.15 5.54 36.98 19.68 73.75 27.34 100.66 21 29.17-6.88 44.96-32.2 38.45-61.51-2.17-9.88-5.67-19.57-9.64-30.79-1.73-4.8-3.53-9.78-5.25-15.12-12.1-36.06-12-69.94-11.83-105.87-.01-3.1-.02-6.2.06-9.34.13-33.24-5.97-61.2-18.4-85.57-14.17-27.77-39.77-53.53-68.36-68.92C45.29 206.4 16.3 203.68.82 215.8c-.98.8-1.76 1.85-2.53 2.9-1.67 2.35-3.65 5.03-7.76 4.36-4.11-.67-11.08-6.57-20.75-14.76-2.98-2.5-6.01-5.09-9.33-7.88-18.53-15.4-35.23-26.03-50.74-32.4-44.22-18.2-88.12-15.96-117.11-10.85l-1.83.26c-12.44 2.2-22.27 3.93-30.29 7.32-11.15 4.7-16.62 10-17.82 17.2-1.12 6.32-1.47 16.3 7.04 29.86 17.83 28.4 27.6 54.75 28.98 78.53 1.1 17.68-2.16 34.34-5.19 50.5-2.18 11.64-4.44 23.64-5.05 35.76-1.98 39.84 13.66 82.68 42.7 117.4 27.73 33.28 72.38 56.77 113.58 59.52z" fill="url(#paint8_linear)"/><path d="M151.12 595.04a53.06 53.06 0 01-8.47 2.5c-26.23 5.86-62.11-1.71-98.52-20.75-3.08-1.61-6.32-3.37-9.3-5-14.73-7.97-30-16.26-46-18.06-12.63-1.38-25.16-1.4-37.2-1.5-10.92 0-21.2-.02-31.31-.97-41.36-3.98-83.97-27.18-111.1-60.59-28.08-34.76-42.76-77-40.22-115.98.77-11.97 3.23-23.73 5.67-35.26 3.34-16.16 6.82-32.8 5.82-50.52-1.25-22-10.3-47.03-27.64-76.69-6.23-10.68-7.62-20.74-4.14-30.96 2.74-8.23 10.87-14.12 21.1-15.36 5.5-2.97 12.63-3.66 20.8-4.43 3.71-.35 7.52-.74 11.58-1.33 29.19-4.32 72.9-5.95 114.92 11.26 16.76 6.86 34.36 18.44 52.03 34.38 5.4 4.89 10.18 9.27 14.38 13.23 6.3 5.83 10.86 10.19 13.3 11.82 2.68.27 3.7-.98 4.93-2.52.66-.8 1.28-1.67 2.3-2.38 15.4-10.94 43.55-7.36 73.46 9.25 28 15.51 52.78 40.82 66.37 67.64 12 23.78 17.59 50.98 17.14 83.38-.1 7.86-.54 15.95-.9 23.69-1.56 30.04-3 58.43 10.83 85.9l.04.1.03.09c1.06 10.3 3.7 18.6 6.3 26.5 1.72 5.34 3.3 10.3 4.28 15.39 4.7 26.25-7.41 48.34-30.48 57.17zM-79.49 549.8c10.1.95 20.3 1.01 31.22 1 12.09-.01 24.63 0 37.38 1.44 16.32 1.78 31.63 10.17 46.47 18.19 3.08 1.6 6.23 3.4 9.3 5 36.03 18.87 71.56 26.37 97.42 20.64 27.75-6.12 42.8-29.45 37.7-57.9-.95-5-2.53-9.95-4.22-15.2-2.48-7.61-5.27-16.29-6.26-26.72-13.95-27.75-12.31-57.61-10.86-86.54.36-7.74.83-15.74.93-23.6.42-32.17-5.1-59.18-16.99-82.69-13.38-26.57-37.96-51.63-65.8-67-29.4-16.37-56.96-19.85-71.88-9.32-.77.51-1.34 1.26-2 2.05-1.28 1.67-2.82 3.54-6.41 3.1l-.23-.02-.13-.06c-2.53-1.6-7.22-6.01-13.69-12a916.9 916.9 0 00-14.38-13.23c-17.63-15.84-34.97-27.3-51.6-34.1-41.65-17.05-85.07-15.52-114.13-11.15-4.15.63-7.96 1.02-11.68 1.37-8.07.74-15.06 1.49-20.32 4.25l-.1.03-.1.04c-9.72 1.16-17.4 6.56-20 14.3-3.25 9.7-1.97 19.49 4.09 29.7 17.51 29.8 26.57 55.15 27.89 77.34.92 18.07-2.62 34.84-6.02 51.13-2.38 11.4-4.84 23.16-5.65 35.04-2.55 38.66 11.98 80.53 39.92 114.92 26.96 32.94 69.09 56 110.13 60z" fill="url(#paint9_linear)"/><path d="M142.51 590.73a55.47 55.47 0 01-8.65 2.57c-25.19 5.25-59.86-2.25-95.2-20.42-2.81-1.5-5.63-2.98-8.45-4.47C15 560.3.6 552.64-15.2 551.09c-11.47-1.18-22.9-1.4-33.93-1.68-12.1-.29-23.54-.52-34.69-1.93-40.57-5.02-81.64-28.39-107.15-60.92-26.96-34.33-40.64-75.67-37.52-113.38.98-11.72 3.64-23.23 6.18-34.49 3.76-16.2 7.57-33.09 6.6-51.02-1.47-26.21-14.26-52.9-26.55-75.5-6.02-10.98-6.37-21.12-1.13-30.94 3.97-7.52 12.97-12.25 23.45-12.3 5.16-2.19 11.38-2.43 18.74-2.78 4.3-.26 8.72-.45 13.54-1.01 42.53-5.25 80.08-1.42 111.7 11.53 23.46 9.54 43.3 26.68 52.95 35.95 11.37 10.96 19.7 20.4 24.23 25.52.76.89 1.46 1.58 1.9 2.17 2.01.5 2.49-.2 3.3-1.16.51-.63 1.08-1.38 2.01-1.74 12.16-10.75 38.88-6.42 69.72 11.22 27.53 15.7 50.74 39.69 63.78 65.64 11.45 22.92 16.6 49.22 15.72 80.5-.2 7.57-.73 15.16-1.14 22.5-1.84 28.75-3.53 55.95 9.27 82.1l.07.2-.02.21c.14 10.44 2.02 18.72 3.73 25.99.95 4.13 1.87 7.95 2.33 11.95 3.27 24.77-8.1 44.86-29.39 53.01zm-373.15-418.45c-5.14 1.97-9.2 5.34-11.51 9.65-5 9.3-4.61 19 1.14 29.55 12.36 22.78 25.31 49.63 26.7 76.19.95 18.16-2.86 35.04-6.67 51.38-2.59 11.16-5.25 22.67-6.16 34.26-3.14 37.4 10.4 78.36 37.25 112.42 25.27 32.19 66.05 55.34 106.18 60.32 11.14 1.42 22.48 1.68 34.55 1.88 11.03.27 22.47.5 34.07 1.73 16.06 1.67 31.23 9.68 45.91 17.55l8.46 4.47c35.07 18.06 69.4 25.48 94.3 20.33 26.06-5.48 40.51-26.75 36.93-54.29-.52-3.87-1.35-7.73-2.35-11.73-1.71-7.27-3.6-15.55-3.77-26.08-12.9-26.43-11.12-55.06-9.35-82.62.5-7.36.89-15 1.13-22.49.86-31.05-4.21-57.17-15.56-79.8-12.84-25.72-35.85-49.46-63.12-65.04-30.42-17.37-56.6-21.7-68.23-11.25l-.06.13-.1.03c-.64.25-1 .71-1.51 1.34-.88 1.08-1.92 2.55-5.06 1.61l-.22-.02-.17-.15a37.76 37.76 0 01-2.06-2.32c-4.5-5.02-12.82-14.47-24.2-25.43-9.64-9.26-29.19-26.2-52.52-35.68-31.45-12.8-68.78-16.6-111-11.37-4.91.6-9.52.86-13.63 1.04-7.26.32-13.45.65-18.33 2.74l-.1.03-.13-.06c-3.93-.2-7.54.43-10.81 1.68z" fill="url(#paint10_linear)"/><path d="M134.69 586.24a56.36 56.36 0 01-9.66 2.73c-24.14 4.63-57.57-2.7-91.99-20.15-2.52-1.28-5.05-2.56-7.6-3.94-15-7.86-29.29-15.24-44.83-16.68a626.8 626.8 0 00-29.49-1.77c-13.7-.54-26.67-1.14-39.2-3.1-39.7-6.1-79.28-29.5-103.27-61.12-25.82-33.9-38.39-74.28-34.7-110.81 1.17-11.48 4.03-22.75 6.68-33.72 4.04-16.32 8.26-33.25 7.3-51.4-1.3-24.67-13.24-50.3-25.48-74.41-5.75-11.4-5.1-21.72 2-30.86 5.22-6.81 15.1-10.38 25.77-9.33 4.78-1.5 10.35-1.5 16.9-1.44 4.63.05 9.8.11 15.24-.47 43.78-4.24 78.29-.53 108.58 11.76 24.85 10.08 44.4 27.87 53.82 37.65C-1.62 233.23 7 245.14 9.36 249.59c1.45.73 1.66.44 1.96.1a2.3 2.3 0 011.5-1.1c11.24-9.55 35.83-4.61 65.98 13.18 26.68 15.7 48.93 38.88 61.1 63.67 10.81 22.1 15.47 47.4 14.25 77.52-.25 7.17-.88 14.48-1.43 21.43-2.12 27.48-4.08 53.39 7.67 78.23l.08.19-.03.22c-.7 7.97.22 14.26 1.06 19.83.76 5.06 1.37 9.44.65 14a37.44 37.44 0 01-3.74 30.23c-5.07 8.58-13.45 15.21-23.72 19.14zM-224.8 174.97c-4.02 1.53-7.4 3.9-9.67 6.91-6.74 8.68-7.32 18.65-1.81 29.4 12.26 24.2 24.28 50.01 25.6 75 .93 18.38-3.26 35.4-7.35 51.85-2.69 10.88-5.55 22.14-6.66 33.5-3.7 36.2 8.85 76.27 34.44 109.84 23.88 31.33 63.07 54.56 102.43 60.59 12.4 1.89 25.37 2.5 39.07 3.03 9.67.37 19.6.85 29.57 1.74 15.86 1.43 30.86 9.28 45.3 16.82 2.53 1.28 5.1 2.65 7.62 3.94 34.06 17.37 67.23 24.59 91.06 19.96 14.24-2.77 26.06-10.5 32.55-21.24a35.58 35.58 0 003.6-29.21l-.08-.19.06-.13c.7-4.33.1-8.7-.63-13.68-.84-5.56-1.66-11.89-1-19.96-11.9-25.21-9.88-51.25-7.76-78.73.55-6.95 1.09-14.23 1.34-21.4 1.28-29.93-3.4-55.01-14.13-76.92-12.06-24.51-34.12-47.44-60.54-63.03-29.73-17.53-53.9-22.51-64.58-13.18l-.15.16-.22-.02c-.32.02-.37.14-.68.47-.77 1.05-1.67 1.5-3.94.34l-.16-.16-.07-.18c-2.25-4.18-10.81-16.2-24.47-30.36-9.39-9.69-28.68-27.36-53.36-37.29-30.04-12.17-64.32-15.85-107.91-11.7-5.58.53-10.84.51-15.46.46-6.46-.1-12.03-.1-16.59 1.43l-.1.03-.12-.06c-5.62-.41-10.81.29-15.2 1.97z" fill="url(#paint11_linear)"/><path d="M126.4 581.91a55.05 55.05 0 01-10.26 2.86c-31.47 5.62-69.03-9.98-88.74-19.79-2.23-1.07-4.4-2.27-6.64-3.35-14.89-7.57-28.97-14.7-44.38-16.1a792.16 792.16 0 00-23.4-1.53c-16-.94-31.06-1.7-45.36-4.37-38.7-7.13-76.84-30.66-99.43-61.42-24.57-33.42-36.14-72.9-31.94-108.34 1.38-11.23 4.31-22.31 7.26-33.08 4.44-16.37 9.04-33.44 8.1-51.82-1.22-23.62-12.72-48.35-22.85-70.06l-1.57-3.25c-7.3-15.73-.03-26.12 5.1-30.87 6.4-5.97 17.1-8.47 28.09-6.36 4.32-1 9.4-.6 15.21-.25 4.96.35 10.67.73 16.82.3 30.01-2.17 69.11-2.68 105.46 12 19.1 7.67 39.04 22 54.68 39.35C5.53 240.13 13.9 253.32 15.53 259c.59.41.92.72 1.08.87l.1-.04c.18-.07.4-.05.54.01 10.28-8.11 32.83-2.61 62.17 15.28 25.82 15.71 47.06 38.2 58.5 61.66 10.38 21.51 14.53 45.2 12.84 74.65-.4 6.79-.98 13.65-1.64 20.33-2.43 26.1-4.64 50.81 6.2 74.4l.08.18-.02.22a79.4 79.4 0 00-1.42 17.57c.01 4.5-.01 8.36-1.24 12.15a33.92 33.92 0 01-3.81 27.8c-4.97 8-12.9 14.14-22.52 17.82zm-218.52-43.56c14.26 2.57 29.27 3.47 45.27 4.41a978 978 0 0123.49 1.5c15.69 1.28 29.84 8.6 44.87 16.24 2.13 1.1 4.4 2.27 6.63 3.34 19.45 9.7 56.75 25.18 87.85 19.7 13.82-2.5 25.4-9.72 31.66-19.94a32.8 32.8 0 003.6-26.96l-.07-.2.02-.21c1.26-3.7 1.26-7.34 1.31-11.96-.02-4.81-.01-10.38 1.42-17.57-10.96-23.86-8.66-48.62-6.17-74.84.57-6.64 1.25-13.54 1.64-20.33 1.67-29.23-2.4-52.72-12.7-74.05-11.25-23.22-32.42-45.52-57.99-61.11-28.62-17.42-51.47-23.13-60.93-15.12l-.34.24-.29-.21-.19.07c-.37.14-.76-.03-2.37-1.45l-.16-.15-.08-.19c-1.44-5.44-9.77-18.53-22.74-32.84-15.57-17.16-35.24-31.37-54.22-38.99-36.1-14.56-74.97-14.02-104.88-11.89-6.25.47-11.97.08-17.01-.23-5.81-.35-10.76-.7-15 .27l-.09.04-.13-.06c-10.63-2.03-21 .23-27.05 5.97-5.8 5.54-11.46 15.1-4.73 29.33l1.57 3.25c10.2 21.9 21.8 46.59 23.03 70.53.91 18.6-3.69 35.67-8.15 52.27-2.89 10.63-5.82 21.71-7.23 32.85-4.35 35.07 7.21 74.23 31.58 107.4 22.35 30.43 60.19 53.74 98.58 60.9z" fill="url(#paint12_linear)"/><path d="M118.2 577.56a55.68 55.68 0 01-10.99 2.92c-29.95 4.82-66.4-10.13-85.4-19.46l-5.53-2.7c-14.82-7.4-28.7-14.29-44.04-15.48-4.95-.35-9.9-.7-14.73-1-19.11-1.25-37.24-2.45-54.14-6.05-37.8-8.12-74.39-31.8-95.54-61.61-23.32-32.94-33.9-71.5-29.23-105.74 1.57-10.99 4.7-21.82 7.76-32.3 4.81-16.52 9.77-33.51 8.82-52.21-1.06-21.23-10.42-42.6-19.4-63.25-1.36-3.01-2.6-5.96-3.83-8.92-7.38-17.3 3.26-27.26 8.14-30.74 7.4-5.3 19.03-6.53 30.4-3.39 4.06-.59 8.58.03 13.77.72 5.32.75 11.4 1.53 18.13 1.2 31.27-1.37 67.7-1.6 102.33 12.23 19.97 7.99 40.25 22.92 55.6 40.93 13.82 16.23 20.71 29.76 21.36 35.93.68.93 1.02 1.54 1.01 2.08 9.69-5.74 29.91.65 57.38 17.87 24.97 15.71 45.26 37.4 55.83 59.69 9.83 20.65 13.43 43.47 11.4 71.76-.5 6.51-1.13 12.96-1.84 19.23-2.7 24.8-5.2 48.25 4.61 70.51l.07.19-.11.26c-1.99 6-2.85 10.73-3.67 14.47-.88 4.4-1.55 7.98-3.53 11.2 2.38 8.72 1 17.71-3.98 25.4-4.4 7.25-11.69 12.83-20.66 16.26zm-214.48-43.08c16.81 3.63 34.8 4.77 53.96 6.12 4.95.35 9.87.61 14.73 1 15.52 1.12 29.57 8.17 44.52 15.61l5.53 2.7c18.86 9.27 55.06 24.12 84.7 19.3 13.42-2.14 24.74-8.93 30.9-18.57a29.8 29.8 0 003.73-24.67l-.1-.28.1-.25c1.9-3.19 2.57-6.45 3.48-11.08.72-3.7 1.6-8.42 3.57-14.43-9.91-22.55-7.33-46.02-4.66-70.92.71-6.27 1.44-12.75 1.85-19.23 2.1-28.1-1.5-50.61-11.25-71.07-10.46-22.02-30.68-43.51-55.4-59.11-27.96-17.67-48.83-23.81-57.27-17.05l-.68.47-.38-.7c-.41-.81-.05-1.27.25-1.6l.1-.04s-.02-.31-.93-1.57l-.07-.19-.07-.18c-.6-5.77-7.4-19.34-21.05-35.42-15.19-17.85-35.21-32.67-55.06-40.6-34.4-13.81-70.57-13.46-101.76-12.12-6.85.27-12.93-.51-18.34-1.22-5.2-.7-9.68-1.23-13.65-.67l-.09.03-.13-.06c-10.96-3.19-22.27-1.96-29.43 3.13-4.63 3.28-14.78 12.84-7.73 29.3 1.24 2.96 2.57 5.87 3.84 8.92 9.1 20.71 18.5 42.17 19.53 63.62.9 18.83-4.08 36.04-8.9 52.56-3.05 10.48-6.22 21.22-7.7 32.18-4.69 33.91 5.85 72.07 29 104.86 21.03 29.75 57.32 53.22 94.86 61.23z" fill="url(#paint13_linear)"/><path d="M110.03 573.3a54.35 54.35 0 01-11.61 2.94c-21.02 3.01-50.28-3.78-82.16-19.1-1.45-.72-2.87-1.35-4.33-2.08-14.71-7.11-28.65-13.88-43.83-14.92l-1.74-.08c-22.86-1.53-46.48-3.09-67.28-8.2-37.37-9.24-71.6-32.34-91.7-61.9-22.05-32.46-31.65-70.12-26.42-103.17 1.74-10.84 5.07-21.43 8.23-31.64 5.23-16.56 10.56-33.7 9.67-52.52-.88-19.37-9.02-38.95-16.88-57.79-1.84-4.54-3.7-8.86-5.35-13.15-5.85-15 1.94-25.7 11.25-30.76 8.53-4.55 21-4.72 32.7-.42 3.8-.17 7.85.64 12.61 1.6 5.56 1.09 11.94 2.39 19.28 2.26 29.07-.42 65.26-1 99.12 12.49 20.58 8.18 41.67 24.1 56.47 42.63 11.96 15.01 19.92 30.5 19.74 38.7.91 2.11.42 3.05-.3 3.97 10.96-4.95 34.72 7.9 53.17 20.01 23.98 15.66 43.39 36.72 53.24 57.68 9.28 19.8 12.43 41.71 9.85 68.83-.55 6.1-1.3 12.27-2.11 18.26-3.02 23.43-5.79 45.58 3.11 66.59l.1.28-.1.26c-1.77 3.78-3.2 6.78-4.3 9.46-2.55 5.68-3.97 9.23-7.23 12.19a28.83 28.83 0 01-4.02 23.06c-4.16 6.2-10.96 11.37-19.18 14.51zm-318.56-392.78c-1.03.4-1.93.85-2.92 1.33-4.27 2.28-17.68 11.16-10.65 29.24 1.64 4.3 3.51 8.62 5.35 13.16 7.93 19.02 16.01 38.73 16.96 58.29.87 19.04-4.51 36.31-9.7 52.97-3.16 10.2-6.5 20.8-8.18 31.5-5.24 32.74 4.34 70.08 26.2 102.3 19.9 29.32 53.86 52.3 90.98 61.43 20.57 5.08 44.2 6.64 67.05 8.17l1.74.08c15.5 1.03 29.43 7.8 44.28 14.96 1.45.73 2.87 1.37 4.33 2.1C48.66 571.3 77.57 578 98.4 575.06c13.08-1.9 24.08-8.15 30.04-17.18 4.54-6.87 5.85-14.65 3.74-22.41l-.15-.38.25-.2c3.16-2.92 4.6-6.15 7.16-12.05 1.1-2.46 2.48-5.56 4.19-9.2-8.88-21.24-6.06-43.52-3.07-67.04.72-5.95 1.5-12.03 2.05-18.13 2.46-26.86-.6-48.6-9.83-68.2-9.64-20.72-28.98-41.58-52.8-57.1-27.7-18.09-46.24-24.59-53.72-18.94l-.92.67-.02-1.17c-.08-1.04.53-1.7.98-2.2.6-.65 1.06-1.15.21-3.07l-.03-.1.06-.13c.28-6.53-5.73-20.83-19.5-38.04-14.63-18.38-35.55-34.15-56-42.27-33.64-13.47-69.7-12.84-98.68-12.45-7.43.17-13.82-1.14-19.5-2.28-4.72-.87-8.78-1.67-12.38-1.58l-.13-.05c-10.1-3.74-20.85-4.12-28.88-1.05z" fill="url(#paint14_linear)"/><path d="M101.96 569a50.61 50.61 0 01-12.34 3c-25.47 3.12-57-8.48-78.94-18.82l-3.01-1.42c-14.74-6.88-28.6-13.46-43.7-14.32-21.77-1.2-47.1-3.28-69.05-9.44-36.34-10.18-69.1-33.4-87.75-62.24-20.7-32.01-29.37-68.64-23.62-100.6 1.94-10.6 5.34-21 8.67-31.06 5.54-16.58 11.28-33.76 10.47-52.94-.81-17.78-7.97-35.92-14.82-53.54a509.57 509.57 0 01-6.26-16.34c-5.7-16.02 4.1-26.52 14.3-30.64 9.6-4 22.72-3.02 35.02 2.55 3.49.16 7.2 1.2 11.5 2.34 5.82 1.52 12.52 3.35 20.25 3.39 2.02-.02 3.99.08 6.01.05 26.54.23 59.53.56 89.98 12.68 21.36 8.52 42.78 25.06 57.33 44.33 12.8 16.94 17.62 32.87 18 41.4.12 2.85-.9 4.1-1.74 5.27-.3.33-.5.62-.77 1.05l.28-.11c7.66-2.93 23.6 4.03 49.76 21.75 13.6 9.24 38.2 28.74 50.56 55.7 8.68 19.06 11.43 39.95 8.43 65.95a432.84 432.84 0 01-2.32 17.16c-3.2 22.1-6.34 43.01 1.6 62.67l.12.28-.12.25c-7.28 10.93-10.2 15.04-15.9 17.76 1.67 7.18.25 14.36-4.1 20.63-4.11 5.75-10.37 10.4-17.84 13.25zM-203.2 181.58l-.56.21c-9.64 3.9-19.08 13.94-13.57 29.18 1.91 5.26 3.99 10.68 6.26 16.34 6.94 17.58 14.14 35.81 14.93 53.82.84 19.27-4.95 36.59-10.55 53.3-3.32 10.05-6.77 20.36-8.65 30.82-5.67 31.62 2.92 68.06 23.53 99.79 18.53 28.56 51.13 51.63 87.12 61.73 21.83 6.1 47.05 8.22 68.82 9.42 15.42.84 29.42 7.48 44.19 14.46l3 1.42c21.79 10.18 53 21.8 78.28 18.75 12.7-1.53 23.42-7.35 29.28-15.8a23.88 23.88 0 003.74-20.18l-.08-.5.46-.18c5.65-2.59 8.55-6.48 15.67-17.24-7.83-19.91-4.8-40.78-1.52-63.02.86-5.58 1.61-11.43 2.31-17.16 2.9-25.74.3-46.48-8.4-65.31-12.25-26.69-36.68-46.03-50.16-55.22-27.3-18.46-43.65-25.37-50.07-20.88l-1.1.74.22-1.37a6.2 6.2 0 011.45-2.91c.87-1.08 1.69-2.04 1.52-4.44-.3-8.34-5.14-24.05-17.74-40.75-14.39-19.12-35.65-35.5-56.84-43.87-30.19-12-63.1-12.37-89.53-12.63-2.07-.07-4.09-.05-6.12-.02-7.94-.06-14.64-1.89-20.5-3.5-4.3-1.14-7.97-2.09-11.37-2.29l-.22-.02c-11.72-5.15-24.55-6.23-33.8-2.7z" fill="url(#paint15_linear)"/><path d="M93.8 564.73a52.46 52.46 0 01-13.07 3.07c-24.01 2.45-54.41-8.72-75.6-18.49l-1.43-.63c-14.79-6.76-28.71-13.2-43.88-13.94-27.82-1.34-50.44-4.78-69.15-10.57-35.17-11.06-66.58-34.37-83.86-62.45-19.43-31.43-27-67.19-20.83-98.03 2.05-10.32 5.75-20.51 9.15-30.38 5.91-16.72 12.06-33.96 11.3-53.26-.66-16.56-7.03-33.5-13.2-49.88-2.5-6.54-4.8-12.83-6.8-18.91-2.1-6.6-1.8-12.5.98-17.84 3-5.86 8.94-10.49 16.35-12.68 10.43-3.24 23.05.92 36.38 5.24l.96.28c1.47.5 2.95 1 4.56 1.57 7.17 2.5 16.07 5.63 27.17 6.09 3.59.13 7.3.31 11.07.37 25.48.84 54.33 1.8 81.8 12.59 22.2 8.74 43.96 25.9 58.17 45.94 13.15 18.41 16.97 34.83 16.33 44.07-.2 3.08-1.59 4.79-2.82 6.33-.57.75-1.08 1.38-1.52 2.18 6.4-2.02 20.23 5 46.32 23.4 22.57 15.87 39.61 34.94 47.94 53.6 8.17 18.28 10.34 38.23 6.97 62.97-.72 5.41-1.7 10.93-2.59 16.2-3.52 20.72-6.84 40.3.08 58.64l.1.28-.2.3c-9.11 10.33-13.85 12.79-20.32 13.77a22.67 22.67 0 01-4.08 18.16c-3.76 5.29-9.37 9.37-16.28 12.01zM-109 523.08c18.62 5.83 41.15 9.3 68.84 10.59 15.38.75 29.5 7.12 44.33 13.97l1.42.64c21.15 9.67 51.3 20.73 75.03 18.39 12.39-1.2 22.79-6.47 28.42-14.41 3.91-5.46 5.29-11.66 3.84-17.96l-.12-.6.6-.12c6.5-.89 10.94-3.01 19.99-13.22-6.9-18.56-3.48-38.18 0-59a900.2 900.2 0 002.59-16.2c3.35-24.52 1.12-44.33-6.98-62.43-8.25-18.47-25.13-37.38-47.57-53.2-19.24-13.63-39.82-26.84-46.42-22.82l-1.2.78.45-1.35c.47-1.57 1.34-2.65 2.2-3.74 1.24-1.54 2.4-2.95 2.54-5.68.71-9.05-3.1-25.15-16.08-43.42-14.14-19.86-35.74-36.86-57.71-45.58-27.35-10.73-56.1-11.72-81.45-12.5-3.81-.16-7.49-.25-11.07-.38-11.32-.48-20.22-3.6-27.52-6.16-1.6-.57-3.09-1.07-4.57-1.58l-.96-.27c-13.1-4.3-25.56-8.31-35.7-5.18-7 2.15-12.7 6.57-15.68 12.21-2.6 4.96-2.94 10.77-.9 16.95 1.91 6.12 4.27 12.28 6.78 18.82 6.2 16.47 12.57 33.4 13.3 50.15.83 19.5-5.37 36.86-11.34 53.71-3.53 9.8-7.14 19.97-9.22 30.19-6.16 30.63 1.4 66.06 20.72 97.22 17.37 28.04 48.49 51.14 83.44 62.18z" fill="url(#paint16_linear)"/><path d="M85.73 560.43a50.08 50.08 0 01-13.83 3.05c-18.01 1.32-42.4-4.76-72.36-18.13-14.08-6.29-28.54-12.74-43.85-13.3-25.84-.93-49.8-5.04-69.21-11.85-34.1-11.89-63.97-35.37-80.02-62.74-18.13-30.86-24.72-65.7-18.15-95.52 2.22-10.17 6.02-20.08 9.62-29.7 6.32-16.77 12.88-34.06 12.11-53.68-.58-15.52-6.34-31.4-11.9-46.74a303.39 303.39 0 01-7.02-20.86c-1.9-6.66-1.22-12.7 1.81-17.94 3.6-5.98 10.49-10.65 18.48-12.42 12.13-2.72 26.73 3.26 39.66 8.48 1.38.54 2.8 1.18 4.22 1.81 7.16 3.04 16.04 6.93 27.37 7.73 4.83.3 9.78.64 15.01.89 23.3 1.26 49.72 2.6 74.68 12.42 22.58 8.92 45.28 27.1 59.03 47.65 13.34 19.73 16.22 37.05 14.59 46.78-.55 3.31-2.23 5.35-3.82 7.35-.88 1.08-1.75 2.16-2.45 3.4 6.44-1.08 21.95 9.8 42.73 25.19 15.34 11.26 35.53 29.33 45.34 51.6 10.06 22.92 8 45.23 5.55 60.08a428.73 428.73 0 01-2.81 15.32c-3.84 19.35-7.34 37.61-1.47 54.63l.15.38-.25.2c-10.27 8.97-16.66 10.45-24.64 9.75.94 5.53-.5 11-4.12 15.82-3.22 4.45-8.29 8-14.45 10.35zm-198.88-41.22c19.28 6.75 43.1 10.8 68.94 11.72 15.54.59 30.13 7.1 44.3 13.35 29.83 13.31 54.03 19.47 71.92 18.08 12.05-.97 22.13-5.68 27.66-13.05 3.62-4.81 4.87-10.21 3.75-15.67l-.16-.7.67.07c7.97.7 14.25-.53 24.28-9.3-5.82-17.15-2.26-35.53 1.58-54.88.99-4.98 2-10.19 2.85-15.23 2.39-14.73 4.43-36.81-5.43-59.49-9.64-22.11-29.8-40.1-44.98-51.2-21.16-15.57-37.75-27.31-42.86-24.71l-1.18.56.48-1.26c.68-1.87 1.85-3.28 3.02-4.69 1.54-1.87 3.07-3.74 3.6-6.84 1.6-9.5-1.3-26.6-14.4-46-13.68-20.35-36.12-38.42-58.53-47.18-24.84-9.77-51.17-11.15-74.33-12.35-5.23-.24-10.28-.56-15.1-.85-11.47-.86-20.44-4.71-27.73-7.81-1.51-.6-2.93-1.23-4.22-1.8-12.8-5.18-27.27-11.1-38.99-8.43-7.68 1.76-14.41 6.27-17.8 11.96-3.01 5-3.58 10.79-1.78 17.17 1.9 6.66 4.33 13.54 7.02 20.86 5.59 15.43 11.35 31.32 12 47.02.49 19.73-6.09 37.24-12.5 54.04-3.6 9.63-7.31 19.5-9.56 29.58-6.59 29.5-.01 64.03 17.95 94.74 15.98 27.18 45.68 50.5 79.53 62.29z" fill="url(#paint17_linear)"/><path d="M77.79 556.2a46.92 46.92 0 01-14.72 2.95c-16.93.8-39.5-5.01-69.15-17.86-14.75-6.35-28.15-11.71-42.44-12.13-24.66-.63-49.23-5.25-69.32-12.98-32.74-12.52-61.25-36.09-76.1-62.85-16.75-30.31-22.31-64.16-15.35-92.95 2.42-9.92 6.3-19.65 10.1-29.03 6.73-16.82 13.66-34.25 12.95-54-.55-14.57-5.73-29.5-10.73-43.97-2.69-7.86-5.33-15.3-7.13-22.54-1.72-6.73-.76-12.88 2.72-18.07 4.12-6.29 11.9-10.87 20.7-12.2 12.83-2.02 27.22 4.25 41.94 11.36l4.1 2.06c7.1 3.71 16 8.23 27.45 9.3 5.78.58 11.85 1.04 18.23 1.49 21.34 1.47 45.53 3.13 68.33 12.07 23.41 9.13 46.37 27.97 59.96 49.22 13.36 20.9 15.42 39.17 12.93 49.44-.85 3.65-2.93 6.05-4.82 8.38-1.23 1.54-2.4 2.95-3.25 4.67 4.53.08 14.81 7.93 30.97 20.48 2.59 2 5.34 4.17 8.22 6.38 21.27 16.38 35.67 33.03 42.67 49.63 9.34 21.9 6.76 43.13 4.12 57.2-.93 4.86-2.04 9.78-3.04 14.45-4.06 17.93-7.84 34.9-2.91 50.58l.14.37-.33.24c-11.75 7.92-19.9 8.15-29.06 5.77.65 4.78-.8 9.4-4.03 13.53-3.3 3.95-7.74 6.93-13.15 9zm-265.3-372.8c-5.6 2.14-10.27 5.64-13.12 9.94-3.32 5.02-4.2 10.82-2.6 17.27 1.77 7.14 4.41 14.6 7.1 22.45 5.04 14.56 10.22 29.5 10.83 44.25.78 19.94-6.2 37.5-13.03 54.35-3.67 9.44-7.58 19.07-10 29-6.97 28.47-1.39 62.1 15.29 92.22 14.68 26.61 42.99 49.93 75.67 62.59 19.96 7.67 44.4 12.23 68.97 12.9 14.48.34 28.01 5.76 42.8 12.2 29.42 12.83 51.86 18.59 68.67 17.72 11.65-.6 21.5-4.8 26.93-11.6 3.24-4.12 4.55-8.8 3.71-13.51l-.2-.79.71.16c9.16 2.39 17.17 2.32 28.7-5.3-4.78-15.85-1-32.82 3.06-50.75 1.1-4.7 2.11-9.6 3.04-14.44 2.71-13.9 5.15-34.95-4-56.62-6.93-16.4-21.2-33-42.43-49.29-2.88-2.21-5.63-4.37-8.22-6.38-16.03-12.5-27.69-21.42-31.09-20.22l-1.02.4.46-1.04c.98-2.2 2.42-4.03 3.83-5.65 1.84-2.2 3.82-4.56 4.65-7.99 2.48-10.04.42-28-12.73-48.66-13.53-21.06-36.22-39.78-59.5-48.86-22.64-8.79-46.74-10.48-68.07-11.95-6.39-.45-12.55-.88-18.33-1.45-11.6-1.23-20.51-5.74-27.74-9.51l-4.1-2.07c-14.6-7.05-28.76-13.3-41.36-11.26a41.6 41.6 0 00-6.88 1.89z" fill="url(#paint18_linear)"/><path d="M69.88 552.04a47.02 47.02 0 01-15.6 2.87c-20.72.44-47.44-9.79-65.82-17.53-12.77-5.39-26.55-10.61-41-10.86-24-.34-48.72-5.34-69.33-14.15-32.1-13.63-58.5-36.72-72.29-63.24-15.41-29.64-20-62.58-12.54-90.39 2.61-9.67 6.56-19.21 10.47-28.31 7.14-16.87 14.48-34.35 13.8-54.32-.54-13.72-5.18-27.79-9.68-41.49-2.77-8.36-5.36-16.25-7-23.87-1.4-6.75-.28-13.06 3.51-18.26 4.78-6.54 13.26-10.97 22.93-11.99 13.93-1.37 29.51 6.05 44.24 14.33 1.37.76 2.73 1.52 4.13 2.38 7.05 4.16 15.92 9.43 27.32 10.96 6.56.91 13.52 1.46 20.83 2.1 19.6 1.7 41.84 3.57 62.61 11.68 24.15 9.39 47.45 28.84 60.83 50.92 11.32 18.69 15.57 38.16 11.24 52.02-1.2 3.88-3.54 6.7-5.83 9.4a35.65 35.65 0 00-4.26 5.92c2.36.6 7.1 4.56 16.47 12.54 5.22 4.42 11.64 10 19.18 16 20.61 16.63 33.73 32.17 40.08 47.62 8.67 20.99 5.62 41 2.66 54.23-1.03 4.57-2.25 9.22-3.36 13.6-4.28 16.52-8.37 32.12-4.39 46.44l.14.37-.37.15c-14.2 7.36-24.52 5.31-33.47 1.78.33 3.94-1.05 7.9-4.04 11.29-2.94 3.48-6.79 6.02-11.46 7.81zm-251.94-368.38c-5.42 2.08-10.05 5.35-13.01 9.38-3.64 5.03-4.71 10.9-3.38 17.46 1.6 7.53 4.19 15.42 6.96 23.78 4.5 13.7 9.3 27.92 9.78 41.77.8 20.25-6.73 37.8-13.84 54.76-3.87 9.2-7.85 18.64-10.5 28.22-7.34 27.55-2.87 60.2 12.48 89.67 13.75 26.42 39.86 49.3 71.82 62.87 20.58 8.72 45.07 13.7 68.99 14.07 14.63.18 28.48 5.59 41.34 10.94 18.25 7.69 44.94 17.82 65.47 17.45 11.25-.24 21.06-3.99 26.24-10.04 2.95-3.49 4.23-7.4 3.68-11.37l-.1-.82.74.26c8.86 3.57 19.06 5.87 33.11-1.33-3.8-14.4.3-29.99 4.58-46.5a332.7 332.7 0 003.36-13.6c3-13.15 5.9-33-2.58-53.74-6.3-15.36-19.3-30.84-39.74-47.32-7.58-6.09-13.96-11.57-19.22-16.09-8.59-7.31-14.67-12.59-16.53-12.4l-.82.09.34-.78c1.2-2.48 2.93-4.65 4.62-6.69 2.2-2.66 4.48-5.35 5.61-9.1 4.27-13.74.05-32.9-11.08-51.34-13.3-21.89-36.44-41.2-60.33-50.46-20.64-8.06-42.79-9.97-62.36-11.58-7.4-.59-14.4-1.23-20.95-2.15-11.62-1.54-20.59-6.79-27.68-11.03-1.4-.86-2.8-1.72-4.12-2.39-14.6-8.22-29.96-15.62-43.67-14.22a37.87 37.87 0 00-9.21 2.23z" fill="url(#paint19_linear)"/><path d="M112.66 535.13c-16.06 6.15-28.33 2.07-37.23-2.45.04 3.2-1.3 6.39-3.87 9.2-5.23 5.63-15 8.94-26.17 8.83-18.28-.18-40.89-8.34-62.58-17.16-14.2-5.8-26.37-9.61-39.58-9.7-23.67-.03-48.35-5.47-69.45-15.28-30.85-14.31-55.77-37.43-68.43-63.53-14-29.01-17.59-61.05-9.74-87.82 2.78-9.53 6.87-18.7 10.94-27.64 7.55-16.92 15.4-34.48 14.7-54.77-.45-12.9-4.7-26.26-8.82-39.25-2.82-8.77-5.43-16.98-6.85-24.89-1.26-6.9.27-13.27 4.32-18.36 5.28-6.62 14.9-11.16 25.06-11.73 15.85-.83 32.4 8.26 46.53 17.2 1.4.86 2.73 1.84 4.17 2.8 7.37 4.99 15.72 10.57 27.26 12.47 7.2 1.2 14.87 1.91 23 2.76 17.94 1.8 38.32 3.86 57.32 11.26 24.85 9.54 48.44 29.75 61.65 52.53 11.34 19.54 14.9 40.02 9.5 54.72-1.6 4.25-4.24 7.4-6.7 10.49-1.99 2.36-3.82 4.56-5.2 7.12 1.02.69 2.77 2.48 5.62 5.45a403.25 403.25 0 0026.45 24.9c12.53 10.62 29.98 26.85 37.4 45.65 7.96 19.97 4.48 38.86 1.23 51.35-1.1 4.38-2.43 8.74-3.7 12.98-4.5 15.1-8.72 29.25-5.81 42.16l.04.41-.37.14c-.22-.02-.4.05-.69.16zm-38.22-3.9l.69.39c8.9 4.51 21.09 8.95 37.25 2.76l.28-.1c-2.73-12.99 1.46-27.23 6-42.24 1.26-4.23 2.5-8.56 3.7-12.98 3.28-12.4 6.64-31.03-1.16-50.85-7.43-18.57-24.75-34.74-37.15-45.31-12.36-10.47-21.18-19.52-26.58-24.95-2.98-3.03-5.06-5.13-5.74-5.5l-.4-.18.18-.39c1.46-2.91 3.53-5.31 5.52-7.68 2.5-2.99 5.14-6.14 6.58-10.23 5.28-14.44 1.74-34.6-9.43-54-13.05-22.62-36.56-42.64-61.2-52.17-18.83-7.24-39.2-9.3-57.05-11.14a381.31 381.31 0 01-23.04-2.85c-11.67-1.95-20.15-7.6-27.52-12.6a366 366 0 01-4.17-2.78c-13.2-8.45-30.32-17.95-46.05-17.07-9.98.5-19.31 4.93-24.44 11.4-3.96 5.04-5.34 10.92-4.16 17.65 1.38 7.82 4.03 16.12 6.81 24.8 4.12 12.98 8.41 26.44 8.8 39.46.67 20.52-7.17 38.08-14.78 55.13-3.97 8.9-8.03 18.17-10.85 27.6-7.82 26.55-4.21 58.36 9.72 87.19 12.5 25.95 37.34 48.88 67.97 63.17 20.97 9.75 45.52 15.13 69.1 15.2 13.4.02 25.6 3.91 39.93 9.77 20.57 8.4 44.05 16.88 62.22 17.1 10.87.12 20.44-3.12 25.55-8.5 2.57-2.8 3.83-5.97 3.62-9.31l-.2-.78z" fill="url(#paint20_linear)"/><path d="M108.5 538.23l-.38.14c-14.5 4.37-28 2.37-42.44-6.24-.2 2.54-1.39 5.03-3.67 7.19-5.16 4.97-14.64 7.63-25.55 7.1-16.9-.81-37.69-8.38-59.33-16.8-10.95-4.27-23.95-8.6-38.22-8.4-23.07.16-48.37-5.79-69.47-16.44-29.59-14.91-53.05-38.16-64.59-63.83-12.85-28.81-15.31-59.03-7.03-85.22 2.89-9.25 7.15-18.26 11.23-26.9 8.02-17.09 16.3-34.6 15.59-55.21-.38-12.18-4.3-24.92-7.93-37.23-2.75-9.12-5.37-17.65-6.58-25.86-.97-7.01.74-13.45 5.1-18.55 5.84-6.84 16.26-11.25 27.23-11.38 13.73-.23 29.27 6.25 48.84 20.17 1.44.95 2.85 2.12 4.36 3.26 7.23 5.47 15.48 11.63 27.07 13.94 7.66 1.56 15.93 2.47 24.68 3.5 16.48 1.94 35.2 4.1 52.51 10.75 25.6 9.8 49.52 30.62 62.49 54.14 11.24 20.43 14.17 41.8 7.8 57.3-1.9 4.57-4.84 8.06-7.7 11.5-2.2 2.67-4.48 5.36-6.09 8.44 1.29 2.5 10.02 15.54 28.57 32.11 13.67 12.22 28.4 26.93 34.8 43.64 5.58 14.57 5.46 29.93-.22 48.38-1.27 4.23-2.76 8.44-4.14 12.4-4.66 13.56-9.1 26.29-7.17 37.76l.23.34zm-43.58-7.53l.69.39c14.37 8.74 27.79 10.77 42.04 6.6-1.74-11.54 2.66-24.36 7.27-37.8 1.34-4.04 2.86-8.16 4.14-12.4 5.62-18.31 5.68-33.54.3-47.87-6.33-16.53-21.06-31.23-34.6-43.4-19.2-17.16-27.9-30.65-28.84-32.54l-.07-.18.15-.17c1.76-3.24 4.1-6.06 6.3-8.72 2.8-3.32 5.74-6.8 7.58-11.26 6.26-15.24 3.36-36.51-7.78-56.66-12.92-23.43-36.69-44.1-62.15-53.84-17.2-6.6-35.8-8.78-52.29-10.72-8.84-1-17.14-2-24.81-3.56-11.72-2.37-20-8.62-27.37-14.15-1.5-1.14-2.97-2.18-4.31-3.17-19.45-13.87-34.82-20.19-48.36-20.04-10.76.16-20.93 4.37-26.7 11.08-4.22 4.94-5.91 11.15-4.92 17.94 1.18 8.12 3.8 16.65 6.54 25.77 3.78 12.37 7.56 25.05 8 37.4.66 20.74-7.64 38.49-15.66 55.58-4.05 8.73-8.34 17.65-11.23 26.9-8.26 25.96-5.83 56.08 7.04 84.67 11.34 25.43 34.76 48.59 64.22 63.44 20.98 10.6 46.18 16.58 69.12 16.37 14.4-.16 27.53 4.24 38.48 8.5 21.55 8.46 42.33 16.03 59.01 16.82 10.6.55 19.98-2.08 24.9-6.85 2.28-2.16 3.43-4.74 3.41-7.3l-.1-.83z" fill="url(#paint21_linear)"/><path d="M103.3 541.71l-.32.02c-16.02 3.45-31.42.14-46.89-10.32-1.17 6.44-11.88 12.04-28.27 10.6-15.38-1.28-34.14-8.34-52.26-15.11l-3.73-1.36c-14.1-5.2-25.46-7.49-36.81-7.21-22.96.43-48.22-5.96-69.59-17.59-28.31-15.5-50.42-38.84-60.7-64.03-11.49-28.05-12.96-57.36-4.23-82.65 3.09-9 7.36-17.7 11.61-26.18 8.43-17.15 17.18-34.84 16.58-55.7-.35-11.55-3.79-23.61-7.18-35.27-2.72-9.35-5.26-18.22-6.23-26.63a23.15 23.15 0 015.98-18.78c6.5-7.1 17.74-11.29 29.4-11.04 15.02.35 31.71 7.88 51.24 23.1 1.5 1.14 2.96 2.4 4.5 3.64 7.19 5.92 15.34 12.65 26.88 15.4 8 1.87 16.78 3 26.05 4.28 15.8 2.09 32.25 4.25 47.93 10.24 26.24 10.08 50.57 31.4 63.35 55.84 11.12 21.23 13.5 43.66 6.14 59.97-2.13 4.78-5.44 8.72-8.6 12.5-2.5 2.99-5.18 6.05-7.05 9.55.13 3.7 7.7 17.6 24.92 34.04 12.58 11.89 26.43 25.97 32.12 41.67 5.07 13.8 4.53 28.36-1.74 45.53-1.53 4.12-3.1 8.15-4.7 12.08-4.85 11.92-9.3 23.26-8.38 33.2l-.02.21zm-47.9-11.54l.56.33c15.37 10.5 30.62 13.97 46.58 10.65-.76-10.1 3.72-21.34 8.49-33.23a417.8 417.8 0 004.69-12.08c6.12-17.01 6.63-31.34 1.73-44.99-5.62-15.52-19.43-29.5-32.01-41.4-17.54-16.73-25.17-31.05-25.17-34.69l-.04-.09.06-.13c2.06-3.57 4.7-6.73 7.17-9.81 3.16-3.78 6.4-7.6 8.45-12.34 7.2-16.14 4.93-38.29-6.12-59.33-12.57-23.88-37.3-45.69-62.98-55.45-15.68-5.99-32.01-8.09-47.8-10.18-9.36-1.24-18.15-2.37-26.14-4.24-11.68-2.8-19.92-9.5-27.15-15.52-1.57-1.32-2.99-2.5-4.5-3.63-19.27-15.11-35.93-22.55-50.72-22.88-11.44-.22-22.5 3.9-28.84 10.83a22.44 22.44 0 00-5.79 18.16c.94 8.32 3.48 17.2 6.2 26.54 3.4 11.66 6.87 23.82 7.25 35.45.64 20.96-8.17 38.79-16.66 56.06-4.15 8.45-8.42 17.15-11.51 26.15-8.68 25.16-7.15 54.34 4.23 82.11 10.25 25.1 32.2 48.28 60.38 63.73 21.14 11.6 46.4 18 69.13 17.54 11.49-.22 22.95 2.03 37.04 7.24l3.73 1.36c18.12 6.77 36.85 13.73 52.13 15.06 16.27 1.37 27-4.45 27.55-10.55l.07-.67z" fill="url(#paint22_linear)"/><path d="M98 545.24l-.3.01c-17.65 2.58-35.02-2.23-51.48-14.45-1.93 5.02-12.39 9.02-27.42 6.96-12.64-1.7-28.05-7.25-42.97-12.68-3.35-1.18-6.6-2.4-9.81-3.52-12.73-4.44-23.96-6.36-35.4-6.05-22.85.72-48.25-6.05-69.6-18.75-26.92-16.04-47.67-39.47-56.86-64.33-10-27.23-10.6-55.69-1.46-80.18 3.2-8.71 7.67-17.17 11.9-25.43 8.93-17.23 18.09-34.98 17.47-56.16-.31-10.9-3.41-22.35-6.46-33.4-2.64-9.7-5.16-18.8-5.85-27.3a24.01 24.01 0 016.86-19.02c7.09-7.2 19.1-11.37 31.56-10.69 16.28.84 34.29 9.58 53.53 25.99 1.57 1.32 3.06 2.68 4.7 4.19 7.06 6.4 15.1 13.7 26.57 16.81 8.27 2.3 17.44 3.6 27.2 5.01 14.39 2.1 29.36 4.29 43.75 9.7 26.56 10.08 51.8 32.65 64.27 57.42 11.1 21.99 12.7 45.47 4.5 62.63-2.16 4.47-5.48 8.1-8.7 11.69-3.63 3.95-7.01 7.71-8.92 12.51-1.68 4.28 4.8 19.26 21.36 35.94l.13.06c11.36 11.5 24.27 24.54 29.5 39.57 4.46 13.06 3.45 26.94-3.17 42.65-1.75 4.1-3.58 8-5.4 11.91-4.83 10.31-9.38 19.98-9.48 28.37l-.01.54zm-52.08-15.5l.43.26c16.32 12.17 33.54 17.14 51 14.63.16-8.52 4.7-18.18 9.48-28.36a266.2 266.2 0 005.4-11.92c6.5-15.45 7.55-29.23 3.16-42.1-5.15-14.85-17.94-27.84-29.3-39.33l-.13-.06c-17.49-17.72-23.2-32.35-21.55-36.73 1.97-4.92 5.46-8.94 9.03-12.77 3.17-3.46 6.5-7.09 8.55-11.51 8.18-16.95 6.56-40.2-4.46-62-12.35-24.73-37.43-47.14-63.85-57.16-14.3-5.45-29.14-7.58-43.54-9.67-9.75-1.41-18.96-2.81-27.32-5.07-11.6-3.17-19.77-10.53-26.86-17.02a143.9 143.9 0 00-4.7-4.2c-19.2-16.31-37-25.03-53.05-25.84-12.12-.61-23.97 3.39-31 10.47-4.95 5-7.2 11.43-6.63 18.5.65 8.42 3.17 17.52 5.78 27.12 3.08 11.13 6.27 22.55 6.53 33.58.56 21.31-8.66 39.19-17.55 56.51-4.27 8.17-8.61 16.68-11.84 25.3-9.03 24.24-8.5 52.51 1.47 79.64 9.15 24.77 29.74 48.05 56.52 64.03 21.22 12.65 46.53 19.45 69.25 18.68 11.54-.35 22.86 1.53 35.63 6.06 3.21 1.13 6.55 2.31 9.8 3.53 14.8 5.36 30.2 10.92 42.85 12.62 15.12 2.03 25.49-1.94 26.79-6.94l.11-.26z" fill="url(#paint23_linear)"/><path d="M92.81 548.73l-.22-.03c-24.34 2.15-43.85-8.8-55.92-18.53-2.6 3.57-12.5 5.96-26.54 3.41-10.15-1.9-22.43-6.3-34.23-10.56-5.09-1.8-10.3-3.66-15.21-5.31-11.53-3.83-22.3-5.39-33.95-4.78-22.53 1.02-48.58-6.35-69.63-19.93-25.57-16.44-44.86-40-53-64.62-8.63-26.46-8.13-53.96 1.25-77.57 3.43-8.38 7.79-16.58 12.12-24.56 9.44-17.31 19.06-35.24 18.57-56.68-.24-10.4-3.09-21.2-5.83-31.72-2.58-9.82-4.98-19.18-5.43-27.9a25 25 0 017.8-19.36c7.64-7.43 20.57-11.41 33.63-10.3 22.08 1.71 42.58 16.67 55.84 28.94 1.65 1.51 3.2 3.06 4.92 4.76 7.02 6.84 14.92 14.63 26.35 18.18 8.5 2.64 18 4.24 28.14 5.83 13.13 2.14 26.71 4.33 39.72 9.2 27.25 10.24 52.74 33.46 65.14 59.13 10.97 22.78 11.97 47.24 2.7 65.24-2.5 4.92-6.1 8.97-9.63 12.9-3.68 4.08-7.42 8.3-9.76 13.37-2.44 5.1 1.46 20.32 17.7 37.87l2.03 2.22c9.67 10.44 20.6 22.2 24.83 35.47 4.02 12.49 2.53 25.37-4.63 39.68-2.03 4.2-4.35 8.2-6.53 12.03-4.79 8.47-9.21 16.48-10.12 23.36l-.11.26zm-56.37-19.44l.3.21c12.03 9.64 31.35 20.66 55.54 18.68 1-6.91 5.46-14.83 10.15-23.27 2.18-3.83 4.37-7.88 6.53-12.03 7.01-14.14 8.54-26.93 4.58-39.23-4.24-13.04-15.08-24.85-24.71-35.19l-2.03-2.22c-14.86-16.16-20.73-32.33-17.77-38.6 2.43-5.1 6.14-9.41 9.82-13.5 3.53-3.92 7.12-7.97 9.53-12.86 9.13-17.84 8.1-42.07-2.8-64.67-12.23-25.51-37.65-48.55-64.78-58.72-12.9-4.91-26.45-7-39.58-9.15-10.14-1.59-19.64-3.2-28.24-5.8-11.55-3.6-19.59-11.45-26.63-18.39-1.69-1.6-3.28-3.24-4.9-4.66-13.22-12.17-33.56-26.98-55.45-28.78-12.8-.99-25.44 2.9-33.07 10.1a23.99 23.99 0 00-7.57 18.84c.32 8.66 2.78 17.9 5.37 27.72 2.74 10.51 5.62 21.4 5.85 31.8.57 21.63-9.24 39.63-18.64 57.04-4.24 7.94-8.73 16.08-12.06 24.43-9.45 23.42-9.86 50.89-1.3 77.16 7.97 24.47 27.23 47.93 52.67 64.32 21 13.48 46.88 20.93 69.27 19.85a91.63 91.63 0 0134.18 4.8c5 1.62 10.25 3.57 15.24 5.4 11.8 4.27 24.09 8.67 34.2 10.47 15.06 2.7 24.3-.3 26.09-3.45l.2-.3z" fill="url(#paint24_linear)"/><path d="M87.52 552.25l-.22-.02c-20.92.73-42.42-7.32-60.5-22.67-2.87 1.74-11.77 3.11-25.69-.24-7.8-1.93-16.7-5.06-26.07-8.54-6.6-2.4-13.58-4.97-20.12-6.96-10.43-3.19-20.39-4.3-32.54-3.61-22.6 1.37-48.66-6.54-69.74-21.06-24.32-16.82-42.16-40.5-49.03-64.86-7.23-25.6-5.83-52.16 4.06-75 3.54-8.1 8-16.03 12.35-23.69 9.9-17.5 20.12-35.54 19.61-57.3-.2-9.77-2.75-20.04-5.27-30-2.47-10.08-4.82-19.56-4.89-28.43a25.65 25.65 0 018.76-19.63c8.34-7.58 22.01-11.31 35.62-9.88 25.1 2.6 47.23 21 58.12 31.82 1.72 1.7 3.35 3.44 5.14 5.32 6.97 7.29 14.74 15.56 26.12 19.56 8.68 3.1 18.44 4.82 28.87 6.61 11.84 2.1 24.12 4.26 35.86 8.65 27.87 10.43 53.83 34.33 65.97 60.73 10.85 23.58 11.23 48.92 1.05 67.91-2.8 5.25-6.85 9.8-10.65 14.15-3.89 4.38-7.8 8.98-10.61 14.23-3.77 7.22-.09 23.27 14.1 39.9 1.13 1.28 2.17 2.6 3.3 3.87 8.2 9.4 17.47 20.2 20.95 31.81 3.53 11.72 1.5 24.06-6.04 36.8-2.6 4.41-5.48 8.62-8.16 12.54-4.67 6.82-8.62 12.72-10.2 17.83l-.15.16zm-60.7-23.45l.17.15c17.95 15.3 39.26 23.41 60.1 22.72 1.63-5.23 5.62-11.04 10.2-17.83 2.73-4.04 5.56-8.12 8.15-12.54 7.4-12.57 9.45-24.82 6-36.35-3.45-11.53-12.65-22.14-20.85-31.53-1.13-1.28-2.3-2.65-3.3-3.87-14.35-16.78-17.95-33.18-14.12-40.53 2.77-5.35 6.81-9.9 10.67-14.37 3.8-4.34 7.74-8.85 10.55-14.1 10.07-18.74 9.63-43.95-1.05-67.38-12.1-26.3-37.9-50.06-65.64-60.43-11.62-4.33-23.9-6.48-35.74-8.59-10.43-1.79-20.22-3.6-29-6.67-11.42-4.1-19.4-12.38-26.28-19.7-1.8-1.9-3.42-3.63-5.1-5.23-10.86-10.73-32.87-29.07-57.83-31.62-13.48-1.37-26.96 2.3-35.15 9.71a25.32 25.32 0 00-8.63 19.15c.04 8.77 2.39 18.25 4.86 28.34 2.43 9.99 4.97 20.26 5.21 30.13.49 21.97-9.83 40.06-19.73 57.55-4.35 7.66-8.81 15.58-12.3 23.55-9.82 22.72-11.25 49.18-4 74.56 6.82 24.27 24.73 47.82 48.79 64.52 21 14.56 46.91 22.42 69.39 20.99 12.15-.7 22.3.35 32.76 3.62 6.67 2.05 13.52 4.57 20.25 7.03 9.33 3.39 18.27 6.6 26.07 8.54 13.92 3.35 23 1.9 25.33.16l.23.02z" fill="url(#paint25_linear)"/><path d="M82.32 555.74l-.12-.06c-22.8-.26-45.92-9.73-64.96-26.75-4.22.44-13.27-.27-24.8-3.78a285.8 285.8 0 01-18.26-6.6c-8.14-3.1-16.55-6.31-24.72-8.64-11.54-3.3-21.76-3.13-31.1-2.34-22.36 1.7-49.07-6.8-69.78-22.33-22.94-17.13-39.43-40.9-45.18-65.15-5.9-24.62-3.45-50.4 6.86-72.44 3.55-7.78 8.15-15.33 12.42-22.64 10.4-17.58 21.19-35.84 20.76-57.95-.22-9.23-2.45-18.98-4.67-28.4-2.4-10.22-4.64-19.97-4.34-28.97.23-7.8 3.7-14.7 9.83-19.93 8.97-7.61 23.3-11.28 37.6-9.47 26.99 3.38 49.48 23.25 60.4 34.7 1.79 1.89 3.49 3.8 5.35 5.88 7.16 8.07 14.61 16.35 25.86 20.83 8.82 3.48 18.78 5.45 29.41 7.48 10.63 2.03 21.61 4.15 32.1 8.06 28.58 10.58 54.88 35.1 66.8 62.33 10.73 24.38 10.52 50.7-.64 70.5-3.17 5.7-7.42 10.54-11.58 15.35-4.1 4.67-8.31 9.6-11.42 15.19-4.43 8-3.13 24.54 10.44 41.82 1.28 1.66 2.68 3.37 4.12 5.17 6.93 8.6 14.8 18.22 17.55 28.51 3 11.17.52 22.61-7.5 33.82-3.46 4.96-7.46 9.6-10.96 13.62-3.91 4.6-7.26 8.45-9.26 11.9l-.2.29zm-233.57-70.88c20.55 15.36 47.17 23.91 69.4 22.15 9.38-.7 19.69-.9 31.32 2.36 8.17 2.33 16.67 5.5 24.72 8.63 6.54 2.53 12.68 4.89 18.23 6.51 15.27 4.65 23.75 3.87 24.7 3.83l.1-.04.12.06c18.92 16.96 41.84 26.5 64.51 26.7 2-3.44 5.44-7.33 9.26-11.9 3.5-4 7.41-8.61 10.86-13.57 7.93-11.18 10.39-22.4 7.47-33.38-2.73-10.2-10.6-19.82-17.48-28.32-1.44-1.8-2.81-3.42-4.12-5.17-13.65-17.47-15.02-34.19-10.48-42.46 3.11-5.58 7.33-10.51 11.52-15.22 4.07-4.77 8.41-9.65 11.52-15.23 11.01-19.63 11.25-45.85.6-70.04-11.89-27.15-38.03-51.51-66.5-62.13-10.5-3.91-21.44-5.93-32.07-7.97-10.63-2.03-20.69-3.96-29.55-7.53-11.37-4.53-18.86-12.91-26.02-20.98-1.86-2.08-3.56-4-5.35-5.88-10.92-11.45-33.24-31.18-60.14-34.59-14.07-1.78-28.31 1.85-37.1 9.39a25.94 25.94 0 00-9.56 19.5c-.24 8.88 1.96 18.53 4.37 28.74 2.21 9.43 4.45 19.18 4.7 28.5.4 22.33-10.38 40.6-20.84 58.3-4.36 7.35-8.84 14.95-12.43 22.64-10.2 22-12.63 47.56-6.77 72.1 5.74 24.24 22.2 47.92 45 65z" fill="url(#paint26_linear)"/><path d="M77 559.17c-24.55-1.2-49.83-12.4-69.54-30.88-.74-.26-1.57-.47-2.62-.71-4.78-1.28-11.92-3.15-21.45-6.79-3.28-1.3-6.83-2.73-10.63-4.28-9.06-3.8-19.38-8.1-29.2-10.55-10.34-2.68-19.53-2.06-29.68-1.17-22.45 2.06-49.24-6.96-69.81-23.5-21.66-17.4-36.8-41.27-41.33-65.45a109.23 109.23 0 019.56-69.83c3.7-7.41 8.23-14.6 12.5-21.6 10.97-17.8 22.35-36.18 22.06-58.77-.13-8.73-2.15-17.91-4.15-26.78-2.3-10.47-4.44-20.26-3.85-29.37.56-8.03 4.3-15.03 10.85-20.32 9.57-7.73 24.73-11.18 39.48-9.01 21.1 3.06 44.01 16.78 62.81 37.63 1.86 2.08 3.63 4.18 5.57 6.44 7.08 8.43 14.4 17.19 25.54 22.24 8.9 3.98 19.13 6.06 29.86 8.38 9.43 1.96 19.2 4 28.53 7.39 29.28 10.74 55.83 35.91 67.67 64.04 10.74 25.55 9.88 52.1-2.3 73.16-3.47 6.03-8.08 11.33-12.54 16.47-4.37 5.1-8.92 10.26-12.24 16.14-5.03 8.67-6.36 25.35 6.8 43.76 1.41 2.03 2.92 4.02 4.47 6.1 6.12 8.15 12.44 16.55 14.51 25.6 3.18 13.35-3.14 24.23-8.93 30.95-5.02 5.88-11 10.95-15.77 15.02-2.18 2.13-4.35 4.03-6.17 5.69zm-232.41-78.18c20.54 16.44 47.1 25.44 69.52 23.28 10.15-.89 19.43-1.55 29.9 1.2 9.82 2.44 20.14 6.74 29.2 10.55 3.71 1.58 7.26 3 10.54 4.32C-6.8 524 .33 525.88 5.1 527.15c1.06.24 1.89.46 2.63.71l.13.06c19.63 18.29 44.82 29.53 69.05 30.75 1.74-1.63 3.8-3.5 6.25-5.5 4.76-4.07 10.65-9.1 15.68-15 5.78-6.7 12-17.33 8.88-30.49-2.17-9.02-8.45-17.32-14.44-25.41-1.55-2.09-3.06-4.08-4.48-6.1-13.22-18.6-11.87-35.5-6.78-44.3 3.41-5.92 7.96-11.09 12.33-16.19 4.46-5.13 8.98-10.4 12.48-16.34 12.16-20.82 12.93-47.35 2.26-72.71-11.8-28.03-38.29-53.02-67.43-63.7-9.24-3.43-19.01-5.47-28.53-7.4-10.83-2.27-21.05-4.36-29.96-8.34-11.24-5.01-18.59-13.87-25.8-22.35-1.93-2.26-3.7-4.36-5.56-6.44-18.67-20.8-41.46-34.45-62.52-37.42-14.62-2.11-29.6 1.27-39.07 8.96-6.49 5.16-10.14 12.13-10.68 19.94-.62 9.01 1.52 18.8 3.78 29.17 1.9 8.9 3.92 18.1 4.09 26.92.37 22.77-11.01 41.16-22.07 58.99-4.28 6.99-8.81 14.18-12.5 21.6a108.81 108.81 0 00-9.55 69.6c4.71 23.8 19.68 47.51 41.3 64.83z" fill="url(#paint27_linear)"/><path d="M71.8 562.66c-27.99-2.35-52.88-19.27-73.98-34.96-2.85-2.13-7.2-4-12.76-6.47-3.1-1.38-6.68-2.9-10.46-4.67-.9-.4-1.84-.9-2.75-1.3-9.86-4.8-22.18-10.68-33.75-13.21-9.24-2.03-17.46-1.13-26.28-.12l-1.95.22c-22.3 2.43-49.76-7.19-69.93-24.63-20.46-17.65-34.1-41.55-37.44-65.65-3.22-22.97 1.04-46.23 12.33-67.37 3.75-7 8.2-13.84 12.5-20.52 11.65-17.95 23.68-36.58 23.34-59.58-.14-8.19-1.85-16.85-3.64-25.16-2.1-10.54-4.22-20.55-3.23-29.7.9-8.28 5.05-15.33 12-20.67 10.36-7.92 25.76-11.03 41.29-8.52 22.5 3.7 46.26 18.49 65.08 40.51 1.93 2.26 3.85 4.74 5.82 7.1 7.03 8.86 14.27 17.98 25.28 23.5 9 4.49 19.32 6.85 30.32 9.28 8.3 1.85 16.88 3.82 25.08 6.78 29.88 10.94 56.87 36.7 68.5 65.66 10.58 26.25 9.16 53.88-4 75.73-3.77 6.37-8.78 12.03-13.4 17.55-4.68 5.43-9.4 10.99-13.15 17.13-6.11 10.05-8.58 27.38 3.08 45.83 1.4 2.25 2.89 4.46 4.5 6.73 5.08 7.38 10.32 14.9 11.9 22.97 2.72 13.52-5.3 23.34-10.39 27.96-7.2 6.62-15.77 11.39-23.9 15.58zm-231.46-85.5c20 17.28 47.36 26.94 69.57 24.54l1.96-.21c8.82-1.02 17.17-1.86 26.4.17 11.7 2.6 23.93 8.51 33.88 13.27.9.4 1.85.9 2.75 1.3 3.82 1.86 7.4 3.38 10.46 4.67 5.52 2.38 9.91 4.34 12.85 6.43 21.07 15.6 45.83 32.46 73.64 34.88 8.04-4.15 16.51-8.89 23.69-15.6 4.99-4.58 12.91-14.37 10.3-27.6-1.64-7.94-6.78-15.5-11.82-22.79a170.62 170.62 0 01-4.5-6.73c-11.7-18.54-9.3-36.06-3.14-46.24 3.75-6.14 8.57-11.73 13.24-17.16 4.76-5.46 9.64-11.19 13.45-17.46 13.1-21.72 14.55-49.26 3.9-75.38-11.67-28.83-38.44-54.56-68.29-65.4-8.1-3-16.73-4.85-24.95-6.73-11-2.43-21.32-4.8-30.32-9.28-11.1-5.5-18.37-14.7-25.44-23.67-2.01-2.44-3.8-4.86-5.82-7.08-18.82-22.03-42.45-36.76-64.83-40.4-15.43-2.55-30.7.62-40.96 8.5-6.9 5.22-11.01 12.36-11.9 20.4-.99 9.17 1.1 19.08 3.2 29.62 1.7 8.35 3.54 17.06 3.58 25.3.32 23.21-11.75 41.75-23.36 59.8-4.3 6.68-8.75 13.52-12.5 20.52-11.23 21-15.53 44.17-12.34 67.04 3.36 23.88 16.87 47.73 37.3 65.28z" fill="url(#paint28_linear)"/><path d="M77.32 563.65a35.88 35.88 0 01-10.71 2.5c-28.18 1.36-54.32-17.98-78.31-38.99-5.3-4.6-12.98-9.27-22.4-14.87-9.26-5.45-21.42-12.04-33.3-14.24-7.72-1.44-14.73-.46-22.03.62-1.5.25-3.24.49-4.78.65-11.24 1.41-23.92-.38-36.7-5.23a102.5 102.5 0 01-33.25-20.57c-19.23-17.8-31.46-41.92-33.6-65.95-1.93-21.85 3.32-44.2 15.05-64.76 3.7-6.55 8.1-12.95 12.36-19.18 12.3-18.2 25-37.09 24.79-60.56-.06-7.7-1.64-15.76-3.12-23.54-2-10.27-4.02-20.85-2.56-30.18 1.24-8.51 5.86-15.74 13.31-21.16 11.02-7.86 27-10.87 42.99-8 12.31 2.25 24.79 7.43 37.02 15.6 11.09 7.43 21.6 17 30.34 27.79 2.04 2.54 4.02 5.2 5.97 7.78 6.96 9.22 14.25 18.74 25.02 24.8 9.12 5.07 19.48 7.53 30.55 10.14 7.2 1.74 14.62 3.5 21.7 6.05 15.27 5.5 29.9 14.9 42.43 27.22 12.08 11.98 21.42 25.75 26.98 40 10.46 27.05 8.42 55.56-5.64 78.4-4.17 6.74-9.35 12.79-14.41 18.58-4.97 5.76-10 11.64-14.15 18.16-8.96 14.35-9.19 32.21-.56 47.75a129.3 129.3 0 004.33 7.13c4.15 6.65 8.38 13.5 9.48 20.57 1.5 9.49-2.82 18.64-11.81 25.08a63.02 63.02 0 01-14.99 8.4zm-241.23-90.33c19.9 18.4 47.21 28.5 69.69 25.68 1.63-.2 3.23-.49 4.78-.65 7.39-1.12 14.31-2.05 22.13-.65 11.87 2.2 24.12 8.75 33.38 14.2 9.52 5.57 17.2 10.23 22.5 14.84 23.99 21.01 50.06 40.16 78.04 38.87 7.05-.34 16.65-4.34 25.5-10.62 8.9-6.4 13.15-15.42 11.73-24.73-1.07-6.98-5.38-13.78-9.4-20.38-1.6-2.5-3.04-4.84-4.38-7.21-4.74-8.47-6.87-17.4-6.34-26.38a45.7 45.7 0 016.9-21.7c4.05-6.48 9.13-12.5 14.1-18.25 5.03-5.88 10.2-11.94 14.32-18.54 14-22.71 16.08-51.13 5.66-78.09-11.5-29.75-38.7-56.06-69.16-67.1-7.08-2.54-14.5-4.3-21.6-6.09-11.07-2.61-21.47-5.16-30.68-10.2-10.9-6.1-18.19-15.63-25.15-24.86-1.95-2.57-3.93-5.24-5.94-7.68-18.63-22.96-43.78-39.13-67.23-43.33-15.85-2.82-31.78.06-42.7 7.89-7.4 5.3-11.93 12.49-13.2 20.9-1.37 9.3.56 19.38 2.61 30.05 1.52 7.88 3.02 15.98 3.16 23.63.28 23.67-12.5 42.59-24.8 60.79a307.94 307.94 0 00-12.27 19.15c-11.77 20.46-17.02 42.81-15.02 64.53 1.97 24.2 14.17 48.22 33.37 65.93z" fill="url(#paint29_linear)"/><path d="M83.64 566.16a52.39 52.39 0 01-22.27 3.38c-36.36-2.68-67.42-28.16-82.76-43.06-5.29-5.15-12.49-11.92-21.64-18.49-10.78-7.75-21.1-12.59-30.04-13.87-6.7-.97-12.69.14-18.97 1.37-2.1.38-4.3.79-6.53 1.1-22.4 3.33-50.53-7.52-69.97-26.96-18.04-18.04-28.97-42.13-29.74-66.25-.73-20.92 5.28-41.85 17.84-62.19 3.7-6.01 7.93-12.02 12.04-17.77 13.06-18.5 26.53-37.57 26.39-61.71-.06-7.15-1.38-14.79-2.68-22.1-1.82-10.34-3.68-21.08-1.94-30.53 1.61-8.65 6.66-16.15 14.56-21.53 11.56-7.85 28.24-10.7 44.69-7.47 24.83 4.74 50.85 22.08 69.67 46.36 2.12 2.72 4.17 5.58 6.2 8.34 6.96 9.53 14.11 19.54 24.75 26.07 9.24 5.67 19.67 8.31 30.75 11.25 6.05 1.54 12.36 3.2 18.3 5.3 15.5 5.53 30.46 15.22 43.1 27.84 12.29 12.21 21.71 26.49 27.1 41.13 5.3 14.14 7.24 28.7 5.7 43.11a88.25 88.25 0 01-13.04 37.86c-4.47 7.07-9.95 13.45-15.28 19.66-5.18 6.06-10.6 12.3-14.92 19.2-5.99 9.26-14.3 28.08-4.21 49.7 1.15 2.45 2.52 4.92 3.9 7.4 3.23 5.93 6.67 12.1 7.32 18.28.96 8.95-3.99 17.27-13.37 22.14a24.48 24.48 0 01-4.95 2.44zm-251.8-96.67c19.4 19.34 47.4 30.14 69.7 26.85 2.24-.32 4.34-.7 6.4-1.17 6.29-1.22 12.28-2.34 19.07-1.4 9.08 1.34 19.22 6.02 30.17 13.93a193.4 193.4 0 0121.68 18.58c15.2 14.84 46.33 40.2 82.5 42.94a52.68 52.68 0 0027.26-5.72c9.19-4.8 14.08-13 13.15-21.85-.65-6.17-4.05-12.26-7.28-18.2a124.86 124.86 0 01-3.9-7.39c-10.26-21.77-1.76-40.66 4.2-50 4.35-6.81 9.74-13.16 15.01-19.24 5.33-6.22 10.81-12.6 15.28-19.67 14.99-23.5 17.62-53 7.32-80.75-11.41-30.64-38.87-57.61-70.09-68.68a209.06 209.06 0 00-18.3-5.3c-10.57-2.7-21.52-5.58-30.85-11.22-10.77-6.59-17.88-16.5-24.89-26.13-2.02-2.76-4.07-5.61-6.19-8.34-18.78-24.18-44.77-41.43-69.5-46.2-16.32-3.18-32.91-.36-44.47 7.49-7.9 5.38-12.9 12.75-14.41 21.36-1.74 9.45.09 20.1 1.9 30.43 1.3 7.32 2.62 14.95 2.68 22.1.18 24.24-13.39 43.36-26.4 61.94a307.49 307.49 0 00-12.04 17.78c-12.57 20.33-18.52 41.13-17.8 62.06.99 23.82 11.79 47.85 29.8 65.8z" fill="url(#paint30_linear)"/><path d="M86.2 572.03l-.74.28c-7.36 2.6-16.9 2.83-29.15.78-15.7-2.67-31.9-8.36-46.87-16.43-15.02-8.18-29-18.67-40.31-30.62a209.83 209.83 0 01-7.26-8.04c-4.29-4.78-8.65-9.75-13.56-14.18-8.84-7.97-18.38-12.78-26.8-13.51-5.88-.54-11.36.81-16.56 2.05a96.75 96.75 0 01-7.4 1.65c-22.34 3.74-51.18-7.82-70.12-28.2-17.03-18.2-26.42-42.45-25.86-66.44.43-19.86 7.2-39.37 20.65-59.62 3.6-5.44 7.69-10.97 11.57-16.2 13.9-18.82 28.2-38.22 28.04-63-.01-6.74-1.2-13.77-2.24-20.66-1.63-10.4-3.4-21.18-1.2-30.8 2.5-11.13 10.49-20.19 22.5-25.43 11.62-5.2 25.71-6.42 39.7-3.42 26.17 5.4 53.16 23.88 72.06 49.2 2.18 2.9 4.35 6.04 6.44 8.99 6.92 9.98 14.05 20.2 24.5 27.35 9.39 6.36 20.28 9.36 30.92 12.25 5.03 1.4 10.15 2.75 15.1 4.5 15.85 5.6 30.97 15.45 43.85 28.4 12.43 12.59 21.87 27.18 27.3 42.23 10.18 28.55 6.96 59.01-8.99 83.64-4.71 7.27-10.55 14.1-16.1 20.62-5.53 6.5-11.25 13.09-15.97 20.35-7.89 12.13-15.76 30.99-7.83 51.72.93 2.43 2.12 4.97 3.27 7.42 2.48 5.37 5.13 10.89 5.27 16.3.07 8-5.33 15.42-14.2 18.82zm-224.28-311.5l.1-.04c.1 24.9-14.2 44.3-28.1 63.1a367.38 367.38 0 00-11.57 16.22c-13.45 20.24-20.13 39.72-20.6 59.49-.56 23.99 8.9 48.1 25.8 66.26 18.9 20.28 47.6 31.78 69.82 27.99 2.51-.43 5.05-1.08 7.4-1.66 5.29-1.27 10.68-2.58 16.65-2.09 8.46.83 18 5.64 26.93 13.57 4.91 4.44 9.37 9.37 13.57 14.19a258.4 258.4 0 007.25 8.04c22.9 24 55.45 41.63 87.05 46.98 12.15 2.1 21.7 1.87 29.06-.73l.74-.29c8.78-3.36 14.13-10.65 13.84-18.68-.23-5.37-2.79-10.92-5.33-16.16-1.15-2.45-2.34-5-3.27-7.42-7.88-20.87-.1-39.7 7.85-51.94 4.72-7.27 10.4-13.94 15.98-20.36 5.63-6.55 11.42-13.26 16.1-20.62 15.89-24.5 19.24-54.9 8.97-83.42-11.15-31.07-39.64-59.35-70.96-70.38a188.7 188.7 0 00-15.1-4.5c-10.54-2.92-21.53-5.9-30.93-12.25-10.53-7.1-17.7-17.43-24.62-27.41-2.1-2.95-4.26-6.08-6.44-9-18.9-25.31-45.76-43.73-71.92-49.13-13.96-2.9-28.06-1.68-39.57 3.47-11.9 5.3-19.92 14.27-22.35 25.26-2.2 9.63-.43 20.4 1.29 30.78 1.12 6.85 2.22 13.92 2.23 20.66l.13.06z" fill="url(#paint31_linear)"/></g><defs><linearGradient id="paint0_linear" x1="-138.76" y1="59.9" x2="99.72" y2="682.92" gradientUnits="userSpaceOnUse"><stop stop-color="#4AFEBF"/><stop offset="1" stop-color="#51EEDA"/></linearGradient><linearGradient id="paint1_linear" x1="-137.67" y1="67.97" x2="95.45" y2="676.96" gradientUnits="userSpaceOnUse"><stop stop-color="#4AFEBF"/><stop offset="1" stop-color="#51EEDA"/></linearGradient><linearGradient id="paint2_linear" x1="-136.59" y1="75.98" x2="91.17" y2="670.99" gradientUnits="userSpaceOnUse"><stop stop-color="#4AFEBF"/><stop offset="1" stop-color="#51EEDA"/></linearGradient><linearGradient id="paint3_linear" x1="-135.4" y1="84.12" x2="86.95" y2="665" gradientUnits="userSpaceOnUse"><stop stop-color="#4AFEBF"/><stop offset="1" stop-color="#51EEDA"/></linearGradient><linearGradient id="paint4_linear" x1="-134.57" y1="91.89" x2="82.54" y2="659.09" gradientUnits="userSpaceOnUse"><stop stop-color="#4AFEBF"/><stop offset="1" stop-color="#51EEDA"/></linearGradient><linearGradient id="paint5_linear" x1="-133.6" y1="99.74" x2="78.23" y2="653.14" gradientUnits="userSpaceOnUse"><stop stop-color="#4AFEBF"/><stop offset="1" stop-color="#51EEDA"/></linearGradient><linearGradient id="paint6_linear" x1="-132.93" y1="107.26" x2="73.77" y2="647.24" gradientUnits="userSpaceOnUse"><stop stop-color="#4AFEBF"/><stop offset="1" stop-color="#51EEDA"/></linearGradient><linearGradient id="paint7_linear" x1="-131.85" y1="114.54" x2="69.78" y2="641.28" gradientUnits="userSpaceOnUse"><stop stop-color="#4AFEBF"/><stop offset="1" stop-color="#51EEDA"/></linearGradient><linearGradient id="paint8_linear" x1="-131.38" y1="121.51" x2="65.33" y2="635.38" gradientUnits="userSpaceOnUse"><stop stop-color="#4AFEBF"/><stop offset="1" stop-color="#51EEDA"/></linearGradient><linearGradient id="paint9_linear" x1="-131.33" y1="127.05" x2="61.01" y2="629.53" gradientUnits="userSpaceOnUse"><stop stop-color="#4AFEBF"/><stop offset="1" stop-color="#51EEDA"/></linearGradient><linearGradient id="paint10_linear" x1="-131.15" y1="132.67" x2="56.75" y2="623.56" gradientUnits="userSpaceOnUse"><stop stop-color="#4AFEBF"/><stop offset="1" stop-color="#51EEDA"/></linearGradient><linearGradient id="paint11_linear" x1="-131.3" y1="137.64" x2="52.46" y2="617.71" gradientUnits="userSpaceOnUse"><stop stop-color="#4AFEBF"/><stop offset="1" stop-color="#51EEDA"/></linearGradient><linearGradient id="paint12_linear" x1="-131.68" y1="142.2" x2="48.11" y2="611.88" gradientUnits="userSpaceOnUse"><stop stop-color="#4AFEBF"/><stop offset="1" stop-color="#51EEDA"/></linearGradient><linearGradient id="paint13_linear" x1="-132.15" y1="146.61" x2="43.72" y2="606.06" gradientUnits="userSpaceOnUse"><stop stop-color="#4AFEBF"/><stop offset="1" stop-color="#51EEDA"/></linearGradient><linearGradient id="paint14_linear" x1="-132.88" y1="150.39" x2="39.35" y2="600.35" gradientUnits="userSpaceOnUse"><stop stop-color="#4AFEBF"/><stop offset="1" stop-color="#51EEDA"/></linearGradient><linearGradient id="paint15_linear" x1="-133.57" y1="153.63" x2="35.21" y2="594.55" gradientUnits="userSpaceOnUse"><stop stop-color="#4AFEBF"/><stop offset="1" stop-color="#51EEDA"/></linearGradient><linearGradient id="paint16_linear" x1="-134.46" y1="156.99" x2="30.84" y2="588.83" gradientUnits="userSpaceOnUse"><stop stop-color="#4AFEBF"/><stop offset="1" stop-color="#51EEDA"/></linearGradient><linearGradient id="paint17_linear" x1="-135.7" y1="159.97" x2="26.3" y2="583.18" gradientUnits="userSpaceOnUse"><stop stop-color="#4AFEBF"/><stop offset="1" stop-color="#51EEDA"/></linearGradient><linearGradient id="paint18_linear" x1="-136.67" y1="162.85" x2="22.06" y2="577.52" gradientUnits="userSpaceOnUse"><stop stop-color="#4AFEBF"/><stop offset="1" stop-color="#51EEDA"/></linearGradient><linearGradient id="paint19_linear" x1="-137.72" y1="165.71" x2="17.8" y2="571.98" gradientUnits="userSpaceOnUse"><stop stop-color="#4AFEBF"/><stop offset="1" stop-color="#51EEDA"/></linearGradient><linearGradient id="paint20_linear" x1="-139.14" y1="168.66" x2="15.43" y2="572.46" gradientUnits="userSpaceOnUse"><stop stop-color="#4AFEBF"/><stop offset="1" stop-color="#51EEDA"/></linearGradient><linearGradient id="paint21_linear" x1="-139.72" y1="170.99" x2="14.61" y2="574.16" gradientUnits="userSpaceOnUse"><stop stop-color="#4AFEBF"/><stop offset="1" stop-color="#51EEDA"/></linearGradient><linearGradient id="paint22_linear" x1="-135.91" y1="171.71" x2="18.2" y2="574.29" gradientUnits="userSpaceOnUse"><stop stop-color="#4AFEBF"/><stop offset="1" stop-color="#51EEDA"/></linearGradient><linearGradient id="paint23_linear" x1="-132.66" y1="172.29" x2="21.33" y2="574.59" gradientUnits="userSpaceOnUse"><stop stop-color="#4AFEBF"/><stop offset="1" stop-color="#51EEDA"/></linearGradient><linearGradient id="paint24_linear" x1="-129.02" y1="173.09" x2="24.74" y2="574.78" gradientUnits="userSpaceOnUse"><stop stop-color="#4AFEBF"/><stop offset="1" stop-color="#51EEDA"/></linearGradient><linearGradient id="paint25_linear" x1="-125.84" y1="174" x2="27.72" y2="575.14" gradientUnits="userSpaceOnUse"><stop stop-color="#4AFEBF"/><stop offset="1" stop-color="#51EEDA"/></linearGradient><linearGradient id="paint26_linear" x1="-122.43" y1="174.81" x2="30.92" y2="575.42" gradientUnits="userSpaceOnUse"><stop stop-color="#4AFEBF"/><stop offset="1" stop-color="#51EEDA"/></linearGradient><linearGradient id="paint27_linear" x1="-119.67" y1="175.49" x2="33.56" y2="575.79" gradientUnits="userSpaceOnUse"><stop stop-color="#4AFEBF"/><stop offset="1" stop-color="#51EEDA"/></linearGradient><linearGradient id="paint28_linear" x1="-116.47" y1="176.49" x2="36.53" y2="576.16" gradientUnits="userSpaceOnUse"><stop stop-color="#4AFEBF"/><stop offset="1" stop-color="#51EEDA"/></linearGradient><linearGradient id="paint29_linear" x1="-113.35" y1="177.29" x2="40.01" y2="577.93" gradientUnits="userSpaceOnUse"><stop stop-color="#4AFEBF"/><stop offset="1" stop-color="#51EEDA"/></linearGradient><linearGradient id="paint30_linear" x1="-110.86" y1="178.15" x2="43.54" y2="581.51" gradientUnits="userSpaceOnUse"><stop stop-color="#4AFEBF"/><stop offset="1" stop-color="#51EEDA"/></linearGradient><linearGradient id="paint31_linear" x1="-107.84" y1="179.26" x2="48.09" y2="586.62" gradientUnits="userSpaceOnUse"><stop stop-color="#4AFEBF"/><stop offset="1" stop-color="#51EEDA"/></linearGradient><clipPath id="clip0"><path fill="#fff" d="M0 0h293v773H0z"/></clipPath></defs></svg>