<svg width="1405" height="1147" fill="none" xmlns="http://www.w3.org/2000/svg"><path d="M1144.8 1067.16a220.9 220.9 0 0 1-11.75 10.92c-59 50.99-145.08 75.17-236.42 66.19-75.16-7.19-152.68-35.24-237.1-85.4-22.67-13.54-45.6-28.46-67.99-42.83-78.62-50.99-160-103.91-252.86-110.54-25.29-1.8-51.27-.14-76.14 1.52-38.41 2.48-78.07 5.11-115.79-4.98-43.53-11.47-82.49-40.76-109.71-82.07-26.25-40.08-39.1-87.2-36.34-132.8C6.09 602.2 60.1 518.34 145.23 463.07c9.81-6.5 20.31-12.58 30.26-18.38 33.3-19.76 67.85-40.21 88.3-72.27 18.23-28.74 23.35-63.7 28.05-97.41 2.2-16.03 4.56-32.75 8.29-48.64 12.02-50.7 40.34-98.1 81.94-136.93 40.34-37.59 90.08-64.4 143.84-77.8 101.97-25.42 219-5.66 321.26 54.3 30.26 17.83 59.13 38.97 87.05 59.15 27.5 20.03 55.96 40.76 85.8 58.45 50.16 29.43 125.19 60.52 198.15 40.9 8.7-2.35 17.41-5.53 25.98-8.57 18.79-6.63 38.27-13.68 58.86-12.71 31.92 1.24 64.25 22.8 81.94 54.85 14.09 25.43 20.59 57.07 19.89 97-.96 50.99-13.12 102.94-34.95 150.2-21.97 47.4-53.89 90.37-92.31 124.08a893.92 893.92 0 0 1-25.97 21.56c-15.62 12.57-31.65 25.56-45.46 40.48-24.46 26.4-36.9 55.96-35.1 82.91 1.24 18.93 9.4 37.03 17.27 54.58 3.73 8.15 7.46 16.58 10.5 25.15 25.57 70.33 3.32 155.86-54.02 213.2ZM89.13 513.36C39.11 563.36 8.71 625 4.71 687.31c-6.08 95.34 56.79 188.05 143 210.72 37.18 9.8 76.7 7.32 114.56 4.83 25.14-1.66 51.12-3.32 76.68-1.52 93.82 6.77 175.63 59.83 254.66 111.23 22.11 14.37 45.05 29.3 67.7 42.84 83.88 49.88 160.85 77.65 235.46 84.84 90.23 8.7 175.35-15.06 233.38-65.36 4.01-3.45 7.88-7.05 11.61-10.78 56.37-56.37 78.2-140.1 52.92-209.06a352.37 352.37 0 0 0-10.5-24.87c-8.02-17.96-16.31-36.2-17.55-55.96-1.94-28.19 10.78-58.59 36.06-85.8 13.96-15.07 30.13-28.2 45.74-40.77 8.57-6.9 17.41-14.1 25.98-21.55 76.96-67.85 124.08-169.4 126.15-271.52.69-39.1-5.66-70.33-19.34-95.07-17.28-30.81-48.09-51.67-78.76-52.78-19.76-.7-38.97 6.08-57.35 12.57a415 415 0 0 1-26.25 8.57c-74.2 20.04-150.34-11.33-201.05-41.31-29.98-17.55-58.44-38.56-86.08-58.73-27.77-20.31-56.51-41.31-86.64-59C743.81 9.56 627.88-10.2 526.87 15.1 416.88 42.45 327.35 127.56 304 226.91c-3.73 15.62-5.94 32.2-8.29 48.09-4.83 34.13-9.8 69.5-28.6 99.07-21 32.89-55.82 53.61-89.54 73.51a677.37 677.37 0 0 0-30.12 18.52c-21.42 14.23-41.04 29.98-58.3 47.25Z" fill="url(#a)"/><path d="M1120.34 1054.87c-4.01 4-8.29 8.01-12.57 11.74-58.04 49.47-142.05 72.96-230.48 64.39-73.37-7.05-148.96-34.54-230.9-83.87-21.69-13.13-43.52-27.22-64.66-40.9-76.55-49.75-155.59-101.15-245.82-109.58-24.04-2.2-48.5-1.52-72.12-.82-36.48 1.1-74.48 2.34-110.4-7.88-84.7-23.9-145.92-115.8-139.7-209.06 5.66-82.5 58.17-164.3 140.8-218.46 9.53-6.22 19.62-12.43 29.43-18.38 32.2-19.48 65.63-39.65 84.98-71.16 17.55-28.32 22.8-62.59 27.77-95.75 2.49-16.58 5.25-33.72 9.4-50.02 12.57-49.6 40.9-95.9 81.94-133.34A321.04 321.04 0 0 1 529.5 16.6c100.18-24.18 215.14-4.28 315.32 54.72 29.29 17.4 57.2 37.86 84.28 57.48 28.47 20.73 58.04 42.28 88.99 60.24 48.78 28.05 122.29 57.9 195.66 40.07 7.46-1.93 14.78-4 22.1-6.07 21.28-6.08 41.32-12.03 62.46-9.95 30.68 3.04 59.69 25.15 75.86 57.34 12.57 25.29 17.96 55.55 16.58 95.34-3.04 95.62-43.8 188.34-112.34 256.87a468.29 468.29 0 0 1-12.02 11.47c-10.5 9.67-21.83 18.8-32.75 27.77-14.09 11.61-28.74 23.5-41.45 36.2-18.65 18.66-40.76 47.12-40.07 78.49.28 17.96 7.6 34.96 14.65 51.4 3.17 7.32 6.49 15.06 9.12 22.94 12.57 36.34 12.16 76.55-.69 116.2a233.36 233.36 0 0 1-54.86 87.75ZM100.74 508.66C51.69 557.7 21.7 618.09 17.42 679.03c-6.22 91.6 53.75 181.7 136.8 205.05 35.37 9.95 71.3 8.84 109.15 7.74 23.77-.83 48.36-1.38 72.68.83 91.06 8.43 170.65 60.1 247.47 110.12 21.15 13.68 42.84 27.92 64.67 40.9 81.39 49.06 156.42 76.28 229.37 83.46 87.47 8.43 170.38-14.78 227.72-63.56 63.28-53.89 90.64-140.94 66.32-211.4a314.8 314.8 0 0 0-8.98-22.53c-7.18-16.86-14.65-34.27-15.06-52.92-.69-32.75 22.11-62.18 41.18-81.25 12.99-12.99 27.63-24.87 41.73-36.48 10.91-8.98 22.24-18.1 32.61-27.63 75.16-68.82 119.93-165.54 123.11-265.72 1.38-39.24-3.87-69.08-16.17-93.54-15.61-31.1-43.52-52.37-72.82-55.41-20.31-2.07-40.07 3.6-60.93 9.81-7.32 2.07-14.79 4.28-22.25 6.22-74.61 18.24-149.09-12.02-198.42-40.35-31.23-17.96-60.8-39.52-89.26-60.52-26.94-19.76-54.72-40.07-83.87-57.34-99.49-58.59-213.2-78.35-312.56-54.45-109.02 26.4-195.52 107.1-220.53 205.89-4 16.16-6.63 33.16-9.25 49.6-5.12 33.58-10.37 68.12-28.33 97.14-19.9 32.33-53.61 52.78-86.22 72.4a933.48 933.48 0 0 0-29.3 18.24 359.11 359.11 0 0 0-55.54 45.33Z" fill="url(#b)"/><path d="M1096.71 1041.74a214.84 214.84 0 0 1-14.37 13.26c-57.2 48.09-139 70.75-224.67 62.46-71.72-7.05-145.09-33.99-224.82-82.49A2319.78 2319.78 0 0 1 571.5 996c-74.47-48.5-151.57-98.52-239.04-108.6-22.8-2.63-45.74-2.9-67.84-2.9-36.62-.42-71.17-.7-105.43-10.92-40.35-12.16-76-40.07-100.73-78.62-24.19-37.73-35.8-81.94-32.61-124.64C31.65 590.73 82.9 511 162.78 457.4a848.12 848.12 0 0 1 27.77-17.55c31.5-19.34 63.98-39.38 82.35-70.74 16.59-27.91 22.11-61.35 27.5-93.82 2.9-17.28 5.8-35.1 10.37-51.82C337.3 125.63 424.06 46.32 531.7 21.03c98.8-23.07 211.55-2.9 309.51 55.27 28.6 17 55.83 37.03 82.22 56.24 29.15 21.42 59.55 43.53 91.47 61.63 67.02 37.72 135.55 51.81 193.17 39.24 4.98-1.1 10.09-2.35 15.06-3.46 23.91-5.66 46.57-10.91 69.23-7.04 28.88 4.83 55.55 27.9 69.64 59.97 10.92 25 15.06 54.02 13.26 93.95-2.21 49.75-13.95 99.63-33.99 143.99-21.28 47.25-50.71 87.18-87.46 118.69a2000.33 2000.33 0 0 1-25.15 21.28c-17.41 14.64-35.37 29.57-51.95 44.77-29.16 26.66-44.36 51.54-45.19 73.92-.55 16.86 5.53 32.06 12.02 48.22a227.32 227.32 0 0 1 7.74 20.73c21 64.11-1.1 139.83-54.58 193.31ZM112.48 503.82C64.12 552.18 34.28 611.32 30 670.6c-6.5 87.74 50.99 175.34 130.58 199.39 33.58 10.08 67.98 10.5 104.18 10.77 22.25.14 45.19.42 68.26 3.04 88.3 10.09 165.81 60.52 240.57 109.3a2317.29 2317.29 0 0 0 61.35 38.97c79.03 48.08 151.99 74.89 223.15 81.66 84.56 8.29 165.4-14.23 221.91-61.63 62.73-52.78 90.09-134.3 68.26-203.12a291.06 291.06 0 0 0-7.6-20.3c-6.35-15.76-12.99-32.07-12.3-49.61.83-23.5 16.45-49.33 46.43-76.55 16.58-15.2 34.68-30.26 51.95-44.77 8.3-6.91 16.86-14.1 25.01-21.14 71.72-61.22 115.52-155.87 120.08-259.91 1.8-39.38-2.21-67.71-12.99-92.3-13.54-30.96-39.24-53.06-66.88-57.76-21.69-3.73-44.07 1.52-67.56 7.05-4.98 1.1-10.09 2.34-15.07 3.45-58.31 12.71-127.95-1.38-195.65-39.52-32.2-18.1-62.46-40.35-91.89-61.76-26.4-19.21-53.47-39.1-81.94-55.97C742.7 22 630.92 1.96 533.1 24.9 426.7 49.5 341.03 127.98 314.77 224.43c-4.42 16.58-7.46 34.26-10.22 51.4-5.4 32.75-11.06 66.6-27.91 95.06-19.07 32.06-51.96 52.51-83.6 72a620.5 620.5 0 0 0-27.5 17.54 342.04 342.04 0 0 0-53.06 43.39Z" fill="url(#c)"/><path d="M1072.53 1029.16a250.92 250.92 0 0 1-15.61 14.24c-56.24 46.56-135.97 68.81-218.74 60.66-69.36-6.91-140.8-33.3-218.45-81.11-18.8-11.61-37.86-24.05-56.38-35.93-72.96-47.53-148.54-96.86-233.8-108.6-21.27-3.04-42.41-4.01-62.86-5.12-35.24-1.8-68.26-3.59-100.87-14.1-38.55-12.57-72.68-39.79-96.17-76.82-23.22-36.48-34-79.31-30.68-120.49 6.08-76.82 55.96-154.34 133.34-207.4 8.57-5.8 17.69-11.6 26.4-17 30.4-19.06 61.9-38.96 79.58-69.91 15.48-27.36 21.42-60.1 26.95-91.61 3.18-17.83 6.5-36.34 11.6-53.62 27.78-95.75 113.59-173 218.6-196.76 97.14-21.97 207.82-1.66 303.57 55.96 27.78 16.72 54.3 36.07 80 54.86 30 21.97 61.08 44.77 94.24 63 64.95 35.93 132.79 49.61 190.69 38.42l1.65-.28c30.54-5.94 56.79-10.91 82.08-4.7 27.36 6.64 51.13 30.13 63.42 62.6 11.75 31.09 11.47 65.63 9.95 92.3-5.66 95.48-42 181.57-100.59 240.15-5.8 5.8-11.75 11.2-17.82 16.44-12.58 10.64-25.71 21.84-38.28 32.48a4394.29 4394.29 0 0 1-41.59 35.23c-31.78 26.8-48.36 49.47-50.3 69.64-1.65 15.75 3.73 29.99 9.26 44.9 2.21 6.09 4.7 12.17 6.36 18.52 17.82 61.22-4.42 132.93-55.55 184.05ZM124.09 498.84c-47.53 47.54-77.1 105.57-81.66 163.2-6.77 85.25 46.7 168.57 124.36 193.71 32.05 10.5 65.08 12.02 99.9 13.96 20.45 1.1 41.59 2.07 63.14 5.11 86.09 12.02 161.95 61.35 235.18 109.16a2610.35 2610.35 0 0 0 56.24 36.07c77.24 47.39 148.12 73.78 217.07 80.55 81.8 8.02 160.56-13.82 216.11-59.69 61.07-50.57 89.12-128.92 69.92-194.83-1.8-6.22-4.01-12.3-6.36-18.24-5.53-14.64-11.33-29.84-9.53-46.56 2.21-21 19.06-44.5 51.54-72 13.54-11.32 27.77-23.62 41.59-35.23 12.71-10.78 25.7-21.83 38.27-32.47 68.4-57.62 111.1-150.34 117.31-254.1 1.66-26.26 1.8-60.39-9.81-90.79-11.88-31.23-34.68-53.75-60.93-60.38-24.6-6.08-50.58-1.1-80.56 4.84l-1.66.27c-58.58 11.33-127.26-2.35-193.03-38.82-33.16-18.24-64.39-41.18-94.51-63.29-25.7-18.8-52.23-38.14-79.6-54.72-95.06-56.93-204.63-77.24-300.94-55.54-103.77 23.62-188.61 99.62-215.97 193.86-4.97 17.13-8.15 35.5-11.47 53.2-5.66 31.91-11.6 64.94-27.5 92.71-18.1 31.92-50.01 51.95-80.69 71.3a775.44 775.44 0 0 0-26.4 17 369.12 369.12 0 0 0-50.01 41.73Z" fill="url(#d)"/><path d="M1048.77 1016.45a229.03 229.03 0 0 1-17.14 15.48c-55.4 45.18-132.92 66.6-212.93 58.72-67.43-6.63-136.93-32.74-212.24-79.59a2194.8 2194.8 0 0 1-51.95-33.43c-71.44-46.57-145.09-94.8-228-108.34-19.47-3.17-38.27-5.1-56.64-6.9-34-3.32-66.19-6.5-97.56-17.41C96.45 818.58 44.64 736.09 51.7 653.33c6.35-74.07 54.85-149.65 129.6-201.74A791.1 791.1 0 0 1 206.44 435c29.44-18.93 59.97-38.7 76.7-69.23 14.64-26.8 20.72-58.58 26.52-89.26 3.45-18.65 7.19-37.86 12.71-55.82C351.25 127.43 436.1 52.8 538.62 30.43c95.48-20.87 203.95-.28 297.77 56.51 27.08 16.3 52.92 35.24 77.93 53.61 30.95 22.66 62.87 46.02 96.72 64.4 63.15 34.12 129.89 47.53 188.2 37.58 32.61-5.53 59.28-7.6 83.46.28 25.56 8.42 46.84 32.74 57.2 64.94 9.54 29.98 8.71 62.6 6.63 90.64-6.9 94.79-42.42 178.94-97.96 234.76a317.06 317.06 0 0 1-17.41 16.03c-10.23 8.57-20.59 17.55-30.68 26.25-16.99 14.79-34.68 29.99-51.95 43.4-23.63 18.37-51.27 42.41-55.41 65.07-2.76 14.65 1.8 27.78 6.49 41.6 1.8 5.38 3.73 10.9 5.12 16.44 8.29 32.05 5.66 67.29-7.74 101.42-10.5 26.8-26.95 51.81-48.22 73.09Zm-912.8-522.58c-46.7 46.7-76 103.63-80.83 159.6-6.9 81.24 43.8 162.07 118.42 188.05 30.95 10.78 62.87 13.96 96.72 17.41 18.38 1.8 37.45 3.73 56.93 6.91 83.6 13.68 157.66 62.04 229.37 108.88a2363.42 2363.42 0 0 0 51.82 33.3c75.03 46.57 143.98 72.41 210.85 79.04 79.04 7.74 155.73-13.4 210.31-58.03 60.11-49.06 88.29-122.29 71.71-186.4-1.38-5.53-3.31-10.78-5.11-16.17-4.7-13.54-9.53-27.77-6.77-43.25 4.42-23.76 31.09-47.4 56.79-67.29 17.27-13.4 34.82-28.74 51.95-43.39 10.09-8.7 20.59-17.82 30.68-26.25 65.08-54.3 106.67-144.81 114.27-248.3 2.07-27.78 2.9-60.11-6.49-89.4-9.95-31.23-30.54-54.86-55-62.74-23.49-7.73-49.6-5.66-81.8-.27-59 10.09-126.43-3.46-190.27-38-34.13-18.38-66.18-41.87-97.13-64.53-24.88-18.24-50.72-37.17-77.52-53.47-93-56.24-200.5-76.69-295.28-55.96-101.56 22.24-185.3 96.03-213.9 187.92-5.53 17.68-9.12 36.75-12.57 55.4-5.95 31.1-12.03 63.15-26.95 90.23-17.13 31.5-48.08 51.4-77.93 70.47a707.22 707.22 0 0 0-25.01 16.45 370.77 370.77 0 0 0-47.26 39.8Z" fill="url(#e)"/><path d="M1024.86 1003.6a215.54 215.54 0 0 1-18.65 16.72c-54.45 43.67-129.89 64.39-207 56.93-65.63-6.49-132.92-32.06-206.15-78.2a3057.94 3057.94 0 0 1-46.98-30.4c-69.78-45.74-142.18-93-222.88-108.47-16.72-3.18-32.6-5.53-48.08-8.02-33.86-5.11-65.78-9.95-96.59-21.7-35.23-13.4-66.19-39.37-87.05-73.5-21.14-34.13-30.68-74.06-27.22-112.34 6.9-72.4 52.64-143.84 125.88-196.07a650.33 650.33 0 0 1 23.76-16.03c28.47-18.8 58.04-38.14 73.93-68.67 13.68-26.12 19.9-56.93 25.84-86.64 4-19.48 8.15-39.66 14.23-58.17 30.12-90.92 114-163.19 213.9-184.05 93.82-19.76 200.21.97 291.82 56.93 26.26 16.02 51.4 34.54 75.86 52.36 31.5 23.22 64.4 47.26 99.21 65.78 61.08 32.33 127.13 45.32 185.57 36.89 35.24-5.11 61.63-3.32 83.19 5.8 23.9 10.09 42.55 34.82 50.98 67.57 7.19 28.47 5.94 59.56 3.46 89.13-4.98 56.65-23.91 157.65-94.79 228.54a246.55 246.55 0 0 1-17.69 16.03 1379.4 1379.4 0 0 0-30.26 26.11c-17.96 15.75-36.48 32.06-55.13 45.46-27.64 19.9-55.13 41.04-60.52 60.8-3.73 13.4 0 25.42 3.87 38.14 1.38 4.7 2.9 9.53 3.87 14.37 12.02 55.68-9.81 118.14-56.38 164.7ZM146.47 489.73c-45.73 45.73-73.78 100.31-78.9 155.44-7.18 77.1 41.04 155.45 112.2 182.4 30.54 11.46 62.32 16.44 95.9 21.55 15.61 2.35 31.5 4.7 48.22 7.88 81.25 15.47 153.93 63 223.99 109.02a3058.06 3058.06 0 0 0 46.98 30.4c72.81 45.73 139.7 71.16 204.77 77.65 76.28 7.46 150.75-12.85 204.5-56.1 58.18-46.84 87.05-116.62 73.51-177.97-1.1-4.7-2.48-9.4-3.87-14.1-3.86-12.7-7.87-25.55-3.73-39.92 5.81-20.73 33.72-42.29 61.77-62.6 18.65-13.4 37.03-29.57 54.99-45.32 9.95-8.84 20.31-17.82 30.4-26.25 84.43-70.06 105.98-181.98 111.37-242.36 2.63-29.16 3.87-59.97-3.18-88.02-8.15-31.92-25.97-55.55-49.05-65.36-21-8.84-46.84-10.64-81.39-5.66-59.27 8.7-125.87-4.56-187.64-37.04-35.1-18.51-67.98-42.56-99.62-65.9-24.32-17.97-49.47-36.2-75.45-52.24-90.92-55.54-196.48-76-289.48-56.51-99.07 20.31-181.84 91.75-211.68 181.56-6.08 18.24-10.23 38.41-14.1 57.76-6.08 30.12-12.43 61.07-26.25 87.6-16.3 31.23-46.15 50.85-75.03 69.78a704.09 704.09 0 0 0-23.63 15.9 365.88 365.88 0 0 0-45.6 38.4Z" fill="url(#f)"/><path d="M1001.51 990.48a259.4 259.4 0 0 1-20.45 18.23c-53.61 42.29-126.7 62.32-201.05 54.86-63.56-6.36-129.05-31.5-199.94-76.69a2369.28 2369.28 0 0 1-41.31-26.94c-68.68-45.19-139.7-91.61-218.32-109.16a3909.58 3909.58 0 0 0-32.75-7.05c-37.58-7.74-70.06-14.5-102.39-27.77-70.05-28.88-115.38-104.6-107.91-180.04 6.9-69.64 51.54-139.15 122.14-190.69a587.27 587.27 0 0 1 22.39-15.47c27.5-18.66 56.1-37.86 71.16-67.85 12.57-25.28 19.07-55 25.15-83.73 4.42-20.45 8.98-41.6 15.61-60.94 31.1-88.57 114.14-158.35 211.41-177.97 92.16-18.65 196.49 2.49 286.02 57.48 25.57 15.62 50.02 33.72 73.8 51.13 32.32 23.76 65.76 48.36 101.69 66.88 59 30.53 124.08 43.38 182.94 35.92 33.44-4.15 60.53-.55 82.77 11.2 30.26 15.88 41.04 50.7 44.77 70.19 5.39 28.05 3.04 58.58 0 87.6-10.64 104.6-49.6 189.44-109.57 238.9a1328.54 1328.54 0 0 0-30.4 26.26c-18.52 16.58-37.86 33.71-57.9 47.12l-3.59 2.48c-28.46 19.07-55.41 37.18-62.18 53.9-4.97 12.15-2.07 23.07.97 34.68.97 4 2.07 8.15 2.9 12.3 9.26 53.74-11.88 111.09-55.96 155.17ZM158.5 484.6c-45.05 45.05-72.82 98.52-78.21 152-7.46 74.06 37.17 148.26 105.84 176.59 32.06 13.26 64.4 19.9 101.84 27.77 10.5 2.21 21.55 4.42 32.88 6.9 79.18 17.56 150.48 64.26 219.43 109.44 13.54 8.85 27.5 18.1 41.17 26.81 70.47 45.04 135.41 69.92 198.56 76.13 73.37 7.33 145.92-12.43 198.7-54.16 56.93-45.05 85.67-109.99 75.31-169.82-.7-4-1.8-8.15-2.77-12.16-3.04-11.6-6.08-23.49-.69-36.62 7.05-17.54 34.41-36.06 63.42-55.4l3.6-2.5c19.76-13.4 38.96-30.39 57.62-46.83 9.94-8.85 20.31-18.1 30.53-26.4 59.42-48.9 97.83-132.92 108.33-236.55 2.9-28.6 5.39-59 0-86.5-3.59-18.8-14.09-52.5-42.97-67.85-21.69-11.46-48.09-14.92-80.83-10.91-59.56 7.32-125.19-5.53-185.02-36.34-36.07-18.66-69.64-43.39-102.11-67.3-23.77-17.4-48.23-35.5-73.51-51.12-88.99-54.72-192.34-75.44-283.68-57.06-96.17 19.34-178.25 88.43-209.06 175.9-6.63 19.06-11.2 40.2-15.48 60.51-6.21 28.88-12.57 58.73-25.56 84.43-15.47 30.68-44.21 50.3-72.26 69.23a631.78 631.78 0 0 0-22.25 15.33 347.7 347.7 0 0 0-42.83 36.48Z" fill="url(#g)"/><path d="M977.19 978.04a238.58 238.58 0 0 1-21.56 19.07c-52.64 40.76-123.66 60.1-195.24 52.92-61.76-6.22-125.05-30.81-193.86-75.3-11.6-7.47-23.21-15.2-34.54-22.67-67.85-44.63-137.9-90.92-214.87-110.4-47.67-12.02-87.19-22.52-125.74-40.07-31.78-14.37-59.41-39.24-77.93-70.2-19.2-32.19-27.36-68.25-23.63-104.04 7.19-66.88 50.3-134.3 118.42-185.02a521.04 521.04 0 0 1 20.86-14.78c27.91-19.35 54.17-37.59 68.4-67.3 11.75-24.45 18.1-52.92 24.32-80.41 4.84-21.42 9.81-43.8 17.27-63.98 32.06-86.22 114.14-153.65 209.06-171.75 90.5-17.27 192.62 3.87 280.22 58.03 24.74 15.34 48.78 33.02 71.86 50.02 33.02 24.46 67.29 49.6 104.04 68.12 56.93 28.74 121.04 41.18 180.46 35.1 32.33-3.32 60.11 2.35 82.49 16.72 26.25 16.85 35.51 48.77 38.55 72.54 3.32 25.7.69 52.92-3.31 85.95-8.02 67.7-30.27 157.93-90.65 218.31a261.84 261.84 0 0 1-15.89 14.51c-10.36 8.43-20.59 17.83-30.54 26.67-19.34 17.41-39.24 35.37-60.52 48.64-5.66 3.45-11.05 6.9-16.44 10.08-25.42 15.48-47.39 28.88-54.44 41.74-5.94 10.91-4.01 20.58-1.94 31.22.56 3.32 1.25 6.77 1.8 10.37 6.08 51.12-15.34 104.6-56.65 145.91ZM170.38 479.36c-44.36 44.36-72.13 96.73-77.66 148.68-7.6 70.88 33.44 141.22 99.77 171.06 38.41 17.41 76.13 27.5 125.18 39.8 77.38 19.62 147.71 65.9 215.83 110.81 11.34 7.46 22.94 15.2 34.55 22.66 68.26 44.22 131.27 68.54 192.48 74.76 70.6 7.04 141.08-12.02 193.03-52.37 54.44-42.28 84.01-104.19 77.1-161.4-.41-3.45-1.1-6.9-1.79-10.08-2.08-10.64-4.29-21.41 2.35-33.3 7.46-13.54 29.7-27.22 55.68-42.97 5.39-3.18 10.78-6.63 16.44-10.09 20.87-13.12 40.9-30.95 60.11-48.5 10.09-8.98 20.31-18.38 30.68-26.8 71.71-59 97-158.08 105.42-230.9 4.01-33.85 6.5-59.83 3.18-85.25-3.04-23.21-11.88-54.17-37.17-70.33-21.69-13.96-48.77-19.48-80.55-16.17-59.97 6.08-124.78-6.5-182.26-35.51-37.17-18.65-71.3-43.94-104.6-68.4-23.07-17-46.98-34.54-71.71-49.88-86.91-53.75-188.2-74.89-277.87-57.62-93.83 18.1-175.07 84.7-206.72 169.96-7.46 19.9-12.43 42-17.27 63.42-6.21 27.77-12.57 56.24-24.45 81.11-14.65 30.4-42.42 49.88-69.37 68.54-6.9 4.7-13.95 9.8-20.86 14.78a364.22 364.22 0 0 0-39.52 34Z" fill="url(#h)"/><path d="M957.85 961.46a261.15 261.15 0 0 1-27.64 24.04c-51.68 39.52-120.77 58.04-189.3 51.13-59.83-5.94-121.32-30.13-187.64-73.79-8.71-5.67-17.55-11.47-26.12-17.27-67.7-44.77-137.49-91.06-213.07-112.75-42.42-12.3-76.13-25.29-116.2-45.19-63.84-31.78-102.95-101-95.2-168.43 7.45-64.12 49.18-129.61 114.68-179.36 6.5-4.83 12.99-9.67 19.48-14.23 26.95-19.2 52.37-37.44 65.64-66.74 10.63-23.35 17-50.43 23.07-76.69 5.39-22.8 10.92-46.28 19.2-67.29 16.31-41.45 44.36-78.9 80.98-108.33a282.62 282.62 0 0 1 125.74-57.48c88.85-16.16 188.88 5.11 274.42 58.59 24.18 15.06 47.53 32.33 70.05 49.05 33.72 24.87 68.67 50.71 106.4 69.37 54.85 26.94 118 39.24 177.97 34.26 31.78-2.48 60.1 5.12 82.07 22.11 24.05 18.52 30.82 50.99 32.34 75.17 1.66 24.04-1.8 48.77-5.53 77.65l-.97 6.78c-13.95 105.7-48.77 181.97-103.63 226.88-10.36 8.43-20.72 17.96-30.67 27.08-19.9 18.24-40.77 37.17-63.15 50.16-32.75 19.2-62.04 37.45-76.41 47.95-7.74 5.52-6.5 13.12-4.84 21.97.69 4.56 1.52 9.25 1.11 13.81 9.26 40.5-10.92 89.68-52.78 131.55ZM182.54 474.1c-43.8 43.8-71.3 95.07-77.1 145.64-7.6 66.19 30.8 134.17 93.54 165.4 39.93 19.75 73.51 32.88 115.8 45.04 75.99 21.83 146.18 68.26 214.03 113.17 8.7 5.66 17.4 11.6 26.11 17.27 66.05 43.39 126.99 67.29 186.26 73.23 67.85 6.77 136.25-11.6 187.23-50.43 59.28-45.18 90.23-105.15 78.9-152.69v-.55c.55-4.14-.27-8.84-.97-13.13-1.52-8.98-3.04-18.23 6.08-24.87 14.65-10.5 43.25-28.6 76.69-47.94 22.11-13 42.84-31.78 62.6-49.89a957.71 957.71 0 0 1 30.81-27.22c54.16-44.49 88.57-120.07 102.53-224.95l.96-6.77c3.73-28.6 7.19-53.33 5.53-77.1-1.52-23.35-8.15-55.13-31.23-72.96-21.42-16.72-49.19-24.04-80.14-21.55-60.52 4.97-124.36-7.46-179.63-34.55-38-18.65-72.96-44.49-106.8-69.5-22.53-16.72-45.75-33.85-69.79-48.77-84.84-53.62-184.05-74.9-272.2-58.87C460.4 68.84 380.13 133.1 347.25 216c-8.16 20.86-13.82 44.21-19.07 66.88-5.95 26.39-12.44 53.6-23.22 77.37-13.68 29.99-40.62 49.2-66.6 67.99-6.5 4.56-12.99 9.4-19.48 14.23a335.14 335.14 0 0 0-36.34 31.64Z" fill="url(#i)"/><path d="M935.46 947.64a292.16 292.16 0 0 1-30.68 26.53c-50.7 38-117.58 55.96-183.5 49.19-57.89-5.94-117.44-29.57-181.42-72.26-4.83-3.18-9.8-6.5-14.64-9.68-68.4-45.73-139.01-92.85-214.45-117.45-39.66-12.85-67.02-28.32-93.69-43.1-4.42-2.5-8.7-4.84-13.13-7.33-50.7-28.05-97.96-89.12-88.84-162.63 7.6-61.22 48.08-124.64 110.95-173.7 5.94-4.55 12.16-9.11 17.97-13.53 25.97-19.07 50.43-37.17 62.87-66.19 9.67-22.38 15.89-47.95 21.83-72.68 5.8-24.04 12.02-49.05 21.14-71.16 34.54-82.63 112.89-143.84 204.36-159.6 87.2-15.06 185.02 6.5 268.62 59.15 23.35 14.78 46.28 31.64 68.12 47.94 34.4 25.57 69.91 51.96 108.6 70.47 52.65 25.29 114.83 37.17 175.49 33.44 40.34-2.49 66.74 13.68 81.8 27.64 17.41 16.02 26.25 42.28 26.11 77.51 0 20.18-3.18 40.76-6.91 64.67-.96 5.94-1.79 12.02-2.76 18.24-14.37 97-41.87 163.74-85.81 207.68-4.69 4.7-9.67 9.12-14.78 13.4-10.5 8.57-20.87 18.1-30.81 27.5-20.73 19.07-42.15 38.82-65.91 51.81a1475.36 1475.36 0 0 1-42.01 21.84c-17.27 8.7-31.09 15.6-39.24 21.27-5.4 7.6-5.8 13.55-6.36 19.9-.27 3.32-.55 6.91-1.66 10.78 7.74 36.2-12.02 81.1-51.26 120.35ZM194.7 468.58c-43.25 43.25-70.61 93.55-76.83 142.6-8.98 72 37.45 132.24 87.33 159.73 4.42 2.5 8.7 4.84 13.13 7.33 26.53 14.92 53.88 30.12 93.13 42.83 75.72 24.6 146.6 72 215.14 117.59 4.83 3.18 9.8 6.5 14.64 9.67 63.7 42.42 122.7 66.05 180.18 71.85 65.22 6.64 131.27-11.05 181.43-48.77 58.45-43.8 90.1-100.32 80.83-144.4l-.13-.41.13-.42a61 61 0 0 0 1.66-10.5c.7-6.5 1.1-13.26 7.19-21.55l.27-.28c8.29-5.8 22.25-12.85 39.94-21.7 12.71-6.35 27.08-13.53 42-21.82 23.35-12.86 44.63-32.48 65.22-51.4 10.09-9.26 20.45-18.8 30.81-27.5 52.1-42.98 83.74-112.48 99.49-219.15.97-6.22 1.8-12.3 2.76-18.24 3.74-23.63 6.91-44.22 6.91-64.11 0-34.55-8.43-59.83-25.14-75.45-14.65-13.54-40.35-29.3-79.59-26.8-61.08 3.59-123.95-8.43-176.87-33.72-38.83-18.65-74.62-45.04-109.16-70.75-21.83-16.3-44.63-33.02-67.98-47.8-82.9-52.23-180.05-73.65-266.54-58.73-90.5 15.62-167.89 76.14-202.15 157.94-9.13 21.83-15.2 46.7-21 70.74-6.09 24.88-12.3 50.44-21.98 73.1-12.85 29.7-38.82 48.77-63.97 67.29-5.95 4.28-12.03 8.98-17.97 13.54a417.33 417.33 0 0 0-32.88 29.3Z" fill="url(#j)"/><path d="M914.6 932.58a294.3 294.3 0 0 1-35.1 29.85c-49.75 36.48-114.55 53.75-177.56 47.39-56.1-5.8-113.44-28.88-175.34-70.88-16.45-11.2-33.03-23.36-49.06-34.96-53.2-39.1-108.19-79.45-169.54-89.13h-.27l-.14-.13c-15.9-9.54-30.82-16.72-44.08-23.08-20.45-9.67-38.14-18.24-53.2-32.47-55.27-19.9-91.47-88.71-82.49-156.83 7.88-58.45 46.84-119.8 107.22-168.3 5.4-4.28 11.06-8.57 16.45-12.85 25-18.93 48.64-37.03 60.38-65.63 8.57-21 14.65-45.05 20.45-67.99 6.5-25.56 13.13-52.09 23.5-75.44 35.5-80.28 112.88-139.14 201.87-153.51 85.39-13.82 181.14 7.87 262.67 59.55 22.8 14.5 45.04 30.95 66.6 46.98 34.96 26.11 71.16 52.92 110.82 71.57 50.29 23.5 111.64 35.1 172.86 32.75 40.9-1.66 66.87 17.14 81.38 33.03 15.89 17.55 22.39 43.66 20.04 80-1.11 16.58-4.42 34-7.88 52.37-1.8 9.26-3.59 18.8-5.11 28.88-13.13 79.17-46.84 153.51-97.42 214.86-27.91 33.72-63.28 62.74-99.76 81.25-24.73 12.57-48.5 22.52-65.9 29.98-8.16 3.46-15.49 6.36-20.74 8.85-6.08 6.63-7.46 11.33-8.84 16.58-.83 2.76-1.66 5.53-2.9 8.7 5.53 32.89-12.71 72.4-48.91 108.61ZM308.56 812.09c62.04 9.81 117.17 50.3 170.5 89.54 15.9 11.74 32.34 23.76 48.92 34.82 61.49 41.59 118.55 64.67 173.96 70.33 62.46 6.36 126.43-10.64 175.62-46.84 58.45-42.7 89.96-94.93 82.5-136.1l-.14-.42.13-.41a46.1 46.1 0 0 0 3.05-8.57c1.65-5.53 3.03-10.78 9.67-17.96l.27-.28c5.25-2.49 12.72-5.53 21-9.12 17.42-7.18 41.18-17.13 65.78-29.85 35.51-18.1 71.57-47.53 98.79-80.55 50.44-60.94 83.88-134.72 96.87-213.48 1.65-10.23 3.45-19.76 5.11-28.88 3.45-18.38 6.77-35.8 7.87-52.1 2.35-35.5-3.86-61.07-19.34-77.93-14.09-15.47-39.24-33.71-79.18-32.2-61.76 2.36-123.66-9.25-174.24-33.02-39.79-18.51-76.13-45.73-111.23-71.7-21.41-15.9-43.52-32.48-66.32-46.99C737.18 68.98 642.1 47.42 557.4 61.1 469.95 75.61 393.4 133.92 358.3 213.24c-10.23 22.93-16.86 49.46-23.22 74.89-5.8 23.21-11.88 47.25-20.58 68.4-11.89 29.29-37.04 48.36-61.22 66.73a669.43 669.43 0 0 0-16.44 12.85c-59.83 47.95-98.52 108.75-106.26 166.5-8.84 66.88 26.67 134.45 80.97 153.93h.28l.28.28c14.64 14.1 32.2 22.52 52.64 32.2 13 6.35 28.05 13.4 43.8 23.07Z" fill="url(#k)"/><path d="M1126.97 709.15c-24.18 24.18-51.95 44.5-79.59 57.76-40.48 19.48-78.9 30.53-91.88 34.4-7.05 5.67-9.26 9.26-11.61 13.54-1.24 2.08-2.35 4.01-4.28 6.5 5.25 38.41-27.5 88.02-85.53 129.75-48.92 35.1-111.51 51.54-171.76 45.46-54.3-5.67-109.57-28.33-169.13-69.37-15.89-10.92-31.92-22.8-47.25-34.27-50.57-37.86-102.94-76.96-161.25-86.9h-.28l-.28-.29c-13.81-9.67-26.53-17.13-37.86-23.76-19.62-11.6-36.47-21.56-49.88-36.9-51.95-19.62-85.53-85.8-76.13-151.02 10.91-76.14 69.64-134.58 103.49-162.63a509.83 509.83 0 0 1 14.92-11.89c24.05-19.07 46.84-36.9 57.76-65.22 7.46-19.62 13.27-41.73 18.65-62.87 7.05-27.5 14.38-55.82 25.84-80.28 36.34-77.8 112.9-134.17 199.53-147.3 83.73-12.7 177.28 9.26 256.73 60.25 22.25 14.23 43.94 30.4 64.8 46.01 35.65 26.53 72.41 54.17 112.9 72.55 61.21 27.77 126.43 32.74 170.37 31.91 44.21-.82 69.64 23.77 81.11 38.56 14.51 18.93 18.79 45.04 13.81 82.63-1.79 13.4-4.97 27.08-8.42 41.86a807.83 807.83 0 0 0-8.02 37.86c-14.09 77.38-46.84 149.65-94.51 208.93a301.93 301.93 0 0 1-22.25 24.73Zm-178.1 94.37c1.38-1.38 3.17-2.9 5.24-4.7l.14-.13h.28c12.71-3.6 51.12-14.65 91.75-34.27 36.48-17.41 73.51-47.53 101.56-82.5 47.39-59 79.86-130.7 93.82-207.67a821.27 821.27 0 0 1 8.01-37.86c3.32-14.65 6.5-28.6 8.29-41.73 4.98-36.76.69-62.32-13.4-80.56-11.05-14.37-35.79-38.27-78.9-37.44-44.21.83-109.85-4-171.61-32.06-40.63-18.51-77.66-46.15-113.45-72.82-20.86-15.61-42.55-31.78-64.66-45.87C736.9 75.34 644.04 53.5 561 66.08c-85.8 13.12-161.52 68.95-197.59 145.91-11.33 24.32-18.65 52.65-25.7 79.87-5.53 21.28-11.2 43.52-18.8 63.28-11.05 29.02-34.12 47.12-58.44 66.47a625.56 625.56 0 0 0-14.92 11.88c-33.72 27.9-91.75 85.67-102.67 160.97-9.26 63.98 23.63 129.2 74.62 148.13l.41.14.28.27c13.13 15.34 29.15 24.74 49.33 36.62 11.33 6.63 24.04 14.1 37.86 23.76 58.72 10.1 111.23 49.33 162.08 87.2a1530.44 1530.44 0 0 0 47.25 34.26C574 965.6 628.85 988.13 682.6 993.8c59.55 6.22 121.6-10.22 169.82-44.9 57.62-41.32 89.95-90.23 84.28-127.68v-.55l.42-.42a60.98 60.98 0 0 0 4.42-6.63c1.8-3.45 3.6-6.36 7.32-10.09Z" fill="url(#l)"/><path d="M1113.43 716.61c-24.46 24.46-52.51 44.5-80.56 57.07-38.13 17.13-75.16 26.53-97.13 29.7-8.57 4.98-11.47 7.6-15.2 10.78-1.25 1.25-2.77 2.5-4.42 3.87 3.31 35.1-29.3 80.42-87.33 121.05-47.95 33.57-108.33 49.46-165.95 43.52-52.37-5.39-105.7-27.77-163.05-67.98-15.48-10.78-30.67-22.39-45.6-33.72-50.3-38.13-97.69-74.2-152.82-84.56h-.28l-.27-.28a803.09 803.09 0 0 0-30.4-22.93c-20.04-14.51-35.93-25.98-47.81-43.12-48.78-19.2-79.31-82.9-69.78-145.22 11.05-72.13 67.3-129.47 99.76-156.97 4.42-3.87 8.85-7.46 13.27-11.05 23.07-18.93 44.9-36.9 55.27-64.94 6.5-17.83 11.6-37.86 16.72-57.07 7.74-29.3 15.61-59.83 28.6-85.8C403.62 133.64 479.2 79.61 563.63 67.6c81.8-11.6 173.4 10.64 250.93 60.8 21.69 13.95 42.83 29.84 63.14 45.18 36.2 27.08 73.65 55.13 114.96 73.5 46.43 20.46 102.95 31.1 167.89 31.1 33.16 0 62.45 16.03 80.69 43.94 17 26.39 12.44 61.07 7.6 84.98-2.07 10.64-5.25 21.55-8.43 33.3-3.86 14.1-7.87 28.6-11.19 44.9-15.06 75.59-46.7 145.92-91.47 203.12a234.67 234.67 0 0 1-24.32 28.2Zm-200.08 100.6.55-.56c1.94-1.66 3.46-2.9 4.84-4.28 3.87-3.6 6.91-6.08 15.9-11.2l.4-.13c21.84-3.04 58.6-12.44 96.73-29.57 37.58-16.86 75.58-47.67 104.18-84.3 44.5-56.92 76-126.56 90.92-202 3.18-16.45 7.33-31.1 11.2-44.91 3.31-11.6 6.21-22.52 8.29-33.16 4.69-23.5 9.25-57.62-7.33-83.05-8.43-12.85-32.61-42.83-78.48-42.83-65.36-.14-122.15-10.5-168.99-31.37-41.6-18.38-79.17-46.56-115.52-73.78-20.3-15.34-41.59-31.1-63-45.05C735.94 81.28 645 59.17 563.9 70.64 480.3 82.38 405.42 136 368.66 210.6c-12.85 25.84-20.73 56.1-28.46 85.4-4.98 19.34-10.23 39.24-16.86 57.2-10.36 28.6-32.47 46.84-55.96 66.18-4.42 3.6-8.98 7.33-13.27 11.06-32.2 27.5-87.88 84.29-98.93 155.58-9.53 61.22 20.73 123.81 68.4 142.46l.41.14.28.28c11.6 16.86 27.5 28.33 47.4 42.7 8.97 6.49 19.2 13.95 30.25 22.8 55.55 10.5 105.3 48.36 153.52 84.97 14.78 11.2 30.12 22.94 45.46 33.58 56.93 40.07 109.85 62.04 161.8 67.57 56.8 5.94 116.62-9.95 164.15-43.11 57.62-40.49 89.96-84.98 86.09-119.25l.41-.97Z" fill="url(#m)"/><path d="M1100.03 723.93c-24.74 24.74-53.2 44.64-81.53 56.66-32.6 13.81-63.97 18.93-86.77 22.66-5.94.96-11.2 1.8-15.62 2.62-10.08 2.08-13.67 4-18.37 6.77-1.52.97-3.18 1.8-5.4 2.9 1.25 31.92-31.08 72.82-89.12 112.34-47.11 32.2-105.29 47.26-159.87 41.6-50.57-5.26-101.83-26.95-156.83-66.47-14.78-10.64-29.56-22.1-43.8-33.02-47.53-36.76-92.44-71.72-144.11-82.22h-.28l-.28-.27c-7.6-7.05-14.92-13.27-21.14-18.93-21.55-18.8-37.17-32.48-47.53-52.24-45.46-18.93-73.23-80.14-63.28-139.28 11.33-68.26 65.08-124.22 96.03-151.58l11.6-9.95c22.25-18.93 43.25-36.89 52.65-64.8 5.39-15.89 9.81-32.75 14.5-50.43 8.44-31.65 17-64.53 31.51-92.3 37.86-72.69 112.62-124.5 194.83-135.14 80-10.37 169.4 11.88 245.13 61.35 21.14 13.68 41.72 29.3 61.62 44.21 36.76 27.64 74.75 56.24 117.04 74.48 44.07 18.93 98.24 28.88 165.39 30.26 48.64 1.1 72.27 34.96 80.15 49.47 15.06 27.5 8.7 61.21 1.52 87.46-2.35 8.7-5.26 17.42-8.43 26.67-4.98 14.65-10.37 31.37-14.51 49.88-16.17 74.2-46.71 142.33-88.43 197.04a308.64 308.64 0 0 1-26.67 30.26ZM889.86 813.9l.7-.42a910.4 910.4 0 0 0 5.93-3.18c4.84-2.62 8.57-4.97 19.07-6.9 4.42-.83 9.68-1.66 15.75-2.77 22.67-3.6 53.76-8.7 86.23-22.38 38.82-16.45 77.79-47.67 107.08-86.09 41.46-54.44 71.99-122.28 88.02-196.07 4.01-18.65 9.67-35.37 14.51-50.16 3.18-9.25 5.94-18.1 8.43-26.67 7.05-25.83 13.26-58.86-1.38-85.66-7.74-14.1-30.82-47.12-78.07-48.23-67.43-1.38-121.87-11.33-166.23-30.53-42.56-18.24-80.7-46.98-117.59-74.76-19.9-14.92-40.48-30.53-61.62-44.21-75.17-48.92-164.02-71.16-243.47-60.8-81.52 10.5-155.31 61.9-192.9 133.75-14.36 27.64-22.93 60.25-31.36 91.89-4.7 17.69-9.12 34.54-14.65 50.57-9.67 28.47-30.81 46.57-53.47 65.91l-11.6 9.95c-30.68 27.08-84.02 82.63-95.35 150.06-9.67 58.31 17.69 118.28 62.32 136.66l.41.13.14.42c10.09 19.48 25.7 33.16 47.26 51.95a868.87 868.87 0 0 1 21 18.8c52.23 10.77 97.28 45.6 144.8 82.63 14.24 10.91 28.89 22.52 43.81 33.02 54.58 39.1 105.57 60.8 155.59 66.05 54.02 5.66 111.64-9.4 158.35-41.18 57.75-39.52 89.81-79.87 88.01-110.95l.28-.83Z" fill="url(#n)"/><path d="M1086.9 731.26c-25.01 25-53.89 44.77-82.77 56.24-39.93 15.88-79.17 18.65-102.66 20.3l-4.98.28c-14.37 1.1-18.24 1.94-27.63 4.42-.7 28.33-32.89 65.22-90.78 103.77-46.15 30.68-102.25 45.33-154.07 39.66-48.64-5.25-97.97-26.39-150.61-64.94-14.23-10.36-28.33-21.7-42.14-32.47-44.77-35.65-87.06-69.1-135.7-79.87l-.4-.14-.29-.27c-3.17-3.46-6.21-6.5-9.11-9.67-24.88-25.98-41.46-43.12-50.16-66.74-42.15-18.66-67.16-77.1-56.93-133.48 10.92-60.94 56.24-112.9 92.3-145.92 3.32-3.04 6.5-5.94 9.95-8.84 21.28-19.07 41.59-37.17 50.3-64.67 4.28-13.68 8.01-27.63 11.88-42.55 9.12-34.55 18.65-70.06 34.82-99.77C416.6 136.4 490.26 86.8 570.26 77.55c78.2-9.12 165.4 13.4 239.18 61.76 20.73 13.54 40.63 28.74 60.11 43.53 37.3 28.18 75.86 57.34 118.97 75.3 53.75 22.53 115.24 27.64 162.77 29.57 51.82 2.08 74.06 42.56 79.73 54.86 13.4 29.15 4.56 63.42-4.56 89.95-2.35 7.05-5.39 14.23-8.29 21.83-6.08 15.48-13.13 33.03-17.83 53.2-17.13 72.96-46.84 139.14-85.53 191.1a284.83 284.83 0 0 1-27.91 32.6ZM866.51 810.7l1.8-.42c9.67-2.48 13.68-3.45 28.18-4.42l4.98-.27c24.73-1.8 62.18-4.43 101.97-20.18 40.07-16.03 80.01-47.94 109.85-88.02 38.55-51.81 67.85-117.58 84.98-190.26 4.84-20.32 11.75-38 17.96-53.62 2.91-7.6 5.95-14.78 8.29-21.83 8.99-26.11 17.69-59.7 4.7-88.15-5.39-12.03-27.36-51.4-77.79-53.48-47.81-1.93-109.57-7.05-163.6-29.57-43.25-18.1-81.94-47.4-119.38-75.72-19.35-14.65-39.52-29.84-59.97-43.39C735.1 93.16 648.6 70.78 570.8 80.03c-79.31 9.4-152.27 58.31-190.54 127.82-16.17 29.43-25.7 64.94-34.68 99.34a891.32 891.32 0 0 1-12.02 42.7c-8.85 28.19-29.3 46.43-50.85 65.77-3.18 2.9-6.64 5.8-9.95 8.85-35.8 32.74-80.84 84.42-91.61 144.67-9.95 55.54 14.64 113.03 56.1 130.99l.41.14v.27c8.57 23.5 25.01 40.49 49.88 66.46 2.9 2.9 5.8 6.09 8.98 9.26 49.06 10.92 91.34 44.63 136.25 80.15 13.67 10.91 27.9 22.1 42.14 32.47 52.37 38.27 101.14 59.41 149.64 64.53 51.27 5.38 106.81-8.99 152.41-39.39 57.9-38.55 89.68-75.02 89.68-102.66l-.14-.7Z" fill="url(#o)"/><path d="M1073.91 738.17c-25.28 25.28-54.58 44.9-84 56.1-43.67 16.3-85.26 17-112.9 16.16-5.25-.27-9.26-.41-12.99-.55a169 169 0 0 0-18.79-.28c-3.32 31.23-51.95 68.81-92.44 94.93-45.18 29.15-99.21 43.11-148.12 37.86-46.15-4.97-94.93-26.4-144.54-63.56a1531.6 1531.6 0 0 1-40.62-32.06c-42.14-34.13-81.66-66.46-127.12-77.38l-.42-.13-.27-.28c-26.95-32.47-43.67-53.89-49.88-81.66-39.38-18.66-61.22-73.38-50.72-127.54 11.34-56.93 54.59-107.64 88.85-140.25 2.63-2.62 5.25-4.97 8.02-7.46 20.58-19.2 40.07-37.3 47.94-64.8 3.04-10.78 5.94-21.7 9.12-33.44 9.81-37.72 20.04-76.7 38.55-108.75 39.25-67.7 112.06-114.82 190.14-122.97 76.54-8.02 161.52 14.78 233.37 62.31 20.04 13.4 39.8 28.2 58.73 42.7 37.86 28.74 76.96 58.45 120.76 76.27 50.99 20.6 109.44 25.7 160.15 28.6 42.56 2.5 68.95 32.75 79.31 60.25 11.75 30.81.42 65.63-10.64 92.44-2.34 5.94-5.25 11.88-8.15 18.38-7.32 15.89-15.61 33.85-21.14 55.13-18.65 73.1-46.43 135.41-82.49 185.3a301.85 301.85 0 0 1-29.71 34.68Zm-230.75 69.36.97-.14c7.73-.55 12.98-.27 20.03.14 3.6.28 7.6.42 12.85.7 27.36.82 68.67.13 111.92-16.04 41.46-15.47 82.5-48.22 112.62-89.95 35.92-49.74 63.56-111.65 82.21-184.47 5.53-21.55 13.96-39.65 21.28-55.54 3.04-6.36 5.67-12.3 8.29-18.24 10.92-26.4 22.11-60.52 10.64-90.78-10.22-26.8-35.92-56.38-77.38-58.87-51.12-3.04-109.71-8.01-160.97-28.88-44.22-17.96-83.46-47.8-121.32-76.54-18.93-14.51-38.55-29.44-58.59-42.56-71.44-47.4-156-70.06-232-62.04-77.24 8.15-149.36 54.85-188.2 121.87-18.5 31.78-28.6 70.6-38.27 108.19-3.17 11.74-6.08 22.66-9.12 33.44-8.15 28.05-27.77 46.56-48.63 65.77-2.77 2.49-5.25 4.97-8.02 7.46-33.99 32.33-76.96 82.77-88.02 139.15-10.36 53.47 11.2 107.36 49.89 125.32l.55.28v.55c5.94 27.5 22.66 48.64 49.33 80.83 45.73 11.2 85.53 43.53 127.53 77.8 13.13 10.63 26.67 21.69 40.49 31.91 49.33 36.9 97.69 58.18 143.43 63.01 48.5 5.12 101.97-8.56 146.74-37.58 58.03-37.59 89.81-70.2 91.47-94.24l.28-.55Z" fill="url(#p)"/><path d="M1060.92 745.35c-25.56 25.56-55.4 45.18-85.39 55.82-45.74 16.17-89.4 15.07-118 11.61-7.88-.97-13.54-2.21-18.8-3.31-5.66-1.25-10.63-2.35-17.13-2.77-4.28 21.14-35.23 49.33-94.1 86.36-44.9 28.33-95.48 41.04-142.32 35.93-44.35-4.84-90.92-25.7-138.31-62.04-13.27-10.23-26.4-21.15-39.1-31.65-39.25-32.6-76.28-63.56-118.42-74.75l-.42-.14-.27-.27c-24.32-34-38.14-58.04-40.49-86.92-35.92-18.24-55-70.47-44.35-121.73 8.7-41.87 36.61-86.36 82.63-132.37l2.2-2.21 5.95-5.95c19.9-19.34 38.69-37.85 45.87-65.21 1.94-7.19 3.73-14.79 5.8-22.39 10.37-41.59 21.29-84.56 42.56-119.38 40.35-66.05 110.55-109.71 187.65-116.9 74.61-6.9 157.52 16.03 227.57 62.87 19.49 13.13 38.83 27.77 57.35 41.87 38.41 29.3 78.07 59.55 122.7 77.1 49.05 19.2 105.29 23.77 155.03 27.63l2.63.14c44.21 3.6 70.19 37.59 78.9 65.64 10.22 32.88-3.6 67.98-16.86 94.79a960.58 960.58 0 0 1-8.29 15.75c-8.57 16.03-18.24 33.99-24.32 56.1-20.31 73.37-46.29 131.95-79.59 179.35a249.2 249.2 0 0 1-30.68 37.03Zm-241.11 59 .96.14c7.05.41 12.3 1.52 18.38 2.9 5.11.97 10.92 2.35 18.65 3.18 28.47 3.6 71.72 4.56 117.04-11.47 42.97-15.06 84.98-48.5 115.24-91.75 33.16-46.98 59-105.43 79.17-178.66 6.22-22.25 15.89-40.49 24.6-56.65 2.9-5.39 5.66-10.64 8.29-15.75 12.99-26.53 26.81-61.08 16.72-93.27-8.57-27.36-33.99-60.8-76.97-64.25l-2.62-.14c-49.88-4-106.26-8.43-155.73-27.78-45.04-17.68-84.83-48.08-123.25-77.37-18.51-14.1-37.58-28.74-57.2-41.73-69.5-46.57-152-69.37-226.2-62.6-76.4 7.05-145.91 50.3-185.98 115.8-21.14 34.68-31.92 77.51-42.28 118.83-1.8 7.6-3.74 15.06-5.8 22.38-7.33 28.05-26.4 46.57-46.44 66.32l-5.94 5.95c-47.11 46.56-75.44 91.47-84.28 133.75-10.5 50.57 8.29 101.98 43.66 119.66l.55.28v.55c2.21 28.47 15.75 52.23 39.94 86.08 42.42 11.47 79.45 42.42 118.83 75.17 12.7 10.5 25.7 21.56 38.96 31.5 46.98 36.2 93.13 56.94 137.35 61.63 46.43 4.98 96.45-7.73 140.94-35.65 59.28-37.17 89.81-65.5 93.4-85.94v-1.1Z" fill="url(#q)"/><path d="M1047.94 752.26c-25.98 25.98-56.1 45.32-86.92 55.69-52.5 17.4-99.76 11.88-123.25 6.9-8.98-1.8-15.48-4.14-21.97-6.21-5.8-1.94-11.33-3.87-18.1-5.12-7.33 21.7-50.3 50.3-95.9 77.94-43.94 26.8-92.44 38.82-136.38 34.12-42.83-4.7-87.18-25-132.23-60.66-12.85-10.08-25.29-20.86-37.45-31.36-36.47-31.23-70.74-60.8-109.57-72.27l-.41-.14-.28-.27c-24.04-38.97-32.47-63.98-30.95-92.03-32.61-17.96-48.92-67.7-38-115.93 9.12-39.8 35.79-81.93 81.39-129.2l3.73-3.72c19.2-19.76 37.3-38.42 43.94-66.05l2.07-8.7c10.36-44.36 22.38-94.52 46.98-132.93 40.9-63.56 110.13-104.88 185.15-110.82 73.8-5.8 152.55 16.86 221.78 63.43 19.07 12.98 37.72 27.22 55.82 41.17 38.83 29.7 78.9 60.66 124.63 77.93 43.39 16.58 91.2 21 137.49 25.29 6.08.55 11.88 1.1 17.69 1.66 45.87 4.42 71.02 41.17 78.48 71.02 8.84 35.1-7.74 70.47-23.07 97.41a316.9 316.9 0 0 1-8.43 13.96c-9.81 15.89-20.73 33.99-27.5 56.51-13.82 46.7-37.03 115.52-76.55 173.28a262.37 262.37 0 0 1-32.19 39.1Zm-251.49 48.91.97.14c7.33 1.25 13.13 3.18 19.2 5.4a196.93 196.93 0 0 0 21.7 6.2c23.35 4.85 70.06 10.37 122.15-6.9 44.35-14.78 87.47-48.78 118-93.68 39.38-57.62 62.46-126.3 76.28-172.72 6.77-22.8 17.96-40.9 27.63-56.93 2.9-4.84 5.8-9.4 8.43-13.96 15.2-26.53 31.37-61.49 22.8-95.75-7.46-29.3-31.92-65.08-76.69-69.5-5.8-.56-11.74-1.25-17.69-1.66-46.28-4.29-94.23-8.85-137.9-25.43-45.87-17.4-86.22-48.36-125.05-78.34-18.1-13.96-36.75-28.2-55.68-41.04-68.81-46.43-147.02-68.81-220.4-63.15-74.33 5.8-143 46.84-183.63 109.85-24.45 38-36.34 88.02-46.7 132.1l-2.07 8.7c-6.64 28.19-25.01 47.12-44.36 67.02l-3.73 3.73c-45.46 46.84-71.71 88.85-80.7 128.23-10.77 47.53 5.4 96.58 37.45 114l.56.27v.55c-1.52 27.77 6.63 52.5 30.4 91.2 38.96 11.6 73.5 41.17 110.12 72.54a1405.2 1405.2 0 0 0 37.45 31.37c44.63 35.23 88.7 55.54 131.13 60.1 43.66 4.7 91.6-7.32 135.13-33.71 45.74-27.78 88.85-56.52 95.07-77.66l.13-.97Z" fill="url(#r)"/><path d="M1035.22 759.17c-26.25 26.25-56.93 45.6-88.43 55.55-58.45 18.1-109.16 7.73-128.37 2.35-9.8-2.63-17.27-5.95-24.31-9.13-6.5-2.9-12.44-5.52-19.76-7.6-9.26 17.55-50.16 41.6-97.42 69.5-42.97 25.3-89.4 36.63-130.57 32.2-41.04-4.56-83.32-24.45-126.02-59.14-12.3-10.08-24.32-20.72-36.06-31.09-33.58-29.7-65.36-57.9-100.73-69.5l-.42-.14-.14-.41c-20.72-39.24-27.08-67.43-21.55-97.28-29.02-17.68-42.7-64.8-31.65-110.12 11.75-47.67 47.54-91.2 77.38-123.53l1.25-1.25c18.65-20.3 36.34-39.38 42.28-67.43 10.5-50.02 23.07-102.1 49.88-141.35 41.31-60.94 109.71-100.04 182.8-104.6 72-4.56 148.55 18.1 215.98 63.98 18.51 12.7 36.89 26.66 54.58 40.48 39.24 30.4 80 61.77 126.43 78.9 39.24 14.37 82.07 18.8 123.39 23.07 10.09.97 19.62 1.94 29.15 3.18 44.5 5.25 71.3 42.29 77.94 76.55 7.46 37.86-12.99 75.17-29.16 99.9-2.76 4.15-5.67 8.43-8.7 12.86-10.92 15.6-23.08 33.3-30.4 56.1-18.24 56.92-39.66 116.48-73.51 167.46-10.37 14.51-21.7 28.33-33.86 40.49Zm-261.98 38.97.83.27c7.74 2.21 14.1 4.98 20.86 7.88 7.05 3.18 14.38 6.35 24.05 9.12 18.93 5.39 69.36 15.75 127.26-2.35 45.87-14.37 89.95-49.05 120.9-95.48 33.86-50.71 55.27-110.27 73.37-167.06 7.33-23.07 19.76-41.03 30.68-56.65 3.04-4.42 5.94-8.7 8.57-12.71 15.89-24.46 36.2-61.35 28.74-98.38-6.64-33.72-32.75-69.78-76.42-75.03a852.75 852.75 0 0 0-29.15-3.18c-41.59-4.28-84.43-8.7-123.8-23.21-46.71-17.14-87.47-48.78-126.85-79.04-17.69-13.54-35.93-27.64-54.44-40.35-67.02-45.73-143.3-68.4-214.73-63.84-72.54 4.56-140.39 43.4-181.42 103.78-26.53 38.96-38.97 90.91-49.47 140.66-6.08 28.46-23.77 47.8-42.84 68.26l-1.24 1.24c-29.7 32.2-65.36 75.3-76.96 122.84-11.06 44.77 2.48 91.2 31.22 108.33l.56.28-.14.69c-5.53 29.57.55 57.48 21.14 96.3 35.79 11.75 67.57 39.94 101.28 69.78 11.75 10.37 23.77 21 36.07 31.1 42.42 34.4 84.42 54.3 125.05 58.72 40.76 4.56 86.77-6.91 129.47-31.92 47.67-28.05 88.98-52.23 97-69.36l.41-.7Z" fill="url(#s)"/><path d="M1022.51 766.08c-26.53 26.53-57.76 45.87-90.23 55.4-61.9 18.25-114 4.57-133.48-2.2-10.5-3.6-18.65-7.88-26.66-12.03-7.05-3.73-13.82-7.18-21.7-10.08-8.57 10.78-33.58 24.73-68.4 43.8-9.8 5.39-19.9 11.05-30.67 17.13-29.7 16.72-75.58 35.8-124.77 30.26-39.25-4.42-79.6-23.76-119.8-57.62-11.88-9.94-23.5-20.72-34.82-30.95-30.68-28.18-59.83-54.85-92.03-66.6l-.41-.14-.14-.41c-17.96-40.35-21.56-71.02-12.16-102.53-25.7-17.4-36.62-62.04-25.29-104.32 11.33-42.56 42-81.8 73.79-118 16.72-19.2 34-38.97 39.38-67.57 8.3-44.22 21.28-100.32 50.43-141.08 41.73-58.3 109.16-95.06 180.46-98.66 70.06-3.45 144.67 19.49 210.03 64.4 18.24 12.43 35.93 26.25 53.2 39.65 39.8 30.95 80.83 62.87 128.23 79.59 35.51 12.57 74.33 16.86 111.92 21a929.07 929.07 0 0 1 38 4.56c45.87 6.36 72.26 46.84 77.51 81.94 4.56 30.81-6.63 63.28-35.23 102.39-2.77 3.87-5.8 7.74-9.12 11.88-11.88 15.2-25.43 32.61-33.3 55.69-17.96 52.23-38.28 111.5-70.61 161.52a237.12 237.12 0 0 1-34.13 42.98Zm-272.76 29.01.55.28c8.43 2.9 15.34 6.5 22.67 10.5 7.87 4.01 16.02 8.3 26.39 12.02 19.34 6.64 71.02 20.18 132.37 2.22 47.67-13.96 92.58-49.47 123.67-97.42 32.19-49.88 52.64-109.02 70.47-161.11 8.01-23.22 21.55-40.63 33.44-56.1 3.17-4 6.21-7.88 9.11-11.89 28.19-38.69 39.39-70.88 34.96-101-5.11-34.4-31.09-74.2-75.99-80.42-12.44-1.66-24.88-3.04-38-4.56-37.59-4.15-76.55-8.3-112.48-21-47.53-16.86-88.7-48.92-128.78-79.87-17.27-13.4-34.96-27.22-53.2-39.66-65.21-44.77-139.41-67.56-208.92-64.1-70.74 3.3-137.76 39.92-179.07 97.82-28.88 40.48-42 96.17-50.16 140.25-5.4 28.88-22.8 49.05-39.8 68.26-31.5 35.92-62.04 75.03-73.37 117.3-11.19 41.88-.27 85.95 25.01 102.67l.56.28.27.55c-9.53 31.1-6.08 61.63 11.75 101.56 32.33 11.88 61.48 38.55 92.3 66.88 11.19 10.36 22.94 21 34.82 30.95 39.93 33.58 80 52.92 118.83 57.2 48.78 5.4 94.1-13.4 123.53-30.12a3122.33 3122.33 0 0 1 30.67-17.13c33.86-18.65 60.39-33.3 68.26-43.94l.14-.41Z" fill="url(#t)"/><path d="M1009.8 772.99c-26.8 26.8-58.59 46.15-91.89 55.4-64.94 17.97-118.55 1.39-138.59-6.77-11.05-4.42-20.04-9.8-28.74-14.92-7.88-4.56-15.2-9.12-23.9-12.57-7.05 5.66-22.25 13.12-42.98 23.35-16.16 7.88-36.2 17.68-57.75 29.3-29.02 15.74-73.24 33.43-118.84 28.46-37.44-4.29-75.72-23.22-113.72-56.24-11.46-10.09-22.8-20.87-33.71-31.23-27.77-26.67-54.03-51.81-82.9-63.56l-.42-.14-.14-.41c-15.48-41.73-16.3-74.9-2.76-107.78-22.52-17.27-30.54-58.45-19.07-98.38 12.3-42.42 45.6-82.9 69.92-112.48 16.72-20.3 30.95-39.24 35.1-66.32 9.8-62.04 26.52-108.05 51.26-140.8 42-55.55 108.46-90.23 178.1-92.44 67.99-2.21 140.53 20.86 204.1 65.08 17.68 12.16 35.09 25.97 51.95 38.96 40.2 31.37 81.8 63.84 129.88 80.42 32.61 11.06 67.98 15.2 102.25 18.8 15.62 1.79 30.54 3.45 45.19 5.66 47.53 7.46 73.23 50.57 77.1 87.33 4.28 40.76-11.89 81.8-41.46 105.01-19.2 15.06-35.51 38.55-45.46 65.91-2.21 6.08-4.42 12.44-6.77 18.65-16.85 46.7-34.4 94.93-60.79 137.08a230 230 0 0 1-34.96 44.63Zm-731.78-50.3c29.01 11.88 55.4 37.17 83.18 63.84 10.92 10.36 21.97 21.14 33.58 31.09 37.58 32.88 75.58 51.54 112.75 55.82 45.18 5.11 88.98-12.44 117.72-28.19 21.42-11.74 41.6-21.41 57.76-29.3 21.14-10.36 36.48-17.68 43.11-23.48l.42-.42.41.14c8.98 3.73 16.58 8.3 24.6 13 8.7 5.1 17.55 10.35 28.6 14.78 19.9 8.01 72.96 24.6 137.49 6.77 49.19-13.54 95.34-49.75 126.43-99.35 26.39-41.87 43.8-89.96 60.66-136.66 2.34-6.22 4.56-12.57 6.77-18.65 10.22-27.64 26.53-51.4 46.01-66.74 29.02-22.66 45.04-63.29 40.76-103.5-3.87-36.2-29.15-78.34-75.72-85.66-14.51-2.35-29.43-4.01-45.18-5.67-34.27-3.87-69.92-7.74-102.67-18.93-48.36-16.58-90.09-49.2-130.44-80.7-16.72-13.12-34.26-26.8-51.95-38.96-63.29-43.94-135.41-66.88-203.12-64.67-69.09 2.21-135.14 36.48-176.87 91.75-24.45 32.47-41.17 78.21-50.98 139.98-4.42 27.35-18.66 46.56-35.51 67.01-24.18 29.43-57.35 69.78-69.64 111.65-11.34 38.96-3.18 80.55 18.93 96.86l.41.41-.28.56c-13.26 32.88-12.57 65.9 2.77 107.22Z" fill="url(#u)"/><path d="M997.78 779.2c-27.36 27.36-60.25 47.26-94.1 55.97-47.8 12.43-100.32 8.29-143.7-11.33-11.75-5.4-21.56-11.61-30.82-17.83-8.56-5.53-16.58-10.78-25.97-15.2-4.7 2.21-11.89 4.98-21 8.57-19.49 7.6-48.92 18.79-81.4 35.79-41.3 21.41-79.3 30.4-113.02 26.53-35.93-4.15-71.99-22.53-107.5-54.72-11.33-10.23-22.11-21-32.61-31.5-24.87-24.88-48.36-48.37-73.79-60.25l-.41-.14-.14-.41c-13.13-43.25-11.05-79.32 6.77-112.9-18.93-16.99-24.46-55.68-12.71-92.57 11.33-35.93 37.86-70.2 61.21-100.46l4.98-6.35c16.71-21.7 27.77-40.21 31.08-65.08 5.4-41.04 18.8-98.66 51.96-140.39 42.14-52.92 107.91-85.26 175.62-86.36 66.05-1.1 136.38 22.25 198.28 65.63 17.27 12.03 34.27 25.43 50.71 38.28 40.63 32.06 82.77 65.08 131.69 81.1 29.98 9.82 62.45 13.55 93.96 17.14 17.68 1.94 34.54 3.87 50.98 6.77 46.98 8.3 74.07 52.79 76.69 92.72 2.63 41.87-15.89 83.87-47.39 107.36-21.28 15.75-38.56 38.55-48.78 64.53a1213.82 1213.82 0 0 0-12.85 33.85c-14.79 39.38-29.98 80.28-51.82 115.93a258.88 258.88 0 0 1-35.92 45.32Zm-722.94-65.5c25.56 12.03 49.05 35.52 73.92 60.4 10.5 10.5 21.28 21.27 32.61 31.5 35.24 31.91 71.03 50.3 106.54 54.3 33.3 3.73 71.02-4.98 112.06-26.4 32.6-16.85 62.04-28.32 81.66-35.78 9.4-3.6 16.72-6.5 21.28-8.57l.41-.13.42.13c9.53 4.56 17.82 9.81 26.53 15.48 9.4 6.08 18.93 12.3 30.54 17.55 43.1 19.62 95.2 23.63 142.6 11.33 50.29-13 98.65-50.85 129.19-101.28 21.69-35.8 36.89-76.42 51.68-115.8 4.28-11.19 8.42-22.8 12.85-33.85 10.22-25.98 27.63-49.2 49.33-65.08 31.08-23.08 49.46-64.67 46.84-105.98-2.63-39.1-29.3-82.9-75.45-91.2-16.44-2.9-33.02-4.83-50.71-6.77-31.5-3.6-64.11-7.18-94.23-17.13-49.2-16.3-91.34-49.33-132.24-81.39-16.44-12.85-33.44-26.25-50.57-38.41-61.63-43.11-131.55-66.33-197.46-65.36-67.42 1.1-132.64 33.16-174.51 85.8-33.02 41.6-46.29 98.8-51.68 139.57-3.31 25.14-14.37 43.94-31.37 65.9l-4.97 6.36c-23.21 30.13-49.6 64.25-60.94 99.9-11.6 36.48-6.21 75.03 12.72 91.2l.41.41-.28.56c-17.82 34.13-20.03 69.78-7.18 112.75Z" fill="url(#v)"/><path d="M985.2 785.98c-27.63 27.63-61.07 47.53-96.03 55.96-49.74 12.16-104.05 6.49-148.81-15.9-12.3-6.21-22.8-13.4-32.9-20.44-9.25-6.5-18.1-12.58-28.18-17.97-15.89 3.46-56.93 12.44-104.18 35.93-40.9 20.17-76 28.19-106.95 24.6-34.27-4.15-68.4-21.98-101.28-53.2-11.06-10.5-21.56-21.56-31.79-32.34-21.69-23.07-42.41-44.9-64.38-56.65l-.28-.28v-.27c-10.78-45.05-5.53-83.74 16.3-118.28-15.47-16.58-18.1-52.92-6.5-86.64 10.51-30.12 32.34-59.97 51.69-86.22 3.73-5.11 7.46-10.22 10.91-15.06 12.3-17.27 24.05-36.76 26.8-63.84 3.32-32.88 14.65-94.79 52.8-140.1 42.41-50.44 107.08-80.29 173.4-80.29 63.98.14 132.51 23.63 192.48 66.19 16.86 11.88 33.3 25 49.33 37.72 41.04 32.47 83.6 66.19 133.34 81.94 27.77 8.7 57.76 12.16 86.78 15.2 18.51 1.93 37.72 4.28 55.54 7.73 48.5 9.54 75.03 56.52 76.14 97.97 1.24 42.97-19.76 86.09-53.61 109.71-16.59 11.61-39.11 31.92-51.96 63.01-6.08 14.37-11.61 29.02-17.41 44.5-12.71 33.71-25.98 68.53-44.22 99.2a242.73 242.73 0 0 1-37.03 47.82Zm-713.4-81.12c22.1 11.89 42.83 33.72 64.53 56.8 10.22 10.77 20.73 21.83 31.64 32.2 32.75 31.08 66.6 48.9 100.45 52.91 30.96 3.6 65.5-4.42 106.26-24.45 47.54-23.5 89.13-32.48 104.74-35.93h.28l.13.14c10.37 5.39 19.21 11.47 28.6 18.1 10.1 7.04 20.32 14.23 32.62 20.45 44.49 22.1 98.38 27.91 147.85 15.75 52.09-12.85 101.55-51.26 131.95-102.94 18.1-30.81 31.23-65.5 44.08-99.07 5.67-14.79 11.47-30.26 17.55-44.63 13.13-31.37 35.93-51.96 52.51-63.57 33.44-23.49 54.16-66.04 52.92-108.46-1.11-40.9-27.36-87.05-75.03-96.59-17.83-3.45-36.07-5.66-55.41-7.6-29.16-3.18-59.14-6.63-86.91-15.34-50.02-15.75-92.58-49.46-133.76-82.07-16.03-12.71-32.6-25.7-49.33-37.72-59.83-42.42-127.95-65.78-191.65-65.91-65.77 0-130.02 29.7-172.17 79.86-37.85 45.05-49.05 106.53-52.36 139.42-3.04 26.8-14.79 46.57-27.22 63.98-3.46 4.83-7.19 9.95-10.92 15.06-19.2 26.11-40.9 55.82-51.26 85.8-11.75 33.58-8.99 69.5 6.5 85.54l.4.41-.27.55c-22.1 34.27-27.5 72.55-16.72 117.32Z" fill="url(#w)"/><path d="M972.77 792.88c-27.91 27.92-62.04 47.67-97.83 56.1-51.68 11.89-107.78 4.42-153.93-20.45-12.99-6.9-24.04-15.2-34.82-23.21-9.95-7.46-19.48-14.5-30.26-20.59-22.38.28-63.42 7.6-105.98 27.5-27.64 12.99-64.12 27.08-101.15 22.66-32.05-3.87-64.94-21.83-95.2-51.82-10.92-10.91-21-22.38-30.95-33.44-18.8-21-36.34-41.03-55-52.5l-.27-.28v-.27c-8.7-46.85 0-88.44 25.7-123.53-12.02-16.45-12.16-49.75-.14-80.84 9.54-25 26.67-49.33 43.11-72.68 5.53-8.01 10.78-15.47 15.75-22.93 14.24-21.7 21.14-40.5 22.66-62.74 4.01-55.13 23.5-106.12 53.34-139.83 42.28-47.81 106.26-75.58 170.92-74.2 62.05 1.24 128.23 24.87 186.68 66.74 16.44 11.74 32.61 24.6 48.22 37.17 41.6 33.02 84.43 67.29 135.14 82.63 25.7 7.73 53.61 10.77 80.28 13.68 19.76 2.07 40.35 4.42 59.28 8.42 22.94 4.98 42.42 18.66 56.37 39.52a117.58 117.58 0 0 1 19.49 63.98c-.14 44.08-23.49 88.15-59.7 112.2-26.66 17.82-44.76 37.86-55.4 61.49-7.47 16.58-14.37 34.82-21.01 52.23-11.05 29.01-22.52 59-37.72 85.8a233.07 233.07 0 0 1-37.58 49.2Zm-704.15-97c18.65 11.75 36.34 31.65 55.13 52.65 9.95 11.05 20.18 22.66 30.95 33.44 20.87 20.86 54.03 46.56 94.24 51.4 36.76 4.42 73.1-9.81 100.46-22.52 42.83-19.9 84.28-27.36 106.67-27.64h.27l.14.14c10.92 6.22 21 13.54 30.68 20.73 10.64 7.87 21.7 16.16 34.68 23.07 45.74 24.74 101.56 32.2 152.96 20.31 54.17-12.43 104.46-51.67 134.72-104.87 15.06-26.67 26.53-56.65 37.59-85.67 6.63-17.41 13.54-35.65 21-52.23 10.78-23.77 29.02-44.22 55.82-62.18 35.65-23.77 58.87-67.43 59.14-111.1.14-41.59-25.98-91.47-74.61-101.97-18.93-4-39.38-6.22-59.14-8.57-26.95-2.9-54.86-5.94-80.7-13.81-50.85-15.48-93.82-49.6-135.55-82.77-15.61-12.57-31.78-25.42-48.08-37.03-58.18-41.6-124.09-65.22-185.85-66.46-64.25-1.25-127.68 26.25-169.82 73.64-29.7 33.58-49.19 84.29-53.06 139-1.66 22.4-8.57 41.46-22.94 63.3-4.83 7.32-10.22 14.92-15.75 22.93-16.44 23.35-33.3 47.67-42.97 72.54-12.02 31.1-11.75 63.98.41 80l.42.42-.42.42C268.9 608 260.2 649.32 268.62 695.88Z" fill="url(#x)"/><path d="M960.47 799.65c-28.19 28.2-63 48.09-99.9 55.97-53.61 11.6-111.37 2.48-159.04-25.01-13.54-7.74-25.29-17-36.62-25.84-10.22-8.02-20.86-16.45-32.47-23.36-21.97-3.45-63.15-.4-107.78 19.07-29.98 13.13-62.45 24.88-95.34 20.73-38.69-4.7-69.78-29.98-88.98-50.3-10.92-11.46-20.87-23.62-30.54-35.23-15.48-18.8-30.12-36.48-45.32-47.81l-.14-.14v-.27c-6.5-48.78 5.66-93.27 35.37-128.79-8.43-16.16-5.94-46.84 5.94-75.02 8.57-20.18 22.25-40.49 35.52-60.11a610.87 610.87 0 0 0 19.62-30.12c11.88-19.9 17.54-38.83 18.51-61.35 2.21-53.62 22.39-105.85 54.17-139.56 42.42-45.19 105.42-70.6 168.43-68.12 59.97 2.48 124.09 26.25 180.74 67.15 15.89 11.47 31.64 24.18 46.98 36.48 42 33.72 85.25 68.4 136.65 83.32 24.05 6.9 49.75 9.67 74.76 12.3 20.86 2.07 42.55 4.42 62.45 9.12 50.85 12.16 76.69 65.08 75.31 108.74-1.8 50.44-36.62 90.23-65.64 114.55-4 3.45-8.29 6.63-12.71 10.23-17.27 13.68-35.23 27.77-46.01 49.88-8.71 18.1-16.31 38.13-23.63 57.62-9.39 25.14-19.34 51.12-32.2 74.47a219.9 219.9 0 0 1-38.13 51.4Zm-694.89-112.6c15.2 11.32 29.85 29 45.32 47.8 9.68 11.6 19.63 23.77 30.54 35.24 19.07 20.17 50.02 45.32 88.16 50.01 32.6 3.87 64.8-7.6 94.79-20.72 44.76-19.62 86.5-22.66 108.6-19.07h.28c11.74 7.05 22.38 15.48 32.88 23.49 11.34 8.84 23.08 18.1 36.62 25.84 47.26 27.36 104.88 36.34 158.08 24.87 56.1-12.16 107.63-52.1 137.48-106.81 12.71-23.21 22.66-49.19 32.06-74.34 7.32-19.48 14.92-39.52 23.63-57.62 10.77-22.38 29.7-37.17 46.28-50.43 4.43-3.6 8.71-6.77 12.58-10.09 28.74-24.32 63.42-63.7 65.22-113.86 1.38-43.1-24.05-95.34-74.34-107.5-19.9-4.7-41.45-6.9-62.18-9.12-25.01-2.62-50.85-5.25-75.03-12.3-51.68-14.92-95.2-49.88-137.2-83.6-15.35-12.29-30.96-24.86-46.99-36.47-56.51-40.76-120.35-64.53-180.04-67.02-62.73-2.48-125.47 22.94-167.47 67.71-31.37 33.58-51.68 85.4-53.9 138.73-.96 22.8-6.62 42-18.64 62.04a610.88 610.88 0 0 1-19.63 30.12c-13.12 19.49-26.94 39.66-35.37 59.7-13.95 32.74-12.85 61.48-5.8 74.33l.14.42-.28.27c-29.85 35.66-42 79.87-35.79 128.37Z" fill="url(#y)"/><path d="M948.45 805.87c-28.6 28.6-64.8 49.05-102.25 56.65-55.27 11.34-115.1.42-164.16-29.56-12.02-7.33-22.24-16.45-32.05-25.15-13.13-11.47-25.43-22.39-41.18-29.57-19.62-8.85-61.07-9.12-109.57 10.64-28.6 11.74-59.14 22.66-89.4 18.93-36.62-4.56-65.36-29.16-82.9-48.92-10.92-12.3-20.73-25.42-30.27-38-12.16-16.3-23.63-31.64-35.5-42.14l-.15-.14v-.27c-4.14-51.4 11.2-97.7 44.77-134.04-3.87-13.26-1.66-39.79 12.3-69.22 7.46-15.75 18.24-32.06 28.6-47.67 8.43-12.85 16.44-25.01 22.8-36.9 9.81-18.37 14.1-36.47 14.37-60.24.55-53.06 21.14-105.15 54.86-139.14l.41-.42c42.28-42.28 104.19-65.22 165.67-61.49 58.73 3.46 119.25 26.95 174.94 67.71 15.47 11.33 30.95 23.77 45.73 35.79 42.28 34.27 86.22 69.64 138.45 84 22.53 6.23 46.43 8.58 69.65 10.79 21.69 2.07 44.21 4.42 64.94 9.67 52.37 13.68 77.79 68.95 74.89 114.13-2.63 41.6-28.05 83.32-71.71 117.04-4.29 3.45-8.85 6.63-13.68 10.08-18.1 13.13-37.03 26.81-48.36 48.64-9.82 18.93-17.69 40.35-25.43 61.08-8.15 21.97-16.58 44.49-27.36 64.94a206.02 206.02 0 0 1-38.41 52.78Zm-685.9-127.95c11.74 10.64 23.2 25.98 35.37 42.28 9.53 12.58 19.2 25.57 30.12 37.86 17.4 19.63 45.73 44.08 82.07 48.64 29.99 3.73 60.39-7.32 88.85-18.93 48.64-19.9 90.65-19.62 110.4-10.64 15.76 7.19 28.33 18.1 41.32 29.71 9.95 8.84 20.17 17.69 31.92 25.01 48.77 29.98 108.19 40.76 163.18 29.43 57.35-11.74 111.1-53.33 140.4-108.6 10.77-20.45 19.2-42.98 27.35-64.95 7.74-20.73 15.61-42.14 25.56-61.21 11.33-22.1 30.26-35.79 48.64-48.91 4.84-3.46 9.26-6.77 13.54-9.95 25.15-19.62 67.85-60.66 71.3-116.35 2.76-44.77-22.25-99.35-73.92-112.89-20.59-5.39-42.98-7.6-64.67-9.67-23.35-2.35-47.26-4.7-69.92-10.78-52.5-14.37-96.3-49.88-138.73-84.29-14.78-12.02-30.26-24.45-45.73-35.78-55.55-40.63-115.93-63.98-174.38-67.43-61.21-3.73-122.84 19.2-164.85 61.21l-.4.41c-33.59 33.86-54.04 85.53-54.59 138.32-.27 24.04-4.56 42.14-14.5 60.66-6.36 11.88-14.38 24.04-22.8 36.9-10.37 15.6-21 31.77-28.47 47.52-13.96 29.44-16.17 55.69-12.02 68.68v.27l-.28.28c-33.57 36.06-49.05 82.21-44.77 133.2Z" fill="url(#z)"/><path d="M936.15 812.64c-28.88 28.88-65.63 49.33-104.32 56.8-57.07 10.9-118.7-1.53-169.13-34.27-12.71-8.3-24.04-18.24-34.82-27.92-13.68-12.3-26.53-23.76-42.7-32.2-21.69-11.46-64.52-15.33-111.37 2.22l-1.24.41c-25.29 9.54-53.89 20.18-82.35 16.59-27.22-3.46-54.3-20.32-76.55-47.54-11.2-13.68-20.73-28.19-29.99-42.14-8.84-13.27-17-25.84-25.28-35.24l-.14-.13v-.28c-1.94-52.78 17-101.84 53.47-138.31l.97-.97c-.69-12.02 3.73-35.79 18.38-63.42 6.08-11.61 14.1-23.77 21.83-35.65 9.4-14.37 19.2-29.16 25.7-43.4 9.67-20.72 10.64-40.48 10.23-59.13-1.11-51.95 20.03-105.15 55.68-138.87 42.14-39.93 103.22-60.93 163.74-55.96 56.51 4.56 114.96 28.19 169.13 68.26 15.06 11.2 30.12 23.49 44.63 35.23 42.83 34.83 86.91 70.89 140.1 84.84 21.01 5.53 43.53 7.6 65.09 9.54 22.52 2.07 45.6 4.14 66.88 10.22 23.9 6.78 44.63 23.36 58.17 46.85 12.57 21.69 18.51 48.08 16.3 72.68-5.25 59.14-50.98 100.45-77.79 119.52-4.7 3.31-9.53 6.5-14.65 9.95-18.93 12.57-38.69 25.7-50.57 47.25-10.78 19.35-18.79 41.73-26.53 63.29-6.9 19.07-14.1 38.96-23.21 56.93a212.52 212.52 0 0 1-39.66 54.85Zm-676.78-143.7c8.28 9.4 16.58 21.83 25.28 35.23 9.26 13.96 18.8 28.47 29.99 42.15 22.1 26.8 49.05 43.52 75.85 47.12 28.2 3.59 56.66-7.19 81.8-16.59l1.25-.4c46.98-17.7 90.23-13.69 112.2-2.22 16.02 8.57 29.7 20.59 42.83 32.33 10.78 9.68 21.97 19.49 34.68 27.78 50.16 32.47 111.51 44.9 168.3 33.99C891.25 857 946.1 814.58 974.7 757.79c9.12-17.97 16.17-37.72 23.22-56.93 7.73-21.56 15.89-43.8 26.66-63.42 12.03-21.7 31.78-34.83 50.85-47.54 5.12-3.45 9.95-6.63 14.65-9.95 26.67-19.2 72.27-60.1 77.38-118.83 4.14-46.15-20.31-103.22-73.79-118.28-21.14-5.94-44.21-8.01-66.74-10.08-21.69-2.07-44.21-4.15-65.35-9.54-53.34-13.81-97.56-50.02-140.53-84.98-14.5-11.74-29.57-24.04-44.63-35.23-54.03-39.93-112.34-63.42-168.57-67.98-60.25-4.98-121.05 15.75-162.92 55.68-35.23 33.58-56.5 86.36-55.26 138.18.4 18.65-.56 38.69-10.37 59.55-6.77 14.23-16.44 29.16-25.84 43.53-7.6 11.74-15.61 23.9-21.83 35.37-14.65 27.64-19.07 51.4-18.38 63.15v.27l-.13.14L312 532c-35.79 35.8-54.58 84.43-52.64 136.94Z" fill="url(#A)"/><path d="M924 819.55c-29.16 29.16-66.6 49.47-106.54 56.8-58.73 10.63-122.15-3.6-174.1-38.7-13.68-9.25-25.7-20.17-37.45-30.81-13.68-12.3-27.77-25.01-43.94-34.82-21.97-13.13-64.94-22.66-113.17-6.22a93.38 93.38 0 0 1-6.63 2.21c-23.07 7.88-46.7 16.03-71.16 12.85-34.68-4.56-59-30.81-70.33-46.01-11.88-15.75-21.42-33.02-29.85-48.36-5.39-9.54-10.36-18.66-15.33-26.12l-.14-.14v-.27c.27-56.1 23.07-107.37 63.83-144.53 3.04-15.48 12.3-37.17 24.74-57.62 4.56-7.6 9.67-15.2 15.06-23.36 10.91-16.44 22.38-33.43 28.88-50.15 7.6-18.93 7.32-37.45 5.94-57.9-3.04-51.68 18.65-104.87 56.24-138.59 41.87-37.45 102.25-56.1 161.39-49.74 54.3 5.66 110.81 29.57 163.32 68.8a1318.45 1318.45 0 0 1 43.39 34.55c43.1 35.38 87.88 72.13 141.63 85.53 19.76 4.84 40.62 6.64 60.93 8.43 22.94 1.94 46.71 3.87 68.4 10.64 24.32 7.46 45.19 25.01 58.73 49.33 12.57 22.52 18.1 50.16 15.2 75.44-5.12 45.46-35.79 89.96-83.88 122.01a386.72 386.72 0 0 1-15.75 9.95c-19.76 12.02-40.07 24.6-52.78 45.88-11.47 19.48-19.49 42.14-27.22 64.25-5.8 16.86-12.02 34.13-19.62 50.02-9.68 21.28-23.5 40.35-39.8 56.65ZM256.31 660.1c4.98 7.46 9.81 16.44 15.2 25.97 8.57 15.2 18.1 32.47 29.85 48.09 11.33 15.2 35.51 41.04 69.78 45.74 24.18 3.17 47.8-4.98 70.6-12.86 2.22-.82 4.57-1.52 6.64-2.2 48.5-16.45 91.75-6.92 113.86 6.35 16.3 9.67 30.4 22.38 43.94 34.82 11.74 10.64 23.76 21.56 37.3 30.67 51.82 34.96 115.1 49.06 173.41 38.56 62.05-11.2 117.87-54.3 145.92-112.48 7.6-15.89 13.68-33.3 19.62-50.02 7.74-22.1 15.61-44.9 27.36-64.39 12.71-21.28 33.16-33.99 53.06-46.15 5.53-3.32 10.64-6.5 15.75-9.95 47.95-31.92 78.35-76.13 83.46-121.32 5.39-48.22-20.59-107.64-73.37-123.67-21.56-6.63-45.32-8.56-68.26-10.5-20.31-1.8-41.32-3.45-61.21-8.43-54.03-13.4-98.8-50.15-142.05-85.66a1319.5 1319.5 0 0 0-43.39-34.55c-52.37-39.1-108.74-62.87-162.77-68.53-59-6.22-118.97 12.3-160.7 49.6-37.44 33.58-59 86.36-55.96 137.76 1.25 20.6 1.52 39.1-6.08 58.31-6.63 16.59-17.96 33.72-29.01 50.3-5.4 8.15-10.5 15.75-14.93 23.21-12.3 20.6-21.55 42-24.6 57.49l-.27.27c-40.35 36.76-62.87 87.74-63.15 143.57Z" fill="url(#B)"/><path d="M912.1 825.9a213.85 213.85 0 0 1-20.44 17.97c-26.4 20.31-57.07 33.85-88.57 39.1-60.38 10.1-125.74-5.52-179.22-43.25-14.64-10.22-27.63-22.1-40.2-33.85-14.1-12.99-28.75-26.25-45.19-37.17-25.15-16.3-68.54-28.74-114.96-14.64-3.46.96-7.19 2.2-10.64 3.17-19.9 6.36-40.35 12.72-61.21 10.1-24.05-3.33-47.4-19.5-64.26-44.64-12.7-19.07-21.83-40.62-29.01-57.76-2.07-4.83-4.01-9.53-5.94-13.68v-.27c2.62-57.9 29.29-112.48 73.37-149.65 6.77-14.23 17.82-32.75 30.81-51.81 2.35-3.46 4.84-6.77 7.32-10.37 12.44-17.68 26.67-37.72 33.03-57.34 5.52-17.41 3.87-34.54 2.35-52.65l-.42-4c-4.83-50.71 17.69-105.02 57.07-138.32 20.73-17.4 46.43-30.67 74.06-38.13a219.12 219.12 0 0 1 84.84-5.53c52.1 6.77 106.4 30.67 157.38 69.23 14.38 10.77 28.47 22.66 42.29 33.99 43.52 36.06 88.57 73.37 143.42 86.22 18.66 4.28 38.14 5.8 57.21 7.18 23.35 1.8 47.53 3.6 69.64 10.78 24.73 8.15 45.74 26.4 59.28 51.82 12.57 23.63 17.82 52.09 14.37 78.2-6.5 47.68-39.25 93.14-89.96 124.5-5.38 3.46-11.33 6.63-16.85 9.95-20.45 11.6-41.59 23.63-54.86 44.36-12.3 19.2-20.03 42.14-27.36 64.39-4.83 14.78-10.09 29.98-16.44 44.07a208.28 208.28 0 0 1-40.9 58.04ZM253.16 651.13c1.93 4.14 3.73 8.7 5.8 13.54 7.6 18.1 16.3 38.69 29.02 57.75 16.72 24.74 39.8 40.9 63.7 44.08 20.72 2.76 41.03-3.73 60.8-9.95l10.77-3.31c46.84-13.96 90.5-1.52 115.65 14.78 16.45 10.64 31.1 24.18 45.33 37.03 12.7 11.61 25.7 23.5 40.2 33.86 53.34 37.58 118.56 53.33 178.8 43.1 64.53-10.9 121.6-54.71 148.68-114.4 6.36-14.1 11.47-29.16 16.45-44.08 7.46-22.38 15.2-45.32 27.5-64.53 13.4-20.86 34.68-33.02 55.13-44.63 5.66-3.18 11.46-6.5 16.71-9.81 50.44-31.37 83.19-76.55 89.54-124.08 6.77-49.6-18.79-111.37-73.09-129.2-21.83-7.18-46.01-8.98-69.37-10.77-19.06-1.39-38.69-3.05-57.34-7.33-55-12.71-100.18-50.16-143.84-86.36-13.68-11.47-27.91-23.21-42.28-33.99-50.85-38.41-105.15-62.32-156.97-69.09-57.76-7.46-117.04 8.7-158.35 43.67-39.1 33.02-61.49 86.9-56.8 137.48l.42 4c1.66 18.25 3.32 35.38-2.2 53.07-6.36 19.62-20.6 39.93-33.03 57.62-2.49 3.59-4.98 6.9-7.32 10.36-13.13 19.2-24.19 37.45-30.82 51.82-43.94 37.3-70.47 91.75-73.1 149.37Z" fill="url(#C)"/><path d="M900.36 832.4c-29.84 29.85-69.22 50.71-111.5 57.35-62.05 9.8-129.2-7.6-184.33-47.81-15.48-11.33-29.57-24.32-43.11-37.04-14.65-13.54-29.71-27.5-46.43-39.24-34.96-24.45-78.62-33.02-116.9-23.21-4.42 1.1-9.12 2.49-13.54 3.87-17.13 4.97-34.68 10.09-52.37 7.6-22.38-3.04-44.07-19.2-58.03-43.11-14.23-24.18-23.21-49.2-24.73-68.68-4.56-60.65 38.4-109.7 82.76-154.9 7.33-7.31 14.79-17.26 23.5-28.46 4.28-5.66 8.84-11.6 13.67-17.54 14.93-18.52 31.23-40.35 36.48-62.18 3.6-15.2 1.52-29.71-.83-45.32-.55-3.32-.96-6.78-1.38-10.23-3.32-24.87.55-51.4 11.05-76 10.37-24.45 26.53-45.87 46.7-61.62 21.01-16.59 45.74-28.33 73.8-34.82a217.05 217.05 0 0 1 82.9-2.77c50.43 7.88 101.28 31.37 151.58 69.78 13.96 10.64 27.63 22.1 41.04 33.3 43.94 36.76 89.4 74.75 144.94 86.91 17.41 3.87 35.93 4.98 53.75 6.22 23.63 1.52 48.23 3.18 70.47 11.06 25.15 8.84 46.43 28.19 59.83 54.3 12.58 24.73 17.55 54.3 13.27 80.97-4.01 25.84-15.2 50.57-33.3 73.37-16.31 20.73-38.14 39.25-62.59 53.48a446.6 446.6 0 0 1-18.11 9.8c-21.14 11.2-43.1 22.67-57.06 42.98-12.85 18.65-20.04 41.6-27.22 63.7-4.15 12.99-8.43 26.4-13.68 38.83-9.54 22.24-23.5 42.28-40.63 59.41ZM448.53 197.9c-33.16 33.16-50.3 80.7-44.36 125.6.42 3.45.97 6.77 1.38 10.23 2.35 15.6 4.56 30.25.83 45.6-5.25 22.1-21.69 43.8-36.61 62.59a567.82 567.82 0 0 0-13.68 17.54c-8.57 11.34-16.17 21.15-23.5 28.47-44.2 45.05-87.18 94.1-82.62 154.48 1.52 19.2 10.5 44.22 24.6 68.26 13.95 23.63 35.37 39.52 57.61 42.7 17.55 2.35 35.1-2.77 52.1-7.6 4.56-1.25 9.12-2.77 13.54-3.87a133.51 133.51 0 0 1 63.97-.42 152.01 152.01 0 0 1 53.34 23.77c16.72 11.74 31.78 25.7 46.43 39.24 13.54 12.71 27.63 25.7 43.1 37.03 55 40.07 122.02 57.35 183.92 47.67 66.18-10.36 125.74-56.1 151.58-116.2 5.25-12.44 9.53-25.84 13.68-38.83 7.04-22.25 14.23-45.18 27.22-63.98 14.1-20.45 36.06-31.91 57.34-43.25 5.94-3.17 12.16-6.35 17.96-9.67 53.06-30.67 87.88-76.82 95.62-126.57 8.02-50.85-17.13-115.24-72.68-134.58-22.11-7.74-46.7-9.4-70.33-10.92-17.83-1.24-36.34-2.35-53.89-6.35-55.82-12.16-101.42-50.3-145.36-87.05-13.4-11.2-27.22-22.8-41.04-33.3-50.02-38.42-101-61.77-151.3-69.78-56.8-8.99-115.1 5.1-156 37.44-4.42 3.6-8.7 7.6-12.85 11.75Z" fill="url(#D)"/><path d="M888.48 839.31c-29.99 29.99-70.33 50.99-114 57.34-63.56 9.4-132.64-9.67-189.44-52.37-16.44-12.3-31.5-26.52-46.15-40.34-15.06-14.24-30.53-28.88-47.39-41.32-22.25-16.44-67.3-42.42-118.7-31.64-5.24 1.1-10.5 2.49-15.75 3.87-14.5 3.73-29.43 7.88-44.35 5.66-20.87-3.17-40.76-18.93-51.82-41.59-10.08-20.3-15.2-44.21-14.5-65.63 1.24-29.98 10.91-59.83 28.87-89.12 15.48-25.15 36.9-49.06 63.43-71.16 16.85-14.1 30.67-26.81 43.38-40.35 19.07-20.18 30.13-39.24 32.89-56.65 2.21-13.55-.7-26.4-3.73-40.21-.97-4.56-2.07-9.26-2.76-14.1-8.57-50.02 14.92-105.29 58.44-137.48 21-15.48 45.74-26.12 73.24-31.5a220.76 220.76 0 0 1 80.83-.15c47.8 8.85 97 32.62 145.78 70.34 13.4 10.36 26.8 21.83 39.93 32.74 44.35 37.45 90.23 76.14 146.74 87.6 16.58 3.32 33.86 4.3 50.57 5.26 23.91 1.24 48.64 2.76 71.03 11.05 25.56 9.54 46.98 29.85 60.38 57.07 12.85 26.12 17.27 55.96 12.3 83.87-4.7 26.8-16.86 52.23-35.79 75.59-17.41 21.27-40.21 39.93-66.05 53.88a420.43 420.43 0 0 1-19.2 9.81c-21.84 10.78-44.5 21.84-59.28 41.6-13.4 18.1-20.18 40.62-26.53 62.45-3.46 11.47-6.91 23.21-11.33 34.27-9.4 22.94-23.5 43.66-41.04 61.21ZM315.74 494.56c-42.84 42.84-67.15 91.2-68.95 138.6-.83 21.27 4.56 45.18 14.5 65.35 11.06 22.38 30.82 38.27 51.41 41.17 14.92 2.22 29.7-1.8 44.22-5.52 5.25-1.38 10.5-2.76 15.75-3.87 20.31-4.28 41.87-3.18 63.97 3.45 18.93 5.67 37.86 15.48 55.27 28.2 17 12.57 32.47 27.21 47.54 41.44 14.64 13.82 29.7 28.05 46 40.21 56.66 42.56 125.47 61.63 189.03 52.24 69.1-10.23 129.61-56.66 154.35-118.15 4.42-11.05 7.87-22.8 11.33-34.26 6.5-21.97 13.26-44.5 26.67-62.6 14.92-19.9 37.44-31.09 59.41-41.73a408.87 408.87 0 0 0 19.07-9.67c54.86-29.7 92.85-77.93 101.7-129.06 10.5-59.41-21.28-121.04-72.27-139.97-22.38-8.29-47.12-9.8-70.88-11.19-16.72-.97-34-1.94-50.71-5.39-56.66-11.6-102.53-50.3-147.02-87.88a1107.41 1107.41 0 0 0-39.8-32.6c-48.77-37.73-97.69-61.5-145.5-70.34-56.65-10.5-112.61.97-153.65 31.5-43.53 32.2-66.74 87.2-58.17 136.94.83 4.7 1.8 9.53 2.76 14.09 2.9 13.68 5.8 26.8 3.6 40.35-2.77 17.68-13.82 36.75-33.03 57.06-12.71 13.55-26.67 26.4-43.39 40.35a442.7 442.7 0 0 0-23.21 21.28Z" fill="url(#E)"/><path d="M877.01 845.53a194.66 194.66 0 0 1-21.28 18.51 209.45 209.45 0 0 1-95.48 39.38c-33.3 4.56-67.84 1.52-102.39-8.98-32.47-9.8-64.39-26.53-92.16-47.94-17.27-13.4-33.58-28.88-49.05-43.8-15.48-14.65-31.37-29.99-48.5-43.25-28.88-22.53-73.23-47.54-120.5-40.08-5.66.97-11.32 2.22-16.85 3.6-12.3 2.9-24.73 5.94-37.3 4.14-19.35-3.04-37.31-18.79-45.74-40.2-6.5-17-8.02-37.6-4.15-62.74a247.13 247.13 0 0 1 34.27-92.85c17.55-28.6 40.9-53.62 67.43-72.4 5.8-4.15 12.02-8.16 17.96-11.9 10.78-6.9 21.84-14.08 31.78-22.65 17.69-15.48 28.05-33.58 29.02-51.13.83-12.43-2.76-24.6-6.22-36.34-1.52-5.39-3.31-11.05-4.42-16.58-5.39-24.73-2.21-51.4 9.26-76.69 10.78-24.04 28.46-45.6 50.02-60.52 40.62-28.19 96.03-37.44 151.85-25.56 46.02 9.81 91.9 33.02 139.98 70.88 12.99 10.23 25.97 21.28 38.69 32.06 44.76 38.14 91.05 77.52 148.4 88.43 15.61 2.9 31.91 3.73 47.53 4.43 24.04 1.1 48.78 2.34 71.44 11.19 25.84 10.36 47.53 31.5 60.93 59.55 12.85 27.22 17 57.9 11.33 86.5-10.36 53.47-50.85 102.8-108.19 131.96a462.08 462.08 0 0 1-20.45 9.67c-22.52 10.36-45.74 20.87-61.21 40.2-13.96 17.28-19.9 39.25-25.7 60.53-2.77 9.95-5.53 20.45-9.26 30.26-8.84 22.94-22.8 44.08-41.04 62.32ZM314.5 485.3c-37.31 37.31-63.01 87.05-70.75 139-3.73 25.02-2.35 45.47 4.15 62.46 8.29 21.28 26.11 36.9 45.32 39.8 12.43 1.93 24.87-1.1 37.17-4a232.1 232.1 0 0 1 17-3.74c47.53-7.46 92.02 17.69 120.9 40.21 17.13 13.26 33.02 28.6 48.63 43.39 15.62 14.78 31.79 30.4 49.06 43.8 58.3 45.04 129.05 65.77 194.13 56.79 70.89-9.81 134.17-58.17 157.11-120.08 3.73-9.8 6.36-20.17 9.26-30.26 5.8-21.27 11.88-43.38 25.84-60.65 15.61-19.21 38.82-29.99 61.49-40.21 6.77-3.18 13.68-6.22 20.31-9.54 57.2-29.02 97.55-78.2 107.78-131.54 11.88-60.8-19.76-124.78-71.99-145.5-22.53-8.98-47.26-10.23-71.17-11.2-15.75-.82-32.05-1.38-47.8-4.42-57.62-10.91-103.91-50.3-148.82-88.57-12.57-10.64-25.7-21.83-38.69-32.05-48.08-37.86-93.82-60.94-139.7-70.89-55.54-11.88-110.81-2.76-151.44 25.43-45.46 31.36-69.64 87.6-59 136.65 1.25 5.67 2.9 11.2 4.42 16.58 3.46 11.75 7.05 24.19 6.22 36.62-1.1 17.69-11.47 36.06-29.3 51.4-9.94 8.57-21 15.75-31.77 22.66a367.46 367.46 0 0 0-17.97 11.89 243.96 243.96 0 0 0-30.4 25.97Z" fill="url(#F)"/><defs><linearGradient id="a" x1="702.61" y1=".79" x2="702.61" y2="1146.11" gradientUnits="userSpaceOnUse"><stop stop-color="#4AFEBF"/><stop offset="1" stop-color="#51EEDA"/></linearGradient><linearGradient id="b" x1="702.61" y1=".79" x2="702.61" y2="1146.11" gradientUnits="userSpaceOnUse"><stop stop-color="#4AFEBF"/><stop offset="1" stop-color="#51EEDA"/></linearGradient><linearGradient id="c" x1="702.61" y1=".79" x2="702.61" y2="1146.11" gradientUnits="userSpaceOnUse"><stop stop-color="#4AFEBF"/><stop offset="1" stop-color="#51EEDA"/></linearGradient><linearGradient id="d" x1="702.61" y1=".79" x2="702.61" y2="1146.11" gradientUnits="userSpaceOnUse"><stop stop-color="#4AFEBF"/><stop offset="1" stop-color="#51EEDA"/></linearGradient><linearGradient id="e" x1="702.61" y1=".79" x2="702.61" y2="1146.11" gradientUnits="userSpaceOnUse"><stop stop-color="#4AFEBF"/><stop offset="1" stop-color="#51EEDA"/></linearGradient><linearGradient id="f" x1="702.61" y1=".79" x2="702.61" y2="1146.11" gradientUnits="userSpaceOnUse"><stop stop-color="#4AFEBF"/><stop offset="1" stop-color="#51EEDA"/></linearGradient><linearGradient id="g" x1="702.61" y1=".79" x2="702.61" y2="1146.11" gradientUnits="userSpaceOnUse"><stop stop-color="#4AFEBF"/><stop offset="1" stop-color="#51EEDA"/></linearGradient><linearGradient id="h" x1="702.61" y1=".79" x2="702.61" y2="1146.11" gradientUnits="userSpaceOnUse"><stop stop-color="#4AFEBF"/><stop offset="1" stop-color="#51EEDA"/></linearGradient><linearGradient id="i" x1="702.61" y1=".79" x2="702.61" y2="1146.11" gradientUnits="userSpaceOnUse"><stop stop-color="#4AFEBF"/><stop offset="1" stop-color="#51EEDA"/></linearGradient><linearGradient id="j" x1="702.61" y1=".79" x2="702.61" y2="1146.11" gradientUnits="userSpaceOnUse"><stop stop-color="#4AFEBF"/><stop offset="1" stop-color="#51EEDA"/></linearGradient><linearGradient id="k" x1="702.61" y1=".79" x2="702.61" y2="1146.11" gradientUnits="userSpaceOnUse"><stop stop-color="#4AFEBF"/><stop offset="1" stop-color="#51EEDA"/></linearGradient><linearGradient id="l" x1="702.61" y1=".79" x2="702.61" y2="1146.11" gradientUnits="userSpaceOnUse"><stop stop-color="#4AFEBF"/><stop offset="1" stop-color="#51EEDA"/></linearGradient><linearGradient id="m" x1="702.61" y1=".79" x2="702.61" y2="1146.11" gradientUnits="userSpaceOnUse"><stop stop-color="#4AFEBF"/><stop offset="1" stop-color="#51EEDA"/></linearGradient><linearGradient id="n" x1="702.61" y1=".79" x2="702.61" y2="1146.11" gradientUnits="userSpaceOnUse"><stop stop-color="#4AFEBF"/><stop offset="1" stop-color="#51EEDA"/></linearGradient><linearGradient id="o" x1="702.61" y1=".79" x2="702.61" y2="1146.11" gradientUnits="userSpaceOnUse"><stop stop-color="#4AFEBF"/><stop offset="1" stop-color="#51EEDA"/></linearGradient><linearGradient id="p" x1="702.61" y1=".79" x2="702.61" y2="1146.11" gradientUnits="userSpaceOnUse"><stop stop-color="#4AFEBF"/><stop offset="1" stop-color="#51EEDA"/></linearGradient><linearGradient id="q" x1="702.61" y1=".79" x2="702.61" y2="1146.11" gradientUnits="userSpaceOnUse"><stop stop-color="#4AFEBF"/><stop offset="1" stop-color="#51EEDA"/></linearGradient><linearGradient id="r" x1="702.61" y1=".79" x2="702.61" y2="1146.11" gradientUnits="userSpaceOnUse"><stop stop-color="#4AFEBF"/><stop offset="1" stop-color="#51EEDA"/></linearGradient><linearGradient id="s" x1="702.61" y1=".79" x2="702.61" y2="1146.11" gradientUnits="userSpaceOnUse"><stop stop-color="#4AFEBF"/><stop offset="1" stop-color="#51EEDA"/></linearGradient><linearGradient id="t" x1="702.61" y1=".79" x2="702.61" y2="1146.11" gradientUnits="userSpaceOnUse"><stop stop-color="#4AFEBF"/><stop offset="1" stop-color="#51EEDA"/></linearGradient><linearGradient id="u" x1="702.61" y1=".79" x2="702.61" y2="1146.11" gradientUnits="userSpaceOnUse"><stop stop-color="#4AFEBF"/><stop offset="1" stop-color="#51EEDA"/></linearGradient><linearGradient id="v" x1="702.61" y1=".79" x2="702.61" y2="1146.11" gradientUnits="userSpaceOnUse"><stop stop-color="#4AFEBF"/><stop offset="1" stop-color="#51EEDA"/></linearGradient><linearGradient id="w" x1="702.61" y1=".79" x2="702.61" y2="1146.11" gradientUnits="userSpaceOnUse"><stop stop-color="#4AFEBF"/><stop offset="1" stop-color="#51EEDA"/></linearGradient><linearGradient id="x" x1="702.61" y1=".79" x2="702.61" y2="1146.11" gradientUnits="userSpaceOnUse"><stop stop-color="#4AFEBF"/><stop offset="1" stop-color="#51EEDA"/></linearGradient><linearGradient id="y" x1="702.61" y1=".79" x2="702.61" y2="1146.11" gradientUnits="userSpaceOnUse"><stop stop-color="#4AFEBF"/><stop offset="1" stop-color="#51EEDA"/></linearGradient><linearGradient id="z" x1="702.61" y1=".79" x2="702.61" y2="1146.11" gradientUnits="userSpaceOnUse"><stop stop-color="#4AFEBF"/><stop offset="1" stop-color="#51EEDA"/></linearGradient><linearGradient id="A" x1="702.61" y1=".79" x2="702.61" y2="1146.11" gradientUnits="userSpaceOnUse"><stop stop-color="#4AFEBF"/><stop offset="1" stop-color="#51EEDA"/></linearGradient><linearGradient id="B" x1="702.61" y1=".79" x2="702.61" y2="1146.11" gradientUnits="userSpaceOnUse"><stop stop-color="#4AFEBF"/><stop offset="1" stop-color="#51EEDA"/></linearGradient><linearGradient id="C" x1="702.61" y1=".79" x2="702.61" y2="1146.11" gradientUnits="userSpaceOnUse"><stop stop-color="#4AFEBF"/><stop offset="1" stop-color="#51EEDA"/></linearGradient><linearGradient id="D" x1="702.61" y1=".79" x2="702.61" y2="1146.11" gradientUnits="userSpaceOnUse"><stop stop-color="#4AFEBF"/><stop offset="1" stop-color="#51EEDA"/></linearGradient><linearGradient id="E" x1="702.61" y1=".79" x2="702.61" y2="1146.11" gradientUnits="userSpaceOnUse"><stop stop-color="#4AFEBF"/><stop offset="1" stop-color="#51EEDA"/></linearGradient><linearGradient id="F" x1="702.61" y1=".79" x2="702.61" y2="1146.11" gradientUnits="userSpaceOnUse"><stop stop-color="#4AFEBF"/><stop offset="1" stop-color="#51EEDA"/></linearGradient></defs></svg>