<svg width="20" height="20" viewBox="0 0 20 20" fill="none" xmlns="http://www.w3.org/2000/svg">
<rect width="20" height="20" rx="10" fill="white"/>
<g clip-path="url(#clip0_1536_3826)">
<path d="M13.5729 7.93479C13.3177 7.78048 12.9896 7.78048 12.6979 7.93479L10.6562 9.20781L9.27083 10.0179L7.26562 11.2909C7.01042 11.4452 6.68229 11.4452 6.39062 11.2909L4.82292 10.2879C4.56771 10.1336 4.38542 9.82503 4.38542 9.47784V7.54903C4.38542 7.24042 4.53125 6.9318 4.82292 6.73892L6.39062 5.77451C6.64583 5.62021 6.97396 5.62021 7.26562 5.77451L8.83333 6.7775C9.08854 6.9318 9.27083 7.24042 9.27083 7.5876V8.86062L10.6562 8.01194V6.70035C10.6562 6.39174 10.5104 6.08313 10.2187 5.89024L7.30208 4.07715C7.04687 3.92285 6.71875 3.92285 6.42708 4.07715L3.4375 5.92882C3.14583 6.08312 3 6.39174 3 6.70035V10.3265C3 10.6351 3.14583 10.9437 3.4375 11.1366L6.39062 12.9497C6.64583 13.104 6.97396 13.104 7.26562 12.9497L9.27083 11.7153L10.6562 10.8666L12.6615 9.63215C12.9167 9.47784 13.2448 9.47784 13.5365 9.63215L15.1042 10.5966C15.3594 10.7509 15.5417 11.0595 15.5417 11.4067V13.3355C15.5417 13.6441 15.3958 13.9527 15.1042 14.1456L13.5729 15.11C13.3177 15.2643 12.9896 15.2643 12.6979 15.11L11.1302 14.1456C10.875 13.9913 10.6927 13.6827 10.6927 13.3355V12.101L9.30729 12.9497V14.2227C9.30729 14.5313 9.45312 14.84 9.74479 15.0328L12.6979 16.8459C12.9531 17.0002 13.2812 17.0002 13.5729 16.8459L16.526 15.0328C16.7812 14.8785 16.9635 14.5699 16.9635 14.2227V10.558C16.9635 10.2494 16.8177 9.94076 16.526 9.74788L13.5729 7.93479Z" fill="#8247E5"/>
</g>
<defs>
<clipPath id="clip0_1536_3826">
<rect width="14" height="12.9231" fill="white" transform="translate(3 4)"/>
</clipPath>
</defs>
</svg>
