<svg width="20" height="20" viewBox="0 0 20 20" fill="none" xmlns="http://www.w3.org/2000/svg">
<rect width="20" height="20" rx="10" fill="white"/>
<g clip-path="url(#clip0_1536_3818)">
<path d="M6.82362 8.72333L9.93084 5.61624L13.0397 8.72498L14.8477 6.91698L9.93084 2L5.01562 6.91534L6.82362 8.72333Z" fill="#F3BA2F"/>
<path d="M5.54698 9.99974L3.73901 8.19177L1.93096 9.99983L3.73892 11.8078L5.54698 9.99974Z" fill="#F3BA2F"/>
<path d="M6.82383 11.2767L9.93105 14.3838L13.0398 11.2751L14.8488 13.0821L14.8479 13.0831L9.93105 18L5.01571 13.0848L5.01318 13.0823L6.82383 11.2767Z" fill="#F3BA2F"/>
<path d="M16.1231 11.8087L17.9312 10.0006L16.1232 8.19265L14.3151 10.0007L16.1231 11.8087Z" fill="#F3BA2F"/>
<path d="M11.7649 9.99909H11.7657L9.931 8.16443L8.57516 9.52027H8.57504L8.41935 9.67608L8.09799 9.99744L8.09546 9.99997L8.09799 10.0026L9.931 11.8356L11.7657 10.001L11.7665 9.99997L11.7649 9.99909Z" fill="#F3BA2F"/>
</g>
<defs>
<clipPath id="clip0_1536_3818">
<rect width="16" height="16" fill="white" transform="translate(2 2)"/>
</clipPath>
</defs>
</svg>
