<?xml version="1.0" standalone="no"?>
<!DOCTYPE svg PUBLIC "-//W3C//DTD SVG 20010904//EN"
 "http://www.w3.org/TR/2001/REC-SVG-20010904/DTD/svg10.dtd">
<svg version="1.0" xmlns="http://www.w3.org/2000/svg"
 width="210.000000pt" height="210.000000pt" viewBox="0 0 210.000000 210.000000"
 preserveAspectRatio="xMidYMid meet">
<metadata>
Created by potrace 1.14, written by Peter Selinger 2001-2017
</metadata>
<g transform="translate(0.000000,210.000000) scale(0.100000,-0.100000)"
fill="#000000" stroke="none">
<path d="M862 1898 c-315 -68 -569 -311 -654 -626 -22 -83 -30 -283 -15 -374
28 -169 125 -350 257 -476 147 -141 333 -224 538 -239 94 -6 122 7 122 58 0
25 -21 58 -38 60 -4 0 -38 2 -76 5 -341 21 -636 294 -684 633 -61 431 257 828
686 855 83 5 112 22 112 67 0 61 -82 73 -248 37z"/>
<path d="M1600 1683 c-47 -19 -54 -76 -14 -114 67 -62 156 -216 183 -314 43
-163 32 -342 -30 -490 -31 -76 -107 -192 -153 -234 -63 -59 -5 -147 68 -102
77 48 197 249 238 401 31 118 31 327 -1 444 -39 147 -161 349 -239 398 -29 19
-30 19 -52 11z"/>
<path d="M1015 1644 c-39 -13 -106 -77 -145 -137 -30 -48 -4 -97 52 -97 21 0
38 13 77 60 l50 59 83 -97 c45 -53 85 -99 88 -102 3 -3 41 -48 85 -100 91
-108 125 -148 142 -165 9 -9 3 -23 -28 -60 -45 -55 -51 -95 -17 -119 35 -25
57 -19 100 27 91 95 100 146 41 224 -20 26 -39 50 -42 53 -3 3 -42 48 -86 100
-321 383 -320 382 -400 354z"/>
<path d="M747 1358 c-66 -82 -70 -92 -49 -118 26 -33 53 -20 106 51 40 53 44
63 34 84 -17 39 -51 32 -91 -17z"/>
<path d="M995 1201 c-35 -15 -74 -62 -81 -97 -15 -79 33 -157 103 -170 147
-28 231 134 126 243 -28 30 -104 42 -148 24z"/>
<path d="M599 1187 c-8 -7 -30 -32 -47 -56 -45 -61 -43 -105 5 -168 30 -40
183 -222 218 -259 5 -6 28 -33 50 -60 128 -155 155 -182 192 -191 65 -16 98 3
185 105 65 77 76 95 72 119 -9 51 -59 69 -100 35 -11 -9 -44 -45 -72 -79 l-50
-62 -49 56 c-55 64 -84 98 -143 168 -73 86 -83 99 -147 172 -35 39 -63 74 -63
79 0 4 11 24 26 45 30 44 25 85 -13 100 -32 12 -45 11 -64 -4z"/>
<path d="M1317 359 c-27 -16 -39 -56 -26 -82 15 -29 28 -37 60 -37 33 0 56 19
64 52 5 21 1 33 -19 52 -27 28 -50 32 -79 15z"/>
</g>
</svg>
