<svg width="14" height="14" viewBox="0 0 14 14" fill="none" xmlns="http://www.w3.org/2000/svg">
<path d="M4.70887 10.9804C4.70887 10.102 5.72889 8.60131 6.2389 8.23529C5.93289 8.78431 5.77209 10.5977 7.15692 11.5294C8.38094 12.3529 9.40096 13.451 9.60497 14C10.421 13.3595 12.7262 11.749 12.971 9.33333C13.2158 6.91765 11.849 5.03268 11.135 4.39216C10.931 6.31373 10.3394 9.27843 9.60497 5.76471C8.87055 2.25098 6.4429 0.457516 5.32088 0C5.32088 0.457516 5.25992 1.69039 5.01487 2.7451C4.34933 5.60961 1.34276 6.86275 1.0368 9.33333C0.730828 11.8039 2.32202 13.3412 6.2389 14C6.2389 14 4.70887 12.6275 4.70887 10.9804Z" fill="white"/>
</svg>
