<svg width="14" height="14" viewBox="0 0 14 14" fill="none" xmlns="http://www.w3.org/2000/svg">
<g clip-path="url(#clip0_947_2348)">
<path d="M3.5 12H1V6H3.5V12ZM12.3075 7.794C11.879 7.7365 12.0185 7.427 12.323 7.333C12.5835 7.253 13 7.083 13 6.578C13 6.242 12.75 5.797 11.8645 5.833C11.2505 5.858 10.0315 5.734 9.375 5.3905C9.828 3.5625 9.719 1 8.531 1C7.734 1 7.583 1.9035 7.3435 2.7345C6.733 4.8555 5.6875 5.743 4.5 6.177V11.616C6.691 11.9665 7.6725 13 9.7525 13C11.3515 13 12.1785 12.1325 12.1785 11.667C12.1785 11.4995 12.0425 11.3805 11.6985 11.354C11.293 11.323 11.3315 10.948 11.714 10.8775C12.348 10.7605 12.627 10.4205 12.627 10.106C12.627 9.8415 12.429 9.595 12.078 9.5155C11.6595 9.421 11.746 9.137 12.0935 9.1095C12.66 9.0645 12.9375 8.7275 12.9375 8.4045C12.9375 8.122 12.7255 7.85 12.3075 7.794V7.794Z" fill="white"/>
</g>
<defs>
<clipPath id="clip0_947_2348">
<rect width="12" height="12" fill="white" transform="translate(1 1)"/>
</clipPath>
</defs>
</svg>
