<?xml version="1.0" encoding="utf-8"?>
<!-- Generator: Adobe Illustrator 24.0.1, SVG Export Plug-In . SVG Version: 6.00 Build 0)  -->
<svg version="1.1" id="Capa_1" xmlns="http://www.w3.org/2000/svg" xmlns:xlink="http://www.w3.org/1999/xlink" x="0px" y="0px"
	 viewBox="0 0 423.4 423.4" style="enable-background:new 0 0 423.4 423.4;" xml:space="preserve">
<style type="text/css">
	.st0{fill:#00E297;}
</style>
<title>Image</title>
<polygon class="st0" points="81.4,72.8 81.4,203.3 98.2,203.3 98.2,72.8 115.4,72.8 115.4,202.8 342,202.8 342,186.4 136,186.4 
	136,72.8 152.8,72.8 152.8,168.7 342,168.7 342,148.5 165.4,148.5 165.4,72.8 182.7,72.8 182.7,131.7 236.9,131.7 236.9,72.8 
	253.7,72.8 253.7,131.7 274.7,131.7 274.7,72.8 291.5,72.8 291.5,131.7 308.4,131.7 308.4,72.8 325.2,72.8 325.2,131.7 342,131.7 
	342,72.8 358.8,72.8 358.8,350.6 342,350.6 342,220.1 325.2,220.1 325.2,350.6 307.9,350.6 307.9,220.5 81.4,220.5 81.4,236.9 
	291.5,236.9 291.5,350.6 274.7,350.6 274.7,254.6 81.4,254.6 81.4,274.8 257.9,274.8 257.9,350.6 240.7,350.6 240.7,291.7 
	186.5,291.7 186.5,350.6 169.7,350.6 169.6,291.7 148.6,291.7 148.6,350.6 131.8,350.6 131.8,291.7 115,291.7 115,350.6 98.2,350.6 
	98.2,291.7 81.4,291.7 81.4,350.6 64.6,350.6 64.6,72.8 "/>
</svg>
