<svg width="32" height="32" viewBox="0 0 32 32" fill="none" xmlns="http://www.w3.org/2000/svg">
<path d="M16 0C24.8374 0 32 7.16407 32 16C32 24.8374 24.8374 32 16 32C7.16407 32 0 24.8366 0 16C0 7.16407 7.16407 0 16 0Z" fill="#F7931A"/>
<path d="M6.37976 17.6414H8.19962C8.20142 17.6414 8.20345 17.6414 8.2057 17.6414C8.2318 17.6414 8.28667 17.6415 8.33988 17.6354C8.40039 17.6284 8.51919 17.6079 8.63499 17.5225C8.76148 17.4292 8.82267 17.3055 8.8509 17.2056C8.87609 17.1164 8.87963 17.0311 8.87963 16.9714V15.0915C8.87963 15.09 8.87963 15.0881 8.87964 15.086C8.87972 15.063 8.87991 15.0077 8.87315 14.9544C8.8651 14.891 8.84004 14.759 8.73285 14.6388C8.62378 14.5164 8.49144 14.4747 8.41341 14.4586C8.33907 14.4432 8.26726 14.4417 8.21978 14.4417H6.37976V13.3825H8.18954C8.19169 13.3825 8.19409 13.3825 8.19671 13.3825C8.22653 13.3826 8.28567 13.3827 8.34178 13.376C8.40612 13.3683 8.53688 13.3451 8.65894 13.2444C8.78782 13.1381 8.83776 13.0039 8.85837 12.9139C8.87741 12.8308 8.87963 12.7495 8.87963 12.6924V7.60229H16.0694C16.5869 7.62329 17.1005 7.68031 17.6085 7.77397L6.37976 17.6414ZM6.37976 17.6414V18.7013H8.21978C8.26113 18.7013 8.32856 18.7019 8.39679 18.7136C8.46577 18.7254 8.60563 18.7596 8.72311 18.8839C8.84069 19.0084 8.86566 19.1493 8.87333 19.2112C8.87989 19.2641 8.87972 19.3202 8.87964 19.345C8.87963 19.3473 8.87963 19.3493 8.87963 19.3511V21.7012V22.491V24.393H15.3169H15.3238L15.3238 24.393C16.0767 24.4034 16.8262 24.3434 17.5648 24.2114C18.3384 24.0597 19.0916 23.8213 19.8095 23.4985C20.1125 23.3579 20.4001 23.1902 20.7136 23.0074C20.7896 22.9631 20.8671 22.9179 20.9466 22.872C21.2963 22.6218 21.6321 22.3505 21.9525 22.0621C22.818 21.2794 23.4894 20.3046 23.9117 19.2176C24.0137 18.8708 24.351 18.6432 24.7127 18.6833H26.2679V17.7526V17.7309L26.2698 17.7093C26.272 17.6839 26.2735 17.6583 26.2745 17.6327H25.1889C25.1421 17.6327 25.068 17.6322 24.9951 17.6199C24.9199 17.6072 24.7725 17.5705 24.6517 17.4374C24.5346 17.3083 24.5116 17.1633 24.5044 17.1014C24.4979 17.0454 24.498 16.9845 24.4981 16.951C24.4981 16.948 24.4981 16.9452 24.4981 16.9426V16.9202L24.5001 16.8979C24.5522 16.3185 24.5522 15.7372 24.5001 15.1578L24.4994 15.1495L24.4989 15.1411C24.4958 15.0859 24.4935 15.0049 24.5086 14.9207C24.525 14.8295 24.5702 14.6884 24.7017 14.5758C24.8251 14.4702 24.9593 14.447 25.0211 14.4395C25.0761 14.4329 25.1338 14.433 25.1614 14.4331C25.1639 14.4331 25.1661 14.4331 25.168 14.4331H26.2686V13.3724H24.7703C24.3985 13.4095 24.0549 13.1682 23.9609 12.8091C23.7704 12.3178 23.5299 11.8479 23.242 11.4082C22.9425 10.9606 22.6055 10.5406 22.2322 10.1527C21.7372 9.65889 21.1812 9.22969 20.577 8.8739C19.6581 8.34054 18.6536 7.96718 17.6087 7.77401L6.37976 17.6414ZM22.5715 12.3508C22.4763 12.162 22.3678 11.9794 22.2457 11.805C22.0221 11.4471 21.7599 11.1161 21.4619 10.8172C21.3106 10.629 21.1363 10.4578 20.9406 10.31C20.0174 9.52754 18.9213 8.97356 17.7434 8.69443L17.7434 8.6944L17.7376 8.6931C17.1425 8.55947 16.5347 8.49576 15.926 8.50095H10.5584C10.4448 8.50095 10.1913 8.51838 10.0193 8.74438C9.8864 8.91908 9.88796 9.12484 9.8884 9.18343C9.88843 9.18633 9.88845 9.18888 9.88845 9.19104V12.7407C9.88845 12.7428 9.88844 12.7452 9.88843 12.7478C9.88837 12.7777 9.88824 12.8368 9.89495 12.8929C9.90264 12.9572 9.92582 13.088 10.0265 13.2101C10.1328 13.3389 10.267 13.3889 10.357 13.4095C10.4402 13.4285 10.5215 13.4308 10.5785 13.4308H22.1181H22.1679L22.2168 13.4209L22.2027 13.3508H22.2028C22.2169 13.4209 22.217 13.4209 22.2171 13.4209L22.2173 13.4208L22.2179 13.4207L22.219 13.4205L22.2213 13.42L22.2266 13.4188L22.2394 13.4159C22.2489 13.4136 22.2605 13.4106 22.2738 13.4067C22.2993 13.3993 22.3361 13.3872 22.3774 13.3684C22.3857 13.3647 22.3982 13.3589 22.4137 13.3508H22.5347L22.5829 13.2242C22.6336 13.171 22.6816 13.1011 22.7121 13.0106L22.9347 12.3508H22.5715ZM22.1181 12.9308C22.1523 13.1008 22.1747 13.2119 22.1894 13.2844V13.2846L22.1181 12.9308ZM22.7121 19.1478C22.7067 19.1241 22.6995 19.0994 22.6901 19.0742V18.7627L22.2448 18.7137C22.0481 18.692 21.8497 18.691 21.6528 18.7107H10.5893C10.5872 18.7107 10.5848 18.7106 10.5822 18.7106C10.5521 18.7106 10.4921 18.7105 10.4347 18.7174C10.3684 18.7255 10.2412 18.749 10.121 18.845C9.99342 18.947 9.93852 19.0774 9.91442 19.1734C9.89234 19.2613 9.88917 19.3474 9.88917 19.4108V22.8813C9.88917 22.8836 9.88916 22.8861 9.88916 22.8889C9.88909 22.9209 9.88897 22.9817 9.8958 23.0391C9.9036 23.1045 9.92708 23.2376 10.0299 23.3611C10.1382 23.4913 10.2746 23.5405 10.3648 23.5606C10.4484 23.5793 10.5308 23.5814 10.5893 23.5814H15.6911C15.9661 23.6006 16.2402 23.5819 16.5081 23.528C17.2856 23.469 18.0504 23.2989 18.7806 23.0214C19.0196 22.938 19.2511 22.834 19.4721 22.7116H19.5309L19.6394 22.6552C20.9316 21.9831 21.9817 20.9271 22.644 19.6303L22.6485 19.6215L22.6526 19.6126L22.1987 19.4029C22.6526 19.6126 22.6527 19.6124 22.6527 19.6123L22.6529 19.6121L22.6531 19.6116L22.6536 19.6106L22.6546 19.6083L22.657 19.6028L22.663 19.5888C22.6675 19.5781 22.673 19.5642 22.6789 19.5479C22.6899 19.5173 22.7056 19.4686 22.716 19.4104C22.7253 19.3585 22.7377 19.2606 22.7121 19.1478ZM26.2683 14.7409C26.2682 14.7408 26.2682 14.7384 26.2686 14.734C26.2686 14.7388 26.2684 14.741 26.2683 14.7409ZM26.5775 18.6828C26.5776 18.683 26.5748 18.6833 26.5685 18.6833C26.5741 18.6827 26.5773 18.6827 26.5775 18.6828ZM6.37996 19.0493C6.37994 19.0494 6.37987 19.0484 6.37982 19.0465L6.37996 19.0493ZM6.37996 14.7898C6.37994 14.7898 6.37987 14.7889 6.37982 14.7869L6.37996 14.7898ZM16.5891 17.6306H22.6689C22.6707 17.6306 22.6727 17.6306 22.6749 17.6306C22.7016 17.6306 22.7555 17.6307 22.8083 17.6249C22.8683 17.6183 22.9768 17.5999 23.0866 17.5285C23.3325 17.3687 23.3614 17.1044 23.3679 16.9949C23.4189 16.3568 23.4191 15.7151 23.3687 15.0763C23.3645 14.9401 23.3237 14.7453 23.153 14.5953C22.9866 14.449 22.7905 14.4309 22.679 14.4309H10.5792C10.4799 14.4309 10.247 14.4402 10.0675 14.6269C9.89281 14.8087 9.88917 15.0365 9.88917 15.121V16.9009C9.88917 16.9045 9.88916 16.9083 9.88916 16.9123C9.88909 16.958 9.889 17.0288 9.89624 17.0913C9.90394 17.1576 9.92961 17.3253 10.0733 17.4629C10.2125 17.5963 10.3765 17.6177 10.4374 17.6242C10.4987 17.6307 10.5688 17.6306 10.6172 17.6306C10.6213 17.6306 10.6252 17.6306 10.6289 17.6306H16.5891Z" fill="#FEFEFD" stroke="white"/>
</svg>
