<?xml version="1.0" encoding="utf-8"?>
<!-- Generator: Adobe Illustrator 24.0.1, SVG Export Plug-In . SVG Version: 6.00 Build 0)  -->
<svg version="1.1" id="Capa_1" xmlns="http://www.w3.org/2000/svg" xmlns:xlink="http://www.w3.org/1999/xlink" x="0px" y="0px"
	 viewBox="0 0 59.7 59.7" style="enable-background:new 0 0 59.7 59.7;" xml:space="preserve">
<style type="text/css">
	.st0{fill-rule:evenodd;clip-rule:evenodd;fill:url(#SVGID_1_);}
</style>
<linearGradient id="SVGID_1_" gradientUnits="userSpaceOnUse" x1="54.9418" y1="163.2923" x2="4.764" y2="198.3163" gradientTransform="matrix(1 0 0 -1 0 210.7338)">
	<stop  offset="0" style="stop-color:#7000FF"/>
	<stop  offset="0.4896" style="stop-color:#00FFD1"/>
	<stop  offset="1" style="stop-color:#FFBF1C"/>
</linearGradient>
<path class="st0" d="M19.7,1.8L49.2,34L14,4.5c-0.5,0.3-1,0.6-1.4,1l35.5,29.8L7.9,9.6c-0.4,0.4-0.7,0.8-1.1,1.3l40.5,25.8l-44-20.5
	c-0.3,0.5-0.5,1-0.7,1.5l44,20.5l-46-14.5c-0.1,0.5-0.2,1.1-0.3,1.6L46,39.8L0,31.6c0,0.6,0.1,1.1,0.1,1.7l45.6,8L1.5,39.5
	c0.2,0.6,0.4,1.1,0.6,1.7l43.5,1.9L5.1,46.6c0.4,0.5,0.7,1.1,1.1,1.6l39.6-3.5l-35.4,7.9c0.5,0.5,1.1,0.9,1.7,1.3l34.1-7.6
	L17.1,56.9c0.7,0.3,1.5,0.7,2.3,0.9l27.4-10L24.8,59.3c1,0.2,1.9,0.3,2.9,0.3l19.8-10.3L33,59.6c1.3-0.1,2.6-0.4,3.8-0.7l11.7-8.2
	L41,57.5c2.2-0.9,4.3-2,6.2-3.4l2.4-2.2l-0.8,1c6.7-5.5,10.9-13.8,10.9-23.1c0-2.9-0.4-5.7-1.2-8.4l-0.4,8.6L57,17.5
	c-0.6-1.3-1.2-2.5-2-3.6l1.4,16.4L51.9,9.8c-0.7-0.8-1.4-1.5-2.2-2.2l5.1,23L45.2,4.3c-0.7-0.4-1.5-0.8-2.2-1.2l10.2,28.1L37.6,1
	c-0.7-0.2-1.4-0.3-2.1-0.5l16.3,31.4L29.4,0c-0.7,0-1.3,0-2,0.1l23,32.8l-29-31.7C20.8,1.4,20.2,1.6,19.7,1.8z"/>
</svg>
