<svg width="50" height="50" viewBox="0 0 50 50" fill="none" xmlns="http://www.w3.org/2000/svg">
<rect width="50" height="50" fill="white" fill-opacity="0.2"/>
<path d="M25.9 30.7148H21.6512L21.4 24.5435C23.9814 24.0544 25.8302 23.3495 26.9465 22.4289C28.0767 21.4938 28.6419 20.343 28.6419 18.9764C28.6419 17.7249 28.3 16.7611 27.6163 16.085C26.9465 15.4089 26.0116 15.0708 24.8116 15.0708C22.7047 15.0708 20.6186 15.8404 18.5535 17.3796L16 12.9993C17.7023 11.9348 19.2581 11.1724 20.6674 10.7121C22.0907 10.2374 23.5349 10 25 10C26.507 10 27.8465 10.2445 29.0186 10.7336C30.2047 11.2084 31.1465 11.8557 31.8442 12.6757C32.5558 13.4956 33.093 14.4019 33.4558 15.3945C33.8186 16.3871 34 17.43 34 18.5233C34 20.7817 33.2953 22.659 31.886 24.1551C30.4767 25.6512 28.5651 26.7948 26.1512 27.586L25.9 30.7148ZM21.1907 40.9427C20.5209 40.2378 20.186 39.3963 20.186 38.4181C20.186 37.4399 20.5209 36.6055 21.1907 35.915C21.8744 35.2245 22.6977 34.8793 23.6605 34.8793C24.6233 34.8793 25.4395 35.2245 26.1093 35.915C26.793 36.6055 27.1349 37.4399 27.1349 38.4181C27.1349 39.3963 26.793 40.2378 26.1093 40.9427C25.4395 41.6476 24.6233 42 23.6605 42C22.6977 42 21.8744 41.6476 21.1907 40.9427Z" fill="white" fill-opacity="0.4"/>
</svg>
