<svg width="24" height="24" viewBox="0 0 24 24" fill="none" xmlns="http://www.w3.org/2000/svg">
<path d="M12 0C18.628 0 24 5.37305 24 12C24 18.628 18.628 24 12 24C5.37305 24 0 18.6275 0 12C0 5.37305 5.37305 0 12 0Z" fill="#434545"/>
<path d="M12.4 13.8778H10.5116L10.4 11.2329C11.5473 11.0233 12.369 10.7212 12.8651 10.3267C13.3674 9.92592 13.6186 9.43271 13.6186 8.84703C13.6186 8.31066 13.4667 7.8976 13.1628 7.60784C12.8651 7.31808 12.4496 7.1732 11.9163 7.1732C10.9798 7.1732 10.0527 7.50303 9.13488 8.1627L8 6.28543C8.75659 5.82921 9.44806 5.50246 10.0744 5.30517C10.707 5.10172 11.3488 5 12 5C12.6698 5 13.2651 5.10481 13.786 5.31442C14.3132 5.51787 14.7318 5.7953 15.0419 6.14671C15.3581 6.49812 15.5969 6.88652 15.7581 7.31192C15.9194 7.73731 16 8.18428 16 8.65283C16 9.62075 15.6868 10.4253 15.0605 11.0665C14.4341 11.7076 13.5845 12.1978 12.5116 12.5368L12.4 13.8778ZM10.307 18.2612C10.0093 17.9591 9.86047 17.5984 9.86047 17.1792C9.86047 16.7599 10.0093 16.4024 10.307 16.1064C10.6109 15.8105 10.9767 15.6626 11.4047 15.6626C11.8326 15.6626 12.1953 15.8105 12.493 16.1064C12.7969 16.4024 12.9488 16.7599 12.9488 17.1792C12.9488 17.5984 12.7969 17.9591 12.493 18.2612C12.1953 18.5632 11.8326 18.7143 11.4047 18.7143C10.9767 18.7143 10.6109 18.5632 10.307 18.2612Z" fill="white" fill-opacity="0.4"/>
</svg>
