<svg width="40" height="40" viewBox="0 0 40 40" fill="none" xmlns="http://www.w3.org/2000/svg">
<path d="M20 40C31.0457 40 40 31.0457 40 20C40 8.95431 31.0457 0 20 0C8.95431 0 0 8.95431 0 20C0 31.0457 8.95431 40 20 40Z" fill="#E84142"/>
<path d="M25.9748 20.8858C26.5616 19.8895 27.5085 19.8895 28.0953 20.8858L31.7496 27.191C32.3364 28.1873 31.8562 29 30.6826 29H23.3208C22.1605 29 21.6804 28.1873 22.2539 27.191L25.9748 20.8858ZM18.9064 8.74719C19.4932 7.75094 20.4268 7.75094 21.0136 8.74719L21.8271 10.1891L23.7476 13.5056C24.2144 14.4494 24.2144 15.5637 23.7476 16.5075L17.306 27.4794C16.7192 28.3708 15.7456 28.9345 14.6654 29H9.31738C8.14375 29 7.66364 28.2004 8.25045 27.191L18.9064 8.74719Z" fill="white"/>
</svg>
