<svg width="40" height="40" viewBox="0 0 40 40" fill="none" xmlns="http://www.w3.org/2000/svg">
<circle cx="20" cy="20" r="20" fill="#F3BA2F"/>
<g clip-path="url(#clip0_432_881)">
<path d="M14.6592 17.8057L19.9999 12.465L25.3432 17.808L28.4507 14.7005L19.9999 6.25L11.552 14.698L14.6594 17.8055L14.6592 17.8057ZM6.25 20L9.3576 16.8919L12.465 19.9993L9.35738 23.1069L6.25 20ZM14.6592 22.1946L19.9999 27.535L25.3431 22.1921L28.4522 25.2979L28.4507 25.2996L19.9999 33.75L11.552 25.302L11.5476 25.2976L14.6596 22.1943L14.6592 22.1946ZM27.5349 20.0013L30.6425 16.8937L33.7499 20.0011L30.6424 23.1087L27.5349 20.0013Z" fill="white"/>
<path d="M23.1516 19.9984H23.1529L19.9999 16.8451L17.6693 19.175L17.4016 19.4429L16.8494 19.9952L16.845 19.9995L16.8494 20.004L19.9999 23.155L23.1531 20.0017L23.1546 19.9999L23.1518 19.9984" fill="white"/>
</g>
<defs>
<clipPath id="clip0_432_881">
<rect width="27.5" height="27.5" fill="white" transform="translate(6.25 6.25)"/>
</clipPath>
</defs>
</svg>
