<?xml version="1.0" encoding="utf-8"?>
<!-- Generator: Adobe Illustrator 24.0.1, SVG Export Plug-In . SVG Version: 6.00 Build 0)  -->
<svg version="1.1" id="Capa_1" xmlns="http://www.w3.org/2000/svg" xmlns:xlink="http://www.w3.org/1999/xlink" x="0px" y="0px"
	 viewBox="0 0 36 36" style="enable-background:new 0 0 36 36;" xml:space="preserve">
<style type="text/css">
	.st0{fill-rule:evenodd;clip-rule:evenodd;fill:url(#Path_5_);}
	.st1{fill-rule:evenodd;clip-rule:evenodd;fill:url(#Path_6_);}
	.st2{fill-rule:evenodd;clip-rule:evenodd;fill:url(#Path_7_);}
	.st3{fill-rule:evenodd;clip-rule:evenodd;fill:url(#Path_8_);}
	.st4{fill-rule:evenodd;clip-rule:evenodd;fill:url(#Path_9_);}
</style>
<title>Group 24</title>
<g>
	
		<linearGradient id="Path_5_" gradientUnits="userSpaceOnUse" x1="-268.9416" y1="417.2758" x2="-268.9416" y2="416.2758" gradientTransform="matrix(27.823 0 0 -18.6619 7497.0396 7804.126)">
		<stop  offset="0" style="stop-color:#FF475A"/>
		<stop  offset="1" style="stop-color:#FF9A89"/>
	</linearGradient>
	<path id="Path" class="st0" d="M0.4,17c2.5,2.7,6.9,4.8,13.1,6.5l0.6,0.1l0.6,0.1l0.6,0.1l0.3,0.1L16,24l0.6,0.2l0.6,0.2l0.5,0.1
		l0.5,0.1l0.5,0.1l0.4,0.1l0.4,0.1l0.4,0.1l0.2,0.1l0.4,0.1l0.3,0.1l0.3,0.1l0.5,0.2l0.1,0l0.5,0.2l0.4,0.2l0.2,0.1l0.3,0.1l0.2,0.1
		l0.3,0.1c1.8,0.8,3,1.6,3.8,2.5c1.1,1.2,1.1,2.6-0.3,4.2c-2.5,1.5-5.3,2.4-8.4,2.5c-0.3-0.7-0.7-1.4-1.2-2.1
		c-0.3-0.4-0.6-0.8-0.9-1.2l-0.2-0.2l-0.2-0.3l-0.2-0.3l-0.3-0.3c-0.4-0.4-0.9-0.8-1.3-1.3l-0.2-0.2l-0.3-0.3l-0.3-0.3L13.1,29
		l-0.4-0.3l-0.2-0.1l-0.4-0.3L11.8,28l-0.5-0.4l-0.5-0.4l-0.4-0.3L10,26.6l-0.4-0.3L9,25.8l-0.6-0.4L8,25.1l-0.5-0.3L7,24.4
		l-0.7-0.5l-0.5-0.3l-0.5-0.3l-0.5-0.4L4,22.4L3.3,22l-0.9-0.5l-0.6-0.4L1,20.5l-0.5-0.3c-0.1-0.7-0.1-1.4-0.1-2.1
		c0-0.3,0-0.6,0-0.9L0.4,17z"/>
	
		<linearGradient id="Path_6_" gradientUnits="userSpaceOnUse" x1="-259.8188" y1="404.925" x2="-259.8188" y2="403.925" gradientTransform="matrix(14.5901 0 0 -11.8757 3799.4546 4832.54)">
		<stop  offset="0" style="stop-color:#FF9A89"/>
		<stop  offset="1" style="stop-color:#FF475A"/>
	</linearGradient>
	<path id="Path_1_" class="st1" d="M1.4,23.8L1.7,24l0.8,0.5L3,24.8l0.5,0.3l0.5,0.3l0.5,0.3l0.5,0.3l0.5,0.3L6,26.8l0.5,0.3
		l0.5,0.3l0.4,0.3l0.4,0.3l0.4,0.3l0.4,0.3l0.6,0.5l0.6,0.4l0.4,0.3l0.4,0.3l0.4,0.3l0.3,0.3l0.2,0.1l0.3,0.3l0.3,0.3l0.3,0.3
		l0.3,0.3l0.1,0.1l0.3,0.3l0.3,0.3l0.3,0.3c0.1,0.1,0.2,0.2,0.3,0.3l0.2,0.2l0.2,0.2c0.5,0.5,0.9,1,1.3,1.5c0.1,0.2,0.2,0.3,0.4,0.5
		C9.1,34.8,3.5,30.1,1.4,23.8z"/>
	
		<linearGradient id="Path_7_" gradientUnits="userSpaceOnUse" x1="-270.497" y1="421.9073" x2="-270.497" y2="420.9073" gradientTransform="matrix(32.9126 0 0 -23.7514 8920.2559 10027.332)">
		<stop  offset="0" style="stop-color:#FF9A89"/>
		<stop  offset="1" style="stop-color:#FF475A"/>
	</linearGradient>
	<path id="Path_2_" class="st2" d="M4.7,6.5C4.6,7.7,4.9,8.8,5.6,9.9c1,1.6,2.9,3,5.7,4.2l0.2,0.1l0.4,0.2c0.7,0.3,1.4,0.6,2.2,0.8
		l0.3,0.1l0.4,0.1l0.2,0.1l0.4,0.1l0.2,0.1l0.5,0.1l0.2,0.1l0.2,0.1l0.5,0.1l0.2,0.1l0.5,0.1l0.5,0.1l0.6,0.1l0.5,0.1
		c0.2,0,0.4,0.1,0.5,0.1l0.5,0.1c0.2,0,0.3,0.1,0.5,0.1l0.5,0.1l0.5,0.1l0.5,0.1c6.9,2.1,10.5,4.8,11.2,8.2
		c-0.8,1.7-1.9,3.2-3.1,4.5c-0.1-1.1-0.6-2.1-1.4-3.1c-0.8-0.8-1.8-1.6-3.2-2.4L26,24.7l-0.3-0.2c-0.2-0.1-0.4-0.2-0.5-0.3l-0.3-0.1
		L24.5,24l-0.2-0.1l-0.2-0.1l-0.4-0.2l-0.2-0.1l-0.4-0.2c-0.6-0.2-1.2-0.4-1.8-0.6l-0.3-0.1l-0.4-0.1l-0.5-0.1l-0.5-0.1L19,22.1
		l-0.5-0.1l-0.6-0.2l-0.6-0.2L17,21.6l-0.5-0.1l-0.9-0.2L15,21.1L14.5,21L14,20.8c-0.1,0-0.2,0-0.2-0.1l-0.5-0.1l-0.5-0.1l-0.5-0.1
		c-0.1,0-0.1,0-0.2-0.1l-0.4-0.1l-0.4-0.1c-0.1,0-0.3-0.1-0.4-0.1l-0.4-0.1l-0.4-0.1c-0.1,0-0.1,0-0.2-0.1l-0.4-0.1
		c-0.2-0.1-0.4-0.1-0.6-0.2l-0.4-0.1c-0.2-0.1-0.5-0.2-0.7-0.3l-0.3-0.2c-0.1,0-0.1-0.1-0.2-0.1L7,18.4c-3.2-1.5-5.1-3.2-6-5.2
		C1.7,10.7,3,8.5,4.6,6.6L4.7,6.5z"/>
	
		<linearGradient id="Path_8_" gradientUnits="userSpaceOnUse" x1="-269.181" y1="420.3152" x2="-269.181" y2="419.3152" gradientTransform="matrix(28.5016 0 0 -21.7155 7693.4727 9127.7285)">
		<stop  offset="0" style="stop-color:#FF475A"/>
		<stop  offset="1" style="stop-color:#FF9A89"/>
	</linearGradient>
	<path id="Path_3_" class="st3" d="M17.9,0.4c0.2,0,0.3,0,0.5,0c-1.3,1.8-1,4,1,6.6c0.3,0.4,0.6,0.7,1,1.1l0.2,0.2l0.2,0.3
		c0.1,0.1,0.2,0.2,0.3,0.3l0.2,0.2l0.3,0.3L22,9.6c0.3,0.3,0.6,0.6,1,0.9l0.3,0.2l0.3,0.3l0.3,0.3l0.4,0.3l0.4,0.3l0.4,0.3l0.4,0.3
		l0.6,0.4l0.4,0.3l0.6,0.4l0.4,0.3l0.2,0.2l0.5,0.3l0.2,0.2l0.5,0.3l0.5,0.3l0.5,0.3l0.5,0.3l0.5,0.3l0.5,0.3l0.5,0.3l0.5,0.3
		l0.6,0.3l0.6,0.3l0.6,0.3l0.6,0.3l0.6,0.3l0.3,0.2c-0.1,1.1-0.2,2.1-0.5,3.1c-1.7-2.5-4.8-4.5-9.3-6.2l-0.4-0.2
		c-0.6-0.2-1.2-0.4-1.8-0.6l-0.5-0.1l-0.5-0.1l-0.5-0.1c-0.1,0-0.2,0-0.3-0.1l-0.5-0.1c-0.1,0-0.2,0-0.3-0.1l-0.5-0.1
		c-0.3-0.1-0.5-0.1-0.8-0.2l-1-0.2l-0.5-0.1l-0.5-0.1l-0.5-0.1l-0.5-0.1l-0.2-0.1l-0.4-0.1L16,13.1L15.6,13l-0.2-0.1L15,12.8
		l-0.2-0.1l-0.4-0.1l-0.2-0.1l-0.4-0.1l-0.2-0.1l-0.4-0.1l-0.2-0.1L12.9,12l-0.3-0.1l-0.2-0.1l-0.3-0.1c-0.2-0.1-0.5-0.2-0.7-0.3
		l-0.2-0.1l-0.3-0.1c-1.6-0.8-2.7-1.7-3.3-2.6C6.7,6.9,7.1,5.1,9,2.8C11.6,1.2,14.7,0.4,17.9,0.4z"/>
	
		<linearGradient id="Path_9_" gradientUnits="userSpaceOnUse" x1="-260.6712" y1="412.4727" x2="-260.6712" y2="411.4727" gradientTransform="matrix(15.2686 0 0 -15.2688 4008.1052 6298.6406)">
		<stop  offset="0" style="stop-color:#FF9A89"/>
		<stop  offset="1" style="stop-color:#FF475A"/>
	</linearGradient>
	<path id="Path_4_" class="st4" d="M22,0.7C29.3,2.3,34.8,8.4,35.6,16L35,15.6l-0.8-0.5l-0.5-0.3l-0.5-0.3l-0.5-0.3l-0.5-0.3
		l-0.5-0.3l-0.5-0.3L30.8,13l-0.4-0.3L30,12.4l-0.4-0.3l-0.4-0.3l-0.4-0.3l-0.4-0.3L27.9,11l-0.4-0.3l-0.4-0.3l-0.4-0.3l-0.4-0.3
		l-0.3-0.3l-0.3-0.3l-0.3-0.3l-0.3-0.3L25,8.7l-0.3-0.3l-0.3-0.2L24.2,8l-0.3-0.2l-0.3-0.2l-0.2-0.2l-0.2-0.2L23,6.9l-0.1-0.1
		l-0.1-0.1l-0.2-0.2C22.4,6.2,22.2,6,22,5.8l-0.1-0.2l-0.2-0.2l-0.2-0.2c-1.1-1.5-1.4-2.5-1-3.3c0.2-0.4,0.7-0.8,1.4-1.2L22,0.7z"/>
</g>
</svg>
