<svg width="40" height="40" viewBox="0 0 40 40" fill="none" xmlns="http://www.w3.org/2000/svg">
<circle cx="20" cy="20" r="20" fill="#8247E5"/>
<g clip-path="url(#clip0_432_905)">
<path d="M27.0182 14.781C26.5169 14.4954 25.8724 14.4954 25.2995 14.781L21.2891 17.1366L18.5677 18.6356L14.6289 20.9912C14.1276 21.2767 13.4831 21.2767 12.9102 20.9912L9.83073 19.1353C9.32943 18.8497 8.97135 18.2787 8.97135 17.6362V14.0671C8.97135 13.4961 9.25781 12.925 9.83073 12.5681L12.9102 10.7836C13.4115 10.498 14.056 10.498 14.6289 10.7836L17.7083 12.6395C18.2096 12.925 18.5677 13.4961 18.5677 14.1385V16.4941L21.2891 14.9237V12.4967C21.2891 11.9257 21.0026 11.3546 20.4297 10.9977L14.7005 7.64274C14.1992 7.35721 13.5547 7.35721 12.9818 7.64274L7.10937 11.0691C6.53646 11.3546 6.25 11.9257 6.25 12.4967V19.2067C6.25 19.7777 6.53646 20.3488 7.10937 20.7057L12.9102 24.0606C13.4115 24.3462 14.056 24.3462 14.6289 24.0606L18.5677 21.7764L21.2891 20.206L25.2279 17.9218C25.7292 17.6362 26.3737 17.6362 26.9466 17.9218L30.026 19.7063C30.5273 19.9919 30.8854 20.5629 30.8854 21.2054V24.7745C30.8854 25.3455 30.599 25.9166 30.026 26.2735L27.0182 28.058C26.5169 28.3436 25.8724 28.3436 25.2995 28.058L22.22 26.2735C21.7187 25.988 21.3607 25.4169 21.3607 24.7745V22.4902L18.6393 24.0606V26.4163C18.6393 26.9873 18.9258 27.5584 19.4987 27.9153L25.2995 31.2702C25.8008 31.5558 26.4453 31.5558 27.0182 31.2702L32.819 27.9153C33.3203 27.6298 33.6784 27.0587 33.6784 26.4163V19.6349C33.6784 19.0639 33.3919 18.4928 32.819 18.1359L27.0182 14.781Z" fill="white"/>
</g>
<defs>
<clipPath id="clip0_432_905">
<rect width="27.5" height="23.913" fill="white" transform="translate(6.25 7.5)"/>
</clipPath>
</defs>
</svg>
