<svg xmlns="http://www.w3.org/2000/svg" xmlns:xlink="http://www.w3.org/1999/xlink" viewBox="0 0 155.79 155.79"><defs><style>.cls-1{fill:#1d1d1b;}.cls-2{fill:url(#Degradado_sin_nombre_11);}.cls-3{fill:url(#Degradado_sin_nombre_80);}</style><linearGradient id="Degradado_sin_nombre_11" y1="61.56" x2="112.96" y2="61.56" gradientUnits="userSpaceOnUse"><stop offset="0.31" stop-color="#f39200"/><stop offset="0.51" stop-color="#ef7b09"/><stop offset="0.82" stop-color="#eb5b16"/><stop offset="1" stop-color="#e94f1b"/></linearGradient><linearGradient id="Degradado_sin_nombre_80" x1="3.16" y1="90.3" x2="92.56" y2="-8.98" gradientUnits="userSpaceOnUse"><stop offset="0" stop-color="#f39200"/><stop offset="0.11" stop-color="#f6a72d"/><stop offset="0.23" stop-color="#f9ba55"/><stop offset="0.34" stop-color="#fbc772"/><stop offset="0.43" stop-color="#fdcf84"/><stop offset="0.5" stop-color="#fdd28a"/><stop offset="0.58" stop-color="#fbc27d"/><stop offset="0.74" stop-color="#f49a5b"/><stop offset="0.97" stop-color="#eb5823"/><stop offset="1" stop-color="#e94e1b"/></linearGradient></defs><title>imagotype_scaleswap_lines</title><g id="Capa_2" data-name="Capa 2"><g id="Capa_1-2" data-name="Capa 1"><path class="cls-1" d="M120.51,66.68c8.86,11.87,7.68,25.21,4.5,34a34.08,34.08,0,0,1-11.23,14.78c-6.69,5-15.32,7.54-25.67,7.54l-1.9,0H80.67l2.78-12.42h2.81c.58,0,1.29,0,1.85,0h6A23.18,23.18,0,0,0,94,64.24H78.18l-.7,0a3.45,3.45,0,0,1,.29-6.89h40.48l4.61-18.78H99.46L102.24,26H136l-9,40.7Z"/><path class="cls-2" d="M43.57,105.71H8.64a4.93,4.93,0,0,1,0-9.86H43.57a4.93,4.93,0,0,1,0,9.86Zm-11.24-47a4.38,4.38,0,0,0,4.38-4.38v-.1a4.38,4.38,0,0,0-4.38-4.38h0a4.38,4.38,0,0,0-4.39,4.38v.1A4.38,4.38,0,0,0,32.33,58.7Zm41.93,51.88H64.15l-43.57,0a6.26,6.26,0,1,0,0,12.51H71.47ZM79.58,91H90.4a3.91,3.91,0,0,0,0-7.81H75.55Q64.77,83,59.1,76.26T55.56,57.61q5.8-19.17,28.15-19.17H90.1L93.1,26H83.71c-20.35,0-34.58,10-40.06,28l-.33,1.34c-.07.43-.17.94-.29,1.52-.64,2.54-2.59,7.39-8.09,7.39H30.15a5.59,5.59,0,1,0,0,11.18H39v0h9.26a3.88,3.88,0,1,1,0,7.76H24.46a3.89,3.89,0,0,0,0,7.77h5.37v0H79.58ZM6.67,90.93a5.71,5.71,0,0,0,5.12-6.27c-.22-2.23-.34-4.51-.34-6.77A66.52,66.52,0,0,1,77.89,11.45a65.81,65.81,0,0,1,27,5.72,5.73,5.73,0,1,0,4.66-10.46A77.92,77.92,0,0,0,.4,85.81,5.72,5.72,0,0,0,6.09,91Z"/><path class="cls-3" d="M6.67,90.93a5.71,5.71,0,0,0,5.12-6.27c-.22-2.23-.34-4.51-.34-6.77A66.52,66.52,0,0,1,77.89,11.45a65.81,65.81,0,0,1,27,5.72,5.73,5.73,0,1,0,4.66-10.46A77.92,77.92,0,0,0,.4,85.81,5.72,5.72,0,0,0,6.09,91Z"/><path class="cls-1" d="M155.79,77.89a77.22,77.22,0,0,0-8-34.38,5.72,5.72,0,0,0-10.27,5.06,65.86,65.86,0,0,1,6.8,29.32A66.45,66.45,0,0,1,34.8,128.47a5.72,5.72,0,0,0-7.43,8.71A77.89,77.89,0,0,0,155.79,77.89Z"/></g></g></svg>