<svg width="32" height="32" viewBox="0 0 32 32" fill="none" xmlns="http://www.w3.org/2000/svg">
<path d="M16 0C24.8374 0 32 7.16407 32 16C32 24.8374 24.8374 32 16 32C7.16407 32 0 24.8366 0 16C0 7.16407 7.16407 0 16 0Z" fill="#2775CA"/>
<path d="M6.37971 17.6414H8.19958C8.20138 17.6414 8.20341 17.6414 8.20565 17.6414C8.23175 17.6414 8.28662 17.6415 8.33984 17.6354C8.40035 17.6284 8.51914 17.6079 8.63495 17.5225C8.76143 17.4292 8.82262 17.3055 8.85085 17.2056C8.87605 17.1164 8.87958 17.0311 8.87958 16.9714V15.0915C8.87958 15.09 8.87959 15.0881 8.87959 15.086C8.87967 15.063 8.87986 15.0077 8.8731 14.9544C8.86506 14.891 8.84 14.759 8.73281 14.6388C8.62373 14.5164 8.49139 14.4747 8.41336 14.4586C8.33903 14.4432 8.26722 14.4417 8.21974 14.4417H6.37971V13.3825H8.1895C8.19164 13.3825 8.19404 13.3825 8.19666 13.3825C8.22648 13.3826 8.28562 13.3827 8.34174 13.376C8.40608 13.3683 8.53684 13.3451 8.65889 13.2444C8.78777 13.1381 8.83772 13.0039 8.85833 12.9139C8.87736 12.8308 8.87958 12.7495 8.87958 12.6924V7.60229H16.0693C16.5868 7.62329 17.1005 7.68031 17.6085 7.77397L6.37971 17.6414ZM6.37971 17.6414V18.7013H8.21974C8.26108 18.7013 8.32851 18.7019 8.39674 18.7136C8.46572 18.7254 8.60558 18.7596 8.72306 18.8839C8.84064 19.0084 8.86562 19.1493 8.87329 19.2112C8.87985 19.2641 8.87967 19.3202 8.87959 19.345C8.87959 19.3473 8.87958 19.3493 8.87958 19.3511V21.7012V22.491V24.393H15.3168H15.3237L15.3237 24.393C16.0767 24.4034 16.8262 24.3434 17.5647 24.2114C18.3383 24.0597 19.0915 23.8213 19.8094 23.4985C20.1125 23.3579 20.4001 23.1902 20.7136 23.0074C20.7895 22.9631 20.867 22.9179 20.9466 22.872C21.2963 22.6218 21.632 22.3505 21.9524 22.0621C22.818 21.2794 23.4893 20.3046 23.9117 19.2176C24.0136 18.8708 24.3509 18.6432 24.7126 18.6833H26.2678V17.7526V17.7309L26.2697 17.7093C26.2719 17.6839 26.2735 17.6583 26.2744 17.6327H25.1889C25.142 17.6327 25.068 17.6322 24.9951 17.6199C24.9199 17.6072 24.7724 17.5705 24.6517 17.4374C24.5345 17.3083 24.5115 17.1633 24.5044 17.1014C24.4979 17.0454 24.498 16.9845 24.4981 16.951C24.4981 16.948 24.4981 16.9452 24.4981 16.9426V16.9202L24.5001 16.8979C24.5521 16.3185 24.5521 15.7372 24.5001 15.1578L24.4993 15.1495L24.4988 15.1411C24.4958 15.0859 24.4935 15.0049 24.5086 14.9207C24.525 14.8295 24.5702 14.6884 24.7017 14.5758C24.825 14.4702 24.9592 14.447 25.0211 14.4395C25.0761 14.4329 25.1338 14.433 25.1614 14.4331C25.1638 14.4331 25.166 14.4331 25.168 14.4331H26.2686V13.3724H24.7702C24.3985 13.4095 24.0549 13.1682 23.9608 12.8091C23.7704 12.3178 23.5298 11.8479 23.2419 11.4082C22.9425 10.9606 22.6054 10.5406 22.2322 10.1527C21.7371 9.65889 21.1812 9.22969 20.5769 8.8739C19.6581 8.34054 18.6536 7.96718 17.6087 7.77401L6.37971 17.6414ZM22.5714 12.3508C22.4762 12.162 22.3678 11.9794 22.2456 11.805C22.022 11.4471 21.7598 11.1161 21.4618 10.8172C21.3105 10.629 21.1362 10.4578 20.9405 10.31C20.0173 9.52754 18.9212 8.97356 17.7434 8.69443L17.7434 8.6944L17.7376 8.6931C17.1424 8.55947 16.5347 8.49576 15.926 8.50095H10.5583C10.4447 8.50095 10.1912 8.51838 10.0193 8.74438C9.88636 8.91908 9.88792 9.12484 9.88836 9.18343C9.88838 9.18633 9.8884 9.18888 9.8884 9.19104V12.7407C9.8884 12.7428 9.88839 12.7452 9.88839 12.7478C9.88832 12.7777 9.8882 12.8368 9.89491 12.8929C9.9026 12.9572 9.92578 13.088 10.0265 13.2101C10.1328 13.3389 10.267 13.3889 10.357 13.4095C10.4401 13.4285 10.5214 13.4308 10.5785 13.4308H22.118H22.1679L22.2168 13.4209L22.2027 13.3508H22.2027C22.2169 13.4209 22.217 13.4209 22.217 13.4209L22.2173 13.4208L22.2178 13.4207L22.2189 13.4205L22.2213 13.42L22.2265 13.4188L22.2394 13.4159C22.2488 13.4136 22.2605 13.4106 22.2738 13.4067C22.2993 13.3993 22.3361 13.3872 22.3774 13.3684C22.3857 13.3647 22.3982 13.3589 22.4137 13.3508H22.5346L22.5829 13.2242C22.6335 13.171 22.6815 13.1011 22.712 13.0106L22.9346 12.3508H22.5714ZM22.118 12.9308C22.1523 13.1008 22.1747 13.2119 22.1893 13.2844V13.2846L22.118 12.9308ZM22.7121 19.1478C22.7067 19.1241 22.6994 19.0994 22.69 19.0742V18.7627L22.2448 18.7137C22.048 18.692 21.8496 18.691 21.6527 18.7107H10.5893C10.5872 18.7107 10.5848 18.7106 10.5822 18.7106C10.552 18.7106 10.4921 18.7105 10.4346 18.7174C10.3683 18.7255 10.2412 18.749 10.121 18.845C9.99337 18.947 9.93847 19.0774 9.91438 19.1734C9.8923 19.2613 9.88912 19.3474 9.88912 19.4108V22.8813C9.88912 22.8836 9.88912 22.8861 9.88911 22.8889C9.88905 22.9209 9.88893 22.9817 9.89576 23.0391C9.90355 23.1045 9.92703 23.2376 10.0298 23.3611C10.1382 23.4913 10.2746 23.5405 10.3647 23.5606C10.4483 23.5793 10.5307 23.5814 10.5893 23.5814H15.691C15.9661 23.6006 16.2402 23.5819 16.508 23.528C17.2855 23.469 18.0504 23.2989 18.7805 23.0214C19.0195 22.938 19.2511 22.834 19.472 22.7116H19.5309L19.6394 22.6552C20.9316 21.9831 21.9816 20.9271 22.644 19.6303L22.6485 19.6215L22.6526 19.6126L22.1987 19.4029C22.6526 19.6126 22.6526 19.6124 22.6527 19.6123L22.6528 19.6121L22.653 19.6116L22.6535 19.6106L22.6546 19.6083L22.657 19.6028L22.663 19.5888C22.6675 19.5781 22.673 19.5642 22.6789 19.5479C22.6899 19.5173 22.7056 19.4686 22.716 19.4104C22.7253 19.3585 22.7377 19.2606 22.7121 19.1478ZM26.2682 14.7409C26.2681 14.7408 26.2682 14.7384 26.2686 14.734C26.2685 14.7388 26.2683 14.741 26.2682 14.7409ZM26.5774 18.6828C26.5776 18.683 26.5748 18.6833 26.5684 18.6833C26.5741 18.6827 26.5772 18.6827 26.5774 18.6828ZM6.37992 19.0493C6.37989 19.0494 6.37982 19.0484 6.37977 19.0465L6.37992 19.0493ZM6.37992 14.7898C6.37989 14.7898 6.37982 14.7889 6.37977 14.7869L6.37992 14.7898ZM16.5891 17.6306H22.6688C22.6707 17.6306 22.6727 17.6306 22.6749 17.6306C22.7015 17.6306 22.7554 17.6307 22.8082 17.6249C22.8683 17.6183 22.9768 17.5999 23.0865 17.5285C23.3324 17.3687 23.3613 17.1044 23.3679 16.9949C23.4188 16.3568 23.4191 15.7151 23.3686 15.0763C23.3644 14.9401 23.3236 14.7453 23.1529 14.5953C22.9865 14.449 22.7905 14.4309 22.6789 14.4309H10.5792C10.4799 14.4309 10.2469 14.4402 10.0675 14.6269C9.89276 14.8087 9.88912 15.0365 9.88912 15.121V16.9009C9.88912 16.9045 9.88912 16.9083 9.88911 16.9123C9.88905 16.958 9.88895 17.0288 9.8962 17.0913C9.90389 17.1576 9.92956 17.3253 10.0732 17.4629C10.2125 17.5963 10.3764 17.6177 10.4373 17.6242C10.4987 17.6307 10.5688 17.6306 10.6172 17.6306C10.6212 17.6306 10.6251 17.6306 10.6289 17.6306H16.5891Z" fill="#FEFEFD" stroke="white"/>
<path d="M16 29C23.2042 29 29 23.2042 29 16C29 8.79579 23.2042 3 16 3C8.79579 3 3 8.79579 3 16C3 23.2042 8.79579 29 16 29Z" fill="#2775CA"/>
<path d="M19.575 18.0584C19.575 16.1626 18.4375 15.5126 16.1625 15.2418C14.5375 15.0251 14.2125 14.5918 14.2125 13.8334C14.2125 13.075 14.7542 12.5876 15.8375 12.5876C16.8125 12.5876 17.3542 12.9126 17.625 13.7251C17.6792 13.8876 17.8417 13.9959 18.0042 13.9959H18.8708C19.0875 13.9959 19.25 13.8334 19.25 13.6168V13.5626C19.0333 12.3709 18.0583 11.4501 16.8125 11.3418V10.0418C16.8125 9.82511 16.65 9.66261 16.3792 9.6084H15.5667C15.35 9.6084 15.1875 9.7709 15.1333 10.0418V11.2876C13.5083 11.5043 12.4792 12.5876 12.4792 13.9418C12.4792 15.7293 13.5625 16.4334 15.8375 16.7043C17.3542 16.9751 17.8417 17.3001 17.8417 18.1668C17.8417 19.0335 17.0833 19.6293 16.0542 19.6293C14.6458 19.6293 14.1583 19.0334 13.9958 18.2209C13.9417 18.0043 13.7792 17.8959 13.6167 17.8959H12.6958C12.4792 17.8959 12.3167 18.0584 12.3167 18.2751V18.3293C12.5333 19.6834 13.4 20.6584 15.1875 20.9293V22.2293C15.1875 22.4459 15.35 22.6084 15.6208 22.6626H16.4333C16.65 22.6626 16.8125 22.5001 16.8667 22.2293V20.9293C18.4917 20.6584 19.575 19.5209 19.575 18.0584Z" fill="white"/>
<path d="M13.2375 23.7458C9.01248 22.2292 6.84577 17.5167 8.41669 13.3458C9.2292 11.0708 11.0167 9.33754 13.2375 8.52504C13.4542 8.41675 13.5625 8.25425 13.5625 7.98333V7.22504C13.5625 7.00833 13.4542 6.84583 13.2375 6.79175C13.1833 6.79175 13.075 6.79175 13.0208 6.84583C7.87498 8.47083 5.05826 13.9417 6.68326 19.0875C7.65827 22.1208 9.98749 24.45 13.0208 25.425C13.2375 25.5333 13.4542 25.425 13.5083 25.2083C13.5625 25.1542 13.5625 25.1 13.5625 24.9917V24.2333C13.5625 24.0708 13.4 23.8542 13.2375 23.7458ZM18.9792 6.84583C18.7625 6.73754 18.5458 6.84583 18.4917 7.06254C18.4375 7.11675 18.4375 7.17083 18.4375 7.27925V8.03754C18.4375 8.25425 18.6 8.47083 18.7625 8.57925C22.9875 10.0958 25.1543 14.8083 23.5833 18.9792C22.7708 21.2542 20.9833 22.9875 18.7625 23.8C18.5458 23.9083 18.4375 24.0708 18.4375 24.3417V25.1C18.4375 25.3167 18.5458 25.4792 18.7625 25.5333C18.8167 25.5333 18.925 25.5333 18.9792 25.4792C24.125 23.8542 26.9418 18.3833 25.3168 13.2375C24.3418 10.15 21.9583 7.82083 18.9792 6.84583Z" fill="white"/>
</svg>
