<svg width="352" height="770" viewBox="0 0 352 770" fill="none" xmlns="http://www.w3.org/2000/svg">
<g opacity="0.6" clip-path="url(#clip0_1464_4195)">
<g opacity="0.3">
<path d="M874.974 960.364C871.077 962.605 866.953 964.785 862.891 966.738C803.044 995.595 726.857 996.406 653.702 968.782C593.449 946.217 535.89 905.973 477.547 846.017C461.905 829.86 446.341 812.505 431.11 795.727C377.725 736.376 322.496 674.821 247.57 648.791C227.164 641.711 205.423 637.319 184.592 633.171C152.436 626.705 119.226 620.077 90.426 603.423C57.1574 584.347 31.5919 551.623 18.3547 511.615C5.63761 472.844 5.51023 431.248 17.8924 394.361C41.1647 325.671 104.209 268.668 186.492 242.075C196.004 238.908 205.992 236.235 215.464 233.667C247.242 224.796 280.197 215.633 304.129 193.801C325.507 174.207 337.463 146.591 348.803 119.906C354.175 107.214 359.814 93.985 366.406 81.7439C387.539 42.7044 421.351 10.0049 464.178 -12.71C505.706 -34.6779 552.576 -45.7003 599.771 -44.8126C689.307 -43.1253 781.219 -0.942909 852.052 71.0306C872.998 92.3945 892.071 116.179 910.564 138.954C928.746 161.524 947.57 184.876 968.206 206.035C1002.95 241.352 1057.79 283.545 1122.16 283.575C1129.85 283.572 1137.71 282.888 1145.44 282.286C1162.37 280.996 1179.96 279.517 1196.68 284.875C1222.67 292.97 1244.49 317.861 1251.94 348.143C1257.9 372.175 1256.23 399.635 1246.81 432.322C1234.71 474.038 1213.19 514.07 1184.75 548.095C1156.16 582.203 1120.38 610.47 1081.3 629.685C1072.6 633.923 1063.73 637.872 1055.15 641.655C1039.51 648.536 1023.45 655.666 1008.77 664.877C982.796 681.161 966.009 702.723 961.513 725.28C958.34 741.123 961.035 757.815 963.625 773.992C964.887 781.523 966.088 789.281 966.69 797C972.13 860.503 934.866 925.912 874.974 960.364ZM129.186 271.006C76.9431 301.058 38.2705 345.002 21.1587 395.363C-4.97941 472.422 26.1938 562.601 92.1101 600.342C120.517 616.646 153.582 623.357 185.284 629.701C206.342 633.91 228.082 638.302 248.716 645.444C324.408 671.801 379.947 733.561 433.581 793.346C448.585 810.063 464.148 827.417 479.791 843.575C537.74 903.181 594.906 943.075 654.704 965.517C727.011 992.669 802.31 991.985 861.208 963.482C865.271 961.529 869.25 959.432 873.147 957.19C932.028 923.32 968.554 859.296 963.034 796.99C962.371 789.499 961.17 781.74 959.908 774.209C957.296 757.661 954.518 740.825 957.876 724.3C962.533 700.69 979.731 678.508 1006.57 661.725C1021.39 652.431 1037.6 645.218 1053.24 638.338C1061.82 634.554 1070.69 630.605 1079.39 626.367C1157.75 587.627 1219.03 514.548 1243.37 431.032C1252.61 399.027 1254.3 371.938 1248.53 348.566C1241.15 319.399 1220.43 295.413 1195.43 287.707C1179.33 282.76 1162.03 284.073 1145.47 285.341C1137.74 285.943 1129.79 286.483 1121.97 286.569C1056.48 286.604 1000.79 243.939 965.713 208.045C944.933 186.969 926.17 163.39 907.905 140.676C889.557 117.818 870.566 94.1772 849.704 72.9576C779.513 1.76661 688.511 -40.1709 599.801 -41.7574C503.242 -43.6296 410.704 6.52809 369.467 83.0557C362.936 95.0696 357.441 108.216 351.986 120.763C340.441 147.759 328.507 175.746 306.49 195.9C281.92 218.291 248.676 227.62 216.526 236.512C206.909 239.164 197.149 241.898 187.638 245.065C166.861 252.023 147.226 260.63 129.186 271.006Z" fill="url(#paint0_linear_1464_4195)"/>
<path d="M857.578 944.831C853.393 947.239 848.98 949.585 844.629 951.704C785.915 979.525 711.586 980.227 640.726 953.587C581.921 931.534 525.831 892.173 469.351 833.45C454.412 817.848 439.574 801.42 425.213 785.486C373.258 727.616 319.625 667.831 247.257 640.907C227.965 633.761 207.69 628.91 188.096 624.243C157.838 617.069 126.299 609.672 99.0074 593.302C34.6173 554.875 4.6245 465.746 30.4168 390.422C53.365 323.838 114.7 268.202 194.691 241.967C203.914 238.966 213.592 236.088 222.98 233.376C253.788 224.487 285.773 215.306 308.673 193.684C329.39 174.278 341.307 147.261 352.751 121.091C358.473 108.006 364.546 94.528 371.571 82.0378C392.913 44.0299 426.48 12.2394 468.546 -9.4617C509.374 -30.643 555.378 -41.1673 601.624 -39.9257C689.407 -37.6138 779.582 4.22299 848.925 74.9419C869.167 95.7505 887.598 118.753 905.53 140.89C924.355 164.242 943.905 188.521 965.389 210.151C999.302 244.027 1053.17 284.86 1117.48 286.459C1124.05 286.522 1130.54 286.44 1137.02 286.358C1155.88 286.073 1173.68 285.627 1190.61 292.016C1215.18 301.313 1234.15 325.923 1240.32 355.982C1245.05 379.563 1242.78 405.643 1232.82 438.063C1209.12 516.023 1155.03 583.239 1083.45 624.414C1079.41 626.739 1075.14 629.002 1071.02 631.182C1060.23 636.81 1048.89 641.799 1037.92 646.766C1023.75 653.188 1009.06 659.715 995.786 667.353C976.303 678.56 951.803 697.069 945.418 723.017C941.663 737.85 943.921 753.45 946.074 768.534C947.065 775.261 948.078 782.359 948.492 789.418C950.781 822.089 941.526 855.065 922.162 884.83C905.611 909.136 883.266 930.055 857.578 944.831ZM139.777 269.715C88.5444 299.185 50.4885 342.199 33.4557 391.362C8.03099 465.323 37.3987 552.699 100.547 590.304C127.445 606.324 157.249 613.375 188.644 620.855C208.381 625.44 228.74 630.435 248.259 637.642C321.309 664.75 375.336 724.885 427.456 783.043C441.818 798.977 456.512 815.488 471.595 831.007C527.681 889.381 583.378 928.392 641.812 950.467C711.906 976.779 785.264 976.059 843.256 948.653C907.271 918.359 949.079 852.833 944.692 789.491C944.217 782.66 943.287 775.706 942.296 768.979C940.121 753.524 937.841 737.552 941.636 722.12C948.327 695.036 973.61 675.884 993.525 664.428C1007.09 656.625 1021.78 650.098 1035.95 643.675C1046.92 638.708 1058.26 633.719 1068.9 628.175C1146 588.241 1204.28 518.618 1229.1 436.939C1238.94 404.973 1241.23 379.265 1236.54 356.427C1230.58 327.4 1212.34 303.716 1188.91 294.725C1172.66 288.52 1155.14 288.8 1136.6 289.291C1130.11 289.372 1123.48 289.537 1116.92 289.475C1051.48 287.941 996.914 246.552 962.607 212.327C940.896 190.636 921.346 166.357 902.583 142.777C884.794 120.557 866.446 97.6993 846.288 77.0349C777.422 6.81004 688.239 -34.6376 601.199 -36.993C505.65 -39.4463 416.594 7.74874 374.115 83.4544L372.729 82.7155L374.115 83.4544C367.235 95.8616 361.307 109.257 355.502 122.197C343.852 148.677 331.874 175.922 310.662 195.805C287.123 217.986 254.85 227.333 223.671 236.243C214.426 238.872 204.749 241.751 195.526 244.751C175.699 251.356 156.951 259.836 139.777 269.715Z" fill="url(#paint1_linear_1464_4195)"/>
<path d="M841.048 928.8C836.285 931.54 831.295 934.218 826.284 936.525C768.558 963.393 696.232 963.904 627.585 938.103C570.144 916.417 515.75 878.001 460.905 820.45C446.753 805.547 432.641 790.046 419.067 774.811C368.542 718.423 316.194 660.204 246.467 632.528C228.291 625.317 209.48 620.007 191.29 615.108C161.255 606.654 132.895 598.772 106.968 582.77C76.4672 563.83 53.3239 532.977 41.5203 495.793C29.9878 459.413 30.2403 420.479 42.3203 386.07C64.739 321.904 124.591 267.697 202.187 241.304C211.038 238.325 220.055 235.634 228.928 233.027C259.136 224.099 290.294 214.817 312.368 193.095C332.198 173.815 344.158 147.541 355.79 122.031C362.007 108.47 368.345 94.4542 375.804 81.715C419.318 7.14151 508.296 -38.856 602.463 -35.7998C688.864 -32.885 777.159 8.68915 844.866 78.2363C864.632 98.5509 882.586 121.059 900.042 142.702C919.282 166.776 939.392 191.693 961.641 213.651C1008.42 259.522 1061.68 286.299 1111.87 288.726C1116.21 288.919 1120.69 289.029 1125.03 289.222C1145.96 289.86 1165.76 290.564 1183.55 298.767C1206.24 309.143 1223.06 334.029 1227.55 363.514C1230.99 386.501 1227.97 411.282 1217.64 443.724C1204.79 484.142 1184.07 522.561 1157.75 554.597C1129.77 588.745 1096.7 615.063 1059.48 632.827C1051.21 636.816 1042.57 640.827 1034.07 644.754C1016.5 652.942 998.411 661.234 981.399 670.059C951.499 685.53 933.48 702.616 927.835 720.841C923.644 734.582 925.276 748.428 927.036 763.162C927.839 769.229 928.581 775.523 928.807 781.922C931.874 839.301 896.899 896.673 841.048 928.8ZM150.513 268.34C100.001 297.395 62.3349 339.417 45.6696 387.216C20.8753 457.934 48.748 542.714 108.901 580.122C134.291 595.857 162.507 603.822 192.231 612.071C210.504 617.114 229.314 622.423 247.718 629.696C318.127 657.555 370.724 716.208 421.415 772.884C434.99 788.119 449.102 803.62 463.254 818.523C517.622 875.58 571.706 913.791 628.753 935.127C696.491 960.683 767.99 960.072 824.994 933.618C888.309 904.111 928.891 843.13 926.184 781.703C925.896 775.531 925.154 769.237 924.434 763.315C922.696 748.952 920.854 734.074 925.313 719.796C931.202 700.662 949.777 682.872 980.481 667.131C997.493 658.305 1015.72 649.93 1033.15 641.826C1041.5 637.981 1050.15 633.971 1058.42 629.982C1130.99 595.533 1188.01 527.4 1214.83 442.845C1225.03 410.858 1228.02 386.675 1224.6 364.06C1220.32 335.606 1204.08 311.73 1182.38 301.743C1165.36 293.868 1145.78 293.226 1125.23 292.566C1120.89 292.373 1116.41 292.263 1112.07 292.07C1061.28 289.603 1007.1 262.582 959.852 216.216C937.376 194.197 917.41 169.197 897.943 145.062C880.487 123.419 862.615 101.055 842.933 80.8846C775.847 11.7484 688.316 -29.4979 602.742 -32.312C509.751 -35.6607 421.867 9.8999 378.886 83.3983C371.572 96.0545 365.15 109.926 359.078 123.404C347.385 149.141 335.219 175.726 315.039 195.399C292.244 217.536 260.653 227.067 230.3 236.078C221.427 238.685 212.41 241.376 203.786 244.416C184.764 250.75 166.965 258.876 150.513 268.34Z" fill="url(#paint2_linear_1464_4195)"/>
<path d="M823.94 913.102C818.744 916.091 813.383 918.791 807.938 921.346C751.345 947.179 680.817 947.808 614.526 922.764C558.987 901.712 506.062 864.179 452.77 807.655C439.881 793.946 426.95 779.494 414.35 765.619C364.861 710.363 313.611 653.048 246.07 624.499C229.236 617.284 212.057 611.804 195.476 606.363C166.885 597.079 140.112 588.284 115.61 572.422C86.6793 553.539 64.6333 523.591 53.516 487.932C42.5036 452.79 43.1319 415.175 54.9886 382.048C77.022 320.215 135.247 267.52 210.674 241.031C219.009 238.156 227.798 235.404 236.155 232.902C265.393 223.956 295.725 214.574 317.138 193.039C335.936 173.969 348.084 148.355 359.616 123.671C366.182 109.717 373.015 95.2245 381.05 82.1532L382.292 82.9752L381.05 82.1532C425.129 9.55982 512.851 -34.9475 604.521 -31.2231C689.312 -27.7666 775.872 13.462 841.883 82.0647C861.027 101.968 878.567 123.756 895.546 144.904C915.346 169.616 935.871 195.254 959.112 217.602C1004.58 261.537 1057.37 287.82 1107.48 291.444L1108.91 291.584C1135.35 293.465 1158.05 295.191 1177.48 305.908C1198.52 317.424 1212.87 342.008 1215.78 371.436C1218.56 399.606 1210.67 427.953 1203.51 449.548C1177.68 526.813 1128.7 589.553 1067.51 624.752C1061.45 628.239 1055.36 631.354 1049.2 634.325C1036.49 640.288 1023.21 646.584 1010.51 652.547C996.648 659.175 982.129 665.99 968.476 672.308C936.386 687.311 917.72 702.272 911.656 718.434C906.8 731.021 908.079 743.919 909.318 757.416C909.789 762.906 910.488 768.457 910.443 774.051C911.539 828.34 877.337 882.386 823.94 913.102ZM161.165 266.821C111.519 295.378 74.3251 336.552 57.8001 382.927C33.3297 451.538 58.8552 531.907 117.172 569.796C141.219 585.535 168.053 594.102 196.273 603.409C212.853 608.849 230.033 614.329 247.094 621.605C315.255 650.566 366.733 707.942 416.388 763.486C428.843 777.444 441.775 791.897 454.663 805.606C507.707 861.697 560.177 899.107 615.406 919.954C680.931 944.67 750.572 944.168 806.443 918.75C867.904 890.693 908.35 832.479 907.159 774.02C907.059 768.509 906.588 763.019 905.973 757.612C904.672 744.342 903.267 730.557 908.451 717.205C914.926 700.423 934.003 684.841 966.815 669.423C980.468 663.105 994.904 656.146 1008.85 649.662C1021.69 643.616 1034.83 637.403 1047.54 631.44C1116.58 599.21 1172.27 532.424 1200.39 448.463C1207.57 427.24 1215.25 399.204 1212.44 371.633C1209.59 343.318 1195.82 319.744 1175.69 308.473C1156.8 298.023 1134.33 296.358 1108.34 294.6L1106.91 294.46C1056.2 290.796 1002.73 264.329 956.702 219.756C933.461 197.409 912.853 171.626 892.97 146.77C875.991 125.621 858.451 103.834 839.617 84.136C774.022 16.2545 688.372 -24.7292 604.324 -28.2292C513.707 -31.7917 427.057 11.9073 383.656 83.3426C375.765 96.3308 369.076 110.74 362.427 124.55C350.69 149.544 338.481 175.386 319.25 194.705C297.281 216.943 266.578 226.347 237.051 235.459C228.694 237.961 219.905 240.713 211.57 243.588C193.745 250 176.895 257.773 161.165 266.821Z" fill="url(#paint3_linear_1464_4195)"/>
<path d="M807.204 897.382C801.576 900.619 795.637 903.651 789.676 906.312C734.072 931.192 665.546 931.629 601.468 907.424C547.459 887.029 496.065 850.152 444.49 794.944C432.555 782.222 420.659 768.902 409.157 755.932C360.705 701.809 310.8 645.832 245.591 616.325C230.266 609.395 215.233 603.64 200.511 598.091C173.28 587.832 147.495 578.084 124.109 562.157C67.5457 523.644 43.2006 444.324 67.347 377.819C88.9951 318.32 145.654 266.91 218.707 240.634C226.67 237.782 234.944 235.135 243.073 232.571C271.485 223.525 300.99 214.042 321.515 192.634C339.509 173.834 351.556 149.046 363.131 125.105C370.109 110.53 377.436 95.562 385.965 82.0145C430.402 11.7114 516.746 -30.8513 606.064 -26.5417C689.246 -22.5436 773.925 18.4224 838.528 85.9147C857.196 105.324 874.259 126.618 890.762 147.273C911.204 172.767 932.289 199.043 956.068 221.658C1000.46 263.717 1052.4 289.528 1102.58 294.267C1130.63 296.947 1153.03 301.152 1171.18 312.987C1190.34 325.583 1202.46 350.297 1203.85 379.07C1205.05 405.841 1197.14 432.474 1189.21 455.083C1162.51 531.504 1114.64 592.838 1056.57 626.437C1050.65 629.841 1044.71 632.873 1038.69 635.761C1028.38 640.54 1017.86 645.63 1007.63 650.554C990.369 658.947 972.448 667.527 955.266 674.722C931.752 684.6 903.685 698.249 895.25 715.966C889.73 727.399 890.571 739.204 891.373 751.608C891.657 756.438 892.023 761.412 891.935 766.264C891.649 794.463 881.678 822.858 863.084 847.955C848.502 867.673 829.429 884.597 807.204 897.382ZM172.044 265.364C123.265 293.423 86.5434 333.749 70.1585 378.698C46.4628 443.984 70.2659 521.695 125.898 559.592C148.974 575.313 174.531 585 201.618 595.342C216.34 600.891 231.6 606.707 246.925 613.638C312.672 643.411 362.887 699.593 411.506 754.005C422.925 766.831 434.821 780.151 446.756 792.872C498.164 847.792 549.165 884.319 602.719 904.592C666.032 928.469 733.814 928.076 788.614 903.466C848.942 876.445 888.368 822.466 888.939 766.066C889.028 761.215 888.6 756.468 888.317 751.638C887.453 739.461 886.629 726.686 892.334 714.571C901.241 696.006 928.42 682.484 953.976 671.816C971.158 664.62 988.997 655.896 1006.34 647.647C1016.57 642.723 1027.23 637.55 1037.4 632.854C1102.98 602.617 1157.27 537.403 1186.46 453.976C1194.32 431.595 1202.17 405.189 1200.94 379.017C1199.68 351.131 1187.97 327.138 1169.6 315.242C1151.99 303.673 1130.04 299.591 1102.36 296.889C1051.58 292.111 999.1 266.033 954.235 223.48C930.229 200.804 909.061 174.383 888.619 148.889C872.199 128.379 855.136 107.085 836.696 87.737C772.652 20.8829 688.738 -19.7551 606.155 -23.7137C517.664 -27.9227 432.413 14.2031 388.51 83.4311C380.042 96.7514 372.859 111.637 365.881 126.212C354.101 150.463 341.992 175.478 323.71 194.443C302.629 216.555 272.753 226.06 243.969 235.128C235.984 237.609 227.71 240.256 219.747 243.109C202.81 249.395 186.909 256.813 172.044 265.364Z" fill="url(#paint4_linear_1464_4195)"/>
<path d="M790.385 881.517C784.324 885.003 777.952 888.285 771.331 891.133C716.859 914.978 650.192 915.305 588.409 892.085C535.848 872.201 486.15 836.268 436.127 782.087C425.373 770.416 414.596 758.372 404.213 746.678C356.941 693.604 307.846 638.698 244.884 608.091C231.832 601.772 219.279 596.32 207.098 590.845C180.378 579.139 155.189 568.09 132.441 551.603C106.422 532.773 86.7151 504.552 77.1146 471.861C67.2867 439.11 68.2949 404.157 79.622 373.446C101.357 315.434 154.824 266.82 226.656 240.094C234.248 237.263 242.15 234.638 249.764 232.179C277.349 223.032 305.966 213.675 325.809 192.084C342.854 173.638 354.8 149.676 366.275 126.561C373.891 111.427 381.774 95.755 390.88 81.8753C435.82 13.7795 520.847 -27.0656 607.668 -22.0878C689.241 -17.5481 772.184 23.0723 835.152 89.3929C853.199 108.392 869.785 129.191 885.956 149.269C906.73 175.34 928.458 202.399 953.002 225.341C996.083 265.464 1047.55 290.781 1097.5 296.8C1127.63 300.403 1148.94 307.729 1164.66 320.005C1182.09 333.597 1191.95 358.07 1191.63 386.869C1191.23 411.869 1183.31 437.161 1174.71 460.928C1158.06 506.415 1120.09 585.286 1046.06 627.873C1040.29 631.193 1034.2 634.309 1027.95 637.135C1017.79 641.832 1007.27 646.921 997.266 651.906C978.995 660.88 960.147 670.186 941.828 677.075C914.68 687.315 887.37 698.608 878.555 713.663C872.515 723.859 872.919 734.572 873.284 745.883C873.38 750.053 873.558 754.367 873.282 758.558C870.828 807.016 839.02 853.541 790.385 881.517ZM181.603 264.281C133.834 291.759 98.6564 330.429 82.228 374.636C59.2238 436.451 81.532 511.566 134.107 549.492C156.689 565.69 181.734 576.823 208.226 588.468C220.552 593.859 233.105 599.312 246.157 605.63C309.573 636.36 358.835 691.555 406.273 744.917C416.656 756.611 427.433 768.654 438.187 780.326C487.961 834.074 537.348 869.802 589.455 889.563C650.555 912.6 716.335 912.399 770.146 888.742C828.392 863.11 867.622 812.125 870.081 758.671C870.213 754.563 870.118 750.393 870.022 746.224C869.657 734.912 869.209 723.456 875.805 712.557C885.175 696.798 912.918 685.256 940.499 674.767C958.818 667.878 977.522 658.655 995.793 649.681C1005.94 644.613 1016.46 639.524 1026.62 634.827C1111.62 595.923 1154.16 508.656 1171.98 460.193C1180.61 436.798 1188.46 411.733 1188.88 387.104C1189.25 359.049 1179.82 335.668 1163.01 322.487C1147.69 310.561 1126.83 303.358 1097.31 299.794C1046.6 293.818 994.749 268.152 951.13 227.762C926.358 204.759 904.631 177.7 883.773 151.484C867.747 131.323 851.099 110.751 833.28 91.8139C770.788 25.9873 688.466 -14.2221 607.636 -18.8054C521.621 -24.0541 437.686 16.3543 393.219 83.6023L391.978 82.7803L393.219 83.6023C384.174 97.2546 376.291 112.927 368.819 127.978C357.14 151.403 345.049 175.448 327.799 194.204C307.461 216.272 278.555 225.794 250.598 234.963C242.985 237.422 235.083 240.047 227.635 242.795C211.359 248.894 195.891 256.063 181.603 264.281Z" fill="url(#paint5_linear_1464_4195)"/>
<path d="M774.082 865.547C767.444 869.366 760.412 872.835 753.213 876.016C699.73 898.908 635.149 899.188 575.64 876.579C524.753 857.268 476.441 822.075 428.137 769.21C418.729 758.876 409.154 748.253 400.118 737.897C353.633 685.522 305.491 631.604 244.693 599.751C235.923 595.195 227.462 590.845 219.312 586.7C190.105 572.008 164.89 559.245 141.228 541.172C89.9912 501.9 69.4884 429.586 92.3524 369.196C113.475 313.456 165.603 266.188 235.122 239.449C242.342 236.64 249.729 234.119 256.97 231.682C283.729 222.434 311.52 212.977 330.559 191.656C346.51 173.648 358.439 150.656 369.812 128.367C377.984 112.529 386.422 96.1538 396.167 81.7148L397.326 82.3926L396.167 81.7148C441.382 15.7651 525.176 -23.2183 609.56 -17.7995C689.524 -12.7181 770.67 27.7839 832.147 92.8498C849.718 111.355 865.827 131.66 881.522 151.244C902.856 177.953 924.915 205.589 950.369 228.776C992.143 266.963 1042.84 291.951 1092.92 298.858C1121.36 302.859 1142.84 311.814 1158.54 326.402C1179.92 346.175 1181.06 377.199 1179.81 394.048C1178.03 418.309 1169.33 442.902 1160.39 466.091C1128.45 549.754 1077.58 610.89 1017.28 638.283C1007.11 642.979 996.594 648.069 986.448 653.137C967.538 662.67 947.824 672.474 928.368 679.057L924.861 680.306C897.215 689.681 871.033 698.596 861.756 710.845C854.968 719.743 854.935 729.363 854.863 739.582C854.771 743.091 854.761 746.745 854.525 750.338C850.226 796.592 820.12 839.065 774.082 865.547ZM192.628 262.741C145.58 289.804 110.875 327.626 94.5866 370.407C72.029 429.661 92.3003 500.572 142.523 539.083C165.957 557.095 191.089 569.714 220.152 584.488C228.302 588.633 236.907 592.901 245.678 597.457C306.93 629.432 355.238 683.639 401.951 736.075C411.131 746.348 420.561 757.053 429.886 767.243C477.88 819.903 525.799 854.747 576.375 873.852C635.119 896.133 699.184 895.957 751.863 873.336C808.687 848.906 846.731 801.867 851.468 750.368C851.788 746.919 851.797 743.265 851.89 739.756C851.962 729.537 852.095 719.091 859.439 709.49C869.127 696.62 895.741 687.456 923.904 677.977L927.411 676.727C946.64 670.083 966.21 660.362 985.202 650.973C995.348 645.905 1005.93 640.588 1016.18 636.036C1075.91 608.975 1126.13 548.398 1157.75 465.501C1166.48 442.622 1175.26 418.173 1176.92 394.366C1178.13 378.116 1176.97 348.063 1156.61 329.051C1141.3 314.812 1120.35 306.124 1092.52 302.163C1041.9 294.989 990.748 269.878 948.353 231.28C922.816 207.949 900.673 180.168 879.256 153.315C863.562 133.731 847.452 113.426 830.109 94.9823C769.026 30.2661 688.583 -9.68067 609.363 -14.8056C525.949 -20.2068 443.104 18.4229 398.362 83.5248C388.678 97.7365 380.24 114.112 372.213 129.867C360.695 152.238 348.849 175.375 332.465 193.632C312.932 215.43 284.935 225.197 257.661 234.549C250.419 236.987 243.033 239.507 235.957 242.233C220.485 248.061 206.049 255.02 192.628 262.741Z" fill="url(#paint6_linear_1464_4195)"/>
<path d="M756.831 849.932C749.903 853.917 742.438 857.635 734.868 860.837C682.518 882.693 619.795 882.865 562.498 861.096C513.059 842.296 466.444 808.047 419.691 756.21C411.796 747.502 403.962 738.567 396.294 729.92C350.368 678.183 302.991 624.593 243.987 591.517C207.43 571.068 177.244 553.675 149.416 530.702C126.454 511.842 109.23 485.264 100.858 455.708C92.1928 424.976 93.4802 393.511 104.483 364.907C125.221 311.501 175.639 265.601 242.928 238.992C249.632 236.288 256.646 233.789 263.372 231.456C290.625 221.732 316.269 212.55 334.564 191.273C349.649 173.762 361.189 151.762 372.401 130.527C381.128 113.986 390.183 96.6793 400.794 81.7422C446.283 17.9386 528.761 -19.3275 610.876 -13.1792C689.169 -7.32894 768.496 32.6832 828.565 96.6387C845.515 114.732 861.376 134.605 876.593 153.695C898.342 181.125 920.962 209.4 947.097 232.771C987.565 269.021 1037.56 293.454 1087.79 301.62C1115.13 306.057 1136.72 316.87 1151.95 333.648C1169.82 353.329 1170.36 381.629 1167.59 401.848C1164.62 423.718 1156.43 445.522 1145.81 471.792C1124.21 525.697 1085.9 594.969 1022.83 631.247C1017.49 634.319 1012.13 637.019 1006.54 639.657C996.149 644.293 985.653 649.754 975.507 654.822C955.732 664.853 935.379 675.217 914.93 681.41C909.503 682.996 904.304 684.643 899.166 686.062C874.817 693.155 853.769 699.31 845.123 708.316C837.814 715.977 837.262 724.359 836.608 733.568C836.328 736.418 836.131 739.412 835.789 742.489C829.457 785.88 799.982 825.11 756.831 849.932ZM203.569 261.056C157.243 287.704 122.783 324.617 106.718 366.118C84.7508 422.728 102.924 489.66 150.877 528.901C178.622 551.731 207.422 568.384 245.054 589.367C304.368 622.648 351.973 676.3 398.065 728.325C405.733 736.972 413.567 745.907 421.463 754.615C467.821 806.102 514.271 840.063 563.255 858.74C619.787 880.181 681.994 880.115 733.684 858.446C787.849 835.738 825.901 791.382 832.898 742.807C833.323 739.875 833.521 736.881 833.657 734.114C834.31 724.905 834.88 715.552 842.972 707.249C852.112 697.766 873.448 691.446 898.313 684.248C903.452 682.829 908.651 681.182 914.078 679.596C934.155 673.425 954.591 663.205 974.283 653.03C984.573 647.879 995.069 642.418 1005.46 637.782C1077.55 605.151 1120.31 529.28 1143.39 471.263C1154.19 444.311 1162 423.499 1164.91 401.856C1167.55 382.092 1167.14 354.679 1149.92 335.78C1135.16 319.497 1114.1 308.95 1087.22 304.636C1036.53 296.347 986.003 271.647 945.142 235.047C918.696 211.471 896.221 183.114 874.245 155.622C859.027 136.532 843.25 116.804 826.3 98.71C766.707 35.2484 688.062 -4.57994 610.451 -10.2465C529.246 -16.1499 447.634 20.6181 402.7 83.7181C392.15 98.4279 383.156 115.507 374.429 132.048C363.156 153.511 351.617 175.511 336.326 193.332C317.536 215.085 290.367 224.953 264.062 234.324C257.337 236.656 250.405 239.299 243.618 241.859C229.55 247.455 216.124 253.834 203.569 261.056Z" fill="url(#paint7_linear_1464_4195)"/>
<path d="M744.59 832.009C735.787 837.073 726.507 841.643 716.523 845.658C665.244 866.706 604.297 866.624 549.44 845.756C501.531 827.613 456.302 794.102 411.412 743.498C405.506 736.91 399.516 730.178 393.754 723.507C347.973 671.688 300.823 618.159 243.446 583.571C211.271 564.058 186.411 545.906 157.853 520.664C112.375 480.383 95.5488 414.788 116.864 361.05C137.216 309.977 186.068 265.362 250.983 238.967C257.398 236.429 263.813 233.891 270.168 231.58C296.594 221.755 321.556 212.389 338.963 191.238C352.894 174.392 364.127 153.528 374.95 133.285C384.438 115.73 394.192 97.637 405.67 82.2019C428.274 51.7249 459.653 27.1457 496.305 11.0556C532.812 -4.9516 573.147 -11.6396 612.502 -8.35383C689.186 -1.96186 766.777 37.7046 825.294 100.633C841.85 118.377 857.234 137.755 872.058 156.495C894.284 184.42 917.318 213.415 944.219 237.114C983.379 271.428 1032.61 295.533 1083.05 304.731C1109.75 309.727 1131.37 322.254 1145.68 341.099C1161.36 361.653 1159.73 389.857 1155.62 410.079C1151.65 430.219 1143.33 449.794 1133.85 472.716L1131.56 478.07C1096.64 561.907 1051.08 616.917 995.996 641.692C985.601 646.327 974.961 651.872 964.754 657.167C944.34 667.758 922.977 678.702 901.681 684.424C870.479 692.962 842.334 701.471 828.183 706.923C820.591 709.753 819.93 716.279 819.334 723.919C818.891 727.822 818.532 731.869 817.18 735.527C815.822 770.873 788.319 806.856 744.59 832.009ZM214.737 259.432C168.989 285.748 135.001 321.813 119.015 362.117C98.0894 414.863 114.623 479.282 159.314 518.863C187.789 543.961 212.504 562.196 244.597 581.565C302.284 616.358 349.744 670.093 395.609 722.056C401.515 728.644 407.36 735.459 413.266 742.047C457.99 792.363 502.826 825.524 550.28 843.545C604.599 864.146 664.947 864.189 715.505 843.556C774.293 819.532 813.053 777.074 814.268 735.474L814.329 735.247L814.39 735.019C815.764 731.733 816.123 727.686 816.504 724.01C817.245 716.287 818.047 708.337 827.02 704.903C841.399 699.512 868.945 690.964 900.745 682.465C921.814 676.683 943.033 665.821 963.303 655.313C973.51 650.018 984.233 644.618 994.689 639.755C1049.12 615.168 1094.18 560.634 1128.91 477.479L1131.21 472.126C1140.62 449.43 1148.94 429.856 1152.85 409.943C1156.78 390.403 1158.36 362.797 1143.33 343.026C1129.42 324.53 1108.19 312.354 1082.17 307.541C1031.27 298.221 981.507 273.849 942.037 239.33C914.909 215.57 891.874 186.574 869.565 158.505C854.741 139.765 839.44 120.531 822.967 102.931C765.049 40.0426 688.14 0.559838 612.055 -5.79266C533.202 -12.2812 452.907 22.7693 407.471 83.662C396.138 99.0142 386.3 116.963 376.956 134.435C366.217 154.822 354.84 175.769 340.703 192.926C322.801 214.553 296.375 224.378 270.836 234.076C264.482 236.386 258.067 238.925 251.651 241.463C238.676 246.622 226.427 252.708 214.737 259.432Z" fill="url(#paint8_linear_1464_4195)"/>
<path d="M729.236 815.686C719.711 821.165 709.194 826.255 698.117 830.707C647.97 850.719 588.964 850.672 536.237 830.5C489.92 812.785 446.159 780.158 402.988 730.869C399.713 727.184 396.356 723.355 393.081 719.67C346.946 666.901 299.298 612.507 242.678 575.563C212.899 556.208 193.82 537.419 175.156 519.351C172.069 516.326 169.066 513.445 165.979 510.42C130.475 476.116 105.133 415.419 128.933 356.987C148.755 308.332 196.125 265.145 258.726 238.737C264.626 236.303 270.752 233.931 276.507 231.581C302.108 221.656 326.243 212.189 342.907 191.082C355.828 174.816 366.61 155.172 376.982 136.148C387.087 117.662 397.747 98.4725 410.151 82.312L411.165 83.0727L410.151 82.312C456.89 22.014 534.92 -10.9653 613.672 -3.65071C688.747 3.28293 764.458 42.6868 821.567 104.504C837.502 121.837 852.637 140.783 866.985 159.029C889.626 187.675 912.992 217.248 940.72 241.047C978.429 273.507 1026.95 297.058 1077.69 307.431C1111.44 314.326 1129.57 333.469 1138.86 348.283C1149.63 365.322 1151.09 388.872 1143.17 417.818C1138.69 434.408 1131.51 450.635 1123.15 469.467C1121.03 474.139 1119 478.955 1116.83 483.854C1083.5 560.44 1046.08 609.232 1000.19 635.631C995.284 638.453 990.211 640.987 985.055 643.377C974.516 648.095 963.875 653.64 953.607 659.162C932.327 670.251 910.325 681.755 887.892 687.17C873.693 690.537 860.36 693.406 848.492 695.816C832.351 699.148 819.451 701.768 811.488 704.62C805.369 709.676 803.711 714.471 801.847 719.575C800.885 722.241 799.861 725.134 798.094 728.071C796.435 759.557 770.222 792.11 729.236 815.686ZM225.966 257.581C180.795 283.565 147.135 318.865 131.145 357.827C107.796 415.04 132.639 474.871 167.584 508.537C170.671 511.562 173.674 514.443 176.761 517.468C195.28 535.619 214.421 554.181 243.889 573.33C300.737 610.335 348.551 665.018 394.831 717.703C398.105 721.388 401.463 725.218 404.737 728.903C447.742 777.903 491.048 810.408 537.055 827.917C589.244 847.823 647.507 847.913 697.138 828.005C754.937 804.935 793.499 765.47 795.654 727.17L795.632 726.799L795.838 726.488C797.461 723.635 798.567 720.886 799.53 718.22C801.538 713.032 803.38 707.556 810.22 702.085L810.364 702.002L810.509 701.919C818.616 698.984 831.661 696.281 848.173 692.927C860.041 690.517 873.458 687.792 887.573 684.281C909.635 678.887 931.492 667.467 952.628 656.461C962.98 651.083 973.62 645.538 984.076 640.676C1036.46 616.879 1077.9 566.733 1114.51 482.499C1116.69 477.599 1118.72 472.783 1120.83 468.112C1129.14 449.507 1136.32 433.28 1140.73 416.917C1148.38 388.508 1147.05 365.846 1136.76 349.301C1127.71 334.919 1110.06 316.27 1077.22 309.62C1026.17 299.042 977.112 275.225 939.176 242.704C911.365 218.76 887.772 189.126 865.048 160.336C850.7 142.09 835.648 123.288 819.713 105.955C763.08 44.6315 687.907 5.49433 613.431 -1.39983C535.506 -8.61375 458.425 24.0117 412.097 83.6892C399.754 99.6224 389.238 118.729 379.133 137.215C368.617 156.322 357.834 175.966 344.853 192.459C327.694 214.043 302.094 223.968 277.299 233.622C271.46 235.828 265.417 238.345 259.518 240.778C248.029 245.85 236.646 251.438 225.966 257.581Z" fill="url(#paint9_linear_1464_4195)"/>
<path d="M715.408 798.677C704.729 804.82 692.829 810.513 679.916 815.445C630.902 834.421 573.754 834.266 523.323 815.077C478.453 797.874 436.389 766.191 394.769 717.93C383.722 705.082 372.775 691.409 362.161 678.312C327.06 634.366 290.758 589 242.426 567.451L242.198 567.39L242.115 567.246C231.155 555.884 220.47 546.668 210.965 538.502C196.284 526.016 183.631 515.052 174.394 500.011C133.331 471.401 118.8 406.79 141.291 352.759C160.728 306.437 206.388 264.618 266.821 238.113C272.204 235.785 277.815 233.517 283.198 231.189C307.972 221.163 331.425 211.513 347.429 190.593C359.133 175.219 369.465 156.794 379.325 139.217C390.335 119.634 401.673 99.2862 415.376 82.3785L416.391 83.1392L415.376 82.3785C462.391 24.2266 539.104 -7.03526 615.503 0.864532C688.824 8.42284 762.8 47.4811 818.418 108.044C833.96 125.027 848.618 143.479 862.8 161.437C885.773 190.66 909.616 220.726 938.109 244.854C974.283 275.316 1022.19 298.455 1073.07 310.087C1107.09 317.786 1124.3 338.996 1132.71 355.279C1141.89 373.231 1141.45 396.147 1131.46 425.512C1126.87 438.903 1120.29 452.486 1113.37 466.833C1109.84 474.049 1106.25 481.491 1102.76 489.45C1074.41 551.653 1030.19 605.317 974.98 644.564C944.541 666.105 909.005 682.13 874.887 689.274C851.75 694.134 829.99 697.049 814.012 699.328C806.539 700.362 799.87 701.126 794.999 702.008C788.526 706.115 786.348 709.672 784.047 713.684C782.752 715.773 781.457 717.862 779.73 720.2C776.987 748.469 753.219 776.927 715.408 798.677ZM243.493 565.301C292.363 587.116 328.749 632.627 363.932 676.717C374.402 689.897 385.266 703.426 396.458 716.191C437.828 764.019 479.664 795.641 523.997 812.577C573.973 831.644 630.378 831.843 678.875 812.971C736.43 790.809 773.929 754.837 776.918 719.321L776.896 718.949L777.102 718.639C779.057 716.362 780.352 714.273 781.502 712.267C784.092 708.09 786.393 704.078 793.442 699.638L793.587 699.555L793.731 699.472C798.602 698.591 805.415 697.744 813.033 696.626C828.95 694.575 850.71 691.66 873.764 686.656C906.994 679.638 943.19 663.426 972.907 642.299C1027.91 603.362 1071.78 550.092 1099.93 488.199C1103.56 480.158 1107.15 472.715 1110.54 465.583C1117.45 451.235 1124.04 437.652 1128.56 424.489C1138.37 395.805 1138.92 373.406 1129.92 356.113C1121.76 340.263 1105.11 319.691 1071.92 312.093C1020.58 300.339 972.223 277.077 935.882 246.326C907.246 222.282 883.381 191.844 860.263 162.704C846.165 144.89 831.651 126.356 816.109 109.372C760.884 49.159 687.447 10.3675 614.725 2.84869C539.545 -4.60067 463.637 26.3903 417.178 83.8387C403.68 100.436 392.342 120.784 381.476 140.284C371.555 158.088 361.223 176.513 349.374 191.97C333.103 213.427 308.185 223.536 284.216 233.291C278.75 235.476 273.367 237.804 267.839 240.216C207.984 266.389 162.674 307.814 143.503 353.598C121.402 406.637 135.64 470.072 175.999 498.127L176.227 498.188L176.393 498.477C185.319 513.313 197.889 524.133 212.57 536.619C221.847 544.724 232.677 553.856 243.493 565.301Z" fill="url(#paint10_linear_1464_4195)"/>
<path d="M939.675 661.992C914.42 676.519 887.066 687.069 861.388 691.855C823.759 698.906 789.704 699.485 778.16 699.789C771.106 702.886 768.491 705.351 765.608 708.353C764.126 709.782 762.787 711.128 760.644 712.744C756.449 745.498 718.509 779.036 661.51 800.493C613.484 818.518 558.34 818.17 510.12 799.821C466.698 783.13 426.247 752.247 386.346 705.302C375.692 692.804 365.139 679.48 355.062 666.65C321.846 624.308 287.428 580.546 241.658 559.444L241.431 559.383L241.265 559.094C232.04 548.078 223.235 539.125 215.383 531.16C201.813 517.267 190.149 505.351 182.521 489.767C144.125 462.119 131.172 400.249 153.361 348.697C179.22 288.504 240.494 253.449 274.565 237.883C279.577 235.576 284.671 233.414 289.477 231.417C313.486 221.064 336.196 211.457 351.456 190.581C361.945 176.098 371.621 159.203 380.741 143.011C392.635 121.96 404.94 100.288 419.798 82.7161L420.585 83.4155L419.798 82.7161C466.943 26.7932 542.422 -2.60693 616.613 5.79509C688.325 13.895 760.42 52.6907 814.486 112.226C829.635 128.86 843.899 146.962 857.605 164.426C881.054 194.142 905.168 225.013 934.404 249.097C978.61 285.501 1031.17 304.043 1067.5 313.098C1104.07 322.213 1119.53 348.074 1125.69 362.774C1133.43 381.556 1131.17 403.982 1118.74 433.788C1114.29 444.412 1108.64 454.958 1102.52 466.351C1097.62 475.511 1092.59 485.126 1087.54 495.71C1058.79 556.222 1015.82 608.395 963.462 646.581C956.311 651.846 948.046 657.177 939.675 661.992ZM772.213 700.137C773.656 699.307 775.471 698.455 777.574 697.437L777.719 697.354L777.946 697.415C789.202 697.278 823.257 696.699 861.03 689.564C894.903 683.33 932.048 666.763 962.876 644.229C1014.95 606.21 1057.56 554.43 1086.11 494.228C1091.16 483.644 1096.19 474.029 1101.1 464.869C1107.07 453.559 1112.78 442.786 1117.17 432.389C1129.41 403.265 1131.55 381.293 1124 363.171C1118.09 348.904 1103.04 323.765 1067.38 314.894C1030.82 305.778 977.893 287.258 933.293 250.504C903.974 226.276 879.633 195.344 856.1 165.483C842.395 148.019 828.13 129.917 813.065 113.428C759.248 54.3251 687.691 15.7962 616.578 7.73569C543.069 -0.482609 468.394 28.6467 421.66 83.949C406.947 101.438 394.642 123.11 382.809 143.934C373.545 160.209 363.952 177.248 353.319 191.814C337.791 213.227 314.793 223 290.496 233.52C285.546 235.599 280.451 237.762 275.584 239.986C241.657 255.469 181.104 290.108 155.429 349.619C133.63 400.18 146.229 461.101 183.982 487.967L184.293 488.172L184.459 488.461C191.859 503.983 202.963 515.262 216.927 529.504C224.779 537.469 233.584 546.422 242.808 557.438C288.889 578.746 323.39 622.652 356.833 665.055C366.91 677.885 377.38 691.065 388.117 703.707C427.852 750.363 467.992 781.041 510.96 797.61C558.581 815.919 613.271 816.144 660.635 798.308C717.201 777.099 754.648 744.038 758.288 711.988L758.41 711.533L758.843 711.284C760.986 709.667 762.469 708.239 763.951 706.81C766.195 704.367 768.316 702.379 772.213 700.137Z" fill="url(#paint11_linear_1464_4195)"/>
<path d="M926.88 665.127C901.336 679.821 873.816 690.082 847.95 694.208C812.775 699.848 780.224 699.369 761.443 697.115C753.292 699.307 750.323 700.823 746.549 702.61C745.25 703.357 743.723 704.043 742.053 704.812C737.001 734.41 700.124 764.456 643.37 785.004C596.478 801.993 543.274 801.681 497.184 784.027C455.292 767.991 416.372 737.764 378.106 691.991C367.762 679.699 357.83 666.786 348.064 654.161C315.136 611.654 284.137 571.494 241.074 550.755L240.846 550.694L240.68 550.405C233.546 540.683 226.787 532.281 220.754 524.806C207.486 508.435 196.955 495.483 190.976 478.759C155.103 452.156 144.099 393.005 165.759 343.869C190.843 287.002 249.826 252.306 282.637 236.888C287.133 234.686 291.568 232.712 296.002 230.737C319.184 220.282 341.128 210.348 355.873 189.576C365.168 176.357 373.816 161.013 382.28 146.351C395.14 123.975 408.39 100.608 424.835 82.1226L425.622 82.822L424.835 82.1226C472.111 28.4288 546.274 0.746089 618.401 9.56728C688.276 18.1476 758.718 56.7419 811.377 115.167C826.132 131.451 840.003 149.203 853.315 166.317C877.097 196.611 901.687 227.976 931.605 252.243C965.27 279.349 1009.41 300.621 1062.84 315.011C1090.13 322.359 1110.67 342.031 1119.49 369.027C1127.63 394.497 1116.19 422.008 1106.91 440.595C1102.84 448.885 1097.81 457.158 1092.59 466.113C1086.28 476.846 1079.77 487.89 1073.43 500.563C1044.28 559.383 1002.65 610.211 953.138 647.335C945.02 653.924 936.116 659.814 926.88 665.127ZM739.963 703.518L740.54 703.186C742.5 702.251 744.026 701.565 745.469 700.735C749.449 698.638 752.501 697.266 761.024 695.052L761.396 695.03C780.032 697.368 812.355 697.785 847.531 692.145C882.191 686.609 920.285 669.689 951.935 645.914C1001.16 608.956 1042.52 558.666 1071.52 499.929C1077.78 487.111 1084.44 475.985 1090.69 465.479C1095.99 456.668 1100.8 448.334 1104.86 440.044C1113.93 421.767 1125.25 394.71 1117.25 370.128C1113.16 357.692 1099.91 327.676 1062.17 317.511C1008.42 302.915 963.997 281.809 930.083 254.271C899.938 229.942 875.264 198.433 851.399 167.995C838.087 150.881 824.072 133.212 809.544 116.989C757.135 58.9969 687.231 20.6693 617.955 12.1284C546.571 3.26369 473.068 30.7586 426.287 83.976C409.986 102.378 396.797 125.518 383.937 147.894C375.556 162.7 366.825 177.9 357.386 191.203C342.519 212.428 320.285 222.529 296.67 233.233C292.236 235.207 287.657 237.265 283.306 239.384C250.722 254.863 192.316 289.227 167.416 345.412C146.001 393.639 157.023 451.82 192.109 477.724L192.419 477.929L192.585 478.217C198.398 494.653 208.929 507.605 222.114 523.832C228.064 531.163 234.823 539.565 241.957 549.286C285.331 570.231 317.865 612.388 349.424 653.187C359.107 665.667 369.123 678.724 379.383 690.872C417.338 736.44 456.01 766.234 497.53 782.292C542.938 799.762 595.687 799.951 642.146 783.212C698.528 762.685 734.994 733.26 739.408 704.222L739.963 703.518Z" fill="url(#paint12_linear_1464_4195)"/>
<path d="M914.229 668.18C888.396 683.04 860.566 693.096 834.595 696.705C804.702 700.843 777.762 698.097 758.177 696.113C753.074 695.592 748.57 695.11 744.749 694.812C735.99 694.282 732.605 695.077 728.127 696.308C726.662 696.767 725.114 697.081 723.05 697.5C716.998 724.025 681.328 750.496 624.819 770.136C578.915 786.172 527.715 785.668 484.065 768.915C443.62 753.391 406.251 724.191 369.765 679.507C359.959 667.481 350.337 654.773 341.048 642.643C310.088 601.884 280.89 563.184 240.699 543.097L240.472 543.036L240.306 542.748C235.615 535.268 230.968 528.532 227.108 522.495C213.539 502.265 203.725 487.556 199.579 469.01C166.373 443.369 157.092 386.876 178.388 340.445C202.842 286.821 259.472 252.71 291.003 237.069C294.921 235.199 298.839 233.329 302.758 231.459C325.258 220.821 346.52 210.703 360.438 189.831C368.395 177.957 375.77 165.074 383.556 151.57C397.505 127.415 411.844 102.269 429.938 82.6437C477.2 31.262 550.191 5.21376 620.193 14.6814C688.315 23.8864 756.938 61.9908 808.271 119.45C822.633 135.384 836.11 152.786 849.173 169.468C873.287 200.338 898.21 232.28 928.954 256.649C961.024 281.983 1003.38 302.167 1058.33 318.183C1098.1 329.87 1110.04 362.945 1113.3 376.622C1119.6 402.572 1106.89 428.89 1095.16 448.888C1091.3 455.527 1086.98 462.042 1082.31 468.952C1074.97 479.895 1066.83 492.45 1059.32 506.758C1029.57 564.197 989.342 613.451 942.879 649.203C933.813 656.147 924.187 662.452 914.229 668.18ZM721.372 695.586L722.032 695.398C724.24 694.896 725.933 694.498 727.625 694.101C732.186 693.014 735.776 691.908 744.845 692.645C748.667 692.943 753.171 693.424 758.418 693.862C777.859 695.929 804.571 698.614 834.32 694.559C869.911 689.64 908.893 672.593 941.51 647.494C987.685 611.908 1027.85 562.881 1057.39 505.753C1064.83 491.3 1073.19 478.806 1080.45 467.719C1085.12 460.81 1089.35 454.149 1093.3 447.655C1104.82 427.967 1117.26 402.187 1111.15 376.897C1107.91 363.592 1096.25 331.32 1057.61 319.94C1002.44 303.862 959.851 283.618 927.616 257.995C896.644 233.565 871.638 201.479 847.441 170.464C834.379 153.782 820.901 136.38 806.539 120.446C755.538 63.564 687.37 25.5821 619.703 16.4995C550.3 7.07137 478.197 32.993 431.346 83.7541L430.559 83.0547L431.346 83.7541C413.396 103.296 399.119 128.216 385.169 152.37C377.383 165.874 370.008 178.757 361.907 190.714C347.639 211.979 326.232 222.181 303.3 233.068C299.381 234.938 295.463 236.808 291.544 238.678C260.302 254.153 204.106 288.015 179.835 340.957C158.951 386.767 168.166 442.146 200.813 467.148L201.123 467.354L201.145 467.725C205.125 485.982 214.939 500.692 228.508 520.922C232.512 526.876 236.932 533.551 241.622 541.03C282.206 561.467 311.549 600.084 342.447 641.07C351.737 653.2 361.215 665.991 371.165 677.934C407.402 722.185 444.543 751.324 484.533 766.725C527.728 783.356 578.474 783.737 623.945 767.95C680.227 748.249 715.546 722.172 720.96 696.206L721.372 695.586Z" fill="url(#paint13_linear_1464_4195)"/>
<path d="M901.805 671.294C875.684 686.32 847.543 696.17 821.24 699.203C784.862 703.422 751.963 696.999 732.269 693.158L728.115 692.283C716.046 690.008 712.679 689.832 704.397 689.796C697.549 712.937 662.882 736.143 606.701 755.018C561.93 770.019 512.527 769.633 471.15 753.493C432.297 738.397 396.398 710.081 361.63 666.712C352.217 655.036 343.133 642.595 334.154 630.67C305.223 591.433 277.848 554.565 240.22 534.924L239.909 534.719L239.743 534.43C237.894 530.885 236.067 527.711 234.384 524.455C219.679 497.581 209.835 479.816 207.911 458.456C177.372 433.777 169.752 380.169 190.663 336.073C213.153 288.379 261.959 255.696 298.952 236.529C302.354 234.764 305.612 233.082 309.098 231.461C330.833 220.494 351.557 210.109 364.815 189.425C371.372 179.125 377.535 168.474 384.027 157.059C399.188 130.672 414.905 103.581 434.792 82.7321L435.579 83.4316L434.792 82.7321C482.185 33.5795 553.776 9.10447 621.652 19.2186C688.02 29.0483 754.763 66.89 804.75 123.011C818.801 138.74 831.802 155.648 844.555 172.124C869.001 203.572 894.256 236.091 925.744 260.416C964.975 290.848 1014.43 308.677 1053.11 320.8C1095.28 333.986 1104.61 372.21 1106.55 383.579C1111.11 410.525 1096.24 436.747 1082.85 456.543C1079.36 461.818 1075.26 467.053 1071.19 472.66C1062.76 484.04 1053.07 496.91 1044.73 512.459C1014.46 568.661 975.348 616.508 931.999 650.661C922.521 658.225 912.34 665.234 901.805 671.294ZM702.863 687.798L704.433 687.855C712.942 687.953 716.453 688.045 728.605 690.465L732.759 691.34C753.507 695.343 784.898 701.481 821.131 697.345C857.653 693.043 897.585 675.642 931.024 649.302C974.229 615.232 1012.91 567.633 1043.12 511.659C1051.6 496.027 1061.21 483.013 1069.78 471.55C1073.86 465.943 1077.95 460.708 1081.45 455.433C1094.62 435.946 1109.23 410.263 1104.85 383.976C1103.09 372.896 1093.74 335.643 1052.7 322.763C1013.8 310.578 964.113 292.688 924.655 262.194C893.084 237.725 867.746 205.062 843.216 173.47C830.547 157.138 817.319 140.169 803.495 124.501C753.818 68.5856 687.613 31.0106 621.556 21.3864C554.217 11.5391 483.347 35.599 436.449 84.2753C416.623 104.897 400.906 131.988 385.889 158.292C379.398 169.707 373.09 180.441 366.533 190.741C353.009 211.963 332.14 222.431 310.116 233.563C306.858 235.245 303.373 236.866 299.97 238.631C263.266 257.632 214.748 290.15 192.525 337.305C172.026 380.781 179.519 433.502 209.643 457.46L209.953 457.665L209.892 457.893C211.733 479.109 221.494 496.729 236.199 523.603C237.943 526.632 239.626 529.889 241.536 533.207C279.475 553.053 306.788 590.148 335.864 629.302C344.699 641.31 353.927 653.668 363.34 665.344C397.942 708.425 433.386 736.618 472.156 751.57C513.139 767.36 562.027 767.851 606.282 752.955C662.463 734.08 696.697 711.123 702.823 688.397L702.863 687.798Z" fill="url(#paint14_linear_1464_4195)"/>
<path d="M889.587 674.097C863.177 689.289 834.726 698.934 808.03 701.617C768.491 705.35 734.118 696.703 711.565 689.897C707.306 688.507 704.04 687.505 701.001 686.565C695.522 684.724 691.574 683.538 685.601 682.174C675.949 707.12 627.6 727.251 588.501 739.756C544.862 753.721 497.317 753.226 458.237 738.07C421.368 723.753 385.985 695.332 353.412 653.773C344.454 642.219 335.619 630.211 327.095 618.409C299.987 581.003 274.64 545.656 239.657 526.606L239.347 526.401L239.181 526.112C224.211 493.438 215.203 472.12 216.244 447.902C187.978 423.836 182.146 374 202.794 331.783C224.736 287.477 271.562 255.357 306.985 236.132C309.727 234.555 312.408 233.205 315.233 231.772C336.43 220.539 356.473 209.97 369.048 189.102C373.939 180.913 378.746 172.579 383.964 163.624C400.399 134.776 417.45 104.997 439.79 82.7373L440.433 83.5197L439.79 82.7373C487.086 35.7526 557.444 13.1391 623.484 23.7337C688.243 34.105 753.105 71.6842 801.684 126.695C815.198 142.157 828.177 158.694 840.536 174.82C865.314 206.845 890.902 239.94 922.989 264.305C960.374 292.534 1007.33 309.69 1048.41 323.312C1082.87 334.788 1097.88 365.521 1100.31 390.431C1103.14 418.373 1086.1 444.498 1071.06 464.093C1067.81 468.459 1064.11 472.702 1060.28 477.4C1050.73 488.845 1039.93 501.781 1030.67 518.055C999.114 574.034 962.448 619.128 921.718 652.158C911.458 660.364 900.556 667.788 889.587 674.097ZM684.355 680.01L685.181 680.111C691.67 681.371 695.929 682.761 701.635 684.664C704.53 685.687 707.796 686.689 712.055 688.079C734.381 694.823 768.526 703.41 807.694 699.698C845.23 696.156 886.255 678.319 920.289 650.676C960.875 617.729 997.335 572.945 1028.83 517.194C1038.15 500.692 1049.1 487.674 1058.65 476.229C1062.56 471.675 1066.03 467.371 1069.51 463.066C1084.34 443.781 1101.12 418.194 1098.39 390.767C1095.92 366.456 1081.33 336.444 1047.78 325.214C1006.39 311.385 959.285 294.313 921.733 265.795C889.336 241.225 863.666 207.985 838.887 175.96C826.528 159.834 813.693 143.214 800.119 127.98C751.85 73.1743 687.298 35.8007 622.994 25.5518C557.636 15.141 487.939 37.5665 441.137 84.075C418.857 106.108 401.951 135.804 385.661 164.568C380.443 173.523 375.635 181.857 370.745 190.047C357.819 211.308 337.571 222.187 316.147 233.359C313.322 234.792 310.724 236.286 307.899 237.719C272.764 256.777 226.227 288.731 204.635 332.644C184.254 374.324 190.043 423.417 217.892 446.762L218.286 447.112L218.163 447.566C216.956 471.496 226.025 492.586 240.83 524.972C275.979 544.31 301.552 579.718 328.516 617.207C336.958 628.865 345.648 640.956 354.75 652.427C387.157 693.697 422.23 721.913 458.788 736.024C497.558 750.976 544.587 751.575 587.854 737.632C643.934 719.583 677.311 699.808 684.005 680.403L684.355 680.01Z" fill="url(#paint15_linear_1464_4195)"/>
<path d="M877.308 677.128C850.609 692.486 821.703 702.009 794.675 704.114C753.461 707.275 717.781 696.691 695.014 687.512C688.749 684.972 684.363 682.694 680.288 680.621C675.903 678.343 672.055 676.332 666.804 674.552C658.593 690.989 626.878 707.311 570.239 724.722C527.011 738.066 482.584 737.314 445.178 722.731C409.757 708.925 376.07 681.449 345.132 641.061C336.485 629.713 328.105 617.828 319.974 606.375C294.916 570.862 271.31 537.203 239.117 518.66L238.806 518.455L238.64 518.166C226.167 484.824 220.128 461.99 224.598 437.72C199.083 414.76 194.973 367.582 215.091 327.782C231.535 295.28 264.363 264.875 312.42 237.231C313.142 236.816 314.008 236.318 314.729 235.902C316.75 234.74 318.915 233.495 320.935 232.333C341.594 220.833 361.16 209.77 373.137 188.863C376.321 183.383 379.484 177.531 382.874 171.74C400.621 139.833 419.128 106.912 444.355 82.9919C492.193 37.6157 559.625 17.2614 624.655 28.437C687.577 39.2888 750.704 76.5222 797.958 130.567C811.078 145.679 823.747 162.011 835.856 177.704C860.967 210.306 886.887 243.978 919.717 268.299C955.818 294.963 1001.08 311.174 1041.15 325.378L1043.28 326.074C1078.86 338.826 1092.7 372.536 1093.64 397.532C1094.76 426.842 1075.61 452.643 1058.76 471.749C1055.46 475.371 1052.03 479.077 1048.44 482.866C1037.84 494.149 1025.9 506.778 1016 523.612C983.021 579.45 948.661 621.875 910.756 653.472C900.25 662.587 888.998 670.404 877.308 677.128ZM665.846 672.222L666.612 672.55C672.318 674.453 676.393 676.525 681.089 679.009C685.081 680.937 689.549 683.359 695.732 685.755C718.355 695.017 753.724 705.396 794.566 702.257C833.261 699.393 875.235 681.201 909.719 652.34C947.419 621.053 981.635 578.711 1014.47 522.956C1024.52 506.039 1036.52 493.183 1047.26 481.817C1050.85 478.028 1054.28 474.322 1057.58 470.7C1074.14 451.76 1093.17 426.414 1092.01 397.702C1091.03 373.305 1077.52 340.172 1042.93 327.809L1040.8 327.114C1000.65 312.765 955.244 296.637 918.833 269.768C885.693 245.241 859.69 211.424 834.579 178.822C822.47 163.129 810.028 146.859 796.764 131.83C749.903 78.1349 687.087 41.1069 624.537 30.2333C560.106 19.0972 493.334 39.2637 445.846 84.2466C420.764 108.084 402.4 140.922 384.715 172.602C381.552 178.454 378.306 184.161 374.978 189.724C362.734 211.169 342.941 222.171 322.076 233.981C320.056 235.143 318.035 236.305 315.87 237.55C266.781 265.404 233.52 296.058 216.87 328.87C197.019 368.133 201.085 414.568 226.268 436.951L226.662 437.301L226.539 437.756C222.048 461.654 227.921 484.199 240.311 517.397C272.67 536.228 296.276 569.888 321.417 605.545C329.548 616.998 337.784 628.966 346.492 640.087C377.12 680.269 410.496 707.54 445.834 721.201C482.93 735.579 526.902 736.209 569.697 723.114C626.708 705.681 658.112 689.153 665.601 673.131L665.846 672.222Z" fill="url(#paint16_linear_1464_4195)"/>
<path d="M865.09 679.932C837.958 695.539 808.886 704.773 781.237 706.468C734.176 709.151 696.521 694.134 678.297 684.839C671.306 681.371 666.483 678 661.6 674.857C657.254 671.98 653.135 669.165 647.84 666.642C637.006 682.859 595.308 696.859 551.666 709.482C509.571 721.79 467.002 720.93 431.892 707.33C397.691 693.975 365.7 667.443 336.542 628.144C328.205 617.002 320.363 605.383 312.686 594.052C289.596 560.288 267.957 528.378 238.554 510.343L238.243 510.137L238.077 509.849C226.934 472.477 225.544 450.042 233.012 427.311C210.165 405.313 207.777 360.792 227.449 323.553C243.774 292.848 275.058 264.099 323.05 235.34L326.947 233.099C347.13 221.105 366.158 209.776 377.741 188.519L381.376 181.819C399.735 147.639 420.745 109.054 449.497 82.9143C497.239 39.7059 563.354 21.069 626.403 32.8081C688.398 44.3852 748.175 80.473 794.809 134.107C807.618 149.013 819.81 164.851 831.609 180.339C856.969 213.373 883.077 247.706 916.878 272.044C948.899 295.294 987.254 309.524 1024.39 323.304C1029.27 325.105 1033.92 326.846 1038.57 328.586C1075.34 342.387 1087.88 378.186 1087.4 404.384C1086.9 435.206 1065.41 460.622 1046.82 479.382C1043.65 482.55 1040.34 485.801 1036.79 488.991C1025.2 499.885 1012.2 512.352 1001.64 529.374C979.919 564.72 945.565 616.166 900.247 654.908C889.103 664.582 877.357 672.876 865.09 679.932ZM647.338 664.434L648.103 664.762C653.852 667.408 658.198 670.284 662.71 673.45C667.367 676.532 672.334 679.82 679.181 683.37C697.322 692.522 734.522 707.416 781.211 704.754C820.981 702.424 863.987 684.023 899.067 653.859C944.241 615.2 978.45 563.837 1000.11 528.718C1010.74 511.469 1023.96 499.063 1035.47 488.025C1038.93 484.691 1042.33 481.584 1045.5 478.416C1063.88 459.966 1084.93 434.799 1085.48 404.72C1085.84 378.977 1073.65 344.127 1037.8 330.57C1033.14 328.83 1028.41 326.945 1023.61 325.288C986.476 311.508 948.037 297.134 915.789 273.823C881.904 249.34 855.57 214.946 830.271 181.684C818.472 166.197 806.28 150.359 793.553 135.597C747.23 82.1686 687.846 46.4306 626.223 34.8317C563.774 23.1321 498.174 41.6642 450.782 84.4792L450.223 83.841L450.782 84.4792C422.236 110.309 401.371 148.811 383.073 182.764L379.438 189.463C367.732 211.175 348.415 222.67 328.088 234.747L324.191 236.988C276.405 265.437 245.492 294.164 229.373 324.559C209.968 361.26 212.395 405.182 234.91 426.603L235.304 426.953L235.181 427.408C227.774 449.911 228.998 472.058 239.975 509.141C269.462 527.32 291.328 559.292 314.501 593.2C322.178 604.531 330.164 616.067 338.357 627.292C367.266 666.158 399.029 692.629 432.92 705.779C467.803 719.317 509.917 720.055 551.579 707.996C595.366 695.29 637.207 681.207 647.01 665.199L647.338 664.434Z" fill="url(#paint17_linear_1464_4195)"/>
<path d="M853.099 682.797C825.679 698.57 796.152 707.681 768.026 708.882C715.924 710.817 676.499 691.058 661.891 682.37C654.402 678.037 648.998 673.657 643.904 669.482C639.205 665.657 634.898 662.181 629.332 658.854C617.825 671.234 578.844 681.943 533.776 694.426C492.814 705.699 452.104 704.729 419.206 691.969C386.452 679.126 356.075 653.393 328.634 615.411C320.752 604.391 313.22 592.977 305.854 581.852C284.815 549.981 264.916 519.758 238.385 502.375L238.075 502.169L238.053 501.798C229.7 464.934 230.719 440.344 241.883 417.024C221.93 396.049 221.12 354.27 240.262 319.447C260.493 282.847 299.587 254.982 331.311 235.005L332.61 234.258C352.46 221.688 371.239 209.925 382.346 188.174C402.075 149.366 423.968 109.313 454.723 82.9809L455.283 83.6191L454.723 82.9809C502.224 42.0234 567.167 25.021 628.318 37.4677C688.559 49.6695 746.517 85.2673 791.826 137.935C804.242 152.492 816.268 168.041 827.757 183.323C853.305 217.018 879.889 251.844 914.289 276.222C943.39 296.736 977.652 309.863 1010.69 322.54C1018.78 325.571 1026.41 328.479 1033.98 331.614C1069.42 345.791 1083.27 382.184 1081.13 411.835C1078.87 444.624 1053.78 470.773 1034.99 487.531C1031.8 490.328 1028.46 493.208 1024.98 496.17C1012.54 506.592 998.614 518.443 987.534 535.569C959.907 578.345 929.084 622.575 889.927 657.004C878.185 666.639 865.799 675.492 853.099 682.797ZM628.913 656.791L629.534 657.202C635.41 660.734 640.027 664.415 644.954 668.302C650.048 672.477 655.368 676.713 662.714 681.129C677.094 689.755 716.292 709.453 767.939 707.396C808.869 705.743 852.823 686.988 888.581 655.666C927.676 621.464 958.499 577.234 985.982 534.542C997.123 517.188 1011.34 505.171 1023.78 494.75C1027.26 491.787 1030.6 488.907 1033.65 486.194C1052.14 469.602 1077.03 443.762 1079.1 411.655C1081.12 382.459 1067.63 347.015 1032.87 333.021C1025.3 329.886 1017.67 326.978 1009.58 323.947C976.314 311.209 942.051 298.081 912.867 277.424C878.24 252.985 851.717 217.931 826.025 184.319C814.475 169.264 802.593 153.632 790.177 139.075C745.179 86.6133 687.448 51.0766 627.661 38.9973C566.965 26.673 502.538 43.5707 455.387 84.1349C424.922 110.301 403.172 150.271 383.505 188.852C372.192 210.913 353.352 222.903 333.13 235.495L331.831 236.242C300.252 256.136 261.363 283.69 241.277 320.208C222.257 354.576 223.106 395.757 242.954 416.216L243.348 416.565L243.081 417.103C231.978 440.196 230.793 464.497 239.125 500.99C265.965 518.578 285.864 548.801 306.987 580.817C314.353 591.942 321.885 603.355 329.767 614.375C357.041 652.069 387.191 677.74 419.634 690.378C452.161 703.16 492.561 703.924 533.234 692.817C578.674 680.313 618.026 669.582 628.418 657.267L628.913 656.791Z" fill="url(#paint18_linear_1464_4195)"/>
<path d="M841.108 685.662C813.399 701.601 783.418 710.59 754.588 711.235C699.614 712.518 659.786 689.726 645.258 679.841C637.414 674.559 631.656 669.23 625.981 664.045C621.01 659.416 616.206 655.075 610.369 650.943C600.931 657.908 577.26 663.844 544.384 671.809C535.118 674.067 525.563 676.491 515.347 679.103C487.199 686.27 445.228 691.786 405.981 676.341C374.674 664.009 345.766 639.16 320.189 602.411C312.617 591.596 305.457 580.161 298.401 569.241C279.412 539.263 261.336 510.872 237.451 494.079L237.14 493.873L237.119 493.502C231.284 456.341 235.128 430.318 249.843 406.492C232.557 386.479 233.47 347.357 252.166 315.096C270.922 282.608 304.86 257.133 339.033 234.404C357.047 222.313 375.638 209.891 386.413 187.563C403.036 153.038 426.159 109.781 459.183 82.7194C506.443 44.0128 570.069 28.7278 629.528 41.5719C687.932 54.2541 744.238 89.6506 788.056 141.063C800.306 155.332 811.794 170.614 823.034 185.464C848.914 219.735 875.602 255.078 910.89 279.329C937.32 297.538 968.316 309.665 998.32 321.401C1008.93 325.477 1018.85 329.369 1028.57 333.571C1064.91 348.963 1077.65 388.106 1074.19 418.132C1071.11 444.482 1054.7 468.706 1022.5 494.526C1019.37 497.096 1016.01 499.604 1012.36 502.278C999.214 512.144 984.213 523.462 972.617 540.693C946.259 579.666 916.406 623.914 878.715 657.884C867.121 668.778 854.386 678.024 841.108 685.662ZM610.26 649.086L610.653 649.435C616.945 653.689 621.833 658.175 626.97 663.093C632.562 668.133 638.319 673.462 646.019 678.827C660.465 688.568 699.981 711.155 754.44 709.976C796.755 709.063 841.576 689.81 877.784 657.268C915.331 623.38 945.267 579.277 971.48 540.387C983.22 523.072 998.221 511.755 1011.43 501.661C1014.93 499.07 1018.29 496.562 1021.57 493.91C1053.34 468.339 1069.68 444.342 1072.72 418.59C1076.14 389.163 1063.59 350.681 1028.02 335.616C1018.16 331.497 1008.23 327.605 997.768 323.447C967.765 311.71 936.624 299.667 909.884 281.252C874.513 256.856 847.741 221.37 821.634 187.037C810.395 172.187 798.906 156.905 786.656 142.636C742.921 91.368 686.926 56.1771 628.976 43.6174C570.034 30.6684 506.779 45.9316 459.952 84.3892L459.393 83.7509L459.952 84.3892C427.217 111.285 404.072 154.17 387.593 188.612C376.757 211.168 357.961 223.9 339.719 235.929C305.835 258.493 272.041 283.885 253.346 316.146C234.856 348.096 234.066 386.764 251.164 406.116L251.557 406.466L251.662 406.982C236.926 430.437 232.998 456.315 238.811 493.105C262.779 510.041 280.855 538.433 299.927 568.555C306.839 579.558 314.143 590.91 321.715 601.725C347.126 638.186 375.807 662.974 406.803 675.1C445.74 690.339 487.194 684.928 515.116 677.7C525.331 675.088 534.886 672.664 544.153 670.406C576.141 662.567 601.216 656.401 610.054 649.396L610.26 649.086Z" fill="url(#paint19_linear_1464_4195)"/>
<path d="M829.118 688.526C801.12 704.631 770.684 713.498 741.233 713.732C683.819 714.115 643.385 688.599 628.707 677.455C620.593 671.37 614.398 664.948 608.369 658.814C602.9 653.319 597.885 647.947 591.489 643.177C584.435 646.274 570.275 649.043 550.956 652.859C535.908 655.754 517.249 659.382 496.941 664.151C469.575 670.675 429.275 675.423 392.861 661.228C363.002 649.408 335.707 625.36 311.765 589.782C304.565 578.945 297.632 567.571 290.948 556.63C274.009 528.545 257.984 502.046 236.827 485.988L236.517 485.783L236.495 485.411C233.013 447.665 239.682 420.21 258.114 396.166C243.412 376.971 245.947 341.332 264.235 311.034C283.757 278.873 320.131 252.958 346.694 234.029C364.953 221.03 380.86 208.616 390.274 187.262C412.099 138.415 436.056 104.28 463.665 82.8294C510.54 46.4567 572.911 32.6618 630.699 46.2749C687.122 59.5205 741.692 94.5714 784.185 145.018C796.041 158.937 807.303 174.158 818.293 188.574C844.422 223.279 871.443 259.198 907.33 283.489C931.709 299.806 959.894 311.053 987.292 321.6C999.74 326.537 1011.65 331.207 1023.21 336.271C1060.66 352.94 1072.25 394.088 1067.29 425.171C1061.78 459.642 1039.38 489.809 1009.9 502.347C990.761 510.477 972.139 526.182 957.889 546.477C954.722 550.987 951.494 555.724 948.183 560.317C923.959 594.99 898.831 630.759 867.774 659.569C856.057 670.918 842.972 680.557 829.118 688.526ZM238.187 485.014C259.427 501.216 275.535 527.859 292.474 555.944C299.158 566.885 305.864 578.198 313.208 588.952C336.84 624.324 363.968 648.084 393.6 659.843C429.642 674.059 469.571 669.334 496.71 662.748C516.935 657.835 535.677 654.351 550.724 651.456C570.416 647.618 584.658 644.994 591.402 641.691L591.835 641.442L592.145 641.647C598.708 646.706 603.949 652.139 609.502 657.779C615.53 663.912 621.642 670.19 629.757 676.275C644.351 687.275 684.331 712.668 741.374 712.308C784.848 712.071 830.844 692.526 867.42 658.621C898.416 630.038 923.4 594.351 947.623 559.679C950.934 555.086 954.162 550.349 957.329 545.839C971.868 525.378 990.552 509.446 1009.98 501.15C1038.88 488.943 1061.07 459.087 1066.46 425.071C1071.3 394.442 1059.84 354.181 1023.15 337.84C1011.74 332.693 999.827 328.023 987.234 323.169C959.898 312.394 931.425 301.313 906.962 284.853C870.848 260.501 843.744 224.437 817.532 189.588C806.686 175.089 795.28 159.95 783.424 146.032C741.097 95.8737 686.838 61.0284 630.642 47.844C573.309 34.3534 511.37 47.8992 464.784 84.1059L464.308 83.6119L464.784 84.1059C437.463 105.39 413.568 139.298 391.804 187.918C382.101 209.438 366.134 222.079 347.731 235.161C321.311 254.007 285.082 279.84 265.683 311.545C247.722 341.079 245.209 377.089 259.785 395.397L260.034 395.829L259.684 396.223C241.48 420.328 234.727 447.639 238.187 485.014Z" fill="url(#paint20_linear_1464_4195)"/>
<path d="M817.849 690.976C789.274 707.413 757.806 716.489 728.023 716.147C685.931 715.78 643.649 700.737 612.301 674.987C603.833 667.953 597.139 660.666 590.901 653.501C585.078 647.057 579.648 640.963 572.897 635.245C568.542 636.022 562.018 636.703 553.718 637.636C536.004 639.569 509.307 642.252 478.823 649.034C440.083 657.492 406.829 656.458 379.947 645.806C351.308 634.437 325.71 611.332 303.63 576.987C296.574 566.068 290.096 554.816 283.784 543.853C268.834 517.888 254.715 493.366 236.431 477.96L236.121 477.754L236.099 477.383C234.886 438.907 244.587 409.708 266.696 386.045C254.888 367.873 258.918 334.831 276.76 307.094C294.046 280.06 323.471 257.758 349.392 238.046L354.894 233.922C373.459 219.786 386.658 207.008 394.9 187.289C408.432 154.735 432.233 110.32 468.768 83.3506C515.174 49.1676 576.457 37.1514 632.408 51.2449C686.995 64.971 739.684 99.7592 780.997 149.156C792.543 162.87 803.555 177.658 814.235 191.869C840.552 227.234 867.905 263.73 904.596 287.75C927.091 302.462 952.98 312.725 978.104 322.661C992.227 328.17 1005.67 333.497 1018.55 339.526C1055.37 356.754 1067.79 399.345 1061.1 432.767C1053.97 467.779 1029.43 498.221 998.3 510.558C977.3 518.797 958.036 533.719 943.864 552.816C937.776 560.927 931.709 569.409 925.787 577.809C904.892 606.918 883.32 637.185 857.454 661.665C845.427 672.808 831.992 682.841 817.849 690.976ZM237.564 476.924C255.931 492.474 270.05 516.997 285 542.962C291.312 553.925 297.79 565.176 304.846 576.096C326.759 610.152 352.13 633.195 380.459 644.359C407.03 654.806 439.996 656.006 478.509 647.486C509.076 640.849 535.833 637.939 553.631 636.15C562.158 635.278 568.827 634.514 573.038 633.82L573.409 633.798L573.72 634.004C580.553 639.866 586.21 646.021 592.117 652.609C598.5 659.691 604.965 666.917 613.351 673.807C644.471 699.496 686.443 714.334 728.163 714.722C772.424 715.185 820.607 694.766 856.912 660.057C882.695 635.433 904.206 605.393 925.1 576.283C931.106 568.028 937.089 559.401 943.178 551.291C957.349 532.193 976.82 516.961 998.191 508.7C1028.89 496.612 1053.23 466.481 1060.23 431.923C1066.73 399.183 1054.5 357.252 1018.37 340.208C1005.48 334.178 992.271 328.913 978.148 323.404C953.024 313.468 926.991 303.288 904.413 288.432C867.555 264.124 840.202 227.627 813.657 192.201C802.977 177.99 791.965 163.202 780.564 149.406C739.417 100.297 687.038 65.7139 632.596 51.9049C576.872 37.8726 516.106 49.784 469.988 83.8011L469.656 83.2241L469.988 83.8011C433.597 110.687 410.002 154.792 396.531 187.119C388.228 207.066 374.967 220.07 356.113 234.372L350.612 238.497C324.835 258.125 295.555 280.344 278.33 307.151C260.693 334.578 256.581 367.476 268.572 384.966L268.821 385.398L268.471 385.792C246.239 409.909 236.517 438.737 237.564 476.924Z" fill="url(#paint21_linear_1464_4195)"/>
<path d="M806.003 693.758C777.139 710.361 745.216 719.315 714.585 718.5C670.963 717.477 627.54 700.786 595.668 672.457C586.928 664.619 579.881 656.383 573.144 648.353C566.967 640.961 561.039 634.001 553.934 627.334C540.095 626.654 504.339 624.947 460.251 633.794C422.128 641.321 391.475 640.135 366.806 630.322C339.531 619.32 315.402 597.099 295.267 564.131C288.5 553.046 282.311 541.628 276.287 530.499C263.554 506.715 251.341 484.169 235.869 469.642L235.703 469.353L235.764 469.126C236.882 429.694 249.779 399.04 275.4 375.469C266.343 358.404 272.239 327.937 289.262 302.782C304.58 280.337 329.159 260.63 350.895 243.326C355.098 239.949 359.301 236.571 363.215 233.359C377.162 221.88 391.145 208.46 399.422 186.801C409.441 160.491 432.486 112.094 473.911 83.2727C519.993 51.1963 579.814 40.9806 634.383 55.677C686.989 69.9665 738.17 104.47 778.075 152.757C789.311 166.265 799.929 180.704 810.299 194.709C836.865 230.506 864.406 267.663 901.841 291.639C922.762 304.952 946.666 314.437 969.866 323.367C984.671 329.06 999.953 335.248 1013.85 342.038C1051.64 360.626 1063.06 405.14 1054.78 439.474C1046.27 475.09 1019.43 505.889 986.344 517.819C970.128 523.69 947.095 535.404 929.63 558.124C921.442 568.594 913.648 579.415 905.442 590.856C887.509 615.765 868.876 641.461 847.069 662.646C834.508 674.865 820.723 685.29 806.003 693.758ZM237.023 468.978C252.579 483.649 264.792 506.195 277.525 529.979C283.548 541.108 289.738 552.526 296.422 563.467C316.473 596.291 340.375 618.45 367.339 629.247C392.009 639.06 422.207 640.124 460.186 632.679C504.501 623.894 540.712 625.723 554.324 626.342L554.551 626.404L554.634 626.548C561.966 633.276 567.894 640.235 574.155 647.772C580.891 655.802 587.711 663.977 596.451 671.815C628.157 699.855 671.208 716.568 714.603 717.53C760.311 718.505 809.526 697.876 845.993 662.113C867.717 640.784 886.206 615.171 904.222 590.405C912.161 579.502 920.366 568.061 928.554 557.59C946.308 534.704 969.63 522.825 985.846 516.954C1018.56 505.046 1045.05 474.639 1053.43 439.479C1061.59 405.598 1050.22 361.828 1013.11 343.424C999.214 336.633 984.697 330.774 969.21 324.896C945.927 315.823 922.023 306.338 901.102 293.025C863.439 268.987 835.898 231.831 809.249 195.889C798.88 181.883 788.117 167.528 777.026 153.937C737.203 105.794 686.333 71.4961 633.955 57.2678C579.84 42.6939 520.39 52.8879 474.597 84.7983L474.265 84.2213L474.597 84.7983C433.461 113.453 410.621 161.54 400.603 187.85C392.159 209.221 378.115 222.868 364.024 234.43C360.11 237.642 355.907 241.02 351.704 244.397C330.112 261.618 305.678 281.242 290.504 303.604C273.397 328.615 267.707 358.771 276.886 375.382L277.135 375.815L276.786 376.208C250.999 399.49 238.08 429.772 237.023 468.978Z" fill="url(#paint22_linear_1464_4195)"/>
<path d="M794.239 696.684C765.086 713.453 732.626 722.14 701.313 721.142C656.16 719.463 611.657 700.897 579.2 670.216C570.045 661.657 562.788 652.389 555.697 643.41C549.166 635.07 542.884 627.162 535.364 619.774C516.886 615.041 481.498 611.97 442.072 618.903C416.455 623.461 383.317 626.969 353.83 615.127C328.312 604.842 305.237 582.783 286.987 551.419C280.426 540.024 274.669 528.357 268.934 517.062C258.129 495.626 248.133 475.261 235.328 461.696L235.161 461.407L235.223 461.18C238.445 420.73 254.827 388.455 283.753 365.287C277.508 349.101 284.776 321.685 301.559 298.781C314.948 280.326 334.436 264.124 353.141 248.563C359.465 243.197 365.439 238.224 371.186 233.19C387.705 218.504 397.555 204.58 403.738 186.622C419.257 142.171 446.589 104.557 478.62 83.4443C524.006 53.4963 582.8 44.832 635.698 60.2972C686.467 75.0672 735.685 109.164 774.493 156.546C785.418 169.848 795.87 183.998 805.929 197.799C832.828 234.173 860.473 271.845 898.796 295.695C918.226 307.753 940.517 316.438 961.815 324.733C977.613 330.816 994.031 337.31 1008.72 344.8C1026.49 353.973 1039.48 369.54 1046.34 389.791C1052.47 407.773 1053.09 428.539 1048.19 446.72C1038.3 482.938 1009.32 514.013 974.203 525.763C948.31 534.512 928.976 546.978 914.984 564.052C905.169 576.035 895.441 589.503 886.125 602.351C870.597 623.765 854.514 645.882 836.066 664.559C823.671 677.065 809.392 687.967 794.239 696.684ZM236.399 460.887C249.143 474.68 259.284 494.962 270.089 516.398C275.824 527.693 281.664 539.504 288.142 550.755C300.683 572.537 322.27 601.021 354.281 613.908C383.541 625.688 416.595 622.036 441.923 617.644C481.577 610.773 517.337 613.822 535.815 618.555L536.042 618.616L536.125 618.76C543.728 626.292 550.404 634.55 556.769 642.602C563.777 651.437 571.034 660.704 580.189 669.264C612.335 699.738 656.61 718.244 701.536 719.861C748.858 721.636 798.939 700.509 835.629 663.466C853.933 644.872 870.016 622.755 885.543 601.342C894.86 588.493 904.587 575.025 914.402 563.042C928.538 545.885 948.079 533.109 974.116 524.277C1008.72 512.631 1037.49 481.867 1047.4 446.02C1056.73 411.848 1046.31 365.039 1008.62 345.626C993.93 338.136 977.595 331.786 961.859 325.476C940.333 317.12 918.043 308.435 898.529 296.233C860.124 272.238 832.333 234.649 805.352 198.131C795.293 184.33 784.84 170.18 773.998 157.022C735.357 109.929 686.367 75.8932 635.825 61.1845C583.237 45.9248 524.959 54.4843 479.778 84.122L479.446 83.545L479.778 84.122C447.892 105.152 420.621 142.538 405.307 186.68C398.981 204.721 389.069 218.871 372.406 233.641C366.804 238.592 360.685 243.648 354.361 249.014C335.656 264.574 316.395 280.838 302.923 299.149C286.14 322.052 279.077 349.158 285.528 365.034L285.778 365.467L285.345 365.716C256.108 388.678 239.787 420.725 236.399 460.887Z" fill="url(#paint23_linear_1464_4195)"/>
<path d="M782.62 699.527C753.179 716.462 720.119 725.11 688.019 723.412C641.336 721.078 595.837 700.78 562.711 667.604C553.285 658.24 545.674 648.024 538.312 638.241C531.676 629.385 524.791 620.095 516.773 611.842C499.463 604.133 464.91 597.509 423.871 603.642C396.291 607.793 366.971 610.256 340.833 599.561C310.042 587.124 290.069 559.44 278.769 538.481C272.33 526.63 266.841 514.426 261.456 502.738C252.889 483.855 244.759 466.064 234.765 453.378L234.682 453.234L234.744 453.007C240.213 411.455 260.081 377.56 292.396 354.939C289.045 339.776 297.891 315.101 313.917 294.553C325.438 279.861 341.196 266.188 356.459 252.991C364.699 245.947 372.361 239.236 379.281 232.567C393.468 218.837 402.326 204.525 408.115 186.217C421.819 142.617 449.996 104.134 483.618 83.4498C528.536 55.6915 586.013 48.7446 637.302 64.7515C686.091 80.0849 733.572 113.836 771.116 160.025C781.648 172.977 791.79 186.922 801.683 200.434C828.769 237.468 856.664 275.573 895.647 299.235C913.897 310.244 934.43 318.211 954.425 325.912C971.132 332.24 988.46 338.979 1003.79 347.251C1042.93 368.518 1052.46 417.765 1041.64 453.366C1028.98 494.444 991.512 519.455 962.246 533.025C958.184 534.978 953.955 536.642 949.52 538.617C932.277 546.039 914.374 553.65 900.605 569.443C889.43 582.4 878.736 597.192 868.391 611.592C855.086 630.191 841.142 649.35 825.392 665.706C812.752 679.122 798.206 690.562 782.62 699.527ZM235.859 452.941C245.852 465.627 253.982 483.418 262.549 502.301C267.934 513.989 273.424 526.193 279.862 538.044C291.079 558.859 310.97 586.399 341.305 598.713C367.277 609.12 396.309 606.823 423.889 602.671C465.072 596.456 500.079 603.202 517.473 611.055L517.7 611.117C525.801 619.514 532.687 628.803 539.55 637.721C546.912 647.504 554.523 657.72 563.949 667.084C596.764 700.055 642.18 720.208 688.491 722.564C737.344 724.995 788.601 703.576 825.287 665.19C840.892 648.917 854.837 629.758 868.142 611.159C878.487 596.76 889.181 581.967 900.356 569.01C914.186 552.99 933.038 545.025 949.621 537.791C954.056 535.816 958.284 534.152 962.203 532.282C991.241 518.651 1028.51 493.95 1041.1 453.1C1051.8 417.953 1042.46 369.366 1003.77 348.221C988.442 339.949 971.197 333.354 954.635 326.944C934.639 319.243 913.962 311.358 895.629 300.205C856.419 276.482 828.358 238.088 801.272 201.054C791.379 187.542 781.32 173.742 770.705 160.645C733.244 114.601 685.99 80.9109 637.429 65.6388C586.367 49.6931 529.117 56.7012 484.632 84.2105L484.383 83.7778L484.632 84.2105C451.382 104.873 423.183 142.985 409.54 186.357C403.69 204.892 394.771 219.432 380.439 233.245C373.52 239.913 365.858 246.625 357.618 253.669C342.499 266.783 326.658 280.311 315.282 294.92C296.54 318.759 291.078 342.64 294.027 354.769L294.049 355.14L293.76 355.306C261.301 378.01 241.494 411.679 235.859 452.941Z" fill="url(#paint24_linear_1464_4195)"/>
<path d="M771.351 701.977C741.477 719.161 707.158 727.957 674.664 725.91C626.678 722.981 579.872 700.746 546.161 665.219C537.893 656.533 531.502 646.767 525.36 637.434C517.103 625.094 509.405 613.392 498.037 603.993C483.854 592.373 449.81 582.96 405.526 588.463C379.389 591.784 351.845 593.995 327.774 584.221C298.659 572.358 280.464 545.763 270.407 525.625C264.152 513.093 258.99 500.124 253.933 487.671C247.543 471.567 241.507 456.413 234.059 445.144L233.975 445L234.037 444.772C242.021 401.582 264.902 366.914 300.584 344.469C300.341 332.702 308.041 311.375 326.048 290.263C335.679 278.963 348.161 267.942 360.149 257.398C369.933 248.698 379.222 240.474 387.086 232.11C399.232 219.171 406.769 205.234 412.265 185.75C424.482 142.238 452.969 103.96 488.244 83.4771C488.388 83.3941 488.533 83.311 488.677 83.228C532.838 57.8253 588.854 52.6789 638.617 69.3717C686.168 85.225 730.755 117.953 767.534 163.813C777.755 176.56 787.731 190.217 797.231 203.379C824.422 240.929 852.732 279.755 892.52 303.146C909.672 313.25 928.819 320.479 947.428 327.441C964.817 333.952 982.827 340.875 998.716 349.785C1038.77 372.639 1047.44 423.726 1035.03 460.241C1023.65 493.862 993.483 522.546 950.084 540.597C945.794 542.489 941.338 544.092 936.593 545.861C918.79 552.645 900.183 559.7 886.021 575.144C873.753 588.538 862.525 604.406 851.563 619.736C839.985 635.997 828.058 652.652 814.657 667.081C802.266 680.929 787.514 692.679 771.351 701.977ZM235.379 444.768C242.684 456.12 248.72 471.275 255.109 487.378C260.166 499.831 265.245 512.656 271.5 525.188C281.475 545.182 299.358 571.571 328.247 583.373C352.09 593.085 379.551 590.731 405.543 587.493C449.972 581.907 484.471 591.442 498.737 603.206C510.104 612.606 518.03 624.369 526.143 636.792C532.368 646.269 538.821 655.807 546.86 664.432C580.344 699.898 626.84 721.927 674.599 724.795C724.382 727.843 777.826 705.549 814.18 666.587C827.581 652.158 839.509 635.503 851.087 619.242C862.048 603.912 873.276 588.044 885.689 574.567C899.912 558.896 918.519 551.841 936.55 545.118C941.294 543.349 945.668 541.601 949.896 539.937C974.937 529.374 1019.16 505.085 1034.35 460.057C1046.55 423.852 1038.07 373.425 998.554 350.839C982.81 341.845 964.883 335.067 947.494 328.555C928.801 321.449 909.654 314.221 892.358 304.199C852.343 280.747 824.177 241.838 796.902 204.144C787.403 190.981 777.427 177.325 767.206 164.578C730.51 118.862 686.006 86.2783 638.683 70.4863C589.147 53.8547 533.358 59.0623 489.486 84.299C489.342 84.382 489.197 84.465 489.053 84.548L488.804 84.1153L489.053 84.548C453.922 104.948 425.641 142.915 413.485 186.201C407.927 205.911 400.39 219.848 388.1 232.871C380.236 241.235 370.947 249.458 361.163 258.159C349.176 268.703 336.838 279.64 327.207 290.941C309.2 312.053 301.561 333.153 302.092 344.753L302.031 344.98L301.742 345.146C266.122 367.364 243.158 401.889 235.379 444.768Z" fill="url(#paint25_linear_1464_4195)"/>
<path d="M759.732 704.82C729.57 722.17 694.796 730.844 661.31 728.407C611.937 724.739 563.99 700.857 529.755 662.75C521.133 653.116 514.017 642.423 507.293 632.081C498.765 618.936 490.734 606.658 479.302 596.144C463.996 581.905 429.611 569.232 387.181 573.284L386.066 573.349C363.148 575.587 337.256 577.999 314.633 568.737C293.003 559.865 274.458 540.001 262.189 512.686C256.013 498.956 251.385 484.912 246.861 471.384C242.526 458.515 238.606 446.368 233.868 436.804L233.785 436.66L233.846 436.433C243.956 392.596 270.405 356.451 308.505 334.535C308.794 334.369 309.227 334.12 309.515 333.954C311.612 323.915 320.518 305.35 338.695 285.869C346.271 277.671 355.56 269.447 364.561 261.389C375.477 251.653 386.826 241.668 395.325 231.403C407.877 216.502 413.054 200.466 416.848 185.034C427.456 142.063 456.643 102.999 493.448 83.172C536.975 59.6704 591.88 55.9312 640.572 73.4324C686.058 89.7048 728.909 122.087 764.591 167.043C774.502 179.584 784.167 193.035 793.5 205.909C821.024 244.035 849.295 283.461 889.97 306.725C906.025 315.924 924.096 322.619 941.403 328.987C959.474 335.682 978 342.499 994.16 352.214C1012.33 363.079 1025.7 381.308 1031.64 403.626C1037.17 424.252 1036.21 447.273 1028.94 467.009C1011.51 514.481 964.721 538.323 938.438 548.064C933.838 549.75 929.154 551.292 924.182 553C905.82 559.146 886.653 565.563 872.097 580.657C858.941 594.177 847.385 610.81 836.24 626.822C826.329 640.972 816.006 655.743 804.521 668.495C791.43 683.13 776.329 695.273 759.732 704.82ZM234.756 436.678C239.494 446.242 243.558 458.306 247.749 471.257C252.272 484.785 256.9 498.829 263.076 512.559C275.323 539.503 293.786 559.223 315.044 568.117C337.44 577.317 363.248 574.761 386.022 572.606L387.137 572.541C429.711 568.406 464.407 581.285 479.94 595.584C491.229 606.181 499.819 619.098 508.015 631.666C514.738 642.008 521.772 652.556 530.393 662.191C564.463 700.009 612.182 723.83 661.327 727.437C712.951 731.345 767.489 708.615 803.611 668.25C815.097 655.499 825.275 640.811 835.331 626.577C846.476 610.565 858.115 594.077 871.332 580.329C886.032 565.152 905.199 558.735 923.706 552.506C928.678 550.798 933.361 549.256 937.962 547.57C964.161 537.684 1010.74 514.153 1027.97 466.992C1041.61 429.957 1034.14 377.607 993.482 353.372C977.405 343.802 958.879 336.984 940.808 330.289C923.418 323.778 905.347 317.082 889.148 307.966C848.328 284.785 819.974 245.215 792.368 206.944C783.034 194.071 773.369 180.62 763.458 168.078C727.86 123.267 685.092 91.029 639.832 74.8178C591.368 57.3778 536.752 60.951 493.452 84.5138C457.019 104.319 427.81 143.012 417.346 185.9C413.552 201.332 408.315 217.594 395.617 232.579C386.892 242.783 375.625 252.912 364.709 262.648C355.853 270.623 346.563 278.847 338.905 286.9C320.728 306.382 311.821 324.947 309.786 334.758L309.725 334.986L309.581 335.069C309.148 335.318 308.859 335.484 308.426 335.733C271.048 357.234 244.804 393.069 234.756 436.678Z" fill="url(#paint26_linear_1464_4195)"/>
<path d="M748.196 707.807C717.745 725.323 682.433 733.73 647.955 730.904C597.28 726.642 548.253 700.884 513.287 660.509C504.085 649.865 496.614 638.224 489.309 626.872C480.781 613.727 472.003 600.15 460.877 588.5C445.711 572.837 412.468 555.474 369.146 558.311C367.143 558.503 365.285 558.611 363.199 558.659C342.468 560.023 321.22 561.492 301.802 553.459C274.278 542.024 260.089 515.045 254.137 500.035C247.852 484.448 243.836 468.131 240.301 453.65C237.981 444.615 235.91 436.013 233.472 428.775L233.389 428.631L233.45 428.404C246.114 382.33 276.236 345.224 318.014 323.689C323.945 311.636 336.372 295.847 351.137 281.785C356.573 276.545 362.464 271.428 368.705 265.918C381.332 254.814 394.535 243.379 403.585 231.068C414.034 217.184 417.912 201.896 421.308 184.773C430.263 141.6 459.905 102.659 498.302 83.2602C541.05 61.7428 594.866 59.7822 642.114 78.1135C685.537 94.8052 726.735 126.986 761.236 170.892C770.837 183.229 780.253 196.246 789.276 208.915C816.904 247.557 845.59 287.704 886.843 310.636C902.028 318.992 918.796 325.092 935.11 331.07C953.553 337.743 972.678 344.6 989.026 354.975C1007.38 366.5 1020.66 385.555 1026.41 408.555C1031.76 429.863 1030.18 453.814 1022.19 473.966C1007.9 510.218 972.801 540.011 926.132 555.719C921.304 557.344 916.249 558.908 910.966 560.41C892.044 565.918 872.545 571.758 857.369 586.44C843.614 599.921 831.996 616.781 820.729 633.248C812.217 645.825 803.272 658.652 793.497 670.035C780.821 685.392 765.226 698.011 748.196 707.807ZM234.215 428.731C236.654 435.97 238.642 444.428 240.962 453.462C244.641 467.86 248.656 484.177 254.858 499.62C260.811 514.63 274.978 541.238 302.13 552.694C321.321 560.666 342.568 559.197 363.073 557.772C365.075 557.58 367.161 557.532 369.02 557.423C412.569 554.648 446.039 572.072 461.288 587.879C472.558 599.446 481.336 613.024 489.721 626.251C497.025 637.603 504.496 649.244 513.616 659.744C548.498 699.975 597.442 725.588 647.745 729.873C701.271 734.416 756.757 711.332 792.732 669.708C802.507 658.324 811.369 645.353 819.964 632.92C831.231 616.454 842.765 599.449 856.748 586.03C871.924 571.347 891.568 565.424 910.634 559.833C915.917 558.331 920.828 556.85 925.8 555.142C972.325 539.517 1007.14 509.891 1021.36 473.865C1036.48 435.402 1028.28 380.783 988.409 355.906C972.144 345.676 953.019 338.818 934.576 332.145C918.263 326.167 901.35 320.15 886.082 311.65C844.602 288.656 815.916 248.51 788.204 209.723C779.182 197.055 769.765 184.037 760.165 171.701C725.747 127.939 684.632 95.902 641.436 79.2717C594.271 61.0845 540.827 63.0234 498.223 84.4578C459.971 103.773 430.534 142.405 421.64 185.35C418.099 202.556 414.222 217.845 403.712 231.956C394.579 244.122 381.458 255.702 368.688 266.888C362.447 272.398 356.555 277.515 351.263 282.672C336.581 296.878 324.216 312.44 318.285 324.493L318.14 324.576L317.996 324.659C276.652 345.945 246.818 382.885 234.215 428.731Z" fill="url(#paint27_linear_1464_4195)"/>
<path d="M737.01 710.401C730.371 714.22 723.483 717.606 716.202 720.642C689.985 731.498 661.745 735.837 634.661 733.174C582.744 728.09 532.432 700.767 496.798 657.896C487.014 646.242 478.962 633.592 471.22 621.147C462.503 607.342 453.393 593.188 442.285 580.568C425.208 561.587 392.268 541.746 350.945 543.049C347.888 543.079 344.543 543.275 341.487 543.305C323.707 544.123 305.472 544.819 288.888 538.037C269.842 529.982 254.213 511.513 245.918 487.096C239.686 468.598 236.961 448.85 234.848 433.168C234.215 428.731 233.665 424.439 232.992 420.602L233.053 420.374C248.048 373.344 282.089 334.368 326.595 313.568C335.32 303.364 348.52 290.587 363.433 277.783C366.132 275.463 368.913 273.287 371.756 270.884C385.909 259.094 402.06 245.771 411.639 231.043C420.046 217.95 422.48 203.493 425.243 188.27L425.79 184.883C433.053 142.108 463.622 102.441 503.404 83.7812C524.317 74.0561 548.403 68.8422 572.794 68.8295C596.814 68.8386 621.344 73.7386 643.823 83.0833C685.181 100.194 724.561 131.885 757.964 174.887C767.398 186.934 776.36 199.83 785.217 212.209C813.033 251.512 841.824 292.174 884.109 314.897C898.507 322.553 914.199 328.12 929.582 333.481C948.396 340.133 967.893 346.968 984.49 357.776C1003.03 369.961 1016.27 389.614 1021.77 413.523C1026.88 435.741 1024.89 460.312 1016.26 481.024C1000.35 518.788 963.328 548.917 914.652 563.475C909.452 565.122 903.859 566.419 898.576 567.921C879.178 572.935 859.119 578.136 843.61 592.242C829.234 605.312 817.783 622.461 806.826 639.133C799.57 650.22 791.88 661.556 783.526 671.738C770.335 687.199 754.616 700.273 737.01 710.401ZM233.591 420.641C234.264 424.479 234.731 428.627 235.364 433.063C237.604 449.633 240.202 468.493 246.434 486.991C254.707 511.036 270.108 529.444 289.072 537.355C305.512 544.22 323.663 543.38 341.299 542.645C344.5 542.532 347.701 542.419 350.901 542.306C392.535 541.208 425.703 561.11 442.779 580.091C453.949 592.484 462.998 606.866 471.859 620.587C479.745 632.949 487.797 645.6 497.436 657.337C532.987 700.064 583.155 727.469 634.989 732.409C690.5 737.731 747.163 714.354 782.678 671.266C791.032 661.084 798.577 649.831 805.978 638.661C817.079 621.905 828.531 604.757 842.906 591.687C858.559 577.498 878.763 572.214 898.161 567.2C903.527 565.842 909.037 564.4 914.092 562.837C962.541 548.217 999.501 518.316 1015.27 480.634C1031.84 441.34 1024.5 384.882 983.769 358.191C967.399 347.445 947.902 340.609 929.088 333.958C913.705 328.596 897.929 322.885 883.531 315.229C841.103 292.589 812.228 251.783 784.329 212.336C775.617 199.873 766.511 187.061 757.077 175.013C723.756 132.156 684.377 100.465 643.246 83.4154C597.379 64.4811 545.024 64.6413 503.282 84.2358C463.788 102.729 433.424 142.086 426.078 184.717L425.531 188.104C422.852 203.471 420.418 217.929 411.95 231.249C402.37 245.976 386.158 259.527 372.005 271.316C369.162 273.72 366.381 275.896 363.683 278.216C348.625 291.102 335.486 303.652 326.844 314.001C282.421 334.945 248.524 373.838 233.591 420.641Z" fill="url(#paint28_linear_1464_4195)"/>
<path d="M725.907 713.14C694.734 731.071 657.709 739.503 621.45 735.589C568.231 729.91 516.839 700.712 480.392 655.428C470.171 642.681 461.454 628.877 453.131 615.422C444.082 601.041 434.784 586.226 423.632 572.863C400.291 545.004 366.266 528.283 332.6 527.87C328.717 527.799 324.545 527.895 320.601 528.051C305.401 528.346 289.83 528.662 275.83 522.697C258.086 515.237 243.822 497.135 237.639 474.384C231.289 451.345 229.444 428.787 232.513 412.428C242.208 361.533 288.439 330.716 334.949 303.386C342.598 298.986 350.942 292.458 360.585 285.182C365.366 281.473 370.434 277.597 375.731 273.782C392.113 261.862 410.368 247.521 419.528 230.73C425.853 219.027 427.364 206.636 428.893 193.275C429.173 190.426 429.598 187.493 430.023 184.56C432.808 163.371 441.873 142.411 455.965 124.512C469.914 106.695 487.963 92.664 508.053 84.18C529.009 75.1979 551.962 71.0196 576.48 71.8942C599.8 72.6899 623.547 78.2323 645.304 87.992C685.054 105.644 721.683 136.229 754.549 178.964C763.672 190.806 772.385 203.269 780.931 215.443C808.935 255.405 837.914 296.728 880.92 319.036C894.387 326.075 909.376 331.087 923.766 336.059C942.869 342.545 962.738 349.358 979.295 360.765C998.025 373.61 1011.24 394.233 1016.48 418.68C1021.35 441.806 1018.88 467.226 1009.45 488.208C1000.42 508.569 985.73 526.43 965.783 541.168C947.773 554.6 925.706 564.989 902.428 571.274C896.918 572.715 891.181 574.095 885.361 575.331C865.486 579.851 844.867 584.414 828.882 598.026C814.174 610.519 803.177 627.79 792.365 644.379C786.075 654.142 779.579 664.215 772.502 673.279C759.726 689.461 743.802 702.846 725.907 713.14ZM494.815 91.2186C460.179 111.142 435.545 146.435 430.478 184.683C430.053 187.615 429.773 190.465 429.348 193.398C427.819 206.759 426.391 219.294 419.921 231.08C410.7 248.098 392.363 262.295 375.919 274.442C370.478 278.34 365.554 282.133 360.773 285.843C351.213 293.262 342.785 299.646 335.137 304.046C288.771 331.293 242.541 362.11 232.906 412.778C229.899 428.91 231.744 451.468 238.01 474.363C244.255 496.886 258.353 514.7 275.952 522.243C289.869 528.063 305.441 527.747 320.496 527.536C324.524 527.523 328.612 527.284 332.495 527.354C350.712 527.629 368.508 532.178 385.224 541.189C399.849 548.907 413.245 559.827 423.838 572.553C434.99 585.916 444.288 600.73 453.337 615.112C461.66 628.566 470.376 642.371 480.597 655.118C516.961 700.257 568.27 729.311 621.345 735.073C678.098 741.216 737.236 716.8 771.82 673.095C778.897 664.032 785.393 653.958 791.683 644.195C802.412 627.462 813.409 610.191 828.261 597.615C844.391 583.92 865.009 579.357 885.029 574.754C890.622 573.457 896.442 572.222 901.952 570.78C952.408 557.311 991.287 527.073 1008.68 487.88C1026.55 447.839 1020.13 389.314 978.718 361.097C962.243 349.835 942.375 343.021 923.272 336.535C908.882 331.563 893.893 326.551 880.343 319.368C837.11 296.998 808.048 255.532 780.044 215.569C771.497 203.395 762.702 190.788 753.661 179.091C721.022 136.417 684.249 105.915 644.644 88.1798C599.91 68.21 548.81 66.8799 507.992 84.4073C503.557 86.382 499.145 88.7281 494.815 91.2186Z" fill="url(#paint29_linear_1464_4195)"/>
<path d="M714.598 716.188C683.282 734.202 645.429 742.534 608.095 738.086C553.717 731.729 501.101 700.739 463.842 653.043C453.039 639.286 443.802 624.245 434.815 609.636C425.578 594.594 416.092 579.12 404.98 565.158C390.321 546.706 359.019 515.362 314.338 512.836C309.773 512.581 305.147 512.554 300.52 512.527C287.756 512.38 274.559 512.483 262.771 507.358C246.309 500.121 233.43 482.758 229.359 461.673C225.563 442.734 226.656 421.942 231.972 404.482C239.642 380.1 254.217 357.698 275.49 337.588C293.798 320.336 316.718 305.423 343.447 293.121C360.441 285.265 374.628 277.873 388.089 269.554C408.25 257.189 421.572 243.957 427.705 230.251C432.526 219.605 432.987 208.394 433.549 196.358C433.765 192.393 433.897 188.285 434.4 184.155C438.44 141.121 470.02 100.873 512.968 84.0411C533.679 75.9681 556.387 72.6989 580.205 74.3601C602.681 76.0254 625.79 82.1271 646.742 92.1576C684.117 110.024 719.321 140.468 751.089 182.298C759.819 193.791 768.305 206.192 776.685 218.078C804.877 258.7 834.044 300.682 877.999 322.636C890.906 329.038 904.902 333.66 918.444 338.16C937.836 344.48 957.849 351.21 974.428 362.988C993.346 376.493 1006.46 397.943 1011.46 423.299C1016.24 447.623 1013.26 473.147 1002.98 494.999C993.174 516.002 977.534 534.216 956.782 549.226C937.74 562.867 914.847 573.156 890.494 578.908C884.612 580.371 878.564 581.545 872.517 582.72C852.165 586.745 831.07 590.815 814.525 603.788C799.485 615.704 788.921 632.726 778.852 649.272C773.467 657.938 768.021 666.831 761.933 674.942C749.117 691.723 732.927 705.645 714.598 716.188ZM319.797 305.765C275.058 331.5 244.328 365.883 232.344 404.461C226.944 421.776 226.079 442.629 229.792 461.424C233.925 482.282 246.659 499.728 262.955 506.676C274.743 511.801 287.796 511.781 300.56 511.928C305.186 511.955 309.812 511.983 314.378 512.237C332.039 513.215 349.529 518.9 366.248 529.254C380.567 538.107 393.967 550.37 405.474 564.682C416.67 578.788 426.156 594.262 435.392 609.304C444.38 623.913 453.616 638.954 464.336 652.567C501.512 700.119 553.901 731.047 608.279 737.404C667.389 744.304 727.476 719.534 761.456 674.448C767.545 666.337 772.991 657.444 778.375 648.778C788.589 632.149 799.153 615.127 814.193 603.211C830.882 590.155 851.894 585.941 872.329 582.06C878.232 580.968 884.424 579.711 890.161 578.331C941.881 566.055 983.835 534.817 1002.44 494.732C1024.26 448.197 1011.77 390.475 974.017 363.609C957.437 351.831 937.425 345.101 918.177 338.698C904.635 334.198 890.639 329.575 877.649 323.03C833.611 300.931 804.444 258.949 776.169 218.182C767.933 206.214 759.387 194.04 750.656 182.547C718.888 140.717 683.912 110.334 646.537 92.4679C602.254 71.2787 553.668 68.3102 513.134 84.3297C470.186 101.162 438.895 141.244 434.916 184.05C434.557 188.097 434.281 192.289 434.065 196.253C433.42 208.145 432.898 219.583 428.077 230.23C421.882 244.162 408.56 257.394 388.255 269.842C374.794 278.162 360.463 285.637 343.613 293.409C335.199 297.481 327.301 301.448 319.797 305.765Z" fill="url(#paint30_linear_1464_4195)"/>
<path d="M703.784 718.76C696.857 722.745 689.681 726.297 682.172 729.272C654.468 740.215 624.265 744.147 594.885 740.501C566.476 736.872 538.728 726.718 512.635 710.427C488.094 695.164 465.538 674.342 447.436 650.575C436.196 635.725 426.212 619.385 416.787 603.684C407.301 588.21 397.628 572.075 386.471 557.37C367.704 532.449 336.755 502.053 296.22 497.718C291.345 497.258 286.408 497.026 281.554 496.937C270.793 496.599 259.887 496.343 249.94 492.08C234.698 485.293 223.411 468.359 221.224 448.878C219.648 433.462 222.962 416.194 231.72 396.37C242.836 370.965 259.637 347.092 280.499 327.602C301.278 307.969 326.035 292.575 352.029 283C357.722 280.877 363.727 278.959 369.442 277.208C379.841 273.914 390.529 270.455 400.613 265.614C418.596 256.806 431.135 244.217 435.821 229.999C439.26 219.956 439 209.161 438.761 198.736C438.706 193.968 438.484 188.911 438.799 184.121C439.849 162.586 448.375 141.359 463.417 123.106C477.614 105.722 496.945 91.9141 517.988 84.4181C557.66 70.2385 605.301 74.9027 648.595 97.0446C684.278 115.308 716.876 144.563 748.045 186.354C756.465 197.641 764.701 209.609 772.771 221.289C801.151 262.572 830.505 305.214 875.265 326.897C887.468 332.744 900.699 337.038 913.393 341.066C932.929 347.303 953.003 353.806 969.687 366.1C988.649 380.347 1001.81 402.54 1006.62 428.578C1011.16 453.811 1007.77 479.956 996.767 502.222C976.386 543.902 932.141 575.498 878.498 586.768C872.306 588.026 865.886 589.222 859.528 590.191C838.7 593.723 817.273 597.215 800.251 609.695C784.94 620.806 775.181 637.558 765.689 653.771C761.21 661.34 756.608 669.364 751.364 676.605C739.003 693.509 722.834 707.802 703.784 718.76ZM320.826 297.876C281.86 320.29 249.687 355.503 231.803 396.515C223.189 416.255 219.793 433.379 221.368 448.795C223.472 468.132 234.676 484.922 249.835 491.564C259.638 495.91 270.544 496.166 281.305 496.505C286.159 496.593 291.24 496.743 296.116 497.202C336.878 501.599 367.909 532.139 386.677 557.06C397.833 571.765 407.507 587.899 417.076 603.518C426.645 619.136 436.485 635.559 447.724 650.409C485.714 700.374 539.326 733.095 594.863 740.129C655.359 747.768 718.148 722.019 750.743 676.194C755.987 668.953 760.445 661.012 765.068 653.36C774.56 637.147 784.464 620.313 799.775 609.201C816.879 596.866 838.368 593.146 859.279 589.758C865.554 588.645 871.912 587.676 878.104 586.418C931.603 575.231 975.704 543.718 995.941 502.122C1019.2 454.756 1007.34 395.133 968.965 366.515C952.426 354.138 932.352 347.635 912.898 341.542C900.122 337.37 886.83 333.303 874.543 327.313C829.556 305.568 800.201 262.926 771.739 221.499C763.752 209.963 755.433 197.85 747.013 186.563C715.844 144.773 683.329 115.662 647.791 97.3154C604.723 75.2348 557.227 70.4876 517.555 84.6671C473.199 100.389 440.837 141.279 438.716 183.976C438.484 188.911 438.622 193.824 438.678 198.592C438.917 209.016 439.116 220.039 435.677 230.083C430.846 244.383 418.246 257.199 400.18 265.863C390.096 270.704 379.408 274.163 369.009 277.457C363.294 279.208 357.289 281.126 351.596 283.249C341.157 287.141 330.784 292.148 320.826 297.876Z" fill="url(#paint31_linear_1464_4195)"/>
</g>
</g>
<defs>
<linearGradient id="paint0_linear_1464_4195" x1="401.1" y1="23.3916" x2="923.887" y2="932.228" gradientUnits="userSpaceOnUse">
<stop stop-color="#4AFEBF"/>
<stop offset="1" stop-color="#51EEDA"/>
</linearGradient>
<linearGradient id="paint1_linear_1464_4195" x1="404.18" y1="27.2505" x2="913.495" y2="912.666" gradientUnits="userSpaceOnUse">
<stop stop-color="#4AFEBF"/>
<stop offset="1" stop-color="#51EEDA"/>
</linearGradient>
<linearGradient id="paint2_linear_1464_4195" x1="406.226" y1="30.3246" x2="902.666" y2="893.356" gradientUnits="userSpaceOnUse">
<stop stop-color="#4AFEBF"/>
<stop offset="1" stop-color="#51EEDA"/>
</linearGradient>
<linearGradient id="paint3_linear_1464_4195" x1="409.659" y1="33.9938" x2="892.62" y2="873.595" gradientUnits="userSpaceOnUse">
<stop stop-color="#4AFEBF"/>
<stop offset="1" stop-color="#51EEDA"/>
</linearGradient>
<linearGradient id="paint4_linear_1464_4195" x1="412.842" y1="37.3288" x2="882.615" y2="854.003" gradientUnits="userSpaceOnUse">
<stop stop-color="#4AFEBF"/>
<stop offset="1" stop-color="#51EEDA"/>
</linearGradient>
<linearGradient id="paint5_linear_1464_4195" x1="416.196" y1="40.4465" x2="872.749" y2="834.138" gradientUnits="userSpaceOnUse">
<stop stop-color="#4AFEBF"/>
<stop offset="1" stop-color="#51EEDA"/>
</linearGradient>
<linearGradient id="paint6_linear_1464_4195" x1="420.21" y1="43.2409" x2="863.602" y2="814.053" gradientUnits="userSpaceOnUse">
<stop stop-color="#4AFEBF"/>
<stop offset="1" stop-color="#51EEDA"/>
</linearGradient>
<linearGradient id="paint7_linear_1464_4195" x1="423.758" y1="46.0238" x2="854.027" y2="794.022" gradientUnits="userSpaceOnUse">
<stop stop-color="#4AFEBF"/>
<stop offset="1" stop-color="#51EEDA"/>
</linearGradient>
<linearGradient id="paint8_linear_1464_4195" x1="427.682" y1="48.9004" x2="844.943" y2="774.284" gradientUnits="userSpaceOnUse">
<stop stop-color="#4AFEBF"/>
<stop offset="1" stop-color="#51EEDA"/>
</linearGradient>
<linearGradient id="paint9_linear_1464_4195" x1="431.426" y1="51.3605" x2="835.82" y2="754.376" gradientUnits="userSpaceOnUse">
<stop stop-color="#4AFEBF"/>
<stop offset="1" stop-color="#51EEDA"/>
</linearGradient>
<linearGradient id="paint10_linear_1464_4195" x1="434.044" y1="54.9074" x2="825.465" y2="735.369" gradientUnits="userSpaceOnUse">
<stop stop-color="#4AFEBF"/>
<stop offset="1" stop-color="#51EEDA"/>
</linearGradient>
<linearGradient id="paint11_linear_1464_4195" x1="437.889" y1="57.5512" x2="823.891" y2="728.594" gradientUnits="userSpaceOnUse">
<stop stop-color="#4AFEBF"/>
<stop offset="1" stop-color="#51EEDA"/>
</linearGradient>
<linearGradient id="paint12_linear_1464_4195" x1="442.498" y1="59.0573" x2="824.877" y2="723.802" gradientUnits="userSpaceOnUse">
<stop stop-color="#4AFEBF"/>
<stop offset="1" stop-color="#51EEDA"/>
</linearGradient>
<linearGradient id="paint13_linear_1464_4195" x1="447.279" y1="61.5488" x2="825.567" y2="719.181" gradientUnits="userSpaceOnUse">
<stop stop-color="#4AFEBF"/>
<stop offset="1" stop-color="#51EEDA"/>
</linearGradient>
<linearGradient id="paint14_linear_1464_4195" x1="449.302" y1="64.9285" x2="823.883" y2="716.117" gradientUnits="userSpaceOnUse">
<stop stop-color="#4AFEBF"/>
<stop offset="1" stop-color="#51EEDA"/>
</linearGradient>
<linearGradient id="paint15_linear_1464_4195" x1="449.894" y1="68.9996" x2="820.742" y2="713.699" gradientUnits="userSpaceOnUse">
<stop stop-color="#4AFEBF"/>
<stop offset="1" stop-color="#51EEDA"/>
</linearGradient>
<linearGradient id="paint16_linear_1464_4195" x1="450.089" y1="73.0085" x2="817.413" y2="711.581" gradientUnits="userSpaceOnUse">
<stop stop-color="#4AFEBF"/>
<stop offset="1" stop-color="#51EEDA"/>
</linearGradient>
<linearGradient id="paint17_linear_1464_4195" x1="450.799" y1="76.7978" x2="814.483" y2="709.042" gradientUnits="userSpaceOnUse">
<stop stop-color="#4AFEBF"/>
<stop offset="1" stop-color="#51EEDA"/>
</linearGradient>
<linearGradient id="paint18_linear_1464_4195" x1="451.456" y1="80.7027" x2="811.546" y2="706.699" gradientUnits="userSpaceOnUse">
<stop stop-color="#4AFEBF"/>
<stop offset="1" stop-color="#51EEDA"/>
</linearGradient>
<linearGradient id="paint19_linear_1464_4195" x1="451.487" y1="84.0746" x2="808.369" y2="704.494" gradientUnits="userSpaceOnUse">
<stop stop-color="#4AFEBF"/>
<stop offset="1" stop-color="#51EEDA"/>
</linearGradient>
<linearGradient id="paint20_linear_1464_4195" x1="451.698" y1="87.5818" x2="805.269" y2="702.245" gradientUnits="userSpaceOnUse">
<stop stop-color="#4AFEBF"/>
<stop offset="1" stop-color="#51EEDA"/>
</linearGradient>
<linearGradient id="paint21_linear_1464_4195" x1="452.292" y1="91.4451" x2="802.302" y2="699.919" gradientUnits="userSpaceOnUse">
<stop stop-color="#4AFEBF"/>
<stop offset="1" stop-color="#51EEDA"/>
</linearGradient>
<linearGradient id="paint22_linear_1464_4195" x1="452.894" y1="94.5743" x2="799.659" y2="697.407" gradientUnits="userSpaceOnUse">
<stop stop-color="#4AFEBF"/>
<stop offset="1" stop-color="#51EEDA"/>
</linearGradient>
<linearGradient id="paint23_linear_1464_4195" x1="452.998" y1="97.7985" x2="796.684" y2="695.277" gradientUnits="userSpaceOnUse">
<stop stop-color="#4AFEBF"/>
<stop offset="1" stop-color="#51EEDA"/>
</linearGradient>
<linearGradient id="paint24_linear_1464_4195" x1="451.365" y1="101.903" x2="792.023" y2="694.118" gradientUnits="userSpaceOnUse">
<stop stop-color="#4AFEBF"/>
<stop offset="1" stop-color="#51EEDA"/>
</linearGradient>
<linearGradient id="paint25_linear_1464_4195" x1="449.45" y1="105.792" x2="787.161" y2="692.883" gradientUnits="userSpaceOnUse">
<stop stop-color="#4AFEBF"/>
<stop offset="1" stop-color="#51EEDA"/>
</linearGradient>
<linearGradient id="paint26_linear_1464_4195" x1="447.587" y1="109.495" x2="782.501" y2="691.723" gradientUnits="userSpaceOnUse">
<stop stop-color="#4AFEBF"/>
<stop offset="1" stop-color="#51EEDA"/>
</linearGradient>
<linearGradient id="paint27_linear_1464_4195" x1="445.437" y1="113.447" x2="777.6" y2="690.893" gradientUnits="userSpaceOnUse">
<stop stop-color="#4AFEBF"/>
<stop offset="1" stop-color="#51EEDA"/>
</linearGradient>
<linearGradient id="paint28_linear_1464_4195" x1="443.664" y1="117.632" x2="772.799" y2="689.814" gradientUnits="userSpaceOnUse">
<stop stop-color="#4AFEBF"/>
<stop offset="1" stop-color="#51EEDA"/>
</linearGradient>
<linearGradient id="paint29_linear_1464_4195" x1="441.169" y1="121.593" x2="767.636" y2="689.136" gradientUnits="userSpaceOnUse">
<stop stop-color="#4AFEBF"/>
<stop offset="1" stop-color="#51EEDA"/>
</linearGradient>
<linearGradient id="paint30_linear_1464_4195" x1="438.762" y1="125.148" x2="762.797" y2="688.463" gradientUnits="userSpaceOnUse">
<stop stop-color="#4AFEBF"/>
<stop offset="1" stop-color="#51EEDA"/>
</linearGradient>
<linearGradient id="paint31_linear_1464_4195" x1="436.394" y1="129.062" x2="757.748" y2="687.719" gradientUnits="userSpaceOnUse">
<stop stop-color="#4AFEBF"/>
<stop offset="1" stop-color="#51EEDA"/>
</linearGradient>
<clipPath id="clip0_1464_4195">
<rect width="358" height="793" fill="white" transform="translate(358 770) rotate(-180)"/>
</clipPath>
</defs>
</svg>
