<svg width="273" height="605" fill="none" xmlns="http://www.w3.org/2000/svg"><g opacity=".3" clip-path="url(#clip0)"><path d="M-394.23-145.23c2.97-1.71 6.12-3.38 9.22-4.87 45.63-22.01 103.73-22.63 159.52-1.56 45.94 17.22 89.84 47.92 134.33 93.66 11.93 12.33 23.8 25.57 35.4 38.37 40.72 45.28 82.83 92.24 139.97 112.1 15.56 5.4 32.14 8.76 48.03 11.92 24.52 4.93 49.84 9.99 71.8 22.7 25.37 14.55 44.87 39.51 54.96 70.04 9.7 29.58 9.8 61.31.36 89.45-17.75 52.41-65.83 95.9-128.57 116.19-7.26 2.41-14.87 4.45-22.1 6.41-24.23 6.77-49.36 13.76-67.61 30.42-16.3 14.94-25.42 36.01-34.07 56.37-4.1 9.69-8.4 19.78-13.42 29.12-16.12 29.78-41.9 54.73-74.56 72.06a212.88 212.88 0 01-103.4 24.5c-68.28-1.3-138.36-33.48-192.38-88.39-15.97-16.3-30.52-34.44-44.62-51.82-13.86-17.22-28.22-35.03-43.95-51.18-26.5-26.94-68.32-59.13-117.4-59.15-5.87 0-11.87.52-17.75.98-12.92.98-26.33 2.11-39.08-1.98-19.82-6.17-36.46-25.16-42.14-48.26-4.55-18.34-3.27-39.29 3.91-64.23 9.23-31.82 25.64-62.37 47.33-88.32 21.8-26.03 49.09-47.6 78.88-62.25 6.64-3.23 13.4-6.25 19.95-9.13 11.92-5.25 24.17-10.7 35.36-17.72 19.81-12.42 32.61-28.87 36.04-46.08 2.42-12.09.36-24.82-1.61-37.17a201.7 201.7 0 01-2.34-17.55c-4.15-48.45 24.27-98.35 69.94-124.63zM174.5 380.69c39.84-22.92 69.33-56.45 82.38-94.87 19.93-58.8-3.84-127.59-54.11-156.38-21.66-12.44-46.88-17.56-71.05-22.4-16.06-3.21-32.64-6.56-48.37-12.01C25.62 74.92-16.74 27.8-57.64-17.81c-11.44-12.75-23.3-26-35.23-38.32-44.2-45.48-87.79-75.91-133.39-93.03-55.14-20.72-112.56-20.2-157.47 1.55-3.1 1.49-6.13 3.09-9.1 4.8-44.9 25.84-72.76 74.68-68.55 122.22.5 5.71 1.42 11.63 2.38 17.38 2 12.62 4.11 25.47 1.55 38.08-3.55 18-16.66 34.93-37.13 47.74-11.3 7.09-23.66 12.59-35.59 17.84a579.4 579.4 0 00-19.94 9.13c-59.76 29.56-106.49 85.31-125.05 149.03-7.04 24.41-8.34 45.08-3.93 62.91 5.62 22.25 21.43 40.56 40.49 46.43 12.28 3.78 25.47 2.78 38.1 1.8a270 270 0 0117.92-.93c49.94-.02 92.4 32.53 119.16 59.91 15.84 16.08 30.15 34.07 44.08 51.4 14 17.44 28.47 35.47 44.38 51.66 53.53 54.32 122.92 86.31 190.57 87.52 73.63 1.43 144.2-36.84 175.65-95.22 4.98-9.17 9.17-19.2 13.33-28.77 8.8-20.6 17.9-41.95 34.69-57.32 18.74-17.09 44.09-24.2 68.6-30.99a439.4 439.4 0 0022.03-6.52 245.99 245.99 0 0044.58-19.8z" fill="url(#paint0_linear)"/><path d="M-380.96-133.38a164.5 164.5 0 019.87-5.25c44.77-21.22 101.46-21.76 155.5-1.43 44.83 16.82 87.6 46.85 130.68 91.65 11.39 11.9 22.7 24.44 33.66 36.6 39.61 44.15 80.51 89.76 135.7 110.3 14.71 5.45 30.17 9.15 45.11 12.71 23.08 5.47 47.13 11.12 67.94 23.6 49.1 29.32 71.97 97.32 52.3 154.79-17.5 50.8-64.27 93.24-125.27 113.26a684.86 684.86 0 01-21.57 6.55c-23.5 6.79-47.88 13.79-65.34 30.29-15.8 14.8-24.89 35.41-33.62 55.38-4.36 9.98-9 20.27-14.35 29.8-16.27 29-41.87 53.25-73.95 69.8a208.6 208.6 0 01-101.48 23.24c-66.94-1.76-135.7-33.68-188.58-87.63-15.44-15.88-29.5-33.43-43.17-50.32-14.36-17.81-29.26-36.33-45.65-52.84-25.86-25.84-66.93-57-115.98-58.21-5-.05-9.95.01-14.9.07-14.38.22-27.95.56-40.87-4.31-18.73-7.1-33.2-25.87-37.9-48.8-3.61-18-1.88-37.9 5.72-62.63 18.07-59.48 59.32-110.75 113.9-142.17 3.09-1.77 6.34-3.5 9.49-5.16 8.22-4.3 16.87-8.1 25.24-11.9 10.8-4.9 22-9.87 32.12-15.7 14.86-8.55 33.54-22.67 38.41-42.47 2.87-11.31 1.14-23.21-.5-34.72a184 184 0 01-1.84-15.93c-1.75-24.93 5.31-50.09 20.08-72.8a151.55 151.55 0 0149.25-45.77zM166.4 381.68c39.07-22.48 68.09-55.3 81.08-92.8 19.39-56.43-3-123.1-51.16-151.79-20.52-12.22-43.24-17.6-67.18-23.3-15.06-3.5-30.58-7.31-45.46-12.81C27.98 80.3-13.22 34.42-52.97-9.95c-10.95-12.16-22.15-24.75-33.65-36.6-42.77-44.53-85.25-74.3-129.8-91.13-53.46-20.08-109.4-19.53-153.62 1.38-48.82 23.11-80.7 73.1-77.35 121.43.36 5.21 1.07 10.52 1.82 15.65 1.66 11.79 3.4 23.97.5 35.75-5.1 20.66-24.38 35.27-39.56 44.01-10.35 5.96-21.55 10.94-32.35 15.84-8.37 3.79-17.02 7.6-25.13 11.82-58.8 30.47-103.24 83.58-122.16 145.9-7.5 24.39-9.26 44-5.68 61.42 4.55 22.15 18.46 40.22 36.33 47.08 12.39 4.73 25.74 4.52 39.88 4.14 4.95-.06 10-.18 15.01-.13 49.9 1.16 91.51 32.74 117.68 58.85 16.55 16.55 31.46 35.08 45.77 53.06 13.56 16.96 27.55 34.4 42.93 50.16 52.51 53.58 120.52 85.2 186.9 87 72.86 1.87 140.77-34.14 173.16-91.9l1.06.57-1.06-.57c5.25-9.46 9.77-19.68 14.2-29.55 8.88-20.2 18.01-41 34.19-56.16 17.95-16.92 42.56-24.06 66.34-30.85 7.05-2 14.42-4.2 21.46-6.5a233.27 233.27 0 0042.51-19.04z" fill="url(#paint1_linear)"/><path d="M-368.36-121.15a141.2 141.2 0 0111.26-5.9c44.02-20.5 99.18-20.88 151.52-1.2 43.8 16.54 85.29 45.85 127.1 89.76A1499.7 1499.7 0 01-46.56-3.67C-8.04 39.35 31.88 83.77 85.05 104.88c13.86 5.5 28.2 9.55 42.08 13.3 22.9 6.44 44.53 12.45 64.3 24.66 23.26 14.45 40.9 38 49.9 66.36 8.8 27.75 8.61 57.46-.6 83.7-17.1 48.96-62.74 90.32-121.91 110.46a550.38 550.38 0 01-20.4 6.31c-23.03 6.81-46.79 13.9-63.62 30.46-15.12 14.71-24.24 34.76-33.11 54.22-4.74 10.35-9.58 21.04-15.27 30.76-33.18 56.9-101.03 91.99-172.84 89.65-65.89-2.22-133.22-33.94-184.85-87-15.07-15.5-28.76-32.67-42.08-49.18-14.67-18.37-30-37.38-46.97-54.13-35.67-35-76.28-55.42-114.56-57.27-3.3-.15-6.73-.24-10.03-.38-15.96-.49-31.07-1.03-44.63-7.28-17.3-7.92-30.13-26.9-33.56-49.4-2.62-17.54-.31-36.44 7.57-61.2 9.8-30.83 25.6-60.14 45.66-84.58 21.34-26.06 46.56-46.14 74.95-59.69 6.3-3.04 12.9-6.1 19.37-9.1 13.4-6.24 27.2-12.57 40.16-19.3 22.8-11.8 36.55-24.84 40.85-38.75 3.2-10.48 1.95-21.04.61-32.28a148.9 148.9 0 01-1.35-14.32c-2.34-43.77 24.33-87.54 66.92-112.05zm526.58 503.88c38.52-22.17 67.25-54.23 79.95-90.7 18.91-53.95-2.34-118.63-48.21-147.17-19.37-12-40.88-18.08-63.55-24.37-13.93-3.85-28.28-7.9-42.31-13.45C30.4 85.8-9.7 41.04-48.36-2.2a1499.71 1499.71 0 00-31.9-34.82c-41.46-43.53-82.7-72.68-126.2-88.96-51.66-19.5-106.19-19.03-149.66 1.15-48.28 22.51-79.22 69.04-77.16 115.9.22 4.71.79 9.51 1.33 14.03 1.33 10.96 2.74 22.3-.67 33.2-4.49 14.6-18.65 28.17-42.06 40.18-12.98 6.73-26.88 13.12-40.17 19.3-6.37 2.94-12.96 6-19.26 9.04-55.35 26.28-98.83 78.27-119.28 142.77-7.78 24.4-10.06 42.86-7.45 60.11 3.26 21.71 15.65 39.93 32.2 47.55 12.97 6 27.9 6.5 43.58 7 3.3.14 6.72.23 10.03.38 38.73 1.88 80.04 22.5 116.08 57.87 17.14 16.8 32.36 35.87 47.2 54.28 13.32 16.51 26.95 33.58 41.95 48.96 51.16 52.75 117.91 84.22 183.17 86.36 70.9 2.56 137.93-32.2 170.7-88.27 5.58-9.66 10.48-20.24 15.1-30.53 8.93-19.63 18.2-39.91 33.6-54.92 17.37-16.9 41.46-24.16 64.61-31.04a403.68 403.68 0 0020.22-6.36 222.28 222.28 0 0040.62-18.25z" fill="url(#paint2_linear)"/><path d="M-355.31-109.18c3.96-2.28 8.05-4.34 12.2-6.29 43.16-19.7 96.94-20.18 147.5-1.08 42.34 16.06 82.7 44.7 123.34 87.82 9.83 10.46 19.7 21.49 29.3 32.07C-5.23 45.5 33.85 89.23 85.35 111.01c12.84 5.5 25.94 9.68 38.59 13.83 21.8 7.09 42.22 13.8 60.9 25.9 22.06 14.4 38.87 37.25 47.35 64.46 8.4 26.8 7.92 55.5-1.12 80.78-16.8 47.17-61.2 87.38-118.72 107.58-6.36 2.2-13.06 4.3-19.43 6.2-22.3 6.83-45.43 13.99-61.76 30.42-14.33 14.55-23.6 34.09-32.4 52.92-5 10.65-10.21 21.7-16.34 31.68l-.94-.63.94.63c-33.61 55.38-100.5 89.34-170.4 86.5-64.67-2.64-130.68-34.1-181.01-86.44-14.6-15.18-27.98-31.8-40.93-47.94-15.1-18.85-30.75-38.41-48.47-55.46-34.67-33.52-74.93-53.57-113.14-56.34l-1.09-.1c-20.16-1.44-37.48-2.76-52.29-10.93-16.04-8.79-26.98-27.54-29.21-50-2.11-21.49 3.9-43.11 9.36-59.59 19.7-58.95 57.05-106.81 103.71-133.67 4.62-2.66 9.26-5.03 13.96-7.3 9.7-4.55 19.82-9.35 29.5-13.9a2835.96 2835.96 0 0132.06-15.08c24.47-11.44 38.7-22.86 43.33-35.19 3.7-9.6 2.73-19.44 1.78-29.74-.36-4.19-.89-8.42-.86-12.7-.83-41.4 25.25-82.64 65.97-106.08zM150.1 383.9c37.86-21.79 66.22-53.2 78.82-88.58 18.66-52.35-.8-113.66-45.27-142.57-18.34-12-38.8-18.54-60.32-25.64-12.65-4.15-25.75-8.33-38.76-13.89C32.6 91.11-6.66 47.35-44.53 4.97A1688.4 1688.4 0 00-73.7-27.16c-40.45-42.8-80.46-71.34-122.58-87.24-49.97-18.86-103.07-18.48-145.68.92-46.87 21.4-77.71 65.81-76.8 110.41.07 4.2.43 8.4.9 12.52 1 10.12 2.07 20.64-1.89 30.83-4.94 12.8-19.48 24.69-44.5 36.45-10.42 4.82-21.42 10.13-32.06 15.08-9.8 4.61-19.81 9.35-29.5 13.9-52.65 24.59-95.11 75.54-116.56 139.6-5.48 16.19-11.33 37.58-9.19 58.62 2.18 21.6 12.67 39.58 28.02 48.18 14.4 7.97 31.55 9.24 51.36 10.58l1.1.11c38.66 2.8 79.44 22.99 114.54 57 17.72 17.05 33.44 36.71 48.6 55.68 12.95 16.13 26.32 32.75 40.68 47.78 50.02 51.8 115.34 83.06 179.43 85.73 69.1 2.72 135.18-30.62 168.28-85.12 6.01-9.91 11.11-20.9 16.18-31.44 8.95-19.07 18.26-38.78 32.93-53.52 16.75-16.97 40.17-24.14 62.68-31.1 6.37-1.9 13.08-4 19.43-6.2a239.81 239.81 0 0038.44-17.72z" fill="url(#paint3_linear)"/><path d="M-342.55-97.18c4.3-2.47 8.82-4.79 13.37-6.82 42.4-18.98 94.66-19.31 143.52-.84 41.18 15.56 80.38 43.69 119.7 85.81C-56.85-9.33-47.77.84-39 10.73c36.95 41.3 75 84 124.73 106.51 11.69 5.29 23.15 9.68 34.38 13.91 20.76 7.83 40.42 15.27 58.26 27.42 43.13 29.38 61.7 89.9 43.28 140.63-16.5 45.4-59.71 84.62-115.42 104.67a515.88 515.88 0 01-18.58 6.15c-21.67 6.9-44.17 14.13-59.82 30.47C14.1 454.83 4.92 473.74-3.9 492c-5.32 11.12-10.91 22.54-17.42 32.87-33.88 53.64-99.72 86.11-167.84 82.82-63.43-3.05-128-34.3-177.27-85.8-14.23-14.8-27.24-31.05-39.83-46.8-15.59-19.46-31.67-39.5-49.8-56.75-33.85-32.1-73.45-51.79-111.72-55.4-21.4-2.05-38.48-5.25-52.32-14.28-14.61-9.61-23.85-28.47-24.91-50.42-.91-20.42 5.12-40.74 11.16-58 20.36-58.3 56.87-105.09 101.15-130.72 4.52-2.6 9.05-4.91 13.64-7.11 7.86-3.65 15.88-7.53 23.68-11.3 13.16-6.4 26.83-12.94 39.93-18.43 17.93-7.54 39.34-17.95 45.77-31.47 4.2-8.72 3.57-17.72 2.96-27.19-.22-3.68-.5-7.48-.43-11.18.22-21.51 7.82-43.18 22-62.32a139.4 139.4 0 0142.61-37.71zM141.8 385c37.2-21.4 65.2-52.17 77.7-86.47 18.07-49.8-.08-109.1-42.5-138-17.6-12-37.1-19.39-57.75-27.28-11.22-4.23-22.86-8.67-34.55-13.96C34.57 96.58-3.73 53.72-40.8 12.2c-8.71-9.78-17.78-19.94-26.88-29.65-39.2-41.9-78.1-69.77-118.94-85.23-48.28-18.22-99.96-17.92-141.75.86-46 20.61-76.07 61.8-76.5 104.82-.08 3.7.25 7.32.47 11 .65 9.3 1.28 19.05-3.07 28.29-6.79 14.16-27.51 24.48-47 32.62-13.1 5.49-26.7 12.14-39.93 18.44-7.8 3.75-15.94 7.7-23.69 11.28-50.01 23.07-91.4 72.82-113.67 136.47-6 17.08-11.98 37.22-11.04 57.2.96 21.27 9.89 39.57 23.9 48.65 13.43 8.82 30.16 11.94 51.28 14 38.72 3.64 78.74 23.54 112.95 56 18.3 17.3 34.45 37.46 50.04 56.91 12.52 15.65 25.53 31.9 39.6 46.66 48.83 51 112.82 82 175.8 85.02 67.47 3.22 132.48-28.92 165.96-81.74 6.46-10.16 11.94-21.52 17.26-32.64 8.98-18.5 18.22-37.58 32.16-52.05 16.07-16.87 38.86-24.12 60.8-31.04 6.1-1.9 12.4-3.92 18.48-6.1A240.82 240.82 0 00141.8 385z" fill="url(#paint4_linear)"/><path d="M-329.72-85.08c4.62-2.66 9.48-5.16 14.53-7.34 41.54-18.19 92.37-18.44 139.49-.72 40.08 15.17 77.98 42.58 116.12 83.92 8.2 8.9 16.42 18.1 24.34 27.01C.8 58.3 38.25 100.17 86.26 123.52c9.95 4.83 19.52 8.98 28.81 13.16 20.38 8.93 39.59 17.36 56.94 29.94 19.84 14.37 34.86 35.9 42.19 60.84 7.49 24.98 6.72 51.65-1.92 75.08-16.57 44.26-57.34 81.35-112.12 101.74a423.64 423.64 0 01-17.62 6.04c-21.04 6.98-42.86 14.11-58 30.59-12.99 14.07-22.1 32.35-30.85 49.99-5.8 11.54-11.82 23.5-18.76 34.09-34.27 51.95-99.11 83.11-165.32 79.31-62.2-3.46-125.45-34.45-173.47-85.05-13.76-14.5-26.41-30.36-38.74-45.68-15.84-19.89-32.41-40.53-51.13-58.04-32.85-30.6-72.1-49.92-110.2-54.51-22.96-2.75-39.22-8.34-51.2-17.7-13.3-10.38-20.82-29.05-20.57-51.02.3-19.07 6.34-38.37 12.9-56.5 12.7-34.7 41.65-94.88 98.1-127.37 4.41-2.53 9.05-4.9 13.81-7.06a888.07 888.07 0 0023.4-11.27c13.94-6.85 28.31-13.95 42.28-19.2 20.7-7.82 41.53-16.43 48.25-27.92 4.6-7.78 4.3-15.95 4.02-24.58-.07-3.18-.2-6.47 0-9.67 1.87-36.97 26.13-72.47 63.22-93.8zm464.24 470.9c36.42-20.96 63.25-50.46 75.77-84.19 17.55-47.16.54-104.46-39.56-133.4-17.22-12.36-36.31-20.85-56.52-29.73-9.4-4.12-18.97-8.28-28.92-13.1C36.93 101.96-.64 59.85-36.81 19.14A1988.25 1988.25 0 00-61.15-7.88c-37.95-41-75.62-68.26-115.35-83.34-46.6-17.57-96.75-17.42-137.79.63-44.42 19.55-74.33 58.45-76.2 99.23-.1 3.14-.03 6.32.04 9.5.28 8.63.62 17.37-4.41 25.68-7.15 12.03-28.3 20.83-49.34 28.84-13.97 5.25-28.23 12.29-42.16 19.13a866.77 866.77 0 01-23.51 11.34c-64.81 29.68-97.26 96.26-110.85 133.23-6.57 17.85-12.56 36.97-12.88 55.76-.28 21.4 6.9 39.24 19.72 49.3 11.69 9.1 27.6 14.6 50.1 17.31 38.67 4.56 78.21 24.14 111.48 54.96 18.89 17.55 35.46 38.2 51.36 58.2 12.22 15.37 24.92 31.07 38.5 45.51 47.66 50.23 110.44 80.9 172.07 84.4 65.6 4 129.6-26.82 163.51-78.13l.95.63-.95-.63c6.9-10.42 12.91-22.37 18.6-33.85 8.92-17.88 18.14-36.22 31.3-50.53 15.5-16.84 37.54-24.1 58.86-31.1 5.8-1.87 11.83-3.88 17.51-5.97a237.71 237.71 0 0035.1-16.4z" fill="url(#paint5_linear)"/><path d="M-317.3-72.9a168.83 168.83 0 0115.92-7.98c40.79-17.47 90.03-17.68 135.41-.43C-127.17-66.58-90.31-39.73-53.48.6a1539.6 1539.6 0 0121.36 23.9C3.33 64.44 40.04 105.58 86.4 129.88c6.7 3.47 13.14 6.8 19.36 9.95 22.27 11.21 41.5 20.95 59.54 34.74 39.08 29.96 54.71 85.13 37.27 131.2-16.1 42.53-55.85 78.6-108.87 99a381.63 381.63 0 01-16.66 5.92c-20.4 7.05-41.6 14.27-56.11 30.53C8.76 454.97-.33 472.51-9.01 489.52c-6.23 12.08-12.66 24.57-20.1 35.59l-.88-.52.88.52c-34.47 50.31-98.37 80.06-162.72 75.92-60.98-3.88-122.86-34.77-169.74-84.41-13.4-14.12-25.68-29.61-37.65-44.56-16.27-20.37-33.1-41.46-52.5-59.15-31.86-29.13-70.52-48.2-108.71-53.46-21.68-3.06-38.07-9.89-50.04-21.02-16.3-15.08-17.17-38.75-16.22-51.6 1.36-18.52 8-37.28 14.8-54.97 24.37-63.83 63.16-110.47 109.14-131.37a863.3 863.3 0 0023.51-11.33c14.43-7.28 29.46-14.76 44.3-19.78l2.67-.95c21.08-7.15 41.05-13.95 48.12-23.3 5.18-6.79 5.2-14.13 5.26-21.92.07-2.68.07-5.47.26-8.21 3.27-35.29 26.23-67.7 61.34-87.9zM126.1 387c35.89-20.65 62.35-49.5 74.77-82.14 17.2-45.2 1.75-99.3-36.55-128.69-17.87-13.74-37.04-23.37-59.2-34.64-6.22-3.16-12.78-6.42-19.47-9.9C38.95 107.25 2.11 65.9-33.52 25.89c-7-7.84-14.19-16-21.3-23.78-36.6-40.17-73.14-66.76-111.7-81.33-44.8-17-93.66-16.87-133.83.4-43.33 18.63-72.34 54.52-75.95 93.8-.25 2.64-.25 5.43-.32 8.1-.06 7.8-.16 15.77-5.76 23.1-7.39 9.81-27.69 16.8-49.16 24.04l-2.67.95c-14.67 5.07-29.6 12.49-44.08 19.65-7.73 3.86-15.8 7.92-23.62 11.4-45.54 20.64-83.85 66.86-107.95 130.1-6.66 17.45-13.36 36.1-14.63 54.27-.92 12.4-.03 35.33 15.5 49.83 11.67 10.86 27.64 17.5 48.87 20.51 38.6 5.48 77.6 24.64 109.94 54.08 19.47 17.8 36.35 39 52.69 59.49 11.96 14.94 24.25 30.43 37.47 44.5 46.58 49.37 107.93 79.85 168.34 83.76 63.6 4.12 126.78-25.35 160.9-75.02 7.39-10.84 13.82-23.34 19.94-35.36 8.79-17.06 17.82-34.72 30.31-48.64 14.9-16.63 36.25-24.09 57.05-31.22a413.12 413.12 0 0016.55-5.86c11.8-4.45 22.8-9.76 33.04-15.65z" fill="url(#paint6_linear)"/><path d="M-304.14-60.98a154.94 154.94 0 0116.75-8.32c39.92-16.68 87.75-16.8 131.45-.2 37.7 14.34 73.24 40.47 108.9 80.02 6.02 6.64 12 13.46 17.84 20.06C5.82 70.05 41.95 110.94 86.94 136.17c27.88 15.6 50.9 28.87 72.12 46.4 17.51 14.39 30.64 34.66 37.03 57.21 6.6 23.45 5.63 47.45-2.77 69.28-15.8 40.74-54.26 75.76-105.57 96.06a339.28 339.28 0 01-15.59 5.75c-20.78 7.42-40.34 14.42-54.29 30.66-11.5 13.36-20.3 30.14-28.85 46.34-6.66 12.62-13.56 25.82-21.65 37.22-34.7 48.68-97.59 77.1-160.2 72.42-59.7-4.47-120.2-35-166-83.78-12.93-13.8-25.03-28.97-36.63-43.54-16.59-20.92-33.84-42.5-53.77-60.32-30.86-27.66-68.98-46.3-107.29-52.53-20.84-3.39-37.31-11.63-48.93-24.44-13.62-15.01-14.03-36.6-11.92-52.03 2.26-16.68 8.51-33.32 16.61-53.36 16.47-41.12 45.68-93.97 93.78-121.65 4.07-2.34 8.16-4.4 12.42-6.42 7.93-3.53 15.93-7.7 23.67-11.57 15.08-7.65 30.6-15.56 46.2-20.28 4.13-1.21 8.1-2.47 12.01-3.55 18.57-5.41 34.62-10.1 41.22-16.98 5.57-5.84 5.99-12.24 6.49-19.27.21-2.17.36-4.45.62-6.8 4.83-33.1 27.3-63.04 60.21-81.97zm421.9 449.27c35.33-20.33 61.61-48.5 73.86-80.16 16.75-43.19 2.9-94.25-33.67-124.19-21.16-17.42-43.12-30.12-71.82-46.13C40.9 112.41 4.6 71.49-30.55 31.8c-5.85-6.6-11.82-13.42-17.84-20.06-35.36-39.28-70.78-65.2-108.13-79.44-43.11-16.36-90.55-16.3-129.97.22-41.3 17.33-70.32 51.17-75.65 88.23a70.99 70.99 0 00-.58 6.63c-.5 7.02-.93 14.16-7.1 20.5-6.98 7.23-23.25 12.05-42.2 17.54-3.93 1.09-7.89 2.34-12.03 3.55-15.3 4.71-30.9 12.5-45.9 20.27-7.86 3.93-15.86 8.1-23.79 11.63-54.96 24.9-87.58 82.78-105.18 127.04-8.23 20.57-14.19 36.45-16.4 52.96-2.02 15.07-1.7 35.99 11.43 50.4 11.25 12.43 27.3 20.48 47.8 23.77 38.66 6.32 77.2 25.17 108.35 53.09 20.17 17.99 37.3 39.62 54.07 60.6 11.6 14.56 23.63 29.61 36.56 43.41 45.44 48.42 105.42 78.8 164.6 83.13 61.92 4.5 124.16-23.55 158.42-71.69 8.05-11.22 14.9-24.25 21.56-36.87 8.6-16.38 17.4-33.16 29.06-46.75 14.33-16.6 35.05-24.13 55.1-31.28 5.13-1.78 10.42-3.8 15.6-5.75a236.56 236.56 0 0030.53-14.64z" fill="url(#paint7_linear)"/><path d="M-294.8-47.3a169.75 169.75 0 0121.4-10.42c39.1-16.06 85.58-16 127.41-.08 36.54 13.85 71.03 39.41 105.26 78.02 4.5 5.02 9.07 10.16 13.47 15.25C7.64 75 43.6 115.84 87.36 142.23c24.53 14.89 43.49 28.74 65.27 48C187.3 220.95 200.13 271 183.88 312c-15.52 38.96-52.77 73-102.27 93.14-4.9 1.94-9.79 3.87-14.63 5.63-20.15 7.5-39.19 14.65-52.46 30.78-10.63 12.85-19.2 28.77-27.44 44.22-7.24 13.39-14.68 27.2-23.43 38.97-17.24 23.25-41.17 42-69.12 54.28a183.64 183.64 0 01-88.6 14.8c-58.48-4.87-117.65-35.13-162.27-83.14-12.63-13.54-24.36-28.32-35.67-42.62-16.94-21.3-34.5-43.43-55.02-61.5-29.87-26.19-67.4-44.58-105.87-51.6-20.36-3.8-36.85-13.36-47.76-27.74-11.95-15.68-10.71-37.2-7.58-52.63 3.03-15.36 9.37-30.3 16.6-47.78l1.75-4.09c26.62-63.96 61.37-105.93 103.37-124.83 7.93-3.54 16.04-7.77 23.83-11.8 15.56-8.09 31.86-16.44 48.1-20.8 23.79-6.52 45.25-13 56.04-17.17 5.8-2.16 6.3-7.13 6.75-12.96.34-2.98.61-6.07 1.64-8.86 1.04-26.97 22.01-54.42 55.36-73.6zm404.05 436.82c34.88-20.07 60.8-47.59 73-78.34 15.95-40.24 3.34-89.38-30.74-119.58-21.71-19.15-40.56-33.06-65.03-47.84-44-26.54-80.18-67.54-115.16-107.18-4.5-5.03-8.96-10.23-13.46-15.25-34.1-38.4-68.3-63.7-104.49-77.44-41.42-15.72-87.44-15.75-126 0C-317.44-37.8-347-5.4-347.92 26.33l-.05.17-.05.18c-1.05 2.5-1.32 5.6-1.61 8.4-.57 5.89-1.18 11.95-8.02 14.57-10.96 4.12-31.97 10.64-56.22 17.12-16.07 4.41-32.25 12.7-47.7 20.72a625.95 625.95 0 01-23.94 11.87c-41.5 18.75-75.87 60.36-102.35 123.8l-1.76 4.09c-7.17 17.31-13.52 32.25-16.5 47.44-3 14.9-4.2 35.97 7.26 51.05 10.61 14.11 26.8 23.4 46.64 27.07 38.81 7.11 76.76 25.7 106.86 52.04 20.69 18.13 38.25 40.25 55.27 61.66 11.3 14.3 22.97 28.98 35.53 42.4 44.17 47.98 102.82 78.1 160.84 82.95 60.13 4.95 121.36-21.79 156-68.25 8.65-11.7 16.15-25.4 23.27-38.73 8.2-15.56 16.87-31.54 27.65-44.63 13.65-16.5 33.8-24 53.28-31.39a562.8 562.8 0 0014.63-5.64c9.9-3.93 19.23-8.58 28.15-13.7z" fill="url(#paint8_linear)"/><path d="M-283.1-34.86a189.78 189.78 0 0123.74-11.45c38.24-15.27 83.23-15.24 123.44.15C-100.6-32.64-67.22-7.75-34.3 29.85c2.5 2.81 5.06 5.74 7.56 8.55 35.18 40.26 71.51 81.75 114.7 109.94 22.7 14.77 37.25 29.1 51.48 42.89 2.35 2.3 4.65 4.5 7 6.81 27.07 26.17 46.4 72.48 28.25 117.06-15.12 37.12-51.24 70.07-98.98 90.21-4.5 1.86-9.17 3.67-13.56 5.46-19.52 7.58-37.92 14.8-50.63 30.9-9.85 12.41-18.08 27.4-25.98 41.91-7.71 14.1-15.84 28.75-25.3 41.07l-.77-.58.77.58c-35.64 46-95.14 71.17-155.2 65.59-57.25-5.3-114.98-35.35-158.53-82.52-12.15-13.22-23.7-27.68-34.64-41.6-17.26-21.85-35.08-44.41-56.23-62.57-28.75-24.76-65.75-42.73-104.44-50.64-25.74-5.27-39.56-19.87-46.65-31.17-8.22-13-9.33-30.97-3.28-53.05 3.4-12.66 8.88-25.04 15.26-39.4 1.61-3.57 3.16-7.24 4.82-10.98 25.41-58.43 53.95-95.66 88.94-115.8 3.75-2.15 7.62-4.08 11.55-5.9 8.03-3.6 16.15-7.84 23.98-12.05 16.23-8.46 33-17.24 50.11-21.37 10.83-2.57 21-4.75 30.05-6.6 12.3-2.54 22.14-4.53 28.21-6.71 4.67-3.86 5.93-7.52 7.36-11.41.73-2.03 1.51-4.24 2.86-6.48 1.26-24.02 21.25-48.86 52.5-66.85zm383.79 425.8c34.44-19.83 60.1-46.76 72.3-76.48 17.8-43.65-1.14-89.3-27.78-114.98-2.36-2.31-4.65-4.5-7-6.82-14.13-13.84-28.72-28-51.2-42.62C43.68 121.81 7.22 80.1-28.08 39.9c-2.5-2.81-5.05-5.73-7.55-8.55-32.8-37.38-65.82-62.18-100.9-75.54-39.8-15.18-84.23-15.25-122.08-.06-44.07 17.6-73.48 47.7-75.12 76.93l.01.28-.15.24a39.7 39.7 0 00-2.82 6.3c-1.53 3.96-2.93 8.14-8.15 12.31l-.11.07-.11.06c-6.18 2.24-16.13 4.3-28.72 6.86a695.1 695.1 0 00-30.05 6.6c-16.82 4.11-33.49 12.83-49.6 21.22-7.9 4.1-16.01 8.33-23.99 12.04-39.94 18.16-71.55 56.42-99.46 120.68-1.66 3.74-3.2 7.41-4.82 10.98-6.33 14.2-11.81 26.57-15.17 39.06-5.84 21.67-4.83 38.96 3.02 51.58 6.9 10.97 20.36 25.2 45.4 30.28 38.93 8.07 76.34 26.24 105.27 51.05 21.21 18.26 39.2 40.87 56.53 62.84 10.94 13.92 22.42 28.26 34.57 41.49 43.19 46.78 100.51 76.64 157.3 81.9 59.43 5.5 118.2-19.39 153.54-64.92 9.41-12.15 17.43-26.73 25.13-40.83C-8.1 468.19.13 453.2 10.03 440.62c13.08-16.47 32.6-24.04 51.51-31.4 4.45-1.69 9.06-3.6 13.56-5.46a271.38 271.38 0 0025.59-12.82z" fill="url(#paint9_linear)"/><path d="M-272.55-21.88a191.2 191.2 0 0127.07-12.8c37.37-14.47 80.95-14.35 119.41.29 34.22 13.12 66.3 37.3 98.03 74.12 8.43 9.8 16.77 20.23 24.87 30.22 26.76 33.53 54.45 68.14 91.3 84.58l.18.05.06.1c8.36 8.67 16.5 15.7 23.75 21.94 11.2 9.52 20.85 17.89 27.9 29.36 31.3 21.83 42.39 71.12 25.24 112.34-14.83 35.34-49.64 67.25-95.73 87.47-4.1 1.78-8.38 3.5-12.49 5.28-18.89 7.65-36.77 15.01-48.98 30.97-8.92 11.73-16.8 25.79-24.32 39.2-8.4 14.94-17.04 30.46-27.5 43.36l-.77-.58.78.58c-35.86 44.37-94.35 68.22-152.61 62.2-55.92-5.77-112.33-35.57-154.74-81.78-11.85-12.95-23.03-27.03-33.84-40.73-17.52-22.3-35.7-45.24-57.43-63.64-27.59-23.24-64.12-40.9-102.92-49.77-25.94-5.88-39.06-22.06-45.48-34.48-7-13.7-6.66-31.18.95-53.58 3.5-10.22 8.52-20.58 13.8-31.53 2.7-5.5 5.43-11.18 8.09-17.25A295.78 295.78 0 01-470.5 95.7c23.21-16.44 50.31-28.66 76.33-34.11 17.64-3.71 34.23-5.93 46.42-7.67 5.7-.8 10.78-1.37 14.5-2.05 4.93-3.13 6.6-5.84 8.35-8.9.99-1.6 1.97-3.2 3.3-4.98 2.08-21.56 20.2-43.27 49.04-59.87zM87.32 156.17c-37.27-16.64-65.01-51.36-91.84-85a810.65 810.65 0 00-24.8-30.12c-31.55-36.49-63.46-60.61-97.26-73.53-38.11-14.55-81.13-14.7-118.11-.3-43.89 16.9-72.49 44.35-74.76 71.44l.01.29-.15.23a29.93 29.93 0 00-3.36 4.87c-1.98 3.18-3.73 6.24-9.1 9.63l-.12.06-.1.07c-3.72.67-8.92 1.32-14.72 2.17-12.14 1.56-28.74 3.79-46.32 7.6-25.34 5.36-52.94 17.73-75.6 33.85a292.12 292.12 0 00-96.86 117.56c-2.77 6.14-5.5 11.82-8.1 17.26-5.26 10.94-10.29 21.3-13.74 31.35-7.48 21.88-7.9 38.97-1.04 52.16 6.23 12.1 18.92 27.8 44.24 33.59 39.15 8.97 76.02 26.71 103.73 50.17 21.84 18.35 40.04 41.57 57.67 63.8 10.75 13.6 21.82 27.73 33.67 40.69 42.11 45.94 98.11 75.53 153.57 81.27 57.33 5.68 115.21-17.96 150.64-61.79 10.3-12.66 18.94-28.19 27.23-43.06 7.56-13.59 15.44-27.64 24.48-39.44 12.4-16.37 31.4-24.08 49.69-31.52a434.3 434.3 0 0012.48-5.28c45.65-19.97 80.2-51.58 94.82-86.5 16.85-40.47 6-88.87-24.78-110.27l-.17-.05-.13-.22c-6.8-11.32-16.4-19.57-27.59-29.1-7.07-6.18-15.33-13.15-23.58-21.88z" fill="url(#paint10_linear)"/><path d="M-443.57 82.4c19.26-11.08 40.12-19.13 59.7-22.78 28.7-5.38 54.67-5.82 63.47-6.05 5.38-2.37 7.37-4.25 9.57-6.54 1.13-1.09 2.15-2.11 3.79-3.35 3.2-24.99 32.13-50.57 75.6-66.94 36.62-13.76 78.67-13.49 115.44.5 33.11 12.74 63.96 36.3 94.38 72.12A956.14 956.14 0 012.24 78.85c25.33 32.3 51.58 65.69 86.48 81.79l.17.05.13.22c7.03 8.4 13.75 15.23 19.73 21.3 10.35 10.6 19.25 19.7 25.06 31.59 29.28 21.09 39.16 68.3 22.24 107.62-19.72 45.93-66.44 72.67-92.42 84.55a332.4 332.4 0 01-11.38 4.93c-18.3 7.9-35.62 15.23-47.26 31.15-8 11.05-15.38 23.94-22.33 36.3-9.07 16.06-18.45 32.6-29.78 46l-.6-.54.6.54c-35.96 42.66-93.51 65.1-150.1 58.68-54.68-6.18-109.65-35.78-150.88-81.2-11.55-12.69-22.43-26.5-32.88-39.82-17.88-22.67-36.27-46.22-58.57-64.6-33.7-27.77-73.79-41.92-101.5-48.83-27.88-6.95-39.67-26.68-44.37-37.9-5.9-14.33-4.17-31.44 5.3-54.18 3.4-8.1 7.7-16.15 12.37-24.84a527.67 527.67 0 0011.43-22.4c21.92-46.16 54.68-85.97 94.61-115.1a196.17 196.17 0 0118.14-11.76zm127.7-29.1c-1.1.63-2.48 1.28-4.08 2.06l-.12.06-.17-.04c-8.58.1-34.55.54-63.36 5.99-25.83 4.75-54.15 17.4-77.66 34.58-39.71 29.01-72.2 68.51-93.97 114.44a528.27 528.27 0 01-11.43 22.4c-4.56 8.63-8.91 16.85-12.26 24.78-9.33 22.22-10.97 38.98-5.2 52.81 4.5 10.88 15.98 30.06 43.16 36.83 27.89 6.96 68.25 21.09 102.26 49.13 22.36 18.48 40.92 42.08 58.86 64.86 10.45 13.32 21.33 27.14 32.82 39.72 41.04 45.09 95.6 74.48 149.84 80.63 56.05 6.27 113-15.95 148.63-58.14 11.22-13.35 20.6-29.88 29.63-45.77 7.07-12.41 14.38-25.41 22.49-36.53 11.84-16.33 29.38-23.79 47.9-31.82 3.78-1.58 7.67-3.23 11.38-4.93 25.87-11.81 72.05-38.24 91.63-83.64 16.62-38.58 7.01-85.05-21.78-105.55l-.24-.16-.12-.22c-5.65-11.84-14.11-20.44-24.76-31.3-5.99-6.09-12.7-12.92-19.74-21.32C52.7 145.9 26.4 112.42.9 80.07a995.72 995.72 0 00-23.86-29.5c-30.3-35.59-60.9-59-93.67-71.63-36.32-13.97-78.02-14.14-114.14-.54-43.14 16.18-71.7 41.4-74.47 65.86l-.1.35-.32.19c-1.63 1.23-2.76 2.32-3.9 3.41a24 24 0 01-6.3 5.09z" fill="url(#paint11_linear)"/><path d="M-433.81 80.01c19.48-11.21 40.46-19.04 60.19-22.19 26.82-4.3 51.64-3.93 65.97-2.21 6.21-1.68 8.48-2.83 11.35-4.2 1-.57 2.16-1.09 3.43-1.68 3.86-22.58 31.98-45.5 75.26-61.18 35.75-12.96 76.33-12.72 111.47.75 31.95 12.23 61.63 35.3 90.8 70.22C-7.43 68.89.14 78.73 7.59 88.38c25.1 32.43 48.75 63.07 81.58 78.89l.18.04.12.22a521.8 521.8 0 0015.2 19.53c10.12 12.5 18.15 22.38 22.7 35.13 27.36 20.3 35.75 65.43 19.24 102.92-19.13 43.38-64.1 69.85-89.13 81.62-3.43 1.67-6.81 3.18-10.2 4.69-17.67 7.97-34.4 15.55-45.65 31.4-7.09 10.09-13.68 21.8-20.14 32.98-9.8 17.07-19.9 34.9-32.45 49l-.6-.53.6.53c-36.05 40.96-92.6 62.08-147.6 55.35-53.29-6.54-107-35.99-147.16-80.56-11.25-12.42-21.83-25.97-31.98-39.02-18.14-23.12-36.89-47.05-59.7-65.56-25.68-20.68-59.33-36.9-100.08-47.89-20.8-5.6-36.48-20.61-43.2-41.2-6.2-19.44 2.52-40.43 9.6-54.6 3.1-6.33 6.93-12.64 10.91-19.48 4.81-8.19 9.78-16.61 14.62-26.28 22.22-44.88 53.97-83.65 91.73-111.98a152.06 152.06 0 0120.02-13.57zm142.54-29.29l-.44.25c-1.5.72-2.66 1.24-3.76 1.87-3.04 1.6-5.36 2.65-11.86 4.34l-.29.02c-14.2-1.79-38.86-2.1-65.68 2.2-26.43 4.22-55.48 17.13-79.62 35.27-37.54 28.2-69.07 66.56-91.2 111.37-4.77 9.78-9.84 18.27-14.6 26.29a260.67 260.67 0 00-10.81 19.4c-6.92 13.95-15.55 34.59-9.45 53.34 3.12 9.49 13.22 32.39 42 40.15 40.99 11.13 74.87 27.23 100.73 48.24 22.99 18.56 41.8 42.6 60 65.83 10.15 13.05 20.84 26.53 31.92 38.9 39.96 44.25 93.27 73.5 146.1 80.01 54.43 6.76 110.48-14.21 146.16-54.82 12.43-14.03 22.48-31.69 32.3-48.76 6.38-11.3 13.04-22.9 20.24-33.04 11.34-16.2 28.29-23.9 46.3-32.07 3.38-1.5 6.87-3.07 10.19-4.69 24.85-11.8 69.39-38.03 88.37-80.9 16.33-36.79 7.93-81.17-18.83-100.94l-.23-.15-.13-.22c-4.43-12.54-12.46-22.42-22.52-34.8-4.53-5.6-9.69-12-15.13-19.42-33.07-15.98-57.88-48.14-81.95-79.27C-.84 79.6-8.48 69.64-16.31 60.37-45.25 25.6-74.74 2.87-106.4-9.38c-34.62-13.33-74.84-13.47-110.27-.7-43 15.66-70.8 38.11-74.17 60.26l-.42.54z" fill="url(#paint12_linear)"/><path d="M-424.16 77.68c19.7-11.34 40.92-19 60.72-21.76 22.8-3.16 43.34-1.06 58.28.45 3.89.4 7.32.76 10.24 1 6.68.4 9.26-.2 12.67-1.15 1.12-.35 2.3-.59 3.87-.9 4.62-20.25 31.82-40.44 74.91-55.42 35-12.24 74.05-11.85 107.34.93C-65.3 12.67-36.8 34.95-8.97 69.03c7.48 9.18 14.81 18.88 21.9 28.13 23.6 31.1 45.87 60.63 76.52 75.95l.17.05.13.22c3.58 5.7 7.12 10.84 10.06 15.45 10.35 15.43 17.83 26.65 21 40.8 25.32 19.56 32.4 62.67 16.16 98.09-18.65 40.9-61.84 66.93-85.88 78.87l-8.96 4.28c-17.16 8.11-33.38 15.83-43.99 31.76-6.07 9.05-11.69 18.88-17.63 29.19-10.64 18.42-21.57 37.6-35.37 52.58-36.04 39.2-91.7 59.08-145.08 51.85-51.95-7.02-104.28-36.1-143.42-79.93-10.95-12.15-21.23-25.43-31.2-38.16-18.38-23.55-37.39-47.92-60.83-66.51-24.46-19.33-56.76-34.73-98.66-46.95-30.33-8.91-39.43-34.15-41.92-44.58-4.8-19.8 4.89-39.88 13.83-55.14a271.06 271.06 0 019.8-15.3c5.6-8.35 11.8-17.93 17.54-28.85 22.68-43.82 53.36-81.4 88.79-108.67a199.6 199.6 0 0121.85-14.48zm147.06-20.9l-.5.14-4.26.98c-3.48.83-6.22 1.68-13.14 1.12-2.91-.23-6.35-.6-10.35-.93-14.82-1.58-35.2-3.63-57.88-.53-27.14 3.75-56.86 16.75-81.74 35.9-35.2 27.15-65.84 64.56-88.37 108.14-5.66 11.03-12.04 20.56-17.58 29.02a375.74 375.74 0 00-9.8 15.3c-8.78 15.03-18.27 34.7-13.61 53.99 2.47 10.15 11.37 34.77 40.83 43.45 42.07 12.27 74.55 27.71 99.13 47.26 23.62 18.64 42.69 43.12 61.14 66.78 9.96 12.73 20.24 26 31.19 38.16 38.89 43.4 90.87 72.37 142.47 79.3 52.93 7.2 107.91-12.58 143.64-51.3l.6.53-.6-.54c13.69-14.9 24.57-33.92 35.21-52.34 5.94-10.3 11.56-20.14 17.74-29.26 10.88-16.22 27.2-24 44.7-32.31l8.96-4.28c23.82-11.8 66.68-37.64 85.18-78.03 15.93-34.95 8.9-77.2-16-96.28l-.23-.15-.02-.29c-3.03-13.93-10.52-25.15-20.86-40.58a564.99 564.99 0 01-10-15.34c-30.95-15.6-53.33-45.06-76.89-76.33-7.08-9.25-14.31-19-21.9-28.12-27.63-33.76-55.95-56-86.45-67.74-32.94-12.69-71.64-12.98-106.31-.94-42.92 15.03-69.85 34.93-73.98 54.74l-.32.47z" fill="url(#paint13_linear)"/><path d="M-414.69 75.3c19.92-11.46 41.38-18.97 61.44-21.29 27.74-3.22 52.83 1.68 67.84 4.61l3.17.67c9.2 1.74 11.77 1.87 18.09 1.9 5.22-17.66 31.66-35.36 74.5-49.76C-155.51-.01-117.84.28-86.28 12.59c29.62 11.52 57 33.12 83.51 66.21 7.18 8.9 14.1 18.4 20.95 27.5 22.07 29.93 42.94 58.06 71.64 73.05l.23.15.13.22c1.4 2.7 2.8 5.13 4.09 7.61 11.2 20.5 18.72 34.06 20.18 50.35 23.3 18.83 29.1 59.73 13.16 93.37-17.15 36.4-54.37 61.33-82.58 75.95-2.6 1.35-5.08 2.63-7.74 3.87-16.57 8.36-32.38 16.28-42.49 32.06-5 7.86-9.7 15.99-14.65 24.7-11.56 20.13-23.54 40.8-38.7 56.7l-.6-.53.6.53c-36.15 37.5-90.74 56.18-142.5 48.46-50.61-7.5-101.5-36.37-139.63-79.19-10.71-12-20.63-24.9-30.35-37.47-18.64-23.99-37.9-48.8-61.91-67.36-29.92-23.21-67.63-36.81-97.13-46.06-32.16-10.06-39.27-39.23-40.75-47.9-3.48-20.56 7.86-40.56 18.07-55.67 2.66-4.02 5.79-8.01 8.9-12.3 6.42-8.67 13.81-18.5 20.17-30.36 23.08-42.87 52.9-79.38 85.97-105.43 7.22-5.77 14.99-11.12 23.02-15.74zm151.7-12.59l-1.19-.04c-6.49-.07-9.17-.14-18.43-2l-3.17-.66c-15.82-3.05-39.76-7.74-67.39-4.58-27.85 3.28-58.3 16.56-83.8 36.65-32.95 26-62.44 62.31-85.48 105.02-6.47 11.92-13.8 21.85-20.33 30.6-3.11 4.27-6.23 8.27-8.9 12.3-10.05 14.86-21.19 34.45-17.85 54.5 1.35 8.46 8.48 36.88 39.77 46.7 29.67 9.3 67.56 22.95 97.65 46.22 24.07 18.67 43.4 43.58 62.1 67.69 9.66 12.46 19.75 25.4 30.29 37.36 37.88 42.66 88.37 71.32 138.74 78.67 51.35 7.5 105.4-10.85 141.16-47.98 15.12-15.74 27.1-36.4 38.55-56.47 4.95-8.71 9.76-16.9 14.76-24.76 10.32-16.19 26.23-24.18 43.02-32.67 2.49-1.28 5.15-2.52 7.74-3.87 28-14.5 64.99-39.3 81.94-75.28 15.63-33.17 9.91-73.39-13.06-91.67l-.23-.15.04-.18c-1.4-16.18-8.84-29.63-20.06-50.13-1.33-2.3-2.61-4.8-4.07-7.32-28.93-15.15-49.76-43.45-71.93-73.32a790.58 790.58 0 00-20.95-27.5C-30.46 46.98-57.5 25.47-87.05 14.06-118.3 2.01-155.6 1.64-189.33 13c-42.84 14.4-68.95 31.92-73.62 49.26l-.03.45z" fill="url(#paint14_linear)"/><path d="M-405.37 73.17c20.14-11.6 41.83-18.95 62.2-21 30.14-2.85 56.35 3.75 73.55 8.94 3.25 1.06 5.74 1.83 8.06 2.54 4.18 1.4 7.19 2.31 11.74 3.35 7.36-19.03 44.23-34.39 74.05-43.93 33.28-10.65 69.53-10.27 99.33 1.29 28.12 10.92 55.1 32.6 79.94 64.31a995.64 995.64 0 0120.07 26.98c20.67 28.54 40 55.5 66.67 70.04l.24.16.13.22c11.41 24.93 18.28 41.19 17.49 59.67 21.55 18.36 26 56.38 10.26 88.59-16.74 33.8-52.44 58.3-79.46 72.97-2.09 1.2-4.13 2.24-6.29 3.33-16.16 8.57-31.45 16.63-41.03 32.55-3.73 6.25-7.4 12.6-11.38 19.44-12.53 22-25.53 44.73-42.57 61.71l-.49-.6.49.6c-36.07 35.85-89.72 53.1-140.08 45.02-49.38-7.92-98.85-36.59-135.89-78.56-10.3-11.8-20.2-24.4-29.63-36.71-18.9-24.43-38.4-49.68-62.87-68.27-28.51-21.54-64.32-34.63-95.65-45.02-26.28-8.76-37.72-32.2-39.57-51.2-2.16-21.32 10.83-41.26 22.3-56.2 2.48-3.34 5.3-6.57 8.22-10.16 7.28-8.73 15.52-18.6 22.59-31.01 24.06-42.71 52.02-77.12 83.08-102.32a195.98 195.98 0 0124.5-16.73zm156.5-4.51l-.63-.08a89.55 89.55 0 01-12.55-3.47c-2.2-.79-4.7-1.55-7.94-2.61-17.03-5.15-43.06-11.7-72.93-8.86-28.63 2.7-59.91 16.3-85.86 37.4-30.95 25.13-58.76 59.3-82.77 101.83-7.11 12.6-15.46 22.52-22.74 31.26-2.98 3.47-5.63 6.75-8.29 10.04-11.3 14.71-24.1 34.23-22.02 55.16 1.88 18.54 13.01 41.44 38.6 50 31.56 10.56 67.48 23.58 96.11 45.34 24.71 18.75 44.28 44.1 63.18 68.54 9.42 12.3 19.21 24.98 29.56 36.6 36.81 41.82 86.04 70.33 135.07 78.15 49.84 7.94 103-9.17 138.68-44.65 17-16.81 29.88-39.46 42.3-61.41 3.99-6.83 7.65-13.2 11.38-19.44 9.86-16.22 25.3-24.52 41.64-33.04 2.15-1.1 4.13-2.24 6.29-3.33 26.79-14.54 62.28-38.92 78.74-72.42 15.54-31.8 11.13-69.25-10.1-87.06l-.3-.27.09-.35c.92-18.25-6-34.34-17.29-59.05-26.8-14.76-46.3-41.77-66.87-70.37-6.43-8.9-13.06-18.12-20-26.87-24.71-31.49-51.46-53.01-79.34-63.78-29.56-11.4-65.43-11.86-98.42-1.23-42.76 13.77-68.22 28.86-73.32 43.67l-.27.3z" fill="url(#paint15_linear)"/><path d="M-396 70.85c20.35-11.71 42.4-18.98 63-20.58 31.43-2.42 58.64 5.66 76 12.66 4.78 1.94 8.13 3.68 11.23 5.26 3.35 1.74 6.28 3.27 10.29 4.63 6.26-12.54 30.44-25 73.63-38.28 32.97-10.18 66.85-9.6 95.37 1.52 27.01 10.54 52.7 31.5 76.3 62.31C16.4 107.03 22.8 116.1 29 124.83c19.1 27.1 37.1 52.78 61.66 66.92l.23.16.13.22c9.51 25.44 14.12 42.86 10.7 61.38 19.47 17.51 22.6 53.5 7.26 83.87-12.54 24.8-37.57 48-74.22 69.08L33 407.48l-4.74 2.72c-15.75 8.77-30.67 17.21-39.8 33.16-2.43 4.19-4.84 8.65-7.43 13.07-13.53 24.34-27.64 49.46-46.88 67.7-36.48 34.63-87.9 50.15-137.5 41.63-47.97-8.28-96.11-36.69-132.15-77.92-10-11.53-19.66-23.99-28.9-35.96-19.15-24.88-38.91-50.56-63.95-69.12-27.53-20.34-62.04-32.71-92.6-43.55l-1.62-.53c-27.13-9.73-37.69-35.44-38.4-54.51-.86-22.37 13.74-42.05 26.6-56.63a594.8 594.8 0 017.86-8.48c8.08-8.6 17.19-18.24 24.74-31.08 25.15-42.6 51.35-74.97 80.25-99.08A162.18 162.18 0 01-396 70.85zm161.25 3.75l-.59-.25a67.84 67.84 0 01-11.04-4.93c-3.04-1.47-6.45-3.32-11.16-5.15-17.25-7.06-44.23-14.98-75.37-12.59-29.51 2.19-61.52 16.07-87.81 38.09-28.75 23.87-54.84 56.17-79.88 98.7-7.66 12.91-16.82 22.72-25.01 31.4a589.48 589.48 0 00-7.87 8.47c-12.63 14.45-27.14 33.8-26.25 55.7.75 18.6 11.05 43.89 37.42 53.32l1.63.53c30.62 10.95 65.24 23.25 93 43.75 25.28 18.71 45.1 44.51 64.25 69.38 9.24 11.98 18.73 24.39 28.84 35.86 35.74 40.96 83.64 69.21 131.34 77.5A159.44 159.44 0 00-67 523.19c19.13-18.19 33.13-43.24 46.62-67.41a344.8 344.8 0 017.42-13.06c9.34-16.36 24.43-24.76 40.34-33.77l4.74-2.72c37.43-21.25 62.8-44.64 75.5-69.67 15.13-29.95 12.03-65.38-7.17-82.46l-.3-.27.09-.34c3.42-18.23-1.06-35.44-10.5-60.76-24.68-14.37-42.68-40.05-61.85-67.25-6.2-8.74-12.48-17.87-19.12-26.36-23.36-30.65-48.81-51.46-75.76-61.88-28.29-10.97-61.82-11.45-94.45-1.46-43.48 13.3-67.43 25.91-73.14 38.13l-.18.7z" fill="url(#paint16_linear)"/><path d="M-386.7 68.72c20.7-11.91 42.87-18.96 63.95-20.25 35.89-2.05 64.6 9.41 78.5 16.5 5.33 2.65 9.01 5.22 12.73 7.62 3.32 2.2 6.46 4.34 10.5 6.26 8.26-12.37 40.06-23.05 73.34-32.68 32.1-9.39 64.56-8.73 91.33 1.64 26.08 10.2 50.48 30.43 72.71 60.41 6.36 8.5 12.34 17.37 18.2 26.02 17.6 25.75 34.1 50.1 56.53 63.86l.23.16.13.22c8.5 28.5 9.56 45.62 3.86 62.97 17.42 16.78 19.25 50.75 4.24 79.16-12.44 23.42-36.3 45.35-72.9 67.3l-2.97 1.7c-15.4 9.16-29.9 17.8-38.73 34.02l-2.78 5.1c-14 26.08-30.02 55.52-51.94 75.47a158.76 158.76 0 01-134.9 38.22c-47.28-8.83-92.87-36.36-128.43-77.28-9.76-11.37-19.06-23.46-28.06-35.27-19.34-25.2-39.25-51.4-65.02-69.97-24.42-17.73-53.67-28.6-81.99-39.1l-10.81-4.03c-28.04-10.53-37.6-37.84-37.24-57.83.38-23.52 16.77-42.9 30.95-57.22a203 203 0 017.64-7.33c8.84-8.31 18.75-17.82 26.8-30.81 16.57-26.97 42.77-66.22 77.33-95.77 8.5-7.38 17.45-13.71 26.8-19.1zm166.06 11.82l-.58-.25a68.12 68.12 0 01-11.14-6.63c-3.55-2.35-7.34-4.86-12.56-7.57-13.84-6.98-42.2-18.34-77.8-16.31-30.34 1.78-63.13 15.81-89.88 38.83-34.45 29.5-60.54 68.68-77.05 95.47-8.1 13.16-18.19 22.62-26.97 31.05-2.63 2.54-5.23 4.91-7.64 7.33-14.02 14.07-30.08 33.27-30.5 56.22-.27 19.64 9.03 46.23 36.37 56.57 3.55 1.33 7.16 2.77 10.81 4.03 28.32 10.52 57.63 21.48 82.23 39.27 25.84 18.68 45.92 44.91 65.21 70.3 9 11.8 18.3 23.89 28 35.15 35.32 40.76 80.6 68.03 127.6 76.88 47.62 8.92 97.65-5.21 133.79-37.88l.42.49-.42-.49c21.77-19.7 37.68-49.08 51.63-74.98l2.77-5.11c8.93-16.57 23.66-25.34 39.16-34.55l2.97-1.71c36.44-21.7 60.02-43.62 72.3-66.81 14.8-28 12.95-61.51-4.22-77.85l-.3-.27.1-.35c5.65-17.17 4.71-34.06-3.66-62.35-22.48-13.87-39.16-38.27-56.83-64.14a913.25 913.25 0 00-18.2-26C-7.06 79.22-31.28 59.02-57.12 49c-26.6-10.33-58.72-10.9-90.49-1.7-33.39 9.7-65.3 20.44-72.77 32.66l-.25.58z" fill="url(#paint17_linear)"/><path d="M-377.55 66.53c20.91-12.03 43.43-18.99 64.88-19.9 39.73-1.48 69.8 13.6 80.93 20.22 5.71 3.31 9.83 6.65 13.72 9.84 3.58 2.92 6.87 5.57 11.11 8.1 8.78-9.44 38.5-17.6 72.87-27.13 31.23-8.6 62.28-7.86 87.37 1.87 24.97 9.8 48.14 29.43 69.06 58.41 6.01 8.4 11.76 17.12 17.37 25.6 16.05 24.32 31.22 47.38 51.45 60.64l.24.16.02.28c6.37 28.12 5.6 46.88-2.92 64.67 15.21 16 15.83 47.88 1.23 74.45-15.42 27.92-45.24 49.18-69.43 64.42l-.99.57c-15.14 9.6-29.46 18.56-37.93 35.16-15.04 29.6-31.74 60.17-55.19 80.25l-.42-.48.42.48c-36.22 31.25-85.74 44.22-132.38 34.73-45.93-9.31-90.13-36.47-124.68-76.65a724.3 724.3 0 01-27.4-34.63c-19.48-25.7-39.76-52.28-65.99-70.87-22.19-15.65-48.32-25.67-73.52-35.34a557.05 557.05 0 01-17.75-6.92c-27.03-10.82-37.59-38.59-35.95-61.2 1.71-25.02 20.85-44.97 35.18-57.76 2.43-2.13 4.98-4.33 7.63-6.59 9.49-7.95 20.1-16.99 28.56-30.06 21.06-32.63 44.57-66.38 74.43-92.64a209.5 209.5 0 0128.08-19.68zm170.96 19.84l-.47-.31c-4.48-2.7-8-5.5-11.76-8.47a108.37 108.37 0 00-13.55-9.79c-10.96-6.58-40.85-21.6-80.24-20.04-31.2 1.26-64.73 15.57-92 39.47-29.8 26.1-53.31 59.84-74.27 92.4-8.5 13.25-19.33 22.41-28.82 30.37-2.66 2.26-5.2 4.45-7.53 6.52-14.1 12.66-33.08 32.38-34.66 56.87-1.54 22.28 8.75 49.32 35.26 60 5.77 2.38 11.59 4.6 17.75 6.92 25.37 9.71 51.5 19.73 73.75 35.49 26.41 18.64 46.64 45.39 66.23 71.03 8.8 11.49 17.87 23.41 27.33 34.52 34.32 40.02 78.34 67.13 123.94 76.35 46.28 9.4 95.41-3.49 131.37-34.44 23.23-19.96 39.81-50.45 54.81-79.89 8.63-16.83 23-25.98 38.42-35.58l.99-.57c24.08-15.18 53.73-36.2 69.05-64.06 14.5-26.22 13.86-57.64-1.28-73.25l-.3-.27.2-.4c8.47-17.62 9.37-36.16 3.02-64-20.47-13.42-35.64-36.48-51.75-60.9-5.62-8.5-11.36-17.2-17.37-25.61C.73 89.97-22.26 70.39-47 60.75c-24.8-9.76-55.61-10.34-86.63-1.87-34.65 9.54-64.66 17.73-72.58 27.13l-.38.36z" fill="url(#paint18_linear)"/><path d="M-368.4 64.34c21.13-12.16 43.99-19.01 65.97-19.5 41.93-.99 72.3 16.4 83.38 23.94 5.98 4.03 10.37 8.1 14.7 12.06a112.6 112.6 0 0011.9 10c7.2-5.32 25.25-9.85 50.32-15.93A2035.4 2035.4 0 00-120 69.35c21.47-5.47 53.47-9.68 83.4 2.1 23.87 9.41 45.92 28.37 65.42 56.4 5.78 8.26 11.24 16.98 16.62 25.31 14.48 22.88 28.26 44.54 46.48 57.35l.23.15.02.29c4.45 28.35 1.52 48.2-9.7 66.38 13.18 15.27 12.48 45.12-1.77 69.73-14.3 24.78-40.19 44.22-66.25 61.56-13.73 9.22-27.91 18.7-36.13 35.74-12.67 26.34-30.3 59.34-55.49 79.98-36.04 29.53-84.56 41.2-129.9 31.4-44.54-9.68-87.47-36.68-120.89-75.9-9.34-10.9-18.1-22.55-26.67-33.88-19.74-26.15-40.09-53.11-67-71.61-20.15-13.9-43.79-23.15-66.67-32.1a601.33 601.33 0 01-23.07-9.29c-27.7-11.74-37.42-41.6-34.78-64.51 2.35-20.1 14.86-38.58 39.41-58.28 2.4-1.96 4.95-3.88 7.74-5.92 10.02-7.53 21.46-16.16 30.3-29.3 20.1-29.74 42.87-63.5 71.6-89.41a154.04 154.04 0 0128.69-21.2zm176.03 27.9l-.3-.26c-4.8-3.24-8.52-6.67-12.44-10.42-4.26-3.84-8.65-7.9-14.52-12-11.02-7.43-41.15-24.67-82.68-23.77-32.27.7-66.45 15.39-94.06 40.22-28.63 25.85-51.46 59.5-71.45 89.17-8.95 13.2-20.4 21.84-30.47 29.54-2.67 1.98-5.23 3.9-7.73 5.92-24.22 19.5-36.69 37.81-39 57.46-2.61 22.45 6.96 51.81 34.08 63.3 7.52 3.15 15.1 6.11 23.07 9.29 22.88 8.95 46.63 18.14 67.02 32.19 26.97 18.61 47.39 45.68 67.3 71.88 8.57 11.33 17.33 22.99 26.67 33.87 33.35 39.12 76.05 65.96 120.24 75.55 44.95 9.88 93.19-1.77 128.9-31.11l.42.49-.43-.49c24.97-20.52 42.62-53.24 55.18-79.51 8.27-17.21 22.6-26.93 36.51-36.1 25.84-17.22 51.6-36.59 65.87-61.2 14.1-24.38 14.7-53.88 1.66-68.64l-.3-.27-.08-.4c11.24-17.89 14.23-37.63 9.8-65.7-18.28-12.92-32.06-34.58-46.6-57.56a611.1 611.1 0 00-16.62-25.3C8.29 100.55-13.58 81.64-37.22 72.4c-29.69-11.62-61.3-7.5-82.6-1.98-7.78 2-15.07 3.84-22.13 5.56-24.4 5.98-43.52 10.69-50.26 16.03l-.16.24z" fill="url(#paint19_linear)"/><path d="M-359.26 62.16c21.35-12.29 44.56-19.05 67.02-19.23 43.78-.3 74.62 19.17 85.8 27.67 6.2 4.65 10.92 9.55 15.52 14.23 4.17 4.19 8 8.29 12.87 11.93 5.38-2.37 16.18-4.48 30.9-7.39 11.48-2.2 25.71-4.98 41.2-8.62 20.87-4.97 51.6-8.6 79.37 2.23C-3.81 92 17 110.35 35.26 137.5c5.49 8.27 10.77 16.95 15.87 25.3 12.92 21.42 25.14 41.64 41.27 53.89l.24.16.02.28c2.65 28.8-2.43 49.74-16.49 68.09 11.21 14.64 9.28 41.83-4.67 64.95-14.88 24.53-42.62 44.3-62.88 58.75-13.92 9.91-26.05 19.38-33.23 35.67-16.64 37.27-34.91 63.31-55.97 79.68-35.74 27.75-83.3 38.27-127.37 27.89-43.03-10.1-84.64-36.85-117.05-75.33-9.04-10.62-17.62-22.24-26-33.24-19.93-26.47-40.54-53.88-67.9-72.4-18.6-12.46-40.09-21.04-60.98-29.08-9.5-3.77-18.57-7.33-27.39-11.2-28.56-12.71-37.4-44.1-33.61-67.82 4.2-26.3 21.28-49.31 43.76-58.88 14.6-6.2 28.8-18.19 39.66-33.67 2.42-3.44 4.88-7.05 7.4-10.56 18.48-26.45 37.64-53.74 61.32-75.72a149.34 149.34 0 0129.48-22.1zM91.37 217.42c-16.2-12.36-28.48-32.68-41.4-54.11-5.1-8.35-10.21-16.98-15.81-25.18C16.14 111.14-4.55 93-27.14 84.04c-27.5-10.84-57.94-7.24-78.64-2.21-15.42 3.74-29.71 6.4-41.19 8.61-15.01 2.93-25.87 4.93-31.02 7.45l-.32.19-.24-.16c-5-3.86-9-8-13.24-12.3-4.6-4.68-9.25-9.47-15.44-14.12-11.13-8.39-41.62-27.76-85.12-27.49-33.15.19-68.23 15.1-96.12 40.96-23.63 21.81-42.69 49.04-61.16 75.49-2.52 3.5-4.99 7.12-7.4 10.56-11.09 15.6-25.34 27.76-40.15 34.1-22.04 9.3-38.96 32.08-43.07 58.03-3.7 23.37 5.05 54.09 33.02 66.56a535.6 535.6 0 0027.4 11.19c20.84 8.22 42.55 16.67 61.2 29.23 27.55 18.58 48.22 46.1 68.2 72.68 8.28 11.06 16.97 22.61 26.01 33.23 32.28 38.27 73.66 64.85 116.51 74.91 43.72 10.3 90.95-.04 126.48-27.66l.36.37-.36-.37c20.83-16.24 39.06-42.11 55.65-79.2 7.4-16.42 19.58-26.07 33.61-36.05 20.15-14.38 47.78-34.08 62.57-58.27 13.7-22.54 15.61-50 4.5-63.98l-.2-.33.27-.3c13.89-18.39 19.03-39.22 16.4-67.74z" fill="url(#paint20_linear)"/><path d="M-350.67 60.29c21.8-12.54 45.79-19.47 68.5-19.2 32.1.28 64.34 11.75 88.25 31.4 6.46 5.36 11.56 10.92 16.32 16.39 4.44 4.92 8.58 9.57 13.73 13.93 3.32-.6 8.3-1.11 14.62-1.83 13.51-1.47 33.87-3.52 57.11-8.7 29.55-6.44 54.9-5.66 75.4 2.47 21.84 8.67 41.36 26.3 58.2 52.5 5.38 8.34 10.32 16.92 15.14 25.28 11.4 19.81 22.16 38.52 36.1 50.28l.24.15.02.28c.92 29.36-6.47 51.64-23.33 69.69 9 13.86 5.93 39.07-7.68 60.23-13.18 20.63-35.62 37.64-55.39 52.68L2.36 409c-14.15 10.78-24.21 20.53-30.5 35.57-10.32 24.84-28.47 58.73-56.33 79.3-35.39 26.08-82.12 35.25-124.78 24.5-41.63-10.48-81.81-37.02-113.31-74.7-8.8-10.47-17.2-21.75-25.35-32.59-20.07-26.98-40.93-54.82-68.9-73.15-17.16-11.22-36.9-19.05-56.06-26.63-10.77-4.2-21.02-8.27-30.85-12.87-28.07-13.14-37.54-45.64-32.44-71.14 5.43-26.7 24.15-49.93 47.89-59.34 16.01-6.29 30.7-17.68 41.5-32.25a796.04 796.04 0 0013.8-19.06c15.93-22.21 32.38-45.3 52.1-63.98a168.42 168.42 0 0130.2-22.36zm442.51 163.3c-14-11.86-24.77-30.57-36.17-50.38-4.82-8.36-9.76-16.95-15.14-25.28-16.7-25.98-36.05-43.56-57.66-52.08-20.26-7.97-45.4-8.88-74.77-2.38-23.3 5.06-43.71 7.28-57.28 8.65a280.7 280.7 0 00-14.8 1.77l-.28.02-.24-.16c-5.21-4.47-9.53-9.16-14.03-14.19-4.87-5.4-9.8-10.92-16.2-16.17-23.72-19.6-55.73-30.92-87.54-31.22-33.76-.35-70.5 15.23-98.19 41.7-19.66 18.8-36.06 41.71-52 63.92-4.57 6.3-9.14 12.88-13.78 19.07-10.8 14.57-25.65 26.19-41.95 32.5-23.4 9.21-41.97 32.2-47.3 58.57-4.97 24.98 4.36 56.97 31.91 69.97 9.83 4.6 19.9 8.62 30.67 12.82 19.16 7.58 39.02 15.35 56.23 26.68 28.1 18.55 48.97 46.39 69.21 73.42 8.14 10.84 16.54 22.12 25.24 32.65 31.37 37.46 71.32 63.85 112.83 74.38 42.5 10.7 88.83 1.62 124-24.33l.25.44-.25-.44c27.75-20.51 45.75-54.16 56.02-78.82 6.33-15.22 16.44-25.14 30.82-36.06l4.2-3.14c19.65-14.98 41.98-31.93 55.11-52.38 13.45-20.93 16.59-46.02 7.45-59.37l-.2-.33.27-.3c16.96-18.4 24.37-40.4 23.57-69.53z" fill="url(#paint21_linear)"/><path d="M-341.63 58.17c22-12.67 46.35-19.5 69.7-18.88 33.27.78 66.39 13.51 90.7 35.13 6.66 5.98 12.03 12.26 17.17 18.39 4.7 5.64 9.23 10.95 14.65 16.03 10.55.52 37.82 1.82 71.44-4.92 29.07-5.75 52.44-4.84 71.26 2.64 20.8 8.4 39.2 25.35 54.55 50.5a567.43 567.43 0 0114.47 25.66c9.71 18.15 19.02 35.35 30.82 46.43l.13.22-.05.17C92.36 259.63 82.53 283.01 63 301c6.9 13.02 2.4 36.26-10.57 55.45-11.68 17.13-30.43 32.16-47 45.36-3.2 2.58-6.41 5.16-9.4 7.6-10.63 8.76-21.3 19-27.6 35.53-7.65 20.07-25.22 57-56.81 78.98-35.14 24.47-80.76 32.27-122.37 21.06-40.12-10.9-79.15-37.23-109.58-74.07-8.56-10.3-16.66-21.32-24.57-32-20.26-27.32-41.26-55.67-69.8-73.96-15.96-10.15-34.19-17.39-51.88-24.2-11.29-4.35-22.94-9.07-33.54-14.25-28.82-14.18-37.52-48.14-31.21-74.33 6.49-27.18 26.95-50.67 52.18-59.77 12.37-4.48 29.93-13.42 43.25-30.75a749.93 749.93 0 0018.45-24.98c13.67-19 27.88-38.6 44.51-54.77a157.78 157.78 0 0131.32-23.73zM92.25 229.66c-11.86-11.2-21.17-28.4-30.88-46.54-4.6-8.5-9.32-17.2-14.41-25.55-15.3-25.04-33.52-41.95-54.08-50.19-18.81-7.48-41.84-8.3-70.8-2.61-33.8 6.7-61.41 5.3-71.79 4.83l-.17-.05-.07-.1c-5.59-5.14-10.1-10.45-14.88-16.2-5.14-6.13-10.34-12.36-17-18.34-24.18-21.4-57.01-34.15-90.1-34.88-34.86-.74-72.39 15-100.2 42.28-16.56 16.27-30.66 35.81-44.4 54.7-6.06 8.33-12.31 17.05-18.56 25.04-13.54 17.46-31.32 26.53-43.69 31-24.95 9.09-45.14 32.29-51.54 59.11-6.22 25.85 2.45 59.24 30.75 73.29 10.6 5.18 21.67 9.65 33.48 14.13 17.75 6.92 35.98 14.16 51.94 24.32 28.72 18.34 49.72 46.68 70.04 74.1a862.6 862.6 0 0024.57 32.01c30.37 36.73 69.16 62.9 109.1 73.75 41.27 11.12 86.6 3.34 121.53-21l.25.44-.25-.44c31.37-21.86 48.78-58.55 56.42-78.62 6.44-16.3 17.15-26.72 27.9-35.54 2.98-2.45 6.19-5.03 9.4-7.6 16.46-13.14 35.09-28.12 46.66-45.18 13.05-19.08 17.39-42.08 10.38-54.76l-.19-.33.27-.3c19.67-17.76 29.52-40.86 30.32-70.77z" fill="url(#paint22_linear)"/><path d="M-332.66 55.93c22.23-12.79 46.98-19.42 70.86-18.66 34.43 1.29 68.37 15.45 93.12 38.86 6.98 6.53 12.52 13.6 17.92 20.45 4.98 6.36 9.77 12.4 15.5 18.03 14.1 3.61 41.08 5.95 71.15.67 19.53-3.48 44.8-6.16 67.29 2.88 19.46 7.84 37.06 24.67 50.97 48.6 5 8.7 9.4 17.6 13.77 26.21 8.24 16.36 15.86 31.9 25.63 42.24l.12.22-.04.18c-2.46 30.86-14.95 55.48-37.01 73.16 4.76 12.34-.78 33.26-13.58 50.74-10.21 14.07-25.07 26.44-39.33 38.3-4.83 4.1-9.38 7.9-13.77 11.74-12.6 11.2-20.1 21.82-24.82 35.52-11.83 33.92-32.68 62.61-57.1 78.72-34.61 22.85-79.45 29.46-119.78 17.66-38.72-11.27-76.25-37.28-105.85-73.43-8.33-10.15-16.3-20.94-23.97-31.47-20.5-27.75-41.6-56.5-70.81-74.7-14.82-9.19-31.82-15.82-48.06-22.15-12.05-4.64-24.57-9.59-35.77-15.3-13.55-7-23.46-18.88-28.69-34.33a76.43 76.43 0 01-1.4-43.43c7.53-27.63 29.63-51.34 56.41-60.3 19.75-6.68 34.5-16.2 45.16-29.22 7.49-9.14 14.9-19.41 22-29.22 11.85-16.33 24.11-33.2 38.18-47.46a151.55 151.55 0 0131.9-24.5zm425.39 179.9c-9.72-10.52-17.45-26-25.7-42.35-4.37-8.62-8.82-17.63-13.76-26.21-9.56-16.62-26.02-38.35-50.43-48.18-22.32-9-47.52-6.2-66.84-2.85-30.24 5.24-57.5 2.91-71.6-.7l-.17-.05-.06-.1c-5.8-5.75-10.9-12.05-15.74-18.2-5.35-6.74-10.88-13.8-17.86-20.34-24.52-23.25-58.28-37.36-92.54-38.6-36.09-1.35-74.28 14.77-102.26 43.03-13.95 14.18-26.22 31.06-38.06 47.4-7.1 9.8-14.52 20.07-22 29.21-10.78 13.1-25.69 22.84-45.54 29.58-26.39 8.88-48.33 32.35-55.89 59.7-7.11 26.07.84 61.78 29.58 76.6 11.2 5.71 23.66 10.55 35.66 15.37 16.41 6.37 33.4 13 48.29 22.3 29.29 18.31 50.48 47 71.05 74.85 7.67 10.53 15.64 21.33 23.91 31.37 29.47 35.92 66.83 61.9 105.37 73.11 40.1 11.64 84.54 5.12 119-17.5l.25.44-.25-.44c24.31-16.04 45.1-44.56 56.78-78.24 4.83-13.76 12.39-24.56 25.1-35.83 4.27-3.77 8.93-7.63 13.75-11.73C17.04 385.6 31.73 373.2 42 359.22c12.8-17.47 18.18-38.15 13.26-50.26l-.19-.33.33-.2c22.3-17.51 34.75-41.96 37.33-72.6z" fill="url(#paint23_linear)"/><path d="M-323.8 53.77c22.45-12.92 47.66-19.52 72.14-18.23 35.6 1.78 70.3 17.27 95.55 42.58 7.2 7.14 13 14.94 18.6 22.4 5.07 6.76 10.32 13.85 16.43 20.14 13.2 5.88 39.55 10.94 70.85 6.26 21.03-3.17 43.39-5.05 63.32 3.11 23.48 9.5 38.71 30.61 47.33 46.6 4.9 9.04 9.1 18.35 13.2 27.27 6.53 14.4 12.73 27.98 20.36 37.66l.06.1-.05.18c-4.17 31.7-19.32 57.56-43.96 74.82 2.55 11.57-4.2 30.4-16.41 46.07-8.79 11.21-20.8 21.64-32.45 31.7a396.9 396.9 0 00-17.4 15.6c-10.82 10.47-17.57 21.39-21.99 35.35-10.45 33.27-31.93 62.63-57.57 78.4-34.26 21.18-78.09 26.48-117.2 14.27-37.2-11.7-73.41-37.45-102.04-72.68-8.03-9.89-15.77-20.52-23.3-30.83-20.66-28.26-41.94-57.33-71.66-75.38-13.92-8.4-29.58-14.48-44.83-20.35-12.74-4.83-25.95-9.97-37.64-16.28-29.85-16.23-37.11-53.8-28.86-80.96 9.65-31.34 38.22-50.42 60.54-60.78 3.1-1.49 6.32-2.75 9.7-4.26 13.15-5.66 26.8-11.47 37.3-23.52 8.53-9.88 16.68-21.17 24.57-32.16 10.15-14.19 20.78-28.8 32.8-41.28a142.88 142.88 0 0132.6-25.8zM93.14 241.89c-7.62-9.68-13.82-23.25-20.35-37.66-4.1-8.91-8.3-18.22-13.2-27.26-8.56-15.88-23.73-36.9-46.86-46.3-19.8-7.93-41.94-6.18-62.97-3.01-31.41 4.74-58.1-.4-71.37-6.4l-.17-.04c-6.18-6.41-11.43-13.5-16.66-20.3-5.62-7.46-11.42-15.26-18.61-22.4a145.98 145.98 0 00-94.97-42.33c-37.26-1.85-76.34 14.49-104.32 43.77-11.9 12.42-22.53 27.03-32.68 41.22-7.89 10.99-16.04 22.28-24.56 32.16-10.55 12.22-24.93 18.3-37.57 23.82-3.38 1.5-6.6 2.78-9.6 4.2-22.14 10.4-50.56 29.24-60.16 60.41-8.16 26.82-1.04 63.88 28.46 80.02 11.7 6.3 24.84 11.34 37.47 16.23 15.25 5.87 31.02 11.89 45 20.4 29.9 18.1 51.3 47.39 71.96 75.64 7.54 10.31 15.2 20.84 23.3 30.83 28.57 35.13 64.6 60.83 101.64 72.49 38.93 12.16 82.6 6.81 116.51-14.17l.2.33-.2-.33c25.36-15.77 46.86-44.84 57.27-77.93 4.46-14.14 11.26-25.24 22.19-35.78a396.91 396.91 0 0117.4-15.58c11.53-10 23.61-20.32 32.29-31.47 14.29-18.19 18.45-36.4 16.2-45.66l-.01-.28.22-.13c24.75-17.32 39.85-43 44.15-74.49z" fill="url(#paint24_linear)"/><path d="M-315.2 51.9c22.77-13.11 48.94-19.82 73.72-18.26 36.6 2.23 72.29 19.2 98 46.3 6.3 6.63 11.17 14.08 15.86 21.2 6.3 9.41 12.16 18.34 20.83 25.51 10.82 8.87 36.78 16.05 70.55 11.85 19.93-2.53 40.93-4.22 59.29 3.24 22.2 9.05 36.08 29.34 43.75 44.7 4.77 9.56 8.7 19.46 12.56 28.96 4.87 12.28 9.47 23.84 15.15 32.44l.07.11-.05.17c-6.09 32.95-23.54 59.4-50.75 76.53.19 8.98-5.68 25.25-19.41 41.35-7.35 8.63-16.87 17.03-26 25.08-7.47 6.63-14.55 12.9-20.55 19.29-9.26 9.87-15.01 20.5-19.2 35.37-9.32 33.2-31.04 62.4-57.94 78.03l-.33.19c-33.68 19.38-76.4 23.3-114.34 10.57-36.26-12.1-70.26-37.07-98.3-72.05a752.36 752.36 0 01-22.65-30.19c-20.74-28.65-42.33-58.27-72.67-76.12-13.08-7.7-27.68-13.22-41.87-18.53-13.26-4.97-27-10.25-39.11-17.05-30.55-17.43-37.15-56.4-27.7-84.27 8.68-25.65 31.69-47.53 64.78-61.3 3.28-1.45 6.67-2.67 10.3-4.02 13.57-5.18 27.76-10.56 38.56-22.34 9.35-10.22 17.91-22.32 26.27-34.02 8.83-12.4 17.93-25.11 28.15-36.12a133.88 133.88 0 0133.02-26.62zM93.5 248.13c-5.56-8.66-10.17-20.22-15.04-32.51-3.85-9.5-7.73-19.29-12.5-28.85-7.6-15.25-21.24-35.38-43.27-44.39-18.18-7.4-39.12-5.61-58.95-3.14-33.87 4.26-60.18-3.01-71.06-11.99-8.67-7.17-14.71-16.14-20.9-25.62-4.75-7.23-9.67-14.5-15.8-21.09-25.53-27.06-60.99-43.86-97.4-46.05-37.97-2.33-78.73 14.68-106.45 44.4-10.22 11.01-19.31 23.72-28.14 36.13-8.36 11.7-16.92 23.8-26.39 34.08-10.85 11.96-25.04 17.34-38.78 22.47-3.62 1.35-6.96 2.68-10.18 3.95-19.1 8.06-52.82 26.59-64.4 60.94-9.3 27.62-2.84 66.1 27.3 83.33 12 6.86 25.67 12.03 38.93 17 14.25 5.42 28.85 10.94 42.04 18.58 30.52 17.9 52 47.58 72.8 76.34a753.35 753.35 0 0022.64 30.18c27.99 34.88 61.92 59.74 98.01 71.79 37.77 12.69 80.32 8.71 113.77-10.54l.33-.2.2.34-.2-.33c26.8-15.57 48.36-44.53 57.63-77.56 4.24-15.03 9.98-25.66 19.36-35.6 6-6.38 13.08-12.66 20.54-19.3 9.14-8.04 18.55-16.38 25.9-25 13.72-16.11 19.55-32.2 19.14-41.06l.05-.17.22-.13c27.16-16.95 44.68-43.29 50.6-76z" fill="url(#paint25_linear)"/><path d="M-306.35 49.73c23-13.24 49.52-19.86 75.06-18 37.64 2.8 74.2 21.02 100.31 50.1 6.58 7.34 12 15.5 17.13 23.4 6.5 10.02 12.63 19.39 21.35 27.41 11.67 10.86 37.9 20.53 70.25 17.44l.85-.05c17.47-1.7 37.22-3.55 54.47 3.52 16.5 6.77 30.64 21.92 40 42.76 4.7 10.48 8.23 21.2 11.68 31.51 3.3 9.82 6.3 19.09 9.9 26.38l.07.11-.04.18c-7.71 33.44-27.88 61.02-56.94 77.74l-.77.44c-1.6 7.66-8.39 21.82-22.25 36.69C8.94 375.6 1.86 381.88-5 388.03c-8.33 7.43-16.98 15.05-23.46 22.88-9.57 11.37-13.52 23.6-16.42 35.38-8.08 32.78-30.34 62.58-58.4 77.7-33.2 17.94-75.07 20.8-112.2 7.44-34.69-12.41-67.36-37.12-94.57-71.42-7.56-9.57-14.93-19.83-22.05-29.65-20.99-29.09-42.55-59.17-73.56-76.92-12.25-7.01-26.03-12.12-39.22-16.98-13.79-5.1-27.91-10.3-40.24-17.72-13.85-8.29-24.05-22.2-28.58-39.22-4.22-15.74-3.48-33.3 2.06-48.36 13.3-36.22 48.97-54.4 69.01-61.84 3.51-1.29 7.08-2.46 10.88-3.76 14-4.7 28.62-9.59 39.71-21.1 10.04-10.32 18.85-23.01 27.35-35.23 7.56-10.8 15.43-22.06 24.19-31.79a138.1 138.1 0 0134.15-27.71zM93.98 254.3c-3.61-7.3-6.71-16.5-9.9-26.38-3.46-10.32-6.98-21.04-11.7-31.51-9.33-20.56-23.41-35.6-39.62-42.39C15.68 147-4 148.95-21.37 150.6l-.85.05c-32.46 3.15-58.92-6.67-70.77-17.58-8.6-8.09-15.16-17.94-21.4-27.53-5.13-7.9-10.5-15.94-17.07-23.29-25.98-28.85-62.37-47.03-99.85-49.78-39.37-2.98-80.95 14.36-108.5 45.16-8.76 9.73-16.52 20.93-24.19 31.8-8.5 12.2-17.37 24.79-27.45 35.28-11.21 11.57-25.83 16.47-39.94 21.22-3.8 1.3-7.36 2.48-10.87 3.77-19.98 7.54-55.5 25.5-68.64 61.47-10.4 28.26-4.7 68.2 26.3 86.69 12.26 7.3 26.39 12.5 40.17 17.6 13.26 4.98 27.04 10.08 39.4 17.04 31.12 17.68 52.74 47.87 73.8 77.07 7.11 9.82 14.48 20.08 22.04 29.65 27.15 34.19 59.76 58.78 94.27 71.15 36.96 13.3 78.61 10.58 111.63-7.4 27.78-15.1 50.06-44.62 58.03-77.35 2.9-11.77 6.9-24.18 16.57-35.6 6.66-7.8 15.25-15.52 23.57-22.95 6.76-6.08 13.84-12.36 19.68-18.5 13.86-14.86 20.65-29.03 22.2-36.51l.05-.18.11-.06.88-.5c28.5-16.41 48.52-43.75 56.18-77.02z" fill="url(#paint26_linear)"/><path d="M-297.55 47.45c23.22-13.37 50.15-19.78 76.44-17.62 38.64 3.25 76.03 22.9 102.7 53.7 7.01 8.12 12.7 17 18.28 25.67 6.5 10.02 13.2 20.38 21.68 29.27 11.56 11.95 36.91 25.2 69.95 23.03 1.53-.14 2.94-.23 4.54-.26 15.8-1.04 32-2.16 46.81 3.96 21 8.73 31.81 29.31 36.35 40.76 4.8 11.9 7.86 24.34 10.55 35.4 1.77 6.88 3.35 13.45 5.21 18.97l.07.1-.05.18c-9.66 35.15-32.63 63.46-64.49 79.9-4.52 9.19-14 21.23-25.26 31.96-4.14 4-8.63 7.9-13.4 12.1-9.62 8.48-19.69 17.2-26.6 26.6-7.96 10.59-10.92 22.25-13.5 35.31-6.84 32.94-29.44 62.65-58.72 77.45-32.6 16.42-73.64 17.91-109.67 3.93-33.11-12.74-64.53-37.29-90.84-70.79a858.85 858.85 0 01-21.38-29c-21.07-29.49-42.94-60.11-74.4-77.61-11.58-6.37-24.37-11.03-36.8-15.59-14.07-5.1-28.66-10.32-41.12-18.24-14-8.79-24.12-23.33-28.5-40.87a83.54 83.54 0 013.21-49.9c10.9-27.67 37.66-50.4 73.25-62.38 3.68-1.24 7.54-2.43 11.56-3.58 14.43-4.2 29.3-8.66 40.88-19.86 10.49-10.28 19.35-23.15 27.94-35.7 6.49-9.6 13.3-19.39 20.76-28.07 9.67-11.72 21.56-21.35 34.55-28.82zM94.39 260.36c-1.85-5.52-3.37-11.97-5.14-18.87-2.8-10.98-5.87-23.43-10.6-35.21-4.54-11.45-15.34-31.75-36.05-40.5-14.63-6.07-30.83-4.95-46.47-3.87-1.53.15-3.12.19-4.53.27-33.21 2.12-58.74-11.18-70.36-23.24-8.6-8.82-15.3-19.18-21.69-29.27-5.57-8.66-11.26-17.54-18.22-25.55-26.6-30.7-63.92-50.24-102.28-53.5-40.82-3.47-83.13 14.14-110.56 45.9-7.46 8.68-14.22 18.58-20.77 28.06-8.6 12.56-17.39 25.54-28.05 35.78-11.57 11.2-26.55 15.72-41.1 19.98a223.3 223.3 0 00-11.56 3.58c-35.47 11.92-62.02 34.52-72.87 62-11.53 29.35-5.28 71.02 25.13 90 12.4 7.8 26.99 13.04 41.05 18.13 12.44 4.56 25.34 9.15 36.98 15.64 31.63 17.54 53.5 48.17 74.64 77.76a860.88 860.88 0 0021.38 29c26.25 33.4 57.6 57.84 90.54 70.52 35.97 13.88 76.72 12.4 109.21-3.95 29.17-14.74 51.62-44.21 58.4-76.97 2.7-13.13 5.66-24.8 13.67-35.56 6.97-9.28 16.97-18.12 26.71-26.65 4.76-4.2 9.25-8.11 13.29-12.04 11.2-10.84 20.62-22.72 25.15-31.91l.1-.06.12-.07c31.52-16.24 54.27-44.42 63.88-79.4z" fill="url(#paint27_linear)"/><path d="M-289.02 45.47a138.7 138.7 0 0115.87-7.81c19.99-8.29 41.52-11.6 62.18-9.56 39.59 3.87 77.95 24.72 105.13 57.43 7.46 8.89 13.6 18.54 19.5 28.03 6.65 10.53 13.6 21.33 22.07 30.96 13.02 14.48 38.14 29.62 69.65 28.63 2.33-.03 4.88-.18 7.21-.2 13.56-.62 27.47-1.15 40.11 4.02 14.53 6.15 26.45 20.24 32.77 38.86 4.75 14.12 6.83 29.18 8.44 41.15.48 3.38.9 6.66 1.42 9.58l-.05.18c-11.43 35.88-37.4 65.61-71.33 81.48-6.66 7.79-16.72 17.54-28.1 27.3-2.05 1.78-4.17 3.44-6.34 5.27-10.8 9-23.1 19.16-30.41 30.4-6.41 9.98-8.27 21.01-10.38 32.63l-.41 2.58c-5.54 32.64-28.85 62.9-59.2 77.13-15.94 7.42-34.3 11.4-52.9 11.41-18.32 0-37.03-3.75-54.17-10.87-31.54-13.06-61.57-37.24-87.04-70.04-7.2-9.2-14.03-19.03-20.78-28.48-21.21-29.98-43.17-61-75.42-78.34-10.97-5.84-22.94-10.09-34.67-14.18-14.35-5.07-29.22-10.29-41.87-18.53-14.14-9.3-24.24-24.3-28.43-42.54-3.9-16.94-2.38-35.7 4.2-51.5 12.13-28.8 40.37-51.79 77.48-62.9 3.97-1.25 8.23-2.24 12.26-3.39 14.8-3.82 30.1-7.8 41.92-18.55 10.96-9.98 19.7-23.06 28.05-35.78 5.53-8.46 11.4-17.1 17.77-24.87a135.3 135.3 0 0135.47-29.5zM94.87 266.54c-.51-2.93-.87-6.1-1.35-9.48-1.71-12.64-3.7-27.03-8.44-41.15-6.31-18.34-18.06-32.38-32.52-38.42-12.53-5.24-26.38-4.6-39.82-4.03l-7.33.25c-31.75.84-57.04-14.34-70.06-28.82-8.52-9.46-15.42-20.43-22.18-30.9-6-9.43-12.15-19.08-19.5-28.04-27.11-32.6-65.37-53.5-104.9-57.27-42.32-4.06-85.53 13.77-112.62 46.65-6.37 7.76-12.12 16.35-17.76 24.87-8.47 12.78-17.2 25.87-28.16 35.84-11.94 10.82-27.35 14.86-42.14 18.68-4.1 1.04-8.3 2.14-12.15 3.33-36.94 11.15-65.13 33.97-77.15 62.71-12.64 29.98-7.04 73.06 24.02 93.42 12.48 8.2 27.35 13.41 41.7 18.49 11.73 4.09 23.76 8.44 34.74 14.29 32.35 17.27 54.37 48.4 75.64 78.5a656.42 656.42 0 0020.79 28.47c25.4 32.7 55.44 56.88 86.8 69.88 34.98 14.45 74.9 14.33 106.73-.62 30.12-14.11 53.27-44.14 58.88-76.66l.41-2.59c2.05-11.72 3.9-22.75 10.36-32.91 7.3-11.24 19.67-21.58 30.46-30.57 2.17-1.83 4.29-3.5 6.35-5.27 11.48-9.83 21.5-19.4 28.09-27.3a135.71 135.71 0 0071.11-81.35z" fill="url(#paint28_linear)"/><path d="M-280.56 43.38c23.78-13.68 52.01-20.11 79.66-17.13 40.59 4.34 79.77 26.61 107.57 61.16 7.8 9.72 14.44 20.26 20.79 30.52 6.9 10.97 13.99 22.28 22.5 32.47 17.79 21.25 43.74 34.01 69.4 34.33 2.97.05 6.15-.02 9.16-.14 11.59-.23 23.46-.47 34.14 4.08 13.53 5.7 24.4 19.5 29.12 36.86 4.85 17.58 6.25 34.79 3.91 47.27-7.4 38.83-42.64 62.34-78.11 83.2-5.83 3.35-12.2 8.33-19.55 13.88a403.13 403.13 0 01-11.55 8.7c-12.5 9.1-26.41 20.03-33.4 32.84-4.82 8.93-5.98 18.38-7.14 28.58-.21 2.17-.54 4.4-.86 6.65-2.13 16.16-9.04 32.15-19.79 45.8-10.63 13.6-24.4 24.3-39.72 30.78-15.98 6.85-33.48 10.04-52.18 9.37-17.78-.6-35.89-4.83-52.48-12.28-30.31-13.47-58.24-36.8-83.3-69.4-6.96-9.04-13.6-18.55-20.12-27.83-21.36-30.5-43.46-62.02-76.25-79.04-10.27-5.37-21.7-9.2-32.68-12.99-14.56-4.94-29.71-10.14-42.34-18.84-14.28-9.8-24.36-25.54-28.36-44.19-3.7-17.64-1.83-37.04 5.37-53.04 6.88-15.54 18.08-29.16 33.3-40.4 13.73-10.26 30.56-18.18 48.3-22.98 4.2-1.1 8.58-2.15 13.02-3.1 15.16-3.44 30.88-6.92 43.07-17.3 11.22-9.54 19.6-22.72 27.85-35.37 4.8-7.45 9.75-15.13 15.14-22.05a123.64 123.64 0 0135.53-30.41zm176.23 474.48c26.41-15.2 45.2-42.13 49.06-71.3.32-2.24.54-4.42.86-6.66 1.17-10.19 2.26-19.75 7.2-28.74 7.02-12.99 21-23.82 33.55-33.09 4.14-2.97 7.9-5.86 11.55-8.7 7.29-5.66 13.71-10.52 19.54-13.88 35.36-20.79 70.62-44.3 77.96-82.96 2.3-12.3.89-29.51-3.89-46.98-4.76-17.19-15.51-30.78-28.93-36.53-10.62-4.44-22.49-4.2-33.97-4.04-3.07.01-6.19.2-9.15.14a86.74 86.74 0 01-40.21-10.56 98.76 98.76 0 01-29.45-23.92c-8.5-10.2-15.59-21.5-22.5-32.47-6.34-10.27-12.98-20.8-20.78-30.52-27.73-34.44-66.86-56.6-107.33-61-43.28-4.69-88.37 13.94-114.75 47.28-5.4 6.92-10.35 14.6-15.14 22.05-8.19 12.77-16.57 25.94-27.9 35.54-12.3 10.44-28.02 13.93-43.29 17.44-4.26.99-8.7 1.93-12.9 3.03-38.48 10.28-68.13 33.34-81.39 63.25-13.62 30.54-8.73 75.2 22.85 96.72 12.56 8.6 27.71 13.8 42.28 18.74 10.97 3.8 22.4 7.62 32.74 13.1 32.97 17.06 55.13 48.7 76.48 79.19 6.52 9.29 13.23 18.9 20.12 27.83 24.89 32.56 52.93 55.83 83.13 69.36 34.12 15.23 73.08 16.25 104.21 2.88 3.38-1.51 6.75-3.3 10.05-5.2z" fill="url(#paint29_linear)"/><path d="M-271.93 41.05a132.71 132.71 0 0181.22-16.7c41.46 4.85 81.59 28.5 110 64.88 8.24 10.5 15.28 21.97 22.13 33.12 7.05 11.47 14.28 23.28 22.75 33.93 11.18 14.08 35.05 37.99 69.13 39.92 3.48.2 7 .21 10.53.23 9.74.11 19.8.04 28.79 3.95 12.55 5.52 22.37 18.76 25.48 34.85 2.9 14.45 2.06 30.31-2 43.63-5.84 18.6-16.96 35.7-33.18 51.04-13.96 13.16-31.44 24.54-51.82 33.92-12.96 6-23.78 11.64-34.04 17.98-15.38 9.44-25.54 19.53-30.21 29.99-3.68 8.12-4.03 16.67-4.46 25.86-.17 3.02-.27 6.16-.65 9.3-3.08 32.84-27.16 63.54-59.91 76.39-15.8 6.15-33.11 8.65-51.28 7.38a143.44 143.44 0 01-50.74-13.58c-28.5-13.63-55.34-36.85-79.57-68.77-6.66-8.76-13.13-18.23-19.52-27.3-21.5-30.99-43.74-63.02-77.26-79.76-9.84-4.89-20.51-8.42-30.84-11.85-14.79-4.82-30.05-9.95-42.69-18.94-14.43-10.3-24.43-26.67-28.24-46.01-3.64-18.56-1.37-38.03 6.47-54.7 7.48-16.03 19.4-29.93 35.23-41.38 14.52-10.4 31.98-18.25 50.55-22.64 4.48-1.12 9.1-2.01 13.7-2.9 15.53-3.08 31.61-6.18 44.23-16.08 11.47-9.1 19.52-22.08 27.2-34.7 4.1-6.61 8.26-13.4 12.9-19.59a121.57 121.57 0 0136.1-31.47zM29.13 354.18c34.12-19.64 57.55-45.87 66.7-75.3 4.1-13.21 4.77-29.12 1.94-43.46-3.15-15.91-12.86-29.22-25.3-34.52-8.98-3.91-18.93-3.9-28.67-4.01-3.53-.02-7.05-.04-10.53-.24-13.47-.74-26.81-5.08-39.56-12.98-10.92-6.75-21.14-16.1-29.91-27.03-8.54-10.76-15.77-22.56-22.82-34.04-6.85-11.15-13.9-22.62-22.07-33-28.35-36.29-68.3-59.88-109.76-64.73-45.08-5.27-90.9 13.63-116.81 48.03-4.65 6.19-8.8 12.97-12.9 19.58-7.8 12.69-15.85 25.68-27.32 34.77-12.73 9.96-28.75 13.17-44.33 16.13-4.5.84-9.23 1.8-13.6 2.85-39.44 9.37-71.43 33.2-85.62 63.78-16.64 35.5-7.12 79.54 21.68 100.04 12.64 8.98 27.9 14.12 42.58 19 10.32 3.44 21 6.96 30.9 11.95 33.58 16.87 55.83 48.9 77.39 80a720.65 720.65 0 0019.45 27.18c24.23 31.92 50.9 55.1 79.4 68.73 33.77 16.16 70.82 18.43 101.73 6.2 32.75-12.84 56.61-43.42 59.65-76.07.27-3.1.48-6.29.64-9.31.5-9.08.9-17.8 4.57-25.93 4.73-10.63 14.88-20.72 30.37-30.22 10.26-6.34 21.2-12.05 34.04-17.98 6.42-3.1 12.44-6.13 18.16-9.42z" fill="url(#paint30_linear)"/><path d="M-263.68 39.1a126.4 126.4 0 0116.48-8.03 136.1 136.1 0 0166.56-8.56c21.66 2.76 42.82 10.51 62.72 22.94C-99.21 57.09-82.01 72.98-68.2 91.1c8.57 11.33 16.18 23.8 23.37 35.78 7.23 11.8 14.61 24.11 23.12 35.33 14.31 19.01 37.91 42.2 68.82 45.51 3.72.35 7.48.53 11.19.6 8.2.25 16.52.45 24.1 3.7 11.63 5.18 20.23 18.1 21.9 32.96 1.2 11.76-1.32 24.94-8 40.06a160.6 160.6 0 01-37.2 52.47 161.53 161.53 0 01-54.55 34.03 239.35 239.35 0 01-13.28 4.41c-7.93 2.52-16.08 5.16-23.77 8.85-13.7 6.72-23.27 16.32-26.84 27.17-2.63 7.66-2.43 15.9-2.25 23.85.05 3.64.22 7.5-.02 11.15-.8 16.43-7.3 32.63-18.78 46.55A96.3 96.3 0 01-122 523.05c-30.25 10.82-66.58 7.26-99.6-9.63-27.2-13.94-52.07-36.26-75.84-68.14-6.42-8.61-12.7-17.74-18.85-26.65-21.64-31.5-44.03-64.03-78.16-80.58-9.3-4.46-19.4-7.73-29.07-10.8-14.9-4.76-30.21-9.73-42.93-19.1-14.46-10.87-24.5-27.8-28.17-47.67-3.46-19.25-.87-39.2 7.52-56.19 15.54-31.8 49.28-55.9 90.18-64.5a302.8 302.8 0 0114.47-2.61c15.88-2.7 32.22-5.36 45.2-14.88 11.68-8.48 19.12-21.26 26.36-33.63 3.41-5.77 6.92-11.9 10.92-17.42 9.43-12.9 21.76-23.8 36.29-32.16zM28.35 360.2c29.71-17.1 54.25-43.97 67.88-75.26 6.57-15.06 9.16-28.12 7.96-39.88-1.6-14.76-10.15-27.57-21.7-32.63-7.48-3.32-15.8-3.52-24-3.77-3.7-.07-7.58-.19-11.3-.54-31.08-3.35-54.75-26.65-69.06-45.66-8.5-11.22-15.88-23.53-23.18-35.45-7.3-11.91-14.8-24.44-23.37-35.77-28.97-38.12-69.85-63.08-112.2-68.45-46.14-5.83-94.02 13.82-118.87 48.78-4 5.52-7.4 11.58-10.93 17.42-7.24 12.37-14.79 25.21-26.46 33.69-13.05 9.4-29.43 12.25-45.38 14.83-4.79.85-9.63 1.59-14.36 2.55-40.8 8.53-74.42 32.58-89.85 64.31-17.74 36.14-8.7 81.63 20.57 103.46 12.6 9.44 27.92 14.4 42.75 19.05 9.74 3.18 19.88 6.29 29.25 10.86 34.3 16.59 56.7 49.12 78.4 80.72 6.09 8.8 12.43 18.05 18.85 26.66 23.77 31.88 48.56 54.1 75.66 68.09 32.85 16.84 69.06 20.47 99.32 9.65 33.82-12 58.5-43.2 60.12-75.77.18-3.76.07-7.51.03-11.15-.18-7.95-.34-16.36 2.29-24.02 3.68-10.91 13.29-20.7 27.06-27.3 7.7-3.7 15.85-6.33 23.78-8.85 4.35-1.33 8.93-2.8 13.27-4.41a158.54 158.54 0 0023.47-11.17z" fill="url(#paint31_linear)"/></g><defs><linearGradient id="paint0_linear" x1="-32.87" y1="569.61" x2="-431.81" y2="-123.61" gradientUnits="userSpaceOnUse"><stop stop-color="#4AFEBF"/><stop offset="1" stop-color="#51EEDA"/></linearGradient><linearGradient id="paint1_linear" x1="-35.22" y1="566.66" x2="-423.88" y2="-108.69" gradientUnits="userSpaceOnUse"><stop stop-color="#4AFEBF"/><stop offset="1" stop-color="#51EEDA"/></linearGradient><linearGradient id="paint2_linear" x1="-36.78" y1="564.32" x2="-415.61" y2="-93.96" gradientUnits="userSpaceOnUse"><stop stop-color="#4AFEBF"/><stop offset="1" stop-color="#51EEDA"/></linearGradient><linearGradient id="paint3_linear" x1="-39.39" y1="561.52" x2="-407.94" y2="-78.89" gradientUnits="userSpaceOnUse"><stop stop-color="#4AFEBF"/><stop offset="1" stop-color="#51EEDA"/></linearGradient><linearGradient id="paint4_linear" x1="-41.82" y1="558.97" x2="-400.31" y2="-63.94" gradientUnits="userSpaceOnUse"><stop stop-color="#4AFEBF"/><stop offset="1" stop-color="#51EEDA"/></linearGradient><linearGradient id="paint5_linear" x1="-44.38" y1="556.6" x2="-392.78" y2="-48.79" gradientUnits="userSpaceOnUse"><stop stop-color="#4AFEBF"/><stop offset="1" stop-color="#51EEDA"/></linearGradient><linearGradient id="paint6_linear" x1="-47.44" y1="554.46" x2="-385.79" y2="-33.47" gradientUnits="userSpaceOnUse"><stop stop-color="#4AFEBF"/><stop offset="1" stop-color="#51EEDA"/></linearGradient><linearGradient id="paint7_linear" x1="-50.15" y1="552.34" x2="-378.49" y2="-18.19" gradientUnits="userSpaceOnUse"><stop stop-color="#4AFEBF"/><stop offset="1" stop-color="#51EEDA"/></linearGradient><linearGradient id="paint8_linear" x1="-53.14" y1="550.14" x2="-371.55" y2="-3.14" gradientUnits="userSpaceOnUse"><stop stop-color="#4AFEBF"/><stop offset="1" stop-color="#51EEDA"/></linearGradient><linearGradient id="paint9_linear" x1="-55.99" y1="548.27" x2="-364.59" y2="12.04" gradientUnits="userSpaceOnUse"><stop stop-color="#4AFEBF"/><stop offset="1" stop-color="#51EEDA"/></linearGradient><linearGradient id="paint10_linear" x1="-57.99" y1="545.56" x2="-356.68" y2="26.54" gradientUnits="userSpaceOnUse"><stop stop-color="#4AFEBF"/><stop offset="1" stop-color="#51EEDA"/></linearGradient><linearGradient id="paint11_linear" x1="-60.92" y1="543.55" x2="-355.48" y2="31.71" gradientUnits="userSpaceOnUse"><stop stop-color="#4AFEBF"/><stop offset="1" stop-color="#51EEDA"/></linearGradient><linearGradient id="paint12_linear" x1="-64.44" y1="542.4" x2="-356.23" y2="35.36" gradientUnits="userSpaceOnUse"><stop stop-color="#4AFEBF"/><stop offset="1" stop-color="#51EEDA"/></linearGradient><linearGradient id="paint13_linear" x1="-68.08" y1="540.5" x2="-356.75" y2="38.89" gradientUnits="userSpaceOnUse"><stop stop-color="#4AFEBF"/><stop offset="1" stop-color="#51EEDA"/></linearGradient><linearGradient id="paint14_linear" x1="-69.62" y1="537.92" x2="-355.47" y2="41.22" gradientUnits="userSpaceOnUse"><stop stop-color="#4AFEBF"/><stop offset="1" stop-color="#51EEDA"/></linearGradient><linearGradient id="paint15_linear" x1="-70.08" y1="534.81" x2="-353.07" y2="43.07" gradientUnits="userSpaceOnUse"><stop stop-color="#4AFEBF"/><stop offset="1" stop-color="#51EEDA"/></linearGradient><linearGradient id="paint16_linear" x1="-70.22" y1="531.75" x2="-350.53" y2="44.68" gradientUnits="userSpaceOnUse"><stop stop-color="#4AFEBF"/><stop offset="1" stop-color="#51EEDA"/></linearGradient><linearGradient id="paint17_linear" x1="-70.77" y1="528.86" x2="-348.3" y2="46.62" gradientUnits="userSpaceOnUse"><stop stop-color="#4AFEBF"/><stop offset="1" stop-color="#51EEDA"/></linearGradient><linearGradient id="paint18_linear" x1="-71.27" y1="525.88" x2="-346.05" y2="48.4" gradientUnits="userSpaceOnUse"><stop stop-color="#4AFEBF"/><stop offset="1" stop-color="#51EEDA"/></linearGradient><linearGradient id="paint19_linear" x1="-71.29" y1="523.31" x2="-343.63" y2="50.09" gradientUnits="userSpaceOnUse"><stop stop-color="#4AFEBF"/><stop offset="1" stop-color="#51EEDA"/></linearGradient><linearGradient id="paint20_linear" x1="-71.45" y1="520.63" x2="-341.26" y2="51.8" gradientUnits="userSpaceOnUse"><stop stop-color="#4AFEBF"/><stop offset="1" stop-color="#51EEDA"/></linearGradient><linearGradient id="paint21_linear" x1="-71.9" y1="517.69" x2="-339" y2="53.57" gradientUnits="userSpaceOnUse"><stop stop-color="#4AFEBF"/><stop offset="1" stop-color="#51EEDA"/></linearGradient><linearGradient id="paint22_linear" x1="-72.36" y1="515.3" x2="-336.98" y2="55.49" gradientUnits="userSpaceOnUse"><stop stop-color="#4AFEBF"/><stop offset="1" stop-color="#51EEDA"/></linearGradient><linearGradient id="paint23_linear" x1="-72.44" y1="512.84" x2="-334.71" y2="57.11" gradientUnits="userSpaceOnUse"><stop stop-color="#4AFEBF"/><stop offset="1" stop-color="#51EEDA"/></linearGradient><linearGradient id="paint24_linear" x1="-71.2" y1="509.71" x2="-331.15" y2="58" gradientUnits="userSpaceOnUse"><stop stop-color="#4AFEBF"/><stop offset="1" stop-color="#51EEDA"/></linearGradient><linearGradient id="paint25_linear" x1="-69.74" y1="506.74" x2="-327.45" y2="58.94" gradientUnits="userSpaceOnUse"><stop stop-color="#4AFEBF"/><stop offset="1" stop-color="#51EEDA"/></linearGradient><linearGradient id="paint26_linear" x1="-68.32" y1="503.92" x2="-323.89" y2="59.82" gradientUnits="userSpaceOnUse"><stop stop-color="#4AFEBF"/><stop offset="1" stop-color="#51EEDA"/></linearGradient><linearGradient id="paint27_linear" x1="-66.68" y1="500.9" x2="-320.15" y2="60.45" gradientUnits="userSpaceOnUse"><stop stop-color="#4AFEBF"/><stop offset="1" stop-color="#51EEDA"/></linearGradient><linearGradient id="paint28_linear" x1="-65.32" y1="497.71" x2="-316.49" y2="61.28" gradientUnits="userSpaceOnUse"><stop stop-color="#4AFEBF"/><stop offset="1" stop-color="#51EEDA"/></linearGradient><linearGradient id="paint29_linear" x1="-63.42" y1="494.69" x2="-312.55" y2="61.79" gradientUnits="userSpaceOnUse"><stop stop-color="#4AFEBF"/><stop offset="1" stop-color="#51EEDA"/></linearGradient><linearGradient id="paint30_linear" x1="-61.59" y1="491.97" x2="-308.86" y2="62.31" gradientUnits="userSpaceOnUse"><stop stop-color="#4AFEBF"/><stop offset="1" stop-color="#51EEDA"/></linearGradient><linearGradient id="paint31_linear" x1="-59.78" y1="488.99" x2="-305.01" y2="62.87" gradientUnits="userSpaceOnUse"><stop stop-color="#4AFEBF"/><stop offset="1" stop-color="#51EEDA"/></linearGradient><clipPath id="clip0"><path fill="#fff" d="M0 0h273v605H0z"/></clipPath></defs></svg>