<svg width="85" height="202" fill="none" xmlns="http://www.w3.org/2000/svg"><g opacity=".3" clip-path="url(#clip0)"><path d="M-40.97 239.37c-.98.28-2.01.53-3.01.73-14.75 3.06-31.55-.93-46.13-10.97-12.01-8.23-22.47-20.2-32-36.51-2.56-4.4-5.03-9.05-7.46-13.55-8.49-15.92-17.25-32.42-32.3-42.2-4.1-2.68-8.65-4.82-13-6.87-6.72-3.17-13.66-6.44-19.08-11.66-6.27-6-10.1-14.56-10.82-24.04a42.15 42.15 0 016.34-25.71c8.89-13.77 25.89-22.82 45.45-24.15 2.26-.17 4.6-.21 6.83-.26 7.48-.2 15.23-.41 21.7-3.89 5.77-3.12 9.92-8.52 13.88-13.74 1.88-2.49 3.84-5.08 5.96-7.4 6.8-7.4 16.03-12.71 26.7-15.35a63.58 63.58 0 0131.59.38C-26.72 9.44-8.82 23.7 2.8 43.33c3.43 5.82 6.32 12.07 9.14 18.07 2.76 5.94 5.62 12.08 9 17.84 5.7 9.63 15.45 21.87 29.6 25.4 1.7.41 3.47.7 5.2.98 3.8.64 7.74 1.28 11.13 3.37 5.27 3.19 8.7 9.83 8.68 16.87 0 5.6-1.88 11.52-5.75 18.16a73.03 73.03 0 01-47.24 34.19c-2.15.45-4.32.83-6.41 1.2-3.82.65-7.75 1.33-11.48 2.55-6.6 2.14-11.48 5.95-13.71 10.64-1.57 3.3-1.9 7.1-2.21 10.79-.14 1.72-.3 3.48-.59 5.2-2.29 14.21-14.08 26.5-29.14 30.78zm-126.2-191.72c-13.15 3.73-24.07 11.24-30.6 21.34-9.98 15.45-8.07 36.9 4.36 48.77 5.35 5.12 12.25 8.4 18.88 11.52 4.4 2.07 8.94 4.22 13.09 6.91 15.2 9.9 24.03 26.47 32.54 42.5 2.39 4.47 4.86 9.12 7.41 13.52 9.47 16.22 19.86 28.08 31.78 36.26 14.42 9.9 31.02 13.86 45.54 10.83 1-.2 1.99-.45 2.97-.73 14.81-4.2 26.36-16.23 28.57-30.17.26-1.68.42-3.45.56-5.17.33-3.76.65-7.6 2.3-11.04 2.31-4.91 7.31-8.83 14.14-11.04 3.77-1.23 7.73-1.93 11.55-2.58 2.1-.36 4.26-.74 6.4-1.2 19.37-4.2 36.86-16.86 46.8-33.82 3.8-6.5 5.65-12.35 5.67-17.78-.03-6.8-3.27-13.18-8.34-16.23-3.27-1.96-7.15-2.62-10.86-3.25-1.74-.29-3.51-.6-5.24-1.01-14.4-3.57-24.32-15.96-30.06-25.73-3.41-5.76-6.25-11.94-9.02-17.92-2.78-6-5.66-12.22-9.08-18C-9.34 24.2-27.06 10.03-46.5 4.84-67.62-.84-90.73 5.1-104 19.6c-2.1 2.27-4.03 4.85-5.92 7.3-4.02 5.28-8.18 10.76-14.13 13.97-6.64 3.56-14.46 3.8-22.02 3.98-2.26.06-4.56.13-6.83.3-4.95.39-9.74 1.2-14.28 2.49z" fill="url(#paint0_linear)"/><path d="M-43.95 235.02c-1.05.3-2.15.57-3.22.8-14.45 2.88-30.83-1.02-44.96-10.73-11.72-8.04-21.9-19.72-31.1-35.67-2.43-4.23-4.8-8.64-7.08-12.92-8.25-15.51-16.76-31.53-31.2-41.38-3.86-2.62-8.05-4.8-12.1-6.88-6.26-3.23-12.8-6.57-17.9-11.65-12.05-11.93-13.76-33.09-3.95-48.18 8.7-13.33 25.25-22.17 44.29-23.54 2.19-.16 4.48-.26 6.69-.34 7.26-.26 14.8-.53 21.03-4.01 5.62-3.12 9.73-8.39 13.68-13.5a98.94 98.94 0 016.28-7.52c6.79-7.16 15.91-12.3 26.36-14.75a62.3 62.3 0 0130.94.6C-27 10.65-9.46 24.74 1.91 44c3.3 5.67 6.1 11.71 8.83 17.54 2.86 6.14 5.82 12.53 9.36 18.44 5.6 9.27 15.2 21.16 29.27 25.02 1.44.37 2.87.7 4.3 1.04 4.17.97 8.1 1.85 11.48 4.17 4.9 3.38 7.72 9.8 7.42 16.72-.25 5.43-2.18 11.02-6.15 17.57-9.5 15.78-25.08 27.55-43.1 32.66-1 .3-2.07.55-3.1.8-2.68.65-5.45 1.12-8.13 1.61-3.47.63-7.06 1.26-10.4 2.2-4.9 1.4-11.3 4.12-14.14 9.45-1.64 3.04-2 6.58-2.35 10a54.18 54.18 0 01-.62 4.71c-1.29 7.28-5.13 14-11.03 19.46a45.12 45.12 0 01-17.5 9.62zM-164.78 47.95c-12.88 3.65-23.62 11-30.06 20.83-9.66 14.81-8 35.55 3.83 47.24 5.04 4.98 11.2 8.15 17.7 11.5 4.1 2.09 8.3 4.3 12.2 6.94 14.58 9.92 23.16 26.04 31.43 41.63 2.29 4.27 4.61 8.7 7.08 12.92 9.13 15.84 19.24 27.43 30.88 35.46 13.98 9.59 30.15 13.44 44.41 10.6 15.75-3.14 28.54-15.2 31.05-29.32a61 61 0 00.6-4.62c.37-3.5.75-7.13 2.43-10.3 2.96-5.57 9.57-8.38 14.58-9.8 3.41-.97 7-1.6 10.47-2.23 2.69-.5 5.46-.97 8.1-1.6 19.15-4.53 35.8-16.6 45.74-33.14 3.92-6.46 5.84-11.97 6.06-17.22.28-6.69-2.43-12.87-7.1-16.12-3.23-2.25-7.1-3.14-11.2-4.05-1.43-.33-2.9-.66-4.34-1.03-14.31-3.91-24.04-15.96-29.7-25.33-3.6-5.93-6.56-12.32-9.4-18.5-2.69-5.85-5.47-11.85-8.77-17.48-11.3-19.14-28.63-33.1-47.65-38.36C-67.32.2-89.5 5.69-103 19.95l-.27-.24.27.24c-2.2 2.34-4.24 4.95-6.23 7.47-4.01 5.16-8.14 10.47-13.9 13.67-6.4 3.57-14 3.86-21.36 4.1-2.17.08-4.46.18-6.65.33-4.73.37-9.32 1.2-13.64 2.43z" fill="url(#paint1_linear)"/><path d="M-46.7 230.6c-1.2.34-2.45.66-3.67.89-14.18 2.73-30.12-1.1-43.8-10.5-11.44-7.9-21.3-19.28-30.2-34.88-2.3-4.04-4.55-8.2-6.7-12.28-8.02-15.11-16.34-30.72-30.16-40.6-3.6-2.56-7.45-4.75-11.18-6.82-6.14-3.5-11.95-6.77-16.77-11.69-5.67-5.81-9.07-13.83-9.62-22.62a39.21 39.21 0 016.2-24c8.45-12.82 24.6-21.43 43.11-22.97 2.11-.17 4.24-.27 6.34-.35 7.13-.3 14.5-.64 20.54-4.2 5.42-3.13 9.5-8.23 13.46-13.18 2.1-2.64 4.27-5.36 6.61-7.74C-88.87 5.7-66.77.49-46.23 6.3-27.38 11.65-10.24 25.58.83 44.5c3.24 5.53 5.95 11.44 8.6 17.14 2.91 6.32 5.97 12.88 9.66 18.9C26.86 93.15 37.1 101.93 48 105.2l2.87.83c4.57 1.28 8.88 2.52 12.35 5.28 4.42 3.52 6.75 9.88 6.12 16.59-.5 5.22-2.53 10.48-6.58 17.02a76.27 76.27 0 01-19.26 21.02 65.1 65.1 0 01-25.92 11.77c-2.03.42-4.16.82-6.24 1.22-4.31.83-8.75 1.66-12.98 2.67-7.42 1.75-12.32 4.51-14.57 8.2-1.67 2.77-2.07 5.9-2.5 9.22a43.9 43.9 0 01-.64 4.2c-2.47 12.74-13.31 23.4-27.36 27.38zM-162.34 48.23c-12.7 3.6-23.3 10.75-29.59 20.31-9.33 14.14-7.86 34.23 3.32 45.7 4.72 4.84 10.49 8.13 16.58 11.56 3.74 2.1 7.58 4.29 11.23 6.89 13.96 9.94 22.31 25.66 30.35 40.84 2.15 4.08 4.4 8.25 6.7 12.29 8.83 15.46 18.62 26.78 30 34.57 13.5 9.3 29.26 13.07 43.25 10.4 15.55-3.01 27.82-14.15 30.6-27.76.28-1.36.46-2.78.62-4.12.41-3.24.82-6.6 2.59-9.48 2.34-3.87 7.4-6.75 15.02-8.53 4.23-1 8.7-1.84 12.98-2.66 2.05-.39 4.17-.8 6.2-1.22 17.86-3.58 34.14-15.39 44.69-32.44 4-6.45 5.98-11.58 6.47-16.72.62-6.47-1.64-12.59-5.86-15.96-3.32-2.65-7.59-3.86-12.07-5.13l-2.87-.83c-11.04-3.31-21.47-12.19-29.32-24.93-3.73-6.05-6.75-12.61-9.71-18.96-2.65-5.7-5.36-11.57-8.58-17.06-10.96-18.8-27.95-32.62-46.62-37.91-20.27-5.82-42.1-.64-55.6 13.11-2.3 2.38-4.47 5.07-6.55 7.69-3.98 5-8.12 10.15-13.63 13.36-6.23 3.6-13.7 3.97-20.88 4.28-2.1.09-4.22.18-6.29.38-4.53.35-8.9 1.16-13.03 2.33z" fill="url(#paint2_linear)"/><path d="M-49.6 226.23c-1.31.37-2.64.67-3.98.93-13.86 2.57-29.41-1.15-42.62-10.25-11.06-7.65-20.64-18.76-29.26-34.05-2.08-3.7-4.14-7.58-6.14-11.3-7.86-14.8-15.98-30.16-29.27-40.1-3.31-2.5-6.79-4.64-10.14-6.74-5.78-3.6-11.18-6.98-15.7-11.8-5.33-5.7-8.53-13.47-9.02-21.89a37.7 37.7 0 016.13-23.11c8.25-12.34 23.95-20.7 42-22.39 1.98-.17 4.07-.3 6.04-.38 6.93-.37 14.11-.77 20-4.31 5.19-3.15 9.27-8.1 13.16-12.88 2.2-2.7 4.5-5.5 7-7.92l.22.25-.23-.25C-87.73 6.54-65.99 1.6-46.03 7.41c18.47 5.39 35.24 19.15 46 37.78 3.12 5.4 5.78 11.13 8.35 16.7 3 6.49 6.1 13.22 10 19.39 7.58 12.1 17.75 20.74 28.58 24.28l.3.1c5.71 1.86 10.61 3.48 14.3 6.89 4 3.67 5.8 9.84 4.83 16.44-.94 6.32-4.23 12.1-7 16.44C49.43 160.94 35.2 172 19.8 176.37c-1.52.44-3.03.79-4.55 1.1l-9.51 1.88c-3.41.7-6.98 1.4-10.33 2.03-7.88 1.54-12.81 3.8-15.03 7-1.76 2.5-2.19 5.39-2.66 8.41-.2 1.23-.34 2.49-.66 3.7-2.74 11.96-13.23 21.93-26.66 25.74zM-159.91 48.48c-12.5 3.54-22.93 10.53-29.12 19.78-9.14 13.7-7.94 32.7 2.8 44.18 4.43 4.76 9.86 8.1 15.56 11.68 3.35 2.1 6.83 4.23 10.18 6.76 13.4 10.07 21.58 25.44 29.45 40.32 1.97 3.74 4.03 7.61 6.1 11.32 8.6 15.18 18.08 26.24 29.09 33.82 13.06 9 28.4 12.69 42.09 10.17 15.06-2.79 27.15-13.33 30.1-26.2.28-1.21.48-2.44.64-3.66.44-2.97.89-6.07 2.76-8.71 2.35-3.32 7.4-5.7 15.46-7.28 3.35-.64 6.91-1.37 10.33-2.03l9.51-1.88c16.96-3.29 32.88-14.88 43.67-31.73 2.75-4.26 5.98-9.98 6.87-16.17.93-6.36-.8-12.27-4.62-15.84-3.58-3.32-8.43-4.91-14.05-6.72l-.3-.1c-10.96-3.58-21.27-12.3-28.95-24.57-3.88-6.17-7-12.94-10-19.47a216.18 216.18 0 00-8.3-16.63c-10.7-18.45-27.3-32.1-45.6-37.46-19.73-5.73-41.19-.9-54.66 12.38-2.45 2.42-4.71 5.2-6.93 7.87-3.95 4.83-8.06 9.83-13.35 13-6.05 3.68-13.32 4.06-20.32 4.44-1.97.1-4.06.22-6.05.4a71.6 71.6 0 00-12.36 2.33z" fill="url(#paint3_linear)"/><path d="M-52.42 221.87c-1.42.4-2.9.75-4.35 1-13.6 2.41-28.7-1.23-41.46-10.03-10.76-7.42-20.04-18.3-28.35-33.21-1.93-3.44-3.82-7-5.64-10.48-7.68-14.5-15.59-29.48-28.31-39.5a169.34 169.34 0 00-8.91-6.46c-5.43-3.74-10.57-7.28-14.84-12.05-10.33-11.52-11.33-30.22-2.36-43.47 8.02-11.85 23.31-20.02 40.82-21.78 1.91-.2 3.88-.32 5.8-.44 6.75-.43 13.76-.9 19.45-4.46 5-3.14 9-7.9 12.86-12.52a96.86 96.86 0 017.4-8.2C-86.69 7.32-65.36 2.7-45.95 8.53-27.87 13.94-11.5 27.54-.98 45.85c3.04 5.27 5.62 10.87 8.12 16.3 3.1 6.7 6.3 13.6 10.28 19.85 7.46 11.64 17.46 20.13 28.24 23.9 6.03 2.13 10.72 4.27 14.07 7.85 3.52 3.8 4.83 9.88 3.55 16.26-1.2 5.93-4.4 11.33-7.39 15.85-10.07 15.28-23.97 26.1-38.59 30.29-1.48.42-2.96.76-4.44 1.06-2.53.49-5.12 1.03-7.64 1.55-4.26.9-8.67 1.8-12.85 2.43-5.71.88-12.64 2.34-15.46 5.76-1.85 2.2-2.31 4.83-2.81 7.6-.2 1.06-.4 2.17-.69 3.23-1.6 6.16-5.36 11.84-10.83 16.32a41.5 41.5 0 01-15 7.77zM-157.44 48.75c-12.27 3.49-22.56 10.31-28.63 19.26-8.8 13-7.83 31.33 2.33 42.67 4.2 4.7 9.3 8.22 14.69 11.96 2.93 2.02 5.97 4.13 8.96 6.49 12.83 10.1 20.79 25.16 28.5 39.73 1.8 3.43 3.7 7 5.62 10.44 8.3 14.83 17.5 25.62 28.17 32.98 12.62 8.7 27.55 12.3 40.95 9.91 14.76-2.62 26.4-12.3 29.62-24.62.28-1.05.45-2.11.65-3.19.48-2.71 1-5.56 2.92-7.9 2.98-3.58 9.7-5.05 15.9-6 4.18-.63 8.58-1.57 12.85-2.43 2.52-.52 5.15-1.07 7.65-1.54 16.08-3.04 31.6-14.36 42.6-31.04 2.96-4.47 6.14-9.83 7.3-15.63 1.26-6.18 0-12.07-3.39-15.68-3.24-3.5-7.84-5.59-13.78-7.7-10.9-3.81-21.02-12.39-28.55-24.16-4.04-6.28-7.24-13.22-10.34-19.92A210.9 210.9 0 00-1.5 46.15C-11.9 28-28.13 14.52-46.08 9.15c-19.23-5.76-40.3-1.19-53.76 11.58-2.59 2.45-4.99 5.32-7.32 8.13-3.92 4.67-7.96 9.49-13.03 12.64-5.85 3.7-12.94 4.15-19.77 4.56-1.9.1-3.86.24-5.76.43a71.9 71.9 0 00-11.72 2.26z" fill="url(#paint4_linear)"/><path d="M-55.25 217.48c-1.53.43-3.1.8-4.72 1.06-13.3 2.25-27.97-1.32-40.29-9.78-10.47-7.22-19.43-17.8-27.46-32.4a584.66 584.66 0 01-5.07-9.5c-7.49-14.21-15.27-28.92-27.44-39.06-2.53-2.1-4.99-3.98-7.37-5.84-5.23-4.02-10.17-7.82-14.27-12.67a33.95 33.95 0 01-7.79-20.5 35.19 35.19 0 015.96-21.41c7.96-11.52 22.4-19.25 39.66-21.18 1.83-.2 3.7-.35 5.52-.47 6.57-.5 13.38-.98 18.93-4.63 4.76-3.1 8.7-7.7 12.5-12.14 2.5-2.9 5.1-5.9 7.86-8.44C-85.6 8.06-64.66 3.75-45.83 9.59c17.69 5.44 33.7 18.87 43.91 36.84 2.93 5.14 5.44 10.6 7.9 15.89 3.13 6.84 6.42 13.95 10.56 20.32 7.28 11.14 17.2 19.5 27.87 23.54 6.43 2.44 10.71 5.2 13.5 8.75 3.08 3.93 3.9 9.83 2.26 16.12-1.46 5.45-4.6 10.56-7.79 15.3-6.16 9.05-18.84 24.25-37.47 29.54-1.45.4-2.96.76-4.49 1.04a266 266 0 00-7.56 1.56c-4.5.96-9.17 1.97-13.57 2.48-6.54.76-13.17 1.74-15.93 4.56-1.89 1.9-2.39 4.27-2.93 6.77-.2.92-.4 1.87-.7 2.77-3.2 10.49-12.75 18.94-24.98 22.4zM-155.28 49.04c-12.01 3.4-21.88 9.96-27.92 18.74-8.45 12.29-7.67 29.96 1.82 41.13 4.07 4.78 8.97 8.6 14.16 12.59 2.42 1.85 4.88 3.73 7.4 5.83 12.26 10.2 20.07 24.97 27.58 39.25 1.64 3.13 3.35 6.36 5.07 9.5 8 14.5 16.9 25.01 27.28 32.19 12.17 8.38 26.66 11.93 39.8 9.69 14.21-2.44 25.64-11.46 29.11-23.03.26-.9.47-1.82.67-2.74.55-2.5 1.08-5.03 3.13-7.05 2.92-2.94 9.66-3.96 16.3-4.75 4.4-.5 9.03-1.5 13.54-2.47 2.51-.56 5.1-1.1 7.6-1.57 20.83-3.88 34.98-20.67 41.56-30.31 3.18-4.66 6.28-9.72 7.73-15.09 1.62-6.12.83-11.76-2.14-15.56-2.72-3.45-6.91-6.17-13.21-8.56C33.37 102.75 23.38 94.3 16 83.07c-4.19-6.4-7.48-13.5-10.63-20.39C2.95 57.4.42 51.98-2.46 46.85-12.59 29.02-28.49 15.72-46.02 10.3c-18.63-5.84-39.32-1.58-52.79 10.72l-.23-.25.23.25a94.35 94.35 0 00-7.8 8.39c-3.86 4.5-7.84 9.1-12.66 12.26-5.69 3.73-12.57 4.23-19.22 4.72-1.81.12-3.7.26-5.48.46a70.96 70.96 0 00-11.3 2.19z" fill="url(#paint5_linear)"/><path d="M-57.96 213.1c-1.67.47-3.4.84-5.17 1.14-13.02 2.1-27.24-1.37-39.09-9.57-10.13-7-18.83-17.36-26.55-31.57-1.5-2.78-3.02-5.63-4.44-8.4-7.35-14-14.98-28.44-26.6-38.74-1.69-1.47-3.31-2.89-4.88-4.24-5.61-4.82-10.46-8.99-14.67-14.24-9.12-11.4-9.66-28.36-1.31-40.34 7.7-11.05 21.77-18.56 38.53-20.62 1.74-.22 3.5-.37 5.23-.5 6.4-.57 13.02-1.12 18.38-4.75 4.5-3.08 8.39-7.46 12.11-11.72 2.67-3.02 5.42-6.15 8.36-8.78l.22.21-.22-.21c13.57-11.98 34.14-15.94 52.4-10.14 17.32 5.48 32.94 18.78 42.9 36.39C.07 52.03 2.5 57.36 4.88 62.51c3.22 7.01 6.56 14.27 10.89 20.74 7.09 10.64 16.87 18.89 27.5 23.13 6.04 2.43 10.27 5.57 12.93 9.62 3.61 5.5 2.16 12.36.96 15.98-1.72 5.21-4.99 10.13-8.22 14.72C37.33 163.28 22.78 173.89 8 176.6c-2.5.47-5.09 1-7.6 1.56-4.68 1.06-9.55 2.13-14.2 2.51l-.83.08c-6.6.55-12.85 1.07-15.56 3.25-1.98 1.57-2.52 3.68-3.1 5.91-.2.77-.41 1.57-.66 2.34-3.49 9.9-12.44 17.56-24.02 20.84zm-94.8-163.8c-11.84 3.36-21.56 9.75-27.49 18.23-8.21 11.75-7.65 28.39 1.29 39.56 4.16 5.23 9 9.36 14.58 14.19 1.57 1.35 3.22 2.76 4.9 4.23 11.72 10.35 19.37 24.86 26.77 38.9 1.46 2.75 2.94 5.61 4.43 8.35 7.67 14.16 16.3 24.4 26.37 31.35 11.7 8.1 25.8 11.55 38.63 9.47 13.84-2.24 24.8-10.47 28.66-21.49.26-.74.47-1.54.68-2.3.58-2.24 1.18-4.52 3.32-6.22 2.84-2.29 9.2-2.84 15.91-3.38l.84-.08c4.6-.4 9.44-1.47 14.13-2.49 2.5-.55 5.13-1.14 7.63-1.58 14.63-2.66 29-13.19 40.5-29.62 3.18-4.53 6.46-9.4 8.13-14.53 1.16-3.5 2.55-10.14-.88-15.42-2.59-3.95-6.72-7-12.62-9.39-10.75-4.33-20.62-12.62-27.83-23.4-4.33-6.5-7.68-13.8-10.91-20.84C1.9 57.69-.53 52.36-3.33 47.38c-9.89-17.52-25.39-30.66-42.53-36.1-18.05-5.75-38.4-1.8-51.81 10a97.04 97.04 0 00-8.3 8.73c-3.76 4.27-7.64 8.69-12.25 11.8-5.49 3.7-12.18 4.31-18.7 4.87-1.72.14-3.49.29-5.2.5a67.44 67.44 0 00-10.65 2.12z" fill="url(#paint6_linear)"/><path d="M-60.9 208.73c-1.74.5-3.59.9-5.43 1.19-12.71 1.93-26.52-1.46-37.93-9.36-9.84-6.82-18.21-16.87-25.65-30.77-1.26-2.34-2.5-4.73-3.7-7.04-7.27-13.84-14.75-28.16-25.91-38.63-6.92-6.48-12.6-11.93-17.47-18.49a33.91 33.91 0 01-6.56-19.07 32.22 32.22 0 015.78-19.7c7.5-10.56 21.1-17.86 37.37-20.01 1.62-.23 3.3-.4 4.91-.54 6.53-.64 12.67-1.25 17.87-4.9 4.28-3.02 8.02-7.2 11.65-11.25 2.83-3.14 5.77-6.44 8.93-9.13 13.5-11.5 33.7-15.15 51.42-9.32 16.9 5.56 32.16 18.65 41.86 35.94 2.73 4.9 5.13 10.11 7.43 15.12 3.28 7.2 6.7 14.63 11.17 21.17C21.74 94.1 31.4 102.18 42 106.71c5.77 2.46 9.92 6.01 12.35 10.52 2.85 5.28 1.42 11.51-.3 15.79-1.86 4.63-4.86 8.95-8.63 14.13-7.72 10.63-19.95 23.7-35.81 28.2a51.3 51.3 0 01-4.04.96c-2.55.45-5.15 1.07-7.66 1.63-4.9 1.11-9.95 2.27-14.79 2.51-1.28.05-2.51.13-3.72.16-5.75.22-10.72.42-13.11 1.92-2.03 1.28-2.61 3.09-3.26 5.07-.22.6-.43 1.25-.67 1.9-3.78 9.17-12.41 16.15-23.27 19.23zm-89.37-159.2c-11.65 3.3-21.26 9.51-27.07 17.72-7.94 11.2-7.62 26.86.78 38.07 4.84 6.52 10.27 11.74 17.4 18.39 11.21 10.53 18.74 24.88 26.02 38.79 1.21 2.31 2.44 4.7 3.7 7.03 7.38 13.81 15.73 23.79 25.48 30.56 11.26 7.78 24.94 11.16 37.5 9.24 13.16-2.02 23.97-9.65 28.18-19.91.25-.62.46-1.26.64-1.86.65-1.99 1.29-4 3.52-5.38 2.53-1.58 7.58-1.8 13.44-2.01 1.2-.03 2.44-.11 3.72-.16 4.76-.26 9.81-1.38 14.7-2.53 2.55-.57 5.16-1.2 7.7-1.64 17.65-3.21 31.22-17.5 39.48-28.94 3.86-5.31 6.72-9.44 8.55-14.03 1.66-4.18 3.08-10.2.33-15.29-2.36-4.37-6.4-7.83-12.09-10.24-10.69-4.59-20.45-12.76-27.43-23-4.52-6.61-7.9-14.05-11.23-21.27-2.3-5.02-4.69-10.2-7.42-15.09-9.63-17.15-24.74-30.17-41.5-35.65-17.54-5.73-37.51-2.13-50.86 9.24-3.13 2.64-6.05 5.89-8.87 9.04-3.66 4.08-7.4 8.27-11.75 11.34-5.33 3.74-11.84 4.41-18.15 5.03-1.6.14-3.27.34-4.9.53-3.4.46-6.71 1.13-9.87 2.02z" fill="url(#paint7_linear)"/><path d="M-62.6 204.13c-2.22.63-4.51 1.13-6.93 1.46-12.43 1.81-25.84-1.54-36.76-9.1-9.54-6.6-17.65-16.4-24.75-29.94-.93-1.76-1.88-3.56-2.78-5.34-7.23-13.85-14.66-28.15-25.38-38.86-6.01-6.03-10.48-11.36-15.38-18.45-7.79-11.3-7.89-26.6-.25-37.2 7.28-10.08 20.48-17.18 36.2-19.42 1.55-.2 3.1-.4 4.63-.57 6.35-.7 12.36-1.4 17.35-5.08 3.99-2.92 7.6-6.88 11.1-10.72 3.05-3.33 6.18-6.76 9.56-9.51a51.15 51.15 0 0123.84-10.64 54.84 54.84 0 0126.62 2.1C-29 18.45-14.12 31.37-4.7 48.35c2.67 4.8 4.99 9.88 7.22 14.79 3.35 7.33 6.83 14.94 11.45 21.6a66.56 66.56 0 0026.82 22.39c5.6 2.55 9.67 6.48 11.78 11.39 2.32 5.36.42 11.44-1.6 15.65-1.98 4.2-4.88 8.03-8.22 12.53l-.8 1.05c-12.29 16.45-25.33 26.01-38.8 28.43-2.55.45-5.2 1.08-7.73 1.68-5.07 1.2-10.37 2.44-15.37 2.53-7.33.17-13.99.5-17.4.91-1.83.2-2.33 1.6-2.88 3.24-.31.83-.61 1.7-1.11 2.43-2.24 7.66-10.27 14.04-21.27 17.16zM-147.73 49.8c-11.51 3.26-20.97 9.3-26.7 17.26-7.5 10.41-7.4 25.42.26 36.53a125.1 125.1 0 0015.32 18.4c10.78 10.77 18.27 25.13 25.5 39.01.94 1.77 1.85 3.58 2.8 5.34 7.07 13.47 15.1 23.18 24.56 29.72 10.82 7.48 24.09 10.78 36.34 9.02 14.25-2.05 25.1-9.23 27.66-18.27l.03-.05.02-.05c.48-.64.79-1.5 1.07-2.3.59-1.64 1.2-3.34 3.36-3.6a208 208 0 0117.45-.9c4.96-.1 10.22-1.33 15.25-2.52 2.54-.6 5.2-1.2 7.76-1.7 13.32-2.4 26.23-11.9 38.44-28.2l.8-1.05c3.31-4.46 6.22-8.3 8.17-12.44 1.94-4.07 3.8-10.03 1.58-15.18-2.05-4.81-6.05-8.64-11.5-11.11a67.45 67.45 0 01-27.09-22.6C8.7 78.42 5.23 70.81 1.86 63.44a197.94 197.94 0 00-7.2-14.71c-9.29-16.94-24.04-29.79-40.42-35.34-17-5.72-36.58-2.43-49.92 8.42-3.33 2.75-6.48 6.14-9.5 9.46-3.48 3.88-7.13 7.84-11.18 10.83-5.13 3.76-11.48 4.47-17.63 5.2-1.53.16-3.08.36-4.63.57a65 65 0 00-9.1 1.92z" fill="url(#paint8_linear)"/><path d="M-65.09 199.72c-2.4.68-4.99 1.22-7.67 1.6-12.13 1.64-25.1-1.6-35.6-8.9-9.21-6.4-17.05-15.94-23.84-29.1l-1.56-2.99c-7.25-14.08-14.75-28.6-25.17-39.78-5.5-5.86-8.66-11.02-11.77-16l-1.53-2.45c-5.93-9.46-8.17-24.13.28-35.63 7.03-9.58 19.82-16.45 35.04-18.81 1.43-.21 2.9-.4 4.3-.6 6.18-.78 12-1.53 16.83-5.24 3.74-2.86 7.19-6.57 10.51-10.18 3.24-3.5 6.64-7.11 10.26-9.98l.18.23-.18-.23c13.59-10.65 32.56-13.61 49.48-7.7 16.14 5.61 30.63 18.38 39.8 35.03 2.55 4.67 4.84 9.65 7 14.43 3.4 7.5 6.92 15.26 11.71 21.99a69.5 69.5 0 0026.48 22.02c7.05 3.35 9.99 8.53 11.22 12.29 1.43 4.32.46 9.56-2.87 15.46-1.9 3.4-4.37 6.55-7.24 10.22l-2.18 2.8c-11.54 14.96-22.45 23.6-34 26.88-1.23.35-2.48.63-3.75.87-2.57.46-5.22 1.1-7.78 1.74-5.29 1.27-10.76 2.59-16 2.55-3.3-.04-6.4-.14-9.13-.26-3.74-.15-6.72-.28-8.63-.1-1.62.78-2.25 1.74-2.94 2.76-.36.53-.74 1.1-1.3 1.65-2.08 6.8-9.64 12.5-19.95 15.43zM-145.15 50c-11.36 3.23-20.7 9.12-26.36 16.78-8.28 11.26-6.1 25.72-.26 35l1.53 2.46c3.07 4.99 6.27 10.1 11.7 15.9 10.47 11.21 17.98 25.8 25.27 39.87l1.57 3c6.77 13.07 14.5 22.56 23.67 28.9 10.38 7.21 23.2 10.42 35.2 8.77 13.99-1.9 24.63-8.44 27.21-16.7l.02-.1.06-.05c.51-.53.9-1.08 1.27-1.6.72-1.03 1.43-2.13 3.23-2.96h.04l.04-.02c1.94-.2 4.96-.08 8.77.09 2.75.12 5.85.25 9.15.26 5.14.02 10.58-1.29 15.83-2.54 2.58-.62 5.22-1.25 7.79-1.74 12.83-2.35 24.7-11.07 37.37-27.53.75-.95 1.46-1.9 2.18-2.8 2.85-3.62 5.32-6.78 7.19-10.13 3.24-5.8 4.2-10.84 2.84-15.02-1.2-3.65-4.06-8.7-10.92-11.95a70.83 70.83 0 01-26.7-22.2C7.75 78.93 4.19 71.15.78 63.6a208.7 208.7 0 00-7-14.39C-15.3 32.7-29.7 20.01-45.7 14.43c-16.75-5.83-35.5-2.9-48.96 7.64-3.6 2.82-6.95 6.43-10.2 9.93-3.35 3.6-6.8 7.32-10.56 10.22-4.97 3.8-11.14 4.57-17.12 5.33-1.41.16-2.88.39-4.3.6-2.81.48-5.63 1.08-8.31 1.84z" fill="url(#paint9_linear)"/><path d="M-67.2 195.24a57.12 57.12 0 01-8.72 1.73c-11.83 1.48-24.39-1.67-34.43-8.63-8.92-6.22-16.44-15.45-22.94-28.3-1.73-3.41-3.39-7-5-10.46-5.3-11.54-10.8-23.46-20.25-30.82l-.05-.02-.01-.04a98.63 98.63 0 00-5.27-8c-2.55-3.53-4.73-6.63-5.94-10.42-7.46-8.51-7.1-23.46.8-34.06 6.83-9.09 19.17-15.75 33.91-18.26 1.32-.21 2.67-.4 3.99-.62 6-.84 11.69-1.68 16.35-5.38 3.42-2.73 6.7-6.2 9.84-9.52 3.5-3.68 7.1-7.52 11.05-10.48l.18.23-.18-.23c13.54-10.17 32.13-12.82 48.5-6.92C-29.66 20.7-15.53 33.29-6.62 49.6c2.49 4.57 4.7 9.4 6.83 14.12C3.66 71.37 7.25 79.26 12.2 86.1c6.28 8.65 15.55 16.33 26.1 21.66 7.06 3.54 9.68 9.13 10.64 13.15 1.04 4.44-.32 9.43-4.13 15.32-1.74 2.68-3.94 5.3-6.25 8.06a133.55 133.55 0 00-3.57 4.38 87.9 87.9 0 01-36.63 27c-7.87 3.05-16.57 4.62-24.47 4.32-5.35-.2-10.3-.75-13.94-1.13-1.7-.18-3.21-.37-4.33-.45a6.53 6.53 0 00-3.05 1.96c-.4.39-.8.78-1.3 1.2-2.16 6.04-8.95 10.97-18.47 13.67zm-90.99-76.89c9.55 7.45 15.06 19.4 20.38 30.98a240.2 240.2 0 004.98 10.42c6.48 12.74 13.95 21.95 22.77 28.08 9.94 6.9 22.34 10.03 34.04 8.54 13.88-1.7 24.1-7.54 26.71-15.15l.02-.08.06-.06c.55-.4.95-.78 1.32-1.16.8-.77 1.52-1.52 3.32-2.11l.03-.01.04-.01c1.12.07 2.66.26 4.4.43 3.62.42 8.56.97 13.9 1.13 7.7.28 16.56-1.3 24.25-4.3a86.82 86.82 0 0036.4-26.81c1.24-1.57 2.44-3 3.58-4.38 2.3-2.76 4.5-5.38 6.22-8.01 3.73-5.75 5.08-10.63 4.05-14.9-.92-3.92-3.46-9.34-10.34-12.81-10.65-5.38-20-13.12-26.31-21.84C6.65 79.47 3.07 71.5-.42 63.85c-2.12-4.67-4.3-9.52-6.78-14.09-8.84-16.2-22.87-28.7-38.45-34.33-16.13-5.74-34.53-3.1-47.9 6.95-3.88 2.9-7.5 6.74-10.95 10.42-3.16 3.35-6.45 6.82-9.9 9.56-4.76 3.81-10.8 4.67-16.6 5.5-1.33.18-2.64.4-3.99.62-14.6 2.46-26.84 9.06-33.57 18.04-7.78 10.41-8.13 25.08-.79 33.43l.05.03.02.07c1.15 3.74 3.32 6.8 5.86 10.33 1.6 2.28 3.48 4.87 5.23 7.97z" fill="url(#paint10_linear)"/><path d="M-10.36 177.55a57.9 57.9 0 01-18.86 2.26c-8.67-.5-16.19-2.24-18.74-2.8-1.73.3-2.44.69-3.24 1.19-.4.23-.77.45-1.33.69-2.72 6.94-12.9 12.22-26.62 13.8a49.32 49.32 0 01-33.27-8.41c-8.63-6.03-15.83-15-22.03-27.46a282.85 282.85 0 01-4.76-10.18c-4.98-11.09-10.15-22.55-19.06-29.67l-.05-.03-.02-.07a101.48 101.48 0 00-4.16-7.53c-2.22-3.79-4.13-7.03-4.96-10.86-6.92-8.16-6.38-22.41 1.33-32.5 9-11.77 24.4-16.1 32.75-17.65 1.23-.23 2.47-.42 3.63-.6 5.85-.95 11.38-1.82 15.88-5.56 3.1-2.6 6.16-5.77 9.05-8.82 3.77-3.96 7.67-8.03 11.9-11.07l.14.2-.14-.2c13.45-9.67 31.66-12 47.52-6.1 15.33 5.7 29.06 18.13 37.68 34.12 2.42 4.47 4.57 9.21 6.62 13.79 3.53 7.79 7.14 15.86 12.25 22.74 7.72 10.38 18.27 17.32 25.76 21.28 7.54 4 9.53 10.5 10.07 14.06.68 4.54-1.05 9.33-5.42 15.18a86.47 86.47 0 01-5.36 6.24 156.88 156.88 0 00-4.9 5.62 90.32 90.32 0 01-35.58 26.26 58.33 58.33 0 01-6.08 2.08zm-38.93-.8c.36-.1.8-.18 1.33-.29l.03-.01.05.03c2.48.58 10 2.31 18.7 2.81 7.8.49 16.88-1.11 24.9-4.36a89.66 89.66 0 0035.34-26.13c1.7-2.04 3.33-3.87 4.9-5.6 1.94-2.16 3.8-4.2 5.33-6.25 4.29-5.7 5.97-10.4 5.3-14.78a18.19 18.19 0 00-9.8-13.67c-7.55-4-18.17-10.94-25.96-21.43-5.12-6.9-8.78-15-12.32-22.83-2.05-4.58-4.2-9.32-6.6-13.76-8.6-15.88-22.22-28.23-37.42-33.88-15.72-5.81-33.75-3.5-47.06 6.05-4.2 3.03-8.1 7.1-11.84 11.02-2.93 3.06-5.98 6.27-9.12 8.87-4.59 3.85-10.19 4.73-16.1 5.7-1.21.2-2.45.39-3.64.61-8.31 1.54-23.54 5.82-32.45 17.45-7.57 9.88-8.15 23.92-1.32 31.86l.06.06.02.08c.78 3.8 2.6 6.88 4.89 10.76 1.29 2.17 2.74 4.61 4.16 7.53 8.97 7.19 14.15 18.69 19.17 29.8a295.1 295.1 0 004.76 10.17c6.18 12.4 13.33 21.3 21.87 27.28a48.53 48.53 0 0032.89 8.33c13.6-1.56 23.65-6.75 26.21-13.58l.06-.09.1-.03c.57-.24.97-.47 1.38-.7.62-.41 1.2-.73 2.18-1.01z" fill="url(#paint11_linear)"/><path d="M-13.35 177.54c-6.42 1.82-13.04 2.57-18.96 2.06a76.16 76.16 0 01-19.18-4.09c-1.92.03-2.65.2-3.58.39-.33.1-.7.16-1.11.24-2.74 6.2-12.5 10.77-26.11 12.17a48.24 48.24 0 01-32.1-8.2c-8.34-5.8-15.24-14.54-21.14-26.66-1.6-3.25-3.08-6.63-4.54-9.92-4.9-11.11-9.52-21.6-17.85-28.5l-.05-.02-.02-.08a154.33 154.33 0 00-2.98-6.69c-2.02-4.31-3.62-7.72-4.02-11.71-6.43-7.79-5.6-21.34 1.86-30.92 8.64-11.09 23.52-15.47 31.58-17.05 1.11-.24 2.2-.43 3.28-.62 5.67-1.02 11.04-2 15.43-5.75 2.77-2.38 5.51-5.27 8.18-8.02 4.06-4.2 8.25-8.6 12.89-11.74l.13.2-.13-.2c13.34-9.18 31.18-11.2 46.56-5.32 14.9 5.7 28.27 18 36.65 33.66 2.35 4.38 4.43 9.02 6.42 13.5 3.56 7.93 7.25 16.14 12.5 23.1 5.92 7.77 14.46 14.84 25.42 20.9 5.6 3.1 9.04 8.54 9.5 14.93.39 6.03-3.64 11.43-6.7 15-1.35 1.59-2.91 3.12-4.55 4.8-1.98 2-4.02 4.07-6.1 6.5-9.65 11.29-21.6 20.15-34.52 25.58a45.3 45.3 0 01-6.76 2.46zm-43.22-1.8l.14-.04c.49-.1.86-.17 1.22-.27 1-.24 1.74-.38 3.74-.4l.08.02c3.97 1.53 11.06 3.39 19.1 4.07 7.93.68 17.24-.94 25.51-4.42 12.86-5.4 24.72-14.16 34.32-25.44 2.08-2.47 4.16-4.54 6.1-6.5a77.4 77.4 0 004.52-4.8c3-3.5 6.97-8.82 6.56-14.64a17.8 17.8 0 00-9.22-14.53C24.48 102.66 15.86 95.61 9.9 87.72 4.61 80.75.92 72.5-2.66 64.53c-1.99-4.48-4.1-9.11-6.4-13.46-8.35-15.56-21.62-27.77-36.4-33.43-15.2-5.84-32.88-3.83-46.1 5.27-4.6 3.14-8.76 7.49-12.82 11.69a115.63 115.63 0 01-8.22 8.03c-4.44 3.84-9.88 4.84-15.66 5.9-1.09.18-2.2.38-3.28.61-8.02 1.61-22.75 5.95-31.31 16.9-7.36 9.39-8.13 22.73-1.84 30.32l.06.07.02.07c.38 3.92 1.98 7.33 4 11.6.9 1.93 1.93 4.14 2.96 6.66 8.4 6.96 13.23 17.97 17.94 28.63 1.44 3.26 2.93 6.67 4.52 9.89 5.84 12.05 12.72 20.69 20.97 26.47a47.8 47.8 0 0031.76 8.1c13.53-1.41 23.16-5.87 25.73-11.99l.16-.12z" fill="url(#paint12_linear)"/><path d="M-16.3 177.52c-6.5 1.84-13.17 2.52-19.08 1.9-6.8-.73-12.58-2.8-16.78-4.3-1.1-.4-2.06-.75-2.88-1.03-1.9-.6-2.69-.6-3.74-.58-.35.02-.7 0-1.18-.01-2.79 5.48-12.09 9.33-25.6 10.54-10.97 1-22.2-1.9-30.89-7.95-8.05-5.61-14.66-14.05-20.23-25.83-1.5-3.17-2.92-6.48-4.3-9.64-4.57-10.62-8.87-20.69-16.6-27.29l-.05-.02-.02-.07c-.62-1.9-1.28-3.63-1.8-5.16-1.87-5.17-3.22-8.93-3.11-13.22-5.9-7.43-4.84-20.3 2.4-29.31 8.32-10.41 22.65-14.8 30.44-16.5l2.9-.58c5.53-1.1 10.76-2.16 14.97-5.97 2.4-2.17 4.73-4.59 7.18-7.12 4.4-4.53 8.93-9.25 13.99-12.56 13.22-8.67 30.7-10.4 45.58-4.5 14.48 5.74 27.48 17.83 35.62 33.22 2.29 4.28 4.3 8.82 6.25 13.2C.38 72.8 4.11 81.16 9.54 88.17c5.66 7.3 13.87 14.04 25.08 20.55 8.1 4.73 8.91 12.63 8.88 15.8-.04 6.03-4.28 11.1-7.96 14.84a80.4 80.4 0 01-3.93 3.69c-2.21 2-4.7 4.3-7.13 7.02-9.7 10.96-21.25 19.55-33.43 24.84a59.5 59.5 0 01-7.35 2.6zm-43.92-4.53h.15l1.3.01c1.07.01 1.92-.03 3.87.62.83.28 1.79.63 2.92 1.01 4.16 1.52 9.9 3.56 16.66 4.3 8.1.87 17.6-.74 26.16-4.45 12.11-5.28 23.64-13.82 33.27-24.72 2.43-2.76 4.96-5.04 7.16-7.07a112 112 0 003.93-3.7c3.62-3.68 7.77-8.65 7.81-14.52.02-3.09-.77-10.8-8.65-15.4-11.25-6.53-19.5-13.3-25.2-20.66C3.7 81.36-.03 72.97-3.65 64.85c-1.96-4.36-3.97-8.91-6.25-13.18-8.1-15.25-21.01-27.3-35.4-32.98-14.75-5.85-32.03-4.11-45.12 4.45l-.14-.2.14.2c-5.02 3.3-9.53 7.98-13.93 12.5-2.45 2.54-4.78 4.96-7.22 7.13-4.3 3.88-9.57 4.95-15.22 6.08l-2.89.59c-7.72 1.68-21.94 6.03-30.19 16.3-7.1 8.89-8.12 21.52-2.31 28.78l.06.06-.02.09c-.13 4.21 1.23 7.97 3.1 13.14.55 1.52 1.16 3.23 1.78 5.12 7.8 6.7 12.14 16.76 16.69 27.42 1.38 3.16 2.76 6.48 4.29 9.64 5.54 11.67 12.11 20.09 20.06 25.64 8.6 6 19.73 8.86 30.6 7.88 13.46-1.24 22.66-5.02 25.28-10.41l.13-.11z" fill="url(#paint13_linear)"/><path d="M-19.2 177.52c-6.57 1.86-13.3 2.48-19.25 1.71-8.24-1.06-15.12-4.26-19.24-6.18l-.87-.42a23.19 23.19 0 00-5.08-1.84c-2.78 4.7-11.68 7.89-25.07 8.95-10.67.84-21.52-1.94-29.73-7.74-7.72-5.43-14.06-13.59-19.33-24.99-1.43-3.07-2.75-6.29-4.07-9.39-4.2-10.17-8.2-19.75-15.4-26.1l-.06-.06-.02-.08c-.21-.87-.44-1.67-.63-2.47-1.76-6.7-2.95-11.12-2.2-15.9-5.36-7.08-4.1-19.24 2.92-27.75 7.57-9.22 20.1-13.71 29.29-15.9.84-.2 1.65-.38 2.5-.55 5.4-1.21 10.52-2.35 14.57-6.16 2.01-1.9 3.95-3.9 6-6.04 4.79-4.95 9.73-10.03 15.25-13.5l.14.19-.14-.2a49.8 49.8 0 0144.6-3.7c14.05 5.77 26.66 17.7 34.57 32.73 2.23 4.21 4.16 8.63 6.06 12.93 3.65 8.22 7.42 16.73 13.01 23.77 6.96 8.81 16.86 15.42 24.7 20.19 8.56 5.19 8.51 14.07 8.31 16.66-.47 6.16-5.18 11.09-9.22 14.7-1.05.96-2.24 1.88-3.45 2.88-2.48 2.04-5.31 4.33-8 7.28-9.74 10.65-20.98 19-32.39 24.1a55.23 55.23 0 01-7.77 2.88zm-44.67-7.25l.34.1c1.87.48 2.64.7 5.18 1.89l.86.42c4.35 2 10.92 5.07 19.11 6.14 8.27 1.05 18.01-.58 26.81-4.52 11.38-5.1 22.5-13.42 32.22-24.03a73.17 73.17 0 018.07-7.33c1.2-1 2.39-1.93 3.45-2.89 3.96-3.55 8.59-8.38 9.07-14.37.22-2.53.2-11.2-8.11-16.26-7.9-4.8-17.84-11.42-24.84-20.26-5.6-7.08-9.39-15.62-13.05-23.88a227 227 0 00-6.05-12.9c-7.85-14.95-20.35-26.8-34.36-32.51-14.27-5.84-31.18-4.44-44.17 3.66-5.5 3.43-10.44 8.51-15.18 13.45a170.98 170.98 0 01-6.04 6.05c-4.14 3.91-9.3 5.06-14.76 6.3-.81.19-1.67.35-2.51.56-9.12 2.15-21.58 6.62-29.05 15.74-6.9 8.4-8.15 20.36-2.84 27.25l.06.06-.03.05c-.75 4.75.43 9.14 2.18 15.83.22.76.41 1.56.65 2.4 7.26 6.41 11.23 16.03 15.48 26.2 1.28 3.1 2.63 6.32 4.06 9.39 5.25 11.32 11.5 19.44 19.2 24.83 8.15 5.7 18.88 8.47 29.43 7.63 13.4-1.07 22.19-4.23 24.78-8.87l.04-.13z" fill="url(#paint14_linear)"/><path d="M-22.04 177.47c-6.65 1.88-13.43 2.44-19.45 1.57-8.9-1.34-16-5.11-20.58-7.84l-2.14-1.3c-1.1-.7-1.9-1.18-3.15-1.8-3.49 4.93-15.23 6.7-24.52 7.3-10.36.68-20.8-2.03-28.56-7.48-7.32-5.15-13.55-13.3-18.43-24.19a294.7 294.7 0 01-3.84-9.18c-3.91-9.68-7.55-18.8-14.2-24.88l-.06-.07-.02-.07c-1.5-7.97-2.3-13.13-.75-18.38-4.9-6.82-3.44-18.05 3.42-26.17 7.26-8.5 19.32-12.98 28.17-15.26.69-.2 1.35-.34 2.05-.5 5.28-1.3 10.27-2.53 14.18-6.41 1.53-1.53 3.04-3.09 4.68-4.77 5.2-5.42 10.59-11 16.72-14.66l.1.2-.1-.2a49.22 49.22 0 0143.65-2.9C-31.2 26.3-19 38.08-11.33 52.77a218.4 218.4 0 015.9 12.66c3.7 8.37 7.51 17.02 13.23 24.1 6.68 8.23 16.06 14.55 24.35 19.78 6.95 4.4 8.57 11.94 7.73 17.53-.9 6.28-6.09 11.07-10.47 14.54-.96.78-2 1.5-3.1 2.33-2.73 1.98-5.82 4.22-8.75 7.28C7.54 161.53-3 169.41-13.77 174.42a58.46 58.46 0 01-8.27 3.05zm-45.47-9.92l.18.07c1.35.63 2.21 1.17 3.36 1.9.59.38 1.25.78 2.1 1.31 4.55 2.7 11.59 6.44 20.4 7.77 8.46 1.28 18.46-.4 27.47-4.59 10.73-5 21.21-12.81 31.2-23.3 2.96-3.11 6.08-5.36 8.8-7.35 1.12-.78 2.12-1.54 3.12-2.29 4.32-3.41 9.42-8.1 10.32-14.26.8-5.46-.77-12.83-7.53-17.12-8.35-5.29-17.77-11.6-24.46-19.9-5.78-7.15-9.6-15.83-13.3-24.2-1.83-4.2-3.74-8.55-5.89-12.63-7.6-14.64-19.76-26.35-33.34-32.1a48.8 48.8 0 00-43.21 2.88c-6.12 3.61-11.46 9.2-16.63 14.6-1.64 1.68-3.15 3.24-4.68 4.77-4 3.95-9.06 5.23-14.38 6.5-.7.16-1.36.35-2.06.5-8.77 2.26-20.76 6.72-27.92 15.16-6.78 8.02-8.2 19.08-3.35 25.72l.06.1-.05.09c-1.58 5.18-.74 10.29.74 18.2 6.67 6.15 10.35 15.3 14.22 24.98 1.22 3.02 2.47 6.14 3.84 9.15 4.86 10.8 11.03 18.9 18.3 24 7.7 5.38 18.02 8.08 28.3 7.4 13.33-.9 21.75-3.4 24.29-7.29l.1-.07z" fill="url(#paint15_linear)"/><path d="M-24.9 177.46c-6.73 1.9-13.6 2.41-19.67 1.4-9.24-1.56-16.5-5.83-21-9.08-1.25-.9-2.09-1.64-2.87-2.31-.84-.74-1.57-1.4-2.63-2.07-2.71 3.15-10.58 5-24 5.71-10.24.57-19.97-2.03-27.4-7.26-7.03-4.96-12.93-12.82-17.52-23.35-1.28-2.96-2.47-6.02-3.63-8.97-3.56-9.15-6.9-17.81-12.97-23.63l-.06-.07-.02-.07c-.91-7.98-.99-13.31 1.33-18.38-4.35-6.43-2.67-16.98 3.94-24.6 5.4-6.22 14.3-11.1 26.38-14.52l.58-.17 1.56-.44c5.18-1.39 10.1-2.74 13.87-6.67 1-1.03 2.02-2.13 3.09-3.22 5.65-6.02 11.53-12.22 18.4-16.08a48.07 48.07 0 0142.65-2.1C-31.63 27.39-19.8 39-12.36 53.41c2.06 4.03 3.95 8.3 5.75 12.4C-2.88 74.32.98 83.1 6.86 90.23c6.48 7.81 15.55 13.83 23.58 19.13l.43.27c7.13 4.74 8.32 12.88 7.16 18.4-1.37 6.49-7 11.1-11.75 14.36l-2.88 1.87c-2.95 1.89-6.27 4-9.37 7.15-10.32 10.43-20.21 17.84-30.28 22.7a48.32 48.32 0 01-8.66 3.35zm-46.25-12.62l.15.11c1.15.73 1.93 1.4 2.83 2.2.77.65 1.62 1.42 2.85 2.28 4.46 3.27 11.67 7.47 20.83 9.01 8.67 1.5 18.9-.2 28.07-4.64 10.01-4.8 19.86-12.2 30.15-22.62 3.13-3.15 6.48-5.31 9.47-7.22 1-.63 1.95-1.25 2.88-1.87 4.68-3.24 10.26-7.75 11.58-14.1 1.12-5.4-.03-13.4-6.96-18l-.43-.26c-8.04-5.34-17.15-11.35-23.68-19.23-5.94-7.18-9.8-16-13.54-24.52-1.8-4.1-3.65-8.34-5.74-12.35-7.36-14.32-19.14-25.87-32.3-31.66a47.6 47.6 0 00-42.28 2.07c-6.82 3.85-12.67 10.04-18.3 16.01-1.01 1.11-2.04 2.18-3.08 3.22-3.87 4.03-8.83 5.36-14.06 6.8l-1.57.45c-12.32 3.42-21.32 8.31-26.79 14.6-6.52 7.5-8.17 17.9-3.86 24.18l.06.1-.05.09c-2.3 4.99-2.24 10.25-1.34 18.2 6.08 5.89 9.43 14.55 13 23.73 1.16 2.95 2.32 6.03 3.62 8.94 4.53 10.47 10.38 18.27 17.4 23.19 7.37 5.17 17 7.71 27.14 7.18 13.5-.7 21.31-2.6 23.84-5.7l.1-.2z" fill="url(#paint16_linear)"/><path d="M-27.75 177.4c-6.83 1.94-13.73 2.38-19.9 1.24a46.63 46.63 0 01-21.46-10.36c-1.35-1.14-2.22-2.14-3.13-3.1-.8-.87-1.54-1.7-2.57-2.55-3.27 2.96-13.22 3.75-23.5 4.13-9.94.4-19.26-2.11-26.24-7.01-6.79-4.8-12.37-12.35-16.62-22.55-1.23-2.9-2.31-5.87-3.38-8.77-3.22-8.66-6.23-16.83-11.71-22.39l-.06-.06-.02-.07c-.4-8.8.53-13.78 3.42-18.35-3.82-6.07-1.9-15.95 4.47-23.03 5.28-5.84 13.74-10.43 25.87-14.1l.98-.28c5.1-1.53 9.91-2.97 13.63-7l1.16-1.26c5.92-6.49 12.66-13.79 20.42-17.94a47.4 47.4 0 0141.66-1.32c13 5.92 24.17 17.1 31.48 31.39 2 3.96 3.82 8.1 5.56 12.13C-3.92 74.77-.07 83.72 6.03 90.9c5.77 6.84 13.43 12.05 20.84 17.1l2.83 1.93c7.33 5.03 8.12 13.55 6.58 19.27-1.8 6.72-7.93 11.11-13.05 14.2a60 60 0 01-2.73 1.56c-3.15 1.76-6.7 3.78-9.95 6.93-6.72 6.55-17.1 15.95-29.2 21.96a50.86 50.86 0 01-9.1 3.56zm-47.05-15.28l.15.11c1.12.9 1.92 1.77 2.74 2.7.85.93 1.76 1.92 3.07 3.08 3.5 3 10.86 8.29 21.27 10.25 8.88 1.66 19.35-.02 28.72-4.7 12.06-6 22.4-15.39 29.1-21.9 3.28-3.2 6.87-5.2 10.01-6.98.95-.54 1.86-1.04 2.74-1.56 5.05-3.03 11.06-7.4 12.84-13.96 1.49-5.61.72-13.91-6.42-18.84-.93-.64-1.87-1.3-2.83-1.93-7.41-5.05-15.08-10.3-20.9-17.16C-.4 84-4.3 75.04-8.05 66.37a221.5 221.5 0 00-5.54-12.1c-7.26-14.23-18.36-25.3-31.28-31.2a47.01 47.01 0 00-41.32 1.29l-.08-.17.08.17c-7.7 4.1-14.4 11.4-20.29 17.83l-1.16 1.27c-3.77 4.11-8.65 5.58-13.78 7.11l-.99.28c-12.07 3.62-20.45 8.22-25.66 14-6.28 6.98-8.16 16.73-4.38 22.65l.06.1-.05.1c-2.86 4.52-3.81 9.44-3.43 18.16 5.49 5.6 8.54 13.79 11.78 22.48 1.06 2.9 2.19 5.86 3.37 8.77 4.23 10.1 9.76 17.62 16.5 22.35 6.92 4.88 16.15 7.34 25.97 6.97 10.33-.39 20.31-1.19 23.35-4.16l.11-.15z" fill="url(#paint17_linear)"/><path d="M-30.55 177.38c-6.9 1.96-13.89 2.34-20.14 1.07a45.08 45.08 0 01-21.9-11.6 29.05 29.05 0 01-3.24-3.81c-.83-1.1-1.58-2.1-2.62-3.13-3.21 2.09-12.38 2.3-22.98 2.58-9.63.23-18.53-2.2-25.06-6.8-6.5-4.6-11.77-11.9-15.72-21.71-1.13-2.85-2.16-5.76-3.17-8.6-2.88-8.13-5.6-15.83-10.48-21.1l-.06-.05.02-.09c.19-8.53 1.76-13.86 5.5-18.35-3.24-5.69-1.13-14.88 5-21.46 6.46-6.92 16.59-10.88 24.66-13.53l.33-.09c5.05-1.67 9.83-3.22 13.47-7.38 6.47-7.42 13.48-15 21.7-19.08l.08.17-.09-.17a46.68 46.68 0 0140.69-.5c12.58 5.97 23.37 16.93 30.45 30.94A213.8 213.8 0 01-8.7 66.6C-4.93 75.38-1 84.46 5.23 91.68c5.28 6.08 12.1 10.83 18.67 15.41 1.61 1.1 3.13 2.16 4.62 3.26 7.02 5.04 8.07 13.77 5.97 20.14-2.3 7.06-9.25 11.42-14.3 14.06-.86.44-1.75.9-2.68 1.35-3.31 1.6-7.02 3.44-10.4 6.58-8.43 7.86-17.64 15.87-28.14 21.27a62.4 62.4 0 01-9.52 3.64zm-47.88-17.94l.11.12c1.1 1.1 1.91 2.16 2.78 3.28.9 1.19 1.83 2.4 3.2 3.78a44.32 44.32 0 0021.71 11.5c9.1 1.87 19.8.16 29.38-4.75 10.48-5.35 19.68-13.36 28.07-21.2 3.4-3.2 7.2-5.05 10.5-6.66.93-.46 1.82-.9 2.64-1.33 4.98-2.63 11.87-6.93 14.1-13.85 2.04-6.28 1.02-14.78-5.86-19.74-1.5-1.1-3.01-2.16-4.62-3.26-6.62-4.61-13.44-9.36-18.72-15.47-6.28-7.25-10.19-16.38-14-25.14-1.71-3.93-3.47-8-5.4-11.87-7.02-13.95-17.76-24.88-30.25-30.8a46.4 46.4 0 00-40.37.48c-8.14 4.07-15.12 11.64-21.56 19.01-3.7 4.22-8.5 5.82-13.65 7.47l-.32.1c-8.04 2.62-18.1 6.54-24.53 13.44-6.07 6.49-8.15 15.55-4.9 21.12l.06.1-.09.1c-3.7 4.45-5.3 9.7-5.47 18.16 4.94 5.31 7.66 13.02 10.54 21.19 1.01 2.84 2.04 5.75 3.17 8.6 3.93 9.74 9.16 17 15.6 21.55 6.45 4.57 15.3 6.95 24.85 6.73 10.68-.25 19.93-.45 22.9-2.58l.13-.08z" fill="url(#paint18_linear)"/><path d="M-33.34 177.35c-6.97 1.98-14.06 2.31-20.44.88a43.23 43.23 0 01-22.32-12.85c-1.44-1.59-2.41-3.07-3.38-4.51a33.24 33.24 0 00-2.71-3.72c-2.46 1-8 1.01-15.66.96l-6.79.01c-6.58.04-16.12-1.05-23.9-6.57-6.21-4.42-11.2-11.44-14.82-20.88-1.07-2.78-2.02-5.68-2.97-8.46-2.53-7.6-4.95-14.8-9.28-19.79l-.06-.06.02-.08c.75-8.46 3.03-13.95 7.57-18.37-2.7-5.32-.35-13.84 5.53-19.89 5.91-6.09 14.78-9.82 23.54-12.93 4.63-1.66 9.4-3.37 13-7.67 5.55-6.65 13-14.87 21.76-18.99a46.24 46.24 0 0139.73.3c12.15 5.96 22.6 16.79 29.4 30.44 1.92 3.8 3.6 7.77 5.26 11.64 3.81 8.92 7.74 18.12 14.18 25.35 4.81 5.44 10.96 9.78 16.92 14 2.1 1.47 4.08 2.86 5.98 4.31 7.15 5.36 7.8 14.63 5.4 21.01-2.13 5.6-7.07 10.02-15.57 13.91-.83.4-1.7.76-2.65 1.15-3.44 1.44-7.36 3.1-10.86 6.24-7.93 7.1-16.93 15.16-27.08 20.54a45.87 45.87 0 01-9.8 4.03zm-48.77-20.62l.06.1a27.25 27.25 0 012.84 3.88c.96 1.41 1.93 2.9 3.33 4.49a43.2 43.2 0 0022.14 12.74c9.36 2.12 20.27.34 30.02-4.8 10.12-5.38 19.13-13.4 27.03-20.49 3.53-3.15 7.46-4.8 10.91-6.3a65.8 65.8 0 002.66-1.14c8.4-3.87 13.3-8.23 15.39-13.7 2.37-6.26 1.72-15.38-5.28-20.62-1.94-1.44-3.91-2.84-5.99-4.32-5.95-4.2-12.14-8.55-17.01-14.04-6.44-7.27-10.38-16.5-14.24-25.46-1.66-3.86-3.35-7.84-5.26-11.63-6.8-13.62-17.19-24.38-29.25-30.3a45.68 45.68 0 00-39.41-.3l-.1-.17.1.17c-8.68 4.1-16.13 12.23-21.64 18.88-3.63 4.34-8.46 6.1-13.13 7.74-8.7 3.1-17.52 6.81-23.4 12.86-5.83 5.99-8.12 14.41-5.42 19.58l.06.1v.12c-4.53 4.33-6.82 9.79-7.56 18.16 4.34 5.02 6.76 12.23 9.3 19.87.92 2.78 1.9 5.67 2.98 8.45 3.58 9.37 8.53 16.37 14.68 20.72 7.73 5.46 17.15 6.54 23.69 6.48 2.39-.01 4.62-.02 6.78 0 7.47.02 13.33.04 15.65-1.01l.07-.06z" fill="url(#paint19_linear)"/><path d="M-36.14 177.32c-7.04 2-14.22 2.28-20.71.73a42.57 42.57 0 01-22.76-14.1c-1.45-1.77-2.46-3.52-3.45-5.19-.9-1.5-1.71-2.95-2.86-4.35-1.72.3-4.99.13-9.44-.09-3.47-.19-7.78-.41-12.5-.48-6.38-.06-15.51-1.22-22.74-6.32-5.92-4.22-10.6-10.98-13.92-20.08-.98-2.77-1.89-5.63-2.75-8.4-2.19-7.07-4.26-13.75-8.03-18.43l-.06-.06.02-.08c1.3-8.46 4.28-14.1 9.65-18.37-2.18-5 .34-12.67 6.02-18.3 6.06-5.99 15.48-9.68 22.37-12.37 4.73-1.85 8.9-3.7 12.15-7.86 7.48-9.51 14.63-15.68 21.88-18.87a45.54 45.54 0 0138.75 1.12c11.68 5.98 21.76 16.64 28.34 30 1.84 3.7 3.48 7.65 5.11 11.41 3.84 9.03 7.81 18.37 14.38 25.65 4.46 4.9 10.04 8.9 15.5 12.72 2.46 1.76 4.82 3.43 7.09 5.17 7.32 5.7 7.61 15.34 4.81 21.88-3.1 7.25-9.69 12.63-16.86 13.77-4.65.74-9.61 3.16-13.86 6.82-.95.82-1.92 1.68-2.9 2.5-7.23 6.28-14.72 12.74-23.13 17.35a44.46 44.46 0 01-10.1 4.23zm-118.8-76.84c3.77 4.7 5.85 11.42 8.04 18.5.87 2.76 1.72 5.6 2.75 8.36 3.25 9.04 7.92 15.72 13.79 19.92 7.15 5.08 16.19 6.22 22.52 6.26 4.72.03 9.03.3 12.5.48 4.54.24 7.82.44 9.49.08l.1-.03.06.06c1.17 1.47 2.02 2.95 2.93 4.49 1 1.67 2 3.38 3.44 5.15 2.61 3.21 10.01 10.96 22.58 14 9.57 2.31 20.76.54 30.67-4.88 8.39-4.57 15.84-11.02 23.08-17.3.98-.82 1.95-1.68 2.89-2.5 4.32-3.68 9.3-6.15 14.04-6.9 7.02-1.1 13.54-6.43 16.6-13.59 2.74-6.44 2.43-15.89-4.74-21.47-2.23-1.75-4.6-3.42-7.1-5.17-5.42-3.86-11.07-7.84-15.55-12.78-6.6-7.3-10.59-16.69-14.44-25.75-1.6-3.77-3.27-7.7-5.11-11.4-6.56-13.3-16.58-23.9-28.22-29.85a45.18 45.18 0 00-38.48-1.12l-.07-.13.07.13c-7.17 3.17-14.3 9.3-21.75 18.75-3.31 4.19-7.52 6.08-12.29 7.94-6.84 2.69-16.23 6.37-22.24 12.25-5.57 5.5-8.1 13.24-5.9 18.05l.03.1-.1.07c-5.32 4.29-8.3 9.9-9.6 18.28z" fill="url(#paint20_linear)"/><path d="M-38.75 177.25c-7.19 2.03-14.6 2.3-21.14.6-9.24-2.38-17.71-7.98-23.2-15.33-1.47-2-2.54-3.97-3.52-5.88-.93-1.73-1.79-3.36-2.96-4.98-1-.07-2.47-.27-4.35-.52-4-.55-10.02-1.42-17.1-1.6-8.99-.26-16.25-2.3-21.57-6.1-5.68-4.06-10.04-10.52-13.01-19.25-.96-2.77-1.76-5.59-2.55-8.34-1.86-6.5-3.62-12.64-6.8-17.01l-.06-.07.02-.08c1.85-8.5 5.58-14.36 11.75-18.33-1.6-4.63 1.1-11.65 6.54-16.75 5.29-4.97 12.99-8.25 19.77-11.15l1.44-.6c4.86-2.09 8.46-4.17 11.36-8.04 4.76-6.39 12.44-14.81 21.95-18.73A44.97 44.97 0 01-44.42 27c11.25 6 20.94 16.5 27.31 29.57 1.79 3.63 3.4 7.47 4.97 11.17C-8.3 76.91-4.28 86.4 2.47 93.67c4.14 4.45 9.27 8.1 14.25 11.66 2.8 1.97 5.47 3.88 7.97 5.9 7.16 5.78 7.55 15.79 4.24 22.74-3.49 7.28-10.56 12.61-18.08 13.61a28.72 28.72 0 00-14.3 6.29 234.67 234.67 0 00-5.34 4.48C-15 163.6-21.4 169.04-28.43 173a50.27 50.27 0 01-10.32 4.26zm-115.9-78.58c3.2 4.4 4.95 10.55 6.82 17.05.78 2.75 1.59 5.57 2.54 8.35 2.95 8.65 7.27 15.09 12.89 19.08 5.27 3.74 12.46 5.8 21.4 6.04 7.08.21 13.13 1.04 17.14 1.62 1.92.27 3.43.47 4.4.55l.08.01.06.06a43.98 43.98 0 013.02 5.08c1.02 1.9 2.04 3.84 3.51 5.8 5.44 7.33 13.85 12.88 23 15.24 9.72 2.52 21.44.68 31.33-4.94 7.02-3.99 13.4-9.4 19.6-14.63 1.77-1.48 3.56-3.04 5.35-4.48a28.8 28.8 0 0114.44-6.33c7.41-.97 14.42-6.24 17.86-13.43 3.23-6.81 2.84-16.67-4.17-22.37-2.5-2.03-5.12-3.9-7.93-5.88-4.98-3.55-10.15-7.2-14.3-11.69-6.77-7.33-10.78-16.82-14.68-26.03-1.57-3.7-3.18-7.54-4.93-11.18-6.35-13-15.98-23.44-27.2-29.44a44.6 44.6 0 00-37.51-1.9l-.05-.14.05.15c-9.48 3.9-17.1 12.27-21.83 18.62-2.93 3.91-6.56 6.04-11.49 8.14l-1.44.6c-6.74 2.9-14.4 6.16-19.66 11.1-5.39 5.04-8.1 12.02-6.42 16.5l.03.11-.1.07c-6.22 4.07-9.94 9.85-11.8 18.27z" fill="url(#paint21_linear)"/><path d="M-41.5 177.2c-7.27 2.07-14.78 2.29-21.48.43a42.6 42.6 0 01-23.63-16.57 51.29 51.29 0 01-3.63-6.52 51.95 51.95 0 00-3.07-5.65c-3-.9-10.78-3.23-20.96-3.7-8.8-.43-15.48-2.37-20.37-5.86-5.4-3.9-9.48-10.09-12.1-18.4-.88-2.8-1.61-5.64-2.33-8.41-1.5-5.9-2.94-11.51-5.55-15.54l-.02-.07.03-.05c2.41-8.57 6.93-14.58 13.86-18.34-1.06-4.24 1.91-10.59 7.04-15.17 4.6-4.08 11.09-7.05 16.82-9.65l3.26-1.52c3.7-1.75 7.5-3.92 10.52-8.22 3.65-5.21 11.37-14.55 22.07-18.6a44.34 44.34 0 0136.81 2.72c10.79 6 20.15 16.35 26.28 29.1 1.73 3.58 3.27 7.32 4.78 10.96 3.88 9.29 7.9 18.93 14.82 26.23 3.87 4.06 8.6 7.44 13.22 10.66 2.95 2.06 5.97 4.25 8.65 6.5 7.3 6.13 7.36 16.5 3.65 23.57-3.82 7.34-11.42 12.62-19.35 13.42-3.89.4-9.6 1.7-14.69 5.73a221.72 221.72 0 00-7.12 5.85c-5.3 4.48-10.82 9.09-16.78 12.54a47.04 47.04 0 01-10.74 4.57zm-112.83-80.3c2.62 4.06 4.07 9.67 5.56 15.57.72 2.77 1.45 5.6 2.32 8.37 2.61 8.28 6.65 14.44 12 18.28 4.88 3.5 11.46 5.38 20.23 5.82 10.23.5 18.1 2.88 21.05 3.76l.05.02v.04a46.84 46.84 0 013.14 5.71c1.04 2.13 2.09 4.3 3.58 6.49a42.4 42.4 0 0023.48 16.46c10 2.71 21.96.88 31.95-4.96 5.95-3.49 11.42-8.09 16.74-12.53 2.35-1.95 4.78-4 7.15-5.85 5.17-4.05 10.95-5.38 14.84-5.78 7.85-.82 15.34-6.03 19.12-13.27 3.65-6.98 3.56-17.19-3.6-23.24a117.42 117.42 0 00-8.64-6.46c-4.62-3.26-9.36-6.64-13.23-10.7-6.96-7.32-10.98-16.96-14.87-26.3-1.51-3.63-3.1-7.36-4.79-10.94-6.11-12.72-15.42-23.01-26.16-28.99a44.03 44.03 0 00-36.57-2.67l-.04-.15.04.15c-10.62 4.03-18.28 13.31-21.93 18.53-3.03 4.22-6.87 6.44-10.6 8.2-1.04.5-2.15 1-3.26 1.51-5.7 2.6-12.15 5.56-16.71 9.63-5.14 4.54-8.05 10.84-6.94 14.98l.03.1-.1.07c-6.95 3.7-11.45 9.62-13.84 18.15z" fill="url(#paint22_linear)"/><path d="M-44.26 177.2c-7.33 2.09-14.95 2.22-21.78.29a43.11 43.11 0 01-24.07-17.83c-1.54-2.37-2.63-4.8-3.7-7.15a53.3 53.3 0 00-3.17-6.29c-3.8-2.04-11.42-4.65-20.47-5.28-5.89-.4-13.37-1.45-19.2-5.65-5.05-3.65-8.92-9.74-11.21-17.6-.82-2.86-1.44-5.73-2.09-8.52-1.2-5.28-2.28-10.29-4.35-13.96l-.02-.07.03-.05c2.93-8.68 8.3-14.85 15.94-18.35-.49-3.89 2.61-9.5 7.56-13.6 3.96-3.3 9.14-5.79 14.1-8.18 1.7-.83 3.28-1.59 4.82-2.38 4.44-2.31 7.37-4.82 9.72-8.42 5.85-8.89 13.93-15.63 22.13-18.5a43.51 43.51 0 0135.83 3.5c10.35 6 19.3 16.16 25.24 28.66 1.68 3.51 3.2 7.18 4.65 10.75 3.92 9.44 7.94 19.2 15.06 26.52 3.6 3.7 8.04 6.82 12.27 9.8 3.14 2.2 6.4 4.51 9.21 6.96 3.4 2.98 5.41 7.1 5.8 11.9.37 4.28-.64 8.86-2.71 12.58-4.17 7.39-12.25 12.61-20.62 13.27-6.17.5-11.11 2.18-15.12 5.15-2.82 2.09-5.7 4.5-8.46 6.81-4.59 3.84-9.34 7.81-14.42 10.9a45.2 45.2 0 01-10.97 4.75zm-109.76-82.1c2.05 3.71 3.16 8.7 4.36 14 .65 2.78 1.28 5.69 2.09 8.5 1.56 5.46 4.75 12.88 11.08 17.45 5.79 4.18 13.26 5.18 19.07 5.6 9.1.66 16.8 3.28 20.6 5.33l.05.03.01.03a58.6 58.6 0 013.24 6.35c1.05 2.32 2.14 4.75 3.68 7.12a42.72 42.72 0 0023.92 17.71c10.31 2.97 22.49 1.08 32.6-5.03 5.04-3.07 9.8-7.04 14.38-10.88 2.76-2.3 5.64-4.72 8.45-6.81 4.05-2.99 9.05-4.72 15.27-5.23 8.25-.66 16.27-5.83 20.41-13.14 3.93-6.97 4.2-17.8-3.02-24.1-2.82-2.45-6.06-4.73-9.18-6.97-4.27-3.01-8.7-6.13-12.32-9.87-7.13-7.35-11.18-17.1-15.11-26.57a198.31 198.31 0 00-4.64-10.72C-25 45.47-33.9 35.34-44.21 29.36a43.42 43.42 0 00-35.59-3.5l-.04-.14.04.14c-8.17 2.87-16.22 9.57-22.01 18.4-2.38 3.6-5.34 6.16-9.82 8.49-1.5.78-3.12 1.55-4.8 2.38-4.98 2.39-10.1 4.9-14.08 8.17-4.95 4.1-7.99 9.65-7.44 13.48l.03.11-.1.03c-7.7 3.43-13.05 9.56-16 18.17z" fill="url(#paint23_linear)"/><path d="M-46.97 177.2c-7.4 2.1-15.15 2.18-22.12.06a43.6 43.6 0 01-24.5-19.07c-1.56-2.56-2.67-5.22-3.75-7.76-.98-2.3-1.98-4.72-3.3-6.96-3.38-2.63-10.61-5.97-19.98-6.87-6.3-.6-12.88-1.66-18.04-5.43-6.09-4.4-8.96-11.56-10.3-16.77-.76-2.94-1.3-5.92-1.84-8.77-.85-4.6-1.66-8.95-3.17-12.27v-.04l.02-.04c3.48-8.8 9.72-15.14 18.07-18.33.1-3.5 3.4-8.43 8.05-12.05 3.34-2.6 7.55-4.73 11.64-6.78 2.2-1.1 4.25-2.15 6.14-3.23a23.94 23.94 0 008.88-8.58c5.41-8.8 13.72-15.69 22.25-18.38 11.4-3.63 24.43-2.01 34.84 4.3 9.89 6.02 18.48 16 24.2 28.17 1.6 3.41 3.07 7.02 4.5 10.52 3.93 9.6 7.97 19.46 15.25 26.77 3.41 3.41 7.49 6.28 11.47 9.06a93.72 93.72 0 019.68 7.36c7.44 6.8 6.84 18.1 2.5 25.31-5.04 8.31-14.65 11.74-21.83 13.12-1 .2-2.03.34-3.11.53-4.2.68-8.56 1.37-12.45 4.08a138.26 138.26 0 00-9.4 7.47c-3.95 3.34-8.07 6.78-12.43 9.5a42.56 42.56 0 01-11.27 5.07zM-153.7 93.31c1.5 3.33 2.31 7.67 3.16 12.27.54 2.86 1.08 5.83 1.85 8.78 1.32 5.17 4.18 12.29 10.18 16.64 5.14 3.7 11.65 4.78 17.95 5.38 9.4.89 16.73 4.28 20.13 6.95l.04.02c1.32 2.28 2.33 4.7 3.35 7.02 1.08 2.55 2.2 5.2 3.75 7.77a43.37 43.37 0 0024.35 18.95c10.61 3.2 23.07 1.3 33.24-5.1 4.33-2.7 8.45-6.14 12.4-9.49 3.06-2.59 6.23-5.25 9.4-7.47 3.92-2.76 8.5-3.47 12.55-4.15 1.08-.19 2.1-.32 3.07-.52 7.13-1.4 16.69-4.77 21.7-13.03 4.28-7.12 4.9-18.27-2.45-25.01-2.92-2.65-6.35-5.04-9.64-7.35-3.98-2.78-8.1-5.63-11.52-9.08-7.32-7.33-11.38-17.28-15.3-26.87-1.44-3.5-2.9-7.07-4.51-10.52-5.72-12.13-14.26-22.09-24.1-28.08-10.36-6.29-23.34-7.88-34.64-4.28l-.03-.11.03.1c-8.44 2.72-16.74 9.53-22.12 18.28a24.1 24.1 0 01-8.98 8.68 117.83 117.83 0 01-6.14 3.23c-4.04 2.04-8.27 4.14-11.58 6.72-5.43 4.2-7.94 9.13-7.96 11.95l-.01.08-.07.02c-8.4 3.2-14.6 9.5-18.1 18.22z" fill="url(#paint24_linear)"/><path d="M-49.58 177.12c-7.52 2.13-15.55 2.18-22.58-.04a44.36 44.36 0 01-24.94-20.31c-1.34-2.36-2.2-4.85-3.05-7.23-1.14-3.15-2.19-6.13-4.17-8.81-2.48-3.32-9.46-7.24-19.5-8.46-5.93-.7-12.11-1.72-16.87-5.17-5.75-4.2-8.3-11-9.4-15.97-.69-3.09-1.11-6.2-1.54-9.21-.52-3.88-1.02-7.53-2.04-10.4v-.04l.02-.04c4.12-9.03 11.06-15.37 20.14-18.34.6-2.59 3.46-6.84 8.58-10.48 2.74-1.95 6.09-3.68 9.3-5.34 2.63-1.37 5.13-2.66 7.32-4.07 3.38-2.17 5.8-4.8 8.08-8.77 5.08-8.87 13.45-15.7 22.33-18.26.04 0 .07-.02.1-.03 11.12-3.15 23.72-1.22 33.75 5.16 9.6 6.07 17.6 15.67 23.17 27.72 1.55 3.35 3 6.89 4.36 10.3 3.92 9.7 8.02 19.75 15.49 27.05C2.19 99.53 6 102.16 9.7 104.7c3.47 2.37 7.05 4.87 10.06 7.7 7.55 7.19 6.66 18.85 1.92 26.17-4.35 6.74-12.56 11.38-23.1 12.96-1.04.18-2.11.29-3.25.42-4.3.51-8.77 1.04-12.73 3.65-3.44 2.26-6.78 5.12-10.03 7.88-3.44 2.93-6.98 5.93-10.72 8.36a39.86 39.86 0 01-11.44 5.28zM-153.36 91.5c.99 2.88 1.48 6.53 2 10.4.43 3.01.85 6.1 1.53 9.19 1.1 4.92 3.58 11.68 9.3 15.84 4.7 3.43 10.87 4.41 16.77 5.12 10.08 1.2 17.14 5.18 19.64 8.53 1.98 2.68 3.08 5.7 4.18 8.86a45.73 45.73 0 003.04 7.18 43.86 43.86 0 0024.78 20.2c10.79 3.39 23.77 1.42 33.9-5.13 3.74-2.42 7.28-5.42 10.72-8.35 3.25-2.76 6.6-5.62 10.06-7.9 4-2.65 8.47-3.18 12.8-3.67 1.15-.13 2.2-.27 3.23-.4 6.09-.95 17.15-3.85 22.96-12.89 4.67-7.26 5.58-18.77-1.88-25.88-2.97-2.83-6.54-5.29-10-7.67-3.73-2.57-7.54-5.2-10.8-8.34-7.51-7.32-11.57-17.38-15.5-27.13-1.37-3.4-2.81-6.94-4.36-10.29-5.56-12.01-13.56-21.58-23.1-27.62-9.99-6.35-22.55-8.26-33.58-5.13l-.11.03-.03-.1.03.1c-8.85 2.55-17.15 9.32-22.2 18.14-2.3 4.01-4.73 6.66-8.15 8.84-2.19 1.4-4.68 2.7-7.31 4.06-3.22 1.66-6.53 3.38-9.27 5.33-5.12 3.64-7.96 7.85-8.48 10.42l-.03.04-.07.02c-9.06 2.92-16 9.23-20.07 18.2z" fill="url(#paint25_linear)"/><path d="M-52.3 177.1c-7.58 2.16-15.7 2.16-22.94-.2a45 45 0 01-25.33-21.57 55.64 55.64 0 01-3.26-7.95c-1.15-3.34-2.25-6.47-4.18-9.4-2.59-3.95-9.46-8.6-19.01-10.03l-.25-.05c-5.16-.76-11-1.65-15.46-4.91-4.27-3.13-7.26-8.49-8.46-15.14-.6-3.35-.85-6.68-1.1-9.89-.25-3.05-.45-5.93-.96-8.28l-.01-.04.02-.04a35.42 35.42 0 0122.27-18.31c1.02-2.09 4-5.67 9.06-8.94 2.12-1.39 4.61-2.68 7.04-3.95 2.93-1.54 5.98-3.1 8.4-4.89 3.59-2.58 5.6-5.8 7.29-8.98 4.7-8.83 13.26-15.8 22.44-18.13 10.87-2.77 23.15-.59 32.9 5.9 9.11 6.05 16.76 15.49 22.14 27.28 1.5 3.29 2.88 6.76 4.23 10.1 3.96 9.85 8.01 20.03 15.68 27.34 3.03 2.9 6.64 5.35 10.1 7.69 3.6 2.45 7.3 4.96 10.32 7.97 3.4 3.37 5.34 8.1 5.42 13.3a24.07 24.07 0 01-4.07 13.74c-6.44 9.44-18.04 12.11-24.36 12.8-1.1.13-2.22.2-3.4.31-4.38.34-8.95.7-12.98 3.21-3.64 2.25-7.1 5.26-10.42 8.16-2.96 2.56-6.04 5.23-9.27 7.4a41.15 41.15 0 01-11.84 5.5zm-100.75-87.4c.52 2.36.75 5.22.96 8.29.25 3.2.5 6.53 1.1 9.88 1.22 6.57 4.2 11.9 8.38 15 4.43 3.24 10.24 4.1 15.37 4.86l.25.05c9.6 1.42 16.52 6.14 19.15 10.12 1.9 2.94 3.08 6.23 4.2 9.43a55.13 55.13 0 003.24 7.91c5.42 10.14 14.6 17.97 25.22 21.44 11.14 3.68 24.38 1.68 34.55-5.19 3.22-2.17 6.27-4.83 9.26-7.4 3.33-2.9 6.8-5.87 10.46-8.16 4.07-2.52 8.64-2.88 13.05-3.23 1.19-.1 2.3-.19 3.4-.3 6.31-.74 17.85-3.35 24.23-12.74 5.03-7.37 6.26-19.24-1.35-26.77-3.01-2.97-6.71-5.48-10.32-7.93-3.47-2.38-7.08-4.83-10.14-7.71-7.7-7.3-11.77-17.52-15.74-27.41-1.35-3.33-2.73-6.8-4.23-10.1C-27.38 48-35 38.6-44.08 32.58c-9.7-6.47-21.91-8.67-32.73-5.87-9.1 2.34-17.65 9.22-22.3 18.05-1.69 3.17-3.73 6.44-7.35 9.03a75.6 75.6 0 01-8.45 4.9c-2.39 1.26-4.88 2.56-7 3.9-5.08 3.28-8.05 6.86-9.04 8.9l-.03.04-.03.01-.3.09a35.08 35.08 0 00-21.74 18.08z" fill="url(#paint26_linear)"/><path d="M-55 177.13a39.62 39.62 0 01-23.31-.42c-10.92-3.7-20.29-12.02-25.76-22.77-1.44-2.84-2.44-5.8-3.43-8.68-1.15-3.34-2.34-6.8-4.15-9.95-2.47-4.26-8.83-9.88-18.52-11.63-.45-.07-.86-.14-1.32-.25-4.64-.83-9.4-1.67-13.22-4.49-5.43-4-7.07-10.69-7.56-14.3a75.76 75.76 0 01-.5-10.92c0-2.1.01-4.1-.13-5.82v-.04l.02-.04a37.58 37.58 0 0124.35-18.32c1.96-2.31 5.56-5.1 9.58-7.37 1.49-.85 3.06-1.65 4.74-2.51 3.39-1.75 6.92-3.53 9.58-5.73 3.07-2.47 4.76-5.6 6.45-9.17 4.34-8.97 13-15.88 22.5-18.03 10.59-2.38 22.53.13 31.92 6.72 8.64 6.03 15.93 15.33 21.11 26.83 1.44 3.23 2.8 6.6 4.08 9.86 3.96 9.97 8.06 20.33 15.88 27.6 2.88 2.67 6.23 4.92 9.5 7.12 3.68 2.47 7.51 5.02 10.54 8.18 3.4 3.53 5.28 8.43 5.28 13.78.01 4.96-1.65 10.12-4.52 14.1-5.13 7.15-14.49 11.76-25.61 12.65-1.16.1-2.35.16-3.6.2-4.46.18-9.07.4-13.22 2.78-3.76 2.2-7.24 5.26-10.63 8.25a91.66 91.66 0 01-8 6.57 37.61 37.61 0 01-12.04 5.8zm-97.73-89.2c.14 1.72.1 3.68.12 5.79.02 3.35.01 7.14.53 10.87.48 3.6 2.14 10.21 7.48 14.2 3.78 2.8 8.54 3.63 13.13 4.44.45.07.91.17 1.32.25 9.74 1.77 16.14 7.42 18.63 11.71 1.84 3.15 3.03 6.6 4.15 9.96.98 2.88 1.98 5.84 3.41 8.64 5.47 10.72 14.83 19 25.66 22.69 11.52 3.91 25 1.89 35.2-5.26 2.77-1.96 5.43-4.32 8-6.57 3.39-3 6.86-6.09 10.67-8.27 4.14-2.38 8.79-2.6 13.3-2.8 1.24-.03 2.4-.09 3.58-.19 11.1-.88 20.38-5.47 25.49-12.58 5.44-7.6 6.63-20.01-.78-27.64-3.01-3.13-6.84-5.67-10.53-8.14-3.26-2.2-6.65-4.45-9.54-7.14-7.87-7.3-11.97-17.66-15.94-27.67a253.18 253.18 0 00-4.08-9.86c-5.17-11.47-12.45-20.73-21.04-26.73-9.38-6.56-21.24-9.05-31.79-6.69-9.47 2.15-18.07 9-22.38 17.92-1.73 3.58-3.42 6.71-6.5 9.23-2.68 2.17-6.2 3.99-9.63 5.74-1.67.86-3.25 1.66-4.7 2.5-4 2.31-7.58 5.05-9.55 7.36l-.03.01-.04.01a37.3 37.3 0 00-24.14 18.22z" fill="url(#paint27_linear)"/><path d="M-57.6 177.09c-1.67.47-3.37.83-5.14 1.1-6.36.95-12.81.36-18.62-1.7-11.14-3.96-20.71-12.69-26.2-24.02a70.75 70.75 0 01-3.6-9.45 70.95 70.95 0 00-4.14-10.47c-2.72-5.09-8.87-11.23-18.03-13.2-.68-.16-1.42-.3-2.1-.46-3.95-.8-8-1.64-11.28-4.03-3.75-2.8-6.17-7.7-6.65-13.5-.36-4.4.13-8.87.52-12.42.1-1 .22-1.98.28-2.86l.03-.04a40.27 40.27 0 0126.44-18.29 80.91 80.91 0 0110.07-5.82c.72-.36 1.45-.69 2.2-1.06 3.77-1.8 8.05-3.85 10.97-6.55 2.56-2.4 3.9-5.44 5.34-8.62l.3-.72c3.95-8.97 12.85-15.99 22.63-17.9a37.82 37.82 0 0116.08.51 42.41 42.41 0 0114.84 7c8.16 6.01 15.08 15.1 20.07 26.35 1.41 3.15 2.68 6.46 3.95 9.66 3.96 10.13 8.06 20.6 16.11 27.9 2.75 2.45 5.9 4.53 8.98 6.55 3.78 2.48 7.7 5.04 10.75 8.32 3.4 3.68 5.24 8.7 5.14 14.24a25.5 25.5 0 01-4.92 14.49c-5.57 7.4-15.37 11.97-26.88 12.5-1.23.08-2.53.06-3.78.1-4.54.04-9.24.08-13.42 2.33-3.88 2.07-7.34 5.2-10.67 8.26a85.54 85.54 0 01-6.91 5.87 40.32 40.32 0 01-12.36 5.93zm-94.83-90.96c-.06.87-.19 1.8-.29 2.81-.42 3.75-.88 8.03-.53 12.42.5 5.72 2.88 10.6 6.62 13.36 3.24 2.4 7.28 3.2 11.2 4.01l2.13.45c9.22 2.03 15.42 8.2 18.13 13.3 1.78 3.32 2.98 6.96 4.18 10.45 1.05 3.14 2.13 6.35 3.6 9.45 5.48 11.3 15.01 20.04 26.14 23.95a39.24 39.24 0 0035.85-5.32 89.77 89.77 0 006.91-5.87c3.36-3.06 6.82-6.2 10.7-8.27 4.22-2.26 8.96-2.31 13.5-2.35 1.26 0 2.55-.02 3.75-.09 11.46-.55 21.23-5.08 26.76-12.47 5.8-7.7 7.3-20.47-.2-28.54-3.01-3.25-6.93-5.81-10.7-8.3a73.5 73.5 0 01-9-6.59c-8.08-7.27-12.2-17.79-16.17-27.95-1.23-3.2-2.53-6.51-3.94-9.66-4.98-11.21-11.9-20.3-20.01-26.28-9.05-6.66-20.58-9.48-30.84-7.47-9.7 1.9-18.54 8.86-22.5 17.8l-.3.7c-1.43 3.23-2.76 6.26-5.36 8.71-2.91 2.7-7.22 4.79-10.98 6.6-.76.37-1.5.7-2.21 1.06-4.02 2-7.6 4.03-10.07 5.82a40.35 40.35 0 00-26.37 18.27z" fill="url(#paint28_linear)"/><path d="M-60.2 177.08a39.59 39.59 0 01-24.2-.79c-11.4-4.15-21.1-13.35-26.63-25.26a89.55 89.55 0 01-3.8-10.25c-1.2-3.65-2.43-7.4-4.15-10.94-3.6-7.37-10.17-12.9-17.55-14.82-.86-.23-1.78-.44-2.66-.62-3.35-.76-6.8-1.54-9.55-3.62-3.5-2.6-5.64-7.34-5.75-12.66-.13-5.4.7-10.44 2.28-13.85 4.92-10.62 16.78-14.85 28.52-18.3 1.92-.54 4.11-1.51 6.63-2.58 1.26-.55 2.59-1.12 3.96-1.67 4.26-1.71 9.06-3.86 12-7.04 2.03-2.21 3.05-4.84 4.12-7.69.21-.6.47-1.23.72-1.85a28.06 28.06 0 019-11.73 29.98 29.98 0 0113.68-5.99c5.1-.82 10.38-.48 15.72 1.05a42 42 0 0114.26 7.28c7.77 6.04 14.15 14.74 19.04 25.9 1.35 3.08 2.58 6.29 3.8 9.42C-16.8 81.36-12.7 92-4.46 99.22c2.58 2.28 5.6 4.2 8.5 6.07 3.84 2.47 7.84 5.04 10.85 8.45 3.42 3.83 5.2 9.07 5 14.71a25.99 25.99 0 01-5.36 14.85 30.14 30.14 0 01-12.51 9.21 43.16 43.16 0 01-15.6 3.14c-1.28.01-2.62 0-3.97-.05-4.62-.1-9.4-.22-13.67 1.89-3.92 1.93-7.29 5.11-10.58 8.16a88.67 88.67 0 01-5.95 5.24 36.81 36.81 0 01-12.44 6.19zM-76.87 28.24C-85.6 30.7-92.95 37.1-96.16 45.2c-.26.62-.48 1.22-.73 1.84-1.07 2.85-2.07 5.51-4.14 7.74-2.97 3.23-7.78 5.33-12.06 7.1-1.41.55-2.7 1.12-3.96 1.67a54.97 54.97 0 01-6.64 2.58c-11.7 3.44-23.56 7.66-28.46 18.24-1.54 3.36-2.38 8.4-2.25 13.76.13 5.28 2.26 9.95 5.71 12.56 2.75 2.04 6.19 2.82 9.51 3.6.89.21 1.8.38 2.65.61 4 1.05 7.66 3.02 10.84 5.91a29.24 29.24 0 016.77 8.98c1.72 3.53 2.95 7.29 4.15 10.93 1.1 3.4 2.25 6.9 3.8 10.25 5.52 11.88 15.22 21.04 26.57 25.2 12.15 4.45 26.5 2.33 36.5-5.35a88.96 88.96 0 005.96-5.25c3.28-3.08 6.65-6.26 10.6-8.2 4.3-2.12 9.1-2 13.75-1.91 1.3.02 2.65.07 3.94.05 11.84-.2 22.05-4.7 28.03-12.33 6.13-7.8 7.93-20.96.37-29.4-3-3.37-7-5.95-10.85-8.41-2.9-1.88-5.92-3.8-8.5-6.1C-12.88 92-17 81.34-20.97 71.05c-1.2-3.13-2.45-6.37-3.8-9.43C-29.6 50.5-36.02 41.8-43.76 35.76c-8.74-6.82-19.9-9.9-29.85-8.3-1.08.2-2.18.47-3.27.78z" fill="url(#paint29_linear)"/><path d="M-62.84 177.13a39.64 39.64 0 01-24.63-1.02c-11.62-4.36-21.49-14.03-27.07-26.5-1.62-3.61-2.82-7.4-4-11.1-1.2-3.8-2.44-7.7-4.12-11.37-2.21-4.84-7.38-13.42-17.07-16.41-.99-.3-2-.56-3.02-.82-2.8-.73-5.7-1.43-8.02-3.2-3.22-2.48-5.1-6.99-4.84-11.83.2-4.35 1.59-8.85 3.72-12.38 3.02-4.92 7.46-9.03 13.24-12.28 4.97-2.78 10.84-4.79 17.39-6.03 4.17-.79 7.7-1.63 11.11-2.72 5.12-1.6 8.77-3.78 10.88-6.44 1.64-2.07 2.36-4.5 3.14-7.1.27-.86.52-1.76.86-2.63 3.25-9.21 12.4-16.3 22.78-17.64 5-.64 10.17-.11 15.32 1.55a42.7 42.7 0 0113.66 7.53c7.24 5.96 13.31 14.55 18 25.44 1.3 3 2.48 6.18 3.67 9.24 3.97 10.44 8.08 21.22 16.54 28.43 2.5 2.11 5.32 3.89 8.05 5.61 3.92 2.45 7.95 5.01 10.95 8.5 3.42 3.99 5.13 9.4 4.84 15.23a26.3 26.3 0 01-5.8 15.24c-3.32 4.07-7.76 7.2-13.15 9.36a43.1 43.1 0 01-16.2 2.88c-1.38 0-2.78-.08-4.17-.15-4.7-.23-9.56-.5-13.91 1.45-3.97 1.79-7.22 4.94-10.35 8.01-1.66 1.6-3.34 3.26-5.13 4.7a36.23 36.23 0 01-12.67 6.45zm-64.32-111.46c-11.25 3.2-19.9 9.05-24.65 16.84a26.99 26.99 0 00-3.7 12.34c-.23 4.8 1.62 9.31 4.82 11.72 2.31 1.77 5.18 2.48 7.98 3.2 1.02.27 2.04.53 3.03.83a24.86 24.86 0 0110.47 6.56 35.63 35.63 0 016.69 9.9c1.68 3.7 2.92 7.61 4.13 11.4 1.17 3.7 2.38 7.5 3.99 11.07 5.57 12.44 15.4 22.08 27 26.44 12.63 4.74 27.2 2.6 37.15-5.43 1.79-1.44 3.48-3.09 5.14-4.7 3.15-3.08 6.41-6.23 10.38-8.02 4.38-1.95 9.24-1.72 13.94-1.45 1.36.08 2.8.14 4.13.15 12.05.14 23-4.41 29.3-12.18 7.34-9 7.77-22.32.94-30.27-3-3.48-7.04-6.05-10.92-8.5-2.73-1.73-5.56-3.5-8.05-5.65-8.48-7.24-12.59-18.03-16.57-28.5-1.15-3.08-2.37-6.21-3.66-9.2-4.69-10.9-10.71-19.47-17.95-25.42-8.58-7.06-19.1-10.36-28.9-9.07-10.37 1.34-19.46 8.41-22.68 17.57-.3.87-.6 1.77-.86 2.63-.8 2.57-1.54 5.04-3.18 7.11-2.13 2.72-5.79 4.89-10.94 6.5a93.48 93.48 0 01-11.1 2.73c-2.08.43-4.04.87-5.93 1.4z" fill="url(#paint30_linear)"/><path d="M-65.37 177.1c-1.74.5-3.51.88-5.33 1.12-6.7.89-13.55.1-19.81-2.3a46.22 46.22 0 01-16.44-11.08 55.92 55.92 0 01-11.06-16.67c-1.66-3.87-2.96-8-4.17-11.95-1.23-3.9-2.48-7.97-4.12-11.8-2.76-6.48-7.9-14.83-16.58-18a44.45 44.45 0 00-3.19-.96c-2.34-.67-4.73-1.32-6.68-2.8-2.98-2.31-4.54-6.64-3.95-11.02.5-3.47 2.18-7.07 5.2-10.93A47.68 47.68 0 01-137 68.3a48.19 48.19 0 0118.18-5.86c1.37-.16 2.8-.25 4.15-.32 2.47-.15 5.01-.33 7.5-.84 4.43-.94 7.88-3.02 9.7-5.88 1.3-2 1.84-4.39 2.36-6.68.25-1.05.48-2.17.8-3.2a23.53 23.53 0 018.77-12.02c4.08-3.03 9.09-5 14.13-5.5 9.5-.93 19.73 2.69 28.04 9.9 6.84 5.95 12.4 14.14 16.97 25 1.23 2.93 2.39 6 3.52 9 3.98 10.6 8.1 21.53 16.75 28.73a66.68 66.68 0 007.6 5.18c3.96 2.44 8.02 4.96 11.02 8.56 3.38 4.16 5.06 9.74 4.69 15.7a26.9 26.9 0 01-6.21 15.6c-6.77 8.01-18.24 12.51-30.66 12.05-1.43-.06-2.9-.15-4.36-.28-4.77-.37-9.68-.77-14.1 1.03-3.99 1.6-7.05 4.74-10.03 7.77-1.4 1.41-2.85 2.92-4.4 4.22a34.8 34.8 0 01-12.79 6.63zM-126.5 64a48.68 48.68 0 00-25 16.74c-2.97 3.86-4.66 7.42-5.16 10.88-.6 4.35.94 8.64 3.91 10.93 1.92 1.48 4.3 2.14 6.65 2.8 1.07.28 2.18.6 3.22.96 8.73 3.19 13.88 11.57 16.64 18.06 1.64 3.83 2.89 7.89 4.13 11.83 1.25 3.95 2.52 8.08 4.17 11.95 5.61 13.01 15.61 23.1 27.44 27.68 12.89 4.98 28.12 2.77 37.8-5.49 1.55-1.3 2.97-2.8 4.4-4.22 2.98-3.03 6.09-6.18 10.06-7.77 4.44-1.77 9.38-1.41 14.16-1.01 1.44.1 2.9.23 4.33.3 12.38.47 23.8-4.03 30.54-12.03 7.72-9.1 8.39-22.81 1.51-31.18-2.95-3.61-7.01-6.13-10.96-8.53-2.58-1.61-5.28-3.23-7.65-5.21-8.7-7.22-12.82-18.16-16.8-28.8-1.13-2.95-2.3-6.06-3.53-9-4.56-10.85-10.11-19-16.92-24.96-8.27-7.19-18.45-10.82-27.96-9.88-10.62 1.02-19.98 8.2-22.8 17.44-.31 1.07-.55 2.15-.8 3.2-.52 2.3-1.08 4.72-2.4 6.73-1.84 2.87-5.31 5-9.77 5.9-2.48.51-5.02.69-7.49.84A47.32 47.32 0 00-126.5 64z" fill="url(#paint31_linear)"/></g><defs><linearGradient id="paint0_linear" x1="-93.77" y1="8.27" x2="-29.15" y2="236.01" gradientUnits="userSpaceOnUse"><stop stop-color="#4AFEBF"/><stop offset="1" stop-color="#51EEDA"/></linearGradient><linearGradient id="paint1_linear" x1="-93.31" y1="9.28" x2="-30.35" y2="231.16" gradientUnits="userSpaceOnUse"><stop stop-color="#4AFEBF"/><stop offset="1" stop-color="#51EEDA"/></linearGradient><linearGradient id="paint2_linear" x1="-93.02" y1="10.06" x2="-31.66" y2="226.33" gradientUnits="userSpaceOnUse"><stop stop-color="#4AFEBF"/><stop offset="1" stop-color="#51EEDA"/></linearGradient><linearGradient id="paint3_linear" x1="-92.47" y1="11.05" x2="-32.77" y2="221.45" gradientUnits="userSpaceOnUse"><stop stop-color="#4AFEBF"/><stop offset="1" stop-color="#51EEDA"/></linearGradient><linearGradient id="paint4_linear" x1="-91.95" y1="11.96" x2="-33.88" y2="216.61" gradientUnits="userSpaceOnUse"><stop stop-color="#4AFEBF"/><stop offset="1" stop-color="#51EEDA"/></linearGradient><linearGradient id="paint5_linear" x1="-91.39" y1="12.82" x2="-34.95" y2="211.72" gradientUnits="userSpaceOnUse"><stop stop-color="#4AFEBF"/><stop offset="1" stop-color="#51EEDA"/></linearGradient><linearGradient id="paint6_linear" x1="-90.66" y1="13.66" x2="-35.85" y2="206.82" gradientUnits="userSpaceOnUse"><stop stop-color="#4AFEBF"/><stop offset="1" stop-color="#51EEDA"/></linearGradient><linearGradient id="paint7_linear" x1="-90.03" y1="14.46" x2="-36.84" y2="201.9" gradientUnits="userSpaceOnUse"><stop stop-color="#4AFEBF"/><stop offset="1" stop-color="#51EEDA"/></linearGradient><linearGradient id="paint8_linear" x1="-89.32" y1="15.3" x2="-37.74" y2="197.08" gradientUnits="userSpaceOnUse"><stop stop-color="#4AFEBF"/><stop offset="1" stop-color="#51EEDA"/></linearGradient><linearGradient id="paint9_linear" x1="-88.64" y1="16.05" x2="-38.65" y2="192.22" gradientUnits="userSpaceOnUse"><stop stop-color="#4AFEBF"/><stop offset="1" stop-color="#51EEDA"/></linearGradient><linearGradient id="paint10_linear" x1="-88.25" y1="16.97" x2="-39.87" y2="187.49" gradientUnits="userSpaceOnUse"><stop stop-color="#4AFEBF"/><stop offset="1" stop-color="#51EEDA"/></linearGradient><linearGradient id="paint11_linear" x1="-87.55" y1="17.76" x2="-39.84" y2="185.91" gradientUnits="userSpaceOnUse"><stop stop-color="#4AFEBF"/><stop offset="1" stop-color="#51EEDA"/></linearGradient><linearGradient id="paint12_linear" x1="-86.62" y1="18.34" x2="-39.36" y2="184.92" gradientUnits="userSpaceOnUse"><stop stop-color="#4AFEBF"/><stop offset="1" stop-color="#51EEDA"/></linearGradient><linearGradient id="paint13_linear" x1="-85.71" y1="19.14" x2="-38.95" y2="183.94" gradientUnits="userSpaceOnUse"><stop stop-color="#4AFEBF"/><stop offset="1" stop-color="#51EEDA"/></linearGradient><linearGradient id="paint14_linear" x1="-85.45" y1="20" x2="-39.15" y2="183.18" gradientUnits="userSpaceOnUse"><stop stop-color="#4AFEBF"/><stop offset="1" stop-color="#51EEDA"/></linearGradient><linearGradient id="paint15_linear" x1="-85.54" y1="20.92" x2="-39.7" y2="182.48" gradientUnits="userSpaceOnUse"><stop stop-color="#4AFEBF"/><stop offset="1" stop-color="#51EEDA"/></linearGradient><linearGradient id="paint16_linear" x1="-85.72" y1="21.81" x2="-40.31" y2="181.83" gradientUnits="userSpaceOnUse"><stop stop-color="#4AFEBF"/><stop offset="1" stop-color="#51EEDA"/></linearGradient><linearGradient id="paint17_linear" x1="-85.77" y1="22.68" x2="-40.82" y2="181.11" gradientUnits="userSpaceOnUse"><stop stop-color="#4AFEBF"/><stop offset="1" stop-color="#51EEDA"/></linearGradient><linearGradient id="paint18_linear" x1="-85.84" y1="23.57" x2="-41.33" y2="180.44" gradientUnits="userSpaceOnUse"><stop stop-color="#4AFEBF"/><stop offset="1" stop-color="#51EEDA"/></linearGradient><linearGradient id="paint19_linear" x1="-86.02" y1="24.31" x2="-41.9" y2="179.78" gradientUnits="userSpaceOnUse"><stop stop-color="#4AFEBF"/><stop offset="1" stop-color="#51EEDA"/></linearGradient><linearGradient id="paint20_linear" x1="-86.16" y1="25.09" x2="-42.46" y2="179.12" gradientUnits="userSpaceOnUse"><stop stop-color="#4AFEBF"/><stop offset="1" stop-color="#51EEDA"/></linearGradient><linearGradient id="paint21_linear" x1="-86.25" y1="25.97" x2="-42.98" y2="178.45" gradientUnits="userSpaceOnUse"><stop stop-color="#4AFEBF"/><stop offset="1" stop-color="#51EEDA"/></linearGradient><linearGradient id="paint22_linear" x1="-86.29" y1="26.68" x2="-43.42" y2="177.75" gradientUnits="userSpaceOnUse"><stop stop-color="#4AFEBF"/><stop offset="1" stop-color="#51EEDA"/></linearGradient><linearGradient id="paint23_linear" x1="-86.44" y1="27.4" x2="-43.96" y2="177.12" gradientUnits="userSpaceOnUse"><stop stop-color="#4AFEBF"/><stop offset="1" stop-color="#51EEDA"/></linearGradient><linearGradient id="paint24_linear" x1="-87.02" y1="28.21" x2="-44.91" y2="176.61" gradientUnits="userSpaceOnUse"><stop stop-color="#4AFEBF"/><stop offset="1" stop-color="#51EEDA"/></linearGradient><linearGradient id="paint25_linear" x1="-87.66" y1="28.95" x2="-45.91" y2="176.07" gradientUnits="userSpaceOnUse"><stop stop-color="#4AFEBF"/><stop offset="1" stop-color="#51EEDA"/></linearGradient><linearGradient id="paint26_linear" x1="-88.27" y1="29.66" x2="-46.87" y2="175.56" gradientUnits="userSpaceOnUse"><stop stop-color="#4AFEBF"/><stop offset="1" stop-color="#51EEDA"/></linearGradient><linearGradient id="paint27_linear" x1="-88.96" y1="30.41" x2="-47.9" y2="175.12" gradientUnits="userSpaceOnUse"><stop stop-color="#4AFEBF"/><stop offset="1" stop-color="#51EEDA"/></linearGradient><linearGradient id="paint28_linear" x1="-89.58" y1="31.23" x2="-48.9" y2="174.62" gradientUnits="userSpaceOnUse"><stop stop-color="#4AFEBF"/><stop offset="1" stop-color="#51EEDA"/></linearGradient><linearGradient id="paint29_linear" x1="-90.35" y1="31.96" x2="-49.99" y2="174.19" gradientUnits="userSpaceOnUse"><stop stop-color="#4AFEBF"/><stop offset="1" stop-color="#51EEDA"/></linearGradient><linearGradient id="paint30_linear" x1="-91.07" y1="32.61" x2="-51.02" y2="173.77" gradientUnits="userSpaceOnUse"><stop stop-color="#4AFEBF"/><stop offset="1" stop-color="#51EEDA"/></linearGradient><linearGradient id="paint31_linear" x1="-91.81" y1="33.34" x2="-52.09" y2="173.33" gradientUnits="userSpaceOnUse"><stop stop-color="#4AFEBF"/><stop offset="1" stop-color="#51EEDA"/></linearGradient><clipPath id="clip0"><path fill="#fff" transform="rotate(-180 42.29 100.78)" d="M0 0h91.25v201.27H0z"/></clipPath></defs></svg>