<svg width="400" height="885" fill="none" xmlns="http://www.w3.org/2000/svg"><g opacity=".3" clip-path="url(#a)"><path d="M550.35-166.21c4.3-1.23 8.8-2.34 13.19-3.24 64.65-13.42 138.3 4.1 202.2 48.26 52.66 36.2 98.47 88.79 140.3 160.54 11.2 19.32 22.03 39.77 32.67 59.59 37.2 69.98 75.63 142.52 141.61 185.58 17.98 11.72 37.88 21.18 56.97 30.17 29.45 13.95 59.88 28.31 83.64 51.27 27.48 26.36 44.26 64.01 47.4 105.72 2.93 40.4-6.96 80.49-27.78 113.04-38.97 60.56-113.47 100.32-199.21 106.18-9.93.76-20.21.94-29.96 1.14-32.77.9-66.75 1.82-95.08 17.1-25.33 13.74-43.5 37.46-60.86 60.44-8.24 10.93-16.86 22.32-26.16 32.52-29.77 32.53-70.24 55.9-117 67.5a277.87 277.87 0 0 1-138.47-1.65c-85.92-23.13-164.4-85.83-215.37-172.15-15.06-25.6-27.72-53.1-40.07-79.47-12.1-26.1-24.63-53.11-39.44-78.45-25-42.36-67.72-96.16-129.79-111.65-7.4-1.84-15.16-3.07-22.75-4.35-16.64-2.82-33.95-5.62-48.79-14.8-23.1-14.03-38.16-43.25-38.05-74.2.03-24.57 8.25-50.62 25.2-79.84 21.71-37.27 52.1-70.65 87.7-96.6 35.77-25.98 77.08-44.6 119.38-53.73 9.42-1.99 18.92-3.66 28.1-5.25 16.73-2.87 33.94-5.88 50.3-11.22 28.97-9.45 50.34-26.18 60.1-46.83 6.88-14.5 8.3-31.22 9.7-47.42.59-7.56 1.3-15.32 2.58-22.9 10.03-62.46 61.7-116.5 127.74-135.3Zm553.21 843c57.6-16.4 105.47-49.43 134.09-93.82 43.74-67.94 35.39-162.27-19.09-214.45-23.46-22.52-53.73-36.93-82.77-50.65-19.29-9.11-39.2-18.56-57.38-30.4-66.64-43.56-105.33-116.38-142.65-186.83-10.45-19.7-21.28-40.16-32.47-59.48-41.53-71.32-87.05-123.47-139.3-159.44-63.2-43.51-135.96-60.94-199.61-47.63-4.39.9-8.73 1.97-13.03 3.2-64.92 18.47-115.55 71.36-125.22 132.7a296.78 296.78 0 0 0-2.47 22.68c-1.46 16.57-2.84 33.45-10.05 48.56-10.17 21.62-32.1 38.85-62.01 48.57-16.53 5.4-33.9 8.44-50.63 11.32a756.08 756.08 0 0 0-28.1 5.25C188 124.86 111.33 180.52 67.76 255.1c-16.6 28.6-24.76 54.29-24.82 78.18.1 29.87 14.31 57.94 36.56 71.37 14.34 8.63 31.34 11.52 47.6 14.27 7.6 1.28 15.4 2.67 22.96 4.47 63.16 15.69 106.58 70.15 131.77 113.15 14.96 25.28 27.38 52.5 39.52 78.76 12.2 26.42 24.82 53.75 39.83 79.2C411.7 779.91 489.37 842.16 574.52 865c92.65 24.99 193.95-1.1 252.13-64.9 9.19-10 17.65-21.34 25.93-32.11 17.62-23.23 35.87-47.32 61.94-61.44 29.09-15.66 63.38-16.66 96.52-17.5a574.8 574.8 0 0 0 29.92-1.3c21.7-1.72 42.71-5.3 62.6-10.96Z" fill="url(#b)"/><path d="M563.39-147.08c4.61-1.31 9.43-2.51 14.14-3.5 63.3-12.7 135.14 4.47 197.06 47.15 51.39 35.36 96 86.73 136.33 156.85 10.65 18.62 21 38 31.01 56.8 36.17 68.2 73.5 138.66 136.8 181.97 16.88 11.52 35.26 21.06 53.03 30.26 27.45 14.18 56.08 28.87 78.46 51.2 52.84 52.46 60.31 145.5 17.31 211.86-38.15 58.61-110.68 97.46-194.12 103.52-9.62.68-19.64 1.12-29.34 1.48-31.85 1.16-64.9 2.33-92.18 17.65-24.65 13.71-42.64 36.87-59.97 59.33-8.67 11.23-17.77 22.75-27.55 33.1-29.72 31.47-69.74 54.03-115.52 64.82a272.27 272.27 0 0 1-135.65-2.61c-84.08-23.31-160.96-85.26-210.8-170.02-14.51-24.9-26.75-51.48-38.71-77.1-12.54-27.02-25.54-55.1-41.05-81.09-24.55-40.77-66.66-93.03-128.3-110.01a873.5 873.5 0 0 0-18.86-4.6c-18.24-4.25-35.52-8.1-50.3-18.31-21.46-14.86-33.83-43.12-32.54-73.55 1.1-23.84 9.58-48.42 26.98-77.25 41.61-69.39 109.94-121.13 188.87-143.6 4.46-1.27 9.12-2.42 13.62-3.53 11.75-2.83 23.89-4.91 35.66-7.06 15.21-2.78 30.94-5.54 45.58-9.71 21.48-6.12 49.56-18.06 61.96-41.51 7.2-13.39 8.77-28.96 10.32-44 .67-6.72 1.4-13.8 2.7-20.7 5.65-32 22.51-61.54 48.35-85.56a197.6 197.6 0 0 1 76.7-42.28Zm529.65 822.58c56.49-16.09 103.53-48.37 131.79-91.63 42.31-65.13 35.02-156.33-16.82-207.71-22.08-21.89-49.12-35.84-77.59-50.58-17.93-9.15-36.36-18.85-53.44-30.48-63.91-43.65-101.54-114.54-137.8-183.07-10-18.8-20.2-38.23-31.01-56.8-40.03-69.68-84.35-120.63-135.38-155.92-61.25-42.17-132.16-59.1-194.67-46.63C509.1-133.52 453.02-80.45 442-18.39a268.63 268.63 0 0 0-2.63 20.33c-1.62 15.4-3.26 31.34-10.64 45.29-12.97 24.47-41.95 36.85-63.91 43.1-14.96 4.26-30.7 7.02-45.9 9.8-11.77 2.15-23.91 4.23-35.5 7.01-83.96 19.95-156.9 73-200.5 145.7-17.17 28.43-25.57 52.64-26.54 75.76-1.24 29.39 10.65 56.58 31.08 70.87 14.18 9.88 31.13 13.81 49.13 17.8 6.27 1.47 12.7 2.9 19.02 4.54 62.72 17.2 105.38 70.16 130.22 111.36 15.72 26.1 28.72 54.18 41.14 81.4 11.8 25.66 24 52.09 38.46 76.83 49.5 84.17 125.52 145.5 208.88 168.67 91.54 25.31 188.76 1.25 247.94-61.47l1.16 1.05-1.16-1.04c9.62-10.3 18.56-21.78 27.27-32.85 17.6-22.7 35.71-46.06 60.95-60.12 28.03-15.71 61.4-16.96 93.61-18.05 9.55-.32 19.57-.77 29.18-1.44a304.62 304.62 0 0 0 59.77-10.65Z" fill="url(#c)"/><path d="M575.47-127.67c5.25-1.5 10.7-2.87 16.1-3.9 62.12-12 131.98 4.87 191.96 46.2C833.7-50.69 876.9-.63 915.93 67.97a1951.94 1951.94 0 0 1 29.36 54c35.15 66.44 71.61 135.08 132.18 178.48 15.8 11.31 32.65 20.94 49.01 30.03 26.93 15.35 52.38 29.76 73.53 51.4 24.85 25.56 39.74 60.83 42.17 99.48 2.37 37.8-7.25 75.24-27.17 105.48-37.06 56.41-107.82 94.25-188.99 101.03-9.25.74-18.59 1.17-27.77 1.55-31.28 1.34-63.56 2.8-90.07 18.42-23.76 13.8-41.61 36.24-58.97 58.01-9.25 11.57-18.74 23.55-29 34.02-59.9 61.38-156.76 84.3-246.82 58.75-82.61-23.55-157.74-84.8-206.29-168.04-14.17-24.3-26.06-50.3-37.69-75.33-12.76-27.8-26.15-56.63-42.32-83.13-34.06-55.4-78.97-93.99-126.79-108.38-4.13-1.23-8.43-2.4-12.56-3.64-20.03-5.63-38.96-11.07-54.13-23.24-19.38-15.44-29.62-43.45-26.85-72.93 2.22-22.96 11.1-46.1 28.86-74.86 22.12-35.84 51.34-67.87 84.43-92.4 35.2-26.17 73.41-43.58 113.58-51.74 8.94-1.86 18.23-3.65 27.37-5.39 18.91-3.67 38.35-7.3 56.88-11.72 32.55-7.72 54.04-19.85 63.86-36.05 7.35-12.22 9.1-25.95 10.96-40.56a193.6 193.6 0 0 1 2.8-18.5c10.86-56 58.39-102.85 119.97-120.38Zm506.88 801.91c55.7-15.85 102.13-47.28 129.7-89.31 40.93-62.15 34.45-150.5-14.54-200.97-20.7-21.25-45.99-35.7-72.66-50.78-16.41-9.25-33.27-18.88-49.26-30.3-61.19-43.74-97.79-112.86-133.03-179.62a1951.84 1951.84 0 0 0-29.35-54c-38.7-68-81.65-117.8-131.52-152.04-59.16-40.88-128.25-57.46-189.58-45.67-68.15 13.21-121.96 62.2-134.13 122-1.2 6.02-2 12.26-2.74 18.13-1.78 14.25-3.58 29.03-11.32 41.7-10.28 17.02-32.47 29.7-65.86 37.48-18.53 4.41-38.13 8.1-56.88 11.72-8.98 1.7-18.28 3.48-27.2 5.34C215.7 123.67 144.32 175.6 98.11 250.6c-17.54 28.35-26.23 50.93-28.38 73.53-2.72 28.43 7.2 55.32 25.71 70.15 14.52 11.68 33.24 17 52.9 22.57 4.14 1.23 8.43 2.4 12.57 3.64 48.38 14.57 94.11 53.6 128.52 109.6 16.37 26.6 29.6 55.48 42.56 83.4 11.63 25.03 23.48 50.86 37.6 75.02 48.05 82.7 122.52 143.43 204.36 166.7 88.85 25.55 184.56 2.78 243.69-57.69 10.1-10.43 19.63-22.25 28.72-33.77 17.47-21.98 35.6-44.66 59.8-58.76 27.3-15.85 60.05-17.44 91.49-18.83 9.18-.38 18.52-.8 27.57-1.66a290.04 290.04 0 0 0 57.12-10.25Z" fill="url(#d)"/><path d="M588.19-108.44a215.28 215.28 0 0 1 17.41-4.1c60.78-11.29 128.94 5.04 186.83 45.08 48.49 33.61 90.49 82.47 128.27 149.7 9.13 16.3 18.12 33.33 26.93 49.72 34.42 65.1 70.04 132.6 128.3 176.32 14.49 11 29.74 20.4 44.41 29.62 25.34 15.8 49.04 30.7 68.84 51.86 23.36 25.14 37.41 59.28 39.54 96.29 2.17 36.49-7.49 72.56-26.9 101.62-36.12 54.26-104.94 91.03-184.05 98.43-8.72.76-17.86 1.3-26.52 1.7-30.35 1.6-61.85 3.35-87.68 18.95-22.71 13.85-40.6 35.6-57.65 56.6-9.69 11.87-19.77 24.18-30.66 34.84l-1-1.09 1 1.1C755.3 857.51 660 879.31 572.5 853.71c-80.92-23.7-154.46-84.19-201.6-166.1-13.67-23.77-25.34-48.97-36.62-73.41-13.15-28.56-26.77-58.18-43.8-85.28-33.27-53.24-77.84-91.22-125.29-106.75l-1.34-.48c-25.04-8.16-46.52-15.27-62.67-30.26-17.52-16.14-25.43-43.26-21.17-72.3 4.11-27.8 18.54-53.21 30.64-72.29 43.5-68.2 105.82-116.87 173.3-136.08 6.68-1.9 13.3-3.44 19.95-4.82 13.69-2.7 28.01-5.56 41.7-8.26 14.95-3.05 30.6-6.13 45.28-8.93 34.55-6.75 56.15-16.67 65.88-30.78 7.72-10.96 9.59-23.69 11.64-36.99.87-5.4 1.53-10.9 2.92-16.29 12-52.54 57.99-96.38 116.87-113.14Zm483.53 781.59c54.74-15.59 100.51-46.3 127.6-87 40.11-60.2 34.84-143.74-12.27-194.23-19.4-20.93-43.21-35.63-68.18-51.37-14.68-9.22-29.93-18.62-44.63-29.73-58.75-44.26-94.58-111.88-129.1-177.3a2193.45 2193.45 0 0 0-26.76-49.75C880.73 17 839.14-31.63 790.91-64.96c-57.24-39.54-124.5-55.78-184.5-44.72-66 12.26-119.01 58.62-131.93 115.2a171.3 171.3 0 0 0-2.8 16.09c-1.95 13.1-3.91 26.7-12.12 38.32-10.28 14.6-32.43 25.03-67.78 32-14.68 2.8-30.27 6.04-45.28 8.94-13.84 2.74-28 5.57-41.69 8.26-74.33 14.46-144.1 65.4-191.41 139.52-12.04 18.71-26.19 43.87-30.11 71.1-4.06 27.95 3.54 53.96 20.23 69.65 15.7 14.6 36.97 21.6 61.6 29.53l1.34.48c48.02 15.7 93.21 54.04 126.86 108.02 17.04 27.1 30.7 56.88 43.9 85.6 11.27 24.44 22.94 49.64 36.36 73.13 46.91 81.13 119.64 141.17 199.83 164.72 86.52 25.2 180.59 3.92 239.62-54.46 10.74-10.61 20.65-22.88 30.39-34.59 17.33-21.25 35.32-43.2 58.51-57.2 26.54-16.13 58.4-17.82 89.07-19.5 8.66-.4 17.8-.95 26.53-1.71a312.98 312.98 0 0 0 54.19-10.27Z" fill="url(#e)"/><path d="M600.54-89.28c6.2-1.77 12.66-3.26 19.05-4.4 59.6-10.6 125.78 5.43 181.74 44.13 47.17 32.61 87.85 80.47 124.3 146.03 8.44 15.12 16.7 30.8 24.67 46.05 33.7 63.77 68.34 129.66 124.12 173.74 13.11 10.35 26.22 19.5 39.08 28.38 23.79 16.43 46.3 32 65.02 52.96 45.27 50.67 49.65 132.91 10.37 191.16-35.19 52.1-102.2 88.01-178.96 95.78-8.36.83-16.98 1.4-25.43 1.91-29.58 1.9-60.3 3.94-85.25 19.63-21.87 13.78-39.45 34.76-56.38 55.04-10.23 12.36-20.9 25.02-32.38 36.02-59.77 57.03-153.26 77.29-238.35 51.69-79.24-23.83-151.03-83.62-197.08-164.13-13.33-23.18-24.66-47.78-35.6-71.64-13.57-29.46-27.58-59.83-45.07-87.32-32.68-51.17-76.54-88.5-123.79-105.11-26.4-9.32-47-18.75-61.64-34.5-15.45-16.74-21.19-43.45-15.6-71.5 5.29-26.06 19.32-49.81 32.4-69.69C169.9 177.76 230.82 130.2 294.9 111.78a267.02 267.02 0 0 1 19.48-4.69c11.1-2.12 22.46-4.5 33.5-6.79 18.67-3.93 38.02-7.9 56.31-10.7 25.06-3.86 55.4-10.27 67.8-25.3 8.07-9.7 10.1-21.26 12.31-33.4.9-4.72 1.74-9.6 2.99-14.25 7.06-27.1 23.5-52.04 47.48-71.75 18.8-15.49 41.26-27.2 65.77-34.18Zm460.34 761.22c53.78-15.31 98.89-45.33 125.51-84.69 38.56-57.18 34.31-137.74-10.21-187.6-18.47-20.68-40.78-36.15-64.41-52.61-12.86-8.88-26.17-18.15-39.28-28.5-56.23-44.47-91.13-110.64-124.91-174.71a2012.66 2012.66 0 0 0-24.64-45.9C886.59 32.69 846.2-14.74 799.44-47.12c-55.3-38.2-120.75-54.1-179.51-43.56-64.67 11.54-115.68 54.06-129.8 108.24-1.25 4.65-1.98 9.32-2.87 14.04-2.1 11.94-4.38 24.44-12.8 34.74-13.05 15.74-42.51 22.23-69.72 26.37-18.3 2.8-37.6 6.92-56.3 10.7-11.06 2.29-22.58 4.71-33.51 6.8-70.52 13.36-138.55 63.13-186.78 136.47-12.97 19.67-26.9 43.21-32 68.72-5.49 27.16.02 53.07 14.88 68.94 14.2 15.37 34.37 24.58 60.41 33.83 47.81 16.8 92.14 54.5 125.16 106.27 17.69 27.6 31.74 58.13 45.31 87.6 10.9 23.69 22.23 48.3 35.35 71.36 45.67 79.76 116.8 139.05 195.47 162.7 84.31 25.3 176.65 5.2 235.64-50.93 11.38-10.8 21.88-23.4 32.12-35.77 17.2-20.52 34.89-41.7 57.08-55.58 25.65-16.24 56.74-18.22 86.68-20.04 8.3-.47 16.91-1.03 25.27-1.87a314.35 314.35 0 0 0 51.36-9.97Z" fill="url(#f)"/><path d="M612.94-69.96c6.68-1.9 13.62-3.54 20.69-4.69 58.26-9.88 122.62 5.81 176.6 43.01C856.13.13 895.4 46.67 930.6 110.86a2584.76 2584.76 0 0 1 22.25 41.77c32.81 62.47 66.94 127.14 120.28 171.74 11.06 9.22 21.86 17.48 32.28 25.68 22.95 17.7 44.58 34.38 62.55 55.72 20.55 24.39 32.76 56.3 34.15 90.09 1.6 33.9-7.79 67.32-26.1 94.18-34.92 50.65-98.17 84.63-173.86 93.12-8 .9-16.25 1.53-24.19 2.07-28.8 2.19-58.64 4.33-82.97 20.36-20.87 13.67-38.16 33.88-54.79 53.38-10.98 12.75-22.35 25.95-34.48 37.13-59.71 54.79-151.53 73.7-234.04 48.07-77.56-23.97-147.76-83-192.52-162-12.83-22.63-23.81-46.64-34.57-69.87-13.76-30.1-28.2-61.37-46.34-89.36-31.89-48.99-75.42-85.73-122.14-103.52-28.18-10.7-46.97-22.88-59.16-38.48-13.54-17.27-17.16-43.21-9.92-70.87 6.4-23.98 20.12-46.44 34.13-67.26 27-39.81 82.6-106.66 164.23-129.9a208.97 208.97 0 0 1 19.68-4.56c10.94-2.08 22.3-4.46 33.15-6.86 19.77-4.26 40.19-8.7 59.5-10.93 28.65-3.34 57.7-7.66 69.82-20.04 8.28-8.37 10.47-18.78 12.84-29.76.9-4.04 1.77-8.24 3.05-12.21 14.03-46.08 55.9-83.25 109.52-98.51Zm438.46 740.64c52.67-14.99 95.9-43.78 122.37-82.41 37.06-54.01 33.63-131.71-7.94-180.86-17.88-21.03-39.35-37.76-62.09-55.34-10.58-8.15-21.38-16.42-32.44-25.64-53.75-44.82-87.97-109.81-120.87-172.6a2584.76 2584.76 0 0 0-22.25-41.76C893.12 48.35 854.1 2.08 808.62-29.46c-53.37-36.86-116.85-52.46-174.43-42.6-62.33 10.7-112.42 50.38-127.66 101.27a225.12 225.12 0 0 0-2.93 12c-2.38 10.98-4.7 22.12-13.68 31.04-12.83 12.92-42.36 17.38-71.48 20.86-19.32 2.23-39.57 6.62-59.35 10.88-11 2.44-22.37 4.82-33.3 6.9-91.31 17.06-153.34 90.89-182.18 133.28-13.95 20.46-27.55 42.71-33.88 66.33-7.11 26.93-3.65 51.72 9.39 68.45 11.9 15.16 30.28 27.1 57.9 37.63 47.44 17.93 91.26 55.1 123.6 104.48 18.35 28.1 32.79 59.38 46.6 89.64 10.6 23.26 21.7 47.07 34.32 69.59 44.41 78.4 114.11 136.9 190.95 160.72 81.67 25.71 172.33 6.95 231.38-47.13l1 1.09-1-1.1c12.01-10.97 23.38-24.17 34.21-36.87 16.9-19.76 34.34-40.01 55.5-53.93 24.91-16.37 55.07-18.6 84.24-20.72 7.93-.54 16.18-1.17 24.02-2.03a310.35 310.35 0 0 0 49.56-9.64Z" fill="url(#g)"/><path d="M624.82-50.67a220.22 220.22 0 0 1 22.64-5.07c57.08-9.2 119.41 6.04 171.35 42.1 44.42 30.82 82.54 76.32 116.39 138.83a1999.27 1999.27 0 0 1 19.48 36.88c32.22 61.61 65.66 125.1 116.62 170.38 7.36 6.49 14.47 12.71 21.33 18.66 24.63 21.16 45.87 39.51 64.33 62.6 39.96 50.13 42.32 124.7 5.74 177.36-33.78 48.61-95.41 81.62-168.88 90.68-7.64.97-15.37 1.62-22.94 2.23-28.02 2.48-57.1 4.91-80.58 20.88-19.72 13.51-36.75 32.79-53.08 51.52-11.7 13.3-23.77 27.04-36.64 38.6l-.96-.93.96.94c-59.47 52.65-149.64 70.07-229.7 44.6-75.88-24.1-144.38-82.6-188-160.03-12.49-22.04-23.13-45.46-33.55-68.1-14.15-30.84-28.77-62.75-47.73-91.2-31.09-46.8-73.96-83.05-120.59-101.72-26.45-10.69-45.01-24.47-56.64-42.29-15.85-24.18-9.49-54.33-4.23-70.26 7.56-22.94 21.87-44.53 36.06-64.72 50.93-72.9 114.7-119.57 179.43-131.47 10.94-2.08 22.3-4.45 33.3-6.9 20.53-4.64 41.9-9.35 62.24-11.01l3.69-.36c28.9-2.4 56.3-4.7 68.2-14.26 8.68-6.94 11.03-16.2 13.55-26.02.94-3.36 1.83-6.88 2.92-10.28 15.27-43.51 54.52-77.19 105.29-91.64Zm415.58 720.19c51.88-14.77 94.44-42.86 120.44-80.15 36.01-51.65 33.53-124.8-5.63-173.96-18.26-22.98-39.46-41.16-63.92-62.37-6.86-5.95-14.13-12.13-21.49-18.62-51.37-45.5-84.9-109.31-117.33-171.03-6.38-12.1-12.9-24.67-19.43-36.73-33.6-62.24-71.42-107.3-115.6-137.85-51.27-35.56-113.09-50.78-169.32-41.64-60.67 9.88-108.68 46.04-125.64 94.5-1.13 3.25-2.02 6.77-2.96 10.12-2.53 9.83-5.17 19.86-14.56 27.34-12.44 10.07-40.3 12.5-69.74 14.87l-3.68.36c-20.14 1.78-41.35 6.44-61.92 10.93-11 2.44-22.49 5.02-33.47 6.94-64.1 11.72-127.1 58-177.54 130.25-13.92 19.94-28.28 41.37-35.6 63.9-5.09 15.36-11.2 44.58 3.86 67.78 11.34 17.4 29.44 30.8 55.33 41.29 47.08 19.06 90.36 55.53 121.95 102.89 19 28.6 33.67 60.67 47.86 91.68 10.42 22.63 21.07 46.05 33.35 67.98 43.32 77 111.27 134.78 186.43 158.75 79.13 25.23 168.3 7.92 227.1-44.03 12.77-11.37 24.84-25.11 36.38-38.36 16.48-18.78 33.47-38.21 53.66-51.86 24.09-16.3 53.43-18.99 81.98-21.45 7.57-.6 15.3-1.26 22.77-2.18a294.87 294.87 0 0 0 46.72-9.35Z" fill="url(#h)"/><path d="M637.7-31.49a202.25 202.25 0 0 1 23.8-5.23c55.73-8.47 116.25 6.42 166.26 41.15C870.9 34.4 907.6 78.59 940.2 139.73c5.52 10.29 10.92 20.78 16.24 30.95 31.83 60.85 64.61 123.84 113.55 169.87 30.32 28.47 55.24 52.47 76.55 81.28 17.6 23.68 27.81 53.4 28.77 83.88.96 31.68-7.85 61.68-25.35 86.58-32.84 46.46-92.5 78.56-163.79 88.02a443.6 443.6 0 0 1-21.52 2.35c-28.62 2.82-55.56 5.5-78.32 21.6-18.76 13.25-35.18 31.66-51.1 49.42-12.4 13.84-25.29 28.33-39.12 40.17-59.21 50.52-147.7 66.6-225.4 40.97-74.09-24.44-140.95-82.03-183.47-158.05-12-21.5-22.5-44.44-32.58-66.48-14.37-31.64-29.38-64.3-48.95-93.09-30.3-44.63-72.62-80.17-119.1-100.1-25.28-10.83-43.5-26.43-54.15-46.25-12.5-23.24-6.2-50.63 1.33-69.43 8.13-20.35 21.28-39.38 37.83-62.14 33.8-46.72 87.41-104.24 156.95-124.03a223.4 223.4 0 0 1 17.73-4.2c11.14-1.96 22.58-4.7 33.58-7.14 21.48-4.91 43.6-10 64.8-11.06 5.62-.23 11.03-.56 16.33-.7 25.18-.98 46.96-1.85 57.46-8.45 8.9-5.62 11.44-13.56 14.29-22.28.95-2.67 1.87-5.51 2.94-8.4 16.54-40.26 54.4-70.96 101.98-84.5Zm391.74 700c51.08-14.53 93.19-41.8 118.67-77.92 34.81-49.25 33.39-118.07-3.4-167.38-21.26-28.65-45.02-51.6-76.26-80.85-49.18-46.3-82.17-109.4-114.1-170.57-5.3-10.17-10.71-20.66-16.23-30.94C905.82 80.13 869.2 36.27 826.46 6.52c-49.35-34.23-109.35-49.1-164.4-40.65-57.7 8.86-105.06 42.44-123.5 87.55a92.3 92.3 0 0 0-2.81 8.19c-2.85 8.7-5.65 17.58-15.45 23.63-11.1 6.94-33.2 7.9-58.9 8.86-5.3.14-10.7.48-16.32.7-20.84 1.12-43 6.06-64.44 11.13-11.16 2.49-22.6 5.23-33.74 7.2-77.35 14.11-136.85 76.91-173.06 127.25-16.9 23.36-29.44 41.53-37.45 61.67-7.3 18.4-13.5 44.9-1.44 67.24 10.3 19.22 28.07 34.44 52.95 45.05 46.88 20.16 89.66 56.08 120.25 101.14 19.83 29.06 34.67 61.76 49.25 93.52 10.08 22.04 20.54 44.83 32.53 66.32C432.12 750.75 498.36 808 571.83 832.1c76.88 25.19 164.42 9.38 222.93-40.6 13.72-11.64 26.5-25.92 38.9-39.76 16.03-17.96 32.45-36.38 51.48-49.87 23.35-16.44 51.92-19.42 79.54-22.13 7.05-.63 14.37-1.5 21.53-2.34a308.6 308.6 0 0 0 43.23-8.88Z" fill="url(#i)"/><path d="M645.18-11.29a221.5 221.5 0 0 1 30.35-6.4c54.5-7.96 113.26 6.76 161.13 40.03 41.83 28.98 77.37 72.11 108.48 131.63 4.1 7.76 8.26 15.68 12.21 23.5 31.67 60.9 64.26 123.77 111.26 170.86 26.32 26.52 45.93 49.97 67.39 81.14 34.15 49.71 34.59 116.93 1.11 163.56-31.91 44.3-89.76 75.54-158.7 85.37-6.8.9-13.6 1.81-20.27 2.51-27.85 3.12-54.17 6.14-76.05 22.33-17.48 12.88-33.34 30.28-48.64 47.17-13.38 14.63-27.13 29.72-41.92 41.82-29.13 23.93-65.3 40.06-104.5 46.76a239.7 239.7 0 0 1-116.72-9.21c-72.4-24.57-137.67-81.4-178.95-156.07-11.7-21.06-21.86-43.42-31.65-65.03-14.7-32.23-29.94-65.68-50.17-94.97-29.5-42.45-71.17-77.49-117.6-98.46-24.53-11.22-42.37-28.48-51.63-50.06-10.17-23.56-1.81-50.34 7.02-68.83 8.67-18.44 21.4-35.3 36.06-55.1l3.5-4.6c53.84-72.36 111-114.4 170.08-125.03 11.14-1.97 22.74-4.75 33.85-7.4 22.24-5.3 45.47-10.7 67.38-11.1 32.14-.73 61.32-2.17 76.28-4.02 8-.9 10.2-7.03 12.62-14.24 1.37-3.66 2.69-7.47 4.87-10.67 9.82-33.71 45-61.76 93.21-75.49Zm373.1 678.69c50.45-14.36 91.9-40.93 117.01-75.91 32.87-45.77 32.43-111.79-1.13-160.64-21.42-31-40.86-54.5-67.15-80.87-47.25-47.36-80.08-110.5-111.8-171.57-4.1-7.76-8.1-15.73-12.21-23.49-31.01-59.2-66.27-101.9-107.68-130.65C787.9-8.62 729.72-23.15 676-15.43 613.54-6.4 565.95 25.19 554.77 64.96l-.12.2-.11.21c-2.12 2.84-3.43 6.65-4.69 10.1-2.57 7.26-5.26 14.72-14.74 15.87-15.16 1.74-43.77 3.36-76.48 3.9-21.7.52-44.78 5.88-66.85 11.13a817.73 817.73 0 0 1-34.01 7.45c-58.4 10.61-114.97 52.31-168.47 124.06l-3.5 4.6c-14.54 19.6-27.28 36.45-35.84 54.69-8.48 17.88-16.66 44.08-6.92 66.73 8.97 21.16 26.5 37.98 50.43 48.87 46.83 21.2 88.95 56.62 118.7 99.34 20.44 29.4 35.68 62.86 50.43 95.25 9.79 21.6 19.91 43.8 31.56 64.7 40.71 74.48 105.37 130.98 177.2 155.37 74.47 25.18 160.32 10.7 218.79-37.02 14.62-12.07 28.43-27 41.64-41.58 15.26-17.05 31.27-34.5 49.03-47.62 22.47-16.53 50.31-19.65 77.27-22.85 6.68-.7 13.48-1.6 20.28-2.51a284.1 284.1 0 0 0 39.91-8.44Z" fill="url(#j)"/><path d="M656.06 8.12a247.71 247.71 0 0 1 33.62-7c53.17-7.22 110.05 7 156.04 39.08 40.4 28.19 74.74 70.12 104.5 127.95l6.86 13.17c31.78 61.9 64.64 125.73 110.34 174.9 24.06 25.8 37.93 48.47 51.58 70.36 2.25 3.65 4.45 7.15 6.7 10.8 25.98 41.57 35.8 106.1-1.21 156.67-30.82 42.1-86.89 72.31-153.6 82.72-6.27.92-12.75 1.74-18.87 2.62-27.07 3.4-52.62 6.73-73.77 23.06-16.37 12.56-31.5 28.89-46.07 44.72-14.2 15.38-29.1 31.3-44.94 43.88l-.8-.97.8.97c-59.58 46.85-142.75 59.87-216.92 33.92-70.72-24.7-134.24-80.84-174.43-154.1-11.2-20.51-21.23-42.4-30.67-63.41-14.94-33.03-30.36-67.12-51.36-96.7-28.55-40.31-69.67-74.65-116.1-96.82-30.88-14.75-43.75-37.54-49.15-54.04-6.29-19-2.02-42.02 12.59-68 8.3-14.9 19.13-28.8 31.73-44.93 3.16-4 6.28-8.15 9.55-12.34 50.57-65.76 98.39-103.76 149-118.17a192.28 192.28 0 0 1 16.45-3.82c11.3-2.02 22.89-4.8 34.12-7.65 23.19-5.57 47.17-11.37 70.1-11.2 14.5.17 28.05.6 40.07 1.14 16.37.67 29.44 1.24 37.8.4 7.12-3.4 9.87-7.61 12.9-12.08 1.57-2.34 3.25-4.88 5.66-7.28 9.18-29.93 42.29-54.99 87.48-67.85ZM1007 666.48c49.81-14.17 90.76-40.09 115.55-73.77 36.28-49.5 26.73-113.09 1.14-153.9-2.25-3.65-4.46-7.15-6.7-10.8-13.49-21.93-27.48-44.4-51.29-69.93-45.9-49.29-78.85-113.43-110.8-175.29-2.26-4.33-4.58-8.83-6.85-13.16-29.67-57.52-63.6-99.23-103.75-127.14C798.77 10.8 742.6-3.29 689.97 3.97 628.7 12.3 582.01 41.05 570.72 77.42l-.07.36-.27.25a51.67 51.67 0 0 0-5.55 7.08c-3.19 4.51-6.28 9.34-14.2 12.97l-.15.05-.16.04c-8.53.88-21.75.35-38.48-.38-12.03-.53-25.62-1.13-40.07-1.14-22.57-.1-46.4 5.65-69.43 11.17-11.27 2.7-22.86 5.48-34.12 7.65-56.24 10.34-108.26 48.69-163.83 121.02-3.27 4.2-6.4 8.35-9.55 12.34-12.5 15.92-23.32 29.82-31.5 44.53-14.23 25.51-18.4 47.66-12.46 66.07 5.27 16.02 17.8 38.22 47.87 52.51 46.67 22.45 88.24 57.17 117 97.6 21.05 29.74 36.67 63.94 51.65 97.13 9.44 21.02 19.43 42.74 30.62 63.26 39.85 72.66 102.92 128.4 173.07 152.93 73.4 25.66 155.57 12.75 214.6-33.6 15.74-12.38 30.48-28.26 44.67-43.64 14.74-15.87 29.86-32.2 46.35-44.97 21.74-16.66 48.8-20.08 75.04-23.42 6.16-.72 12.6-1.7 18.87-2.62a353.91 353.91 0 0 0 36.39-8.13Z" fill="url(#k)"/><path d="M665.3 27.82a249.54 249.54 0 0 1 38.26-7.62c51.82-6.5 106.89 7.37 150.9 37.96 39.12 27.34 72.05 67.95 100.57 124.43 7.56 15.03 14.83 30.82 21.9 45.99 23.28 50.75 47.36 103.16 88.78 135.52l.2.11.05.16c7.83 13.57 15.92 25.02 23.12 35.16 11.15 15.55 20.71 29.15 26 45.86 32.71 37.41 31.17 103.13-3.52 149.76-29.89 39.95-83.98 69.26-148.63 80.27-5.75.95-11.7 1.79-17.45 2.74-26.3 3.7-51.24 7.37-71.7 23.67-15 12-29.39 27.26-43.12 41.82-15.33 16.22-31.16 33.09-48.44 46.08l-.8-.97.8.97c-59.33 44.72-140.82 56.4-212.59 30.45-68.87-24.89-130.8-80.27-169.86-151.95-10.9-20.1-20.59-41.38-29.94-62.08-15.12-33.66-30.87-68.35-52.54-98.43-27.55-38.02-68.17-71.81-114.43-95.23-30.95-15.59-42.44-40.14-46.63-57.85-4.54-19.5 1.4-41.45 18.1-67.34 7.65-11.8 17.27-23.3 27.4-35.45 5.13-6.1 10.39-12.4 15.66-19.23a385.4 385.4 0 0 1 160.54-118.7c34.53-13.44 72.65-20.34 107.27-19.03 23.48.88 45.16 3.3 61.12 4.94 7.45.8 14.06 1.66 18.97 1.98 7.23-2.4 10.19-5.3 13.37-8.61 1.75-1.7 3.5-3.4 5.73-5.24 9.45-26.57 39.22-48.27 80.9-60.14Zm398.86 338.1c-41.87-32.75-66-85.32-89.31-136.23-6.93-15.21-14.15-30.85-21.87-45.83-28.38-56-61.1-96.5-99.77-123.46-43.6-30.36-97.94-44.1-149.25-37.57-60.82 7.52-105.64 33.16-117.07 66.65l-.07.36-.27.25a39 39 0 0 0-5.77 5.08c-3.5 3.4-6.7 6.71-14.56 9.3l-.16.04-.15.05c-4.91-.32-11.69-1.14-19.3-1.9-15.84-1.84-37.53-4.26-60.96-4.98-33.73-1.22-72.53 5.7-106.27 18.91-62.4 24.3-117.52 65.06-159.56 117.91-5.43 6.87-10.69 13.18-15.67 19.24-10.12 12.15-19.74 23.65-27.27 35.24-16.36 25.27-22.28 46.71-17.77 65.53 4.06 17.22 15.16 41.03 45.34 56.32 46.67 23.65 87.7 57.67 115.34 96.01 21.83 30.04 37.51 65.08 52.8 98.7 9.3 20.54 18.83 41.87 29.73 61.96 38.76 71.25 100.23 126.25 168.54 150.96 70.7 25.22 151.35 13.6 209.97-30.57 17.01-12.74 32.84-29.61 48-45.78 13.86-14.77 28.25-30.03 43.4-42.07 20.85-16.76 47.31-20.51 72.77-24.15a566 566 0 0 0 17.46-2.74c64.01-10.83 117.67-39.85 147.17-79.34 34.07-45.77 35.61-110.28 3.45-147l-.21-.1-.09-.33c-5.04-16.43-14.55-29.87-25.7-45.42-7-10.03-15.24-21.43-22.92-35.05Z" fill="url(#l)"/><path d="M416.16 105.6c27.85-7.92 56.77-11.51 82.68-9.95 37.98 2.24 70.95 9.86 82.16 12.34 7.54-1.29 10.66-3.03 14.16-5.23 1.77-1.02 3.39-2 5.84-3.04 11.93-30.54 56.58-53.73 116.7-60.7 50.65-5.83 103.74 7.75 145.81 37 37.86 26.5 69.43 65.96 96.6 120.75 7.27 14.6 14.24 29.97 20.87 44.74 21.83 48.76 44.49 99.17 83.54 130.48l.21.12.09.31c6.24 12.83 12.58 23.57 18.23 33.12 9.74 16.64 18.12 30.92 21.73 47.76 30.36 35.85 27.97 98.55-5.84 142.87-39.41 51.76-106.93 70.8-143.53 77.61a432.84 432.84 0 0 1-15.93 2.65c-25.64 4.2-49.85 8-69.6 24.44-13.6 11.43-26.99 25.38-39.68 38.78-16.53 17.42-33.61 35.34-52.17 48.7l-.59-.87.6.87c-58.92 42.53-138.77 52.72-208.29 26.81-67.2-25.02-127.37-79.7-165.18-150.02-10.6-19.65-20-40.51-29.01-60.62-15.46-34.25-31.28-69.78-53.68-100-33.86-45.67-80.07-76.15-112.93-93.6-33.06-17.55-41.75-46.17-44.15-61.81-2.94-19.95 4.64-41 23.79-66.72 6.85-9.17 14.83-17.97 23.47-27.47a687 687 0 0 0 21.52-24.68c42.28-51.37 96.26-91.3 155.94-115.5 8.16-3.36 17.41-6.5 26.64-9.13Zm170.65 3.48c-1.59.46-3.54.84-5.82 1.32l-.15.04-.21-.11c-10.89-2.57-43.86-10.2-82-12.4-34.16-2.12-73.96 4.91-109.11 19.21-59.36 24.11-112.91 63.75-154.92 114.87a687.87 687.87 0 0 1-21.52 24.68c-8.48 9.46-16.58 18.46-23.31 27.42-18.81 25.11-26.16 45.76-23.24 65.02 2.26 15.16 10.72 42.99 42.97 60.1 33.06 17.55 79.63 48.1 113.8 94.2 22.43 30.38 38.46 66.02 53.96 100.43 9.02 20.1 18.41 40.97 28.97 60.47 37.67 69.84 97.4 124.13 164.02 148.97 68.9 25.57 147.92 15.45 206.29-26.59 18.4-13.3 35.47-31.23 51.9-48.44 12.84-13.45 26.2-27.56 39.95-39.03 20.12-16.9 44.65-20.78 70.61-25.08 5.27-.81 10.7-1.67 15.93-2.65 36.44-6.76 103.16-25.58 142.24-76.73 33.19-43.46 35.7-105.16 5.76-140.1l-.25-.27-.09-.32c-3.4-16.72-11.39-30.25-21.43-47.32-5.65-9.56-11.99-20.3-18.23-33.12-39.3-31.59-62-82.16-84.05-131.03a1293.87 1293.87 0 0 0-20.86-44.74c-27.08-54.47-58.4-93.66-95.85-119.93-41.5-29.07-94.19-42.42-144.15-36.62-59.64 6.84-103.7 29.7-114.93 59.69l-.23.4-.47.14a51.78 51.78 0 0 0-6 3.08 31.28 31.28 0 0 1-9.58 4.44Z" fill="url(#m)"/><path d="M429.26 105.66c28.16-8.02 57.17-11.3 83.1-9.05 35.27 3.01 66.54 11.29 84.11 17.97 8.39-.15 11.62-.9 15.68-1.71 1.44-.41 3.07-.7 4.87-1.05 12-27.29 54.78-47.37 114.45-53.53 49.3-5.1 100.52 7.98 140.72 36.05 36.53 25.5 66.78 63.96 92.67 117.23 7.01 14.33 13.48 29.15 19.86 43.65 21.52 48.85 41.74 94.97 78.28 125.28l.2.12.09.31a689.96 689.96 0 0 0 13.05 29.44c8.86 18.96 15.89 33.96 17.64 51.5 28.18 34.24 24.56 93.85-8.15 135.97-37.87 48.74-103.1 68-138.44 74.96-4.87 1.04-9.62 1.88-14.37 2.72-24.87 4.5-48.42 8.8-67.63 25.26-12.15 10.5-24.18 23.2-35.87 35.29-17.78 18.46-36.18 37.78-56.49 51.64l-.59-.87.6.87c-58.51 40.36-136.68 49.2-204.1 23.4-65.31-25.05-123.95-79.14-160.66-148.05-10.3-19.23-19.41-39.66-28.13-59.33-15.64-34.9-31.8-71-54.81-101.56-25.94-34.19-63.38-65.28-111.43-91.97-24.54-13.63-39.62-37.5-41.63-65.62-1.71-26.49 15.94-50.23 29.36-65.9 5.91-7.02 12.76-13.78 19.94-21.15 8.67-8.82 17.6-17.89 26.77-28.57 42.26-49.65 94.63-88.6 151.3-112.47 9.42-4.4 19.42-7.93 29.6-10.83Zm189.46 7.91-.63.18c-2.12.43-3.75.73-5.35 1.18-4.34 1.06-7.61 1.65-16.36 1.74l-.37-.07c-17.4-6.73-48.47-14.89-83.74-17.9-34.75-3-75.56 4.15-111.8 19.45-56.36 23.77-108.34 62.27-150.44 111.88-9.12 10.84-18.21 19.95-26.77 28.57-7.23 7.21-13.87 14.09-19.78 21.1-13.15 15.42-30.57 38.76-28.77 64.36.95 12.95 6.5 45.04 40.45 63.9 48.3 26.96 86.06 57.96 112.14 92.62 23.2 30.67 39.42 66.94 55.1 101.99 8.72 19.68 17.98 40.06 28.08 59.17 36.58 68.44 94.76 122.14 159.5 147 66.7 25.68 144.19 16.85 202.1-23.17 20.15-13.8 38.43-32.92 56.22-51.38 11.64-12.25 23.72-24.8 36.02-35.34 19.44-16.87 43.31-21.26 68.66-25.9 4.75-.83 9.66-1.72 14.36-2.71 35.15-7.08 99.73-26.15 137.26-74.29 32.26-41.3 35.63-99.98 8.03-133.35l-.25-.28-.09-.31c-1.65-17.23-8.68-32.23-17.49-51.02a632.98 632.98 0 0 1-13.01-29.29c-36.78-30.58-58.01-79-78.62-125.87-6.33-14.34-12.84-29.32-19.81-43.49-25.64-53-55.75-90.98-91.92-116.41-39.58-27.73-90.4-40.58-139.22-35.62-59.3 6.23-101.55 25.81-112.8 52.72l-.7.54Z" fill="url(#n)"/><path d="M442.19 105.76c28.48-8.11 57.74-11.11 83.65-8.35 29.82 3.2 55.13 12.3 73.54 18.92 4.8 1.73 9.02 3.27 12.63 4.48 8.32 2.61 11.78 2.66 16.39 2.55a51.1 51.1 0 0 1 5.18.07c12.22-24.1 52.99-41.02 112.2-46.36 48.12-4.42 97.37 8.36 135.42 34.97 35.26 24.67 64.27 61.76 88.7 113.56 6.56 13.94 12.77 28.49 18.81 42.4 20.05 46.69 38.89 90.97 72.8 119.97l.21.11.09.32c2.72 8.33 5.58 15.93 7.85 22.67 8.22 22.75 14.14 39.27 13.67 58.13 25.85 32.66 21.21 89.3-10.5 128.9-36.49 45.77-99.3 65.03-133.46 72.52l-12.69 2.58c-24.25 4.84-47.19 9.48-65.63 26.24-10.53 9.52-20.74 20.16-31.5 31.3-19.26 19.91-39.14 40.68-61.3 55.24-57.95 38.14-134.6 45.7-199.81 19.77-63.47-25.23-120.47-78.4-156.14-146.07-10-18.8-18.82-38.8-27.4-58-15.82-35.52-32.16-72.26-55.94-103.12-24.83-32.1-60.81-61.7-109.94-90.33-35.53-20.8-39.08-55.53-38.94-69.48.17-26.5 18.76-48.8 34.88-65.24a353.74 353.74 0 0 1 17.22-16.24c9.7-8.78 20.58-18.92 31.27-30.9 42.5-48.16 93.14-85.94 146.55-109.22a260.26 260.26 0 0 1 32.19-11.4Zm192.55 19.92-.68.02c-2.25-.05-3.98-.07-5.7-.1-4.67-.04-8.4.16-16.96-2.73-3.61-1.2-7.84-2.75-12.8-4.43-18.24-6.66-43.35-15.66-73.01-18.9-35.5-3.8-77.2 3.25-114.68 19.59-53.09 23.18-103.62 60.75-145.85 108.68-10.64 12.13-21.72 22.16-31.38 31.1a489.76 489.76 0 0 0-17.22 16.23c-15.85 16.2-34.05 38.04-34.24 63.86-.08 13.6 3.4 47.47 37.92 67.71 49.32 28.74 85.52 58.46 110.43 90.88 23.99 30.96 40.38 67.87 56.24 103.55 8.58 19.2 17.4 39.2 27.4 58 35.5 67.02 92.08 119.98 155.14 144.97 64.65 25.75 140.41 18.1 197.8-19.54l.6.87-.6-.87c22.01-14.5 41.77-35.08 61.04-55 10.75-11.13 20.97-21.76 31.65-31.33 18.88-17.06 41.98-21.74 66.7-26.72l12.7-2.58c33.84-7.4 96.17-26.52 132.32-71.68 31.16-39.1 35.6-94.65 10.14-126.57l-.25-.27.07-.36c.55-18.54-5.37-35.07-13.59-57.8a751.77 751.77 0 0 1-7.8-22.52c-34.22-29.43-53.22-73.67-73.15-120.56-6.03-13.92-12.1-28.51-18.81-42.4-24.3-51.32-53.1-88.3-87.95-112.74-37.64-26.4-86.48-38.94-134.13-34.66-59 5.46-99.34 22.1-110.8 45.8l-.55.5Z" fill="url(#o)"/><path d="M454.92 105.74c28.8-8.2 58.3-10.92 84.4-7.53 36.09 4.67 66.26 18.76 84.33 27.19l3.8 1.84c11.08 5.09 14.29 6.07 22.26 8.09 12.17-20.64 51.19-34.67 109.9-39.35 46.78-3.7 94.32 8.54 130.33 34.02 33.83 23.87 61.63 59.76 84.72 109.88 6.26 13.5 12.03 27.66 17.82 41.3 18.45 44.74 35.97 86.82 67.53 114.77l.25.28.09.31c.93 3.86 1.93 7.36 2.77 10.9 7.71 29.41 12.93 48.88 9.64 69.92 23.51 31.1 17.95 84.56-12.82 122-33.16 40.54-88.09 60.3-128.37 69.87-3.7.88-7.25 1.72-11 2.45-23.6 5.34-46.08 10.36-63.84 27.1a750.3 750.3 0 0 0-26.31 26.56c-20.97 21.77-42.65 44.09-66.84 59.39l-.59-.86.6.86c-57.53 35.96-132.45 42.34-195.47 16.3-61.62-25.4-116.87-77.88-151.56-143.94-9.77-18.52-18.23-37.92-26.56-56.85-16-36.16-32.53-73.54-57.04-104.53-30.5-38.73-73.9-67.78-108.28-88.75-37.49-22.82-37.28-61.88-36.42-73.29 2.09-27.05 22.74-48.73 40.4-64.58 4.65-4.24 9.86-8.3 15.13-12.72 10.87-8.94 23.31-19 35.1-31.98 42.7-46.86 91.93-83.54 141.95-106.03 10.96-5 22.46-9.31 34.08-12.62Zm195.8 31.88-1.5-.43c-8.19-2.14-11.55-3.07-22.69-8.32l-3.8-1.84c-19.03-8.84-47.82-22.29-83.76-27-36.25-4.63-78.94 2.54-117.52 19.88-49.86 22.43-98.6 58.99-141.2 105.64-11.95 13.02-24.34 23.24-35.37 32.22-5.27 4.43-10.48 8.49-15.12 12.73-17.4 15.6-37.66 36.83-39.77 63.2-.96 11.09-.91 49.21 35.56 71.47 34.58 21.08 78.18 50.24 108.89 89.08 24.55 31.15 41.12 68.7 57.17 105.01 8.28 18.77 16.96 38.3 26.51 56.7 34.45 65.78 89.24 117.87 150.62 143 62.56 25.66 136.68 19.5 193.62-16.11 24.07-15.1 45.75-37.42 66.56-59.15a755.4 755.4 0 0 1 26.47-26.6c18.15-17.2 40.79-22.26 64.7-27.7 3.55-.83 7.3-1.55 11-2.44 39.97-9.48 94.58-29.15 127.35-69.23 30.23-36.95 35.69-89.52 12.41-119.83l-.25-.27.11-.2c3.33-20.88-1.84-40.2-9.55-69.6-.95-3.34-1.79-6.88-2.83-10.54-31.81-28.22-49.22-70.5-67.83-115.2a1027.62 1027.62 0 0 0-17.82-41.3c-23-49.8-50.39-85.47-84.17-109.18-35.72-25.05-82.74-37.26-129-33.55-58.7 4.69-97.24 18.58-108.62 39l-.18.56Z" fill="url(#p)"/><path d="M467.37 105.98c29.12-8.3 58.88-10.75 85.26-6.92 39.03 5.9 70.09 22.48 90.2 34.45 3.77 2.36 6.68 4.11 9.38 5.75 4.84 3.09 8.36 5.18 13.8 7.92 15.3-21.7 66.77-29.48 107.48-32.14 45.43-2.97 91.16 8.93 125.2 32.91 32.1 22.64 59.37 58.51 80.78 106.36a1293.53 1293.53 0 0 1 16.87 40.38c17.13 42.53 33.06 82.66 62.21 109.41l.25.27.09.32c6.57 35.06 10.13 57.76 3.3 80.83 21.46 29.97 15.09 79.36-14.98 115.07-31.82 37.4-84.7 57.09-123.48 67.1-3.02.85-5.93 1.51-9 2.21-23.14 5.73-45.01 11.1-62.16 28.17-6.69 6.72-13.33 13.59-20.51 20.96-22.8 23.84-46.4 48.42-73.3 64.5l-.43-.91.43.9c-56.9 33.9-130.19 38.78-191.31 12.72C507.5 770.7 454 718.93 420.4 654.28c-9.31-18.13-17.84-37.18-25.88-55.68-16.19-36.79-32.9-74.8-57.97-105.98-29.25-36.16-70.4-63.96-106.73-86.95-30.47-19.32-37.54-52.53-33.9-77.1 4-27.6 26.72-48.66 45.94-63.92 4.18-3.43 8.77-6.62 13.6-10.23 11.95-8.73 25.48-18.6 38.33-32.04 43.9-46.34 90.1-80.96 137.32-102.99a255.69 255.69 0 0 1 36.26-13.41Zm199.31 43.59-.77-.3c-5.95-2.77-9.72-5.13-14.77-8.33-2.54-1.69-5.45-3.43-9.22-5.8-19.9-11.85-50.76-28.32-89.42-34.15-37.05-5.6-80.9 1.72-120.37 20.17-47.06 21.99-92.99 56.36-136.77 102.5-12.96 13.65-26.65 23.55-38.61 32.28-4.87 3.45-9.26 6.76-13.65 10.07-18.94 15.01-41.27 35.63-45.24 62.7-3.47 24 3.38 56.41 33.03 75.29 36.58 23.25 77.88 51 107.23 87.49 25.33 31.44 42.08 69.62 58.26 106.41 8.04 18.5 16.42 37.59 25.84 55.52 33.35 64.38 86.6 115.87 146.13 141.18 60.52 25.73 133.12 20.87 189.44-12.69 26.78-15.87 50.23-40.4 72.86-64.2 7.19-7.37 13.83-14.24 20.51-20.95 17.58-17.38 39.72-23 63.07-28.6 3.07-.7 5.93-1.52 9-2.22 38.47-9.92 91.03-29.52 122.41-66.63 29.69-35.24 35.92-83.91 14.68-113.09l-.29-.43.22-.4c6.93-22.76 3.26-45.25-3.22-80-29.24-27.06-45.38-67.3-62.36-109.88-5.33-13.26-10.8-27-16.81-40.22-21.32-47.53-48.35-83.13-80.2-105.5-33.79-23.71-78.99-35.58-124.06-32.54-58.42 3.91-95.36 14.94-106.48 32.02l-.44.3Z" fill="url(#q)"/><path d="M479.94 106c29.44-8.37 59.6-10.6 86.17-6.14 40.5 6.85 72.36 25.61 92.1 39.92 5.43 3.95 9.11 7.2 12.54 10.18 3.68 3.24 6.9 6.1 11.54 9.08 11.88-13.86 46.38-21.96 105.19-25.13 44.89-2.47 87.54 8.92 120.1 31.95 30.83 21.8 56.7 56.35 76.81 102.68 5.61 13 10.83 26.47 15.91 39.45 15.62 40.22 30.28 78.3 56.86 103.9l.25.26.09.32c4 35.11 4.33 58.55-5.82 80.85 19.08 28.24 11.69 74.67-17.29 108.17-23.68 27.35-62.65 48.75-115.64 63.83l-2.54.73-6.85 1.94c-22.68 6.12-44.21 12.07-60.79 29.33-4.39 4.52-8.85 9.4-13.5 14.15-24.8 26.47-50.57 53.73-80.65 70.71-57.04 32.22-126.96 35.63-186.97 9.25-58.06-25.56-109.97-76.58-142.53-139.98-9.01-17.7-17.3-36.48-25.2-54.5-16.36-37.43-33.25-76.08-59.05-107.39-28.4-34.35-68.13-60.83-103.35-84.13l-1.89-1.18c-31.24-20.83-36.47-56.62-31.36-80.92 5.97-28.5 30.64-48.75 51.5-63.1 4.04-2.7 8.25-5.44 12.61-8.23 12.94-8.32 27.5-17.62 41.1-31.45 45.23-45.86 88.57-78.46 132.72-99.8a211.6 211.6 0 0 1 37.94-14.74Zm202.72 55.51-.66-.5c-5.05-3.2-8.48-6.17-12.4-9.7-3.4-2.8-7.12-6.22-12.5-10-19.59-14.36-51.2-32.85-91.33-39.64-38-6.53-82.85.91-123.04 20.43-43.88 21.08-87.06 53.64-132.14 99.45-13.76 13.88-28.42 23.38-41.52 31.74a771.52 771.52 0 0 0-12.62 8.23c-20.53 14.27-44.98 34.1-50.77 62.04-4.92 23.73.13 58.89 30.5 79.1l1.9 1.18c35.25 23.46 75.15 49.9 103.8 84.52 26.05 31.58 42.98 70.4 59.35 107.82 7.9 18.02 15.98 36.68 25.15 54.34 32.26 62.97 83.92 113.71 141.61 139.2a208.08 208.08 0 0 0 185.3-9.1c29.92-16.94 55.53-44.15 80.2-70.42A447.1 447.1 0 0 1 847 696.05c16.97-17.71 38.7-23.55 61.66-29.92l6.84-1.95c54.04-15.03 93.49-36.57 117.44-64.17 28.59-33.05 35.84-78.75 16.95-106.35l-.3-.43.23-.4c10.08-21.95 9.84-45.07 5.88-80.02-26.66-25.9-41.33-63.99-56.99-104.37-5.08-12.98-10.14-26.49-15.86-39.29-19.86-46.05-45.48-80.33-76.27-101.97-32.3-22.76-74.55-33.93-118.97-31.6-59.16 3.1-93.42 11.48-104.5 25.12l-.45.81Z" fill="url(#r)"/><path d="M492.4 106.24c29.92-8.52 60.17-10.43 87.24-5.42 46.02 8.72 78.71 32.22 94.05 45.55 5.9 5.02 9.74 9.42 13.7 13.63 3.5 3.8 6.79 7.51 11.28 11.21 14.36-13.02 57.93-16.49 103.05-18.16 43.55-1.75 84.38 9.3 114.97 30.83 29.76 21.08 54.22 54.31 72.88 99.16 5.35 12.74 10.12 25.81 14.8 38.57 14.13 38.06 27.32 73.99 51.33 98.42l.25.27.09.32c1.75 38.67-2.31 60.6-14.98 80.7 16.74 26.68 8.33 70.13-19.6 101.27-23.13 25.65-60.22 45.83-113.41 62l-4.3 1.22c-22.34 6.7-43.42 13.05-59.7 30.74l-5.12 5.58c-25.93 28.5-55.47 60.62-89.48 78.9-56.43 30.14-124.67 32.21-182.64 5.77-56.99-26.04-105.94-75.15-138-138-8.76-17.44-16.7-35.62-24.36-53.37-16.5-37.9-33.4-77.24-60.14-108.8-25.28-30.08-58.84-53-91.33-75.18-4.27-2.9-8.34-5.7-12.4-8.5-32.13-22.11-35.61-59.6-28.85-84.72 7.9-29.56 34.74-48.88 57.18-62.48 3.82-2.3 7.8-4.63 11.98-6.85 13.8-7.7 29.33-16.6 43.61-30.45 29.45-28.83 74.96-70.12 127.98-96.55a222.3 222.3 0 0 1 39.92-15.66Zm206.23 67.22-.66-.5c-4.9-3.93-8.4-7.75-12-11.88-3.74-4.08-7.74-8.44-13.49-13.5-15.29-13.18-47.57-36.45-93.23-45.1-38.9-7.3-84.8.08-125.89 20.71-52.86 26.39-98.2 67.64-127.54 96.26-14.4 14.06-30.13 22.83-43.88 30.7-4.14 2.38-8.17 4.56-11.99 6.84-22.17 13.36-48.52 32.54-56.29 61.38-6.53 24.7-3.17 61.2 28.14 82.86 4.07 2.8 8.18 5.75 12.4 8.5 32.5 22.19 66.1 45.26 91.59 75.45 26.77 31.72 43.89 71.17 60.28 109.28 7.65 17.75 15.6 35.93 24.31 53.2 31.8 62.58 80.47 111.26 137.1 137.23 57.4 26.27 125.1 24.17 181.1-5.68l.39.75-.39-.75c33.75-18.02 63.13-50.1 88.94-78.4l5.12-5.58c16.51-18.1 37.9-24.53 60.4-31.28l4.3-1.22c52.93-15.93 89.65-36.17 112.51-61.57 27.54-30.69 35.77-73.57 19.21-99.6l-.29-.44.22-.4c12.56-19.9 16.71-41.53 15.05-79.88-24.05-24.58-37.44-60.63-51.63-98.85-4.67-12.75-9.6-25.78-14.8-38.56-18.52-44.38-42.77-77.5-72.29-98.3-30.37-21.41-70.8-32.24-113.88-30.63-45.27 1.72-89 5.24-102.31 18.3l-.5.66Z" fill="url(#s)"/><path d="M504.65 106.36c30.23-8.6 60.9-10.29 88.3-4.7 50.7 10.66 83.97 39.15 95.96 51.03 6.18 5.97 10.34 11.49 14.24 16.73 3.61 4.81 6.93 9.2 11.5 13.74 14.07-9.16 54.23-10.12 100.7-11.32 42.2-1.02 81.22 9.7 109.87 29.88 28.5 20.24 51.59 52.32 68.9 95.49 4.96 12.5 9.47 25.3 13.9 37.79 12.61 35.74 24.53 69.63 45.93 92.74l.25.27-.07.37c-.82 37.5-7.72 60.94-24.1 80.72 14.2 25 4.92 65.43-21.92 94.37-28.31 30.39-72.71 47.84-108.1 59.46l-1.44.4c-22.16 7.34-43.1 14.16-59.05 32.44-28.36 32.64-59.1 65.96-95.1 83.93l-.38-.75.38.75c-55.65 28.04-122.37 28.82-178.33 2.15-55.15-26.22-102.47-74.42-133.48-136.02-8.47-17-16.32-34.87-23.72-52.35-16.53-38.58-33.78-78.5-61.08-110.25-23.13-26.74-53-47.61-81.81-67.76a725.12 725.12 0 0 1-20.27-14.33c-30.76-22.16-35.35-60.54-26.16-88.58 10.07-31.04 40.56-50.2 62.7-61.82 3.76-1.93 7.67-3.9 11.74-5.92 14.5-7.05 30.78-15.12 45.59-28.95 36.93-34.56 77.3-69.76 123.33-93.51 13.64-6.46 27.71-12.01 41.72-16Zm209.9 78.88-.5-.54c-4.81-4.81-8.38-9.47-12.2-14.4-3.9-5.24-8.01-10.6-14.03-16.61-11.79-11.76-44.85-40.15-95.14-50.57-39.86-8.24-86.76-.73-128.77 20.85-45.93 23.55-86.3 58.75-123.07 93.26-14.91 14.04-31.51 22.2-46.02 29.25a585.14 585.14 0 0 0-11.57 5.87c-21.83 11.54-52.04 30.45-61.77 60.87-8.97 27.63-4.49 65.01 25.66 86.83 6.55 4.84 13.2 9.47 20.27 14.33 29.01 20.26 58.89 41.13 82.06 68.04 27.5 31.85 44.64 71.98 61.33 110.52 7.51 17.27 15.2 35.18 23.67 52.18 30.77 61.33 77.88 109.42 132.62 135.41 55.56 26.45 121.75 25.65 176.97-2.1 35.67-17.88 66.26-51.15 94.51-83.59 16.22-18.53 37.27-25.55 59.8-32.82l1.43-.4c35.24-11.59 79.36-28.78 107.52-59.13 26.61-28.53 35.7-68.4 21.49-92.87l-.3-.43.39-.45c16.26-19.57 23.25-42.7 24-79.84-21.65-23.39-33.56-57.27-46.22-93.18-4.43-12.48-8.95-25.28-13.9-37.79-17.22-42.85-40.11-74.81-68.36-94.78-28.28-20.12-67.05-30.56-108.94-29.63-46.83 1.13-87.35 2.02-100.34 11.38l-.59.34Z" fill="url(#t)"/><path d="M516.9 106.48c30.55-8.7 61.63-10.15 89.58-3.85 53.31 11.97 86.23 43.48 97.86 56.49 6.3 6.97 10.56 13.48 14.79 19.84 3.67 5.65 7.26 10.99 11.9 16.37 10.77-4.44 35.02-4.48 68.64-4.25 9.48.05 19.28 0 29.75-.05 28.87-.15 70.67 4.62 104.8 28.92 27.21 19.4 49.1 50.27 64.92 91.8 4.7 12.24 8.85 24.97 13.03 37.18 11.09 33.43 21.69 65.12 40.68 87.03l.25.27-.07.36c-3.32 37.2-13.28 61.33-33.21 80.75 11.85 23.42 1.56 60.88-24.23 87.46-25.9 26.78-64.76 43.17-103.18 56.85-20.28 7.32-41.2 14.82-56.95 33.74-24.34 29.25-57.05 65.36-95.4 83.5-54.88 25.92-119.91 25.37-174.15-1.28-53.26-26.24-99.04-73.86-128.91-133.9-8.38-16.68-15.78-34.15-23.04-51.15-16.71-39.22-33.94-79.67-62.13-111.5-21.1-23.89-48.07-43-74.17-61.52a784.6 784.6 0 0 1-26.25-18.98c-31.33-23.55-34.19-64.3-23.63-92.4 9.31-24.64 30.96-44.02 68.22-61.16 3.64-1.72 7.49-3.33 11.65-5.03 15.05-6.34 32.23-13.64 47.56-27.45 34.8-31.2 74.23-66.65 118.74-90.32 13.8-7.7 28.31-13.55 42.95-17.72Zm213.78 90.66-.29-.43c-5.04-5.6-8.68-11.1-12.45-17.07-4.18-6.2-8.44-12.71-14.58-19.73-11.58-12.85-44.25-44.09-97.04-56.03-41.02-9.28-88.87-1.5-131.62 21.14-44.35 23.62-83.83 58.9-118.47 90.07-15.48 13.85-32.67 21.15-47.84 27.7-4 1.65-7.84 3.26-11.63 5.03-36.8 17-58.33 36.18-67.45 60.25-10.38 27.52-7.54 67.6 23.13 90.65 8.52 6.33 17.15 12.47 26.24 18.98 26.1 18.51 53.23 37.6 74.58 61.75 28.24 31.99 45.51 72.6 62.42 111.93 7.27 17 14.67 34.48 23.05 51.16 29.83 59.88 75.35 107.22 128.2 133.23 53.72 26.62 118.38 27.12 172.79 1.32l.39.75-.39-.75c38.04-18.04 70.67-53.78 94.85-83 15.88-19.12 37.06-26.87 57.55-34.07 38.1-13.6 76.8-29.93 102.58-56.51 25.52-26.34 35.59-63.39 23.76-86.13l-.3-.43.03-.52c19.85-19.05 29.87-43.03 33.11-79.86-19.03-22.07-29.63-53.75-40.77-87.34a792.46 792.46 0 0 0-13.02-37.18c-15.73-41.22-37.42-71.98-64.39-91.1-33.88-24.03-75.15-28.77-103.81-28.52-10.48.07-20.27.1-29.75.06-32.73-.14-58.4-.22-68.6 4.4l-.28.25Z" fill="url(#u)"/><path d="M529.15 106.6c30.87-8.79 62.35-10.02 90.8-3.17 55.46 13.42 88.3 47.7 99.78 61.96 6.36 7.81 10.78 15.48 15.12 22.84 3.95 6.6 7.5 12.98 12.51 19.11 7.55-1.29 21.87-.55 41.42.41 15.2.83 34.07 1.81 54.8 2.1 27.95.28 67.95 5.4 99.65 27.8 25.94 18.56 46.47 48.28 61 88.29 4.33 12.17 8.28 24.79 12.09 36.93 9.57 31.11 18.65 60.48 35.19 81.03l.25.27-.07.36c-5.73 37.2-18.77 62.03-42.33 80.76 9.56 22.02-1.46 55.74-26.38 80.52-26.57 26.29-67.88 42.51-98.04 54.36-20.74 8.14-39.06 16.27-53.28 34.58-32.8 41.8-64.11 68.92-95.9 82.95-53.94 23.78-117.4 22.08-169.85-4.9-51.21-26.31-95.4-73.17-124.23-131.96-8.08-16.25-15.28-33.62-22.4-50.14-16.85-39.7-34.26-80.78-63.01-112.8-19.58-21.56-44.05-39.16-67.93-55.9-10.82-7.75-21.18-15.1-31.1-22.76-32.1-25.04-33.38-67.46-21.11-96.2 13.6-31.87 42.47-55.55 73.9-60.55 20.42-3.23 42.15-13.88 60.78-30 4.13-3.59 8.39-7.38 12.68-11 31.7-27.58 64.54-56 101.42-76.28a194.82 194.82 0 0 1 44.24-18.6Zm520.81 337.91c-16.58-20.7-25.7-50.23-35.28-81.35-3.81-12.14-7.55-24.65-12.04-36.77-14.28-39.74-34.72-69.14-60.46-87.58-31.33-22.34-70.97-27.38-98.72-27.56-20.68-.12-39.6-1.27-54.8-2.1-19.9-1.02-34.27-1.92-41.57-.36l-.48.14-.25-.27c-5.1-6.45-8.86-12.94-12.85-19.7-4.34-7.36-8.72-14.88-15.08-22.68-11.42-14.1-43.86-48.16-98.95-61.51-41.98-10.21-91.03-2.44-134.46 21.44-36.76 20.08-69.44 48.45-101.14 76.03-4.3 3.62-8.55 7.41-12.69 11-18.94 16.2-40.8 27.06-61.52 30.39-30.8 4.81-59.39 28.24-72.77 59.7-12.04 28.34-10.68 69.87 20.77 94.42 9.77 7.7 20.13 15.05 31.1 22.75 23.77 16.94 48.55 34.45 68.18 56.18 28.96 32.13 46.42 73.37 63.3 113.22 6.97 16.57 14.33 33.9 22.4 50.14 28.75 58.48 72.68 105.07 123.7 131.26 52.03 26.76 115.01 28.59 168.64 4.9l.34.6-.34-.6c31.47-13.93 62.67-40.85 95.35-82.45 14.54-18.4 32.98-26.74 53.87-34.92 30-11.8 71.16-27.98 97.5-53.86 24.42-24.13 35.51-58.2 25.86-79.34l-.14-.47.43-.3c23.36-18.84 36.44-43.52 42.1-80.35Z" fill="url(#v)"/><path d="M540.6 106.95c31.51-8.97 64.04-10.15 92.67-2.67 40.5 10.46 77.65 35.1 101.68 67.43 6.47 8.8 11.17 17.43 15.46 25.83 4.07 7.6 7.84 14.78 12.97 21.9 4.39.3 10.84 1.22 19.07 2.3 17.54 2.4 43.93 6.23 74.95 7.02 39.4 1.15 71.21 10.14 94.57 26.85 24.88 17.83 44 46.23 57.02 84.6 4.18 12.22 7.72 24.6 11.16 36.68 8.17 28.6 15.88 55.6 29.8 74.84l.25.27-.06.36c-8.09 37.35-24.47 63.14-51.49 80.62 7.02 20.34-4.82 51.2-28.7 73.62-23.17 21.88-56.91 36.3-86.65 49.06l-6.3 2.65c-21.3 9.15-37.1 18.29-49.8 35.3-20.88 28.1-54.51 65.16-96.23 82.37-52.97 21.77-114.95 18.63-165.51-8.38-49.33-26.33-91.76-72.49-119.7-129.98-7.84-15.98-14.9-32.87-21.78-49.12-16.86-40.38-34.46-82.1-64.05-114.04-18.15-19.57-40.64-35.67-62.48-51.28-12.3-8.7-23.97-17.05-34.94-25.95-31.35-25.44-33.08-69.44-18.58-100.02 15.29-32 46.28-55.43 79.26-59.84 22.24-2.89 44.4-12.63 62.66-27.62 7.82-6.35 15.72-13.06 23.45-19.73 27.15-23.02 55.23-46.99 86.06-64.35a219.7 219.7 0 0 1 45.25-18.72Zm508.01 345.5c-13.96-19.39-21.68-46.4-29.84-75-3.45-12.06-6.99-24.46-11.17-36.67-12.93-38.06-31.85-66.34-56.48-83.9-23.1-16.44-54.6-25.51-93.78-26.56-31.07-.94-57.57-4.57-75.17-7.12a365.2 365.2 0 0 0-19.27-2.42l-.36-.06-.25-.28c-5.18-7.28-9.15-14.57-13.26-22.33-4.45-8.36-8.95-16.87-15.38-25.52-23.82-32.21-60.72-56.58-100.85-66.97-42.57-11.08-93.94-2.98-137.3 21.72-30.79 17.53-58.76 41.3-85.9 64.31-7.79 6.51-15.63 13.38-23.45 19.73-18.26 14.99-40.7 24.98-63.3 27.8-32.5 4.28-63.22 27.45-78.29 59.05-14.15 29.97-12.45 73.3 18.29 98.38 10.97 8.9 22.45 17.15 34.74 25.85 21.83 15.6 44.48 31.66 62.68 51.39 29.69 32.26 47.28 73.98 64.35 114.47 6.88 16.25 13.94 33.14 21.6 49.16 27.86 57.18 70.05 103.06 119.22 129.44 50.35 26.9 111.8 30.01 164.46 8.33l.18.63-.18-.63c41.56-17.16 74.93-53.97 95.7-81.87 12.8-17.21 28.72-26.55 50.34-35.8l6.3-2.65c29.57-12.71 63.15-27.08 86.21-48.76 23.6-22.18 35.49-52.88 28.13-72.6l-.13-.48.43-.3c27.24-17.88 43.55-43.31 51.73-80.34Z" fill="url(#w)"/><path d="M552.7 107.11c31.82-9.05 64.76-10.01 94.1-1.87 41.81 11.46 79.67 37.96 103.58 72.9 6.54 9.65 11.35 19.27 15.92 28.62 4.17 8.6 8.22 16.73 13.46 24.86 13.18 3.98 47.25 14.2 91.89 16.28 38.57 1.9 67.84 10.4 89.26 25.78 23.65 17.14 41.57 44.34 53.05 80.93 3.86 12.3 7.08 24.78 10.21 36.94 6.55 25.97 12.9 50.62 24.33 68.32l.09.32-.12.2c-10.57 37.71-30.38 64.14-60.75 80.69 4.62 18.6-8.4 46.53-30.86 66.67-20.17 17.94-48.61 31.01-73.74 42.46-4.86 2.24-9.73 4.49-14.27 6.64-16.22 7.7-32.93 17.27-46.12 36.15-16 22.93-49.86 64-96.74 81.82-52.15 19.82-112.29 15.3-161.37-11.96-47.28-26.4-88.33-71.92-115.19-128-7.58-15.72-14.34-32.17-20.97-48.15-17-40.86-34.61-83.25-64.94-115.34-16.97-17.84-37.73-32.72-57.95-46.89-12.91-9.04-26.16-18.67-37.92-28.54-31.97-26.98-32.26-72.6-16.01-103.67 16.76-32.26 50.05-55.48 84.83-59.02 17.05-1.76 42.08-7.5 64.38-25.2 10.42-8.11 20.54-16.66 31.2-25.71 23.29-19.69 47.44-39.96 73.56-55.13a205.79 205.79 0 0 1 47.09-20.1Zm494.52 353.12c-11.47-17.86-17.82-42.5-24.37-68.47-3.13-12.17-6.35-24.65-10.16-36.8-11.44-36.42-29.15-63.5-52.55-80.37-21.43-15.38-50.29-23.65-88.7-25.6-44.84-2.19-79.32-12.65-92.3-16.51l-.2-.11-.04-.16c-5.45-8.24-9.5-16.37-13.72-25.13-4.56-9.35-9.17-18.86-15.71-28.51-23.82-34.62-61.31-61.05-102.92-72.4-43.84-11.92-96.26-3.87-140.03 21.82-26.08 15.32-50.07 35.55-73.4 55.08-10.28 8.59-20.94 17.64-31.36 25.75-22.62 17.78-47.97 23.62-65.02 25.38-34.41 3.62-67.27 26.54-83.8 58.39-16.03 30.67-15.6 75.56 15.75 102.19 11.77 9.88 24.36 19 37.88 28.39 20.26 14.33 41.03 29.2 58 47.05 30.53 32.2 48.14 74.6 65.19 115.6 6.63 15.98 13.55 32.4 20.97 48.15 26.81 55.93 67.6 101.17 114.69 127.46 48.67 27.03 108.45 31.49 160.28 11.75l.18.64-.18-.64c46.56-17.72 80.15-58.54 96.14-81.48 13.29-18.55 30.11-28.32 46.48-36.07 4.55-2.16 9.42-4.4 14.28-6.64 24.96-11.4 53.25-24.44 73.26-42.33 22.51-19.98 35.26-47.66 30.4-65.86l-.13-.47.43-.3c30.46-16.23 50.21-42.3 60.66-79.8Z" fill="url(#x)"/><path d="M564.75 107.12c32.14-9.15 65.53-9.72 95.48-1.24 43.13 12.46 81.57 41.03 105.49 78.37 6.77 10.44 11.53 21.11 16.2 31.46 4.3 9.6 8.45 18.73 13.93 27.65 16.67 9 50.06 20.45 89.74 23.24 25.8 1.76 58.6 6.34 84.18 24.83 22.13 16.03 39.07 42.82 49.12 77.4 3.58 12.56 6.32 25.18 9.13 37.43 5.26 23.24 10 45.25 19.08 61.4l.1.31-.12.2c-12.84 38.19-36.4 65.34-69.87 80.7 2.13 17.1-11.48 41.75-33.17 59.78-17.35 14.56-40.04 25.48-61.82 35.98-7.4 3.65-14.35 7-21.1 10.47-19.46 10.18-32.31 21.22-42.6 37.03-25.66 39.09-61.06 68.75-97.03 81.39-50.97 17.94-109.74 12.17-157.02-15.43-45.4-26.42-84.65-71.07-110.67-126.03-7.33-15.43-14-31.57-20.38-47.28-17.19-41.49-34.78-84.4-65.99-116.58-15.83-16.28-35.24-30-53.77-43.1-13.77-9.65-28.04-19.85-40.4-30.59-14.93-13.1-23.71-31.21-25.45-52.37a99.29 99.29 0 0 1 11.92-55.27c18.25-32.5 53.67-55.47 90.36-58.35 27.07-2.21 48.71-9.58 66.31-22.66 12.35-9.18 24.97-19.82 37.05-29.95 20.12-16.9 40.95-34.34 63.23-47.9a197.66 197.66 0 0 1 48.07-20.89Zm481.13 361.06c-8.97-16.35-13.87-38.32-19.13-61.56-2.81-12.25-5.6-25.03-9.14-37.42-6.85-23.99-20.8-56.6-48.57-76.7-25.38-18.38-58.13-22.8-83.6-24.65-39.9-2.9-73.64-14.43-90.32-23.43l-.2-.1-.05-.17c-5.52-9.08-9.97-18.63-14.17-27.92-4.63-10.19-9.4-20.86-16.16-31.3-23.67-37.07-61.9-65.52-104.83-77.87-45.2-13.07-98.58-4.75-142.87 22.11-22.12 13.52-42.95 30.95-63.08 47.85-12.07 10.13-24.7 20.77-37.04 29.95-17.76 13.13-39.67 20.74-66.9 23-36.17 2.9-71.32 25.62-89.5 57.77-17.22 30.67-18.43 78.25 13.24 106 12.36 10.74 26.58 20.78 40.23 30.63 18.75 13.22 38.15 26.94 54.03 43.38 31.25 32.33 49 75.2 66.23 116.85 6.38 15.71 13.05 31.85 20.34 47.12 25.93 54.64 64.97 99.18 110.17 125.49 47.03 27.32 105.28 33.07 155.98 15.38l.18.63-.18-.63c35.8-12.6 71.1-42.06 96.49-80.89 10.44-15.86 23.4-27.1 43.02-37.33 6.6-3.42 13.71-6.82 21.1-10.47 21.78-10.5 44.26-21.53 61.66-35.93 21.7-18.03 35.03-42.44 32.63-59.28l-.14-.47.48-.14c33.72-15.1 57.16-42.04 70.1-79.9Z" fill="url(#y)"/><path d="M576.63 107.17c32.47-9.24 66.42-9.63 96.97-.28 44.45 13.46 83.43 43.93 107.39 83.84 6.83 11.28 11.71 22.95 16.46 34.14 4.26 10.12 8.67 20.72 14.41 30.6 14.84 11.57 46.56 26.25 87.6 30.2 27.6 2.63 56.46 7.3 79.1 23.87 26.69 19.37 39.28 50.83 45.14 73.73 3.35 12.96 5.71 26.03 8.09 38.58 3.71 20.25 7.27 39.33 13.86 53.95l.04.16-.11.2c-15.28 38.7-42.59 66.58-79.2 80.6-.41 15.41-14.88 37.05-35.27 53-14.65 11.38-33.13 20.76-51.03 29.8a516.95 516.95 0 0 0-26.92 14.2c-16.98 9.81-28.96 21.47-38.95 37.71-23.7 38.7-60.14 69-97.53 80.84-50 15.95-107.09 8.84-152.69-18.9-43.35-26.48-81.01-70.39-106.1-123.89-7.03-15-13.46-30.87-19.75-46.25-17.2-42.17-34.93-85.57-66.82-117.72-14.95-14.99-32.83-27.6-50.25-39.81-14.6-10.1-29.68-20.76-42.47-32.4-32.62-29.89-29.95-79.6-10.96-111.3 22.1-36.52 64.24-51.6 95.73-57.65 4.38-.9 8.86-1.49 13.61-2.33 18.41-3 37.5-6.03 54.58-17.94 13.9-9.8 27.77-21.47 41.2-32.86 17.31-14.71 35.37-29.81 54.5-41.79a186.35 186.35 0 0 1 49.37-22.3Zm467.86 368.79c-6.59-14.62-10.14-33.7-13.86-53.95-2.38-12.55-4.74-25.62-8.09-38.58-5.81-22.74-18.36-54.04-44.65-73.19-22.54-16.25-51.08-21.01-78.67-23.64-41.2-3.9-73.34-18.8-88.22-30.55l-.2-.11c-5.8-10.03-10.2-20.63-14.67-30.87-4.74-11.2-9.62-22.86-16.46-34.14-23.7-39.63-62.65-69.95-106.73-83.34-46.52-14.07-101.1-5.75-145.71 22.4-18.96 11.93-37.02 27.03-54.33 41.75-13.44 11.38-27.3 23.06-41.2 32.86-17.19 12.1-37.28 15.25-55.01 18.24-4.75.83-9.23 1.42-13.46 2.28-31.28 6.15-73.16 21-95.13 57.31-18.77 31.28-21.46 80.32 10.75 109.97 12.8 11.65 27.83 22.14 42.26 32.3 17.43 12.21 35.47 24.77 50.46 39.92 32.1 32.26 49.92 75.98 67.12 118.15 6.29 15.39 12.67 31.1 19.75 46.25 25.04 53.35 62.5 97.14 105.64 123.51 45.4 27.62 102.29 34.62 151.8 18.8l.14.48-.14-.47c37.03-11.92 73.4-41.85 96.99-80.35 10.1-16.44 22.2-28.3 39.34-38.16a516.55 516.55 0 0 1 26.92-14.2c17.73-9 36.26-18.22 50.75-29.56 23.8-18.46 34.82-40.14 34.9-52.53l.06-.37.32-.09c36.76-14.07 63.96-41.74 79.33-80.12Z" fill="url(#z)"/><path d="M588.09 107.52c32.94-9.38 68.14-9.6 98.98.17 45.57 14.34 85.35 47 109.3 89.3 5.88 10.36 9.7 21.3 13.37 31.76 5 13.87 9.6 26.99 18.3 38.77 10.88 14.6 41.44 31.84 85.46 37.17 26 3.08 53.1 7.57 73.95 22.76 25.22 18.42 36.36 48.4 41.22 70.21 3.01 13.57 4.87 27.3 6.75 40.51 2.28 17.04 4.45 33.09 8.93 45.73l.04.16-.11.2c-18.1 39.68-48.5 67.58-88.3 80.62-2.6 11.4-15.16 30.09-37.6 46.1-12.01 8.56-26.7 16.18-40.8 23.46-11.52 6.03-22.46 11.71-32.05 17.88-14.83 9.55-25.45 21.16-35.44 38.6-22.25 38.98-58.93 69-97.87 80.26l-.48.13c-48.69 13.86-103.94 5.37-147.9-22.66-42.04-26.69-77.15-68.91-101.58-121.91-6.79-14.74-13.12-30.28-19.11-45.24-17.19-42.7-35.14-86.89-67.87-118.97-14.11-13.85-30.83-25.4-47.1-36.58-15.2-10.45-30.9-21.44-44.08-33.84-33.12-31.63-29.18-82.91-8.43-115.1 19.06-29.65 55.06-50.03 101.25-56.99 4.59-.8 9.27-1.26 14.27-1.83 18.8-2.26 38.44-4.58 55.8-16.06 15.06-9.95 29.7-22.53 43.96-34.67 15.08-12.88 30.59-26.05 46.98-36.73a174.56 174.56 0 0 1 50.16-23.21Zm454.89 376.43c-4.31-12.7-6.48-28.74-8.77-45.78-1.88-13.2-3.69-26.78-6.7-40.35-4.81-21.65-15.7-51.36-40.72-69.67-20.65-15.07-47.7-19.4-73.54-22.53-44.18-5.29-75.15-22.75-86.07-37.5-8.7-11.8-13.51-25.02-18.35-38.94-3.72-10.62-7.65-21.35-13.32-31.6-23.75-42.19-63.28-74.57-108.64-88.8-47.27-14.9-104.17-6.26-148.6 22.54-16.39 10.68-31.9 23.85-46.97 36.73-14.26 12.13-28.9 24.72-44.12 34.72-17.49 11.68-37.12 14-56.13 16.15-5 .56-9.63 1.2-14.11 1.78-26.69 4.16-75.18 16.93-100.66 56.65-20.47 31.94-24.43 82.54 8.23 113.79 13.02 12.44 28.68 23.27 43.88 33.72 16.3 11.33 33.03 22.9 47.3 36.7 32.94 32.2 50.73 76.43 67.96 119.28 5.99 14.96 12.32 30.5 19.11 45.24 24.38 52.84 59.45 94.9 101.28 121.48 43.76 27.91 98.8 36.3 147.18 22.53l.48-.14.14.48-.14-.48c38.78-11.21 75.19-40.98 97.33-79.75 10.1-17.65 20.72-29.26 35.7-38.85 9.6-6.17 20.53-11.86 32.06-17.89 14.1-7.28 28.63-14.85 40.63-23.42 22.45-16 34.89-34.5 37.17-45.8l.11-.2.32-.09c39.7-12.84 70.14-40.58 87.96-80Z" fill="url(#A)"/><path d="M599.98 107.57c33.25-9.46 68.87-9.47 100.57.92 46.72 15.39 87.2 49.9 111.05 94.83 6 11.35 10.28 23.35 14.27 34.93 5.06 14.7 9.85 28.46 18.35 41.33 11.33 17.39 41.43 37.85 83.32 44.14l1.09.2c22.64 3.35 48.18 7.25 67.77 21.6 18.72 13.74 31.82 37.32 37.08 66.58 2.65 14.7 3.73 29.34 4.83 43.45 1.09 13.44 1.94 26.08 4.21 36.43l.05.16-.12.2c-20.29 39.8-54.5 68.25-96.5 80.2l-1.12.33c-4.44 9.16-17.5 24.9-39.7 39.3-9.28 6.07-20.22 11.76-30.84 17.36-12.87 6.76-26.21 13.65-36.88 21.5-15.69 11.33-24.54 25.53-31.9 39.48-20.58 38.84-58.12 69.45-98.38 79.71-47.62 12.18-101.46 2.6-144.2-25.95-39.94-26.6-73.47-68.07-97.06-119.94-6.53-14.46-12.62-29.73-18.52-44.37-17.36-43.33-35.13-88.09-68.75-120.26-13.27-12.72-29.08-23.5-44.24-33.8-15.81-10.78-32.03-21.8-45.28-35.03-14.9-14.83-23.41-35.6-23.76-58.52-.38-21.2 6.1-43.13 17.85-60.4 28.23-41.53 79.08-53.25 106.77-56.32 4.84-.52 9.73-.88 14.93-1.33 19.19-1.51 39.21-3.1 56.88-14.13 15.94-9.86 31.08-23.1 45.68-35.85 12.97-11.25 26.47-23 40.62-32.52a180.12 180.12 0 0 1 51.93-24.23Zm441.66 384.32c-2.27-10.35-3.29-22.95-4.21-36.43-1.11-14.11-2.19-28.75-4.84-43.45-5.33-28.9-18.38-52.32-36.74-66-19.38-14.23-44.88-17.97-67.36-21.36l-1.09-.2c-42.04-6.25-72.4-26.98-83.93-44.48-8.34-12.92-13.51-27.42-18.4-41.5-3.99-11.57-8.23-23.42-14.22-34.77-23.75-44.6-64.03-79-110.55-94.28-48.84-16.16-106.9-7.37-151.43 22.83-14.15 9.53-27.5 21.23-40.62 32.52-14.6 12.75-29.79 25.83-45.84 35.9-17.83 11.08-37.85 12.66-57.2 14.22-5.2.45-10.09.8-14.93 1.33-27.64 3.23-78.22 14.7-106.18 55.99-22.06 32.39-27.46 84.6 5.91 117.7 13.2 13.08 29.43 24.1 45.24 34.88 15.2 10.45 31.01 21.24 44.44 33.9 33.78 32.14 51.6 77.06 69 120.54 5.9 14.64 11.99 29.92 18.53 44.38 23.54 51.7 57.02 93.02 96.75 119.5 42.54 28.44 96.06 38.11 143.48 25.82 39.9-10.33 77.37-40.58 97.78-79.37 7.37-13.95 16.34-28.36 32.18-39.74 10.87-7.73 24.17-14.78 37.04-21.54 10.46-5.55 21.4-11.24 30.72-17.16 22.21-14.4 35.27-30.13 39.6-39.1l.1-.2.17-.04 1.27-.37c41.21-11.73 75.14-39.94 95.33-79.52Z" fill="url(#B)"/><path d="M611.82 107.47c33.57-9.56 69.64-9.18 102.2 1.82 47.85 16.28 88.92 52.86 112.92 100.14 6.3 12.46 10.71 25.47 15.02 38.15 5.06 14.71 10.26 29.9 18.18 43.79 10.86 18.72 38.73 43.43 81.19 51.1 1.97.3 3.8.64 5.81 1.1 20.32 3.66 41.16 7.35 57.95 19.75 23.79 17.62 30.98 47 33.11 62.9 2.3 16.51 2.25 33.2 2.17 47.99.07 9.26-.01 18.04.6 25.6l.05.15-.12.2c-23.29 41.34-61.27 69.84-106.73 80.55-8.62 10.18-24.4 22.4-42.02 32.4-6.5 3.74-13.42 7.26-20.76 11.07-14.85 7.66-30.33 15.5-42.02 25.18-13.42 10.87-20.84 24.66-28.23 40.33-19.02 39.43-56.98 69.82-98.67 79.28-46.4 10.46-98.76-.58-139.9-29.58-37.86-26.5-69.83-67.39-92.54-117.96a1116.02 1116.02 0 0 1-17.88-43.35c-17.34-43.85-35.34-89.4-69.6-121.4-12.63-11.7-27.33-21.6-41.62-31.27-16.18-10.86-32.97-22.05-46.23-35.97-14.93-15.5-23.14-37.05-23.15-60.58-.04-21.8 7.25-44.5 19.8-61.98 22.5-31.49 63.52-51.75 112.3-55.67 5.05-.4 10.3-.7 15.75-.88 19.57-.76 39.78-1.7 57.94-12.2 16.51-9.67 31.77-23.12 46.6-36.28 11.23-10.06 22.94-20.27 35.1-28.89 15.93-11.74 34-20.15 52.78-25.5Zm428.42 392.2c-.6-7.56-.49-16.18-.55-25.44-.08-14.75-.03-31.43-2.29-47.79-2.13-15.89-9.38-44.91-32.81-62.47-16.58-12.28-37.43-15.97-57.54-19.52-1.97-.3-4-.75-5.82-1.1-42.65-7.78-70.73-32.6-81.63-51.48-8.09-13.85-13.28-29.04-18.18-43.79-4.32-12.69-8.72-25.69-14.98-38-23.96-47.12-64.99-83.54-112.46-99.74-50.51-17.23-109.57-8.33-154.27 23.12-12.17 8.62-23.83 18.98-35.11 28.9-14.83 13.15-30.04 26.75-46.76 36.32-18.16 10.5-38.53 11.48-58.26 12.29-5.45.18-10.54.42-15.75.88-48.62 3.87-89.32 24.04-111.7 55.32-23.84 33.41-29.07 87.99 3.39 121.52 13.22 13.76 30 24.96 46.18 35.81 14.3 9.68 29.16 19.54 41.83 31.39 34.46 32.1 52.46 77.66 69.85 121.67 5.65 14.36 11.6 29.16 17.88 43.35 22.66 50.41 54.6 91.14 92.24 117.53 41.1 28.84 93.1 39.8 139.34 29.4 41.53-9.42 79.2-39.56 98.12-78.78 7.55-15.72 14.97-29.52 28.5-40.58 11.73-9.53 27.17-17.53 42.18-25.23 7.34-3.81 14.25-7.33 20.6-11.02 17.57-10.16 33.24-22.18 41.86-32.36l.16-.04.16-.05c44.98-10.57 82.64-38.98 105.82-80.11Z" fill="url(#C)"/><path d="M623.23 107.65a181.3 181.3 0 0 1 22.52-4.86c27.9-4.16 56.17-1.56 81.64 7.5 48.84 17.37 90.77 55.77 114.82 105.61 6.63 13.58 11.35 27.7 15.81 41.54 5.09 15.39 10.47 31.2 18.14 46.03 11.9 22.38 38.88 49.4 79.04 58.07 2.96.7 6.23 1.32 9.18 2.02 17.34 3.49 35.1 7.2 49.45 17.7 16.43 12.34 27.05 33.88 29.18 59.39 1.55 19.31-.57 38.98-2.31 54.6-.46 4.42-.96 8.69-1.23 12.54l-.12.2c-25.77 41.7-67.97 71.06-115.9 80.4-10.86 7.74-26.66 16.88-44.13 25.62-3.16 1.6-6.36 3.02-9.68 4.65-16.48 7.96-35.26 16.9-48.04 28.8-11.26 10.58-17.09 23.92-23.41 37.92l-1.35 3.13c-17.3 39.45-56.31 70.32-99.16 78.73-22.5 4.35-46.99 3.58-70.5-2.26a185.67 185.67 0 0 1-65.06-30.79c-35.77-26.4-66.1-66.39-87.97-115.82-6.2-13.87-11.73-28.44-17.3-42.5-17.36-44.52-35.33-90.6-70.64-122.64-12.04-10.83-25.83-19.96-39.37-28.81-16.54-10.93-33.7-22.2-47.1-36.59-14.94-16.19-22.98-38.3-22.53-62.64.42-22.63 8.25-45.81 21.56-63.69 24.43-32.55 67.38-52.67 117.81-55 5.41-.34 11.12-.25 16.57-.43 19.92-.16 40.5-.36 58.86-10.22 17-9.13 32.17-22.9 46.75-36.32 9.66-8.94 19.8-18.01 30.31-25.81a176.47 176.47 0 0 1 54.16-26.07Zm415.67 399.96c.27-3.86.82-7.96 1.28-12.39 1.83-16.5 3.86-35.28 2.3-54.6-2.19-25.14-12.61-46.57-28.99-58.74-14.2-10.56-31.9-14.1-49.08-17.63l-9.34-1.99c-40.41-8.94-67.6-36.07-79.5-58.45-7.79-14.62-13.05-30.64-18.3-45.98-4.62-13.8-9.34-27.92-15.81-41.54-24-49.69-65.78-88.13-114.57-105.33-52.24-18.46-112.5-9.55-157.12 23.42-10.5 7.8-20.48 16.82-30.3 25.8-14.74 13.47-29.91 27.24-46.92 36.38-18.5 9.9-39.26 10.14-59.17 10.3-5.5.03-11.16.1-16.41.39-50.23 2.44-93.07 22.36-117.34 54.87-25.43 33.86-31.94 90 .9 125.49 13.2 14.28 30.36 25.54 46.9 36.46 13.54 8.86 27.38 18.15 39.42 28.98 35.46 32 53.48 78.23 70.9 122.92 5.4 14.1 11.09 28.62 17.29 42.49 21.81 49.28 52.16 89.25 87.71 115.55 39.67 29.25 90.19 41.67 135.15 32.82 42.53-8.32 81.28-38.94 98.63-78.23l1.34-3.13c6.28-14.15 12.1-27.5 23.48-38.29 12.78-11.88 31.67-21.04 48.15-29 3.32-1.63 6.53-3.06 9.69-4.64 17.62-8.8 33.3-17.73 44.13-25.62a176.86 176.86 0 0 0 115.58-80.3Z" fill="url(#D)"/><path d="M634.6 107.68c34.36-9.78 72.1-9.01 106.11 3.47 49.95 18.25 92.48 58.7 116.72 111.07 6.79 14.73 11.87 30.12 16.66 45.08 5.26 16.02 10.66 32.52 18.2 48.07 15.8 32.44 44.59 56.71 76.95 65.2 3.73 1 7.77 1.9 11.61 2.7 14.73 3.37 29.82 6.8 41.88 15.9 15.32 11.45 24.71 32.31 25.2 55.7.58 23.72-3.07 45.9-9.97 60.9-21.59 46.7-73.59 65.27-125 80.43-8.44 2.4-18.06 6.68-29.1 11.37a525.42 525.42 0 0 1-17.36 7.34c-18.66 7.55-39.71 16.98-52.59 30.95-8.91 9.75-13.35 21.32-18.04 33.82a192.3 192.3 0 0 1-3.19 8.13c-7.78 19.73-21.56 37.74-39.46 51.6-17.74 13.8-38.52 22.99-59.93 26.33-22.37 3.62-45.5 2.13-68.93-4.6a183.92 183.92 0 0 1-62.5-32.03c-34.07-26.55-62.03-64.8-83.43-113.85-5.95-13.6-11.35-27.69-16.66-41.47-17.39-45.2-35.39-91.96-71.48-123.78-11.3-10.01-24.54-18.44-37.22-26.68-16.86-10.83-34.38-22.17-47.6-37.13-14.97-16.87-22.75-39.9-21.92-64.7.88-23.45 9.37-47.34 23.52-65.28 13.6-17.44 32.06-31.11 54.85-40.52 20.6-8.61 44.37-13.32 68.33-13.78 5.66-.06 11.52-.02 17.43.2 20.25.41 41.23.97 59.92-8.3 17.19-8.5 31.95-22.5 46.37-35.88 8.4-7.89 17.1-16.03 26.1-23.06 16.21-12.52 34.79-21.58 54.52-27.2Zm73.15 654.46c38.19-10.87 70.44-38.94 84.53-74.56 1.11-2.72 2.07-5.4 3.18-8.12 4.7-12.5 9.08-24.23 18.16-34.03 12.99-14.18 34.08-23.45 52.86-31.2a481.27 481.27 0 0 0 17.35-7.34c11-4.85 20.66-8.97 29.1-11.37 51.26-15.11 103.25-33.69 124.74-80.17 6.78-14.82 10.43-36.99 9.9-60.54-.6-23.2-9.91-43.73-25.07-55.22-12.01-8.95-27.1-12.39-41.67-15.8-3.89-.95-7.89-1.7-11.62-2.7a113.1 113.1 0 0 1-47.5-26 128.52 128.52 0 0 1-29.7-39.47c-7.53-15.55-12.93-32.05-18.2-48.07-4.78-14.96-9.86-30.35-16.65-45.08-24.2-52.2-66.68-92.5-116.47-110.8-53.24-19.55-116.14-10.23-160 23.55-9.01 7.03-17.7 15.17-26.11 23.07-14.37 13.53-29.13 27.53-46.48 36.07-18.85 9.32-39.83 8.76-60.24 8.39-5.7-.1-11.61-.3-17.27-.24-51.9.86-96.66 20.64-122.86 54.21-26.86 34.27-34.76 92.18-1.62 129.3 13.17 14.8 30.7 26.14 47.55 36.97 12.68 8.24 25.92 16.67 37.26 26.84 36.3 31.93 54.35 78.84 71.73 124.06 5.31 13.77 10.76 28.03 16.66 41.46 21.2 48.94 49.32 87.15 83.24 113.74 38.33 29.97 87.28 43.53 130.86 36.45 4.75-.84 9.57-2.04 14.34-3.4Z" fill="url(#E)"/><path d="M646.23 107.46c34.53-9.83 73.03-8.76 107.96 4.49 50.9 19.18 94.18 61.66 118.63 116.54 7.1 15.85 12.39 32.55 17.54 48.78 5.28 16.7 10.7 33.88 18.06 50 9.7 21.3 32.34 59 74.8 72.16a276.1 276.1 0 0 0 13.26 3.61c12.27 3.21 25.02 6.28 35.15 14.05 14.13 10.92 22.37 30.74 21.22 52.02-.89 19.15-6.95 38.91-16.28 54.45-13.26 21.64-32.71 39.72-58.06 53.98-21.8 12.22-47.49 21.07-76.22 26.5-18.28 3.49-33.74 7.2-48.72 11.98-22.41 7.07-38.44 16.61-47.66 28.34-7.2 9.1-10.35 19.78-13.79 31.24-1.16 3.76-2.27 7.69-3.75 11.54-14.25 40.48-54.39 71.66-99.85 77.56-21.91 2.8-44.6.5-67.16-6.83a187.02 187.02 0 0 1-59.88-33.12c-31.73-26.18-58.35-63.95-78.92-111.87-5.65-13.16-10.85-27.14-16.06-40.6-17.41-45.9-35.43-93.33-72.53-125.03-10.9-9.27-23.29-17.08-35.26-24.67-17.18-10.74-34.86-22.03-48-37.35-15-17.55-22.49-41.36-21.2-66.98 1.24-24.57 10.26-48.44 25.43-67.02 14.5-17.87 33.97-31.66 57.6-41.13 21.64-8.56 46.19-12.97 71.05-12.66 6.03 0 12.14.32 18.25.64 20.6 1.01 41.92 2.16 60.99-6.36 17.37-7.87 31.65-21.72 45.34-35.24 7.28-7.05 14.67-14.31 22.5-20.66a158.52 158.52 0 0 1 55.56-28.36Zm281.9 490.08c49.33-14.04 87.24-39.77 108.08-74.05 9.37-15.38 15.22-35.25 16.17-54.24 1.03-21.08-7.05-40.94-21.09-51.55-10.13-7.77-22.72-10.88-35-14.09-4.45-1.14-8.9-2.27-13.24-3.62-16.8-5.18-32.3-14.85-45.92-28.84-11.68-11.96-21.65-27-29.3-43.54-7.4-16.27-12.82-33.46-18.1-50.16-5.16-16.23-10.45-32.93-17.5-48.62-24.4-54.72-67.48-97.09-118.38-116.27C698.5 91.72 634.62 101.15 591 136.41c-7.82 6.35-15.21 13.6-22.49 20.66-13.85 13.56-28.13 27.42-45.5 35.28-19.23 8.57-40.5 7.58-61.14 6.41a346.6 346.6 0 0 0-18.1-.69c-52.82-.6-100.79 19.41-128.38 53.55-32.23 39.58-34.08 98.17-4.14 133.1 13.15 15.33 30.82 26.62 47.84 37.41 11.98 7.59 24.36 15.4 35.31 24.82 37.15 31.86 55.17 79.3 72.62 125.35a935.2 935.2 0 0 0 16.02 40.45c20.57 47.91 46.98 85.57 78.72 111.75 37.6 31.05 83.73 45.57 126.67 39.88 45.46-5.9 85.28-36.99 99.41-77.26a360.6 360.6 0 0 0 3.76-11.55c3.49-11.3 6.74-22.19 13.95-31.28 9.33-11.93 25.36-21.48 47.93-28.59 14.98-4.78 30.6-8.54 48.72-11.98 9.09-1.9 17.66-3.82 25.93-6.18Z" fill="url(#F)"/><path d="M657.27 107.58a164.9 164.9 0 0 1 23.37-4.93 177.65 177.65 0 0 1 86.87 10.14c26.52 10.32 50.83 26.77 72.07 48.72 19.99 20.6 36.72 46.06 48.46 73.3 7.26 17 12.96 35.14 18.27 52.52 5.42 17.18 10.87 35.04 18.08 51.88 12.1 28.51 34.63 65.22 72.67 79.13a193.6 193.6 0 0 0 13.95 4.27c10.3 2.91 20.75 5.78 29.32 12.27 13.06 10.2 19.87 29.22 17.29 48.5-2.19 15.23-9.54 31.07-22.76 48.05a209.16 209.16 0 0 1-63.58 54.52c-24.76 13.92-52.33 22.8-79.7 25.78a310 310 0 0 1-18.19 1.4c-10.82.67-21.95 1.44-32.84 3.68-19.46 4.16-34.58 13.27-42.52 25.84-5.73 8.85-8.08 19.3-10.36 29.4-1.1 4.61-2.1 9.53-3.55 14.07-6.2 20.49-19.53 38.88-38.42 52.85-17.88 13.33-39.84 22-61.93 24.16-41.67 4.13-86.48-11.8-122.9-43.53-30-26.16-54.4-62.16-74.4-109.9-5.4-12.88-10.46-26.39-15.43-39.58-17.43-46.57-35.47-94.69-73.41-126.32-10.36-8.56-22.08-15.87-33.35-22.8-17.34-10.7-35.13-21.78-48.26-37.63-14.85-18.27-22.2-42.81-20.57-69.04 1.7-25.4 11.25-49.76 27.22-68.56 29.68-35.25 79.94-55.05 134.38-53.03 6.27.28 12.75.67 19.12 1.26 20.93 1.6 42.43 3.39 61.84-4.54 17.44-7.03 30.88-20.82 43.94-34.15 6.14-6.22 12.5-12.84 19.3-18.56 15.99-13.3 35.02-23.19 56.02-29.17ZM925.25 604.9c42.97-12.22 82.46-38.41 109.58-73.61 13.05-16.95 20.45-32.62 22.64-47.85 2.62-19.13-4.14-37.99-17.16-48.03-8.4-6.53-18.86-9.4-29.15-12.31a197.24 197.24 0 0 1-14.11-4.23c-38.25-14.02-60.82-50.89-72.92-79.4-7.22-16.84-12.66-34.7-18.13-52.04-5.47-17.34-11-35.52-18.27-52.52-24.6-57.24-68.42-101.63-120.28-121.74-56.5-21.89-123.23-12.17-165.69 24.14-6.8 5.71-13 12.3-19.3 18.55-13.06 13.34-26.66 27.17-44.1 34.2-19.46 7.77-41.07 6.19-62.05 4.43-6.32-.43-12.68-1.03-18.95-1.3-54.28-2.08-104.39 17.68-133.91 52.88-33.82 40.04-36.74 100.3-6.62 137.08 12.97 15.9 30.76 26.98 48.05 37.52 11.31 7.08 23.15 14.2 33.56 22.91 38.14 31.75 56.18 79.87 73.66 126.6 4.92 13.03 10.03 26.7 15.43 39.58 20 47.74 44.34 83.58 74.2 109.78 36.2 31.61 80.86 47.59 122.53 43.46 46.55-4.49 87.6-36.1 99.91-76.71 1.41-4.7 2.46-9.46 3.56-14.07 2.27-10.1 4.74-20.76 10.47-29.6 8.1-12.62 23.33-21.93 42.83-25.94 10.9-2.24 22.03-3 32.85-3.68 5.93-.31 12.18-.72 18.18-1.4 11-1.24 22.21-3.57 33.2-6.7Z" fill="url(#G)"/></g><defs><linearGradient id="b" x1="781.79" y1="849.97" x2="496.88" y2="-150.99" gradientUnits="userSpaceOnUse"><stop stop-color="#4AFEBF"/><stop offset="1" stop-color="#51EEDA"/></linearGradient><linearGradient id="c" x1="779.75" y1="845.51" x2="502.18" y2="-129.66" gradientUnits="userSpaceOnUse"><stop stop-color="#4AFEBF"/><stop offset="1" stop-color="#51EEDA"/></linearGradient><linearGradient id="d" x1="778.51" y1="842.06" x2="507.96" y2="-108.45" gradientUnits="userSpaceOnUse"><stop stop-color="#4AFEBF"/><stop offset="1" stop-color="#51EEDA"/></linearGradient><linearGradient id="e" x1="776.09" y1="837.71" x2="512.88" y2="-87.01" gradientUnits="userSpaceOnUse"><stop stop-color="#4AFEBF"/><stop offset="1" stop-color="#51EEDA"/></linearGradient><linearGradient id="f" x1="773.82" y1="833.73" x2="517.8" y2="-65.73" gradientUnits="userSpaceOnUse"><stop stop-color="#4AFEBF"/><stop offset="1" stop-color="#51EEDA"/></linearGradient><linearGradient id="g" x1="771.34" y1="829.92" x2="522.52" y2="-44.23" gradientUnits="userSpaceOnUse"><stop stop-color="#4AFEBF"/><stop offset="1" stop-color="#51EEDA"/></linearGradient><linearGradient id="h" x1="768.14" y1="826.26" x2="526.5" y2="-22.68" gradientUnits="userSpaceOnUse"><stop stop-color="#4AFEBF"/><stop offset="1" stop-color="#51EEDA"/></linearGradient><linearGradient id="i" x1="765.39" y1="822.73" x2="530.9" y2="-1.09" gradientUnits="userSpaceOnUse"><stop stop-color="#4AFEBF"/><stop offset="1" stop-color="#51EEDA"/></linearGradient><linearGradient id="j" x1="762.29" y1="819.02" x2="534.9" y2="20.1" gradientUnits="userSpaceOnUse"><stop stop-color="#4AFEBF"/><stop offset="1" stop-color="#51EEDA"/></linearGradient><linearGradient id="k" x1="759.28" y1="815.75" x2="538.89" y2="41.47" gradientUnits="userSpaceOnUse"><stop stop-color="#4AFEBF"/><stop offset="1" stop-color="#51EEDA"/></linearGradient><linearGradient id="l" x1="757.61" y1="811.71" x2="544.29" y2="62.27" gradientUnits="userSpaceOnUse"><stop stop-color="#4AFEBF"/><stop offset="1" stop-color="#51EEDA"/></linearGradient><linearGradient id="m" x1="754.53" y1="808.24" x2="544.17" y2="69.17" gradientUnits="userSpaceOnUse"><stop stop-color="#4AFEBF"/><stop offset="1" stop-color="#51EEDA"/></linearGradient><linearGradient id="n" x1="750.45" y1="805.68" x2="542.06" y2="73.55" gradientUnits="userSpaceOnUse"><stop stop-color="#4AFEBF"/><stop offset="1" stop-color="#51EEDA"/></linearGradient><linearGradient id="o" x1="746.44" y1="802.13" x2="540.28" y2="77.84" gradientUnits="userSpaceOnUse"><stop stop-color="#4AFEBF"/><stop offset="1" stop-color="#51EEDA"/></linearGradient><linearGradient id="p" x1="745.31" y1="798.39" x2="541.17" y2="81.19" gradientUnits="userSpaceOnUse"><stop stop-color="#4AFEBF"/><stop offset="1" stop-color="#51EEDA"/></linearGradient><linearGradient id="q" x1="745.72" y1="794.33" x2="543.61" y2="84.28" gradientUnits="userSpaceOnUse"><stop stop-color="#4AFEBF"/><stop offset="1" stop-color="#51EEDA"/></linearGradient><linearGradient id="r" x1="746.49" y1="790.42" x2="546.31" y2="87.12" gradientUnits="userSpaceOnUse"><stop stop-color="#4AFEBF"/><stop offset="1" stop-color="#51EEDA"/></linearGradient><linearGradient id="s" x1="746.72" y1="786.6" x2="548.52" y2="90.27" gradientUnits="userSpaceOnUse"><stop stop-color="#4AFEBF"/><stop offset="1" stop-color="#51EEDA"/></linearGradient><linearGradient id="t" x1="747.02" y1="782.68" x2="550.78" y2="93.23" gradientUnits="userSpaceOnUse"><stop stop-color="#4AFEBF"/><stop offset="1" stop-color="#51EEDA"/></linearGradient><linearGradient id="u" x1="747.81" y1="779.43" x2="553.31" y2="96.12" gradientUnits="userSpaceOnUse"><stop stop-color="#4AFEBF"/><stop offset="1" stop-color="#51EEDA"/></linearGradient><linearGradient id="v" x1="748.45" y1="776" x2="555.76" y2="99.03" gradientUnits="userSpaceOnUse"><stop stop-color="#4AFEBF"/><stop offset="1" stop-color="#51EEDA"/></linearGradient><linearGradient id="w" x1="748.8" y1="772.14" x2="558.05" y2="101.98" gradientUnits="userSpaceOnUse"><stop stop-color="#4AFEBF"/><stop offset="1" stop-color="#51EEDA"/></linearGradient><linearGradient id="x" x1="748.98" y1="768.98" x2="560" y2="105.04" gradientUnits="userSpaceOnUse"><stop stop-color="#4AFEBF"/><stop offset="1" stop-color="#51EEDA"/></linearGradient><linearGradient id="y" x1="749.65" y1="765.85" x2="562.35" y2="107.8" gradientUnits="userSpaceOnUse"><stop stop-color="#4AFEBF"/><stop offset="1" stop-color="#51EEDA"/></linearGradient><linearGradient id="z" x1="752.22" y1="762.29" x2="566.56" y2="110.04" gradientUnits="userSpaceOnUse"><stop stop-color="#4AFEBF"/><stop offset="1" stop-color="#51EEDA"/></linearGradient><linearGradient id="A" x1="755" y1="759" x2="570.95" y2="112.4" gradientUnits="userSpaceOnUse"><stop stop-color="#4AFEBF"/><stop offset="1" stop-color="#51EEDA"/></linearGradient><linearGradient id="B" x1="757.68" y1="755.88" x2="575.16" y2="114.63" gradientUnits="userSpaceOnUse"><stop stop-color="#4AFEBF"/><stop offset="1" stop-color="#51EEDA"/></linearGradient><linearGradient id="C" x1="760.71" y1="752.59" x2="579.69" y2="116.61" gradientUnits="userSpaceOnUse"><stop stop-color="#4AFEBF"/><stop offset="1" stop-color="#51EEDA"/></linearGradient><linearGradient id="D" x1="763.42" y1="748.99" x2="584.05" y2="118.8" gradientUnits="userSpaceOnUse"><stop stop-color="#4AFEBF"/><stop offset="1" stop-color="#51EEDA"/></linearGradient><linearGradient id="E" x1="766.78" y1="745.77" x2="588.87" y2="120.7" gradientUnits="userSpaceOnUse"><stop stop-color="#4AFEBF"/><stop offset="1" stop-color="#51EEDA"/></linearGradient><linearGradient id="F" x1="769.96" y1="742.93" x2="593.37" y2="122.51" gradientUnits="userSpaceOnUse"><stop stop-color="#4AFEBF"/><stop offset="1" stop-color="#51EEDA"/></linearGradient><linearGradient id="G" x1="773.19" y1="739.73" x2="598.05" y2="124.44" gradientUnits="userSpaceOnUse"><stop stop-color="#4AFEBF"/><stop offset="1" stop-color="#51EEDA"/></linearGradient><clipPath id="a"><path fill="#fff" d="M0 0h400v885H0z"/></clipPath></defs></svg>