<svg width="293" height="774" fill="none" xmlns="http://www.w3.org/2000/svg"><g opacity=".3" clip-path="url(#clip0)"><path d="M66.43 138.9c1.4-.54 2.8-1.07 4.34-1.55 35.15-11.1 82.99-2.22 127.93 23.73 5.23 3.03 10.44 6.28 15.48 9.38 16.86 10.47 34.27 21.26 52.58 24.64 16.34 2.95 31.5-.5 46.17-3.86 7-1.6 14.2-3.2 21.53-4.18 23.36-3.05 49.78 1.08 76.4 11.88a212.4 212.4 0 0169.64 46.26c37.57 37.44 61.34 88.09 65.19 138.98 1.17 15.08.6 30.07.06 44.63-.51 14.33-1.07 29.1 0 43.9 1.81 24.9 9.79 60.28 37.29 86.8a205.8 205.8 0 0010.37 9.2c7.76 6.56 15.75 13.46 21 21.84 8.18 13.25 8.3 29.8.39 42.14-6.31 9.8-17.22 17.4-33.26 23.33-41.46 15.34-95 11.96-143.24-8.88a460.02 460.02 0 01-15.6-7.2c-9.19-4.4-18.72-8.89-28.33-12.17-17.1-5.77-32.18-6.31-42.38-1.34-7.13 3.48-11.87 9.26-16.89 15.46-2.25 2.79-4.6 5.62-7.14 8.2-22.42 22.82-66.26 26.32-106.74 8.41-36.1-15.95-68.93-47.18-90.04-85.56-17.47-31.65-27.37-67.59-30.2-109.66A688.45 688.45 0 0199.64 429c-1.02-39.87-2.04-81.13-24.47-119.87-6.07-10.53-13.77-20.86-21.2-30.76-11.36-15.14-23.07-30.9-29.32-47.78-7.03-18.93-6.23-38.94 2.25-56.22 7.97-16.1 22.26-28.86 39.53-35.47zm515.8 514.72c14.94-5.72 25.04-12.9 30.88-22 7.49-11.75 7.37-27.44-.34-40.02-5.04-8.13-12.87-14.88-20.5-21.38-3.51-3.05-7.16-6.14-10.53-9.35-28-26.98-36.15-62.83-37.93-88.17-1.13-14.99-.58-29.76.03-44.13.57-14.46 1.09-29.32-.08-44.4-3.91-50.22-27.42-100.44-64.75-137.55-40.64-40.44-98.63-63.53-144.33-57.6-7.24.95-14.42 2.62-21.31 4.2-14.89 3.33-30.25 6.86-47.03 3.86-18.63-3.36-36.3-14.27-53.32-24.89-5.04-3.1-10.25-6.35-15.48-9.38-44.39-25.63-91.56-34.45-126.25-23.52-18.73 5.88-34.27 19-42.54 35.99-8.26 16.75-9 36.1-2.14 54.56 6.18 16.7 17.82 32.27 29.05 47.35 7.46 9.99 15.17 20.32 21.27 30.94 22.7 39.17 23.73 80.75 24.73 120.84.24 11.26.59 22.8 1.31 34.2 2.85 41.84 12.6 77.4 29.87 108.8 20.98 38.02 53.35 68.89 89.09 84.76 39.7 17.57 82.67 14.29 104.55-8 2.45-2.55 4.8-5.37 6.99-8.03 4.95-6.08 10.06-12.32 17.53-16.03 10.66-5.15 26.22-4.79 43.83 1.21 9.7 3.25 19.27 7.83 28.55 12.2 5.1 2.44 10.34 4.93 15.56 7.1 47.76 20.7 100.73 23.98 141.76 8.92.6-.12 1.06-.3 1.53-.48z" fill="url(#paint0_linear)"/><path d="M74.86 143.28c1.58-.61 3.11-1.09 4.74-1.6 34.2-10.53 80.8-1.8 124.6 23.4 5.06 2.88 10.1 5.98 15.02 9.03 16.52 10.16 33.7 20.61 51.62 23.81 16.27 2.77 31.4-.23 46.02-3.15 7.06-1.42 14.4-2.95 21.7-3.7 23.03-2.5 48.8 1.87 74.57 12.67a209.1 209.1 0 0167.58 45.66c36.74 37.23 59.5 86.87 62.58 136.34.9 14.65.1 29.08-.7 43.2-.82 14.66-1.67 29.77-.53 45.07 2.47 33.86 15.3 64.28 36.24 85.71 2.82 2.88 5.79 5.6 8.66 8.36 7.73 7.32 15.09 14.24 19.7 22.65 7.02 12.73 6.22 27.71-2.02 39.21-6.5 9.02-17.06 15.85-33.15 21.37-41.97 14.56-92.95 11.16-140.02-9.15-7.03-2.98-14.06-6.5-20.79-9.82-7.92-3.93-16.1-7.97-24.07-11.13-11.98-4.73-28.74-9.34-40.68-3.91-6.68 2.98-10.97 8.26-15.53 13.97a75.7 75.7 0 01-6.63 7.57c-21.4 21.58-63.86 24.23-103.1 6.49-35.23-15.96-67.11-46.38-87.45-83.56-16.87-30.92-26.28-65.86-28.74-106.68-.73-10.86-.9-21.93-1.14-32.65-.87-38.64-1.74-78.67-22.87-116.52-5.6-10.17-12.65-19.9-19.49-29.38-10.32-14.36-20.94-29.24-26.57-45.08-6.6-18.35-5.6-37.58 2.63-54.11 7.6-15.66 21.29-27.75 37.82-34.07zm264.01 49.7c-7.3.76-14.56 2.25-21.62 3.67-14.8 2.99-30.12 6.07-46.73 3.22-18.34-3.15-35.58-13.8-52.33-23.98a361.04 361.04 0 00-14.99-8.93c-43.34-24.85-89.3-33.6-123.04-23.25-18.2 5.58-33.23 18.07-41.44 34.39-8 16.02-9 34.7-2.57 52.6 5.56 15.64 16.11 30.34 26.4 44.6 6.87 9.58 13.85 19.43 19.59 29.66 21.3 38.31 22.24 78.54 23.13 117.5.25 10.71.51 21.75 1.11 32.55 2.38 40.63 11.78 75.26 28.45 105.93 20.1 36.85 51.65 66.96 86.5 82.74 38.5 17.5 80.04 14.98 100.9-6.07a72.99 72.99 0 006.44-7.5c4.5-5.58 9.16-11.32 16.3-14.48 12.5-5.65 29.84-.93 42.17 3.88 8.09 3.22 16.27 7.26 24.2 11.19 6.73 3.31 13.75 6.83 20.65 9.76 45.95 19.89 97.79 23.28 138.73 9.1 15.68-5.46 25.94-11.95 32.23-20.68 7.85-10.82 8.59-25.13 1.95-37.15-4.54-8.23-11.74-15-19.34-22.26-2.87-2.76-5.84-5.48-8.7-8.45-21.27-21.73-34.36-52.59-36.78-86.9-1.1-15.42-.27-30.62.54-45.28.75-14 1.54-28.43.68-42.98-3-48.97-25.52-98.27-61.89-135.1-38.86-39.42-95.3-62.68-140.54-57.78z" fill="url(#paint1_linear)"/><path d="M83.1 147.73c1.77-.68 3.48-1.23 5.3-1.82 33.23-9.94 78.63-1.3 121.35 23.04 4.9 2.73 9.81 5.77 14.52 8.58 16.3 9.82 33.04 20 50.68 23 16.1 2.62 31.18.06 45.72-2.51a284.59 284.59 0 0122.11-3.22c45.86-3.85 100.08 19.2 138.2 58.67 35.91 37.01 57.67 85.75 59.94 133.92.63 14.22-.4 28.32-1.42 41.88-1.15 14.9-2.22 30.3-1.11 46.04 2.34 32.4 14.8 62.44 35.17 84.62a335.6 335.6 0 005.98 6.38c7.73 8.18 15.03 15.77 19.28 24.64a33.7 33.7 0 01-4.42 36.28c-6.7 8.24-16.95 14.2-33.15 19.43-41.54 13.44-91.48 9.96-136.93-9.47-8.8-3.7-17.4-8.23-25.72-12.64-6.97-3.66-13.42-7.08-20-10.02-16.83-7.58-30.16-9.97-38.75-6.68l-.28.1c-6.23 2.5-10.13 7.41-14.27 12.53-1.89 2.33-3.84 4.79-6.08 7.04-10.4 10.3-25.67 16.03-44.1 16.56-17.54.6-37.2-3.75-55.3-12.14-34.33-15.87-65.24-45.7-84.76-81.59-16.16-29.9-25.08-63.85-27.31-103.8a799.44 799.44 0 01-.89-30.28c-.73-37.73-1.43-76.75-21.36-114-5.2-9.67-11.56-19.01-17.72-28.11-9.71-14.17-18.81-27.6-23.92-42.35-6.16-17.77-5.1-36.27 3-52.01 7.7-14.84 20.35-26 36.23-32.07zm484.8 494.46c11.76-4.5 19.64-9.66 25.1-16.36a31.97 31.97 0 004.23-34.27c-4.1-8.5-11.3-16.13-18.97-24.11-1.96-2.04-4.08-4.23-6.1-6.45-20.71-22.48-33.41-52.85-35.7-85.7-1.1-15.75.02-31.27 1.13-46.26 1.06-13.47 2-27.53 1.44-41.56-2.19-47.67-23.77-95.95-59.21-132.6-37.77-39.08-91.47-61.89-136.73-58.16-7.38.58-14.8 1.91-21.93 3.14-14.76 2.55-30 5.28-46.35 2.54-17.95-2.98-34.96-13.28-51.38-23.16-4.75-2.9-9.63-5.85-14.53-8.58-42.3-24.06-87.15-32.7-119.89-22.84-17.87 5.34-32.17 16.92-40.25 32.75-7.84 15.31-8.89 33.28-2.9 50.58 5.03 14.56 14.06 27.8 23.64 41.92 6.16 9.1 12.65 18.5 17.8 28.3 20.07 37.62 20.84 76.83 21.55 114.78.15 9.9.35 20.22.89 30.29 2.12 39.66 10.94 73.34 27.02 103.05 19.29 35.55 49.96 65.04 83.91 80.74 17.84 8.27 37.14 12.55 54.37 11.95 17.98-.56 32.78-6.12 42.88-16.09 2.1-2.09 4.04-4.55 5.93-6.88 4.15-5.12 8.35-10.36 15.04-13.03 9.17-3.73 22.79-1.44 40.42 6.58a422.83 422.83 0 0120.13 10.07c8.3 4.32 16.88 8.85 25.6 12.58 45.02 19.17 94.42 22.64 135.6 9.35 2.64-.91 5.01-1.71 7.25-2.57z" fill="url(#paint2_linear)"/><path d="M91.51 152.1a63.85 63.85 0 015.8-1.9c32.1-9.28 76.25-.8 118.02 22.72 4.52 2.55 9.23 5.35 13.65 7.94 16.09 9.58 32.76 19.58 50.2 22.33 15.84 2.5 30.84.3 45.34-1.83 7.39-1.11 15.1-2.24 22.64-2.67 45.2-2.74 97.88 20.46 134.36 58.97 34.72 36.71 55.5 84.55 56.91 131.33.45 13.75-.82 27.51-2.07 40.73-1.36 15.2-2.86 30.86-1.78 46.83 2.21 30.96 14.3 60.6 34.08 83.44l1.57 1.86c8.96 10.27 16.66 19.2 20.68 29.13 4.58 11.41 2.06 23.84-6.87 33.25-8.74 9.34-21.6 14.05-33.04 17.47-41.34 12.29-90.1 8.8-133.81-9.7-10.74-4.57-21.19-10.32-31.15-15.92-5.42-2.96-10.48-5.84-15.53-8.4-17.07-8.79-29.61-11.9-37.34-9.16-5.77 1.99-9.22 6.41-12.9 11.04-1.75 2.16-3.54 4.46-5.49 6.38-19.82 19.26-58.3 20.28-95.7 2.58-33.49-15.87-63.44-44.88-82.18-79.58-15.61-29.04-24.05-62-25.8-100.95-.46-9.35-.6-18.93-.68-28.1-.57-36.73-1.16-74.63-19.76-111.2-4.7-9.22-10.39-18.18-15.92-26.77-8.53-13.33-16.68-25.95-21.27-39.61-5.72-17.2-4.48-34.91 3.44-50.04 7.43-13.87 19.47-24.37 34.6-30.16zm469.7 484.4c8.04-3.07 15.87-7.25 21.73-13.46 8.35-8.97 10.84-20.63 6.41-31.36-3.86-9.55-11.53-18.4-20.37-28.6l-1.57-1.87c-20.1-23.14-32.37-53.25-34.6-84.52-1.06-16.19.4-31.95 1.77-47.14 1.25-13.22 2.46-26.86 2.05-40.51-1.46-46.34-22.06-93.7-56.45-130.12-36.1-38.11-88.27-61.08-132.94-58.33-7.54.42-15.12 1.61-22.42 2.69-14.59 2.16-29.78 4.44-45.88 1.82-17.78-2.83-34.59-12.88-50.84-22.61a586.5 586.5 0 00-13.55-7.99c-41.38-23.35-85.05-31.69-116.68-22.58-17.26 5-31.15 16-39.06 31.12-7.68 14.61-8.89 31.89-3.34 48.6C59.98 245.13 68 257.7 76.5 270.94c5.57 8.68 11.34 17.6 16.09 26.92 18.74 36.94 19.43 75.12 19.98 112.06.08 9.18.31 18.73.7 28.11 1.81 38.6 10.15 71.29 25.6 100.17 18.5 34.36 48.12 63.06 81.35 78.83 36.75 17.4 74.32 16.52 93.6-2.2a62.15 62.15 0 005.33-6.23c3.69-4.62 7.53-9.41 13.76-11.58 8.33-2.87 20.93.12 38.77 9.25 5.05 2.56 10.12 5.44 15.53 8.4 9.97 5.61 20.28 11.3 31.02 15.86 43.32 18.33 91.55 21.82 132.51 9.67 3.4-1.2 6.93-2.33 10.48-3.69z" fill="url(#paint3_linear)"/><path d="M99.93 156.48a72.04 72.04 0 016.18-2.04c31.05-8.67 74-.27 114.81 22.44 4.35 2.4 8.77 5 12.96 7.57 15.8 9.37 32.24 19.03 49.38 21.57 15.58 2.39 30.41.57 44.83-1.2 7.68-.91 15.55-1.89 23.27-2.16 44.46-1.6 95.78 21.69 130.5 59.26 33.63 36.38 53.42 83.3 54.2 128.72.21 13.42-1.2 26.8-2.68 39.69-1.7 15.43-3.44 31.3-2.44 47.62 2.05 29.4 13.77 58.65 33.01 82.34 9.34 11.52 16.22 21.1 19.34 30.93 3.35 10.7-.03 21.75-9.27 30.32-8.8 8.07-21.02 12.22-32.94 15.5-41.2 11.27-88.83 7.66-130.6-9.98-12.99-5.41-25.12-12.76-36.88-19.71-3.74-2.21-7.22-4.3-10.66-6.31-17.44-10.03-28.84-13.8-35.69-11.82-5.31 1.5-8.3 5.42-11.63 9.6-1.5 1.96-3.19 4-4.98 5.75-18.83 17.92-55.8 18.14-91.95.61-32.64-15.88-61.63-44.08-79.5-77.6-14.97-28.22-22.97-60.28-24.33-97.98-.28-8.57-.41-17.3-.53-25.71-.43-35.81-.88-72.8-18.16-108.7-4.21-8.77-9.27-17.22-14.09-25.33-7.48-12.56-14.58-24.4-18.65-36.98-5.28-16.6-3.88-33.63 3.91-47.97 6.77-13.08 18.3-22.96 32.6-28.43zm251.57 47.94c-7.72.28-15.18 1.2-23.18 2.13-14.42 1.77-29.47 3.57-45.27 1.16-17.5-2.62-34.1-12.43-50.02-21.86a524.94 524.94 0 00-12.93-7.48c-40.43-22.53-82.8-30.84-113.44-22.21-16.73 4.69-30.1 15.06-37.9 29.39-7.52 13.9-8.88 30.49-3.77 46.63 3.9 12.43 10.96 24.18 18.41 36.64 4.95 8.17 10 16.62 14.25 25.49 17.46 36.36 17.98 73.53 18.35 109.47.12 8.42.21 17.05.5 25.62 1.38 37.48 9.27 69.26 24.13 97.2 17.73 33.15 46.43 61.14 78.77 76.81 35.51 17.25 71.66 17.12 89.95-.27a45.63 45.63 0 004.82-5.6c3.33-4.16 6.72-8.46 12.5-10.13 7.44-2.1 19.16 1.66 37.02 11.95 3.44 2 6.92 4.1 10.66 6.3 11.76 6.96 23.85 14.22 36.75 19.67 41.47 17.42 88.7 21.08 129.49 9.86 11.13-3.08 23.67-7.24 32.13-15.08 8.7-8.05 11.88-18.47 8.69-28.5-3.02-9.55-9.76-19.06-19-30.3-19.53-23.9-31.4-53.52-33.4-83.37-1.08-16.51.72-32.51 2.42-47.94 1.4-12.85 2.84-26.14 2.67-39.46-.74-45-20.35-91.47-53.65-127.55-34.22-37.12-84.93-60.21-128.95-58.57z" fill="url(#paint4_linear)"/><path d="M108.36 160.86a53.26 53.26 0 016.58-2.09c30.1-8.1 71.7.18 111.57 22.07 4.09 2.3 8.3 4.64 12.34 7.06 15.55 9.04 31.7 18.49 48.68 20.88 15.29 2.18 29.85.78 44-.57 8.35-.84 16.2-1.6 24.2-1.66 43.82-.5 93.47 22.9 126.63 59.46 32.54 36.05 51.24 82.1 51.27 126.1-.03 13.08-1.7 26.03-3.34 38.54-2.07 15.57-4.12 31.78-3.1 48.41 1.75 27.81 13.12 56.66 31.95 81.25 9.17 11.9 14.31 21.72 16.33 30.9 2.12 10-1.98 19.71-11.59 27.35-8.23 6.47-19.05 10.08-32.83 13.53-41.05 10.26-87.46 6.5-127.47-10.2-15.45-6.5-30.17-15.87-43.1-24.2-1.82-1.12-3.58-2.37-5.37-3.4-12.6-8.02-26.47-16-34.03-14.49-4.77.97-7.5 4.48-10.28 8.11a42.99 42.99 0 01-4.46 5.13c-17.98 16.53-53.43 15.96-88.3-1.31-31.75-15.8-59.86-43.37-76.91-75.6-14.4-27.26-21.94-58.42-22.91-95.1-.24-7.62-.33-15.4-.31-22.9-.27-36.52-.65-71.07-16.58-106.52-3.72-8.32-8.02-16.2-12.21-23.8-6.44-11.78-12.59-22.81-16.1-34.53-4.86-16.02-3.3-32.36 4.34-45.99 6.62-12.06 17.55-21.28 31-26.43zm247.26 47.34c-7.91.03-15.76.78-24.02 1.59-14.25 1.38-28.94 2.72-44.45.52-17.23-2.5-33.57-11.88-49.29-21.07-4-2.32-8.16-4.8-12.3-6.96-39.48-21.72-80.64-29.95-110.23-21.94-16.11 4.34-29.07 14.12-36.61 27.72-7.37 13.2-8.89 29.1-4.22 44.65 3.45 11.53 9.47 22.5 15.87 34.19a369 369 0 0112.35 23.86c16.07 35.82 16.46 72.08 16.73 107.2.08 7.47.16 15.25.4 22.87 1.1 36.42 8.49 67.21 22.72 94.31 16.64 31.43 45.15 59.5 76.08 74.85 34.24 16.98 69 17.7 86.4 1.62a31.43 31.43 0 004.2-4.93c2.89-3.67 5.88-7.6 11.34-8.72 8.12-1.72 21.79 6 35.27 14.65 1.73 1.16 3.55 2.29 5.37 3.4 12.9 8.24 27.52 17.64 42.84 24.09 39.86 16.86 85.92 20.54 126.6 10.43 13.5-3.35 24.13-6.88 32.17-13.28 5.27-4.16 13.74-13.08 10.97-25.62-1.9-8.9-6.98-18.52-15.95-30.2-19.03-24.83-30.5-53.95-32.31-82.17-1.09-16.82 1.05-33.06 3.09-48.72 1.63-12.51 3.35-25.38 3.32-38.32-.02-43.68-18.64-89.24-50.97-125.04-32.74-36.3-81.96-59.43-125.37-58.98z" fill="url(#paint5_linear)"/><path d="M116.78 165.24a62.2 62.2 0 017.05-2.27c29.42-7.62 68.86.3 108.32 21.71 3.93 2.14 7.8 4.4 11.62 6.58 15.36 8.8 31.27 17.9 47.99 20.18 14.8 2.04 29.07.97 42.95.05a283.6 283.6 0 0125.4-1.05c43.08.64 91.28 24.17 122.69 59.8 31.57 35.77 49.25 80.82 48.6 123.59-.18 12.7-2.06 25.4-3.9 37.68-2.3 15.76-4.76 32.02-3.73 48.97 1.65 26.13 12.55 54.62 30.86 80.06 7.95 10.98 12.25 21.11 13.32 30.88.97 9.26-3.85 17.64-14.04 24.32-8.12 5.36-18.52 8.38-32.72 11.56-41.5 9.36-85.67 5.6-124.35-10.43-18.44-7.61-35.59-19.68-49.37-29.4-13.46-9.4-26.07-17.75-32.43-17.03-4.32.48-6.6 3.49-9.02 6.67-1.23 1.54-2.42 3.17-3.95 4.5-17.33 15.42-50.5 14.09-84.56-3.28-30.47-15.54-58.23-43.03-74.23-73.63-13.75-26.43-20.8-56.6-21.45-92.12-.16-6.58-.13-13.23-.19-19.52-.24-35.89-.37-69.78-15.02-104.97-3.15-7.68-6.8-14.96-10.23-22-5.43-11.09-10.6-21.53-13.64-32.25-4.32-15.48-2.6-31.13 4.93-44.18 6.26-11.07 16.49-19.6 29.1-24.42zm243.09 46.8c-8.3-.15-16.54.43-25.18 1.06-13.89.93-28.24 2.03-43.27-.03-17.04-2.26-32.98-11.47-48.5-20.41-3.83-2.17-7.7-4.44-11.59-6.49-38.98-21.27-78.07-29.11-107.11-21.63-15.4 3.96-27.95 13.15-35.27 25.92-7.3 12.53-8.97 27.74-4.7 42.8 2.96 10.54 8.04 21.02 13.52 31.98 3.45 7.04 7.09 14.32 10.28 22.1C122.8 322.8 123 356.87 123.19 392.9c0 6.42.06 13.03.19 19.52.66 35.3 7.6 65.19 21.29 91.43 15.85 30.23 43.32 57.51 73.53 72.93 33.42 17.08 65.95 18.44 82.74 3.56 1.37-1.17 2.57-2.8 3.7-4.31 2.49-3.3 5.16-6.69 10.16-7.32 7-.75 19.32 7.38 33.62 17.33 13.75 9.62 30.86 21.6 49.07 29.19 38.34 15.94 82.15 19.63 123.37 10.38 14.01-3.12 24.2-6.16 32.17-11.35 6.67-4.38 14.38-11.93 13.3-22.87-.95-9.48-5.25-19.3-13.03-30.13-18.5-25.68-29.52-54.45-31.18-80.9-1.25-16.97 1.16-33.32 3.54-49.22 1.87-12.17 3.69-24.75 3.86-37.45.7-42.36-16.92-87-48.17-122.48-31.17-35.28-78.81-58.49-121.48-59.18z" fill="url(#paint6_linear)"/><path d="M125.16 169.53a67.9 67.9 0 017.47-2.32c28.37-7.01 66.7.8 105.02 21.47 3.63 1.93 7.33 4.05 10.86 6.01 15.16 8.55 30.83 17.33 47.26 19.4 14.29 1.8 28.19 1.2 41.55.57 9.26-.43 18-.78 26.82-.41 42.34 1.78 89.05 25.34 118.84 60.09 30.48 35.44 47.17 79.6 45.8 121.03-.38 12.45-2.5 24.82-4.57 36.75-2.69 15.92-5.48 32.4-4.47 49.58 1.89 31.5 17.3 60.3 29.8 78.96 7.17 10.64 10.5 20.72 10.21 30.9-.16 8.52-5.52 15.5-16.43 21.38-8.54 4.56-19.39 7-32.6 9.7-41.35 8.33-84.38 4.46-121.13-10.7-18.7-7.74-35.91-19.99-50.29-30.98l-3.01-2.27c-12.16-9.37-22.7-17.33-27.86-17.39-3.77-.06-5.53 2.33-7.65 5.18a24.22 24.22 0 01-3.35 3.85c-16.51 13.92-48.26 11.83-80.91-5.22-29.61-15.54-56.33-42.26-71.64-71.62-13.21-25.57-19.78-54.75-20.02-89.24-.04-5.13-.08-10.25-.07-15.29-.01-35.54-.09-69.03-13.34-104.22-2.65-6.9-5.43-13.34-8.05-19.62-4.58-10.56-8.81-20.5-11.37-30.55-3.83-15.03-1.86-30.02 5.55-42.28 6.28-10.43 15.82-18.26 27.58-22.76zm411.32 444.85a51.11 51.11 0 006.3-2.84c10.3-5.54 15.39-12.1 15.58-19.99.2-9.82-3.01-19.62-9.99-30.01-12.66-18.82-28.18-47.89-30.08-79.71-1.08-17.37 1.77-33.98 4.42-49.99 1.98-11.9 4.1-24.27 4.5-36.63 1.3-41.08-15.24-84.86-45.49-119.96-29.55-34.41-75.75-57.74-117.64-59.48-8.72-.4-17.44.04-26.69.47-13.45.66-27.36 1.27-41.78-.6-16.77-2.14-32.48-11.01-47.77-19.62-3.53-1.97-7.24-4.08-10.87-6.01-38.02-20.46-75.9-28.23-103.86-21.27-14.79 3.62-26.82 12.19-33.92 24.11-7.14 11.84-9.03 26.48-5.39 41.04 2.5 9.86 6.73 19.8 11.3 30.37a363.5 363.5 0 018.09 19.71c13.45 35.43 13.41 69.18 13.45 104.82 0 5.03.04 10.16.07 15.28.27 34.27 6.83 63.14 19.87 88.55 15.08 29.03 41.63 55.6 70.95 70.93 32.13 16.82 63.15 18.97 79.09 5.49 1.22-1 2.2-2.35 3.13-3.56 2.12-2.85 4.4-5.86 8.93-5.77 5.7.06 15.94 7.81 28.85 17.75l3.01 2.28c14.35 10.9 31.47 23.18 49.91 30.8 36.5 15.04 79.17 18.84 120.24 10.6 9.97-2.2 18.6-4 25.79-6.76z" fill="url(#paint7_linear)"/><path d="M133.5 173.94c2.51-.96 5.2-1.78 8.05-2.44 27.32-6.4 64.4 1.26 101.77 21.11 3.38 1.81 6.78 3.72 10.16 5.54 14.95 8.3 30.3 16.78 46.55 18.69 13.6 1.65 26.84 1.3 39.71 1.07 10-.18 19.42-.47 28.78.23 41.47 2.87 86.6 26.5 114.86 60.33 29.27 35.05 45.06 78.26 43.03 118.55-.58 12.21-2.93 24.25-5.07 35.99-3.07 16.06-6.14 32.65-5.15 50.05 1.38 23.46 11.07 49.62 28.7 77.78 6.6 10.53 8.94 20.56 7.21 30.86-1.65 9.95-10.96 15-18.79 18.33-8.2 3.46-18.13 5.22-30.7 7.36l-1.82.27c-29.22 5.08-73.43 7.33-118-10.94-15.77-6.5-32.48-17.12-51.17-32.67-3.28-2.7-6.34-5.38-9.33-7.88-9.08-7.77-16.25-13.91-19.98-14.41-3.18-.5-4.59 1.43-6.25 3.78a13.85 13.85 0 01-2.84 3.23c-15.97 12.54-45.5 9.81-77.2-7.28-28.86-15.51-54.65-41.5-68.96-69.65-12.63-24.61-18.62-52.84-18.6-86.36-.01-3.1-.02-6.2.06-9.34.15-35.71.37-69.53-11.74-105.37-1.81-5.3-3.52-10.32-5.25-15.12-4.01-11.31-7.54-21.1-9.72-30.97-6.03-27.24 6.84-51.23 31.68-60.74zm234.78 45.8c-9.33-.61-18.7-.45-28.7-.27-12.83.31-26.2.61-39.92-1.1-16.48-1.93-32.09-10.52-47.17-18.88-3.28-1.85-6.78-3.72-10.15-5.54-36.98-19.68-73.75-27.34-100.66-21-29.17 6.88-44.96 32.2-38.45 61.51 2.17 9.88 5.67 19.57 9.64 30.79 1.73 4.8 3.53 9.78 5.25 15.12 12.1 36.06 12 69.93 11.83 105.87.01 3.1.02 6.2-.06 9.34-.13 33.24 5.97 61.2 18.4 85.57 14.17 27.77 39.77 53.52 68.36 68.92 31.06 16.8 60.05 19.52 75.53 7.38.98-.8 1.76-1.85 2.53-2.9 1.67-2.34 3.65-5.03 7.76-4.35 4.11.67 11.08 6.57 20.74 14.76 3 2.5 6.02 5.08 9.34 7.88 18.53 15.4 35.23 26.02 50.74 32.4 44.22 18.2 88.12 15.95 117.11 10.85l1.83-.27c12.44-2.19 22.27-3.92 30.29-7.3 11.15-4.7 16.62-10.01 17.82-17.22 1.12-6.31 1.47-16.3-7.04-29.85-17.83-28.4-27.6-54.76-28.98-78.53-1.1-17.68 2.16-34.35 5.19-50.5 2.18-11.64 4.44-23.64 5.04-35.76 2-39.85-13.66-82.68-42.68-117.4-27.74-33.28-72.38-56.78-113.6-59.53z" fill="url(#paint8_linear)"/><path d="M141.88 178.23a53.06 53.06 0 018.47-2.5c26.23-5.86 62.11 1.71 98.53 20.75 3.07 1.6 6.32 3.37 9.3 5 14.72 7.97 30 16.26 46 18.06 12.62 1.38 25.15 1.4 37.19 1.5 10.92 0 21.2.02 31.31.97 41.36 3.98 83.97 27.18 111.1 60.59 28.09 34.75 42.76 77 40.23 115.98-.78 11.97-3.24 23.73-5.67 35.26-3.35 16.16-6.83 32.8-5.83 50.52 1.25 22 10.3 47.03 27.64 76.68 6.23 10.68 7.62 20.75 4.15 30.97-2.75 8.22-10.88 14.12-21.1 15.36-5.51 2.96-12.64 3.65-20.8 4.42-3.72.36-7.53.75-11.59 1.34-29.19 4.32-72.89 5.95-114.92-11.26-16.76-6.87-34.36-18.44-52.03-34.38a921.2 921.2 0 01-14.38-13.23c-6.3-5.83-10.86-10.2-13.3-11.83-2.67-.26-3.7.99-4.93 2.53-.66.79-1.28 1.67-2.3 2.38-15.4 10.93-43.55 7.36-73.46-9.25-28-15.51-52.78-40.83-66.37-67.64-12-23.79-17.58-50.98-17.14-83.38.1-7.86.54-15.95.9-23.69 1.56-30.04 3-58.44-10.83-85.9l-.04-.1-.03-.1c-1.06-10.3-3.7-18.6-6.3-26.5-1.72-5.33-3.3-10.3-4.28-15.38-4.7-26.26 7.41-48.34 30.48-57.17zm230.61 45.24c-10.1-.95-20.3-1-31.22-1-12.09.02-24.62 0-37.38-1.43-16.32-1.79-31.62-10.17-46.47-18.19-3.08-1.6-6.23-3.4-9.3-5-36.03-18.87-71.56-26.37-97.42-20.64-27.75 6.12-42.8 29.44-37.7 57.9.95 4.99 2.53 9.95 4.22 15.2 2.48 7.61 5.27 16.29 6.27 26.72 13.94 27.75 12.3 57.6 10.85 86.54-.36 7.74-.83 15.74-.93 23.59-.42 32.18 5.1 59.19 16.99 82.7 13.38 26.56 37.97 51.63 65.8 67 29.4 16.37 56.96 19.85 71.88 9.32.77-.51 1.34-1.26 2-2.05 1.29-1.67 2.82-3.55 6.41-3.1l.23.02.13.06c2.53 1.6 7.22 6.01 13.69 12 4.2 3.96 8.98 8.34 14.38 13.23 17.63 15.84 34.97 27.3 51.6 34.1 41.65 17.04 85.07 15.52 114.13 11.14 4.15-.62 7.96-1.01 11.68-1.37 8.07-.73 15.07-1.48 20.33-4.24l.09-.04.1-.03c9.72-1.16 17.4-6.56 20-14.3 3.25-9.7 1.97-19.5-4.09-29.7-17.5-29.81-26.56-55.15-27.89-77.34-.92-18.07 2.62-34.84 6.02-51.13 2.38-11.4 4.84-23.16 5.65-35.04 2.55-38.66-11.98-80.54-39.92-114.92-26.96-32.94-69.09-56-110.13-60z" fill="url(#paint9_linear)"/><path d="M150.49 182.53a55.47 55.47 0 018.65-2.56c25.19-5.25 59.86 2.25 95.2 20.42l8.45 4.47c15.2 8.1 29.6 15.76 45.4 17.32 11.47 1.17 22.9 1.4 33.93 1.68 12.1.29 23.55.51 34.69 1.92 40.57 5.03 81.64 28.4 107.15 60.92 26.96 34.34 40.64 75.68 37.52 113.38-.98 11.73-3.64 23.24-6.18 34.5-3.75 16.2-7.57 33.09-6.6 51.02 1.47 26.21 14.26 52.9 26.55 75.5 6.02 10.98 6.37 21.12 1.13 30.94-3.97 7.52-12.98 12.25-23.45 12.3-5.16 2.19-11.38 2.43-18.74 2.78-4.3.25-8.72.45-13.54 1-42.53 5.26-80.08 1.43-111.7-11.52-23.46-9.55-43.3-26.69-52.95-35.95-11.37-10.96-19.7-20.4-24.23-25.52-.76-.89-1.46-1.59-1.9-2.17-2.01-.51-2.49.2-3.3 1.16-.51.62-1.08 1.38-2.01 1.73-12.16 10.76-38.88 6.42-69.72-11.21-27.53-15.7-50.74-39.69-63.78-65.64-11.45-22.92-16.6-49.22-15.72-80.5.2-7.58.73-15.16 1.14-22.5 1.84-28.75 3.53-55.95-9.27-82.1l-.07-.2.02-.22c-.14-10.44-2.02-18.71-3.74-25.98-.94-4.14-1.86-7.96-2.32-11.96-3.27-24.76 8.1-44.86 29.39-53zM523.64 601c5.14-1.97 9.2-5.34 11.51-9.65 5-9.3 4.61-19-1.14-29.55-12.36-22.79-25.31-49.63-26.7-76.19-.95-18.16 2.86-35.04 6.67-51.38 2.59-11.16 5.25-22.67 6.16-34.27 3.14-37.39-10.4-78.36-37.25-112.4-25.27-32.2-66.05-55.35-106.18-60.34-11.14-1.4-22.48-1.67-34.55-1.87-11.03-.27-22.47-.5-34.07-1.73-16.06-1.67-31.23-9.68-45.91-17.55l-8.46-4.47c-35.07-18.06-69.4-25.48-94.3-20.34-26.06 5.49-40.51 26.76-36.93 54.3.52 3.87 1.35 7.72 2.35 11.73 1.71 7.27 3.6 15.54 3.77 26.08 12.9 26.43 11.12 55.06 9.35 82.61-.5 7.37-.89 15.01-1.13 22.5-.86 31.05 4.21 57.16 15.56 79.8 12.84 25.72 35.85 49.46 63.12 65.04 30.42 17.37 56.6 21.7 68.23 11.25l.06-.13.09-.03c.65-.25 1.01-.71 1.53-1.34.87-1.08 1.9-2.55 5.05-1.61l.22.02.17.15c.53.55 1.26 1.34 2.06 2.32 4.5 5.02 12.82 14.47 24.2 25.43 9.64 9.26 29.19 26.2 52.52 35.68 31.46 12.8 68.78 16.6 111 11.37 4.91-.6 9.52-.86 13.63-1.04 7.27-.32 13.45-.66 18.33-2.74l.1-.03.13.05c3.93.21 7.54-.42 10.81-1.67z" fill="url(#paint10_linear)"/><path d="M158.31 187.03a56.3 56.3 0 019.66-2.73c24.14-4.64 57.57 2.7 91.99 20.15 2.52 1.28 5.05 2.56 7.6 3.94 15 7.85 29.29 15.24 44.83 16.68 9.98.89 19.9 1.37 29.49 1.77 13.7.54 26.67 1.14 39.2 3.1 39.7 6.1 79.28 29.5 103.27 61.11 25.82 33.91 38.39 74.29 34.7 110.82-1.17 11.48-4.03 22.74-6.68 33.72-4.04 16.32-8.26 33.25-7.3 51.4 1.3 24.67 13.24 50.3 25.47 74.41 5.76 11.4 5.1 21.72-2 30.86-5.2 6.81-15.08 10.38-25.76 9.33-4.78 1.5-10.35 1.5-16.9 1.43-4.63-.05-9.8-.1-15.24.48-43.78 4.23-78.3.52-108.58-11.76-24.85-10.08-44.4-27.87-53.82-37.65-13.63-14.06-22.25-25.96-24.6-30.41-1.45-.73-1.66-.44-1.96-.1-.27.41-.63.87-1.5 1.1-11.24 9.55-35.83 4.61-65.98-13.18-26.68-15.7-48.93-38.88-61.1-63.67-10.81-22.1-15.47-47.4-14.26-77.53.26-7.16.89-14.47 1.44-21.43 2.12-27.47 4.08-53.38-7.67-78.22l-.08-.19.03-.22c.7-7.98-.22-14.27-1.06-19.83-.76-5.06-1.37-9.44-.65-14a37.45 37.45 0 013.74-30.23c5.07-8.58 13.45-15.22 23.72-19.15zM517.8 598.3c4.02-1.54 7.4-3.9 9.67-6.91 6.74-8.69 7.32-18.65 1.81-29.4-12.26-24.2-24.28-50.02-25.6-75-.93-18.38 3.26-35.4 7.35-51.85 2.69-10.88 5.55-22.15 6.66-33.5 3.7-36.21-8.85-76.27-34.44-109.84-23.88-31.34-63.07-54.56-102.43-60.59-12.4-1.9-25.37-2.5-39.07-3.03-9.67-.37-19.6-.85-29.57-1.74-15.86-1.43-30.86-9.29-45.3-16.82-2.53-1.28-5.1-2.66-7.62-3.94-34.06-17.37-67.23-24.59-91.06-19.97-14.24 2.78-26.06 10.52-32.55 21.25a35.57 35.57 0 00-3.6 29.21l.08.19-.06.13c-.7 4.33-.1 8.7.63 13.67.84 5.57 1.66 11.9 1 19.97 11.9 25.2 9.88 51.25 7.76 78.73a499.72 499.72 0 00-1.34 21.39c-1.29 29.94 3.4 55.02 14.13 76.93 12.06 24.5 34.12 47.44 60.53 63.02 29.74 17.53 53.92 22.52 64.59 13.19l.15-.17.22.03c.32-.02.37-.15.67-.48.78-1.04 1.68-1.5 3.95-.33l.16.15.07.19c2.25 4.18 10.81 16.2 24.47 30.36 9.39 9.68 28.68 27.36 53.36 37.29 30.03 12.17 64.32 15.85 107.91 11.7 5.58-.54 10.84-.51 15.46-.46 6.46.1 12.03.1 16.59-1.43l.1-.03.12.05c5.62.42 10.81-.28 15.2-1.96z" fill="url(#paint11_linear)"/><path d="M166.6 191.35a55.17 55.17 0 0110.26-2.85c31.47-5.62 69.03 9.98 88.74 19.78 2.23 1.08 4.4 2.28 6.64 3.35 14.89 7.58 28.97 14.72 44.38 16.1a795.5 795.5 0 0023.4 1.54c16 .94 31.06 1.7 45.36 4.37 38.7 7.13 76.84 30.66 99.43 61.41 24.57 33.43 36.14 72.9 31.94 108.34-1.38 11.24-4.31 22.32-7.26 33.08-4.44 16.37-9.04 33.45-8.1 51.83 1.22 23.62 12.72 48.34 22.85 70.06l1.57 3.25c7.3 15.73.03 26.11-5.1 30.87-6.4 5.97-17.1 8.47-28.09 6.35-4.32 1.02-9.4.6-15.21.26-4.96-.35-10.67-.74-16.83-.3-30 2.16-69.1 2.68-105.45-12-19.1-7.68-39.04-22-54.68-39.35-12.97-14.31-21.34-27.5-22.98-33.18-.59-.42-.92-.72-1.08-.87l-.1.04a.77.77 0 01-.54-.01c-10.28 8.1-32.83 2.6-62.17-15.29-25.82-15.7-47.07-38.2-58.5-61.65-10.38-21.52-14.52-45.2-12.84-74.65.4-6.8.98-13.65 1.64-20.33 2.43-26.1 4.64-50.82-6.2-74.4l-.08-.18.02-.23a79.4 79.4 0 001.42-17.56c-.01-4.5.01-8.36 1.24-12.15a33.92 33.92 0 013.81-27.8c4.97-8 12.9-14.14 22.52-17.83zm218.52 43.57c-14.26-2.57-29.27-3.47-45.27-4.41-7.64-.4-15.55-.9-23.49-1.5-15.69-1.28-29.84-8.6-44.87-16.24-2.13-1.1-4.4-2.27-6.63-3.35-19.45-9.68-56.75-25.17-87.85-19.7-13.82 2.51-25.4 9.73-31.66 19.94a32.8 32.8 0 00-3.6 26.97l.07.19-.02.22c-1.26 3.7-1.26 7.34-1.31 11.96.02 4.81.01 10.38-1.42 17.57 10.96 23.86 8.66 48.62 6.17 74.84-.57 6.64-1.25 13.54-1.64 20.33-1.66 29.22 2.4 52.72 12.7 74.05 11.25 23.21 32.42 45.52 57.99 61.11 28.62 17.42 51.47 23.13 60.93 15.12l.33-.24.3.2.19-.06c.37-.15.76.03 2.37 1.44l.16.16.08.18c1.44 5.45 9.77 18.53 22.74 32.84 15.57 17.17 35.24 31.38 54.22 39 36.1 14.56 74.97 14.02 104.88 11.89 6.25-.47 11.97-.08 17.01.23 5.81.35 10.76.7 15-.28l.09-.03.13.06c10.63 2.03 21-.23 27.05-5.97 5.8-5.54 11.46-15.1 4.73-29.33l-1.57-3.25c-10.2-21.9-21.8-46.6-23.03-70.53-.91-18.6 3.69-35.68 8.15-52.27 2.89-10.63 5.82-21.71 7.23-32.86 4.35-35.07-7.2-74.22-31.58-107.4-22.35-30.42-60.19-53.74-98.58-60.88z" fill="url(#paint12_linear)"/><path d="M174.8 195.71a55.69 55.69 0 0110.99-2.92c29.95-4.82 66.4 10.13 85.4 19.46l5.53 2.7c14.82 7.39 28.7 14.28 44.04 15.48 4.95.35 9.9.7 14.73 1 19.11 1.25 37.24 2.45 54.14 6.04 37.8 8.13 74.39 31.81 95.54 61.62 23.32 32.94 33.9 71.5 29.23 105.74-1.57 10.99-4.7 21.82-7.76 32.3-4.81 16.52-9.77 33.51-8.82 52.21 1.06 21.22 10.42 42.6 19.4 63.25 1.36 3 2.6 5.96 3.83 8.91 7.38 17.31-3.26 27.27-8.14 30.75-7.4 5.3-19.03 6.53-30.4 3.39-4.06.59-8.58-.04-13.77-.73-5.32-.75-11.4-1.52-18.13-1.2-31.27 1.38-67.7 1.61-102.33-12.22-19.97-7.99-40.25-22.93-55.6-40.93-13.82-16.23-20.71-29.76-21.36-35.94-.68-.92-1.02-1.54-1.01-2.07-9.69 5.74-29.91-.65-57.38-17.87-24.97-15.72-45.26-37.4-55.83-59.69-9.83-20.65-13.43-43.47-11.4-71.76.5-6.51 1.13-12.97 1.84-19.23 2.71-24.81 5.2-48.25-4.61-70.51l-.07-.2.11-.25c1.99-6 2.85-10.73 3.67-14.47.89-4.4 1.55-7.98 3.53-11.2a31.06 31.06 0 013.98-25.4c4.4-7.25 11.69-12.83 20.66-16.26zm214.48 43.08c-16.81-3.63-34.8-4.78-53.95-6.12-4.96-.35-9.88-.61-14.74-1-15.52-1.12-29.57-8.17-44.52-15.62l-5.53-2.7c-18.86-9.27-55.06-24.1-84.7-19.3-13.42 2.14-24.74 8.94-30.9 18.58a29.8 29.8 0 00-3.73 24.66l.1.28-.1.26c-1.9 3.19-2.57 6.44-3.48 11.07-.72 3.7-1.59 8.43-3.57 14.44 9.91 22.54 7.33 46.02 4.66 70.92-.7 6.26-1.44 12.75-1.85 19.23-2.1 28.1 1.5 50.6 11.25 71.07 10.46 22.02 30.68 43.5 55.4 59.1 27.96 17.68 48.83 23.82 57.27 17.06l.68-.48.38.71c.41.81.05 1.27-.25 1.6l-.1.03s.02.32.93 1.58l.07.19.07.18c.6 5.77 7.4 19.33 21.06 35.42 15.18 17.85 35.2 32.67 55.05 40.6 34.4 13.8 70.57 13.46 101.76 12.12 6.85-.27 12.93.51 18.35 1.22 5.19.7 9.67 1.23 13.64.67l.09-.03.13.05c10.96 3.2 22.27 1.97 29.42-3.12 4.64-3.28 14.8-12.84 7.74-29.3-1.24-2.96-2.57-5.88-3.84-8.92-9.1-20.72-18.5-42.18-19.54-63.62-.88-18.83 4.09-36.05 8.9-52.56 3.06-10.48 6.23-21.22 7.71-32.18 4.69-33.91-5.85-72.07-29-104.86-21.03-29.75-57.32-53.23-94.86-61.23z" fill="url(#paint13_linear)"/><path d="M182.97 199.97a54.44 54.44 0 0111.61-2.94c21.01-3.01 50.27 3.78 82.16 19.09 1.45.73 2.87 1.36 4.33 2.09 14.71 7.1 28.65 13.87 43.83 14.92l1.74.08c22.86 1.53 46.48 3.09 67.28 8.19 37.38 9.25 71.6 32.34 91.69 61.91 22.06 32.46 31.66 70.12 26.43 103.17-1.74 10.84-5.07 21.43-8.24 31.64-5.22 16.56-10.55 33.7-9.66 52.52.88 19.37 9.02 38.95 16.88 57.79 1.84 4.54 3.7 8.86 5.35 13.15 5.85 15-1.94 25.7-11.25 30.75-8.53 4.56-21 4.72-32.7.43-3.8.16-7.85-.64-12.61-1.6-5.56-1.09-11.94-2.4-19.28-2.26-29.07.42-65.26 1-99.12-12.5-20.58-8.17-41.67-24.09-56.47-42.62-11.96-15.02-19.92-30.5-19.74-38.7-.92-2.11-.42-3.05.3-3.97-10.96 4.94-34.72-7.91-53.17-20.02-23.98-15.66-43.39-36.71-53.24-57.68-9.28-19.78-12.43-41.7-9.85-68.82.55-6.1 1.3-12.28 2.1-18.26 3.03-23.43 5.8-45.58-3.1-66.6l-.1-.27.1-.26c1.77-3.78 3.2-6.79 4.3-9.46 2.55-5.69 3.97-9.23 7.23-12.19a28.84 28.84 0 014.02-23.06c4.16-6.2 10.96-11.37 19.18-14.52zm318.56 392.78c1.03-.4 1.93-.85 2.92-1.34 4.27-2.27 17.68-11.15 10.65-29.24-1.64-4.3-3.51-8.6-5.36-13.15-7.92-19.02-16-38.74-16.95-58.29-.87-19.05 4.51-36.31 9.7-52.97 3.16-10.2 6.5-20.8 8.18-31.5 5.24-32.74-4.34-70.08-26.2-102.3-19.9-29.32-53.86-52.3-90.98-61.43-20.57-5.08-44.2-6.64-67.05-8.17l-1.74-.09c-15.5-1.03-29.43-7.79-44.28-14.96-1.45-.72-2.87-1.36-4.33-2.09-31.75-15.25-60.66-21.96-81.49-19.02-13.08 1.9-24.08 8.14-30.04 17.17-4.54 6.88-5.85 14.66-3.74 22.42l.15.37-.25.2c-3.16 2.93-4.6 6.16-7.16 12.06-1.1 2.46-2.48 5.55-4.19 9.2 8.88 21.24 6.06 43.52 3.07 67.04-.72 5.95-1.5 12.03-2.05 18.13-2.47 26.86.6 48.6 9.83 68.2 9.64 20.72 28.98 41.58 52.8 57.1 27.7 18.09 46.24 24.58 53.72 18.94l.92-.67.02 1.17c.08 1.04-.53 1.7-.98 2.2-.6.65-1.06 1.14-.21 3.07l.03.1-.06.12c-.28 6.54 5.73 20.83 19.5 38.05 14.63 18.38 35.55 34.15 56 42.27 33.64 13.46 69.7 12.83 98.68 12.45 7.43-.17 13.81 1.13 19.5 2.28 4.72.87 8.78 1.67 12.38 1.57l.13.06c10.1 3.74 20.85 4.12 28.88 1.05z" fill="url(#paint14_linear)"/><path d="M191.04 204.27a50.61 50.61 0 0112.34-3c25.47-3.12 57 8.48 78.94 18.81l3.01 1.42c14.74 6.9 28.6 13.47 43.7 14.32 21.78 1.2 47.1 3.29 69.05 9.45 36.34 10.18 69.1 33.4 87.75 62.24 20.7 32.01 29.37 68.63 23.62 100.6-1.94 10.6-5.34 21-8.67 31.06-5.54 16.57-11.28 33.76-10.47 52.94.81 17.78 7.97 35.92 14.82 53.54a509.6 509.6 0 016.26 16.34c5.7 16.02-4.1 26.51-14.3 30.63-9.6 4-22.71 3.03-35.02-2.54-3.49-.17-7.2-1.2-11.5-2.35-5.82-1.51-12.52-3.34-20.25-3.38-2.02.02-3.99-.08-6.01-.06-26.54-.22-59.53-.55-89.98-12.67-21.36-8.52-42.78-25.06-57.33-44.33-12.8-16.94-17.62-32.87-18-41.4-.12-2.85.9-4.1 1.74-5.27.3-.33.5-.63.77-1.05l-.28.1c-7.66 2.94-23.6-4.02-49.76-21.74-13.6-9.25-38.2-28.74-50.56-55.7-8.68-19.06-11.43-39.96-8.43-65.95.67-5.82 1.46-11.58 2.32-17.16 3.2-22.11 6.34-43.01-1.6-62.67l-.12-.28.12-.26c7.28-10.92 10.2-15.04 15.9-17.75-1.67-7.18-.25-14.37 4.1-20.63 4.11-5.75 10.37-10.4 17.84-13.26zM496.2 591.68l.56-.21c9.64-3.9 19.08-13.94 13.57-29.18a508.69 508.69 0 00-6.26-16.34c-6.94-17.58-14.14-35.82-14.93-53.82-.84-19.27 4.95-36.6 10.55-53.3 3.32-10.05 6.77-20.36 8.65-30.83 5.67-31.61-2.92-68.05-23.53-99.78-18.53-28.56-51.13-51.63-87.12-61.73-21.83-6.1-47.05-8.23-68.82-9.42-15.42-.85-29.42-7.48-44.19-14.46l-3-1.42c-21.79-10.19-53-21.8-78.28-18.76-12.7 1.54-23.42 7.36-29.28 15.82a23.88 23.88 0 00-3.74 20.16l.09.5-.47.19c-5.65 2.59-8.55 6.48-15.67 17.24 7.83 19.91 4.8 40.78 1.52 63.02a547.15 547.15 0 00-2.31 17.16c-2.9 25.73-.3 46.48 8.4 65.31 12.25 26.69 36.68 46.03 50.16 55.22 27.3 18.46 43.65 25.37 50.07 20.88l1.1-.75-.22 1.38a6.2 6.2 0 01-1.45 2.9c-.87 1.09-1.69 2.04-1.52 4.44.3 8.35 5.14 24.06 17.74 40.75 14.39 19.12 35.65 35.5 56.84 43.88 30.19 12 63.1 12.37 89.53 12.63 2.07.07 4.09.04 6.12.02 7.94.06 14.64 1.89 20.5 3.5 4.3 1.14 7.98 2.09 11.37 2.28l.22.03c11.72 5.15 24.55 6.23 33.8 2.7z" fill="url(#paint15_linear)"/><path d="M199.2 208.54a52.4 52.4 0 0113.07-3.08c24.01-2.44 54.41 8.73 75.6 18.5l1.43.63c14.79 6.76 28.71 13.2 43.88 13.93 27.81 1.35 50.44 4.79 69.15 10.58 35.17 11.06 66.58 34.37 83.86 62.45 19.42 31.43 27 67.18 20.83 98.03-2.05 10.32-5.75 20.51-9.15 30.38-5.91 16.72-12.06 33.95-11.3 53.26.66 16.56 7.03 33.5 13.2 49.88 2.5 6.53 4.8 12.83 6.8 18.91 2.1 6.59 1.8 12.49-.98 17.83-3 5.87-8.94 10.5-16.35 12.68-10.43 3.25-23.05-.91-36.38-5.24l-.96-.27-4.56-1.57c-7.17-2.5-16.07-5.63-27.17-6.1-3.59-.12-7.3-.3-11.07-.36-25.48-.85-54.33-1.8-81.8-12.59-22.2-8.74-43.97-25.9-58.17-45.94-13.15-18.42-16.97-34.83-16.34-44.07.22-3.08 1.6-4.79 2.83-6.33.57-.75 1.08-1.38 1.52-2.19-6.4 2.02-20.23-5-46.32-23.38-22.57-15.88-39.61-34.95-47.94-53.61-8.17-18.29-10.34-38.23-6.97-62.97.72-5.41 1.7-10.93 2.59-16.2 3.52-20.72 6.84-40.3-.08-58.64l-.1-.28.2-.3c9.11-10.34 13.85-12.8 20.32-13.77a22.67 22.67 0 014.08-18.16c3.76-5.3 9.37-9.37 16.28-12.01zM402 250.19c-18.62-5.83-41.15-9.3-68.84-10.59-15.39-.75-29.5-7.13-44.33-13.98l-1.42-.63c-21.15-9.68-51.3-20.73-75.03-18.4-12.39 1.22-22.8 6.48-28.42 14.42-3.91 5.46-5.29 11.66-3.84 17.96l.12.6-.6.12c-6.5.88-10.94 3-19.99 13.22 6.9 18.56 3.48 38.18 0 59a891.43 891.43 0 00-2.59 16.2c-3.35 24.51-1.13 44.32 6.98 62.42 8.25 18.48 25.13 37.4 47.57 53.22 19.24 13.62 39.82 26.83 46.42 22.8l1.2-.77-.45 1.35c-.47 1.57-1.34 2.65-2.2 3.73-1.24 1.54-2.41 2.96-2.54 5.69-.71 9.05 3.1 25.15 16.08 43.41 14.13 19.86 35.74 36.86 57.71 45.59 27.34 10.73 56.1 11.72 81.45 12.5 3.8.15 7.49.25 11.07.37 11.32.49 20.22 3.61 27.52 6.17l4.56 1.57.97.28c13.1 4.3 25.56 8.3 35.7 5.17 7-2.14 12.7-6.57 15.68-12.2 2.6-4.96 2.94-10.77.9-16.95a323.7 323.7 0 00-6.78-18.82c-6.2-16.47-12.57-33.41-13.3-50.16-.83-19.49 5.37-36.85 11.34-53.7 3.53-9.81 7.14-19.97 9.22-30.2 6.16-30.62-1.4-66.05-20.72-97.2-17.38-28.05-48.49-51.15-83.44-62.19z" fill="url(#paint16_linear)"/><path d="M207.27 212.84c4.2-1.61 8.84-2.64 13.83-3.05 18.01-1.33 42.4 4.76 72.36 18.13 14.08 6.28 28.54 12.74 43.85 13.3 25.84.93 49.8 5.04 69.21 11.84 34.1 11.9 63.97 35.37 80.02 62.75 18.13 30.85 24.72 65.7 18.15 95.52-2.22 10.16-6.02 20.08-9.62 29.7-6.32 16.77-12.88 34.06-12.11 53.68.58 15.51 6.35 31.4 11.9 46.73a304.11 304.11 0 017.02 20.87c1.9 6.66 1.22 12.7-1.81 17.93-3.6 5.99-10.49 10.66-18.48 12.43-12.13 2.72-26.73-3.26-39.66-8.48a96.8 96.8 0 01-4.22-1.81c-7.16-3.04-16.04-6.93-27.37-7.73-4.83-.3-9.78-.65-15.01-.9-23.3-1.25-49.72-2.59-74.68-12.42-22.58-8.91-45.28-27.1-59.03-47.64-13.34-19.74-16.22-37.05-14.59-46.78.55-3.31 2.23-5.35 3.82-7.35a26.43 26.43 0 002.45-3.4c-6.44 1.07-21.95-9.8-42.73-25.19-15.34-11.26-35.53-29.33-45.34-51.6-10.06-22.92-8-45.23-5.55-60.09.82-5.13 1.83-10.33 2.81-15.31 3.84-19.35 7.34-37.61 1.47-54.64l-.15-.37.25-.2c10.27-8.97 16.66-10.45 24.64-9.76-.94-5.53.5-11 4.12-15.81 3.22-4.45 8.29-8 14.45-10.35zm198.88 41.22c-19.28-6.75-43.1-10.8-68.94-11.72-15.54-.59-30.13-7.1-44.3-13.35-29.84-13.32-54.04-19.47-71.92-18.09-12.05.98-22.13 5.7-27.66 13.06-3.62 4.8-4.87 10.21-3.75 15.67l.16.69-.67-.07c-7.97-.7-14.25.53-24.28 9.3 5.82 17.15 2.25 35.54-1.58 54.9a585.8 585.8 0 00-2.85 15.22c-2.39 14.72-4.43 36.81 5.43 59.49 9.64 22.11 29.8 40.1 44.98 51.2 21.16 15.56 37.75 27.3 42.86 24.71l1.18-.56-.48 1.26c-.68 1.86-1.85 3.28-3.03 4.69-1.53 1.87-3.06 3.74-3.59 6.84-1.6 9.5 1.3 26.59 14.4 45.99 13.68 20.35 36.12 38.42 58.53 47.19 24.84 9.77 51.17 11.14 74.33 12.35 5.23.24 10.28.56 15.1.85 11.47.86 20.44 4.7 27.73 7.8 1.51.6 2.93 1.24 4.22 1.82 12.8 5.16 27.27 11.08 38.99 8.42 7.68-1.77 14.41-6.27 17.8-11.96 3.01-5 3.58-10.8 1.78-17.17a301.17 301.17 0 00-7.02-20.87c-5.59-15.42-11.35-31.31-12-47.01-.5-19.73 6.08-37.24 12.5-54.05 3.6-9.62 7.31-19.5 9.56-29.57 6.59-29.5.01-64.03-17.95-94.74-15.98-27.19-45.68-50.51-79.53-62.29z" fill="url(#paint17_linear)"/><path d="M215.21 217.08a46.9 46.9 0 0114.72-2.96c16.93-.8 39.5 5.01 69.15 17.86 14.75 6.35 28.15 11.71 42.44 12.13 24.66.63 49.23 5.25 69.32 12.97 32.75 12.53 61.25 36.1 76.1 62.85 16.75 30.32 22.31 64.17 15.35 92.96-2.42 9.92-6.3 19.65-10.1 29.03-6.73 16.81-13.65 34.24-12.95 54 .55 14.56 5.73 29.5 10.73 43.97 2.69 7.86 5.33 15.3 7.13 22.54 1.72 6.73.76 12.88-2.72 18.06-4.12 6.3-11.9 10.88-20.7 12.21-12.83 2.02-27.22-4.25-41.94-11.36l-4.1-2.07c-7.1-3.7-16-8.22-27.45-9.3a663.97 663.97 0 00-18.23-1.48c-21.34-1.47-45.53-3.13-68.33-12.07-23.41-9.13-46.37-27.97-59.96-49.22-13.35-20.9-15.42-39.17-12.93-49.44.85-3.65 2.93-6.05 4.82-8.38 1.23-1.54 2.4-2.96 3.25-4.67-4.53-.09-14.81-7.93-30.97-20.48-2.59-2.01-5.34-4.17-8.22-6.38-21.27-16.39-35.67-33.04-42.66-49.63-9.35-21.9-6.77-43.14-4.13-57.21.93-4.85 2.04-9.77 3.04-14.44 4.06-17.94 7.84-34.9 2.91-50.58l-.14-.38.34-.23c11.74-7.92 19.9-8.16 29.05-5.77-.65-4.79.8-9.4 4.03-13.54 3.31-3.94 7.74-6.92 13.15-9zm265.3 372.79c5.6-2.15 10.27-5.64 13.12-9.95 3.32-5.01 4.2-10.81 2.6-17.26-1.77-7.14-4.41-14.6-7.1-22.45-5.04-14.56-10.22-29.5-10.83-44.25-.78-19.94 6.2-37.5 13.03-54.35 3.67-9.44 7.58-19.07 10-29 6.98-28.47 1.39-62.1-15.29-92.23-14.68-26.6-42.99-49.93-75.67-62.58-19.96-7.67-44.4-12.23-68.97-12.9-14.48-.34-28.01-5.76-42.8-12.2-29.42-12.83-51.86-18.59-68.67-17.72-11.65.6-21.5 4.8-26.93 11.59-3.24 4.13-4.55 8.81-3.71 13.52l.2.78-.71-.16c-9.16-2.38-17.16-2.31-28.7 5.31 4.78 15.84 1 32.82-3.06 50.75-1.1 4.7-2.11 9.6-3.04 14.44-2.71 13.9-5.14 34.95 4 56.61 6.93 16.41 21.2 33 42.43 49.3 2.88 2.21 5.63 4.37 8.22 6.38 16.03 12.5 27.69 21.41 31.09 20.22l1.02-.4-.46 1.04a22.66 22.66 0 01-3.83 5.64c-1.84 2.2-3.82 4.57-4.65 8-2.48 10.04-.42 28 12.73 48.66 13.53 21.05 36.22 39.78 59.5 48.85 22.64 8.8 46.74 10.49 68.08 11.96 6.38.45 12.54.88 18.32 1.44 11.61 1.24 20.51 5.75 27.74 9.52l4.1 2.07c14.6 7.05 28.76 13.3 41.37 11.25 2.29-.45 4.63-1.02 6.88-1.88z" fill="url(#paint18_linear)"/><path d="M223.12 221.22a47.02 47.02 0 0115.6-2.86c20.72-.44 47.44 9.79 65.82 17.53 12.77 5.39 26.55 10.6 41 10.86 24 .34 48.72 5.33 69.33 14.15 32.1 13.62 58.5 36.71 72.29 63.24 15.41 29.64 20 62.58 12.54 90.38-2.62 9.68-6.56 19.22-10.47 28.32-7.14 16.87-14.48 34.34-13.8 54.32.55 13.71 5.18 27.79 9.68 41.48 2.77 8.37 5.36 16.26 7 23.88 1.4 6.74.28 13.06-3.51 18.26-4.78 6.54-13.26 10.96-22.93 11.99-13.93 1.37-29.51-6.05-44.25-14.33-1.36-.77-2.72-1.53-4.12-2.38-7.05-4.16-15.92-9.43-27.32-10.96-6.56-.92-13.52-1.47-20.83-2.1-19.6-1.7-41.84-3.57-62.61-11.68-24.16-9.39-47.45-28.85-60.83-50.92-11.33-18.69-15.57-38.16-11.24-52.02 1.2-3.89 3.54-6.71 5.83-9.4a35.6 35.6 0 004.26-5.92c-2.36-.6-7.1-4.57-16.47-12.54-5.22-4.43-11.64-10-19.18-16-20.61-16.63-33.73-32.17-40.08-47.62-8.67-20.99-5.63-41-2.66-54.23 1.03-4.58 2.26-9.22 3.36-13.6 4.28-16.52 8.37-32.12 4.39-46.44l-.14-.38.37-.14c14.2-7.36 24.52-5.32 33.47-1.78-.33-3.95 1.05-7.9 4.03-11.29 2.95-3.48 6.8-6.03 11.47-7.81zM475.06 589.6c5.42-2.07 10.05-5.35 13.01-9.37 3.64-5.03 4.71-10.9 3.38-17.46-1.6-7.53-4.19-15.42-6.96-23.78-4.5-13.7-9.3-27.93-9.78-41.77-.8-20.25 6.73-37.8 13.84-54.76 3.87-9.2 7.85-18.64 10.5-28.22 7.34-27.55 2.87-60.2-12.48-89.67-13.75-26.43-39.86-49.3-71.82-62.88-20.58-8.72-45.07-13.69-68.99-14.06-14.63-.19-28.48-5.6-41.34-10.95-18.25-7.68-44.94-17.8-65.47-17.45-11.25.24-21.06 4-26.24 10.05-2.95 3.48-4.23 7.4-3.68 11.37l.1.81-.74-.25c-8.86-3.57-19.06-5.87-33.11 1.33 3.8 14.4-.3 29.99-4.58 46.5a333.1 333.1 0 00-3.36 13.6c-3 13.15-5.9 33 2.58 53.74 6.3 15.36 19.3 30.83 39.74 47.31 7.58 6.1 13.96 11.58 19.22 16.1 8.59 7.31 14.67 12.58 16.53 12.4l.82-.1-.34.78c-1.2 2.5-2.93 4.66-4.62 6.7-2.2 2.65-4.48 5.35-5.61 9.1-4.27 13.74-.05 32.9 11.08 51.33 13.3 21.9 36.44 41.2 60.33 50.47 20.64 8.05 42.79 9.96 62.36 11.57 7.4.6 14.39 1.24 20.95 2.16 11.62 1.54 20.59 6.78 27.68 11.03 1.4.86 2.8 1.71 4.12 2.38 14.6 8.23 29.96 15.63 43.67 14.23a37.83 37.83 0 009.21-2.24z" fill="url(#paint19_linear)"/><path d="M180.34 238.14c16.06-6.15 28.33-2.07 37.23 2.45-.04-3.2 1.3-6.4 3.87-9.2 5.23-5.64 15-8.94 26.17-8.83 18.28.18 40.88 8.33 62.57 17.16 14.22 5.8 26.38 9.6 39.58 9.7 23.68.03 48.36 5.47 69.46 15.27 30.85 14.32 55.77 37.44 68.43 63.54 14 29.01 17.59 61.04 9.74 87.82-2.78 9.52-6.87 18.7-10.94 27.64-7.55 16.92-15.4 34.48-14.7 54.77.45 12.9 4.7 26.26 8.82 39.24 2.82 8.77 5.43 16.98 6.85 24.9 1.25 6.9-.27 13.27-4.32 18.36-5.28 6.62-14.9 11.16-25.06 11.73-15.86.82-32.4-8.26-46.53-17.2-1.4-.86-2.74-1.85-4.17-2.8-7.37-4.99-15.72-10.58-27.26-12.47-7.2-1.2-14.87-1.92-23-2.76-17.94-1.81-38.32-3.86-57.32-11.26-24.86-9.54-48.44-29.75-61.65-52.53-11.34-19.54-14.9-40.02-9.5-54.72 1.6-4.25 4.24-7.4 6.7-10.49 1.98-2.36 3.82-4.56 5.2-7.13-1.02-.68-2.77-2.47-5.63-5.45A403.6 403.6 0 00208.44 391c-12.53-10.62-29.98-26.86-37.4-45.65-7.96-19.97-4.48-38.86-1.23-51.35 1.1-4.38 2.43-8.75 3.7-12.98 4.5-15.1 8.72-29.25 5.81-42.16l-.04-.41.37-.15c.22.03.4-.05.69-.15zm38.22 3.9l-.69-.39c-8.9-4.52-21.09-8.95-37.25-2.77l-.28.11c2.72 12.99-1.46 27.22-6 42.24a508 508 0 00-3.7 12.98c-3.28 12.4-6.64 31.03 1.16 50.85 7.43 18.57 24.75 34.74 37.15 45.3 12.36 10.48 21.18 19.53 26.58 24.96 2.98 3.03 5.06 5.12 5.74 5.5l.4.18-.18.38c-1.46 2.92-3.53 5.32-5.52 7.69-2.5 2.99-5.14 6.14-6.58 10.22-5.28 14.45-1.74 34.61 9.43 54 13.05 22.63 36.56 42.65 61.2 52.17 18.83 7.25 39.2 9.3 57.05 11.14 8.14.85 15.83 1.65 23.04 2.86 11.67 1.95 20.15 7.6 27.52 12.59 1.43.95 2.87 1.9 4.17 2.8 13.2 8.43 30.32 17.94 46.05 17.06 9.98-.5 19.31-4.93 24.44-11.4 3.96-5.04 5.34-10.93 4.16-17.65-1.38-7.82-4.03-16.12-6.81-24.8-4.12-12.99-8.41-26.44-8.8-39.47-.67-20.5 7.17-38.07 14.78-55.12 3.97-8.9 8.03-18.17 10.85-27.6 7.82-26.55 4.21-58.37-9.72-87.2-12.5-25.94-37.34-48.87-67.97-63.17-20.97-9.74-45.52-15.12-69.1-15.2-13.4-.01-25.6-3.9-39.93-9.77-20.57-8.4-44.05-16.87-62.22-17.08-10.87-.13-20.44 3.1-25.56 8.5-2.56 2.8-3.82 5.95-3.6 9.3l.19.78z" fill="url(#paint20_linear)"/><path d="M184.5 235.04l.38-.14c14.5-4.37 28-2.37 42.44 6.24a11.1 11.1 0 013.67-7.19c5.16-4.97 14.64-7.63 25.55-7.1 16.9.8 37.69 8.38 59.32 16.8 10.95 4.27 23.96 8.6 38.23 8.39 23.07-.16 48.37 5.8 69.47 16.45 29.59 14.91 53.05 38.16 64.59 63.83 12.85 28.81 15.31 59.03 7.03 85.22-2.89 9.24-7.15 18.26-11.23 26.9-8.02 17.09-16.3 34.6-15.59 55.21.38 12.17 4.3 24.92 7.93 37.23 2.75 9.12 5.37 17.65 6.58 25.85.97 7.02-.74 13.46-5.1 18.55-5.84 6.85-16.26 11.26-27.23 11.4-13.73.21-29.27-6.26-48.84-20.18-1.44-.95-2.85-2.12-4.36-3.26-7.23-5.48-15.48-11.63-27.07-13.94-7.66-1.57-15.93-2.47-24.68-3.51-16.48-1.94-35.2-4.1-52.51-10.74-25.6-9.8-49.52-30.62-62.49-54.14-11.24-20.43-14.17-41.8-7.8-57.3 1.9-4.57 4.84-8.06 7.7-11.5 2.2-2.67 4.48-5.37 6.08-8.44-1.28-2.51-10.01-15.55-28.56-32.11-13.67-12.22-28.4-26.93-34.8-43.64-5.58-14.57-5.46-29.93.22-48.38 1.27-4.23 2.76-8.45 4.14-12.4 4.66-13.56 9.1-26.3 7.17-37.76l-.23-.34zm43.57 7.52l-.68-.38c-14.37-8.74-27.79-10.78-42.04-6.6 1.74 11.53-2.66 24.36-7.26 37.79-1.35 4.05-2.88 8.17-4.15 12.4-5.62 18.32-5.68 33.55-.3 47.87 6.33 16.53 21.06 31.24 34.6 43.4 19.2 17.17 27.9 30.65 28.84 32.54l.07.19-.15.16c-1.76 3.25-4.1 6.07-6.3 8.73-2.8 3.32-5.74 6.8-7.58 11.25-6.26 15.25-3.36 36.52 7.78 56.67 12.92 23.43 36.68 44.1 62.15 53.84 17.2 6.59 35.8 8.78 52.29 10.72 8.84 1 17.14 2 24.81 3.56 11.72 2.37 20 8.62 27.37 14.15 1.5 1.14 2.97 2.18 4.31 3.17 19.45 13.86 34.82 20.19 48.36 20.03 10.76-.15 20.92-4.36 26.7-11.07 4.22-4.94 5.91-11.15 4.92-17.95-1.18-8.11-3.8-16.64-6.55-25.76-3.77-12.37-7.55-25.05-8-37.41-.65-20.74 7.65-38.48 15.67-55.57 4.05-8.73 8.34-17.65 11.23-26.9 8.26-25.96 5.83-56.09-7.04-84.68-11.34-25.42-34.76-48.58-64.22-63.43-20.97-10.6-46.18-16.59-69.12-16.37-14.4.16-27.53-4.24-38.48-8.5-21.55-8.46-42.33-16.03-59.01-16.82-10.6-.55-19.98 2.08-24.9 6.85-2.28 2.16-3.43 4.74-3.41 7.3l.1.82z" fill="url(#paint21_linear)"/><path d="M189.7 231.55l.32-.01c16.02-3.46 31.42-.14 46.89 10.32 1.17-6.45 11.88-12.04 28.27-10.61 15.38 1.29 34.14 8.35 52.26 15.12l3.73 1.35c14.1 5.2 25.46 7.5 36.81 7.22 22.96-.44 48.22 5.96 69.59 17.59 28.31 15.5 50.42 38.84 60.7 64.03 11.49 28.04 12.96 57.35 4.23 82.65-3.09 9-7.36 17.7-11.61 26.18-8.43 17.14-17.18 34.84-16.58 55.7.35 11.55 3.79 23.61 7.18 35.27 2.72 9.35 5.26 18.22 6.23 26.63a23.15 23.15 0 01-5.98 18.78c-6.5 7.1-17.74 11.29-29.4 11.04-15.01-.35-31.71-7.88-51.24-23.1-1.5-1.14-2.96-2.41-4.5-3.64-7.19-5.92-15.34-12.65-26.88-15.4-8-1.87-16.78-3-26.05-4.28-15.8-2.09-32.25-4.25-47.93-10.24-26.24-10.09-50.57-31.4-63.35-55.84-11.12-21.23-13.5-43.66-6.14-59.97 2.13-4.78 5.44-8.72 8.6-12.5 2.5-2.99 5.18-6.05 7.05-9.55-.13-3.7-7.7-17.61-24.92-34.05-12.58-11.88-26.43-25.96-32.12-41.67-5.07-13.8-4.53-28.35 1.74-45.53 1.53-4.12 3.1-8.14 4.7-12.07 4.85-11.93 9.3-23.26 8.38-33.2l.02-.22zm47.9 11.55l-.56-.33c-15.37-10.5-30.62-13.98-46.58-10.65.75 10.1-3.72 21.34-8.49 33.23a417.8 417.8 0 00-4.69 12.08c-6.12 17-6.63 31.34-1.73 44.99 5.62 15.51 19.43 29.5 32.01 41.39 17.54 16.73 25.17 31.05 25.17 34.7l.04.09-.06.13c-2.06 3.57-4.7 6.72-7.17 9.8-3.16 3.79-6.4 7.6-8.45 12.34-7.2 16.14-4.93 38.3 6.12 59.34 12.57 23.88 37.3 45.68 62.98 55.44 15.68 6 32.01 8.1 47.8 10.19 9.36 1.24 18.15 2.37 26.14 4.24 11.68 2.8 19.92 9.5 27.15 15.52 1.58 1.32 2.99 2.5 4.5 3.63 19.27 15.1 35.93 22.54 50.72 22.88 11.44.22 22.5-3.9 28.84-10.83a22.44 22.44 0 005.79-18.17c-.94-8.31-3.48-17.2-6.2-26.54-3.4-11.65-6.87-23.81-7.25-35.45-.64-20.95 8.17-38.78 16.66-56.06 4.15-8.44 8.43-17.14 11.51-26.14 8.68-25.17 7.15-54.35-4.23-82.11-10.25-25.1-32.19-48.29-60.37-63.73-21.15-11.6-46.4-18-69.14-17.54-11.49.22-22.95-2.04-37.04-7.24l-3.73-1.36c-18.12-6.77-36.85-13.73-52.13-15.06-16.27-1.37-27 4.45-27.55 10.55l-.07.67z" fill="url(#paint22_linear)"/><path d="M195 228.03l.3-.01c17.65-2.58 35.02 2.23 51.48 14.45 1.93-5.02 12.39-9.03 27.42-6.96 12.64 1.7 28.05 7.25 42.97 12.67 3.35 1.19 6.6 2.4 9.81 3.53 12.73 4.44 23.96 6.36 35.4 6.04 22.86-.71 48.25 6.06 69.6 18.76 26.92 16.04 47.67 39.47 56.86 64.33 10 27.22 10.6 55.68 1.46 80.17-3.2 8.72-7.67 17.18-11.9 25.44-8.93 17.23-18.09 34.98-17.47 56.16.31 10.9 3.41 22.35 6.46 33.4 2.64 9.69 5.16 18.79 5.85 27.3a24.01 24.01 0 01-6.86 19.01c-7.09 7.21-19.09 11.38-31.56 10.7-16.27-.84-34.29-9.58-53.53-25.99-1.57-1.32-3.06-2.68-4.7-4.2-7.06-6.4-15.1-13.7-26.57-16.8-8.27-2.3-17.44-3.6-27.2-5.02-14.39-2.09-29.36-4.28-43.75-9.7-26.56-10.07-51.8-32.64-64.27-57.41-11.1-21.99-12.7-45.47-4.5-62.64 2.16-4.46 5.48-8.09 8.7-11.68 3.63-3.96 7.01-7.71 8.92-12.51 1.68-4.29-4.8-19.26-21.36-35.94l-.13-.06c-11.36-11.5-24.27-24.54-29.49-39.57-4.47-13.07-3.46-26.94 3.16-42.65 1.75-4.1 3.58-8 5.4-11.92 4.83-10.3 9.38-19.97 9.49-28.36v-.54zm52.08 15.5l-.43-.26c-16.32-12.17-33.54-17.14-51-14.64-.16 8.53-4.7 18.19-9.48 28.37a267.85 267.85 0 00-5.4 11.92c-6.5 15.44-7.55 29.23-3.16 42.1 5.15 14.85 17.94 27.84 29.3 39.33l.13.06c17.49 17.72 23.2 32.35 21.55 36.72-1.97 4.93-5.46 8.95-9.03 12.77-3.17 3.47-6.5 7.1-8.55 11.52-8.18 16.95-6.56 40.2 4.46 62 12.35 24.72 37.43 47.14 63.85 57.16 14.3 5.45 29.14 7.58 43.54 9.67 9.75 1.41 18.96 2.81 27.32 5.07 11.6 3.16 19.77 10.53 26.86 17.02 1.65 1.51 3.13 2.87 4.7 4.2 19.2 16.31 37 25.03 53.05 25.84 12.12.6 23.97-3.4 31-10.48 4.95-5 7.2-11.42 6.63-18.49-.65-8.42-3.17-17.52-5.78-27.12-3.08-11.14-6.27-22.55-6.53-33.58-.56-21.31 8.66-39.2 17.56-56.52 4.26-8.16 8.6-16.68 11.83-25.3 9.04-24.23 8.5-52.5-1.47-79.64-9.15-24.76-29.74-48.04-56.52-64.02-21.22-12.65-46.53-19.45-69.25-18.68-11.54.35-22.86-1.53-35.63-6.06-3.21-1.13-6.55-2.31-9.8-3.53-14.8-5.37-30.2-10.93-42.85-12.62-15.12-2.03-25.49 1.94-26.79 6.94l-.11.25z" fill="url(#paint23_linear)"/><path d="M200.19 224.54l.22.02c24.34-2.14 43.85 8.81 55.92 18.54 2.6-3.57 12.5-5.96 26.54-3.41 10.15 1.9 22.43 6.3 34.23 10.55 5.08 1.8 10.3 3.67 15.2 5.32 11.54 3.83 22.3 5.38 33.96 4.78 22.53-1.02 48.58 6.35 69.63 19.93 25.56 16.44 44.86 40 53 64.62 8.63 26.46 8.13 53.96-1.25 77.57-3.43 8.38-7.79 16.58-12.12 24.56-9.44 17.31-19.06 35.24-18.57 56.68.24 10.4 3.09 21.2 5.83 31.71 2.58 9.83 4.98 19.19 5.43 27.9a25 25 0 01-7.8 19.37c-7.64 7.43-20.57 11.41-33.63 10.3-22.08-1.72-42.58-16.68-55.84-28.95-1.65-1.5-3.2-3.05-4.93-4.75-7-6.85-14.91-14.63-26.34-18.18-8.5-2.64-18-4.25-28.14-5.83-13.13-2.14-26.71-4.33-39.72-9.2-27.26-10.24-52.74-33.46-65.14-59.13-10.97-22.78-11.97-47.24-2.7-65.24 2.5-4.93 6.1-8.97 9.63-12.9 3.68-4.08 7.42-8.3 9.76-13.37 2.44-5.1-1.46-20.32-17.7-37.87l-2.04-2.23c-9.66-10.43-20.6-22.2-24.82-35.47-4.03-12.48-2.53-25.37 4.63-39.67 2.03-4.2 4.35-8.2 6.53-12.03 4.78-8.47 9.21-16.48 10.11-23.36l.12-.26zm56.37 19.43l-.3-.2c-12.03-9.64-31.35-20.66-55.54-18.68-1 6.91-5.46 14.83-10.15 23.26a382.02 382.02 0 00-6.53 12.03c-7.01 14.14-8.54 26.94-4.58 39.23 4.24 13.05 15.08 24.85 24.71 35.2l2.03 2.22c14.86 16.15 20.73 32.32 17.77 38.6-2.43 5.1-6.14 9.41-9.82 13.5-3.53 3.92-7.12 7.97-9.53 12.86-9.13 17.84-8.1 42.07 2.8 64.67 12.23 25.51 37.65 48.55 64.78 58.72 12.9 4.91 26.45 7 39.58 9.15 10.14 1.58 19.64 3.2 28.24 5.8 11.55 3.6 19.59 11.45 26.63 18.38 1.69 1.6 3.28 3.25 4.9 4.66 13.22 12.18 33.56 26.99 55.44 28.78 12.8 1 25.45-2.88 33.08-10.09a23.98 23.98 0 007.56-18.85c-.31-8.66-2.77-17.89-5.36-27.71-2.74-10.52-5.62-21.4-5.85-31.81-.57-21.63 9.24-39.62 18.64-57.03 4.24-7.94 8.73-16.09 12.06-24.43 9.45-23.43 9.86-50.89 1.3-77.17-7.97-24.46-27.23-47.93-52.67-64.31-21-13.49-46.88-20.93-69.27-19.85a91.6 91.6 0 01-34.18-4.8c-5-1.62-10.25-3.57-15.24-5.41-11.8-4.26-24.09-8.66-34.2-10.47-15.06-2.7-24.3.31-26.09 3.46l-.2.3z" fill="url(#paint24_linear)"/><path d="M205.48 221.02l.22.02c20.92-.73 42.42 7.32 60.5 22.67 2.87-1.74 11.77-3.11 25.69.23 7.8 1.94 16.7 5.06 26.07 8.55 6.6 2.4 13.58 4.97 20.12 6.96 10.43 3.19 20.39 4.3 32.54 3.6 22.6-1.36 48.65 6.55 69.74 21.07 24.32 16.82 42.16 40.5 49.03 64.86 7.23 25.6 5.83 52.16-4.06 75-3.54 8.1-8 16.02-12.35 23.69-9.9 17.5-20.12 35.54-19.61 57.3.2 9.76 2.75 20.04 5.27 30 2.47 10.07 4.82 19.56 4.89 28.42.02 7.6-2.95 14.4-8.76 19.63-8.34 7.59-22.01 11.32-35.62 9.89-25.1-2.6-47.23-21-58.12-31.83-1.72-1.7-3.35-3.43-5.14-5.31-6.97-7.3-14.74-15.56-26.12-19.56-8.68-3.1-18.44-4.82-28.87-6.61-11.84-2.11-24.12-4.26-35.86-8.65-27.87-10.43-53.83-34.33-65.97-60.73-10.85-23.58-11.23-48.92-1.05-67.92 2.8-5.25 6.85-9.8 10.65-14.14 3.89-4.38 7.8-8.98 10.61-14.23 3.77-7.23.09-23.27-14.1-39.9-1.13-1.28-2.17-2.6-3.3-3.88-8.2-9.38-17.47-20.18-20.95-31.8-3.53-11.72-1.5-24.06 6.04-36.8 2.6-4.42 5.48-8.63 8.16-12.54 4.67-6.82 8.62-12.72 10.2-17.83l.15-.16zm60.7 23.45l-.17-.15c-17.95-15.3-39.26-23.41-60.1-22.72-1.63 5.23-5.62 11.04-10.2 17.83-2.73 4.04-5.56 8.12-8.15 12.54-7.4 12.57-9.45 24.82-6 36.35 3.45 11.53 12.65 22.14 20.85 31.53 1.13 1.28 2.3 2.65 3.3 3.87 14.35 16.78 17.95 33.18 14.12 40.53-2.77 5.35-6.81 9.9-10.67 14.37-3.8 4.34-7.74 8.85-10.55 14.1-10.07 18.74-9.63 43.95 1.05 67.38 12.1 26.3 37.9 50.05 65.64 60.42 11.62 4.34 23.9 6.49 35.74 8.6 10.43 1.79 20.22 3.6 29 6.67 11.41 4.09 19.4 12.38 26.28 19.7 1.8 1.89 3.42 3.62 5.1 5.23 10.86 10.73 32.87 29.07 57.83 31.62 13.48 1.37 26.96-2.3 35.15-9.71a25.32 25.32 0 008.63-19.15c-.04-8.77-2.39-18.26-4.86-28.34-2.43-10-4.97-20.26-5.21-30.13-.49-21.97 9.83-40.06 19.73-57.55 4.35-7.66 8.81-15.58 12.29-23.55 9.83-22.72 11.26-49.18 4.01-74.56-6.82-24.27-24.73-47.82-48.79-64.53-21-14.55-46.91-22.4-69.39-20.98-12.15.7-22.3-.35-32.76-3.63-6.67-2.05-13.52-4.56-20.25-7.02-9.32-3.39-18.27-6.6-26.07-8.54-13.92-3.35-23-1.9-25.33-.16l-.23-.02z" fill="url(#paint25_linear)"/><path d="M210.68 217.53l.13.06c22.8.26 45.9 9.73 64.95 26.74 4.22-.44 13.27.28 24.8 3.8a285.3 285.3 0 0118.26 6.6c8.14 3.09 16.55 6.3 24.72 8.63 11.54 3.3 21.76 3.13 31.1 2.34 22.36-1.7 49.07 6.8 69.78 22.32 22.94 17.14 39.43 40.91 45.18 65.16 5.9 24.62 3.45 50.4-6.86 72.44-3.55 7.78-8.15 15.33-12.42 22.64-10.4 17.58-21.19 35.84-20.76 57.95.22 9.23 2.45 18.98 4.67 28.4 2.4 10.22 4.64 19.97 4.34 28.97-.23 7.8-3.7 14.69-9.83 19.93-8.97 7.6-23.3 11.28-37.6 9.47-26.99-3.38-49.48-23.25-60.4-34.7-1.79-1.9-3.49-3.81-5.35-5.88-7.16-8.07-14.61-16.36-25.86-20.83-8.82-3.48-18.78-5.45-29.41-7.48-10.63-2.04-21.61-4.15-32.1-8.06-28.58-10.58-54.88-35.1-66.8-62.34-10.73-24.38-10.52-50.69.64-70.49 3.17-5.7 7.42-10.55 11.58-15.35 4.1-4.67 8.31-9.6 11.42-15.19 4.43-8.01 3.13-24.54-10.44-41.83-1.28-1.65-2.68-3.36-4.12-5.17-6.93-8.59-14.8-18.21-17.56-28.5-2.99-11.18-.51-22.62 7.51-33.82 3.46-4.97 7.46-9.6 10.96-13.62 3.91-4.6 7.25-8.45 9.26-11.9l.2-.3zm233.57 70.88c-20.55-15.37-47.17-23.92-69.4-22.15-9.38.7-19.69.9-31.32-2.36-8.17-2.33-16.67-5.5-24.72-8.63-6.54-2.53-12.68-4.9-18.23-6.52-15.27-4.65-23.75-3.86-24.7-3.82l-.1.04-.12-.06c-18.92-16.96-41.84-26.5-64.51-26.7-2 3.44-5.44 7.32-9.26 11.9-3.5 4-7.4 8.6-10.86 13.57-7.93 11.17-10.38 22.4-7.47 33.38 2.73 10.2 10.6 19.82 17.48 28.32 1.44 1.8 2.81 3.42 4.12 5.17 13.65 17.47 15.02 34.19 10.48 42.46-3.11 5.58-7.33 10.51-11.52 15.22-4.07 4.77-8.41 9.65-11.52 15.23-11.01 19.63-11.25 45.85-.6 70.04 11.89 27.14 38.03 51.5 66.5 62.13 10.5 3.9 21.44 5.93 32.07 7.96 10.63 2.04 20.69 3.97 29.55 7.54 11.37 4.53 18.86 12.9 26.02 20.98 1.86 2.07 3.56 4 5.35 5.88 10.92 11.45 33.24 31.17 60.14 34.58 14.07 1.8 28.31-1.84 37.1-9.38a25.94 25.94 0 009.56-19.5c.24-8.88-1.96-18.53-4.37-28.74-2.21-9.43-4.45-19.18-4.7-28.5-.4-22.34 10.38-40.6 20.84-58.3 4.36-7.35 8.84-14.96 12.43-22.65 10.2-22 12.63-47.56 6.77-72.08-5.74-24.25-22.2-47.93-45-65z" fill="url(#paint26_linear)"/><path d="M216 214.1c24.55 1.2 49.83 12.4 69.54 30.88.74.25 1.57.47 2.62.7 4.78 1.29 11.92 3.16 21.44 6.8 3.3 1.3 6.84 2.73 10.64 4.27 9.06 3.82 19.38 8.11 29.2 10.56 10.34 2.68 19.53 2.06 29.68 1.17 22.45-2.06 49.24 6.95 69.81 23.5 21.66 17.4 36.8 41.27 41.33 65.44a109.23 109.23 0 01-9.56 69.84c-3.7 7.41-8.23 14.6-12.5 21.6-10.97 17.8-22.35 36.18-22.06 58.76.13 8.73 2.15 17.92 4.15 26.79 2.3 10.47 4.44 20.25 3.85 29.36-.56 8.04-4.3 15.04-10.85 20.33-9.57 7.73-24.74 11.18-39.49 9-21.09-3.06-44-16.77-62.8-37.63-1.86-2.07-3.63-4.18-5.57-6.43-7.08-8.43-14.4-17.2-25.54-22.24-8.9-3.98-19.13-6.06-29.87-8.38-9.42-1.96-19.2-4-28.52-7.39-29.28-10.74-55.83-35.91-67.67-64.04-10.74-25.55-9.88-52.11 2.3-73.16 3.47-6.04 8.08-11.33 12.54-16.47 4.37-5.1 8.92-10.27 12.24-16.14 5.03-8.67 6.36-25.35-6.8-43.76-1.41-2.03-2.93-4.02-4.47-6.1-6.12-8.16-12.44-16.55-14.51-25.61-3.19-13.34 3.14-24.23 8.93-30.94 5.02-5.88 11-10.96 15.76-15.03 2.2-2.12 4.36-4.02 6.18-5.68zm232.4 78.18c-20.53-16.44-47.1-25.44-69.51-23.28-10.15.88-19.43 1.54-29.9-1.2-9.83-2.44-20.14-6.74-29.2-10.55-3.71-1.58-7.26-3-10.55-4.32-9.43-3.67-16.57-5.54-21.34-6.82a25.36 25.36 0 01-2.63-.7l-.13-.06c-19.63-18.3-44.82-29.53-69.05-30.75-1.74 1.63-3.8 3.5-6.25 5.5-4.76 4.07-10.65 9.1-15.68 15-5.78 6.7-12 17.33-8.88 30.48 2.16 9.03 8.45 17.33 14.44 25.42 1.54 2.09 3.06 4.08 4.47 6.1 13.23 18.6 11.88 35.5 6.8 44.3-3.42 5.92-7.98 11.09-12.34 16.18-4.46 5.14-8.98 10.4-12.48 16.35-12.16 20.82-12.93 47.35-2.26 72.7 11.8 28.04 38.28 53.02 67.43 63.71 9.23 3.43 19.01 5.47 28.53 7.4 10.83 2.27 21.05 4.36 29.96 8.33 11.24 5.02 18.59 13.87 25.8 22.36 1.93 2.25 3.7 4.36 5.56 6.43 18.67 20.8 41.46 34.46 62.51 37.43 14.63 2.11 29.6-1.27 39.08-8.96 6.49-5.16 10.14-12.13 10.68-19.94.62-9.02-1.52-18.8-3.78-29.18-1.9-8.9-3.93-18.09-4.1-26.91-.36-22.78 11.02-41.16 22.08-58.99 4.28-7 8.81-14.19 12.5-21.6a108.83 108.83 0 009.55-69.61c-4.71-23.79-19.68-47.5-41.3-64.82z" fill="url(#paint27_linear)"/><path d="M221.2 210.61c27.99 2.35 52.88 19.27 73.99 34.96 2.84 2.12 7.2 3.99 12.75 6.47 3.1 1.38 6.68 2.9 10.46 4.67.9.4 1.84.9 2.75 1.3 9.86 4.8 22.18 10.68 33.75 13.2 9.24 2.04 17.46 1.14 26.28.12l1.95-.21c22.3-2.43 49.76 7.19 69.93 24.63 20.46 17.65 34.1 41.55 37.44 65.65 3.22 22.97-1.04 46.23-12.33 67.36-3.75 7-8.2 13.85-12.5 20.52-11.65 17.96-23.68 36.59-23.34 59.59.14 8.19 1.85 16.85 3.64 25.16 2.1 10.54 4.22 20.55 3.23 29.7-.9 8.27-5.05 15.33-12 20.66-10.36 7.93-25.76 11.04-41.29 8.52-22.5-3.7-46.26-18.48-65.08-40.5-1.93-2.26-3.85-4.74-5.82-7.1-7.03-8.86-14.27-17.98-25.28-23.51-9-4.48-19.32-6.85-30.31-9.27-8.31-1.86-16.89-3.82-25.09-6.79-29.88-10.94-56.87-36.69-68.5-65.65-10.58-26.25-9.16-53.88 4-75.73 3.77-6.37 8.78-12.03 13.4-17.55 4.68-5.43 9.4-10.99 13.15-17.13 6.11-10.05 8.58-27.38-3.08-45.83-1.4-2.25-2.89-4.46-4.5-6.74-5.08-7.37-10.32-14.9-11.9-22.96-2.72-13.52 5.3-23.34 10.39-27.96 7.2-6.62 15.77-11.4 23.9-15.58zm231.46 85.5c-20-17.29-47.36-26.94-69.57-24.55l-1.96.22c-8.81 1.02-17.17 1.86-26.4-.17-11.7-2.6-23.93-8.51-33.88-13.27-.9-.4-1.85-.9-2.75-1.3-3.82-1.86-7.4-3.38-10.46-4.67-5.52-2.39-9.91-4.35-12.85-6.43-21.07-15.6-45.83-32.46-73.64-34.88-8.04 4.15-16.5 8.89-23.69 15.6-4.99 4.58-12.91 14.36-10.3 27.6 1.64 7.94 6.78 15.5 11.82 22.78 1.65 2.37 3.14 4.58 4.5 6.74 11.7 18.54 9.3 36.06 3.14 46.23-3.75 6.15-8.57 11.74-13.24 17.17-4.76 5.46-9.64 11.18-13.44 17.46-13.1 21.72-14.56 49.26-3.92 75.38 11.68 28.83 38.45 54.56 68.3 65.4 8.1 3 16.74 4.84 24.95 6.73 11 2.43 21.33 4.8 30.32 9.27 11.1 5.5 18.37 14.7 25.44 23.67 2.01 2.45 3.8 4.87 5.82 7.1 18.82 22.02 42.45 36.75 64.83 40.39 15.43 2.55 30.7-.62 40.96-8.51 6.9-5.2 11.01-12.35 11.9-20.4.99-9.16-1.1-19.07-3.2-29.61-1.7-8.35-3.53-17.07-3.58-25.3-.32-23.21 11.75-41.75 23.37-59.8 4.3-6.68 8.74-13.52 12.48-20.52 11.24-21 15.54-44.17 12.35-67.05-3.36-23.87-16.87-47.72-37.3-65.27z" fill="url(#paint28_linear)"/><path d="M215.68 209.62a35.9 35.9 0 0110.71-2.5c28.18-1.36 54.32 17.97 78.31 38.98 5.3 4.61 12.98 9.28 22.4 14.88 9.26 5.45 21.42 12.04 33.3 14.24 7.72 1.43 14.73.46 22.03-.62 1.5-.25 3.24-.49 4.78-.65 11.24-1.41 23.92.37 36.7 5.23a102.47 102.47 0 0133.25 20.57c19.23 17.8 31.46 41.92 33.6 65.95 1.93 21.85-3.32 44.2-15.05 64.75-3.7 6.56-8.1 12.96-12.36 19.19-12.3 18.2-25 37.09-24.79 60.56.06 7.7 1.64 15.76 3.13 23.54 2 10.26 4.01 20.84 2.55 30.18-1.24 8.5-5.86 15.74-13.31 21.16-11.02 7.86-27 10.87-42.99 8-12.31-2.25-24.79-7.43-37.02-15.6-11.09-7.43-21.6-17-30.34-27.8-2.04-2.53-4.02-5.2-5.97-7.77-6.96-9.22-14.25-18.75-25.02-24.8-9.12-5.07-19.48-7.53-30.55-10.15-7.2-1.74-14.62-3.5-21.7-6.04-15.27-5.5-29.9-14.9-42.43-27.23-12.08-11.97-21.42-25.74-26.98-40-10.46-27.04-8.42-55.56 5.64-78.4 4.17-6.73 9.35-12.78 14.42-18.57 4.97-5.76 10-11.65 14.14-18.16 8.96-14.35 9.19-32.21.56-47.76a129.6 129.6 0 00-4.33-7.12c-4.15-6.65-8.38-13.5-9.48-20.57-1.5-9.5 2.82-18.64 11.81-25.08 5-3.73 10.13-6.55 14.99-8.41zm241.23 90.33c-19.9-18.4-47.2-28.5-69.69-25.69-1.63.2-3.23.5-4.78.66-7.39 1.11-14.31 2.05-22.13.65-11.87-2.2-24.12-8.75-33.38-14.2-9.52-5.57-17.2-10.23-22.5-14.84-23.99-21.01-50.06-40.16-78.04-38.87-7.05.34-16.65 4.34-25.5 10.62-8.9 6.4-13.15 15.42-11.73 24.72 1.07 6.98 5.38 13.79 9.41 20.39 1.6 2.5 3.03 4.83 4.37 7.21 4.74 8.47 6.87 17.4 6.34 26.38a45.7 45.7 0 01-6.9 21.7c-4.04 6.47-9.13 12.49-14.1 18.25-5.03 5.88-10.2 11.93-14.32 18.54-14 22.7-16.08 51.13-5.66 78.08 11.5 29.76 38.7 56.07 69.16 67.11 7.08 2.54 14.5 4.3 21.6 6.08 11.07 2.62 21.47 5.17 30.68 10.21 10.9 6.1 18.2 15.63 25.15 24.85 1.95 2.58 3.93 5.24 5.94 7.69 18.63 22.95 43.78 39.13 67.23 43.33 15.86 2.81 31.78-.07 42.7-7.89 7.4-5.3 11.93-12.49 13.2-20.9 1.37-9.3-.56-19.38-2.61-30.05-1.52-7.88-3.02-15.98-3.16-23.63-.28-23.67 12.5-42.59 24.8-60.8a308.22 308.22 0 0012.27-19.14c11.77-20.46 17.02-42.81 15.03-64.54-1.98-24.19-14.18-48.22-33.38-65.92z" fill="url(#paint29_linear)"/><path d="M209.36 207.11a52.39 52.39 0 0122.27-3.38c36.36 2.68 67.42 28.16 82.76 43.06 5.29 5.15 12.49 11.92 21.64 18.48 10.78 7.76 21.1 12.6 30.04 13.88 6.7.97 12.69-.15 18.97-1.37 2.1-.38 4.3-.8 6.53-1.11 22.4-3.33 50.53 7.53 69.97 26.97 18.04 18.04 28.97 42.13 29.74 66.24.73 20.93-5.28 41.86-17.84 62.2a307.49 307.49 0 01-12.04 17.77c-13.06 18.49-26.53 37.57-26.39 61.71.06 7.15 1.38 14.79 2.68 22.1 1.82 10.34 3.68 21.08 1.94 30.53-1.61 8.65-6.66 16.15-14.56 21.53-11.56 7.85-28.24 10.7-44.69 7.46-24.83-4.73-50.85-22.07-69.67-46.35-2.12-2.73-4.17-5.58-6.2-8.34-6.96-9.54-14.11-19.54-24.75-26.07-9.24-5.67-19.67-8.32-30.75-11.25a209 209 0 01-18.3-5.3c-15.5-5.53-30.46-15.23-43.1-27.84-12.29-12.22-21.71-26.49-27.1-41.13-5.3-14.14-7.24-28.7-5.7-43.12a88.25 88.25 0 0113.04-37.85c4.47-7.07 9.95-13.45 15.28-19.67 5.18-6.05 10.6-12.3 14.92-19.2 5.99-9.25 14.3-28.07 4.21-49.69a124.62 124.62 0 00-3.9-7.4c-3.24-5.93-6.67-12.11-7.32-18.28-.96-8.95 3.99-17.27 13.37-22.15a24.45 24.45 0 014.95-2.43zm251.8 96.67c-19.4-19.34-47.4-30.14-69.7-26.85-2.24.32-4.34.7-6.41 1.16-6.28 1.23-12.27 2.35-19.06 1.41-9.08-1.34-19.22-6.03-30.17-13.93a193.3 193.3 0 01-21.68-18.58c-15.2-14.85-46.33-40.2-82.5-42.95a52.68 52.68 0 00-27.26 5.72c-9.19 4.8-14.08 13-13.16 21.85.66 6.18 4.06 12.26 7.3 18.2 1.37 2.47 2.74 4.94 3.9 7.4 10.25 21.77 1.75 40.66-4.2 50-4.36 6.8-9.75 13.15-15.02 19.24-5.33 6.22-10.81 12.6-15.28 19.66-14.99 23.51-17.62 53-7.32 80.75 11.41 30.65 38.87 57.62 70.09 68.69a209.1 209.1 0 0018.3 5.3c10.57 2.7 21.52 5.58 30.85 11.22 10.77 6.58 17.88 16.5 24.89 26.13 2.02 2.76 4.07 5.61 6.19 8.34 18.78 24.18 44.77 41.43 69.5 46.2 16.32 3.18 32.91.36 44.47-7.49 7.9-5.38 12.9-12.75 14.41-21.37 1.74-9.44-.09-20.09-1.9-30.42-1.3-7.32-2.62-14.96-2.68-22.1-.18-24.25 13.39-43.36 26.4-61.94a307.49 307.49 0 0012.05-17.78c12.56-20.33 18.51-41.14 17.78-62.06-.98-23.82-11.78-47.85-29.79-65.8z" fill="url(#paint30_linear)"/><path d="M206.8 201.24l.74-.29c7.36-2.6 16.9-2.83 29.15-.77 15.7 2.67 31.9 8.35 46.87 16.43 15.02 8.17 29 18.67 40.31 30.61 2.49 2.59 4.95 5.39 7.25 8.04 4.3 4.79 8.66 9.75 13.57 14.19 8.84 7.97 18.38 12.77 26.8 13.51 5.88.54 11.36-.81 16.56-2.05 2.45-.62 4.89-1.23 7.4-1.66 22.34-3.73 51.18 7.82 70.12 28.2 17.03 18.21 26.42 42.46 25.86 66.45-.43 19.86-7.2 39.37-20.65 59.62a365.72 365.72 0 01-11.57 16.2c-13.9 18.82-28.2 38.21-28.04 63 .01 6.73 1.2 13.77 2.24 20.66 1.63 10.4 3.4 21.18 1.19 30.8-2.49 11.13-10.48 20.19-22.5 25.43-11.6 5.2-25.7 6.41-39.7 3.42-26.16-5.4-53.15-23.88-72.05-49.2-2.18-2.9-4.35-6.04-6.44-8.99-6.92-9.98-14.05-20.2-24.5-27.35-9.39-6.36-20.28-9.36-30.92-12.25-5.03-1.4-10.15-2.75-15.1-4.5-15.85-5.6-30.97-15.45-43.85-28.4-12.43-12.6-21.87-27.18-27.3-42.23-10.18-28.55-6.96-59.01 8.99-83.64 4.71-7.27 10.55-14.1 16.09-20.62 5.54-6.5 11.26-13.1 15.98-20.36 7.89-12.12 15.76-30.98 7.83-51.71-.93-2.43-2.12-4.97-3.27-7.43-2.48-5.36-5.13-10.88-5.27-16.29-.07-8 5.33-15.42 14.2-18.82zm224.28 311.5l-.1.04c-.1-24.9 14.2-44.3 28.1-63.11a366.28 366.28 0 0011.57-16.2c13.45-20.26 20.13-39.73 20.6-59.5.55-23.99-8.9-48.1-25.8-66.26-18.9-20.28-47.6-31.78-69.82-28-2.51.44-5.05 1.09-7.4 1.66-5.3 1.28-10.68 2.6-16.65 2.1-8.46-.84-18-5.64-26.93-13.58-4.91-4.43-9.37-9.37-13.57-14.18a260.2 260.2 0 00-7.25-8.04c-22.9-24-55.45-41.63-87.05-46.98-12.15-2.1-21.7-1.87-29.06.73l-.75.29c-8.77 3.36-14.12 10.65-13.83 18.68.23 5.37 2.79 10.92 5.33 16.16 1.15 2.45 2.34 5 3.27 7.42 7.88 20.86.1 39.7-7.85 51.94-4.72 7.27-10.4 13.94-15.98 20.36-5.63 6.54-11.42 13.25-16.1 20.61-15.89 24.5-19.24 54.91-8.97 83.42 11.15 31.07 39.64 59.36 70.95 70.4 4.96 1.74 10.12 3.19 15.11 4.49 10.54 2.92 21.53 5.89 30.93 12.25 10.53 7.1 17.7 17.43 24.62 27.41 2.1 2.95 4.26 6.08 6.44 9 18.9 25.3 45.76 43.72 71.92 49.13 13.96 2.9 28.06 1.68 39.57-3.48 11.9-5.3 19.92-14.26 22.35-25.26 2.2-9.62.43-20.4-1.29-30.77-1.12-6.85-2.22-13.92-2.23-20.67l-.13-.05z" fill="url(#paint31_linear)"/></g><defs><linearGradient id="paint0_linear" x1="431.76" y1="713.37" x2="193.28" y2="90.34" gradientUnits="userSpaceOnUse"><stop stop-color="#4AFEBF"/><stop offset="1" stop-color="#51EEDA"/></linearGradient><linearGradient id="paint1_linear" x1="430.67" y1="705.3" x2="197.56" y2="96.31" gradientUnits="userSpaceOnUse"><stop stop-color="#4AFEBF"/><stop offset="1" stop-color="#51EEDA"/></linearGradient><linearGradient id="paint2_linear" x1="429.59" y1="697.29" x2="201.83" y2="102.28" gradientUnits="userSpaceOnUse"><stop stop-color="#4AFEBF"/><stop offset="1" stop-color="#51EEDA"/></linearGradient><linearGradient id="paint3_linear" x1="428.4" y1="689.14" x2="206.05" y2="108.26" gradientUnits="userSpaceOnUse"><stop stop-color="#4AFEBF"/><stop offset="1" stop-color="#51EEDA"/></linearGradient><linearGradient id="paint4_linear" x1="427.57" y1="681.38" x2="210.46" y2="114.18" gradientUnits="userSpaceOnUse"><stop stop-color="#4AFEBF"/><stop offset="1" stop-color="#51EEDA"/></linearGradient><linearGradient id="paint5_linear" x1="426.6" y1="673.53" x2="214.77" y2="120.13" gradientUnits="userSpaceOnUse"><stop stop-color="#4AFEBF"/><stop offset="1" stop-color="#51EEDA"/></linearGradient><linearGradient id="paint6_linear" x1="425.93" y1="666.01" x2="219.23" y2="126.03" gradientUnits="userSpaceOnUse"><stop stop-color="#4AFEBF"/><stop offset="1" stop-color="#51EEDA"/></linearGradient><linearGradient id="paint7_linear" x1="424.85" y1="658.73" x2="223.22" y2="131.99" gradientUnits="userSpaceOnUse"><stop stop-color="#4AFEBF"/><stop offset="1" stop-color="#51EEDA"/></linearGradient><linearGradient id="paint8_linear" x1="424.38" y1="651.76" x2="227.67" y2="137.89" gradientUnits="userSpaceOnUse"><stop stop-color="#4AFEBF"/><stop offset="1" stop-color="#51EEDA"/></linearGradient><linearGradient id="paint9_linear" x1="424.33" y1="646.21" x2="231.99" y2="143.73" gradientUnits="userSpaceOnUse"><stop stop-color="#4AFEBF"/><stop offset="1" stop-color="#51EEDA"/></linearGradient><linearGradient id="paint10_linear" x1="424.15" y1="640.59" x2="236.25" y2="149.71" gradientUnits="userSpaceOnUse"><stop stop-color="#4AFEBF"/><stop offset="1" stop-color="#51EEDA"/></linearGradient><linearGradient id="paint11_linear" x1="424.3" y1="635.63" x2="240.54" y2="155.56" gradientUnits="userSpaceOnUse"><stop stop-color="#4AFEBF"/><stop offset="1" stop-color="#51EEDA"/></linearGradient><linearGradient id="paint12_linear" x1="424.68" y1="631.07" x2="244.89" y2="161.39" gradientUnits="userSpaceOnUse"><stop stop-color="#4AFEBF"/><stop offset="1" stop-color="#51EEDA"/></linearGradient><linearGradient id="paint13_linear" x1="425.15" y1="626.65" x2="249.28" y2="167.2" gradientUnits="userSpaceOnUse"><stop stop-color="#4AFEBF"/><stop offset="1" stop-color="#51EEDA"/></linearGradient><linearGradient id="paint14_linear" x1="425.88" y1="622.88" x2="253.65" y2="172.92" gradientUnits="userSpaceOnUse"><stop stop-color="#4AFEBF"/><stop offset="1" stop-color="#51EEDA"/></linearGradient><linearGradient id="paint15_linear" x1="426.57" y1="619.63" x2="257.79" y2="178.72" gradientUnits="userSpaceOnUse"><stop stop-color="#4AFEBF"/><stop offset="1" stop-color="#51EEDA"/></linearGradient><linearGradient id="paint16_linear" x1="427.46" y1="616.28" x2="262.16" y2="184.44" gradientUnits="userSpaceOnUse"><stop stop-color="#4AFEBF"/><stop offset="1" stop-color="#51EEDA"/></linearGradient><linearGradient id="paint17_linear" x1="428.7" y1="613.29" x2="266.7" y2="190.09" gradientUnits="userSpaceOnUse"><stop stop-color="#4AFEBF"/><stop offset="1" stop-color="#51EEDA"/></linearGradient><linearGradient id="paint18_linear" x1="429.67" y1="610.41" x2="270.94" y2="195.75" gradientUnits="userSpaceOnUse"><stop stop-color="#4AFEBF"/><stop offset="1" stop-color="#51EEDA"/></linearGradient><linearGradient id="paint19_linear" x1="430.72" y1="607.55" x2="275.2" y2="201.29" gradientUnits="userSpaceOnUse"><stop stop-color="#4AFEBF"/><stop offset="1" stop-color="#51EEDA"/></linearGradient><linearGradient id="paint20_linear" x1="432.14" y1="604.61" x2="277.57" y2="200.81" gradientUnits="userSpaceOnUse"><stop stop-color="#4AFEBF"/><stop offset="1" stop-color="#51EEDA"/></linearGradient><linearGradient id="paint21_linear" x1="432.72" y1="602.28" x2="278.39" y2="199.1" gradientUnits="userSpaceOnUse"><stop stop-color="#4AFEBF"/><stop offset="1" stop-color="#51EEDA"/></linearGradient><linearGradient id="paint22_linear" x1="428.91" y1="601.55" x2="274.81" y2="198.98" gradientUnits="userSpaceOnUse"><stop stop-color="#4AFEBF"/><stop offset="1" stop-color="#51EEDA"/></linearGradient><linearGradient id="paint23_linear" x1="425.66" y1="600.98" x2="271.67" y2="198.68" gradientUnits="userSpaceOnUse"><stop stop-color="#4AFEBF"/><stop offset="1" stop-color="#51EEDA"/></linearGradient><linearGradient id="paint24_linear" x1="422.02" y1="600.18" x2="268.25" y2="198.49" gradientUnits="userSpaceOnUse"><stop stop-color="#4AFEBF"/><stop offset="1" stop-color="#51EEDA"/></linearGradient><linearGradient id="paint25_linear" x1="418.84" y1="599.27" x2="265.28" y2="198.13" gradientUnits="userSpaceOnUse"><stop stop-color="#4AFEBF"/><stop offset="1" stop-color="#51EEDA"/></linearGradient><linearGradient id="paint26_linear" x1="415.43" y1="598.46" x2="262.08" y2="197.85" gradientUnits="userSpaceOnUse"><stop stop-color="#4AFEBF"/><stop offset="1" stop-color="#51EEDA"/></linearGradient><linearGradient id="paint27_linear" x1="412.67" y1="597.78" x2="259.44" y2="197.47" gradientUnits="userSpaceOnUse"><stop stop-color="#4AFEBF"/><stop offset="1" stop-color="#51EEDA"/></linearGradient><linearGradient id="paint28_linear" x1="409.47" y1="596.78" x2="256.48" y2="197.11" gradientUnits="userSpaceOnUse"><stop stop-color="#4AFEBF"/><stop offset="1" stop-color="#51EEDA"/></linearGradient><linearGradient id="paint29_linear" x1="406.35" y1="595.98" x2="252.99" y2="195.34" gradientUnits="userSpaceOnUse"><stop stop-color="#4AFEBF"/><stop offset="1" stop-color="#51EEDA"/></linearGradient><linearGradient id="paint30_linear" x1="403.86" y1="595.12" x2="249.46" y2="191.76" gradientUnits="userSpaceOnUse"><stop stop-color="#4AFEBF"/><stop offset="1" stop-color="#51EEDA"/></linearGradient><linearGradient id="paint31_linear" x1="400.84" y1="594.01" x2="244.91" y2="186.65" gradientUnits="userSpaceOnUse"><stop stop-color="#4AFEBF"/><stop offset="1" stop-color="#51EEDA"/></linearGradient><clipPath id="clip0"><path fill="#fff" transform="rotate(-180 146.5 386.63)" d="M0 0h293v773H0z"/></clipPath></defs></svg>