<?xml version="1.0" standalone="no"?>
<!DOCTYPE svg PUBLIC "-//W3C//DTD SVG 1.1//EN" "http://www.w3.org/Graphics/SVG/1.1/DTD/svg11.dtd" >
<svg xmlns="http://www.w3.org/2000/svg" xmlns:xlink="http://www.w3.org/1999/xlink" version="1.1">
<metadata>
Created by FontForge 20170731 at Thu Aug 12 11:46:31 2021
 By Aleksey,,,
Copyright (c) 2020 by Horizon Type Foundry. All rights reserved.
</metadata>
<defs>
<font id="AcherusFeral-Bold" horiz-adv-x="1327" >
  <font-face 
    font-family="Acherus Feral Bold"
    font-weight="700"
    font-stretch="normal"
    units-per-em="2048"
    panose-1="0 0 0 0 0 0 0 0 0 0"
    ascent="1638"
    descent="-410"
    x-height="1069"
    cap-height="1434"
    bbox="-90 -483 2836 2030"
    underline-thickness="102"
    underline-position="-307"
    unicode-range="U+000D-FB03"
  />
<missing-glyph horiz-adv-x="518" 
 />
    <glyph glyph-name="f_f" unicode="ff" horiz-adv-x="1595" 
d="M455 0h-256v840h-142v229h142v123q0 189 96 281t262 92q138 0 262 -58l-78 -209q-95 35 -170 35q-61 0 -90.5 -32.5t-29.5 -108.5v-123h532v123q0 189 96 281t262 92q139 0 263 -58l-78 -209q-95 35 -170 35q-61 0 -91 -32.5t-30 -108.5v-123h326v-229h-322v-840h-256
v840h-528v-840z" />
    <glyph glyph-name="fi" unicode="fi" horiz-adv-x="1376" 
d="M455 0h-256v840h-142v229h142v123q0 189 96 281t262 92q139 0 248 -56l-76 -206q-91 30 -158 30q-61 0 -90.5 -32.5t-29.5 -108.5v-123h766v-1069h-256v840h-506v-840zM932 1407q0 65 44.5 110.5t108.5 45.5q66 0 111 -45.5t45 -110.5t-45 -110.5t-111 -45.5
q-64 0 -108.5 45.5t-44.5 110.5z" />
    <glyph glyph-name="f_f_i" unicode="ffi" horiz-adv-x="2162" 
d="M455 0h-256v840h-142v229h142v123q0 189 96 281t262 92q138 0 262 -58l-78 -209q-95 35 -170 35q-61 0 -90.5 -32.5t-29.5 -108.5v-123h532v123q0 189 96 281t262 92q139 0 248 -56l-76 -206q-92 30 -157 30q-61 0 -91 -32.5t-30 -108.5v-123h766v-1069h-256v840h-506
v-840h-256v840h-528v-840zM1716 1407q0 65 45 110.5t109 45.5q66 0 110.5 -45.5t44.5 -110.5t-44.5 -110.5t-110.5 -45.5q-64 0 -109 45.5t-45 110.5z" />
    <glyph glyph-name="f_t.dlig" unicode="ft" horiz-adv-x="1644" 
d="M455 0h-256v840h-142v229h142v123q0 189 96 281t262 92q138 0 262 -58l-78 -209q-95 35 -170 35q-61 0 -90.5 -32.5t-29.5 -108.5v-123h524v227h246v-227h325v-229h-325v-480q0 -84 27 -116.5t89 -32.5q75 0 166 45l84 -205q-112 -74 -262 -74q-172 0 -266 95t-94 288
v480h-510v-840z" />
    <glyph glyph-name="f_f_j.dlig" unicode="ffj" horiz-adv-x="2304" 
d="M455 0h-256v840h-142v229h142v123q0 189 96 281t262 92q138 0 262 -58l-78 -209q-95 35 -170 35q-61 0 -90.5 -32.5t-29.5 -108.5v-123h532v123q0 189 96 281t262 92q139 0 263 -58l-78 -209q-95 35 -170 35q-61 0 -91 -32.5t-30 -108.5v-123h909v-1036
q0 -216 -90.5 -332.5t-267.5 -116.5q-164 0 -293 78l96 207q87 -51 168 -51q69 0 101 49.5t32 161.5v811h-651v-840h-256v840h-528v-840zM2009 1251q-64 0 -109 45.5t-45 110.5t45 110.5t109 45.5q66 0 111 -45.5t45 -110.5t-45 -110.5t-111 -45.5z" />
    <glyph glyph-name="f_j.dlig" unicode="fj" horiz-adv-x="1521" 
d="M455 0h-256v840h-142v229h142v123q0 189 96 281t262 92q138 0 262 -58l-78 -209q-95 35 -170 35q-61 0 -90.5 -32.5t-29.5 -108.5v-123h909v-1036q0 -216 -91.5 -332.5t-269.5 -116.5q-161 0 -290 78l96 207q85 -51 168 -51q69 0 100 49.5t31 161.5v811h-649v-840z
M1073 1407q0 65 44.5 110.5t109.5 45.5q64 0 109.5 -45.5t45.5 -110.5t-45.5 -110.5t-109.5 -45.5q-65 0 -109.5 45.5t-44.5 110.5z" />
    <glyph glyph-name=".notdef" horiz-adv-x="518" 
 />
    <glyph glyph-name="uni0000" horiz-adv-x="0" 
 />
    <glyph glyph-name="uni0000" horiz-adv-x="0" 
 />
    <glyph glyph-name="uni000D" unicode="&#xd;" horiz-adv-x="518" 
 />
    <glyph glyph-name="space" unicode=" " horiz-adv-x="409" 
 />
    <glyph glyph-name="exclam" unicode="!" horiz-adv-x="616" 
d="M426 500h-233l-37 934h307zM145 135q0 68 47.5 116t114.5 48t115.5 -48.5t48.5 -115.5t-48 -114.5t-116 -47.5q-67 0 -114.5 47.5t-47.5 114.5z" />
    <glyph glyph-name="quotedbl" unicode="&#x22;" horiz-adv-x="860" 
d="M289 838h-166v596h266zM672 838h-166v596h266z" />
    <glyph glyph-name="numbersign" unicode="#" horiz-adv-x="1607" 
d="M494 0h-197l88 346h-279v193h330l88 350h-307v192h356l93 353h196l-92 -353h248l90 353h197l-91 -353h302v-192h-351l-88 -350h314v-193h-365l-88 -346h-197l90 346h-249zM721 889l-90 -350h250l88 350h-248z" />
    <glyph glyph-name="dollar" unicode="$" 
d="M758 -193h-162v197q-306 23 -506 182l125 207q87 -62 187.5 -104.5t193.5 -55.5v369q-57 10 -96 18.5t-90.5 24.5t-86.5 35t-72.5 49t-60 67t-37 89.5t-14.5 115.5q0 190 125.5 300.5t331.5 128.5v196h162v-194q114 -9 217 -46t221 -114l-121 -203q-156 109 -317 131
v-366q45 -7 75 -12.5t73 -15.5t72.5 -21t65.5 -29t60.5 -38.5t49.5 -49.5t39.5 -63.5t24 -80t9.5 -98.5q0 -182 -124 -294.5t-345 -129.5v-195zM596 860v342q-199 -23 -199 -180q0 -72 50.5 -107t148.5 -55zM758 573v-342q203 23 203 177q0 75 -50.5 109t-152.5 56z" />
    <glyph glyph-name="percent" unicode="%" horiz-adv-x="1837" 
d="M449 727q-154 0 -251.5 97.5t-97.5 269.5t97.5 269t251.5 97q156 0 254 -97t98 -269t-98.5 -269.5t-253.5 -97.5zM657 0h-213l727 1434h215zM449 907q69 0 108 50t39 137t-38.5 136.5t-108.5 49.5q-68 0 -106 -49.5t-38 -136.5t38 -137t106 -50zM1386 -23
q-155 0 -252.5 97t-97.5 270t97.5 270t252.5 97q154 0 252.5 -97.5t98.5 -269.5t-98.5 -269.5t-252.5 -97.5zM1386 158q68 0 107 50t39 136q0 87 -38.5 136.5t-107.5 49.5q-70 0 -107.5 -49.5t-37.5 -136.5t37.5 -136.5t107.5 -49.5z" />
    <glyph glyph-name="ampersand" unicode="&#x26;" horiz-adv-x="1521" 
d="M365 748l51 24l-13 14q-59 60 -101 143t-42 173q0 161 112 259.5t302 98.5q184 0 294.5 -102.5t110.5 -259.5q0 -234 -274 -379l201 -209l196 235h285l-326 -397l334 -348h-338l-170 176q-92 -102 -197 -152.5t-255 -50.5q-191 0 -320 107.5t-129 279.5q0 257 279 388z
M649 881l10 -11q104 49 143.5 99t39.5 118q0 66 -46 111t-122 45q-75 0 -117.5 -38.5t-42.5 -100.5q0 -49 33 -100t102 -123zM840 330l-267 278l-36 -16q-45 -21 -73 -37t-56.5 -41t-42 -58t-13.5 -75q0 -86 62.5 -135t146.5 -49q85 0 149 32.5t130 100.5z" />
    <glyph glyph-name="quotesingle" unicode="'" horiz-adv-x="479" 
d="M289 838h-166v596h266z" />
    <glyph glyph-name="parenleft" unicode="(" horiz-adv-x="868" 
d="M803 -45l-117 -207q-274 141 -421.5 389t-147.5 582q0 333 149.5 583t419.5 384l117 -205q-229 -137 -330.5 -320.5t-101.5 -441.5q0 -259 99.5 -440t332.5 -324z" />
    <glyph glyph-name="parenright" unicode=")" horiz-adv-x="868" 
d="M180 -252l-114 207q233 143 332.5 324t99.5 440q0 258 -101.5 441.5t-330.5 320.5l116 205q270 -134 420 -384t150 -583q0 -334 -148.5 -582t-423.5 -389z" />
    <glyph glyph-name="asterisk" unicode="*" horiz-adv-x="985" 
d="M422 1024l-236 -141l-82 164l236 96l-236 100l84 158l234 -144l-21 275h183l-21 -275l234 144l82 -158l-234 -100l236 -101l-84 -161l-234 143l21 -272h-183z" />
    <glyph glyph-name="plus" unicode="+" horiz-adv-x="1245" 
d="M739 248h-235v356h-350v236h350v356h235v-356h353v-236h-353v-356z" />
    <glyph glyph-name="comma" unicode="," horiz-adv-x="581" 
d="M98 -426l-65 137q256 81 256 273h-15q-63 0 -106 47.5t-43 111.5q0 68 48.5 116t117.5 48q73 0 122.5 -53.5t49.5 -149.5v-30q0 -382 -365 -500z" />
    <glyph glyph-name="hyphen" unicode="-" horiz-adv-x="1208" 
d="M983 604h-758v236h758v-236z" />
    <glyph glyph-name="period" unicode="." horiz-adv-x="581" 
d="M125 143q0 68 48.5 116t117.5 48t117.5 -48t48.5 -116t-48.5 -117t-117.5 -49t-117.5 49t-48.5 117z" />
    <glyph glyph-name="slash" unicode="/" horiz-adv-x="886" 
d="M317 0h-243l495 1434h244z" />
    <glyph glyph-name="zero" unicode="0" horiz-adv-x="1357" 
d="M678 -27q-145 0 -258 58.5t-182.5 161t-105.5 235.5t-36 289q0 124 22 234t69 203.5t114.5 161.5t164 106t212.5 38q117 0 213.5 -38t164 -106t114 -161.5t68.5 -203.5t22 -234t-22 -234t-68.5 -204t-114 -161.5t-164 -106t-213.5 -38.5zM678 213q72 0 128 28.5t91 75
t57.5 113t31.5 136.5t9 151t-9 151t-32 136.5t-58 113.5t-91 75t-127 28t-127 -28t-91 -75t-57.5 -113.5t-31.5 -136.5t-9 -151t9 -151t31.5 -136.5t57.5 -113.5t91 -75t127 -28z" />
    <glyph glyph-name="one" unicode="1" horiz-adv-x="804" 
d="M635 0h-262v1126l-244 -108l-90 231l432 185h164v-1434z" />
    <glyph glyph-name="two" unicode="2" horiz-adv-x="1179" 
d="M1090 0h-996l2 186l539 551q78 78 111.5 138t33.5 137q0 98 -58.5 153.5t-158.5 55.5q-78 0 -156.5 -40t-170.5 -130l-162 182q114 111 236.5 169t269.5 58q214 0 340.5 -118.5t126.5 -313.5q0 -119 -49.5 -220.5t-157.5 -211.5l-351 -360h601v-236z" />
    <glyph glyph-name="three" unicode="3" horiz-adv-x="1191" 
d="M49 203l162 180q162 -176 371 -176q133 0 195.5 55.5t62.5 149.5q0 92 -68.5 147t-191.5 55h-244v220h235q123 0 177.5 55t54.5 131q0 98 -64 152.5t-172 54.5q-89 0 -167.5 -41t-166.5 -133l-159 176q98 110 232 170.5t282 60.5q72 0 140.5 -15t130 -47t108 -79
t73.5 -115.5t27 -150.5q0 -220 -195 -320v-2q234 -97 234 -336q0 -102 -42 -184t-114.5 -133t-166 -78t-201.5 -27q-159 0 -298 61.5t-235 168.5z" />
    <glyph glyph-name="four" unicode="4" horiz-adv-x="1220" 
d="M739 326h-698v204l674 904h276v-875h189v-233h-189v-326h-252v326zM743 1092l-399 -535h399v535z" />
    <glyph glyph-name="five" unicode="5" horiz-adv-x="1200" 
d="M47 209l168 182q160 -178 373 -178q126 0 194 63.5t68 165.5q0 107 -71.5 162t-211.5 55h-434l98 775h811v-236h-585l-39 -305h172q116 0 208.5 -23.5t165.5 -73.5t112.5 -136t39.5 -203q0 -231 -144 -357.5t-384 -126.5q-162 0 -301.5 63t-239.5 173z" />
    <glyph glyph-name="six" unicode="6" horiz-adv-x="1214" 
d="M987 1434l-393 -500q18 4 57 4q215 0 347 -134.5t132 -346.5q0 -211 -140 -347.5t-382 -136.5q-243 0 -382.5 136.5t-139.5 347.5q0 72 15 136t47.5 125t62.5 105t80 109l393 502h303zM340 457q0 -115 71 -182.5t197 -67.5t197.5 67.5t71.5 182.5t-71 181.5t-198 66.5
t-197.5 -66t-70.5 -182z" />
    <glyph glyph-name="seven" unicode="7" horiz-adv-x="1177" 
d="M442 0l-292 -2l653 1194h-717v242h1030v-207z" />
    <glyph glyph-name="eight" unicode="8" horiz-adv-x="1239" 
d="M336 733v4q-22 8 -47 23t-55 42.5t-54 61t-40.5 83t-16.5 104.5q0 182 125 295.5t373 113.5q246 0 370.5 -113.5t124.5 -295.5q0 -55 -16.5 -104.5t-40.5 -83t-54 -61t-55 -42.5t-47 -23v-4q250 -105 250 -344q0 -191 -138.5 -303.5t-393.5 -112.5q-256 0 -395.5 112.5
t-139.5 303.5q0 239 250 344zM381 1036q0 -92 64.5 -145t175.5 -53q109 0 174 53t65 145q0 88 -63 142.5t-176 54.5q-114 0 -177 -54t-63 -143zM344 414q0 -96 71 -153.5t206 -57.5q134 0 204 57.5t70 153.5q0 101 -76.5 158t-197.5 57q-122 0 -199.5 -57t-77.5 -158z" />
    <glyph glyph-name="nine" unicode="9" horiz-adv-x="1214" 
d="M530 0h-301l392 500q-18 -4 -56 -4q-216 0 -347.5 134t-131.5 347q0 137 60 245.5t179.5 173t282.5 64.5q242 0 382 -136.5t140 -346.5q0 -72 -15 -136t-47.5 -124.5t-63 -104.5t-80.5 -108zM340 977q0 -115 71 -181.5t197 -66.5q127 0 198 66t71 182t-71 183t-198 67
t-197.5 -67t-70.5 -183z" />
    <glyph glyph-name="colon" unicode=":" horiz-adv-x="581" 
d="M125 918q0 68 48.5 115.5t117.5 47.5t117.5 -47.5t48.5 -115.5t-48.5 -117t-117.5 -49t-117.5 49t-48.5 117zM125 143q0 68 48.5 116t117.5 48t117.5 -48t48.5 -116t-48.5 -117t-117.5 -49t-117.5 49t-48.5 117z" />
    <glyph glyph-name="semicolon" unicode=";" horiz-adv-x="581" 
d="M127 918q0 68 48 115.5t118 47.5q69 0 116.5 -47.5t47.5 -115.5t-48 -117t-116 -49q-70 0 -118 49t-48 117zM100 -426l-65 137q134 43 195 114.5t61 158.5h-17q-62 0 -104.5 47.5t-42.5 111.5q0 68 47.5 116t116.5 48q73 0 123.5 -54t50.5 -149v-30q0 -381 -365 -500z
" />
    <glyph glyph-name="less" unicode="&#x3c;" horiz-adv-x="1050" 
d="M928 221l-834 393v211l834 394v-248l-531 -250l531 -252v-248z" />
    <glyph glyph-name="equal" unicode="=" horiz-adv-x="1073" 
d="M920 811h-766v207h766v-207zM920 418h-766v209h766v-209z" />
    <glyph glyph-name="greater" unicode="&#x3e;" horiz-adv-x="1050" 
d="M958 614l-835 -393v248l530 252l-530 250v248l835 -394v-211z" />
    <glyph glyph-name="question" unicode="?" horiz-adv-x="1030" 
d="M539 500h-203l-12 286q185 34 265.5 98.5t80.5 159.5q0 87 -48.5 134t-134.5 47q-151 0 -299 -107l-122 203q122 74 223.5 106.5t206.5 32.5q108 0 192.5 -33.5t135 -90.5t76.5 -126t26 -145q0 -157 -101 -261t-274 -159zM266 143q0 68 48.5 116t117.5 48t117.5 -48
t48.5 -116t-48.5 -117t-117.5 -49t-117.5 49t-48.5 117z" />
    <glyph glyph-name="at" unicode="@" horiz-adv-x="2082" 
d="M1352 -156l53 -221q-142 -67 -350 -67q-196 0 -375 76.5t-309.5 205.5t-207.5 308t-77 376t77 376t207.5 308.5t309.5 206t375 76.5t371 -70t300.5 -189.5t199 -287t73.5 -354.5q0 -153 -42.5 -266.5t-136.5 -181.5t-231 -68q-195 0 -295 170l-6 8q-50 -82 -133 -130
t-194 -48q-169 0 -281.5 130.5t-112.5 319.5q0 190 112.5 320.5t281.5 130.5q171 0 272 -137v118h217v-491q0 -164 139 -164q86 0 124 63.5t38 212.5q0 204 -90 361.5t-247.5 241.5t-358.5 84q-199 0 -363.5 -95t-261 -265t-96.5 -380q0 -157 56.5 -295.5t153.5 -235
t229.5 -152.5t281.5 -56q129 0 297 61zM1012 299q88 0 143 64.5t55 158.5q0 93 -55 156t-143 63q-90 0 -145.5 -61.5t-55.5 -157.5q0 -98 55.5 -160.5t145.5 -62.5z" />
    <glyph glyph-name="A" unicode="A" horiz-adv-x="1529" 
d="M301 0h-297l637 1434h248l635 -1434h-297l-129 297h-666zM762 1071l-238 -541h482l-240 541h-4z" />
    <glyph glyph-name="B" unicode="B" horiz-adv-x="1382" 
d="M778 0h-606v1434h555q74 0 143.5 -12t138 -41.5t119 -73t82 -112.5t31.5 -155q0 -201 -199 -305v-2q250 -107 250 -342q0 -84 -28 -151.5t-75 -111.5t-113.5 -73.5t-140 -42t-157.5 -12.5zM434 1206v-370h299q117 0 180.5 48.5t63.5 131.5q0 100 -65 145t-197 45h-281z
M434 612v-385h330q137 0 200.5 46t63.5 141q0 90 -69 144t-189 54h-336z" />
    <glyph glyph-name="C" unicode="C" horiz-adv-x="1447" 
d="M1212 406l170 -189q-98 -113 -252.5 -178.5t-308.5 -65.5q-153 0 -289 58t-234 157t-155 237t-57 292t57 292t155 237t234 156.5t289 57.5q155 0 304.5 -63t258.5 -178l-176 -195q-87 101 -180.5 149t-206.5 48q-139 0 -248 -70.5t-166 -184.5t-57 -249t57 -249
t166 -184.5t248 -70.5q219 0 391 193z" />
    <glyph glyph-name="D" unicode="D" horiz-adv-x="1544" 
d="M733 0h-561v1434h561q205 0 370.5 -91.5t260 -255.5t94.5 -370t-94.5 -370t-260 -255.5t-370.5 -91.5zM434 1198v-962h299q140 0 246 64.5t160.5 173t54.5 243.5t-54.5 243.5t-160.5 173t-246 64.5h-299z" />
    <glyph glyph-name="E" unicode="E" horiz-adv-x="1316" 
d="M1196 0h-1024v1434h1014v-236h-752v-358h715v-236h-715v-368h762v-236z" />
    <glyph glyph-name="F" unicode="F" horiz-adv-x="1280" 
d="M434 0h-262v1434h1012v-232l-750 2v-366h731v-232h-731v-606z" />
    <glyph glyph-name="G" unicode="G" horiz-adv-x="1542" 
d="M1153 549h-338v237h600v-561q-116 -122 -276.5 -187t-317.5 -65q-153 0 -289 58t-234 157t-155 237t-57 292t57 292t155 237t234 156.5t289 57.5q155 0 307.5 -64.5t255.5 -178.5l-178 -191q-170 195 -385 195q-139 0 -248 -70.5t-166 -184.5t-57 -249t57 -249
t166 -184.5t248 -70.5q95 0 182 29t150 77v230z" />
    <glyph glyph-name="H" unicode="H" horiz-adv-x="1540" 
d="M434 0h-262v1434h262v-594h672v594h262v-1434h-262v604h-672v-604z" />
    <glyph glyph-name="I" unicode="I" horiz-adv-x="604" 
d="M434 0h-262v1434h262v-1434z" />
    <glyph glyph-name="J" unicode="J" horiz-adv-x="1052" 
d="M72 59l94 217q113 -63 237 -63q111 0 171.5 74t60.5 243v666h-399v238h661v-914q0 -263 -129.5 -405t-339.5 -142q-95 0 -192 23.5t-164 62.5z" />
    <glyph glyph-name="K" unicode="K" horiz-adv-x="1382" 
d="M434 0h-262v1434h262v-598l551 598h344l-571 -623l594 -811h-322l-461 623l-135 -152v-471z" />
    <glyph glyph-name="L" unicode="L" horiz-adv-x="1173" 
d="M1104 0h-932v1434h262v-1203h670v-231z" />
    <glyph glyph-name="M" unicode="M" horiz-adv-x="1812" 
d="M434 0h-262v1434h262l471 -768h2l473 768h260v-1434h-262v950h-2l-444 -731h-51l-445 731h-2v-950z" />
    <glyph glyph-name="N" unicode="N" horiz-adv-x="1589" 
d="M434 0h-262v1434h252l729 -988h2v988h262v-1434h-254l-727 989h-2v-989z" />
    <glyph glyph-name="O" unicode="O" horiz-adv-x="1642" 
d="M821 -27q-153 0 -289 58t-234 157t-155 237t-57 292t57 292t155 237t234 156.5t289 57.5t289 -57.5t234 -156.5t155 -237t57 -292t-57 -292t-155 -237t-234 -157t-289 -58zM821 213q140 0 249 70.5t165.5 184.5t56.5 249t-56.5 249t-165.5 184.5t-249 70.5
q-139 0 -247.5 -70.5t-165 -184.5t-56.5 -249t56.5 -249t165 -184.5t247.5 -70.5z" />
    <glyph glyph-name="P" unicode="P" horiz-adv-x="1306" 
d="M434 0h-262v1434h547q94 0 181.5 -27t162 -80.5t119.5 -146t45 -211.5q0 -96 -30 -176t-79.5 -133t-116 -90t-137.5 -53.5t-145 -16.5h-285v-500zM434 1198v-463h260q141 0 205 64.5t64 169.5q0 103 -64 166t-205 63h-260z" />
    <glyph glyph-name="Q" unicode="Q" horiz-adv-x="1642" 
d="M821 -27q-153 0 -289 58t-234 157t-155 237t-57 292t57 292t155 237t234 156.5t289 57.5t289 -57.5t234 -156.5t155 -237t57 -292q0 -160 -59.5 -300t-167.5 -243l260 -369l-289 -2l-165 238q-149 -68 -314 -68zM821 213q90 0 172 31l-262 374l289 -2l162 -229
q110 141 110 330q0 135 -57 249t-166 184.5t-248 70.5t-248 -70.5t-166 -184.5t-57 -249t57 -249t166 -184.5t248 -70.5z" />
    <glyph glyph-name="R" unicode="R" horiz-adv-x="1378" 
d="M434 0h-262v1434h616q72 0 139 -13t131.5 -44t112 -77.5t76.5 -119.5t29 -164q0 -80 -23 -145.5t-61.5 -110t-92 -77.5t-111 -50.5t-122.5 -24.5l447 -608h-305l-445 604h-129v-604zM434 1198v-367h330q246 0 246 185q0 89 -56 135.5t-190 46.5h-330z" />
    <glyph glyph-name="S" unicode="S" 
d="M88 158l131 215q104 -73 227.5 -116.5t227.5 -43.5q139 0 213 50t74 136q0 38 -14.5 66.5t-36 47t-60 33t-73 23t-87.5 17.5q-15 3 -45 8q-52 9 -79 14t-77.5 16.5t-79 22.5t-71 29.5t-67 39t-53.5 51t-44.5 66t-26 82.5t-10.5 101q0 205 150.5 324.5t382.5 119.5
q149 0 268 -35.5t258 -126.5l-127 -211q-201 134 -389 134q-128 0 -202.5 -49t-74.5 -148q0 -21 5 -39.5t12 -33t22 -26.5t27.5 -21t35.5 -17t39 -13t46 -11.5t47.5 -9.5l52.5 -9q186 -29 266 -56q198 -68 251 -231q20 -64 20 -145q0 -195 -150 -317t-393 -122
q-166 0 -321.5 47t-274.5 138z" />
    <glyph glyph-name="T" unicode="T" horiz-adv-x="1214" 
d="M739 0h-262v1194h-446v240h1153v-240h-445v-1194z" />
    <glyph glyph-name="U" unicode="U" horiz-adv-x="1519" 
d="M156 590v844h262v-834q0 -195 89.5 -291t252.5 -96q164 0 253 96t89 291v834h262v-844q0 -149 -47 -268t-130 -194.5t-191.5 -115t-235.5 -39.5t-235.5 39.5t-191.5 115t-130 194.5t-47 268z" />
    <glyph glyph-name="V" unicode="V" horiz-adv-x="1466" 
d="M864 0h-262l-592 1434h277l444 -1088h4l445 1088h276z" />
    <glyph glyph-name="W" unicode="W" horiz-adv-x="2142" 
d="M743 0h-264l-473 1434h270l330 -1024h2l332 1024h264l330 -1024h2l332 1024h268l-473 -1434h-264l-328 1053h-2z" />
    <glyph glyph-name="X" unicode="X" horiz-adv-x="1421" 
d="M352 0h-319l538 713l-534 721h319l355 -486l356 486h317l-534 -721l541 -713h-320l-360 481z" />
    <glyph glyph-name="Y" unicode="Y" horiz-adv-x="1359" 
d="M811 0h-262v539l-549 895h311l371 -617l369 617h309l-549 -895v-539z" />
    <glyph glyph-name="Z" unicode="Z" horiz-adv-x="1318" 
d="M1255 0h-1165v225l807 973h-778v236h1120v-226l-807 -972h823v-236z" />
    <glyph glyph-name="bracketleft" unicode="[" horiz-adv-x="761" 
d="M666 -236h-494v1907h494v-219h-258v-1468h258v-220z" />
    <glyph glyph-name="backslash" unicode="\" horiz-adv-x="851" 
d="M797 0h-244l-496 1434h244z" />
    <glyph glyph-name="bracketright" unicode="]" horiz-adv-x="761" 
d="M590 -236h-496v220h258v1468h-258v219h496v-1907z" />
    <glyph glyph-name="asciicircum" unicode="^" horiz-adv-x="700" 
d="M225 1202h-200l215 350h221l215 -350h-199l-125 207h-4z" />
    <glyph glyph-name="underscore" unicode="_" horiz-adv-x="1167" 
d="M1069 -393h-973v221h973v-221z" />
    <glyph glyph-name="grave" unicode="`" horiz-adv-x="589" 
d="M508 1618h-203l-225 319h231z" />
    <glyph glyph-name="a" unicode="a" horiz-adv-x="1196" 
d="M856 0l-45 141q-39 -70 -122 -117t-216 -47q-161 0 -272 93.5t-111 255.5q0 158 118.5 241.5t307.5 83.5q136 0 277 -37q0 82 -9 127.5t-37 74.5t-73.5 38.5t-126.5 9.5q-187 0 -324 -43l-55 219q50 17 178 34.5t246 17.5q85 0 150 -10.5t113.5 -29t82.5 -51t55.5 -71
t34 -94t17 -114t4.5 -138.5v-584h-193zM799 422v10q-125 33 -250 33q-98 0 -148.5 -37t-50.5 -104q0 -66 49.5 -103t132.5 -37q137 0 202 67t65 171z" />
    <glyph glyph-name="b" unicode="b" horiz-adv-x="1341" 
d="M326 0h-164v1542h256v-620q50 68 141 119t211 51q141 0 254 -74t175.5 -201.5t62.5 -281.5q0 -153 -62.5 -280.5t-176 -202.5t-253.5 -75q-249 0 -399 185zM707 211q130 0 212 92t82 232q0 141 -81.5 232t-212.5 91q-126 0 -208.5 -92.5t-82.5 -230.5q0 -137 82.5 -230.5
t208.5 -93.5z" />
    <glyph glyph-name="c" unicode="c" horiz-adv-x="1128" 
d="M887 352l184 -174q-177 -201 -434 -201q-157 0 -284.5 74t-199 201.5t-71.5 282.5t71.5 282.5t199 201t284.5 73.5q128 0 238.5 -50.5t191.5 -146.5l-178 -172q-57 69 -117 102t-135 33q-130 0 -213.5 -91.5t-83.5 -231.5q0 -139 83.5 -231.5t213.5 -92.5q153 0 250 141z
" />
    <glyph glyph-name="d" unicode="d" horiz-adv-x="1341" 
d="M1016 0l-45 162q-64 -81 -165 -133t-235 -52q-140 0 -253 75t-174.5 202t-61.5 281q0 115 36.5 218t100 177.5t155 118t197.5 43.5q121 0 211.5 -51t143.5 -119v620h256v-1542h-166zM635 211q127 0 209 93.5t82 230.5q0 138 -81.5 230.5t-209.5 92.5q-131 0 -213 -91
t-82 -232q0 -140 82 -232t213 -92z" />
    <glyph glyph-name="e" unicode="e" horiz-adv-x="1208" 
d="M1126 436h-782q23 -114 101 -174.5t198 -60.5q88 0 151.5 21t147.5 79l119 -172q-98 -82 -196.5 -117t-229.5 -35q-159 0 -286 74t-197 201.5t-70 282.5q0 154 72 282t197 201.5t274 73.5q97 0 178.5 -29t140.5 -81t100.5 -122.5t61.5 -154t20 -175.5v-94zM342 621h532
q-10 107 -72.5 179t-174.5 72q-111 0 -187.5 -65.5t-97.5 -185.5z" />
    <glyph glyph-name="f" unicode="f" horiz-adv-x="808" 
d="M455 0h-256v836h-142v229h142v127q0 189 96 281t262 92q138 0 262 -58l-78 -209q-95 35 -170 35q-61 0 -90.5 -32.5t-29.5 -108.5v-127h325v-229h-321v-836z" />
    <glyph glyph-name="g" unicode="g" horiz-adv-x="1341" 
d="M219 -334l66 215q158 -74 315 -74q184 0 255 71t71 216v82q-52 -68 -143 -118t-212 -50q-214 0 -351.5 153t-137.5 386q0 154 62 278.5t174 195.5t253 71q135 0 235.5 -51t164.5 -132l45 160h166v-928q0 -557 -561 -557q-245 0 -402 82zM635 242q129 0 210 85t81 220
q0 136 -81.5 223.5t-209.5 87.5q-132 0 -213.5 -86t-81.5 -225q0 -138 81.5 -221.5t213.5 -83.5z" />
    <glyph glyph-name="h" unicode="h" horiz-adv-x="1253" 
d="M418 0h-256v1542h256v-600q45 59 119.5 104.5t177.5 45.5q87 0 156 -24.5t123.5 -77t84 -144.5t29.5 -219v-627h-256v592q0 133 -56 197.5t-157 64.5q-99 0 -160 -74.5t-61 -199.5v-580z" />
    <glyph glyph-name="i" unicode="i" horiz-adv-x="577" 
d="M133 1407q0 65 44.5 110.5t109.5 45.5q64 0 109.5 -45.5t45.5 -110.5t-45.5 -110.5t-109.5 -45.5q-65 0 -109.5 45.5t-44.5 110.5zM418 0h-256v1069h256v-1069z" />
    <glyph glyph-name="j" unicode="j" horiz-adv-x="751" 
d="M305 1407q0 65 45 110.5t111 45.5q64 0 109.5 -45.5t45.5 -110.5t-45.5 -110.5t-109.5 -45.5q-66 0 -111 45.5t-45 110.5zM-47 -352l86 207q86 -37 168 -37q71 0 102 49.5t31 161.5v811h-274v229h530v-1036q0 -216 -91.5 -332.5t-268.5 -116.5q-151 0 -283 64z" />
    <glyph glyph-name="k" unicode="k" horiz-adv-x="1177" 
d="M418 0h-256v1542h256v-903l407 430h322l-430 -455l446 -614h-303l-321 436l-121 -129v-307z" />
    <glyph glyph-name="l" unicode="l" horiz-adv-x="577" 
d="M418 0h-256v1542h256v-1542z" />
    <glyph glyph-name="m" unicode="m" horiz-adv-x="1878" 
d="M418 0h-256v1069h166l49 -172q44 78 125.5 136.5t197.5 58.5q245 0 322 -193q50 81 136.5 137t203.5 56q180 0 275.5 -107t95.5 -356v-629h-256v592q0 137 -45.5 199.5t-141.5 62.5q-94 0 -151 -63.5t-64 -178.5v-612h-256v592q0 137 -46 199.5t-142 62.5
q-100 0 -156.5 -73.5t-56.5 -200.5v-580z" />
    <glyph glyph-name="n" unicode="n" horiz-adv-x="1253" 
d="M418 0h-256v1069h166l49 -174q42 74 132 135.5t206 61.5q393 0 393 -465v-627h-254v592q0 133 -56.5 197.5t-156.5 64.5t-161.5 -74.5t-61.5 -199.5v-580z" />
    <glyph glyph-name="o" unicode="o" horiz-adv-x="1271" 
d="M82 535q0 155 71.5 282.5t199 201t284.5 73.5t284.5 -73.5t199 -201t71.5 -282.5t-71.5 -282.5t-199 -201.5t-284.5 -74t-284.5 74t-199 201.5t-71.5 282.5zM637 211q129 0 212 92.5t83 231.5q0 140 -82.5 231.5t-212.5 91.5t-213.5 -91.5t-83.5 -231.5
q0 -139 83.5 -231.5t213.5 -92.5z" />
    <glyph glyph-name="p" unicode="p" horiz-adv-x="1341" 
d="M418 -393h-256v1462h164l45 -160q149 183 399 183q141 0 254 -74t175.5 -201.5t62.5 -281.5q0 -153 -62.5 -280.5t-176 -202.5t-253.5 -75q-120 0 -211 52t-141 121v-543zM707 211q130 0 212 92t82 232q0 141 -81.5 232t-212.5 91q-126 0 -208.5 -92.5t-82.5 -230.5
q0 -137 82.5 -230.5t208.5 -93.5z" />
    <glyph glyph-name="q" unicode="q" horiz-adv-x="1341" 
d="M1182 -393h-256v543q-52 -70 -143 -121.5t-212 -51.5q-140 0 -253 75t-174.5 202t-61.5 281q0 115 36.5 218t100 177.5t155 118t197.5 43.5q135 0 235.5 -51t164.5 -132l43 160h168v-1462zM635 211q127 0 209 93.5t82 230.5q0 138 -81.5 230.5t-209.5 92.5
q-131 0 -213 -91t-82 -232q0 -140 82 -232t213 -92z" />
    <glyph glyph-name="r" unicode="r" horiz-adv-x="858" 
d="M418 0h-256v1069h164l61 -188q20 36 40 63t56 58.5t78.5 51t107.5 30.5t144 6l-35 -273q-99 7 -171 -14t-112 -64t-58.5 -97t-18.5 -122v-520z" />
    <glyph glyph-name="s" unicode="s" horiz-adv-x="1081" 
d="M78 121l110 194q97 -63 183.5 -91.5t183.5 -28.5q190 0 190 106q0 54 -53 79.5t-178 39.5q-71 8 -125 20.5t-108 37t-89 59.5t-57 90t-22 127q0 149 114 243.5t303 94.5q105 0 221 -30.5t220 -98.5l-113 -193q-171 107 -332 107q-168 0 -168 -113q0 -53 51 -78.5
t177 -40.5q73 -10 125.5 -21.5t108.5 -35.5t90 -57t56.5 -87t22.5 -125q0 -155 -114.5 -248.5t-327.5 -93.5q-244 0 -469 144z" />
    <glyph glyph-name="t" unicode="t" horiz-adv-x="866" 
d="M725 256l84 -205q-112 -74 -262 -74q-172 0 -266.5 95t-94.5 288v476h-135v229h146v231h245v-231h328v-229h-328v-476q0 -84 27.5 -116.5t89.5 -32.5q75 0 166 45z" />
    <glyph glyph-name="u" unicode="u" horiz-adv-x="1251" 
d="M924 0l-50 164q-38 -71 -128.5 -129t-208.5 -58q-87 0 -156 24t-123 75.5t-83.5 141.5t-29.5 214v637h256v-602q0 -132 54.5 -191t156.5 -59q99 0 160.5 73.5t61.5 198.5v580h256v-1069h-166z" />
    <glyph glyph-name="v" unicode="v" horiz-adv-x="1128" 
d="M692 0h-254l-428 1069h269l284 -743h4l285 743h266z" />
    <glyph glyph-name="w" unicode="w" horiz-adv-x="1658" 
d="M598 0h-258l-330 1069h262l207 -709l223 709h256l222 -709l206 709h263l-330 -1069h-256l-234 743z" />
    <glyph glyph-name="x" unicode="x" horiz-adv-x="1105" 
d="M322 0h-302l375 537l-372 532h301l229 -332l231 332h299l-372 -532l376 -537h-301l-233 334z" />
    <glyph glyph-name="y" unicode="y" horiz-adv-x="1126" 
d="M535 -393h-269l164 411l-420 1051h266l285 -743h4l285 743h266z" />
    <glyph glyph-name="z" unicode="z" horiz-adv-x="1095" 
d="M1006 0h-910l2 211l547 629h-526v229h870v-209l-547 -631h564v-229z" />
    <glyph glyph-name="braceleft" unicode="{" horiz-adv-x="913" 
d="M827 -23v-213h-172q-54 0 -98.5 7.5t-93 31t-82 62t-55 106t-21.5 158.5v281q0 95 -45.5 141.5t-126.5 46.5h-47v236h47q172 0 172 182v291q0 91 21.5 159t55 106.5t82 61.5t93 30t98.5 7h172v-213h-139q-75 0 -111 -34.5t-36 -120.5v-312q0 -223 -209 -270v-8
q95 -22 152 -91t57 -188v-301q0 -86 36 -121t111 -35h139z" />
    <glyph glyph-name="bar" unicode="|" horiz-adv-x="565" 
d="M393 -147h-221v1728h221v-1728z" />
    <glyph glyph-name="braceright" unicode="}" horiz-adv-x="913" 
d="M258 -236h-172v213h139q75 0 110.5 35t35.5 121v301q0 118 57.5 187.5t153.5 91.5v8q-211 48 -211 270v312q0 86 -35.5 120.5t-110.5 34.5h-139v213h172q54 0 98.5 -7t93 -30t82 -61.5t55 -106.5t21.5 -159v-291q0 -182 172 -182h47v-236h-47q-81 0 -126.5 -46.5
t-45.5 -141.5v-281q0 -91 -21.5 -158.5t-55 -106t-82 -62t-93 -31t-98.5 -7.5z" />
    <glyph glyph-name="asciitilde" unicode="~" horiz-adv-x="937" 
d="M248 557l-152 72q67 229 223 229q46 0 90.5 -17.5t72 -39t59.5 -39t57 -17.5q26 0 45 24.5t49 100.5l154 -67q-42 -117 -93 -174.5t-135 -57.5q-49 0 -94 17.5t-72 39t-57.5 39t-54.5 17.5q-26 0 -45.5 -25.5t-46.5 -101.5z" />
    <glyph glyph-name="uni00A0" unicode="&#xa0;" horiz-adv-x="727" 
 />
    <glyph glyph-name="exclamdown" unicode="&#xa1;" horiz-adv-x="616" 
d="M307 741q-67 0 -114.5 48.5t-47.5 117.5q0 66 47.5 113t114.5 47q68 0 116 -47t48 -113q0 -69 -48 -117.5t-116 -48.5zM463 -393h-307l39 934h231z" />
    <glyph glyph-name="cent" unicode="&#xa2;" horiz-adv-x="1159" 
d="M895 543l184 -176q-177 -201 -434 -201h-2l-29 -186h-182l33 215q-169 55 -272 198t-103 330q0 155 71 282t197 200.5t281 74.5l27 174h182l-31 -199q156 -49 258 -172l-178 -172q-56 71 -119 105l-98 -615q128 14 215 142zM504 434l96 610q-113 -17 -181.5 -105.5
t-68.5 -215.5q0 -96 41.5 -172.5t112.5 -116.5z" />
    <glyph glyph-name="sterling" unicode="&#xa3;" horiz-adv-x="1183" 
d="M1083 0h-993v129l160 94v371h-160v207h160v262q0 192 116.5 294.5t313.5 102.5q101 0 196 -26.5t207 -92.5l-104 -215q-83 52 -150.5 74.5t-140.5 22.5q-81 0 -129.5 -48t-48.5 -149v-225h479v-207h-479v-371h573v-223z" />
    <glyph glyph-name="currency" unicode="&#xa4;" horiz-adv-x="1155" 
d="M227 231l-131 136l172 174q-45 77 -45 176q0 96 45 174l-172 174l129 135l176 -176q80 47 177 47q94 0 174 -47l178 176l131 -135l-176 -176q47 -75 47 -172q0 -93 -47 -174l176 -174l-131 -138l-178 179q-83 -48 -174 -48q-93 0 -175 46zM578 547q71 0 115 48.5
t44 121.5q0 72 -44 120t-115 48q-73 0 -117.5 -48t-44.5 -120q0 -74 44 -122t118 -48z" />
    <glyph glyph-name="yen" unicode="&#xa5;" horiz-adv-x="1224" 
d="M481 348h-372v164h372v145h-372v164h284l-395 613h309l305 -476l306 476h309l-393 -613h282v-164h-373v-145h373v-164h-373v-348h-262v348z" />
    <glyph glyph-name="brokenbar" unicode="&#xa6;" horiz-adv-x="565" 
d="M393 829h-221v752h221v-752zM393 -147h-221v745h221v-745z" />
    <glyph glyph-name="section" unicode="&#xa7;" horiz-adv-x="1302" 
d="M1169 496v-84q-101 68 -236.5 119.5t-369.5 107.5q-52 11 -90.5 21t-86.5 27.5t-82 37.5t-69 50t-57 66.5t-35.5 86t-13.5 108.5q0 197 149.5 310.5t383.5 113.5q144 0 261.5 -36t262.5 -126l-125 -215q-213 138 -391 138q-275 0 -275 -189q0 -38 15.5 -66.5t36.5 -45.5
t63 -32t74.5 -22t91.5 -18q281 -53 387 -127.5t106 -224.5zM90 -229l129 215q241 -162 432 -162q145 0 216 48t71 130q0 36 -12.5 63t-33.5 46t-60 34.5t-81 26.5t-108 25q-117 25 -195 47.5t-143.5 52.5t-101.5 67t-55 87t-19 116v51q103 -58 239 -103t390 -107
q66 -16 108.5 -28.5t94 -31.5t83.5 -38.5t65.5 -48.5t51.5 -63.5t29.5 -80.5t11.5 -103q0 -192 -145.5 -311t-394.5 -119q-332 0 -572 187z" />
    <glyph glyph-name="dieresis" unicode="&#xa8;" horiz-adv-x="847" 
d="M80 1804q0 59 39.5 99.5t99.5 40.5q59 0 100 -41t41 -99t-41 -98.5t-100 -40.5q-60 0 -99.5 40t-39.5 99zM489 1804q0 59 40 99.5t100 40.5q58 0 98.5 -40.5t40.5 -99.5q0 -58 -40 -98.5t-99 -40.5q-60 0 -100 40t-40 99z" />
    <glyph glyph-name="copyright" unicode="&#xa9;" horiz-adv-x="1640" 
d="M819 -27q-148 0 -284 59.5t-234 159t-156.5 237.5t-58.5 288t58.5 287.5t156.5 237.5t234 159t284 59q200 0 369 -100t267.5 -271t98.5 -372q0 -150 -58 -288t-156.5 -237.5t-235 -159t-285.5 -59.5zM819 127q158 0 293 82t212 217.5t77 290.5t-77 290.5t-212 217.5
t-293 82t-292 -82t-210.5 -217.5t-76.5 -290.5t76.5 -290.5t210.5 -217.5t292 -82zM1004 584l110 -105q-113 -137 -291 -137q-157 0 -263.5 108.5t-106.5 266.5t106.5 266.5t263.5 108.5q175 0 287 -136l-104 -100q-47 49 -89 69.5t-94 20.5q-92 0 -155.5 -64.5
t-63.5 -164.5q0 -99 63.5 -164.5t155.5 -65.5q109 0 181 97z" />
    <glyph glyph-name="ordfeminine" unicode="&#xaa;" horiz-adv-x="845" 
d="M565 797l-24 88q-21 -42 -69 -71.5t-128 -29.5q-101 0 -166 52t-65 153q0 100 68.5 152.5t178.5 52.5q71 0 168 -27q0 48 -7 77t-25 44.5t-41.5 20t-65.5 4.5q-90 0 -192 -31l-37 148q24 9 104.5 19.5t151.5 10.5q89 0 144 -17t84 -58.5t38.5 -93.5t9.5 -138v-356h-127z
M528 1044v5q-74 18 -143 18q-53 0 -79.5 -21t-26.5 -55q0 -71 102 -71q72 0 109.5 35.5t37.5 88.5z" />
    <glyph glyph-name="guillemotleft" unicode="&#xab;" horiz-adv-x="1341" 
d="M723 328l-156 -158l-493 496v106l493 494l156 -156l-391 -391zM1233 326l-158 -156l-481 498v104l481 494l158 -156l-391 -391z" />
    <glyph glyph-name="logicalnot" unicode="&#xac;" horiz-adv-x="1148" 
d="M803 629h-649v194h841v-501h-192v307z" />
    <glyph glyph-name="uni00AD" unicode="&#xad;" horiz-adv-x="972" 
d="M870 604h-768v236h768v-236z" />
    <glyph glyph-name="registered" unicode="&#xae;" horiz-adv-x="1640" 
d="M819 -27q-148 0 -284 59.5t-234 159t-156.5 237.5t-58.5 288t58.5 287.5t156.5 237.5t234 159t284 59q200 0 369 -100t267.5 -271t98.5 -372q0 -150 -58 -288t-156.5 -237.5t-235 -159t-285.5 -59.5zM819 127q158 0 293 82t212 217.5t77 290.5t-77 290.5t-212 217.5
t-293 82t-292 -82t-210.5 -217.5t-76.5 -290.5t76.5 -290.5t210.5 -217.5t292 -82zM711 365h-138v704h271q46 0 88 -12t79.5 -37t60 -69.5t22.5 -102.5q0 -85 -47.5 -137.5t-122.5 -73.5l184 -272h-158l-178 262h-61v-262zM711 942v-188h116q127 0 127 96q0 92 -127 92h-116
z" />
    <glyph glyph-name="macron" unicode="&#xaf;" horiz-adv-x="782" 
d="M684 1642h-588v201h588v-201z" />
    <glyph glyph-name="degree" unicode="&#xb0;" horiz-adv-x="667" 
d="M82 1204q0 105 74 180.5t178 75.5t179 -76t75 -180t-75 -179t-179 -75t-178 75t-74 179zM334 1067q57 0 94 40.5t37 96.5t-37 96.5t-94 40.5q-56 0 -93.5 -41t-37.5 -96t37.5 -96t93.5 -41z" />
    <glyph glyph-name="plusminus" unicode="&#xb1;" horiz-adv-x="1181" 
d="M481 711h-327v221h327v328h219v-328h328v-221h-328v-328h-219v328zM1028 0h-874v236h874v-236z" />
    <glyph glyph-name="twosuperior" unicode="&#xb2;" horiz-adv-x="790" 
d="M717 977h-633v143l367 375q65 65 65 133q0 46 -31 77.5t-90 31.5q-105 0 -217 -127l-117 133q144 172 336 172q139 0 220 -77t81 -196q0 -80 -28.5 -137.5t-85.5 -118.5l-226 -233h359v-176z" />
    <glyph glyph-name="threesuperior" unicode="&#xb3;" horiz-adv-x="806" 
d="M53 1102l115 133q67 -60 121.5 -83.5t116.5 -23.5q149 0 149 109q0 45 -34.5 78t-125.5 33h-149v170h151q43 0 72.5 11t41.5 29t16.5 32.5t4.5 29.5q0 53 -34 85t-97 32q-57 0 -108.5 -28t-110.5 -85l-112 133q131 158 340 158q150 0 227.5 -80t77.5 -197
q0 -151 -140 -206v-2q162 -45 162 -209q0 -123 -86.5 -197t-244.5 -74q-209 0 -353 152z" />
    <glyph glyph-name="acute" unicode="&#xb4;" horiz-adv-x="528" 
d="M254 1618h-203l197 319h233z" />
    <glyph glyph-name="uni00B5" unicode="&#xb5;" horiz-adv-x="1265" 
d="M418 -393h-256v1462h256v-602q0 -250 209 -250q101 0 162 73.5t61 198.5v580h256v-1069h-168l-47 164q-43 -76 -121 -131.5t-195 -55.5q-95 0 -157 35v-405z" />
    <glyph glyph-name="paragraph" unicode="&#xb6;" horiz-adv-x="1316" 
d="M676 1434v-1026q-279 0 -431.5 135.5t-152.5 376.5q0 243 152 378.5t432 135.5zM1147 -393h-262v1827h262v-1827z" />
    <glyph glyph-name="periodcentered" unicode="&#xb7;" horiz-adv-x="604" 
d="M127 711q0 74 51 126t125 52q73 0 124.5 -52t51.5 -126q0 -75 -51 -127t-125 -52q-75 0 -125.5 52t-50.5 127z" />
    <glyph glyph-name="cedilla" unicode="&#xb8;" horiz-adv-x="516" 
d="M264 -393h-227l170 526l219 -16z" />
    <glyph glyph-name="onesuperior" unicode="&#xb9;" horiz-adv-x="595" 
d="M455 977h-183v702l-170 -67l-67 168l268 108h152v-911z" />
    <glyph glyph-name="ordmasculine" unicode="&#xba;" horiz-adv-x="751" 
d="M41 1122q0 144 95.5 241t240.5 97q144 0 239 -97.5t95 -240.5t-95 -240.5t-239 -97.5q-145 0 -240.5 97t-95.5 241zM377 936q73 0 120.5 53t47.5 133t-47.5 132.5t-120.5 52.5q-75 0 -122.5 -52.5t-47.5 -132.5t48 -133t122 -53z" />
    <glyph glyph-name="guillemotright" unicode="&#xbb;" horiz-adv-x="1341" 
d="M1270 666l-494 -496l-158 158l394 391l-391 391l155 156l494 -494v-106zM268 170l-157 156l391 393l-393 391l157 156l484 -494v-104z" />
    <glyph glyph-name="onequarter" unicode="&#xbc;" horiz-adv-x="1714" 
d="M457 522h-183v703l-170 -68l-67 168l268 109h152v-912zM539 0h-197l737 1434h199zM1333 211h-434v119l410 581h196v-528h158v-172h-158v-211h-172v211zM1337 674l-204 -291h204v291z" />
    <glyph glyph-name="onehalf" unicode="&#xbd;" horiz-adv-x="1736" 
d="M457 522h-183v703l-170 -68l-67 168l268 109h152v-912zM539 0h-197l737 1434h199zM1686 0h-633v143l366 375q66 66 66 133q0 46 -31 77.5t-90 31.5q-106 0 -215 -127l-117 133q144 172 334 172q139 0 221 -76.5t82 -195.5q0 -80 -29 -137.5t-88 -118.5l-223 -234h357
v-176z" />
    <glyph glyph-name="threequarters" unicode="&#xbe;" horiz-adv-x="1865" 
d="M33 647l114 133q65 -59 120 -82.5t116 -23.5q152 0 152 108q0 45 -34.5 78t-125.5 33h-150v170h152q43 0 72.5 11t41.5 29t16.5 32.5t4.5 29.5q0 53 -34 85t-97 32q-57 0 -108.5 -28t-112.5 -85l-111 134q131 157 340 157q150 0 227.5 -79.5t77.5 -196.5
q0 -152 -139 -207v-2q162 -46 162 -209q0 -123 -87 -196.5t-245 -73.5q-209 0 -352 151zM698 0h-196l737 1434h199zM1487 211h-436v119l409 581h197v-528h158v-172h-158v-211h-170v211zM1489 674l-205 -291h205v291z" />
    <glyph glyph-name="questiondown" unicode="&#xbf;" horiz-adv-x="1030" 
d="M598 737q-69 0 -117.5 48.5t-48.5 117.5q0 68 48.5 116t117.5 48t116.5 -48t47.5 -116q0 -69 -47.5 -117.5t-116.5 -48.5zM844 -74l121 -200q-122 -76 -222.5 -109t-207.5 -33q-108 0 -192.5 34t-135 91t-76 126t-25.5 145q0 157 100 260.5t273 158.5l13 146h204l13 -287
q-186 -32 -267.5 -96.5t-81.5 -161.5q0 -86 49 -132t134 -46q150 0 301 104z" />
    <glyph glyph-name="Agrave" unicode="&#xc0;" horiz-adv-x="1529" 
d="M883 1618h-203l-225 319h231zM301 0h-297l637 1434h248l635 -1434h-297l-129 297h-666zM762 1071l-238 -541h482l-240 541h-4z" />
    <glyph glyph-name="Aacute" unicode="&#xc1;" horiz-adv-x="1529" 
d="M848 1618h-203l197 319h233zM301 0h-297l637 1434h248l635 -1434h-297l-129 297h-666zM762 1071l-238 -541h482l-240 541h-4z" />
    <glyph glyph-name="Acircumflex" unicode="&#xc2;" horiz-adv-x="1529" 
d="M639 1587h-201l217 350h217l218 -350h-199l-125 205h-4zM301 0h-297l637 1434h248l635 -1434h-297l-129 297h-666zM762 1071l-238 -541h482l-240 541h-4z" />
    <glyph glyph-name="Atilde" unicode="&#xc3;" horiz-adv-x="1529" 
d="M541 1636l-154 72q42 116 94 172.5t140 56.5q46 0 88.5 -17.5t69.5 -38.5t57.5 -38.5t54.5 -17.5q28 0 48.5 25.5t47.5 99.5l154 -70q-42 -116 -94 -172.5t-140 -56.5q-46 0 -89.5 17.5t-70 38.5t-57 38.5t-53.5 17.5q-28 0 -48.5 -26t-47.5 -101zM301 0h-297l637 1434
h248l635 -1434h-297l-129 297h-666zM762 1071l-238 -541h482l-240 541h-4z" />
    <glyph glyph-name="Adieresis" unicode="&#xc4;" horiz-adv-x="1529" 
d="M418 1804q0 59 39.5 99.5t99.5 40.5q59 0 100 -41t41 -99t-41 -98.5t-100 -40.5q-60 0 -99.5 40t-39.5 99zM827 1804q0 59 40 99.5t100 40.5q58 0 98.5 -40.5t40.5 -99.5q0 -58 -40 -98.5t-99 -40.5q-60 0 -100 40t-40 99zM301 0h-297l637 1434h248l635 -1434h-297
l-129 297h-666zM762 1071l-238 -541h482l-240 541h-4z" />
    <glyph glyph-name="Aring" unicode="&#xc5;" horiz-adv-x="1529" 
d="M764 1552q-80 0 -137.5 57t-57.5 138t57.5 138t137.5 57t137 -57t57 -138t-57 -138t-137 -57zM764 1669q30 0 50 23t20 55q0 31 -20 53.5t-50 22.5t-51 -22.5t-21 -53.5t21 -54.5t51 -23.5zM301 0h-297l637 1434h248l635 -1434h-297l-129 297h-666zM762 1071l-238 -541
h482l-240 541h-4z" />
    <glyph glyph-name="AE" unicode="&#xc6;" horiz-adv-x="1845" 
d="M301 0h-297l637 1434h1075v-236h-600v-358h563v-236h-563v-368h610v-236h-872v297h-424zM819 1198l-297 -668h332v668h-35z" />
    <glyph glyph-name="Ccedilla" unicode="&#xc7;" horiz-adv-x="1447" 
d="M1212 406l170 -189q-82 -96 -207 -157.5t-260 -79.5l-118 -373h-228l121 377q-129 23 -241 88.5t-192 161t-125.5 220.5t-45.5 263q0 154 57 292t155 237t234 156.5t289 57.5q155 0 304.5 -63t258.5 -178l-176 -195q-87 101 -180.5 149t-206.5 48q-139 0 -248 -70.5
t-166 -184.5t-57 -249t57 -249t166 -184.5t248 -70.5q219 0 391 193z" />
    <glyph glyph-name="Egrave" unicode="&#xc8;" horiz-adv-x="1316" 
d="M807 1618h-203l-225 319h231zM1196 0h-1024v1434h1014v-236h-752v-358h715v-236h-715v-368h762v-236z" />
    <glyph glyph-name="Eacute" unicode="&#xc9;" horiz-adv-x="1316" 
d="M741 1618h-202l196 319h234zM1196 0h-1024v1434h1014v-236h-752v-358h715v-236h-715v-368h762v-236z" />
    <glyph glyph-name="Ecircumflex" unicode="&#xca;" horiz-adv-x="1316" 
d="M561 1587h-201l218 350h217l217 -350h-199l-125 205h-4zM1196 0h-1024v1434h1014v-236h-752v-358h715v-236h-715v-368h762v-236z" />
    <glyph glyph-name="Edieresis" unicode="&#xcb;" horiz-adv-x="1316" 
d="M336 1804q0 59 39.5 99.5t99.5 40.5q59 0 100 -41t41 -99t-41 -98.5t-100 -40.5q-60 0 -99.5 40t-39.5 99zM745 1804q0 59 40 99.5t100 40.5q58 0 98.5 -40.5t40.5 -99.5q0 -58 -40 -98.5t-99 -40.5q-60 0 -100 40t-40 99zM1196 0h-1024v1434h1014v-236h-752v-358h715
v-236h-715v-368h762v-236z" />
    <glyph glyph-name="Igrave" unicode="&#xcc;" horiz-adv-x="604" 
d="M430 1618h-203l-225 319h231zM434 0h-262v1434h262v-1434z" />
    <glyph glyph-name="Iacute" unicode="&#xcd;" horiz-adv-x="604" 
d="M377 1618h-203l197 319h233zM434 0h-262v1434h262v-1434z" />
    <glyph glyph-name="Icircumflex" unicode="&#xce;" horiz-adv-x="604" 
d="M176 1587h-201l218 350h217l217 -350h-199l-125 205h-4zM434 0h-262v1434h262v-1434z" />
    <glyph glyph-name="Idieresis" unicode="&#xcf;" horiz-adv-x="604" 
d="M-45 1804q0 59 39.5 99.5t99.5 40.5q59 0 100.5 -41t41.5 -99t-41.5 -98.5t-100.5 -40.5q-60 0 -99.5 40t-39.5 99zM365 1804q0 59 39.5 99.5t99.5 40.5q58 0 98.5 -40.5t40.5 -99.5q0 -58 -40.5 -98.5t-98.5 -40.5q-60 0 -99.5 40t-39.5 99zM434 0h-262v1434h262v-1434z
" />
    <glyph glyph-name="Eth" unicode="&#xd0;" horiz-adv-x="1544" 
d="M733 0h-561v614h-139v205h139v615h561q204 0 369.5 -91.5t260.5 -255.5t95 -370t-95 -370t-260.5 -255.5t-369.5 -91.5zM434 614v-378h297q210 0 336.5 137.5t126.5 343.5t-126.5 343.5t-336.5 137.5h-297v-379h264v-205h-264z" />
    <glyph glyph-name="Ntilde" unicode="&#xd1;" horiz-adv-x="1589" 
d="M553 1636l-154 72q42 116 94 172.5t140 56.5q46 0 88.5 -17.5t69.5 -38.5t57.5 -38.5t54.5 -17.5q28 0 48.5 25.5t47.5 99.5l154 -70q-42 -116 -93.5 -172.5t-139.5 -56.5q-46 0 -89.5 17.5t-70.5 38.5t-57.5 38.5t-53.5 17.5q-28 0 -48.5 -26t-47.5 -101zM434 0h-262
v1434h252l729 -988h2v988h262v-1434h-254l-727 989h-2v-989z" />
    <glyph glyph-name="Ograve" unicode="&#xd2;" horiz-adv-x="1642" 
d="M948 1618h-203l-225 319h232zM821 -27q-153 0 -289 58t-234 157t-155 237t-57 292t57 292t155 237t234 156.5t289 57.5t289 -57.5t234 -156.5t155 -237t57 -292t-57 -292t-155 -237t-234 -157t-289 -58zM821 213q140 0 249 70.5t165.5 184.5t56.5 249t-56.5 249
t-165.5 184.5t-249 70.5q-139 0 -247.5 -70.5t-165 -184.5t-56.5 -249t56.5 -249t165 -184.5t247.5 -70.5z" />
    <glyph glyph-name="Oacute" unicode="&#xd3;" horiz-adv-x="1642" 
d="M897 1618h-203l197 319h233zM821 -27q-153 0 -289 58t-234 157t-155 237t-57 292t57 292t155 237t234 156.5t289 57.5t289 -57.5t234 -156.5t155 -237t57 -292t-57 -292t-155 -237t-234 -157t-289 -58zM821 213q140 0 249 70.5t165.5 184.5t56.5 249t-56.5 249
t-165.5 184.5t-249 70.5q-139 0 -247.5 -70.5t-165 -184.5t-56.5 -249t56.5 -249t165 -184.5t247.5 -70.5z" />
    <glyph glyph-name="Ocircumflex" unicode="&#xd4;" horiz-adv-x="1642" 
d="M696 1587h-200l217 350h217l217 -350h-199l-125 205h-4zM821 -27q-153 0 -289 58t-234 157t-155 237t-57 292t57 292t155 237t234 156.5t289 57.5t289 -57.5t234 -156.5t155 -237t57 -292t-57 -292t-155 -237t-234 -157t-289 -58zM821 213q140 0 249 70.5t165.5 184.5
t56.5 249t-56.5 249t-165.5 184.5t-249 70.5q-139 0 -247.5 -70.5t-165 -184.5t-56.5 -249t56.5 -249t165 -184.5t247.5 -70.5z" />
    <glyph glyph-name="Otilde" unicode="&#xd5;" horiz-adv-x="1642" 
d="M598 1636l-154 72q42 116 94 172.5t140 56.5q46 0 88.5 -17.5t69.5 -38.5t57.5 -38.5t54.5 -17.5q28 0 48.5 25.5t47.5 99.5l154 -70q-42 -116 -93.5 -172.5t-139.5 -56.5q-46 0 -89.5 17.5t-70.5 38.5t-57.5 38.5t-53.5 17.5q-28 0 -48.5 -26t-47.5 -101zM821 -27
q-153 0 -289 58t-234 157t-155 237t-57 292t57 292t155 237t234 156.5t289 57.5t289 -57.5t234 -156.5t155 -237t57 -292t-57 -292t-155 -237t-234 -157t-289 -58zM821 213q140 0 249 70.5t165.5 184.5t56.5 249t-56.5 249t-165.5 184.5t-249 70.5q-139 0 -247.5 -70.5
t-165 -184.5t-56.5 -249t56.5 -249t165 -184.5t247.5 -70.5z" />
    <glyph glyph-name="Odieresis" unicode="&#xd6;" horiz-adv-x="1642" 
d="M473 1804q0 59 39.5 99.5t99.5 40.5q59 0 100.5 -41t41.5 -99t-41.5 -98.5t-100.5 -40.5q-60 0 -99.5 40t-39.5 99zM883 1804q0 59 39.5 99.5t99.5 40.5q58 0 98.5 -40.5t40.5 -99.5q0 -58 -40.5 -98.5t-98.5 -40.5q-60 0 -99.5 40t-39.5 99zM821 -27q-153 0 -289 58
t-234 157t-155 237t-57 292t57 292t155 237t234 156.5t289 57.5t289 -57.5t234 -156.5t155 -237t57 -292t-57 -292t-155 -237t-234 -157t-289 -58zM821 213q140 0 249 70.5t165.5 184.5t56.5 249t-56.5 249t-165.5 184.5t-249 70.5q-139 0 -247.5 -70.5t-165 -184.5
t-56.5 -249t56.5 -249t165 -184.5t247.5 -70.5z" />
    <glyph glyph-name="multiply" unicode="&#xd7;" horiz-adv-x="899" 
d="M225 348l-141 139l223 226l-223 223l143 143l222 -225l223 225l141 -143l-221 -223l223 -224l-141 -141l-225 223z" />
    <glyph glyph-name="Oslash" unicode="&#xd8;" horiz-adv-x="1642" 
d="M821 -27q-132 0 -256 45l-57 -114h-215l104 200q-145 101 -228 262.5t-83 350.5q0 154 57 292t155 237t234 156.5t289 57.5q132 0 256 -45l56 107h213l-101 -193q145 -101 228 -262t83 -350q0 -154 -57 -292t-155 -237t-234 -157t-289 -58zM514 330l451 870
q-75 21 -144 21q-139 0 -247.5 -70.5t-165 -184.5t-56.5 -249q0 -114 42 -215.5t120 -171.5zM821 213q140 0 249 70.5t165.5 184.5t56.5 249q0 114 -42.5 215t-119.5 172l-452 -871q75 -20 143 -20z" />
    <glyph glyph-name="Ugrave" unicode="&#xd9;" horiz-adv-x="1519" 
d="M897 1618h-203l-225 319h231zM156 590v844h262v-834q0 -195 89.5 -291t252.5 -96q164 0 253 96t89 291v834h262v-844q0 -149 -47 -268t-130 -194.5t-191.5 -115t-235.5 -39.5t-235.5 39.5t-191.5 115t-130 194.5t-47 268z" />
    <glyph glyph-name="Uacute" unicode="&#xda;" horiz-adv-x="1519" 
d="M817 1618h-203l197 319h233zM156 590v844h262v-834q0 -195 89.5 -291t252.5 -96q164 0 253 96t89 291v834h262v-844q0 -149 -47 -268t-130 -194.5t-191.5 -115t-235.5 -39.5t-235.5 39.5t-191.5 115t-130 194.5t-47 268z" />
    <glyph glyph-name="Ucircumflex" unicode="&#xdb;" horiz-adv-x="1519" 
d="M635 1587h-201l217 350h217l217 -350h-198l-125 205h-4zM156 590v844h262v-834q0 -195 89.5 -291t252.5 -96q164 0 253 96t89 291v834h262v-844q0 -149 -47 -268t-130 -194.5t-191.5 -115t-235.5 -39.5t-235.5 39.5t-191.5 115t-130 194.5t-47 268z" />
    <glyph glyph-name="Udieresis" unicode="&#xdc;" horiz-adv-x="1519" 
d="M414 1804q0 59 39.5 99.5t99.5 40.5q59 0 100 -41t41 -99t-41 -98.5t-100 -40.5q-60 0 -99.5 40t-39.5 99zM823 1804q0 59 40 99.5t100 40.5q58 0 98.5 -40.5t40.5 -99.5q0 -58 -40 -98.5t-99 -40.5q-60 0 -100 40t-40 99zM156 590v844h262v-834q0 -195 89.5 -291
t252.5 -96q164 0 253 96t89 291v834h262v-844q0 -149 -47 -268t-130 -194.5t-191.5 -115t-235.5 -39.5t-235.5 39.5t-191.5 115t-130 194.5t-47 268z" />
    <glyph glyph-name="Yacute" unicode="&#xdd;" horiz-adv-x="1359" 
d="M752 1618h-203l196 319h234zM811 0h-262v539l-549 895h311l371 -617l369 617h309l-549 -895v-539z" />
    <glyph glyph-name="Thorn" unicode="&#xde;" horiz-adv-x="1286" 
d="M434 0h-262v1434h262v-236h285q94 0 181.5 -27t162 -80.5t119.5 -146t45 -211.5q0 -96 -30 -176t-79.5 -133t-116 -90t-137.5 -53.5t-145 -16.5h-285v-264zM434 963v-463h260q141 0 205 64t64 169q0 103 -64 166.5t-205 63.5h-260z" />
    <glyph glyph-name="germandbls" unicode="&#xdf;" horiz-adv-x="1314" 
d="M418 0h-256v1139q0 104 39.5 186.5t108.5 134t158 78.5t191 27q101 0 189.5 -26.5t157 -78t108 -134.5t39.5 -187q0 -237 -201 -342v-2q36 -16 68.5 -35.5t73.5 -56t70.5 -79.5t50 -108t20.5 -139q0 -182 -106 -291t-267 -109q-93 0 -167.5 26.5t-170.5 96.5l129 187
q94 -76 178 -76q67 0 105.5 41.5t38.5 126.5q0 135 -90.5 217t-222.5 82h-101v219h103q121 0 176 59.5t55 149.5q0 108 -61.5 165.5t-174.5 57.5t-177 -56.5t-64 -160.5v-1112z" />
    <glyph glyph-name="agrave" unicode="&#xe0;" horiz-adv-x="1196" 
d="M719 1235h-203l-225 319h231zM856 0l-45 141q-39 -70 -122 -117t-216 -47q-161 0 -272 93.5t-111 255.5q0 158 118.5 241.5t307.5 83.5q136 0 277 -37q0 82 -9 127.5t-37 74.5t-73.5 38.5t-126.5 9.5q-187 0 -324 -43l-55 219q50 17 178 34.5t246 17.5q85 0 150 -10.5
t113.5 -29t82.5 -51t55.5 -71t34 -94t17 -114t4.5 -138.5v-584h-193zM799 422v10q-125 33 -250 33q-98 0 -148.5 -37t-50.5 -104q0 -66 49.5 -103t132.5 -37q137 0 202 67t65 171z" />
    <glyph glyph-name="aacute" unicode="&#xe1;" horiz-adv-x="1196" 
d="M649 1235h-203l197 319h234zM856 0l-45 141q-39 -70 -122 -117t-216 -47q-161 0 -272 93.5t-111 255.5q0 158 118.5 241.5t307.5 83.5q136 0 277 -37q0 82 -9 127.5t-37 74.5t-73.5 38.5t-126.5 9.5q-187 0 -324 -43l-55 219q50 17 178 34.5t246 17.5q85 0 150 -10.5
t113.5 -29t82.5 -51t55.5 -71t34 -94t17 -114t4.5 -138.5v-584h-193zM799 422v10q-125 33 -250 33q-98 0 -148.5 -37t-50.5 -104q0 -66 49.5 -103t132.5 -37q137 0 202 67t65 171z" />
    <glyph glyph-name="acircumflex" unicode="&#xe2;" horiz-adv-x="1196" 
d="M467 1219h-201l217 350h217l218 -350h-199l-125 204h-4zM856 0l-45 141q-39 -70 -122 -117t-216 -47q-161 0 -272 93.5t-111 255.5q0 158 118.5 241.5t307.5 83.5q136 0 277 -37q0 82 -9 127.5t-37 74.5t-73.5 38.5t-126.5 9.5q-187 0 -324 -43l-55 219q50 17 178 34.5
t246 17.5q85 0 150 -10.5t113.5 -29t82.5 -51t55.5 -71t34 -94t17 -114t4.5 -138.5v-584h-193zM799 422v10q-125 33 -250 33q-98 0 -148.5 -37t-50.5 -104q0 -66 49.5 -103t132.5 -37q137 0 202 67t65 171z" />
    <glyph glyph-name="atilde" unicode="&#xe3;" horiz-adv-x="1196" 
d="M365 1243l-154 72q42 116 93.5 172.5t139.5 56.5q46 0 89 -17.5t69.5 -38.5t57.5 -38.5t55 -17.5q28 0 48.5 25.5t47.5 98.5l154 -69q-42 -116 -94 -173t-140 -57q-46 0 -89.5 17.5t-70 39t-57 39t-53.5 17.5q-28 0 -48.5 -26t-47.5 -101zM856 0l-45 141
q-39 -70 -122 -117t-216 -47q-161 0 -272 93.5t-111 255.5q0 158 118.5 241.5t307.5 83.5q136 0 277 -37q0 82 -9 127.5t-37 74.5t-73.5 38.5t-126.5 9.5q-187 0 -324 -43l-55 219q50 17 178 34.5t246 17.5q85 0 150 -10.5t113.5 -29t82.5 -51t55.5 -71t34 -94t17 -114
t4.5 -138.5v-584h-193zM799 422v10q-125 33 -250 33q-98 0 -148.5 -37t-50.5 -104q0 -66 49.5 -103t132.5 -37q137 0 202 67t65 171z" />
    <glyph glyph-name="adieresis" unicode="&#xe4;" horiz-adv-x="1196" 
d="M248 1421q0 59 39.5 99.5t99.5 40.5q59 0 100 -41t41 -99t-41 -98.5t-100 -40.5q-60 0 -99.5 40t-39.5 99zM657 1421q0 59 40 99.5t100 40.5q58 0 98.5 -40.5t40.5 -99.5t-40 -99t-99 -40q-60 0 -100 40t-40 99zM856 0l-45 141q-39 -70 -122 -117t-216 -47
q-161 0 -272 93.5t-111 255.5q0 158 118.5 241.5t307.5 83.5q136 0 277 -37q0 82 -9 127.5t-37 74.5t-73.5 38.5t-126.5 9.5q-187 0 -324 -43l-55 219q50 17 178 34.5t246 17.5q85 0 150 -10.5t113.5 -29t82.5 -51t55.5 -71t34 -94t17 -114t4.5 -138.5v-584h-193zM799 422
v10q-125 33 -250 33q-98 0 -148.5 -37t-50.5 -104q0 -66 49.5 -103t132.5 -37q137 0 202 67t65 171z" />
    <glyph glyph-name="aring" unicode="&#xe5;" horiz-adv-x="1196" 
d="M594 1190q-80 0 -137.5 56.5t-57.5 137.5t57.5 138t137.5 57t137 -57t57 -138t-57 -137.5t-137 -56.5zM594 1307q30 0 50 23t20 54t-20 53.5t-50 22.5t-51 -22.5t-21 -53.5t21 -54t51 -23zM856 0l-45 141q-39 -70 -122 -117t-216 -47q-161 0 -272 93.5t-111 255.5
q0 158 118.5 241.5t307.5 83.5q136 0 277 -37q0 82 -9 127.5t-37 74.5t-73.5 38.5t-126.5 9.5q-187 0 -324 -43l-55 219q50 17 178 34.5t246 17.5q85 0 150 -10.5t113.5 -29t82.5 -51t55.5 -71t34 -94t17 -114t4.5 -138.5v-584h-193zM799 422v10q-125 33 -250 33
q-98 0 -148.5 -37t-50.5 -104q0 -66 49.5 -103t132.5 -37q137 0 202 67t65 171z" />
    <glyph glyph-name="ae" unicode="&#xe6;" horiz-adv-x="1923" 
d="M223 821l-55 219q50 16 171 34t226 18q291 0 404 -162q73 76 168 119t202 43q160 0 276 -76.5t172 -200t56 -278.5v-97h-772q20 -116 93.5 -177.5t193.5 -61.5q90 0 153.5 21t147.5 79l119 -172q-100 -82 -198 -117t-230 -35q-131 0 -239.5 52t-182.5 145
q-129 -197 -432 -197q-181 0 -292.5 90.5t-111.5 258.5q0 79 30 138.5t83.5 93.5t120 50.5t145.5 16.5h340q0 75 -15 122t-50.5 73t-81.5 35t-119 9q-182 0 -322 -43zM1071 625h518q-8 106 -71 176.5t-175 70.5q-110 0 -181 -64t-91 -183zM811 422v18h-313q-68 0 -108 -29
t-40 -87q0 -67 48.5 -103.5t133.5 -36.5q135 0 207 68t72 170z" />
    <glyph glyph-name="ccedilla" unicode="&#xe7;" horiz-adv-x="1126" 
d="M887 352l184 -174q-140 -158 -330 -192l-120 -379h-228l123 383q-193 40 -313.5 191t-120.5 354q0 155 71.5 282.5t199 201t284.5 73.5q128 0 238.5 -50.5t191.5 -146.5l-178 -172q-57 69 -117 102t-135 33q-130 0 -213.5 -91.5t-83.5 -231.5q0 -139 83.5 -231.5
t213.5 -92.5q153 0 250 141z" />
    <glyph glyph-name="egrave" unicode="&#xe8;" horiz-adv-x="1208" 
d="M750 1235h-203l-225 319h231zM1126 436h-782q23 -114 101 -174.5t198 -60.5q88 0 151.5 21t147.5 79l119 -172q-98 -82 -196.5 -117t-229.5 -35q-159 0 -286 74t-197 201.5t-70 282.5q0 154 72 282t197 201.5t274 73.5q97 0 178.5 -29t140.5 -81t100.5 -122.5t61.5 -154
t20 -175.5v-94zM342 621h532q-10 107 -72.5 179t-174.5 72q-111 0 -187.5 -65.5t-97.5 -185.5z" />
    <glyph glyph-name="eacute" unicode="&#xe9;" horiz-adv-x="1208" 
d="M688 1235h-203l197 319h233zM1126 436h-782q23 -114 101 -174.5t198 -60.5q88 0 151.5 21t147.5 79l119 -172q-98 -82 -196.5 -117t-229.5 -35q-159 0 -286 74t-197 201.5t-70 282.5q0 154 72 282t197 201.5t274 73.5q97 0 178.5 -29t140.5 -81t100.5 -122.5t61.5 -154
t20 -175.5v-94zM342 621h532q-10 107 -72.5 179t-174.5 72q-111 0 -187.5 -65.5t-97.5 -185.5z" />
    <glyph glyph-name="ecircumflex" unicode="&#xea;" horiz-adv-x="1208" 
d="M500 1219h-201l217 350h217l217 -350h-198l-125 204h-4zM1126 436h-782q23 -114 101 -174.5t198 -60.5q88 0 151.5 21t147.5 79l119 -172q-98 -82 -196.5 -117t-229.5 -35q-159 0 -286 74t-197 201.5t-70 282.5q0 154 72 282t197 201.5t274 73.5q97 0 178.5 -29
t140.5 -81t100.5 -122.5t61.5 -154t20 -175.5v-94zM342 621h532q-10 107 -72.5 179t-174.5 72q-111 0 -187.5 -65.5t-97.5 -185.5z" />
    <glyph glyph-name="edieresis" unicode="&#xeb;" horiz-adv-x="1208" 
d="M276 1421q0 59 40 99.5t100 40.5q59 0 100 -41t41 -99t-41 -98.5t-100 -40.5q-60 0 -100 40t-40 99zM686 1421q0 59 39.5 99.5t99.5 40.5q59 0 99.5 -40.5t40.5 -99.5q0 -58 -40.5 -98.5t-99.5 -40.5q-60 0 -99.5 40t-39.5 99zM1126 436h-782q23 -114 101 -174.5
t198 -60.5q88 0 151.5 21t147.5 79l119 -172q-98 -82 -196.5 -117t-229.5 -35q-159 0 -286 74t-197 201.5t-70 282.5q0 154 72 282t197 201.5t274 73.5q97 0 178.5 -29t140.5 -81t100.5 -122.5t61.5 -154t20 -175.5v-94zM342 621h532q-10 107 -72.5 179t-174.5 72
q-111 0 -187.5 -65.5t-97.5 -185.5z" />
    <glyph glyph-name="igrave" unicode="&#xec;" horiz-adv-x="577" 
d="M418 1235h-203l-227 319h233zM418 0h-256v1069h256v-1069z" />
    <glyph glyph-name="iacute" unicode="&#xed;" horiz-adv-x="577" 
d="M362 1235h-202l196 319h234zM418 0h-256v1069h256v-1069z" />
    <glyph glyph-name="icircumflex" unicode="&#xee;" horiz-adv-x="577" 
d="M164 1204h-201l217 350h217l217 -350h-198l-125 205h-4zM418 0h-256v1069h256v-1069z" />
    <glyph glyph-name="idieresis" unicode="&#xef;" horiz-adv-x="577" 
d="M-31 1421q0 59 39 100.5t98 41.5q60 0 101 -41.5t41 -100.5t-41 -99t-101 -40q-59 0 -98 40t-39 99zM332 1421q0 59 39 100.5t98 41.5q60 0 100.5 -41.5t40.5 -100.5t-40.5 -99t-100.5 -40q-59 0 -98 40t-39 99zM418 0h-256v1069h256v-1069z" />
    <glyph glyph-name="eth" unicode="&#xf0;" horiz-adv-x="1261" 
d="M659 1227l-297 -82v153l218 60l-111 184h297l68 -115l247 70v-154l-170 -47l35 -59q106 -175 171 -340t65 -336v-45q0 -236 -155.5 -387.5t-395.5 -151.5t-394.5 151.5t-154.5 387.5q0 115 40.5 216.5t109 173t162 112.5t196.5 41q115 0 229 -51q-123 163 -160 219z
M631 211q131 0 211 83t80 222q0 138 -80 222.5t-211 84.5t-211 -84.5t-80 -222.5q0 -139 80 -222t211 -83z" />
    <glyph glyph-name="ntilde" unicode="&#xf1;" horiz-adv-x="1253" 
d="M412 1243l-154 72q42 116 94 172.5t140 56.5q46 0 88.5 -17.5t69.5 -38.5t57.5 -38.5t54.5 -17.5q28 0 48.5 25.5t47.5 98.5l154 -69q-42 -116 -94 -173t-140 -57q-46 0 -89.5 17.5t-70 39t-57 39t-53.5 17.5q-28 0 -48.5 -26t-47.5 -101zM418 0h-256v1069h166l49 -174
q42 74 132 135.5t206 61.5q393 0 393 -465v-627h-254v592q0 133 -56.5 197.5t-156.5 64.5t-161.5 -74.5t-61.5 -199.5v-580z" />
    <glyph glyph-name="ograve" unicode="&#xf2;" horiz-adv-x="1271" 
d="M760 1235h-203l-225 319h231zM82 535q0 155 71.5 282.5t199 201t284.5 73.5t284.5 -73.5t199 -201t71.5 -282.5t-71.5 -282.5t-199 -201.5t-284.5 -74t-284.5 74t-199 201.5t-71.5 282.5zM637 211q129 0 212 92.5t83 231.5q0 140 -82.5 231.5t-212.5 91.5t-213.5 -91.5
t-83.5 -231.5q0 -139 83.5 -231.5t213.5 -92.5z" />
    <glyph glyph-name="oacute" unicode="&#xf3;" horiz-adv-x="1271" 
d="M715 1235h-203l197 319h233zM82 535q0 155 71.5 282.5t199 201t284.5 73.5t284.5 -73.5t199 -201t71.5 -282.5t-71.5 -282.5t-199 -201.5t-284.5 -74t-284.5 74t-199 201.5t-71.5 282.5zM637 211q129 0 212 92.5t83 231.5q0 140 -82.5 231.5t-212.5 91.5t-213.5 -91.5
t-83.5 -231.5q0 -139 83.5 -231.5t213.5 -92.5z" />
    <glyph glyph-name="ocircumflex" unicode="&#xf4;" horiz-adv-x="1271" 
d="M508 1219h-201l217 350h217l217 -350h-198l-125 204h-4zM82 535q0 155 71.5 282.5t199 201t284.5 73.5t284.5 -73.5t199 -201t71.5 -282.5t-71.5 -282.5t-199 -201.5t-284.5 -74t-284.5 74t-199 201.5t-71.5 282.5zM637 211q129 0 212 92.5t83 231.5q0 140 -82.5 231.5
t-212.5 91.5t-213.5 -91.5t-83.5 -231.5q0 -139 83.5 -231.5t213.5 -92.5z" />
    <glyph glyph-name="otilde" unicode="&#xf5;" horiz-adv-x="1271" 
d="M414 1243l-154 72q42 116 94 172.5t140 56.5q46 0 88.5 -17.5t69.5 -38.5t57.5 -38.5t54.5 -17.5q28 0 48.5 25.5t47.5 98.5l154 -69q-42 -116 -94 -173t-140 -57q-46 0 -89.5 17.5t-70 39t-57 39t-53.5 17.5q-28 0 -48.5 -26t-47.5 -101zM82 535q0 155 71.5 282.5
t199 201t284.5 73.5t284.5 -73.5t199 -201t71.5 -282.5t-71.5 -282.5t-199 -201.5t-284.5 -74t-284.5 74t-199 201.5t-71.5 282.5zM637 211q129 0 212 92.5t83 231.5q0 140 -82.5 231.5t-212.5 91.5t-213.5 -91.5t-83.5 -231.5q0 -139 83.5 -231.5t213.5 -92.5z" />
    <glyph glyph-name="odieresis" unicode="&#xf6;" horiz-adv-x="1271" 
d="M291 1421q0 59 39.5 99.5t99.5 40.5q59 0 100 -41t41 -99t-41 -98.5t-100 -40.5q-60 0 -99.5 40t-39.5 99zM700 1421q0 59 40 99.5t100 40.5q58 0 98.5 -40.5t40.5 -99.5t-40.5 -99t-98.5 -40q-60 0 -100 40t-40 99zM82 535q0 155 71.5 282.5t199 201t284.5 73.5
t284.5 -73.5t199 -201t71.5 -282.5t-71.5 -282.5t-199 -201.5t-284.5 -74t-284.5 74t-199 201.5t-71.5 282.5zM637 211q129 0 212 92.5t83 231.5q0 140 -82.5 231.5t-212.5 91.5t-213.5 -91.5t-83.5 -231.5q0 -139 83.5 -231.5t213.5 -92.5z" />
    <glyph glyph-name="divide" unicode="&#xf7;" horiz-adv-x="1122" 
d="M430 1130q0 56 37 95t92 39t94 -39t39 -95q0 -54 -38.5 -91.5t-94.5 -37.5q-55 0 -92 37.5t-37 91.5zM1024 618h-926v211h926v-211zM430 317q0 56 37 95t92 39t94 -39t39 -95q0 -55 -38.5 -92t-94.5 -37q-55 0 -92 37t-37 92z" />
    <glyph glyph-name="oslash" unicode="&#xf8;" horiz-adv-x="1271" 
d="M82 535q0 155 71.5 282.5t199 201t284.5 73.5q98 0 186 -31l39 72h195l-80 -152q101 -76 158 -192.5t57 -253.5q0 -155 -71.5 -282.5t-199 -201.5t-284.5 -74q-88 0 -168 25l-49 -94h-195l88 170q-108 74 -169.5 194t-61.5 263zM428 299l285 549q-42 10 -76 10
q-130 0 -213.5 -91.5t-83.5 -231.5q0 -145 88 -236zM637 211q129 0 212 92.5t83 231.5q0 130 -72 221l-280 -539q27 -6 57 -6z" />
    <glyph glyph-name="ugrave" unicode="&#xf9;" horiz-adv-x="1251" 
d="M739 1233h-202l-226 319h232zM924 0l-50 164q-38 -71 -128.5 -129t-208.5 -58q-87 0 -156 24t-123 75.5t-83.5 141.5t-29.5 214v637h256v-602q0 -132 54.5 -191t156.5 -59q99 0 160.5 73.5t61.5 198.5v580h256v-1069h-166z" />
    <glyph glyph-name="uacute" unicode="&#xfa;" horiz-adv-x="1251" 
d="M698 1235h-202l196 319h234zM924 0l-50 164q-38 -71 -128.5 -129t-208.5 -58q-87 0 -156 24t-123 75.5t-83.5 141.5t-29.5 214v637h256v-602q0 -132 54.5 -191t156.5 -59q99 0 160.5 73.5t61.5 198.5v580h256v-1069h-166z" />
    <glyph glyph-name="ucircumflex" unicode="&#xfb;" horiz-adv-x="1251" 
d="M492 1219h-201l217 350h217l217 -350h-199l-125 204h-4zM924 0l-50 164q-38 -71 -128.5 -129t-208.5 -58q-87 0 -156 24t-123 75.5t-83.5 141.5t-29.5 214v637h256v-602q0 -132 54.5 -191t156.5 -59q99 0 160.5 73.5t61.5 198.5v580h256v-1069h-166z" />
    <glyph glyph-name="udieresis" unicode="&#xfc;" horiz-adv-x="1251" 
d="M276 1421q0 59 40 99.5t100 40.5q59 0 100 -41t41 -99t-41 -98.5t-100 -40.5q-60 0 -100 40t-40 99zM686 1421q0 59 39.5 99.5t99.5 40.5q59 0 99.5 -40.5t40.5 -99.5q0 -58 -40.5 -98.5t-99.5 -40.5q-60 0 -99.5 40t-39.5 99zM924 0l-50 164q-38 -71 -128.5 -129
t-208.5 -58q-87 0 -156 24t-123 75.5t-83.5 141.5t-29.5 214v637h256v-602q0 -132 54.5 -191t156.5 -59q99 0 160.5 73.5t61.5 198.5v580h256v-1069h-166z" />
    <glyph glyph-name="yacute" unicode="&#xfd;" horiz-adv-x="1118" 
d="M639 1235h-203l197 319h233zM530 -393h-268l164 411l-420 1051h266l285 -743h4l285 743h266z" />
    <glyph glyph-name="thorn" unicode="&#xfe;" horiz-adv-x="1341" 
d="M418 -393h-256v1935h256v-620q50 68 141 119t211 51q141 0 254 -74t175.5 -201.5t62.5 -281.5q0 -153 -62.5 -280.5t-176 -202.5t-253.5 -75q-120 0 -211 52t-141 121v-543zM707 211q130 0 212 92t82 232q0 141 -81.5 232t-212.5 91q-126 0 -208.5 -92.5t-82.5 -230.5
q0 -137 82.5 -230.5t208.5 -93.5z" />
    <glyph glyph-name="ydieresis" unicode="&#xff;" horiz-adv-x="1126" 
d="M219 1419q0 59 39.5 99.5t99.5 40.5q59 0 100.5 -41t41.5 -99t-41.5 -98.5t-100.5 -40.5q-60 0 -99.5 40t-39.5 99zM629 1419q0 59 39.5 99.5t99.5 40.5q58 0 98.5 -40.5t40.5 -99.5t-40.5 -99t-98.5 -40q-60 0 -99.5 40t-39.5 99zM535 -393h-269l164 411l-420 1051h266
l285 -743h4l285 743h266z" />
    <glyph glyph-name="Amacron" unicode="&#x100;" horiz-adv-x="1529" 
d="M1059 1642h-588v201h588v-201zM301 0h-297l637 1434h248l635 -1434h-297l-129 297h-666zM762 1071l-238 -541h482l-240 541h-4z" />
    <glyph glyph-name="amacron" unicode="&#x101;" horiz-adv-x="1196" 
d="M891 1286h-588v201h588v-201zM856 0l-45 141q-39 -70 -122 -117t-216 -47q-161 0 -272 93.5t-111 255.5q0 158 118.5 241.5t307.5 83.5q136 0 277 -37q0 82 -9 127.5t-37 74.5t-73.5 38.5t-126.5 9.5q-187 0 -324 -43l-55 219q50 17 178 34.5t246 17.5q85 0 150 -10.5
t113.5 -29t82.5 -51t55.5 -71t34 -94t17 -114t4.5 -138.5v-584h-193zM799 422v10q-125 33 -250 33q-98 0 -148.5 -37t-50.5 -104q0 -66 49.5 -103t132.5 -37q137 0 202 67t65 171z" />
    <glyph glyph-name="Abreve" unicode="&#x102;" horiz-adv-x="1529" 
d="M426 1860l154 79q40 -101 76 -136.5t108 -35.5q73 0 108.5 35.5t77.5 136.5l154 -81q-56 -140 -130.5 -203.5t-209.5 -63.5t-209.5 64t-128.5 205zM301 0h-297l637 1434h248l635 -1434h-297l-129 297h-666zM762 1071l-238 -541h482l-240 541h-4z" />
    <glyph glyph-name="abreve" unicode="&#x103;" horiz-adv-x="1196" 
d="M250 1479l153 80q40 -101 76.5 -137t108.5 -36q73 0 108.5 35.5t77.5 137.5l154 -82q-56 -140 -130.5 -203.5t-209.5 -63.5t-209.5 64t-128.5 205zM856 0l-45 141q-39 -70 -122 -117t-216 -47q-161 0 -272 93.5t-111 255.5q0 158 118.5 241.5t307.5 83.5q136 0 277 -37
q0 82 -9 127.5t-37 74.5t-73.5 38.5t-126.5 9.5q-187 0 -324 -43l-55 219q50 17 178 34.5t246 17.5q85 0 150 -10.5t113.5 -29t82.5 -51t55.5 -71t34 -94t17 -114t4.5 -138.5v-584h-193zM799 422v10q-125 33 -250 33q-98 0 -148.5 -37t-50.5 -104q0 -66 49.5 -103t132.5 -37
q137 0 202 67t65 171z" />
    <glyph glyph-name="Aogonek" unicode="&#x104;" horiz-adv-x="1529" 
d="M303 0h-299l637 1434h248l635 -1434q-127 -54 -198.5 -93.5t-90 -59t-18.5 -37.5q0 -39 43 -39q63 0 153 47l64 -162q-110 -72 -238 -72q-91 0 -151 47.5t-60 130.5q0 66 42.5 127t150.5 129l-123 279h-666zM764 1071l-240 -541h482l-238 541h-4z" />
    <glyph glyph-name="aogonek" unicode="&#x105;" horiz-adv-x="1196" 
d="M840 55l-27 86q-41 -70 -124.5 -117t-215.5 -47q-161 0 -271 93.5t-110 255.5q0 158 117.5 241.5t306.5 83.5q138 0 279 -37q0 81 -9 127t-37.5 75t-74 38.5t-125.5 9.5q-189 0 -326 -43l-55 219q50 16 178.5 34t245.5 18q99 0 171.5 -13t123.5 -42t82.5 -67.5t49 -99.5
t24 -126.5t6.5 -159.5v-584q-112 -59 -171.5 -97.5t-75.5 -56.5t-16 -36q0 -39 43 -39q66 0 164 53l62 -164q-116 -76 -246 -76q-91 0 -151 47t-60 129q0 34 8 61.5t32.5 63t74 77.5t127.5 93zM799 422v10q-125 33 -250 33q-97 0 -148 -37t-51 -104q0 -66 50 -103t135 -37
q136 0 200 66.5t64 171.5z" />
    <glyph glyph-name="Cacute" unicode="&#x106;" horiz-adv-x="1447" 
d="M897 1618h-203l197 319h233zM1212 406l170 -189q-98 -113 -252.5 -178.5t-308.5 -65.5q-153 0 -289 58t-234 157t-155 237t-57 292t57 292t155 237t234 156.5t289 57.5q155 0 304.5 -63t258.5 -178l-176 -195q-87 101 -180.5 149t-206.5 48q-139 0 -248 -70.5
t-166 -184.5t-57 -249t57 -249t166 -184.5t248 -70.5q219 0 391 193z" />
    <glyph glyph-name="cacute" unicode="&#x107;" horiz-adv-x="1126" 
d="M715 1235h-203l197 319h233zM887 352l184 -174q-177 -201 -434 -201q-157 0 -284.5 74t-199 201.5t-71.5 282.5t71.5 282.5t199 201t284.5 73.5q128 0 238.5 -50.5t191.5 -146.5l-178 -172q-57 69 -117 102t-135 33q-130 0 -213.5 -91.5t-83.5 -231.5q0 -139 83.5 -231.5
t213.5 -92.5q153 0 250 141z" />
    <glyph glyph-name="Ccircumflex" unicode="&#x108;" horiz-adv-x="1447" 
d="M696 1587h-200l217 350h217l217 -350h-199l-125 205h-4zM1212 406l170 -189q-98 -113 -252.5 -178.5t-308.5 -65.5q-153 0 -289 58t-234 157t-155 237t-57 292t57 292t155 237t234 156.5t289 57.5q155 0 304.5 -63t258.5 -178l-176 -195q-87 101 -180.5 149t-206.5 48
q-139 0 -248 -70.5t-166 -184.5t-57 -249t57 -249t166 -184.5t248 -70.5q219 0 391 193z" />
    <glyph glyph-name="ccircumflex" unicode="&#x109;" horiz-adv-x="1126" 
d="M510 1219h-201l217 350h217l218 -350h-199l-125 204h-4zM887 352l184 -174q-177 -201 -434 -201q-157 0 -284.5 74t-199 201.5t-71.5 282.5t71.5 282.5t199 201t284.5 73.5q128 0 238.5 -50.5t191.5 -146.5l-178 -172q-57 69 -117 102t-135 33q-130 0 -213.5 -91.5
t-83.5 -231.5q0 -139 83.5 -231.5t213.5 -92.5q153 0 250 141z" />
    <glyph glyph-name="Cdotaccent" unicode="&#x10a;" horiz-adv-x="1447" 
d="M664 1792q0 65 44 110.5t109 45.5t110.5 -46t45.5 -110t-45.5 -110t-110.5 -46t-109 45.5t-44 110.5zM1212 406l170 -189q-98 -113 -252.5 -178.5t-308.5 -65.5q-153 0 -289 58t-234 157t-155 237t-57 292t57 292t155 237t234 156.5t289 57.5q155 0 304.5 -63t258.5 -178
l-176 -195q-87 101 -180.5 149t-206.5 48q-139 0 -248 -70.5t-166 -184.5t-57 -249t57 -249t166 -184.5t248 -70.5q219 0 391 193z" />
    <glyph glyph-name="cdotaccent" unicode="&#x10b;" horiz-adv-x="1126" 
d="M483 1407q0 65 44.5 110.5t109.5 45.5t110.5 -45.5t45.5 -110.5t-45.5 -110.5t-110.5 -45.5t-109.5 45.5t-44.5 110.5zM887 352l184 -174q-177 -201 -434 -201q-157 0 -284.5 74t-199 201.5t-71.5 282.5t71.5 282.5t199 201t284.5 73.5q128 0 238.5 -50.5t191.5 -146.5
l-178 -172q-57 69 -117 102t-135 33q-130 0 -213.5 -91.5t-83.5 -231.5q0 -139 83.5 -231.5t213.5 -92.5q153 0 250 141z" />
    <glyph glyph-name="Ccaron" unicode="&#x10c;" horiz-adv-x="1447" 
d="M930 1587h-217l-217 350h200l123 -206h4l125 206h199zM1212 406l170 -189q-98 -113 -252.5 -178.5t-308.5 -65.5q-153 0 -289 58t-234 157t-155 237t-57 292t57 292t155 237t234 156.5t289 57.5q155 0 304.5 -63t258.5 -178l-176 -195q-87 101 -180.5 149t-206.5 48
q-139 0 -248 -70.5t-166 -184.5t-57 -249t57 -249t166 -184.5t248 -70.5q219 0 391 193z" />
    <glyph glyph-name="ccaron" unicode="&#x10d;" horiz-adv-x="1126" 
d="M750 1204h-218l-217 350h201l123 -206h4l125 206h199zM887 352l184 -174q-177 -201 -434 -201q-157 0 -284.5 74t-199 201.5t-71.5 282.5t71.5 282.5t199 201t284.5 73.5q128 0 238.5 -50.5t191.5 -146.5l-178 -172q-57 69 -117 102t-135 33q-130 0 -213.5 -91.5
t-83.5 -231.5q0 -139 83.5 -231.5t213.5 -92.5q153 0 250 141z" />
    <glyph glyph-name="Dcaron" unicode="&#x10e;" horiz-adv-x="1544" 
d="M885 1587h-217l-217 350h200l123 -206h4l125 206h199zM733 0h-561v1434h561q205 0 370.5 -91.5t260 -255.5t94.5 -370t-94.5 -370t-260 -255.5t-370.5 -91.5zM434 1198v-962h299q140 0 246 64.5t160.5 173t54.5 243.5t-54.5 243.5t-160.5 173t-246 64.5h-299z" />
    <glyph glyph-name="dcaron" unicode="&#x10f;" horiz-adv-x="1495" 
d="M1016 0l-45 162q-64 -81 -165 -133t-235 -52q-140 0 -253 75t-174.5 202t-61.5 281q0 115 36.5 218t100 177.5t155 118t197.5 43.5q121 0 211.5 -51t143.5 -119v620h256v-1542h-166zM1419 1171h-135l23 371h217zM635 211q127 0 209 93.5t82 230.5q0 138 -81.5 230.5
t-209.5 92.5q-131 0 -213 -91t-82 -232q0 -140 82 -232t213 -92z" />
    <glyph glyph-name="Dcroat" unicode="&#x110;" horiz-adv-x="1544" 
d="M172 614h-139v205h139v615h561q205 0 370.5 -91.5t260 -255.5t94.5 -370t-94.5 -370t-260 -255.5t-370.5 -91.5h-561v614zM434 614v-378h299q140 0 246 64.5t160.5 173t54.5 243.5t-54.5 243.5t-160.5 173t-246 64.5h-299v-379h264v-205h-264z" />
    <glyph glyph-name="dcroat" unicode="&#x111;" horiz-adv-x="1341" 
d="M1016 0l-45 162q-64 -81 -165 -133t-235 -52q-140 0 -253 75t-174.5 202t-61.5 281q0 115 36.5 218t100 177.5t155 118t197.5 43.5q121 0 211.5 -51t143.5 -119v268h-258v194h258v158h256v-158h149v-194h-149v-1190h-166zM635 211q127 0 209 93.5t82 230.5
q0 138 -81.5 230.5t-209.5 92.5q-131 0 -213 -91t-82 -232q0 -140 82 -232t213 -92z" />
    <glyph glyph-name="Emacron" unicode="&#x112;" horiz-adv-x="1316" 
d="M977 1642h-588v201h588v-201zM1196 0h-1024v1434h1014v-236h-752v-358h715v-236h-715v-368h762v-236z" />
    <glyph glyph-name="emacron" unicode="&#x113;" horiz-adv-x="1208" 
d="M920 1286h-588v201h588v-201zM1126 436h-782q23 -114 101 -174.5t198 -60.5q88 0 151.5 21t147.5 79l119 -172q-98 -82 -196.5 -117t-229.5 -35q-159 0 -286 74t-197 201.5t-70 282.5q0 154 72 282t197 201.5t274 73.5q97 0 178.5 -29t140.5 -81t100.5 -122.5t61.5 -154
t20 -175.5v-94zM342 621h532q-10 107 -72.5 179t-174.5 72q-111 0 -187.5 -65.5t-97.5 -185.5z" />
    <glyph glyph-name="Ebreve" unicode="&#x114;" horiz-adv-x="1316" 
d="M342 1860l154 79q40 -101 76 -136.5t108 -35.5q73 0 108.5 35.5t77.5 136.5l154 -81q-56 -140 -130.5 -203.5t-209.5 -63.5t-209.5 64t-128.5 205zM1196 0h-1024v1434h1014v-236h-752v-358h715v-236h-715v-368h762v-236z" />
    <glyph glyph-name="ebreve" unicode="&#x115;" horiz-adv-x="1208" 
d="M281 1479l153 80q40 -101 76 -137t108 -36q73 0 109 36t78 137l153 -82q-56 -140 -130.5 -203.5t-209.5 -63.5t-209 64t-128 205zM1126 436h-782q23 -114 101 -174.5t198 -60.5q88 0 151.5 21t147.5 79l119 -172q-98 -82 -196.5 -117t-229.5 -35q-159 0 -286 74
t-197 201.5t-70 282.5q0 154 72 282t197 201.5t274 73.5q97 0 178.5 -29t140.5 -81t100.5 -122.5t61.5 -154t20 -175.5v-94zM342 621h532q-10 107 -72.5 179t-174.5 72q-111 0 -187.5 -65.5t-97.5 -185.5z" />
    <glyph glyph-name="Edotaccent" unicode="&#x116;" horiz-adv-x="1316" 
d="M537 1792q0 65 44 110.5t109 45.5q64 0 110 -46t46 -110t-46 -110t-110 -46q-65 0 -109 45.5t-44 110.5zM1196 0h-1024v1434h1014v-236h-752v-358h715v-236h-715v-368h762v-236z" />
    <glyph glyph-name="edotaccent" unicode="&#x117;" horiz-adv-x="1208" 
d="M465 1407q0 65 44 110.5t109 45.5q64 0 110 -45.5t46 -110.5t-46 -110.5t-110 -45.5q-65 0 -109 45.5t-44 110.5zM1137 436h-783q23 -114 101 -174.5t198 -60.5q88 0 151.5 21t147.5 79l119 -172q-98 -82 -196.5 -117t-229.5 -35q-159 0 -286 74t-197 201.5t-70 282.5
q0 154 72 282t197 201.5t274 73.5q97 0 179 -29t141 -81t100.5 -122.5t61.5 -154t20 -175.5v-94zM352 621h533q-10 106 -72.5 178.5t-175.5 72.5q-111 0 -187.5 -65.5t-97.5 -185.5z" />
    <glyph glyph-name="Eogonek" unicode="&#x118;" horiz-adv-x="1323" 
d="M918 0h-746v1434h1012v-236h-750v-358h713v-236h-713v-368h760l2 -236q-108 -52 -169.5 -91.5t-78 -60t-16.5 -38.5q0 -39 43 -39q69 0 164 53l63 -162q-118 -78 -246 -78q-91 0 -152 47t-61 129q0 66 38 122.5t137 117.5z" />
    <glyph glyph-name="eogonek" unicode="&#x119;" horiz-adv-x="1208" 
d="M811 -176l63 -162q-111 -78 -243 -78q-91 0 -152 47t-61 129q0 58 28 107.5t113 116.5q-207 29 -337 183t-130 368q0 154 72 282t197 201.5t274 73.5q97 0 179 -29t141 -81t100.5 -122.5t61.5 -154t20 -175.5v-94h-783q23 -114 101 -174.5t198 -60.5q88 0 151.5 21
t147.5 79l119 -172q-125 -104 -254 -133q-133 -87 -172 -123.5t-39 -62.5q0 -39 43 -39q75 0 162 53zM352 621h533q-10 106 -72.5 178.5t-175.5 72.5q-111 0 -187.5 -65.5t-97.5 -185.5z" />
    <glyph glyph-name="Ecaron" unicode="&#x11a;" horiz-adv-x="1316" 
d="M795 1587h-217l-218 350h201l123 -206h4l125 206h199zM1196 0h-1024v1434h1014v-236h-752v-358h715v-236h-715v-368h762v-236z" />
    <glyph glyph-name="ecaron" unicode="&#x11b;" horiz-adv-x="1208" 
d="M731 1204h-217l-217 350h201l123 -206h4l125 206h198zM1126 436h-782q23 -114 101 -174.5t198 -60.5q88 0 151.5 21t147.5 79l119 -172q-98 -82 -196.5 -117t-229.5 -35q-159 0 -286 74t-197 201.5t-70 282.5q0 154 72 282t197 201.5t274 73.5q97 0 178.5 -29t140.5 -81
t100.5 -122.5t61.5 -154t20 -175.5v-94zM342 621h532q-10 107 -72.5 179t-174.5 72q-111 0 -187.5 -65.5t-97.5 -185.5z" />
    <glyph glyph-name="Gcircumflex" unicode="&#x11c;" horiz-adv-x="1542" 
d="M694 1587h-200l217 350h217l217 -350h-199l-125 205h-4zM1153 549h-338v237h600v-561q-116 -122 -276.5 -187t-317.5 -65q-153 0 -289 58t-234 157t-155 237t-57 292t57 292t155 237t234 156.5t289 57.5q155 0 307.5 -64.5t255.5 -178.5l-178 -191q-170 195 -385 195
q-139 0 -248 -70.5t-166 -184.5t-57 -249t57 -249t166 -184.5t248 -70.5q95 0 182 29t150 77v230z" />
    <glyph glyph-name="gcircumflex" unicode="&#x11d;" horiz-adv-x="1341" 
d="M528 1219h-200l217 350h217l217 -350h-199l-125 204h-4zM219 -334l66 215q158 -74 315 -74q184 0 255 71t71 216v82q-52 -68 -143 -118t-212 -50q-214 0 -351.5 153t-137.5 386q0 154 62 278.5t174 195.5t253 71q135 0 235.5 -51t164.5 -132l45 160h166v-928
q0 -557 -561 -557q-245 0 -402 82zM635 242q129 0 210 85t81 220q0 136 -81.5 223.5t-209.5 87.5q-132 0 -213.5 -86t-81.5 -225q0 -138 81.5 -221.5t213.5 -83.5z" />
    <glyph glyph-name="Gbreve" unicode="&#x11e;" horiz-adv-x="1542" 
d="M477 1860l154 79q40 -101 76 -136.5t108 -35.5q73 0 108.5 35.5t77.5 136.5l154 -81q-56 -140 -130.5 -203.5t-209.5 -63.5t-209.5 64t-128.5 205zM1153 549h-338v237h600v-561q-116 -122 -276.5 -187t-317.5 -65q-153 0 -289 58t-234 157t-155 237t-57 292t57 292
t155 237t234 156.5t289 57.5q155 0 307.5 -64.5t255.5 -178.5l-178 -191q-170 195 -385 195q-139 0 -248 -70.5t-166 -184.5t-57 -249t57 -249t166 -184.5t248 -70.5q95 0 182 29t150 77v230z" />
    <glyph glyph-name="gbreve" unicode="&#x11f;" horiz-adv-x="1341" 
d="M317 1479l154 80q40 -101 76 -137t108 -36q73 0 109 36t78 137l153 -82q-56 -140 -130.5 -203.5t-209.5 -63.5t-209.5 64t-128.5 205zM219 -334l66 215q158 -74 315 -74q184 0 255 71t71 216v82q-52 -68 -143 -118t-212 -50q-214 0 -351.5 153t-137.5 386q0 154 62 278.5
t174 195.5t253 71q135 0 235.5 -51t164.5 -132l45 160h166v-928q0 -557 -561 -557q-245 0 -402 82zM635 242q129 0 210 85t81 220q0 136 -81.5 223.5t-209.5 87.5q-132 0 -213.5 -86t-81.5 -225q0 -138 81.5 -221.5t213.5 -83.5z" />
    <glyph glyph-name="Gdotaccent" unicode="&#x120;" horiz-adv-x="1542" 
d="M659 1792q0 65 44.5 110.5t109.5 45.5t110.5 -46t45.5 -110t-45.5 -110t-110.5 -46t-109.5 45.5t-44.5 110.5zM1153 549h-338v237h600v-561q-116 -122 -276.5 -187t-317.5 -65q-153 0 -289 58t-234 157t-155 237t-57 292t57 292t155 237t234 156.5t289 57.5
q155 0 307.5 -64.5t255.5 -178.5l-178 -191q-170 195 -385 195q-139 0 -248 -70.5t-166 -184.5t-57 -249t57 -249t166 -184.5t248 -70.5q95 0 182 29t150 77v230z" />
    <glyph glyph-name="gdotaccent" unicode="&#x121;" horiz-adv-x="1341" 
d="M504 1407q0 65 44 110.5t109 45.5t110.5 -45.5t45.5 -110.5t-45.5 -110.5t-110.5 -45.5t-109 45.5t-44 110.5zM219 -334l66 215q158 -74 315 -74q184 0 255 71t71 216v82q-52 -68 -143 -118t-212 -50q-214 0 -351.5 153t-137.5 386q0 154 62 278.5t174 195.5t253 71
q135 0 235.5 -51t164.5 -132l45 160h166v-928q0 -557 -561 -557q-245 0 -402 82zM635 242q129 0 210 85t81 220q0 136 -81.5 223.5t-209.5 87.5q-132 0 -213.5 -86t-81.5 -225q0 -138 81.5 -221.5t213.5 -83.5z" />
    <glyph glyph-name="uni0122" unicode="&#x122;" horiz-adv-x="1542" 
d="M1153 549h-338v237h600v-561q-116 -122 -276.5 -187t-317.5 -65q-153 0 -289 58t-234 157t-155 237t-57 292t57 292t155 237t234 156.5t289 57.5q155 0 307.5 -64.5t255.5 -178.5l-178 -191q-170 195 -385 195q-139 0 -248 -70.5t-166 -184.5t-57 -249t57 -249
t166 -184.5t248 -70.5q95 0 182 29t150 77v230zM815 -469h-197l107 319h246z" />
    <glyph glyph-name="uni0123" unicode="&#x123;" horiz-adv-x="1341" 
d="M764 1223h-246l158 319h194zM219 -334l66 215q158 -74 315 -74q184 0 255 71t71 216v82q-52 -68 -143 -118t-212 -50q-214 0 -351.5 153t-137.5 386q0 154 62 278.5t174 195.5t253 71q135 0 235.5 -51t164.5 -132l45 160h166v-928q0 -557 -561 -557q-245 0 -402 82z
M635 242q129 0 210 85t81 220q0 136 -81.5 223.5t-209.5 87.5q-132 0 -213.5 -86t-81.5 -225q0 -138 81.5 -221.5t213.5 -83.5z" />
    <glyph glyph-name="Hcircumflex" unicode="&#x124;" horiz-adv-x="1540" 
d="M645 1587h-201l218 350h217l217 -350h-199l-125 205h-4zM434 0h-262v1434h262v-594h672v594h262v-1434h-262v604h-672v-604z" />
    <glyph glyph-name="hcircumflex" unicode="&#x125;" horiz-adv-x="1253" 
d="M164 1679h-201l217 351h217l217 -351h-198l-125 205h-4zM418 0h-256v1542h256v-600q45 59 119.5 104.5t177.5 45.5q87 0 156 -24.5t123.5 -77t84 -144.5t29.5 -219v-627h-256v592q0 133 -56 197.5t-157 64.5q-99 0 -160 -74.5t-61 -199.5v-580z" />
    <glyph glyph-name="Hbar" unicode="&#x126;" horiz-adv-x="1540" 
d="M434 0h-262v1040h-125v172h125v222h262v-222h672v222h262v-222h125v-172h-125v-1040h-262v604h-672v-604zM434 1040v-200h672v200h-672z" />
    <glyph glyph-name="hbar" unicode="&#x127;" horiz-adv-x="1253" 
d="M418 0h-256v1190h-152v194h152v158h256v-158h256v-194h-256v-248q45 59 119.5 104.5t177.5 45.5q87 0 156 -24.5t123.5 -77t84 -144.5t29.5 -219v-627h-256v592q0 133 -56 197.5t-157 64.5q-99 0 -160 -74.5t-61 -199.5v-580z" />
    <glyph glyph-name="Itilde" unicode="&#x128;" horiz-adv-x="604" 
d="M78 1636l-154 72q42 116 94 172.5t140 56.5q46 0 88.5 -17.5t69.5 -38.5t57.5 -38.5t54.5 -17.5q28 0 48.5 25.5t47.5 99.5l154 -70q-42 -116 -94 -172.5t-140 -56.5q-46 0 -89.5 17.5t-70 38.5t-57 38.5t-53.5 17.5q-28 0 -48.5 -26t-47.5 -101zM434 0h-262v1434h262
v-1434z" />
    <glyph glyph-name="itilde" unicode="&#x129;" horiz-adv-x="577" 
d="M63 1249l-153 72q42 116 93.5 172.5t139.5 56.5q46 0 89 -17.5t69.5 -38.5t57.5 -38.5t55 -17.5q28 0 48.5 25.5t47.5 99.5l154 -70q-42 -116 -94 -172.5t-140 -56.5q-46 0 -89.5 17.5t-70 38.5t-57 38.5t-53.5 17.5q-28 0 -49 -26t-48 -101zM418 0h-256v1069h256v-1069z
" />
    <glyph glyph-name="Imacron" unicode="&#x12a;" horiz-adv-x="604" 
d="M596 1642h-588v201h588v-201zM434 0h-262v1434h262v-1434z" />
    <glyph glyph-name="imacron" unicode="&#x12b;" horiz-adv-x="577" 
d="M582 1288h-588v201h588v-201zM418 0h-256v1069h256v-1069z" />
    <glyph glyph-name="Ibreve" unicode="&#x12c;" horiz-adv-x="604" 
d="M-35 1860l154 79q40 -101 76 -136.5t108 -35.5q73 0 108.5 35.5t77.5 136.5l154 -81q-56 -140 -130.5 -203.5t-209.5 -63.5t-209.5 64t-128.5 205zM434 0h-262v1434h262v-1434z" />
    <glyph glyph-name="ibreve" unicode="&#x12d;" horiz-adv-x="577" 
d="M-49 1479l153 80q40 -101 76.5 -137t108.5 -36q73 0 108.5 35.5t77.5 137.5l154 -82q-56 -140 -130.5 -203.5t-209.5 -63.5t-209.5 64t-128.5 205zM418 0h-256v1069h256v-1069z" />
    <glyph glyph-name="Iogonek" unicode="&#x12e;" horiz-adv-x="604" 
d="M377 -176l63 -162q-110 -78 -245 -78q-91 0 -152 47t-61 129q0 70 39.5 133t150.5 134v1407h262v-1434q-111 -54 -172.5 -93.5t-76.5 -59t-15 -37.5q0 -19 12 -29t31 -10q69 0 164 53z" />
    <glyph glyph-name="iogonek" unicode="&#x12f;" horiz-adv-x="577" 
d="M131 1407q0 65 45 110.5t111 45.5q64 0 109.5 -45.5t45.5 -110.5t-45.5 -110.5t-109.5 -45.5q-66 0 -111 45.5t-45 110.5zM360 -176l62 -160q-108 -80 -244 -80q-91 0 -152 47t-61 129q0 70 41 134t156 137v1038h256v-1069q-111 -54 -172.5 -93.5t-76.5 -59t-15 -37.5
q0 -39 43 -39q68 0 163 53z" />
    <glyph glyph-name="Idotaccent" unicode="&#x130;" horiz-adv-x="604" 
d="M147 1792q0 65 44.5 110.5t109.5 45.5t110.5 -46t45.5 -110t-45.5 -110t-110.5 -46t-109.5 45.5t-44.5 110.5zM434 0h-262v1434h262v-1434z" />
    <glyph glyph-name="dotlessi" unicode="&#x131;" horiz-adv-x="577" 
d="M418 0h-256v1069h256v-1069z" />
    <glyph glyph-name="IJ" unicode="&#x132;" horiz-adv-x="1650" 
d="M434 0h-262v1434h262v-1434zM670 59l94 217q113 -63 237 -63q111 0 171.5 74t60.5 243v666h-399v238h661v-914q0 -263 -129.5 -405t-339.5 -142q-95 0 -192 23.5t-164 62.5z" />
    <glyph glyph-name="ij" unicode="&#x133;" horiz-adv-x="1318" 
d="M137 1407q0 65 44.5 110.5t109.5 45.5q64 0 109.5 -45.5t45.5 -110.5t-45.5 -110.5t-109.5 -45.5q-65 0 -109.5 45.5t-44.5 110.5zM872 1407q0 65 45 110.5t111 45.5q64 0 110 -45.5t46 -110.5t-46 -110.5t-110 -45.5q-66 0 -111 45.5t-45 110.5zM422 0h-256v1069h256
v-1069zM520 -352l86 207q86 -37 168 -37q71 0 102 49.5t31 161.5v811h-274v229h530v-1036q0 -216 -91.5 -332.5t-268.5 -116.5q-151 0 -283 64z" />
    <glyph glyph-name="Jcircumflex" unicode="&#x134;" horiz-adv-x="1060" 
d="M467 1587h-201l217 350h217l218 -350h-199l-125 205h-4zM70 59l94 217q113 -63 237 -63q111 0 171.5 74t60.5 243v666h-400v238h662v-914q0 -263 -129.5 -405t-339.5 -142q-95 0 -192 23.5t-164 62.5z" />
    <glyph glyph-name="jcircumflex" unicode="&#x135;" horiz-adv-x="751" 
d="M238 1219h-201l217 350h217l217 -350h-199l-124 204h-5zM-53 -346l94 205q80 -41 168 -41q69 0 100 49.5t31 161.5v811h-272v229h528v-1036q0 -216 -91 -332.5t-269 -116.5q-157 0 -289 70z" />
    <glyph glyph-name="uni0136" unicode="&#x136;" horiz-adv-x="1382" 
d="M434 0h-262v1434h262v-598l551 598h344l-571 -623l594 -811h-322l-461 623l-135 -152v-471zM705 -469h-195l106 319h246z" />
    <glyph glyph-name="uni0137" unicode="&#x137;" horiz-adv-x="1173" 
d="M418 0h-256v1542h256v-903l407 430h322l-430 -455l446 -614h-303l-321 436l-121 -129v-307zM629 -469h-195l109 319h243z" />
    <glyph glyph-name="kgreenlandic" unicode="&#x138;" horiz-adv-x="1177" 
d="M418 0h-256v1069h256v-430l407 430h322l-430 -455l446 -614h-303l-321 436l-121 -129v-307z" />
    <glyph glyph-name="Lacute" unicode="&#x139;" horiz-adv-x="1173" 
d="M389 1618h-203l197 319h233zM1104 0h-932v1434h262v-1203h670v-231z" />
    <glyph glyph-name="lacute" unicode="&#x13a;" horiz-adv-x="577" 
d="M373 1630h-203l197 320h233zM418 0h-256v1542h256v-1542z" />
    <glyph glyph-name="uni013B" unicode="&#x13b;" horiz-adv-x="1173" 
d="M1104 0h-932v1434h262v-1203h670v-231zM639 -469h-195l107 319h244z" />
    <glyph glyph-name="uni013C" unicode="&#x13c;" horiz-adv-x="577" 
d="M418 0h-256v1542h256v-1542zM272 -469h-194l106 319h244z" />
    <glyph glyph-name="Lcaron" unicode="&#x13d;" horiz-adv-x="1173" 
d="M1104 0h-932v1434h262v-1203h670v-231zM834 911h-152l27 523h229z" />
    <glyph glyph-name="lcaron" unicode="&#x13e;" horiz-adv-x="731" 
d="M418 0h-256v1542h256v-1542zM653 1171h-131l19 371h219z" />
    <glyph glyph-name="Ldot" unicode="&#x13f;" horiz-adv-x="1173" 
d="M1104 0h-932v1434h262v-1203h670v-231zM721 844q0 65 44.5 110t108.5 45q66 0 111 -45t45 -110t-45 -110.5t-111 -45.5q-64 0 -108.5 45.5t-44.5 110.5z" />
    <glyph glyph-name="ldot" unicode="&#x140;" horiz-adv-x="907" 
d="M418 0h-256v1542h256v-1542zM547 844q0 65 44.5 110t108.5 45q66 0 111 -45t45 -110t-45 -110.5t-111 -45.5q-64 0 -108.5 45.5t-44.5 110.5z" />
    <glyph glyph-name="Lslash" unicode="&#x141;" horiz-adv-x="1173" 
d="M172 596l-160 -39v186l160 39v652h262v-586l385 94l2 -186l-387 -94v-431h670v-231h-932v596z" />
    <glyph glyph-name="lslash" unicode="&#x142;" horiz-adv-x="577" 
d="M162 674l-156 -39v186l156 37v684h256v-620l153 36v-184l-153 -39v-735h-256v674z" />
    <glyph glyph-name="Nacute" unicode="&#x143;" horiz-adv-x="1589" 
d="M856 1618h-203l197 319h233zM434 0h-262v1434h252l729 -988h2v988h262v-1434h-254l-727 989h-2v-989z" />
    <glyph glyph-name="nacute" unicode="&#x144;" horiz-adv-x="1253" 
d="M707 1235h-203l196 319h234zM418 0h-256v1069h166l49 -174q42 74 132 135.5t206 61.5q393 0 393 -465v-627h-254v592q0 133 -56.5 197.5t-156.5 64.5t-161.5 -74.5t-61.5 -199.5v-580z" />
    <glyph glyph-name="uni0145" unicode="&#x145;" horiz-adv-x="1589" 
d="M434 0h-262v1434h252l729 -988h2v988h262v-1434h-254l-727 989h-2v-989zM793 -469h-195l107 319h245z" />
    <glyph glyph-name="uni0146" unicode="&#x146;" horiz-adv-x="1253" 
d="M418 0h-256v1069h166l49 -174q42 74 132 135.5t206 61.5q393 0 393 -465v-627h-254v592q0 133 -56.5 197.5t-156.5 64.5t-161.5 -74.5t-61.5 -199.5v-580zM641 -469h-195l107 319h246z" />
    <glyph glyph-name="Ncaron" unicode="&#x147;" horiz-adv-x="1589" 
d="M897 1587h-217l-217 350h201l122 -206h5l124 206h199zM434 0h-262v1434h252l729 -988h2v988h262v-1434h-254l-727 989h-2v-989z" />
    <glyph glyph-name="ncaron" unicode="&#x148;" horiz-adv-x="1253" 
d="M741 1204h-217l-217 350h201l123 -206h4l125 206h198zM418 0h-256v1069h166l49 -174q42 74 132 135.5t206 61.5q393 0 393 -465v-627h-254v592q0 133 -56.5 197.5t-156.5 64.5t-161.5 -74.5t-61.5 -199.5v-580z" />
    <glyph glyph-name="napostrophe" unicode="&#x149;" horiz-adv-x="1253" 
d="M291 1235h-195l109 319h244zM418 0h-256v1069h166l49 -174q42 74 132 135.5t206 61.5q393 0 393 -465v-627h-254v592q0 133 -56.5 197.5t-156.5 64.5t-161.5 -74.5t-61.5 -199.5v-580z" />
    <glyph glyph-name="Eng" unicode="&#x14a;" horiz-adv-x="1576" 
d="M434 0h-262v1434h252l717 -975h4v975h262v-1491q0 -167 -73 -263t-234 -96q-136 0 -264 68l79 201q80 -35 140 -35q54 0 74 29.5t22 95.5v63l-715 973h-2v-979z" />
    <glyph glyph-name="eng" unicode="&#x14b;" horiz-adv-x="1253" 
d="M418 0h-256v1069h166l49 -174q42 74 132 135.5t206 61.5q87 0 156 -24.5t123.5 -77t84 -144.5t29.5 -219v-684q0 -167 -73 -263t-232 -96q-135 0 -266 68l81 201q80 -35 140 -35q54 0 74 30t20 95v649q0 133 -56 197.5t-157 64.5q-99 0 -160 -74.5t-61 -199.5v-580z" />
    <glyph glyph-name="Omacron" unicode="&#x14c;" horiz-adv-x="1642" 
d="M1116 1642h-588v201h588v-201zM821 -27q-153 0 -289 58t-234 157t-155 237t-57 292t57 292t155 237t234 156.5t289 57.5t289 -57.5t234 -156.5t155 -237t57 -292t-57 -292t-155 -237t-234 -157t-289 -58zM821 213q140 0 249 70.5t165.5 184.5t56.5 249t-56.5 249
t-165.5 184.5t-249 70.5q-139 0 -247.5 -70.5t-165 -184.5t-56.5 -249t56.5 -249t165 -184.5t247.5 -70.5z" />
    <glyph glyph-name="omacron" unicode="&#x14d;" horiz-adv-x="1271" 
d="M928 1290h-588v201h588v-201zM82 535q0 155 71.5 282.5t199 201t284.5 73.5t284.5 -73.5t199 -201t71.5 -282.5t-71.5 -282.5t-199 -201.5t-284.5 -74t-284.5 74t-199 201.5t-71.5 282.5zM637 211q129 0 212 92.5t83 231.5q0 140 -82.5 231.5t-212.5 91.5t-213.5 -91.5
t-83.5 -231.5q0 -139 83.5 -231.5t213.5 -92.5z" />
    <glyph glyph-name="Obreve" unicode="&#x14e;" horiz-adv-x="1642" 
d="M483 1860l154 79q40 -101 76 -136.5t108 -35.5q73 0 109 35.5t78 136.5l153 -81q-56 -140 -130.5 -203.5t-209.5 -63.5t-209.5 64t-128.5 205zM821 -27q-153 0 -289 58t-234 157t-155 237t-57 292t57 292t155 237t234 156.5t289 57.5t289 -57.5t234 -156.5t155 -237
t57 -292t-57 -292t-155 -237t-234 -157t-289 -58zM821 213q140 0 249 70.5t165.5 184.5t56.5 249t-56.5 249t-165.5 184.5t-249 70.5q-139 0 -247.5 -70.5t-165 -184.5t-56.5 -249t56.5 -249t165 -184.5t247.5 -70.5z" />
    <glyph glyph-name="obreve" unicode="&#x14f;" horiz-adv-x="1271" 
d="M297 1479l154 80q40 -101 76 -137t108 -36q73 0 108.5 35.5t77.5 137.5l154 -82q-56 -140 -130.5 -203.5t-209.5 -63.5t-209.5 64t-128.5 205zM82 535q0 155 71.5 282.5t199 201t284.5 73.5t284.5 -73.5t199 -201t71.5 -282.5t-71.5 -282.5t-199 -201.5t-284.5 -74
t-284.5 74t-199 201.5t-71.5 282.5zM637 211q129 0 212 92.5t83 231.5q0 140 -82.5 231.5t-212.5 91.5t-213.5 -91.5t-83.5 -231.5q0 -139 83.5 -231.5t213.5 -92.5z" />
    <glyph glyph-name="Ohungarumlaut" unicode="&#x150;" horiz-adv-x="1642" 
d="M1038 1618h-190l199 319h225zM737 1618h-190l198 319h228zM821 -27q-153 0 -289 58t-234 157t-155 237t-57 292t57 292t155 237t234 156.5t289 57.5t289 -57.5t234 -156.5t155 -237t57 -292t-57 -292t-155 -237t-234 -157t-289 -58zM821 213q140 0 249 70.5t165.5 184.5
t56.5 249t-56.5 249t-165.5 184.5t-249 70.5q-139 0 -247.5 -70.5t-165 -184.5t-56.5 -249t56.5 -249t165 -184.5t247.5 -70.5z" />
    <glyph glyph-name="ohungarumlaut" unicode="&#x151;" horiz-adv-x="1271" 
d="M852 1235h-190l198 319h225zM551 1235h-191l199 319h227zM82 535q0 155 71.5 282.5t199 201t284.5 73.5t284.5 -73.5t199 -201t71.5 -282.5t-71.5 -282.5t-199 -201.5t-284.5 -74t-284.5 74t-199 201.5t-71.5 282.5zM637 211q129 0 212 92.5t83 231.5q0 140 -82.5 231.5
t-212.5 91.5t-213.5 -91.5t-83.5 -231.5q0 -139 83.5 -231.5t213.5 -92.5z" />
    <glyph glyph-name="OE" unicode="&#x152;" horiz-adv-x="2271" 
d="M2152 0h-1138q-92 -27 -193 -27q-153 0 -289 58t-234 157t-155 237t-57 292t57 292t155 237t234 156.5t289 57.5q96 0 195 -26h1124v-236h-760q135 -144 166 -358h557v-236h-555q-28 -212 -168 -368h772v-236zM821 213q139 0 248 70.5t166 184.5t57 249t-57 249
t-166 184.5t-248 70.5t-248 -70.5t-166 -184.5t-57 -249t57 -249t166 -184.5t248 -70.5z" />
    <glyph glyph-name="oe" unicode="&#x153;" horiz-adv-x="2076" 
d="M82 535q0 155 71.5 282.5t198.5 201t283 73.5q134 0 246.5 -53.5t189.5 -149.5q75 95 185 149t237 54q97 0 179 -29t141 -81t100.5 -122.5t61.5 -154t20 -175.5v-94h-783q25 -114 102 -174.5t197 -60.5q89 0 153 21t146 79l119 -172q-98 -82 -196.5 -117t-229.5 -35
q-134 0 -246.5 53.5t-187.5 149.5q-75 -95 -188 -149t-246 -54q-156 0 -283 74t-198.5 201.5t-71.5 282.5zM1210 621h533q-8 106 -71.5 178.5t-176.5 72.5q-111 0 -187.5 -65.5t-97.5 -185.5zM635 211q130 0 213.5 92.5t83.5 231.5q0 140 -83.5 231.5t-213.5 91.5
q-129 0 -212 -91.5t-83 -231.5q0 -139 83.5 -231.5t211.5 -92.5z" />
    <glyph glyph-name="Racute" unicode="&#x154;" horiz-adv-x="1378" 
d="M770 1618h-203l197 319h233zM434 0h-262v1434h616q72 0 139 -13t131.5 -44t112 -77.5t76.5 -119.5t29 -164q0 -80 -23 -145.5t-61.5 -110t-92 -77.5t-111 -50.5t-122.5 -24.5l447 -608h-305l-445 604h-129v-604zM434 1198v-367h330q246 0 246 185q0 89 -56 135.5
t-190 46.5h-330z" />
    <glyph glyph-name="racute" unicode="&#x155;" horiz-adv-x="858" 
d="M586 1235h-203l197 319h233zM418 0h-256v1069h164l61 -188q20 36 40 63t56 58.5t78.5 51t107.5 30.5t144 6l-35 -273q-99 7 -171 -14t-112 -64t-58.5 -97t-18.5 -122v-520z" />
    <glyph glyph-name="uni0156" unicode="&#x156;" horiz-adv-x="1378" 
d="M434 0h-262v1434h616q72 0 139 -13t131.5 -44t112 -77.5t76.5 -119.5t29 -164q0 -80 -23 -145.5t-61.5 -110t-92 -77.5t-111 -50.5t-122.5 -24.5l447 -608h-305l-445 604h-129v-604zM434 1198v-367h330q246 0 246 185q0 89 -56 135.5t-190 46.5h-330zM702 -469h-196
l106 319h246z" />
    <glyph glyph-name="uni0157" unicode="&#x157;" horiz-adv-x="858" 
d="M418 0h-256v1069h164l61 -188q20 36 40 63t56 58.5t78.5 51t107.5 30.5t144 6l-35 -273q-99 7 -171 -14t-112 -64t-58.5 -97t-18.5 -122v-520zM270 -469h-196l106 319h248z" />
    <glyph glyph-name="Rcaron" unicode="&#x158;" horiz-adv-x="1378" 
d="M809 1587h-217l-217 350h200l123 -206h4l125 206h199zM434 0h-262v1434h616q72 0 139 -13t131.5 -44t112 -77.5t76.5 -119.5t29 -164q0 -80 -23 -145.5t-61.5 -110t-92 -77.5t-111 -50.5t-122.5 -24.5l447 -608h-305l-445 604h-129v-604zM434 1198v-367h330
q246 0 246 185q0 89 -56 135.5t-190 46.5h-330z" />
    <glyph glyph-name="rcaron" unicode="&#x159;" horiz-adv-x="858" 
d="M600 1204h-217l-217 350h201l122 -206h5l124 206h199zM418 0h-256v1069h164l61 -188q20 36 40 63t56 58.5t78.5 51t107.5 30.5t144 6l-35 -273q-99 7 -171 -14t-112 -64t-58.5 -97t-18.5 -122v-520z" />
    <glyph glyph-name="Sacute" unicode="&#x15a;" horiz-adv-x="1325" 
d="M770 1618h-203l197 319h233zM88 158l131 215q104 -73 227.5 -116.5t227.5 -43.5q139 0 213 50t74 136q0 38 -14.5 66.5t-36 47t-60 33t-73 23t-87.5 17.5q-15 3 -45 8q-52 9 -79 14t-77.5 16.5t-79 22.5t-71 29.5t-67 39t-53.5 51t-44.5 66t-26 82.5t-10.5 101
q0 205 150.5 324.5t382.5 119.5q149 0 268 -35.5t258 -126.5l-127 -211q-201 134 -389 134q-128 0 -202.5 -49t-74.5 -148q0 -21 5 -39.5t12 -33t22 -26.5t27.5 -21t35.5 -17t39 -13t46 -11.5t47.5 -9.5l52.5 -9q186 -29 266 -56q198 -68 251 -231q20 -64 20 -145
q0 -195 -150 -317t-393 -122q-166 0 -321.5 47t-274.5 138z" />
    <glyph glyph-name="sacute" unicode="&#x15b;" horiz-adv-x="1079" 
d="M633 1235h-203l197 319h233zM76 121l110 194q97 -63 183.5 -91.5t183.5 -28.5q190 0 190 106q0 54 -53 79.5t-178 39.5q-71 8 -125 20.5t-108 37t-89 59.5t-57 90t-22 127q0 149 114 243.5t303 94.5q105 0 221 -30.5t220 -98.5l-113 -193q-171 107 -332 107
q-168 0 -168 -113q0 -53 51 -78.5t177 -40.5q73 -10 125.5 -21.5t108.5 -35.5t90 -57t56.5 -87t22.5 -125q0 -155 -114.5 -248.5t-327.5 -93.5q-244 0 -469 144z" />
    <glyph glyph-name="Scircumflex" unicode="&#x15c;" horiz-adv-x="1325" 
d="M567 1587h-200l217 350h217l217 -350h-199l-125 205h-4zM88 158l131 215q104 -73 227.5 -116.5t227.5 -43.5q139 0 213 50t74 136q0 38 -14.5 66.5t-36 47t-60 33t-73 23t-87.5 17.5q-15 3 -45 8q-52 9 -79 14t-77.5 16.5t-79 22.5t-71 29.5t-67 39t-53.5 51t-44.5 66
t-26 82.5t-10.5 101q0 205 150.5 324.5t382.5 119.5q149 0 268 -35.5t258 -126.5l-127 -211q-201 134 -389 134q-128 0 -202.5 -49t-74.5 -148q0 -21 5 -39.5t12 -33t22 -26.5t27.5 -21t35.5 -17t39 -13t46 -11.5t47.5 -9.5l52.5 -9q186 -29 266 -56q198 -68 251 -231
q20 -64 20 -145q0 -195 -150 -317t-393 -122q-166 0 -321.5 47t-274.5 138z" />
    <glyph glyph-name="scircumflex" unicode="&#x15d;" horiz-adv-x="1079" 
d="M430 1219h-201l217 350h218l217 -350h-199l-125 204h-4zM76 121l110 194q97 -63 183.5 -91.5t183.5 -28.5q190 0 190 106q0 54 -53 79.5t-178 39.5q-71 8 -125 20.5t-108 37t-89 59.5t-57 90t-22 127q0 149 114 243.5t303 94.5q105 0 221 -30.5t220 -98.5l-113 -193
q-171 107 -332 107q-168 0 -168 -113q0 -53 51 -78.5t177 -40.5q73 -10 125.5 -21.5t108.5 -35.5t90 -57t56.5 -87t22.5 -125q0 -155 -114.5 -248.5t-327.5 -93.5q-244 0 -469 144z" />
    <glyph glyph-name="Scedilla" unicode="&#x15e;" horiz-adv-x="1325" 
d="M88 158l131 215q104 -73 227.5 -116.5t227.5 -43.5q139 0 213 50t74 136q0 38 -14.5 66.5t-36 47t-60 33t-73 23t-87.5 17.5q-15 3 -45 8q-52 9 -79 14t-77.5 16.5t-79 22.5t-71 29.5t-67 39t-53.5 51t-44.5 66t-26 82.5t-10.5 101q0 205 150.5 324.5t382.5 119.5
q149 0 268 -35.5t258 -126.5l-127 -211q-201 134 -389 134q-128 0 -202.5 -49t-74.5 -148q0 -21 5 -39.5t12 -33t22 -26.5t27.5 -21t35.5 -17t39 -13t46 -11.5t47.5 -9.5l52.5 -9q186 -29 266 -56q198 -68 251 -231q20 -64 20 -145q0 -169 -115.5 -285t-310.5 -145
l-119 -375h-227l118 373q-286 26 -485 178z" />
    <glyph glyph-name="scedilla" unicode="&#x15f;" horiz-adv-x="1079" 
d="M76 121l110 194q97 -63 183.5 -91.5t183.5 -28.5q190 0 190 106q0 54 -53 79.5t-178 39.5q-71 8 -125 20.5t-108 37t-89 59.5t-57 90t-22 127q0 149 114 243.5t303 94.5q105 0 221 -30.5t220 -98.5l-113 -193q-171 107 -332 107q-168 0 -168 -113q0 -53 51 -78.5
t177 -40.5q73 -10 125.5 -21.5t108.5 -35.5t90 -57t56.5 -87t22.5 -125q0 -127 -78 -213.5t-227 -115.5l-121 -383h-227l121 375q-193 21 -379 139z" />
    <glyph glyph-name="Scaron" unicode="&#x160;" horiz-adv-x="1325" 
d="M791 1587h-218l-217 350h201l123 -206h4l125 206h199zM88 158l131 215q104 -73 227.5 -116.5t227.5 -43.5q139 0 213 50t74 136q0 38 -14.5 66.5t-36 47t-60 33t-73 23t-87.5 17.5q-15 3 -45 8q-52 9 -79 14t-77.5 16.5t-79 22.5t-71 29.5t-67 39t-53.5 51t-44.5 66
t-26 82.5t-10.5 101q0 205 150.5 324.5t382.5 119.5q149 0 268 -35.5t258 -126.5l-127 -211q-201 134 -389 134q-128 0 -202.5 -49t-74.5 -148q0 -21 5 -39.5t12 -33t22 -26.5t27.5 -21t35.5 -17t39 -13t46 -11.5t47.5 -9.5l52.5 -9q186 -29 266 -56q198 -68 251 -231
q20 -64 20 -145q0 -195 -150 -317t-393 -122q-166 0 -321.5 47t-274.5 138z" />
    <glyph glyph-name="scaron" unicode="&#x161;" horiz-adv-x="1079" 
d="M666 1204h-217l-218 350h201l123 -206h4l125 206h199zM76 121l110 194q97 -63 183.5 -91.5t183.5 -28.5q190 0 190 106q0 54 -53 79.5t-178 39.5q-71 8 -125 20.5t-108 37t-89 59.5t-57 90t-22 127q0 149 114 243.5t303 94.5q105 0 221 -30.5t220 -98.5l-113 -193
q-171 107 -332 107q-168 0 -168 -113q0 -53 51 -78.5t177 -40.5q73 -10 125.5 -21.5t108.5 -35.5t90 -57t56.5 -87t22.5 -125q0 -155 -114.5 -248.5t-327.5 -93.5q-244 0 -469 144z" />
    <glyph glyph-name="uni0162" unicode="&#x162;" horiz-adv-x="1214" 
d="M739 0h-262v1194h-446v240h1153v-240h-445v-1194zM584 -469h-197l107 319h245z" />
    <glyph glyph-name="uni0163" unicode="&#x163;" horiz-adv-x="864" 
d="M725 256l84 -205q-112 -74 -262 -74q-172 0 -266.5 95t-94.5 288v476h-135v229h146v231h245v-231h328v-229h-328v-476q0 -84 27.5 -116.5t89.5 -32.5q75 0 166 45zM492 -469h-197l106 319h246z" />
    <glyph glyph-name="Tcaron" unicode="&#x164;" horiz-adv-x="1214" 
d="M715 1587h-217l-217 350h200l123 -206h4l125 206h199zM739 0h-262v1194h-446v240h1153v-240h-445v-1194z" />
    <glyph glyph-name="tcaron" unicode="&#x165;" horiz-adv-x="864" 
d="M707 1190h-150l16 352h224zM725 256l84 -205q-112 -74 -262 -74q-172 0 -266.5 95t-94.5 288v476h-135v229h146v231h245v-231h328v-229h-328v-476q0 -84 27.5 -116.5t89.5 -32.5q75 0 166 45z" />
    <glyph glyph-name="Tbar" unicode="&#x166;" horiz-adv-x="1214" 
d="M739 0h-262v614h-377v187h377v393h-446v240h1153v-240h-445v-393h373v-187h-373v-614z" />
    <glyph glyph-name="tbar" unicode="&#x167;" horiz-adv-x="864" 
d="M186 498h-135v172h135v166h-135v229h146v231h245v-231h328v-229h-328v-166h322v-172h-322v-138q0 -84 27.5 -116.5t89.5 -32.5q75 0 166 45l84 -205q-112 -74 -262 -74q-172 0 -266.5 95t-94.5 288v138z" />
    <glyph glyph-name="Utilde" unicode="&#x168;" horiz-adv-x="1519" 
d="M535 1636l-154 72q42 116 93.5 172.5t139.5 56.5q46 0 89 -17.5t69.5 -38.5t57.5 -38.5t55 -17.5q28 0 48.5 25.5t47.5 99.5l154 -70q-42 -116 -94 -172.5t-140 -56.5q-46 0 -89.5 17.5t-70 38.5t-57 38.5t-53.5 17.5q-28 0 -48.5 -26t-47.5 -101zM156 590v844h262v-834
q0 -195 89.5 -291t252.5 -96q164 0 253 96t89 291v834h262v-844q0 -149 -47 -268t-130 -194.5t-191.5 -115t-235.5 -39.5t-235.5 39.5t-191.5 115t-130 194.5t-47 268z" />
    <glyph glyph-name="utilde" unicode="&#x169;" horiz-adv-x="1251" 
d="M395 1243l-153 72q42 116 93.5 172.5t139.5 56.5q46 0 88.5 -17.5t69.5 -38.5t57.5 -38.5t54.5 -17.5q28 0 49.5 25.5t47.5 98.5l153 -69q-42 -117 -93.5 -173.5t-139.5 -56.5q-46 0 -89.5 17.5t-70 39t-57 39t-53.5 17.5q-28 0 -49 -26t-48 -101zM924 0l-50 164
q-38 -71 -128.5 -129t-208.5 -58q-87 0 -156 24t-123 75.5t-83.5 141.5t-29.5 214v637h256v-602q0 -132 54.5 -191t156.5 -59q99 0 160.5 73.5t61.5 198.5v580h256v-1069h-166z" />
    <glyph glyph-name="Umacron" unicode="&#x16a;" horiz-adv-x="1519" 
d="M1053 1642h-588v201h588v-201zM156 590v844h262v-834q0 -195 89.5 -291t252.5 -96q164 0 253 96t89 291v834h262v-844q0 -149 -47 -268t-130 -194.5t-191.5 -115t-235.5 -39.5t-235.5 39.5t-191.5 115t-130 194.5t-47 268z" />
    <glyph glyph-name="umacron" unicode="&#x16b;" horiz-adv-x="1251" 
d="M909 1290h-587v201h587v-201zM924 0l-50 164q-38 -71 -128.5 -129t-208.5 -58q-87 0 -156 24t-123 75.5t-83.5 141.5t-29.5 214v637h256v-602q0 -132 54.5 -191t156.5 -59q99 0 160.5 73.5t61.5 198.5v580h256v-1069h-166z" />
    <glyph glyph-name="Ubreve" unicode="&#x16c;" horiz-adv-x="1519" 
d="M422 1860l153 79q40 -101 76 -136.5t109 -35.5t108.5 35.5t77.5 136.5l154 -81q-56 -140 -130.5 -203.5t-209.5 -63.5t-209.5 64t-128.5 205zM156 590v844h262v-834q0 -195 89.5 -291t252.5 -96q164 0 253 96t89 291v834h262v-844q0 -149 -47 -268t-130 -194.5
t-191.5 -115t-235.5 -39.5t-235.5 39.5t-191.5 115t-130 194.5t-47 268z" />
    <glyph glyph-name="ubreve" unicode="&#x16d;" horiz-adv-x="1251" 
d="M281 1479l153 80q40 -101 76 -137t108 -36q73 0 109 36t78 137l153 -82q-56 -140 -130.5 -203.5t-209.5 -63.5t-209 64t-128 205zM924 0l-50 164q-38 -71 -128.5 -129t-208.5 -58q-87 0 -156 24t-123 75.5t-83.5 141.5t-29.5 214v637h256v-602q0 -132 54.5 -191
t156.5 -59q99 0 160.5 73.5t61.5 198.5v580h256v-1069h-166z" />
    <glyph glyph-name="Uring" unicode="&#x16e;" horiz-adv-x="1519" 
d="M760 1552q-80 0 -137.5 57t-57.5 138t57.5 138t137.5 57t137 -57t57 -138t-57 -138t-137 -57zM760 1669q30 0 49.5 23t19.5 55q0 31 -19.5 53.5t-49.5 22.5t-51 -22.5t-21 -53.5t21 -54.5t51 -23.5zM156 590v844h262v-834q0 -195 89.5 -291t252.5 -96q164 0 253 96
t89 291v834h262v-844q0 -149 -47 -268t-130 -194.5t-191.5 -115t-235.5 -39.5t-235.5 39.5t-191.5 115t-130 194.5t-47 268z" />
    <glyph glyph-name="uring" unicode="&#x16f;" horiz-adv-x="1251" 
d="M616 1190q-80 0 -137 56.5t-57 137.5t57 138t137 57t137.5 -57t57.5 -138t-57.5 -137.5t-137.5 -56.5zM616 1307q30 0 50 23t20 54t-20 53.5t-50 22.5t-50.5 -22.5t-20.5 -53.5t20.5 -54t50.5 -23zM924 0l-50 164q-38 -71 -128.5 -129t-208.5 -58q-87 0 -156 24
t-123 75.5t-83.5 141.5t-29.5 214v637h256v-602q0 -132 54.5 -191t156.5 -59q99 0 160.5 73.5t61.5 198.5v580h256v-1069h-166z" />
    <glyph glyph-name="Uhungarumlaut" unicode="&#x170;" horiz-adv-x="1519" 
d="M932 1618h-191l199 319h225zM631 1618h-191l199 319h227zM156 590v844h262v-834q0 -195 89.5 -291t252.5 -96q164 0 253 96t89 291v834h262v-844q0 -149 -47 -268t-130 -194.5t-191.5 -115t-235.5 -39.5t-235.5 39.5t-191.5 115t-130 194.5t-47 268z" />
    <glyph glyph-name="uhungarumlaut" unicode="&#x171;" horiz-adv-x="1251" 
d="M819 1235h-190l198 319h226zM518 1235h-190l198 319h228zM924 0l-50 164q-38 -71 -128.5 -129t-208.5 -58q-87 0 -156 24t-123 75.5t-83.5 141.5t-29.5 214v637h256v-602q0 -132 54.5 -191t156.5 -59q99 0 160.5 73.5t61.5 198.5v580h256v-1069h-166z" />
    <glyph glyph-name="Uogonek" unicode="&#x172;" horiz-adv-x="1519" 
d="M156 590v844h262v-834q0 -195 89.5 -291t252.5 -96q164 0 253 96t89 291v834h262v-844q0 -233 -110.5 -384t-295.5 -206q-134 -88 -173.5 -126t-39.5 -64q0 -39 43 -39q63 0 162 51l64 -160q-114 -78 -246 -78q-91 0 -152 47t-61 129q0 56 26 104.5t105 112.5
q-114 11 -209.5 55.5t-167.5 120t-112.5 187.5t-40.5 250z" />
    <glyph glyph-name="uogonek" unicode="&#x173;" horiz-adv-x="1259" 
d="M901 68l-24 96q-40 -71 -131 -129t-207 -58q-88 0 -157 24t-123.5 75.5t-84 141.5t-29.5 214v637h256v-602q0 -252 211 -252q99 0 161.5 74.5t62.5 199.5v580h254v-1069q-112 -59 -171.5 -97.5t-75.5 -56.5t-16 -36q0 -39 43 -39q69 0 164 53l64 -164q-116 -76 -248 -76
q-91 0 -151 47t-60 129q0 46 16 83.5t75.5 94.5t170.5 130z" />
    <glyph glyph-name="Wcircumflex" unicode="&#x174;" horiz-adv-x="2142" 
d="M958 1587h-200l217 350h217l217 -350h-199l-125 205h-4zM743 0h-264l-473 1434h270l330 -1024h2l332 1024h264l330 -1024h2l332 1024h268l-473 -1434h-264l-328 1053h-2z" />
    <glyph glyph-name="wcircumflex" unicode="&#x175;" horiz-adv-x="1658" 
d="M705 1219h-201l217 350h217l217 -350h-199l-125 204h-4zM598 0h-258l-330 1069h262l207 -709l223 709h256l222 -709l206 709h263l-330 -1069h-256l-234 743z" />
    <glyph glyph-name="Ycircumflex" unicode="&#x176;" horiz-adv-x="1359" 
d="M557 1587h-201l217 350h218l217 -350h-199l-125 205h-4zM811 0h-262v539l-549 895h311l371 -617l369 617h309l-549 -895v-539z" />
    <glyph glyph-name="ycircumflex" unicode="&#x177;" horiz-adv-x="1126" 
d="M438 1219h-200l217 350h217l217 -350h-199l-125 204h-4zM535 -393h-269l164 411l-420 1051h266l285 -743h4l285 743h266z" />
    <glyph glyph-name="Ydieresis" unicode="&#x178;" horiz-adv-x="1359" 
d="M336 1804q0 59 39.5 99.5t99.5 40.5q59 0 100 -41t41 -99t-41 -98.5t-100 -40.5q-60 0 -99.5 40t-39.5 99zM745 1804q0 59 40 99.5t100 40.5q58 0 98.5 -40.5t40.5 -99.5q0 -58 -40 -98.5t-99 -40.5q-60 0 -100 40t-40 99zM811 0h-262v539l-549 895h311l371 -617l369 617
h309l-549 -895v-539z" />
    <glyph glyph-name="Zacute" unicode="&#x179;" horiz-adv-x="1318" 
d="M745 1618h-202l196 319h234zM1255 0h-1165v225l807 973h-778v236h1120v-226l-807 -972h823v-236z" />
    <glyph glyph-name="zacute" unicode="&#x17a;" horiz-adv-x="1095" 
d="M631 1235h-203l197 319h233zM1006 0h-910l2 211l547 629h-526v229h870v-209l-547 -631h564v-229z" />
    <glyph glyph-name="Zdotaccent" unicode="&#x17b;" horiz-adv-x="1318" 
d="M518 1792q0 65 44.5 110.5t109.5 45.5q64 0 109.5 -45.5t45.5 -110.5t-45.5 -110.5t-109.5 -45.5q-65 0 -109.5 45.5t-44.5 110.5zM1255 0h-1165v225l807 973h-778v236h1120v-226l-807 -972h823v-236z" />
    <glyph glyph-name="zdotaccent" unicode="&#x17c;" horiz-adv-x="1095" 
d="M408 1407q0 65 44 110.5t109 45.5t110.5 -45.5t45.5 -110.5t-45.5 -110.5t-110.5 -45.5t-109 45.5t-44 110.5zM1006 0h-910l2 211l547 629h-526v229h870v-209l-547 -631h564v-229z" />
    <glyph glyph-name="Zcaron" unicode="&#x17d;" horiz-adv-x="1318" 
d="M780 1587h-217l-217 350h201l123 -206h4l125 206h198zM1255 0h-1165v225l807 973h-778v236h1120v-226l-807 -972h823v-236z" />
    <glyph glyph-name="zcaron" unicode="&#x17e;" horiz-adv-x="1085" 
d="M668 1204h-217l-218 350h201l123 -206h4l125 206h199zM1006 0h-910l2 211l547 629h-526v229h870v-209l-547 -631h564v-229z" />
    <glyph glyph-name="longs" unicode="&#x17f;" horiz-adv-x="808" 
d="M455 0h-256v836h-142v229h142v127q0 189 96 281t262 92q138 0 262 -58l-78 -209q-95 35 -170 35q-60 0 -88 -32.5t-28 -108.5v-1192z" />
    <glyph glyph-name="florin" unicode="&#x192;" horiz-adv-x="1024" 
d="M20 35l76 211q96 -37 172 -37q60 0 88.5 32.5t28.5 108.5v355h-272v227h272v260q0 189 95.5 281t262.5 92q139 0 263 -58l-78 -209q-98 35 -170 35q-60 0 -88.5 -32.5t-28.5 -108.5v-260h289v-227h-289v-355q0 -189 -96.5 -281t-263.5 -92q-137 0 -261 58z" />
    <glyph glyph-name="Aringacute" unicode="&#x1fa;" horiz-adv-x="1529" 
d="M856 1776h-201l156 249h236zM301 0h-297l621 1397q-56 56 -56 135q0 81 57.5 137.5t137.5 56.5t137 -56.5t57 -137.5q0 -79 -53 -135l619 -1397h-297l-129 297h-666zM764 1454q30 0 50 23t20 55q0 31 -20 53.5t-50 22.5t-51 -22.5t-21 -53.5t21 -54.5t51 -23.5zM762 1071
l-238 -541h482l-240 541h-4z" />
    <glyph glyph-name="aringacute" unicode="&#x1fb;" horiz-adv-x="1196" 
d="M664 1655h-203l196 319h234zM582 1190q-80 0 -137.5 56.5t-57.5 137.5t57.5 138t137.5 57t137 -57t57 -138t-57 -137.5t-137 -56.5zM582 1307q30 0 49.5 22.5t19.5 54.5q0 31 -19.5 53.5t-49.5 22.5t-51 -22.5t-21 -53.5t21 -54t51 -23zM856 0l-45 141q-39 -70 -122 -117
t-216 -47q-161 0 -272 93.5t-111 255.5q0 158 118.5 241.5t307.5 83.5q136 0 277 -37q0 82 -9 127.5t-37 74.5t-73.5 38.5t-126.5 9.5q-187 0 -324 -43l-55 219q50 17 178 34.5t246 17.5q85 0 150 -10.5t113.5 -29t82.5 -51t55.5 -71t34 -94t17 -114t4.5 -138.5v-584h-193z
M799 422v10q-125 33 -250 33q-98 0 -148.5 -37t-50.5 -104q0 -66 49.5 -103t132.5 -37q137 0 202 67t65 171z" />
    <glyph glyph-name="AEacute" unicode="&#x1fc;" horiz-adv-x="1845" 
d="M1014 1618h-203l197 319h233zM301 0h-297l637 1434h1075v-236h-600v-358h563v-236h-563v-368h610v-236h-872v297h-424zM819 1198l-297 -668h332v668h-35z" />
    <glyph glyph-name="aeacute" unicode="&#x1fd;" horiz-adv-x="1923" 
d="M1020 1235h-203l197 319h233zM471 625h340q0 75 -15 122t-50.5 73t-81.5 35t-119 9q-185 0 -322 -43l-55 219q51 16 174.5 34t222.5 18q288 0 404 -162q73 76 168 119t202 43q160 0 275.5 -76.5t171 -200t55.5 -278.5v-97h-770q20 -116 93.5 -177.5t193.5 -61.5
q90 0 153 21t146 79l119 -172q-98 -82 -196.5 -117t-229.5 -35t-239.5 52t-182.5 145q-129 -197 -432 -197q-183 0 -293.5 85t-110.5 253q0 82 30 143.5t83.5 97t120 52.5t145.5 17zM1069 625h520q-8 106 -71.5 176.5t-176.5 70.5q-108 0 -179 -64t-93 -183zM811 422v18
h-313q-67 0 -107.5 -31t-40.5 -90q0 -135 187 -135q133 0 203.5 68t70.5 170z" />
    <glyph glyph-name="Oslashacute" unicode="&#x1fe;" horiz-adv-x="1642" 
d="M897 1618h-203l197 319h233zM821 -27q-133 0 -254 45l-59 -114h-215q29 56 104 200q-144 102 -227.5 263t-83.5 350q0 154 57 292t155 237t234 156.5t289 57.5q87 0 264 -33q9 19 27 52t23 43h213l-101 -195q144 -102 226.5 -261.5t82.5 -348.5q0 -154 -57 -292
t-155 -237t-234 -157t-289 -58zM502 307q218 416 465 891q-74 23 -146 23q-139 0 -247.5 -70.5t-165 -184.5t-56.5 -249q0 -219 150 -410zM821 213q140 0 249 70.5t165.5 184.5t56.5 249q0 114 -42.5 215t-119.5 172l-450 -871q72 -20 141 -20z" />
    <glyph glyph-name="oslashacute" unicode="&#x1ff;" horiz-adv-x="1271" 
d="M715 1235h-203l197 319h233zM82 535q0 155 71.5 282.5t199 201t284.5 73.5q97 0 188 -31l37 72h195l-80 -152q101 -76 158 -192.5t57 -253.5q0 -155 -71.5 -282.5t-199 -201.5t-284.5 -74q-88 0 -168 25l-49 -94h-195l88 168q-109 76 -170 196t-61 263zM428 299l285 549
q-38 10 -76 10q-130 0 -213.5 -91.5t-83.5 -231.5q0 -145 88 -236zM637 211q129 0 212 92.5t83 231.5q0 131 -72 219l-280 -537q27 -6 57 -6z" />
    <glyph glyph-name="uni0218" unicode="&#x218;" horiz-adv-x="1325" 
d="M88 158l131 215q104 -73 227.5 -116.5t227.5 -43.5q139 0 213 50t74 136q0 38 -14.5 66.5t-36 47t-60 33t-73 23t-87.5 17.5q-15 3 -45 8q-52 9 -79 14t-77.5 16.5t-79 22.5t-71 29.5t-67 39t-53.5 51t-44.5 66t-26 82.5t-10.5 101q0 205 150.5 324.5t382.5 119.5
q149 0 268 -35.5t258 -126.5l-127 -211q-201 134 -389 134q-128 0 -202.5 -49t-74.5 -148q0 -21 5 -39.5t12 -33t22 -26.5t27.5 -21t35.5 -17t39 -13t46 -11.5t47.5 -9.5l52.5 -9q186 -29 266 -56q198 -68 251 -231q20 -64 20 -145q0 -195 -150 -317t-393 -122
q-166 0 -321.5 47t-274.5 138zM686 -469h-197l107 319h246z" />
    <glyph glyph-name="uni0219" unicode="&#x219;" horiz-adv-x="1079" 
d="M76 121l110 194q97 -63 183.5 -91.5t183.5 -28.5q190 0 190 106q0 54 -53 79.5t-178 39.5q-71 8 -125 20.5t-108 37t-89 59.5t-57 90t-22 127q0 149 114 243.5t303 94.5q105 0 221 -30.5t220 -98.5l-113 -193q-171 107 -332 107q-168 0 -168 -113q0 -53 51 -78.5
t177 -40.5q73 -10 125.5 -21.5t108.5 -35.5t90 -57t56.5 -87t22.5 -125q0 -155 -114.5 -248.5t-327.5 -93.5q-244 0 -469 144zM541 -469h-195l107 319h245z" />
    <glyph glyph-name="uni021A" unicode="&#x21a;" horiz-adv-x="1214" 
d="M739 0h-262v1194h-446v240h1153v-240h-445v-1194zM584 -469h-197l107 319h245z" />
    <glyph glyph-name="uni021B" unicode="&#x21b;" horiz-adv-x="864" 
d="M725 256l84 -205q-112 -74 -262 -74q-172 0 -266.5 95t-94.5 288v476h-135v229h146v231h245v-231h328v-229h-328v-476q0 -84 27.5 -116.5t89.5 -32.5q75 0 166 45zM492 -469h-197l106 319h246z" />
    <glyph glyph-name="uni0237" unicode="&#x237;" horiz-adv-x="755" 
d="M-49 -352l88 207q86 -37 168 -37q71 0 102 49.5t31 161.5v1040h256v-1036q0 -216 -91.5 -332.5t-268.5 -116.5q-151 0 -285 64z" />
    <glyph glyph-name="circumflex" unicode="&#x2c6;" horiz-adv-x="739" 
d="M244 1587h-201l217 350h217l217 -350h-198l-125 205h-4z" />
    <glyph glyph-name="caron" unicode="&#x2c7;" horiz-adv-x="720" 
d="M469 1587h-217l-217 350h201l122 -206h4l125 206h199z" />
    <glyph glyph-name="uni02C9" unicode="&#x2c9;" horiz-adv-x="698" 
d="M643 1642h-588v201h588v-201z" />
    <glyph glyph-name="breve" unicode="&#x2d8;" horiz-adv-x="739" 
d="M33 1860l153 79q40 -101 76 -136.5t109 -35.5t108.5 35.5t77.5 136.5l154 -81q-56 -140 -130.5 -203.5t-209.5 -63.5t-209.5 64t-128.5 205z" />
    <glyph glyph-name="dotaccent" unicode="&#x2d9;" horiz-adv-x="489" 
d="M90 1792q0 65 44.5 110.5t109.5 45.5q64 0 109.5 -45.5t45.5 -110.5t-45.5 -110.5t-109.5 -45.5q-65 0 -109.5 45.5t-44.5 110.5z" />
    <glyph glyph-name="ring" unicode="&#x2da;" horiz-adv-x="522" 
d="M260 1552q-80 0 -137 57t-57 138t57 138t137 57t137.5 -57t57.5 -138t-57.5 -138t-137.5 -57zM260 1669q30 0 50 23t20 55q0 31 -20 53.5t-50 22.5t-51 -22.5t-21 -53.5t21 -54.5t51 -23.5z" />
    <glyph glyph-name="ogonek" unicode="&#x2db;" horiz-adv-x="577" 
d="M473 -170l70 -174q-122 -72 -260 -72q-107 0 -174.5 55.5t-67.5 159.5q0 194 262 307h68v-77q-142 -80 -142 -176q0 -76 86 -76q63 0 158 53z" />
    <glyph glyph-name="tilde" unicode="&#x2dc;" horiz-adv-x="813" 
d="M182 1636l-153 72q42 116 93.5 172.5t139.5 56.5q46 0 88.5 -17.5t69.5 -38.5t57.5 -38.5t54.5 -17.5q28 0 49 26t48 99l153 -70q-42 -116 -93.5 -172.5t-139.5 -56.5q-46 0 -89.5 17.5t-70 38.5t-57 38.5t-53.5 17.5q-28 0 -49 -26t-48 -101z" />
    <glyph glyph-name="hungarumlaut" unicode="&#x2dd;" horiz-adv-x="749" 
d="M510 1618h-191l199 319h225zM209 1618h-191l199 319h227z" />
    <glyph glyph-name="uni037E" unicode="&#x37e;" horiz-adv-x="581" 
d="M127 918q0 68 48 115.5t118 47.5q69 0 116.5 -47.5t47.5 -115.5t-48 -117t-116 -49q-70 0 -118 49t-48 117zM100 -426l-65 137q134 43 195 114.5t61 158.5h-17q-62 0 -104.5 47.5t-42.5 111.5q0 68 47.5 116t116.5 48q73 0 123.5 -54t50.5 -149v-30q0 -381 -365 -500z
" />
    <glyph glyph-name="tonos" unicode="&#x384;" horiz-adv-x="536" 
d="M258 1233h-158l74 319h236z" />
    <glyph glyph-name="dieresistonos" unicode="&#x385;" horiz-adv-x="987" 
d="M655 1436q0 53 35.5 89t87.5 36q53 0 90 -36.5t37 -88.5t-37 -87.5t-90 -35.5q-52 0 -87.5 35.5t-35.5 87.5zM82 1436q0 53 35 89t88 36t90 -36.5t37 -88.5t-37 -88.5t-90 -36.5t-88 36t-35 89zM492 1165h-142l92 387h187z" />
    <glyph glyph-name="Alphatonos" unicode="&#x386;" horiz-adv-x="1529" 
d="M301 0h-297l637 1434h248l635 -1434h-297l-129 297h-666zM322 1094h-160l8 340h231zM762 1071l-238 -541h482l-240 541h-4z" />
    <glyph glyph-name="anoteleia" unicode="&#x387;" horiz-adv-x="546" 
d="M96 711q0 74 51.5 126t124.5 52q75 0 127 -52t52 -126q0 -75 -52 -127t-127 -52q-74 0 -125 52t-51 127z" />
    <glyph glyph-name="Epsilontonos" unicode="&#x388;" horiz-adv-x="1439" 
d="M1321 0h-1024v1434h1014v-236h-752v-358h715v-236h-715v-368h762v-236zM123 1094h-160l8 340h234z" />
    <glyph glyph-name="Etatonos" unicode="&#x389;" horiz-adv-x="1662" 
d="M559 0h-262v1434h262v-594h672v594h262v-1434h-262v604h-672v-604zM121 1094h-158l8 340h232z" />
    <glyph glyph-name="Iotatonos" unicode="&#x38a;" horiz-adv-x="729" 
d="M559 0h-262v1434h262v-1434zM121 1094h-158l8 340h232z" />
    <glyph glyph-name="Omicrontonos" unicode="&#x38c;" horiz-adv-x="1677" 
d="M856 -27q-153 0 -289 58t-234 157t-155 237t-57 292t57 292t155 237t234 156.5t289 57.5t289 -57.5t234 -156.5t155 -237t57 -292t-57 -292t-155 -237t-234 -157t-289 -58zM102 1094h-139l8 340h238zM856 213q140 0 249 70.5t165.5 184.5t56.5 249t-56.5 249
t-165.5 184.5t-249 70.5q-139 0 -247.5 -70.5t-165 -184.5t-56.5 -249t56.5 -249t165 -184.5t247.5 -70.5z" />
    <glyph glyph-name="Upsilontonos" unicode="&#x38e;" horiz-adv-x="1581" 
d="M1030 0h-262v539l-549 895h311l371 -617l369 617h309l-549 -895v-539zM121 1094h-158l8 340h232z" />
    <glyph glyph-name="Omegatonos" unicode="&#x38f;" horiz-adv-x="1720" 
d="M780 0h-671v236h292q-270 196 -270 512q0 147 58 279t156 227t234 150.5t287 55.5q202 0 371 -94t267 -258t98 -360q0 -315 -269 -512h291v-236h-670v211q177 52 280 193.5t103 322.5q0 98 -34.5 187.5t-94.5 157.5t-149.5 108.5t-192.5 40.5q-136 0 -245 -69
t-166.5 -181.5t-57.5 -243.5q0 -182 102.5 -323t280.5 -193v-211zM113 1094h-140l9 340h237z" />
    <glyph glyph-name="iotadieresistonos" unicode="&#x390;" horiz-adv-x="782" 
d="M526 1436q0 53 35.5 89t87.5 36q54 0 90.5 -36t36.5 -89q0 -52 -36.5 -87.5t-90.5 -35.5q-53 0 -88 35.5t-35 87.5zM-47 1436q0 53 35.5 89t87.5 36q54 0 90.5 -36t36.5 -89t-36.5 -89t-90.5 -36q-52 0 -87.5 36t-35.5 89zM356 1165h-139l92 387h187zM680 254l82 -203
q-128 -74 -283 -74q-146 0 -231.5 88.5t-85.5 256.5v747h256v-709q0 -80 24 -114.5t76 -34.5q69 0 162 43z" />
    <glyph glyph-name="Alpha" unicode="&#x391;" horiz-adv-x="1529" 
d="M301 0h-297l637 1434h248l635 -1434h-297l-129 297h-666zM762 1071l-238 -541h482l-240 541h-4z" />
    <glyph glyph-name="Beta" unicode="&#x392;" horiz-adv-x="1382" 
d="M778 0h-606v1434h555q74 0 143.5 -12t138 -41.5t119 -73t82 -112.5t31.5 -155q0 -201 -199 -305v-2q250 -107 250 -342q0 -84 -28 -151.5t-75 -111.5t-113.5 -73.5t-140 -42t-157.5 -12.5zM434 1206v-370h299q117 0 180.5 48.5t63.5 131.5q0 100 -65 145t-197 45h-281z
M434 612v-385h330q137 0 200.5 46t63.5 141q0 90 -69 144t-189 54h-336z" />
    <glyph glyph-name="Gamma" unicode="&#x393;" horiz-adv-x="1132" 
d="M432 0h-262v1434h932v-240h-670v-1194z" />
    <glyph glyph-name="uni0394" unicode="&#x394;" horiz-adv-x="1529" 
d="M1524 0h-1518l635 1434h248zM764 1098l-375 -854h752l-373 854h-4z" />
    <glyph glyph-name="Epsilon" unicode="&#x395;" horiz-adv-x="1316" 
d="M1196 0h-1024v1434h1014v-236h-752v-358h715v-236h-715v-368h762v-236z" />
    <glyph glyph-name="Zeta" unicode="&#x396;" horiz-adv-x="1318" 
d="M1255 0h-1165v225l807 973h-778v236h1120v-226l-807 -972h823v-236z" />
    <glyph glyph-name="Eta" unicode="&#x397;" horiz-adv-x="1540" 
d="M434 0h-262v1434h262v-594h672v594h262v-1434h-262v604h-672v-604z" />
    <glyph glyph-name="Theta" unicode="&#x398;" horiz-adv-x="1642" 
d="M821 -27q-153 0 -289 58t-234 157t-155 237t-57 292t57 292t155 237t234 156.5t289 57.5t289 -57.5t234 -156.5t155 -237t57 -292t-57 -292t-155 -237t-234 -157t-289 -58zM821 213q140 0 249 70.5t165.5 184.5t56.5 249t-56.5 249t-165.5 184.5t-249 70.5
q-139 0 -247.5 -70.5t-165 -184.5t-56.5 -249t56.5 -249t165 -184.5t247.5 -70.5zM1143 608h-641v219h641v-219z" />
    <glyph glyph-name="Iota" unicode="&#x399;" horiz-adv-x="604" 
d="M434 0h-262v1434h262v-1434z" />
    <glyph glyph-name="Kappa" unicode="&#x39a;" horiz-adv-x="1382" 
d="M434 0h-262v1434h262v-598l551 598h344l-571 -623l594 -811h-322l-461 623l-135 -152v-471z" />
    <glyph glyph-name="Lambda" unicode="&#x39b;" horiz-adv-x="1529" 
d="M303 0h-297l635 1434h248l637 -1434h-297l-461 1071h-4z" />
    <glyph glyph-name="Mu" unicode="&#x39c;" horiz-adv-x="1812" 
d="M434 0h-262v1434h262l471 -768h2l473 768h260v-1434h-262v950h-2l-444 -731h-51l-445 731h-2v-950z" />
    <glyph glyph-name="Nu" unicode="&#x39d;" horiz-adv-x="1589" 
d="M434 0h-262v1434h252l729 -988h2v988h262v-1434h-254l-727 989h-2v-989z" />
    <glyph glyph-name="Xi" unicode="&#x39e;" horiz-adv-x="1234" 
d="M1108 1192h-981v242h981v-242zM1042 602h-849v242h849v-242zM1114 0h-993v242h993v-242z" />
    <glyph glyph-name="Omicron" unicode="&#x39f;" horiz-adv-x="1642" 
d="M821 -27q-153 0 -289 58t-234 157t-155 237t-57 292t57 292t155 237t234 156.5t289 57.5t289 -57.5t234 -156.5t155 -237t57 -292t-57 -292t-155 -237t-234 -157t-289 -58zM821 213q140 0 249 70.5t165.5 184.5t56.5 249t-56.5 249t-165.5 184.5t-249 70.5
q-139 0 -247.5 -70.5t-165 -184.5t-56.5 -249t56.5 -249t165 -184.5t247.5 -70.5z" />
    <glyph glyph-name="Pi" unicode="&#x3a0;" horiz-adv-x="1511" 
d="M434 0h-262v1434h1169v-1434h-262v1194h-645v-1194z" />
    <glyph glyph-name="Rho" unicode="&#x3a1;" horiz-adv-x="1296" 
d="M434 0h-262v1434h547q94 0 181.5 -27t162 -80.5t119.5 -146t45 -211.5q0 -96 -30 -176t-79.5 -133t-116 -90t-137.5 -53.5t-145 -16.5h-285v-500zM434 1198v-463h260q141 0 205 64.5t64 169.5q0 103 -64 166t-205 63h-260z" />
    <glyph glyph-name="Sigma" unicode="&#x3a3;" horiz-adv-x="1251" 
d="M1149 0h-1077v225l491 494l-491 489v226h1061v-236h-721l454 -457v-45l-454 -460h737v-236z" />
    <glyph glyph-name="Tau" unicode="&#x3a4;" horiz-adv-x="1214" 
d="M739 0h-262v1194h-446v240h1153v-240h-445v-1194z" />
    <glyph glyph-name="Upsilon" unicode="&#x3a5;" horiz-adv-x="1359" 
d="M811 0h-262v539l-549 895h311l371 -617l369 617h309l-549 -895v-539z" />
    <glyph glyph-name="Phi" unicode="&#x3a6;" horiz-adv-x="1724" 
d="M82 731q0 142 49.5 255.5t138 188t205 117t256.5 51.5v130h262v-130q140 -9 256.5 -51.5t205 -117t138 -188t49.5 -255.5t-49.5 -255t-138 -187.5t-205 -117t-256.5 -52.5v-156h-262v156q-140 10 -256.5 52.5t-205 117t-138 187.5t-49.5 255zM346 731
q0 -161 101.5 -260.5t283.5 -118.5v758q-181 -17 -283 -117.5t-102 -261.5zM993 1110v-758q182 19 283.5 118.5t101.5 260.5t-102 261.5t-283 117.5z" />
    <glyph glyph-name="Chi" unicode="&#x3a7;" horiz-adv-x="1423" 
d="M354 0h-319l538 713l-534 721h319l355 -486l356 486h317l-534 -721l541 -713h-320l-360 481z" />
    <glyph glyph-name="Psi" unicode="&#x3a8;" horiz-adv-x="1716" 
d="M137 877v557h264v-557q0 -142 84 -216t242 -94v867h262v-867q159 20 242.5 94t83.5 216v557h264v-557q0 -134 -44.5 -235.5t-126 -165.5t-185.5 -100t-234 -48v-328h-262v328q-103 9 -189.5 33t-161.5 67.5t-127 105t-82 148.5t-30 195z" />
    <glyph glyph-name="uni03A9" unicode="&#x3a9;" horiz-adv-x="1705" 
d="M768 0h-672v236h293q-270 196 -270 512q0 147 58 279t156 227t234 150.5t287 55.5t287.5 -55.5t234.5 -150.5t155.5 -227t57.5 -279q0 -316 -268 -512h291v-236h-670v211q177 52 280 193.5t103 322.5q0 98 -34.5 187.5t-94.5 157.5t-149.5 108.5t-192.5 40.5
q-136 0 -245 -69t-166.5 -181.5t-57.5 -243.5q0 -182 102.5 -323t280.5 -193v-211z" />
    <glyph glyph-name="Iotadieresis" unicode="&#x3aa;" horiz-adv-x="604" 
d="M-43 1804q0 59 39.5 99.5t99.5 40.5q59 0 100.5 -41t41.5 -99t-41.5 -98.5t-100.5 -40.5q-60 0 -99.5 40t-39.5 99zM367 1804q0 59 39.5 99.5t99.5 40.5q58 0 98.5 -40.5t40.5 -99.5q0 -58 -40.5 -98.5t-98.5 -40.5q-60 0 -99.5 40t-39.5 99zM434 0h-262v1434h262v-1434z
" />
    <glyph glyph-name="Upsilondieresis" unicode="&#x3ab;" horiz-adv-x="1359" 
d="M336 1804q0 59 39.5 99.5t99.5 40.5q59 0 100 -41t41 -99t-41 -98.5t-100 -40.5q-60 0 -99.5 40t-39.5 99zM745 1804q0 59 40 99.5t100 40.5q58 0 98.5 -40.5t40.5 -99.5q0 -58 -40 -98.5t-99 -40.5q-60 0 -100 40t-40 99zM811 0h-262v539l-549 895h311l371 -617l369 617
h309l-549 -895v-539z" />
    <glyph glyph-name="alphatonos" unicode="&#x3ac;" horiz-adv-x="1341" 
d="M686 1233h-158l74 319h236zM1016 0l-43 162q-150 -185 -402 -185q-138 0 -250.5 74.5t-175.5 202.5t-63 281q0 154 63 281.5t175.5 201.5t250.5 74q121 0 211.5 -51t143.5 -119l43 147h213v-1069h-166zM635 211q127 0 210 93.5t83 230.5q0 138 -82.5 230.5t-210.5 92.5
q-127 0 -211 -91.5t-84 -231.5q0 -138 84 -231t211 -93z" />
    <glyph glyph-name="epsilontonos" unicode="&#x3ad;" horiz-adv-x="1046" 
d="M592 1233h-158l74 319h235zM274 549v2q-163 55 -163 229q0 150 115.5 231t314.5 81q128 0 241 -44.5t193 -121.5l-125 -158q-134 104 -299 104q-96 0 -142.5 -32.5t-46.5 -81.5q0 -52 34 -81.5t122 -29.5h240v-209h-252q-172 0 -172 -114q0 -123 211 -123q187 0 299 114
l145 -165q-76 -85 -200 -129t-254 -44q-229 0 -341 88.5t-112 241.5q0 102 56 160.5t136 81.5z" />
    <glyph glyph-name="etatonos" unicode="&#x3ae;" horiz-adv-x="1253" 
d="M686 1233h-158l74 319h236zM418 0h-256v1069h168l47 -174q42 74 132 135.5t206 61.5q87 0 156 -24.5t123.5 -77t84 -144.5t29.5 -219v-1020h-256v985q0 133 -56 197.5t-157 64.5q-99 0 -160 -74.5t-61 -199.5v-580z" />
    <glyph glyph-name="iotatonos" unicode="&#x3af;" horiz-adv-x="577" 
d="M346 1233h-158l74 319h236zM418 0h-256v1069h256v-1069z" />
    <glyph glyph-name="upsilondieresistonos" unicode="&#x3b0;" horiz-adv-x="1210" 
d="M770 1436q0 53 35.5 89t87.5 36q53 0 90 -36.5t37 -88.5t-37 -87.5t-90 -35.5t-88 35.5t-35 87.5zM197 1436q0 53 34.5 89t87.5 36t90 -36.5t37 -88.5t-37 -88.5t-90 -36.5t-87.5 36t-34.5 89zM606 1165h-141l92 387h186zM145 432v637h256v-614q0 -125 51.5 -181.5
t151.5 -56.5q101 0 152 56t51 182v614h256v-637q0 -119 -36 -208.5t-100 -142.5t-144.5 -78.5t-178.5 -25.5q-97 0 -178 25.5t-145 78.5t-100 142.5t-36 208.5z" />
    <glyph glyph-name="alpha" unicode="&#x3b1;" horiz-adv-x="1341" 
d="M1016 0l-43 162q-150 -185 -402 -185q-138 0 -250.5 74.5t-175.5 202.5t-63 281q0 154 63 281.5t175.5 201.5t250.5 74q121 0 211.5 -51t143.5 -119l43 147h213v-1069h-166zM635 211q127 0 210 93.5t83 230.5q0 138 -82.5 230.5t-210.5 92.5q-127 0 -211 -91.5
t-84 -231.5q0 -138 84 -231t211 -93z" />
    <glyph glyph-name="beta" unicode="&#x3b2;" horiz-adv-x="1314" 
d="M418 -393h-256v1530q0 84 26 154.5t72 120t108.5 84t136 51t154.5 16.5q102 0 190 -26.5t156.5 -77.5t108 -133.5t39.5 -186.5q0 -241 -201 -346v-2q283 -127 283 -414q0 -182 -115.5 -291t-294.5 -109q-232 0 -407 134v-504zM418 1110v-774q181 -125 354 -125
q203 0 203 186q0 125 -87.5 201t-225.5 76h-101v219h103q117 0 174 62t57 155q0 104 -62 161.5t-174 57.5q-113 0 -177 -57.5t-64 -161.5z" />
    <glyph glyph-name="gamma" unicode="&#x3b3;" horiz-adv-x="1126" 
d="M692 -393h-256v393l-426 1069h266l285 -743h4l285 743h266l-424 -1069v-393z" />
    <glyph glyph-name="delta" unicode="&#x3b4;" horiz-adv-x="1269" 
d="M82 512q0 214 130 358.5t339 169.5q-2 1 -10 9l-410 299v194h975v-235h-543l293 -217q163 -118 248.5 -256.5t85.5 -321.5q0 -234 -155.5 -384.5t-395.5 -150.5q-158 0 -285 68t-199.5 190.5t-72.5 276.5zM639 211q132 0 211.5 81.5t79.5 219.5q0 134 -78.5 214.5
t-212.5 80.5q-132 0 -211.5 -79t-79.5 -216q0 -138 79.5 -219.5t211.5 -81.5z" />
    <glyph glyph-name="epsilon" unicode="&#x3b5;" horiz-adv-x="1054" 
d="M285 549v2q-164 55 -164 229q0 150 115.5 231t314.5 81q128 0 241 -44.5t193 -121.5l-125 -158q-134 104 -299 104q-96 0 -142 -32.5t-46 -81.5q0 -52 33.5 -81.5t121.5 -29.5h240v-209h-252q-172 0 -172 -114q0 -123 211 -123q187 0 299 114l145 -165q-76 -85 -200 -129
t-254 -44q-229 0 -341 88.5t-112 241.5q0 102 56.5 160.5t136.5 81.5z" />
    <glyph glyph-name="zeta" unicode="&#x3b6;" horiz-adv-x="1142" 
d="M1047 -299h-238l39 227q12 72 -72 72h-241q-200 0 -326.5 108.5t-126.5 299.5q0 134 56.5 249t174.5 226l455 430h-633v229h983v-199l-540 -509q-143 -135 -190.5 -217.5t-47.5 -186.5q0 -99 59 -150t152 -51h262q151 0 224.5 -70.5t47.5 -224.5z" />
    <glyph glyph-name="eta" unicode="&#x3b7;" horiz-adv-x="1253" 
d="M418 0h-256v1069h168l47 -174q42 74 132 135.5t206 61.5q87 0 156 -24.5t123.5 -77t84 -144.5t29.5 -219v-1020h-256v985q0 133 -56 197.5t-157 64.5q-99 0 -160 -74.5t-61 -199.5v-580z" />
    <glyph glyph-name="theta" unicode="&#x3b8;" horiz-adv-x="1374" 
d="M686 -23q-116 0 -212.5 43t-164 117t-114.5 175t-69 216.5t-22 241.5q0 159 36 299.5t105.5 252.5t183 177.5t257.5 65.5q116 0 213 -43t164.5 -117.5t114 -176t68.5 -217t22 -241.5t-22 -241.5t-68.5 -216.5t-114 -175t-164.5 -117t-213 -43zM375 881h624q-6 71 -19 134
t-38 122t-59 101t-84.5 67.5t-112.5 25.5q-76 0 -134.5 -37.5t-94 -103.5t-55.5 -142.5t-27 -166.5zM999 662h-624q6 -72 19 -134.5t37.5 -122t58 -101.5t84 -67.5t112.5 -25.5t112.5 25.5t84.5 67.5t59 101.5t38 122t19 134.5z" />
    <glyph glyph-name="iota" unicode="&#x3b9;" horiz-adv-x="577" 
d="M418 0h-256v1069h256v-1069z" />
    <glyph glyph-name="kappa" unicode="&#x3ba;" horiz-adv-x="1173" 
d="M418 0h-256v1069h256v-430l407 430h322l-430 -455l446 -614h-303l-321 436l-121 -129v-307z" />
    <glyph glyph-name="lambda" unicode="&#x3bb;" horiz-adv-x="1099" 
d="M262 0h-266l420 1053l-197 489h270l615 -1542h-268l-285 745h-4z" />
    <glyph glyph-name="uni03BC" unicode="&#x3bc;" horiz-adv-x="1265" 
d="M418 -393h-256v1462h256v-602q0 -250 209 -250q101 0 162 73.5t61 198.5v580h256v-1069h-168l-47 164q-43 -76 -121 -131.5t-195 -55.5q-95 0 -157 35v-405z" />
    <glyph glyph-name="nu" unicode="&#x3bd;" horiz-adv-x="1128" 
d="M692 0h-254l-428 1069h269l284 -743h4l285 743h266z" />
    <glyph glyph-name="xi" unicode="&#x3be;" horiz-adv-x="1175" 
d="M1049 -299h-238l39 227q12 72 -70 72h-213q-71 0 -136 13t-127 43.5t-107.5 76.5t-73 117t-27.5 160q0 164 92.5 258.5t231.5 115.5v2q-88 20 -155.5 92t-67.5 187q0 159 133 248h-230v229h971v-229h-358q-124 0 -196.5 -53.5t-72.5 -155.5q0 -207 269 -207h293v-229
h-355q-134 0 -215.5 -56.5t-81.5 -162.5q0 -109 68.5 -164.5t200.5 -55.5h198q317 0 269 -295z" />
    <glyph glyph-name="omicron" unicode="&#x3bf;" horiz-adv-x="1271" 
d="M82 535q0 155 71.5 282.5t199 201t284.5 73.5t284.5 -73.5t199 -201t71.5 -282.5t-71.5 -282.5t-199 -201.5t-284.5 -74t-284.5 74t-199 201.5t-71.5 282.5zM637 211q129 0 212 92.5t83 231.5q0 140 -82.5 231.5t-212.5 91.5t-213.5 -91.5t-83.5 -231.5
q0 -139 83.5 -231.5t213.5 -92.5z" />
    <glyph glyph-name="pi" unicode="&#x3c0;" horiz-adv-x="1253" 
d="M418 840v-840h-256v1069h930v-1069h-256v840h-418z" />
    <glyph glyph-name="rho" unicode="&#x3c1;" horiz-adv-x="1306" 
d="M383 -393h-256v932q0 154 64.5 278.5t191.5 199.5t295 75q123 0 226.5 -43.5t173.5 -118.5t109.5 -177t39.5 -218q0 -153 -63.5 -281t-176 -202.5t-250.5 -74.5q-121 0 -212.5 52t-141.5 121v-543zM672 211q128 0 211.5 92.5t83.5 231.5q0 140 -83 231.5t-212 91.5
q-123 0 -207 -92.5t-84 -230.5q0 -134 83 -229t208 -95z" />
    <glyph glyph-name="uni03C2" unicode="&#x3c2;" horiz-adv-x="1126" 
d="M1006 -299h-238l37 227q12 72 -70 72h-106q-237 0 -392 149t-155 386q0 154 72 281.5t198.5 201.5t280.5 74q255 0 430 -199l-182 -174q-98 139 -248 139q-127 0 -210 -91.5t-83 -231.5q0 -138 79 -222t208 -84h147q319 0 268 -295z" />
    <glyph glyph-name="sigma" unicode="&#x3c3;" horiz-adv-x="1304" 
d="M1294 840h-268q164 -127 164 -326q0 -145 -71.5 -268t-199.5 -196t-284 -73t-283 74t-198.5 201.5t-71.5 282.5t71.5 282.5t198.5 201t283 73.5q51 0 148 -11.5t155 -11.5h356v-229zM635 211q130 0 213.5 92.5t83.5 231.5q0 140 -83.5 231.5t-213.5 91.5
q-129 0 -212 -91.5t-83 -231.5q0 -139 83.5 -231.5t211.5 -92.5z" />
    <glyph glyph-name="tau" unicode="&#x3c4;" horiz-adv-x="972" 
d="M285 840h-275v141l156 88h741v-229h-366v-480q0 -84 27.5 -116.5t90.5 -32.5q65 0 166 43l80 -201q-111 -76 -262 -76q-171 0 -264.5 95t-93.5 288v480z" />
    <glyph glyph-name="upsilon" unicode="&#x3c5;" horiz-adv-x="1210" 
d="M145 432v637h256v-614q0 -125 51.5 -181.5t151.5 -56.5q101 0 152 56t51 182v614h256v-637q0 -119 -36 -208.5t-100 -142.5t-144.5 -78.5t-178.5 -25.5q-97 0 -178 25.5t-145 78.5t-100 142.5t-36 208.5z" />
    <glyph glyph-name="phi" unicode="&#x3c6;" horiz-adv-x="1568" 
d="M82 535q0 233 152 385.5t423 169.5v206h256v-206q270 -17 423 -170t153 -385t-153 -385t-423 -170v-373h-256v373q-271 17 -423 169.5t-152 385.5zM340 535q0 -140 78 -231t239 -107v675q-161 -16 -239 -106.5t-78 -230.5zM913 872v-675q160 17 238 107.5t78 230.5
q0 139 -78 229.5t-238 107.5z" />
    <glyph glyph-name="chi" unicode="&#x3c7;" horiz-adv-x="1093" 
d="M303 -393h-280l368 766l-366 696h282l240 -477l239 477h283l-364 -696l368 -766h-280l-246 522z" />
    <glyph glyph-name="psi" unicode="&#x3c8;" horiz-adv-x="1550" 
d="M903 -393h-254v379q-235 32 -371.5 174t-136.5 352v557h256v-557q0 -247 252 -295v1325h254v-1325q250 51 250 295v557h256v-557q0 -210 -136 -352t-370 -174v-379z" />
    <glyph glyph-name="omega" unicode="&#x3c9;" horiz-adv-x="1839" 
d="M922 211h-4q-19 -54 -46 -94.5t-69 -73t-105 -49.5t-145 -17q-213 0 -342 155.5t-129 389.5q0 239 141.5 392t368.5 180l67 -215q-149 -18 -234 -118t-85 -245q0 -66 13 -119t40.5 -96t75.5 -66.5t113 -23.5q64 0 107.5 23t65 67.5t30 95t8.5 119.5v240h254v-240
q0 -55 4.5 -97t18 -82.5t36.5 -67t61 -42.5t90 -16q126 0 184 84t58 221q0 145 -85 245t-234 118l67 215q227 -27 368.5 -180t141.5 -392q0 -153 -56.5 -276t-165 -196t-249.5 -73q-83 0 -145.5 16.5t-104.5 49.5t-68.5 73t-45.5 95z" />
    <glyph glyph-name="iotadieresis" unicode="&#x3ca;" horiz-adv-x="577" 
d="M-31 1421q0 59 39 100.5t98 41.5q60 0 101 -41.5t41 -100.5t-41 -99t-101 -40q-59 0 -98 40t-39 99zM332 1421q0 59 39 100.5t98 41.5q60 0 100.5 -41.5t40.5 -100.5t-40.5 -99t-100.5 -40q-59 0 -98 40t-39 99zM418 0h-256v1069h256v-1069z" />
    <glyph glyph-name="upsilondieresis" unicode="&#x3cb;" horiz-adv-x="1210" 
d="M260 1421q0 59 39.5 99.5t99.5 40.5q59 0 100.5 -41t41.5 -99t-41.5 -98.5t-100.5 -40.5q-60 0 -99.5 40t-39.5 99zM670 1421q0 59 39.5 99.5t99.5 40.5q58 0 98.5 -40.5t40.5 -99.5t-40 -99t-99 -40q-60 0 -99.5 40t-39.5 99zM145 432v637h256v-614q0 -125 51.5 -181.5
t151.5 -56.5q101 0 152 56t51 182v614h256v-637q0 -119 -36 -208.5t-100 -142.5t-144.5 -78.5t-178.5 -25.5q-97 0 -178 25.5t-145 78.5t-100 142.5t-36 208.5z" />
    <glyph glyph-name="omicrontonos" unicode="&#x3cc;" horiz-adv-x="1271" 
d="M690 1233h-158l74 319h236zM82 535q0 155 71.5 282.5t199 201t284.5 73.5t284.5 -73.5t199 -201t71.5 -282.5t-71.5 -282.5t-199 -201.5t-284.5 -74t-284.5 74t-199 201.5t-71.5 282.5zM637 211q129 0 212 92.5t83 231.5q0 140 -82.5 231.5t-212.5 91.5t-213.5 -91.5
t-83.5 -231.5q0 -139 83.5 -231.5t213.5 -92.5z" />
    <glyph glyph-name="upsilontonos" unicode="&#x3cd;" horiz-adv-x="1210" 
d="M637 1233h-158l74 319h235zM145 432v637h256v-614q0 -125 51.5 -181.5t151.5 -56.5q101 0 152 56t51 182v614h256v-637q0 -119 -36 -208.5t-100 -142.5t-144.5 -78.5t-178.5 -25.5q-97 0 -178 25.5t-145 78.5t-100 142.5t-36 208.5z" />
    <glyph glyph-name="omegatonos" unicode="&#x3ce;" horiz-adv-x="1839" 
d="M946 1233h-158l74 319h236zM922 211h-4q-19 -54 -46 -94.5t-69 -73t-105 -49.5t-145 -17q-213 0 -342 155.5t-129 389.5q0 239 141.5 392t368.5 180l67 -215q-149 -18 -234 -118t-85 -245q0 -66 13 -119t40.5 -96t75.5 -66.5t113 -23.5q64 0 107.5 23t65 67.5t30 95
t8.5 119.5v240h254v-240q0 -55 4.5 -97t18 -82.5t36.5 -67t61 -42.5t90 -16q126 0 184 84t58 221q0 145 -85 245t-234 118l67 215q227 -27 368.5 -180t141.5 -392q0 -153 -56.5 -276t-165 -196t-249.5 -73q-83 0 -145.5 16.5t-104.5 49.5t-68.5 73t-45.5 95z" />
    <glyph glyph-name="uni0400" unicode="&#x400;" horiz-adv-x="1316" 
d="M807 1618h-203l-225 319h231zM1196 0h-1024v1434h1014v-236h-752v-358h715v-236h-715v-368h762v-236z" />
    <glyph glyph-name="uni0401" unicode="&#x401;" horiz-adv-x="1316" 
d="M336 1804q0 59 39.5 99.5t99.5 40.5q59 0 100 -41t41 -99t-41 -98.5t-100 -40.5q-60 0 -99.5 40t-39.5 99zM745 1804q0 59 40 99.5t100 40.5q58 0 98.5 -40.5t40.5 -99.5q0 -58 -40 -98.5t-99 -40.5q-60 0 -100 40t-40 99zM1196 0h-1024v1434h1014v-236h-752v-358h715
v-236h-715v-368h762v-236z" />
    <glyph glyph-name="uni0402" unicode="&#x402;" horiz-adv-x="1581" 
d="M727 0h-262v1194h-434v240h1143v-240h-447v-340q155 72 301 72q412 0 412 -428v-170q0 -162 -78 -256.5t-232 -94.5q-66 0 -121.5 15.5t-123.5 54.5l82 199q74 -35 125 -35q86 0 86 119v133q0 118 -44.5 172.5t-158.5 54.5q-121 0 -248 -65v-625z" />
    <glyph glyph-name="uni0403" unicode="&#x403;" horiz-adv-x="1132" 
d="M711 1620h-203l197 319h233zM432 0h-262v1434h932v-240h-670v-1194z" />
    <glyph glyph-name="uni0404" unicode="&#x404;" horiz-adv-x="1447" 
d="M1212 406l172 -189q-99 -113 -254 -178.5t-309 -65.5q-153 0 -289 58t-234 157t-155 237t-57 292t57 292t155 237t234 156.5t289 57.5q155 0 304.5 -63t258.5 -178l-176 -195q-87 101 -180 149t-207 48q-180 0 -302.5 -111.5t-156.5 -282.5h773v-219h-773
q32 -172 155.5 -283.5t303.5 -111.5q114 0 209 47.5t182 145.5z" />
    <glyph glyph-name="uni0405" unicode="&#x405;" horiz-adv-x="1325" 
d="M88 158l131 215q104 -73 227.5 -116.5t227.5 -43.5q139 0 213 50t74 136q0 38 -14.5 66.5t-36 47t-60 33t-73 23t-87.5 17.5q-15 3 -45 8q-52 9 -79 14t-77.5 16.5t-79 22.5t-71 29.5t-67 39t-53.5 51t-44.5 66t-26 82.5t-10.5 101q0 205 150.5 324.5t382.5 119.5
q149 0 268 -35.5t258 -126.5l-127 -211q-201 134 -389 134q-128 0 -202.5 -49t-74.5 -148q0 -21 5 -39.5t12 -33t22 -26.5t27.5 -21t35.5 -17t39 -13t46 -11.5t47.5 -9.5l52.5 -9q186 -29 266 -56q198 -68 251 -231q20 -64 20 -145q0 -195 -150 -317t-393 -122
q-166 0 -321.5 47t-274.5 138z" />
    <glyph glyph-name="uni0406" unicode="&#x406;" horiz-adv-x="604" 
d="M434 0h-262v1434h262v-1434z" />
    <glyph glyph-name="uni0407" unicode="&#x407;" horiz-adv-x="604" 
d="M-43 1804q0 59 39.5 99.5t99.5 40.5q59 0 100.5 -41t41.5 -99t-41.5 -98.5t-100.5 -40.5q-60 0 -99.5 40t-39.5 99zM367 1804q0 59 39.5 99.5t99.5 40.5q58 0 98.5 -40.5t40.5 -99.5q0 -58 -40.5 -98.5t-98.5 -40.5q-60 0 -99.5 40t-39.5 99zM434 0h-262v1434h262v-1434z
" />
    <glyph glyph-name="uni0408" unicode="&#x408;" horiz-adv-x="1052" 
d="M70 59l94 217q113 -63 237 -63q111 0 171.5 74t60.5 243v666h-400v238h662v-914q0 -263 -129.5 -405t-339.5 -142q-95 0 -192 23.5t-164 62.5z" />
    <glyph glyph-name="uni0409" unicode="&#x409;" horiz-adv-x="2125" 
d="M53 10v230q72 -27 142 -27q66 0 92 56t26 184v981h951v-500h284q74 0 145 -16.5t137.5 -53.5t116 -90t79.5 -133t30 -176q0 -119 -45 -211.5t-119.5 -146t-162 -80.5t-181.5 -27h-547v1194h-426v-743q0 -231 -83.5 -354.5t-251.5 -123.5q-95 0 -187 37zM1264 698v-462
h260q141 0 204.5 63t63.5 166q0 105 -63.5 169t-204.5 64h-260z" />
    <glyph glyph-name="uni040A" unicode="&#x40a;" horiz-adv-x="2174" 
d="M434 0h-262v1434h262v-555h627v555h262v-555h274q76 0 145.5 -13.5t136.5 -46t116.5 -81.5t79.5 -125.5t30 -172.5t-30 -173t-79.5 -126t-116.5 -81.5t-136.5 -46t-145.5 -13.5h-536v643h-627v-643zM1323 643v-407h250q145 0 206.5 52t61.5 152t-61.5 151.5t-206.5 51.5
h-250z" />
    <glyph glyph-name="uni040B" unicode="&#x40b;" horiz-adv-x="1587" 
d="M727 0h-262v1194h-434v240h1143v-240h-447v-344q159 76 301 76q412 0 412 -428v-498h-262v463q0 118 -44.5 172.5t-158.5 54.5q-119 0 -248 -63v-627z" />
    <glyph glyph-name="uni040C" unicode="&#x40c;" horiz-adv-x="1382" 
d="M776 1618h-203l197 319h234zM434 0h-262v1434h262v-598l551 598h344l-571 -623l594 -811h-322l-461 623l-135 -152v-471z" />
    <glyph glyph-name="uni040D" unicode="&#x40d;" horiz-adv-x="1589" 
d="M918 1618h-203l-226 319h232zM426 0h-254v1434h262v-988h2l729 988h252v-1434h-262v989h-2z" />
    <glyph glyph-name="uni040E" unicode="&#x40e;" horiz-adv-x="1306" 
d="M330 1860l153 79q40 -101 76 -136.5t109 -35.5t108.5 35.5t77.5 136.5l154 -81q-56 -140 -130.5 -203.5t-209.5 -63.5t-209.5 64t-128.5 205zM203 2v238q71 -27 145 -27q65 0 97 21t55 73l20 43l-487 1084h280l355 -795l350 795h278l-514 -1158q-67 -152 -157.5 -227.5
t-221.5 -75.5q-108 0 -200 29z" />
    <glyph glyph-name="uni040F" unicode="&#x40f;" horiz-adv-x="1538" 
d="M637 0h-465v1434h262v-1192h670v1192h262v-1434h-467v-299h-262v299z" />
    <glyph glyph-name="uni0410" unicode="&#x410;" horiz-adv-x="1529" 
d="M301 0h-297l637 1434h248l635 -1434h-297l-129 297h-666zM762 1071l-238 -541h482l-240 541h-4z" />
    <glyph glyph-name="uni0411" unicode="&#x411;" horiz-adv-x="1363" 
d="M766 0h-547v1434h934v-240h-672v-260h285q74 0 145 -16.5t137.5 -53.5t116 -90t79.5 -133t30 -176q0 -119 -45 -211.5t-119.5 -146t-162 -80.5t-181.5 -27zM481 698v-462h258q143 0 207 63t64 166q0 105 -64 169t-207 64h-258z" />
    <glyph glyph-name="uni0412" unicode="&#x412;" horiz-adv-x="1382" 
d="M778 0h-606v1434h555q74 0 143.5 -12t138 -41.5t119 -73t82 -112.5t31.5 -155q0 -201 -199 -305v-2q250 -107 250 -342q0 -84 -28 -151.5t-75 -111.5t-113.5 -73.5t-140 -42t-157.5 -12.5zM434 1206v-370h299q117 0 180.5 48.5t63.5 131.5q0 100 -65 145t-197 45h-281z
M434 612v-385h330q137 0 200.5 46t63.5 141q0 90 -69 144t-189 54h-336z" />
    <glyph glyph-name="uni0413" unicode="&#x413;" horiz-adv-x="1153" 
d="M434 0h-262v1434h950v-240h-688v-1194z" />
    <glyph glyph-name="uni0414" unicode="&#x414;" horiz-adv-x="1540" 
d="M338 -299h-262v532h104q61 74 88 150t27 186v865h997v-1201h170v-532h-262v299h-862v-299zM475 233h555v961h-473v-614q0 -225 -82 -347z" />
    <glyph glyph-name="uni0415" unicode="&#x415;" horiz-adv-x="1316" 
d="M1196 0h-1024v1434h1014v-236h-752v-358h715v-236h-715v-368h762v-236z" />
    <glyph glyph-name="uni0416" unicode="&#x416;" horiz-adv-x="2072" 
d="M362 0h-329l624 750l-600 684h338l510 -580v580h262v-580l512 580h338l-602 -684l627 -750h-330l-545 649v-649h-262v649z" />
    <glyph glyph-name="uni0417" unicode="&#x417;" horiz-adv-x="1269" 
d="M47 205l162 180q167 -178 412 -178q148 0 223.5 56.5t75.5 148.5t-70 147t-193 55h-340v220h334q122 0 176 52.5t54 127.5q0 100 -72.5 156.5t-192.5 56.5q-207 0 -378 -174l-160 176q99 109 243.5 170t309.5 61q102 0 192.5 -25.5t164 -74.5t116.5 -130t43 -183
q0 -214 -195 -314v-2q232 -98 232 -328q0 -137 -75 -235.5t-203 -146.5t-294 -48q-339 0 -565 232z" />
    <glyph glyph-name="uni0418" unicode="&#x418;" horiz-adv-x="1589" 
d="M426 0h-254v1434h262v-988h2l729 988h252v-1434h-262v989h-2z" />
    <glyph glyph-name="uni0419" unicode="&#x419;" horiz-adv-x="1589" 
d="M453 1860l153 79q40 -101 76 -136.5t109 -35.5t108.5 35.5t77.5 136.5l153 -81q-37 -93 -77.5 -148.5t-105 -87t-156.5 -31.5q-135 0 -209.5 64t-128.5 205zM426 0h-254v1434h262v-988h2l729 988h252v-1434h-262v989h-2z" />
    <glyph glyph-name="uni041A" unicode="&#x41a;" horiz-adv-x="1382" 
d="M434 0h-262v1434h262v-598l551 598h344l-571 -623l594 -811h-322l-461 623l-135 -152v-471z" />
    <glyph glyph-name="uni041B" unicode="&#x41b;" horiz-adv-x="1433" 
d="M53 10v230q72 -27 142 -27q66 0 92 56t26 184v981h951v-1434h-263v1194h-426v-743q0 -231 -83.5 -354.5t-251.5 -123.5q-95 0 -187 37z" />
    <glyph glyph-name="uni041C" unicode="&#x41c;" horiz-adv-x="1812" 
d="M434 0h-262v1434h262l471 -768h2l473 768h260v-1434h-262v950h-2l-444 -731h-51l-445 731h-2v-950z" />
    <glyph glyph-name="uni041D" unicode="&#x41d;" horiz-adv-x="1540" 
d="M434 0h-262v1434h262v-594h672v594h262v-1434h-262v604h-672v-604z" />
    <glyph glyph-name="uni041E" unicode="&#x41e;" horiz-adv-x="1642" 
d="M821 -27q-153 0 -289 58t-234 157t-155 237t-57 292t57 292t155 237t234 156.5t289 57.5t289 -57.5t234 -156.5t155 -237t57 -292t-57 -292t-155 -237t-234 -157t-289 -58zM821 213q140 0 249 70.5t165.5 184.5t56.5 249t-56.5 249t-165.5 184.5t-249 70.5
q-139 0 -247.5 -70.5t-165 -184.5t-56.5 -249t56.5 -249t165 -184.5t247.5 -70.5z" />
    <glyph glyph-name="uni041F" unicode="&#x41f;" horiz-adv-x="1511" 
d="M434 0h-262v1434h1169v-1434h-262v1194h-645v-1194z" />
    <glyph glyph-name="uni0420" unicode="&#x420;" horiz-adv-x="1296" 
d="M434 0h-262v1434h547q94 0 181.5 -27t162 -80.5t119.5 -146t45 -211.5q0 -96 -30 -176t-79.5 -133t-116 -90t-137.5 -53.5t-145 -16.5h-285v-500zM434 1198v-463h260q141 0 205 64.5t64 169.5q0 103 -64 166t-205 63h-260z" />
    <glyph glyph-name="uni0421" unicode="&#x421;" horiz-adv-x="1447" 
d="M1212 406l170 -189q-98 -113 -252.5 -178.5t-308.5 -65.5q-153 0 -289 58t-234 157t-155 237t-57 292t57 292t155 237t234 156.5t289 57.5q155 0 304.5 -63t258.5 -178l-176 -195q-87 101 -180.5 149t-206.5 48q-139 0 -248 -70.5t-166 -184.5t-57 -249t57 -249
t166 -184.5t248 -70.5q219 0 391 193z" />
    <glyph glyph-name="uni0422" unicode="&#x422;" horiz-adv-x="1214" 
d="M739 0h-262v1194h-446v240h1153v-240h-445v-1194z" />
    <glyph glyph-name="uni0423" unicode="&#x423;" horiz-adv-x="1306" 
d="M203 2v238q71 -27 145 -27q65 0 97 21t55 73l20 43l-487 1084h280l355 -795l350 795h278l-514 -1158q-67 -152 -157.5 -227.5t-221.5 -75.5q-108 0 -200 29z" />
    <glyph glyph-name="uni0424" unicode="&#x424;" horiz-adv-x="1751" 
d="M82 735q0 143 50.5 253.5t142 179.5t208.5 106t258 43v151h263v-151q143 -5 261.5 -42t210.5 -105.5t143.5 -179.5t51.5 -255q0 -115 -34 -209t-94 -159.5t-144.5 -111t-182.5 -68.5t-212 -27v-191h-263v191q-113 5 -210 28t-181 69t-143 111t-92.5 158.5t-32.5 208.5z
M1004 1079v-682q192 11 296.5 94.5t104.5 243.5q0 162 -105 247.5t-296 96.5zM346 735q0 -160 103 -243.5t292 -94.5v682q-188 -12 -291.5 -98t-103.5 -246z" />
    <glyph glyph-name="uni0425" unicode="&#x425;" horiz-adv-x="1421" 
d="M352 0h-319l538 713l-534 721h319l355 -486l356 486h317l-534 -721l541 -713h-320l-360 481z" />
    <glyph glyph-name="uni0426" unicode="&#x426;" horiz-adv-x="1589" 
d="M1251 0h-1079v1434h262v-1192h645v1192h262v-1192h172v-541h-262v299z" />
    <glyph glyph-name="uni0427" unicode="&#x427;" horiz-adv-x="1429" 
d="M1260 0h-263v547q-122 -12 -424 -12q-73 0 -134 12.5t-118.5 43.5t-97.5 80.5t-64 128.5t-24 181v453h262v-433q0 -119 55 -174t179 -55q223 0 366 14v648h263v-1434z" />
    <glyph glyph-name="uni0428" unicode="&#x428;" horiz-adv-x="1884" 
d="M1712 0h-1540v1434h262v-1192h377v1192h262v-1192h377v1192h262v-1434z" />
    <glyph glyph-name="uni0429" unicode="&#x429;" horiz-adv-x="1959" 
d="M1622 0h-1450v1436h262v-1194h377v1194h262v-1194h377v1194h262v-1194h172v-541h-262v299z" />
    <glyph glyph-name="uni042A" unicode="&#x42a;" horiz-adv-x="1497" 
d="M918 0h-547v1194h-340v240h602v-500h285q74 0 145 -16.5t137.5 -53.5t116.5 -90t80 -133t30 -176t-30 -175.5t-80 -132t-116.5 -89t-137.5 -52.5t-145 -16zM633 698v-462h260q141 0 204.5 63t63.5 166q0 105 -63.5 169t-204.5 64h-260z" />
    <glyph glyph-name="uni042B" unicode="&#x42b;" horiz-adv-x="1849" 
d="M1679 0h-262v1434h262v-1434zM719 0h-547v1434h262v-500h285q74 0 145 -16.5t137.5 -53.5t116 -90t79.5 -133t30 -176q0 -119 -45 -211.5t-119.5 -146t-162 -80.5t-181.5 -27zM434 698v-462h260q141 0 205 63t64 166q0 105 -64 169t-205 64h-260z" />
    <glyph glyph-name="uni042C" unicode="&#x42c;" horiz-adv-x="1296" 
d="M719 0h-547v1434h262v-500h285q74 0 145 -16.5t137.5 -53.5t116 -90t79.5 -133t30 -176q0 -119 -45 -211.5t-119.5 -146t-162 -80.5t-181.5 -27zM434 698v-462h260q141 0 205 63t64 166q0 105 -64 169t-205 64h-260z" />
    <glyph glyph-name="uni042D" unicode="&#x42d;" horiz-adv-x="1452" 
d="M66 217l170 189q172 -193 395 -193q180 0 304 111.5t157 283.5h-775v219h775q-34 171 -157.5 282.5t-303.5 111.5q-221 0 -391 -197l-177 195q112 116 263 178.5t305 62.5q153 0 289 -57.5t234 -156.5t155 -237t57 -292t-57 -292t-155 -237t-234 -157t-289 -58
q-155 0 -311.5 65.5t-253.5 178.5z" />
    <glyph glyph-name="uni042E" unicode="&#x42e;" horiz-adv-x="2170" 
d="M1350 -27q-185 0 -343 82.5t-258.5 227t-125.5 325.5h-189v-608h-262v1434h262v-607h189q19 134 82.5 251t158.5 201.5t221 132.5t265 48q153 0 289 -57.5t234 -156.5t155 -237t57 -292t-57 -292t-155 -237t-234 -157t-289 -58zM1350 213q139 0 248 70.5t166 184.5
t57 249t-57 249t-166 184.5t-248 70.5t-247.5 -70.5t-165 -184.5t-56.5 -249t56.5 -249t165 -184.5t247.5 -70.5z" />
    <glyph glyph-name="uni042F" unicode="&#x42f;" horiz-adv-x="1378" 
d="M1206 0h-262v604h-129l-446 -604h-303l444 608q-64 7 -121.5 24.5t-110.5 50.5t-91.5 77.5t-61.5 110t-23 145.5q0 91 29 164t76.5 119.5t112 77.5t131.5 44t139 13h616v-1434zM614 831h330v367h-330q-135 0 -191 -46.5t-56 -135.5q0 -185 247 -185z" />
    <glyph glyph-name="uni0430" unicode="&#x430;" horiz-adv-x="1196" 
d="M856 0l-45 141q-39 -70 -122 -117t-216 -47q-161 0 -272 93.5t-111 255.5q0 158 118.5 241.5t307.5 83.5q136 0 277 -37q0 82 -9 127.5t-37 74.5t-73.5 38.5t-126.5 9.5q-187 0 -324 -43l-55 219q50 17 178 34.5t246 17.5q85 0 150 -10.5t113.5 -29t82.5 -51t55.5 -71
t34 -94t17 -114t4.5 -138.5v-584h-193zM799 422v10q-125 33 -250 33q-98 0 -148.5 -37t-50.5 -104q0 -66 49.5 -103t132.5 -37q137 0 202 67t65 171z" />
    <glyph glyph-name="uni0431" unicode="&#x431;" horiz-adv-x="1316" 
d="M383 981v-104q136 159 371 159q221 0 352 -143t131 -381q0 -234 -157.5 -384.5t-397.5 -150.5q-159 0 -284.5 71.5t-198 207.5t-72.5 315v406q0 243 119.5 363.5t365.5 150.5l559 70v-234q-58 -7 -273 -33t-247 -30q-82 -11 -135.5 -33t-82.5 -59t-39.5 -81t-10.5 -110z
M682 211q132 0 213.5 82t81.5 219q0 140 -78 219.5t-211 79.5q-135 0 -220 -75.5t-85 -211.5q0 -138 84 -225.5t215 -87.5z" />
    <glyph glyph-name="uni0432" unicode="&#x432;" horiz-adv-x="1175" 
d="M702 0h-540v1069h502q70 0 134.5 -15.5t122 -47.5t92 -91.5t34.5 -138.5q0 -153 -140 -229v-2q178 -72 178 -254q0 -63 -20.5 -113t-55.5 -82.5t-84.5 -54.5t-104.5 -31.5t-118 -9.5zM403 864v-231h215q94 0 134.5 28t40.5 89t-45.5 87.5t-137.5 26.5h-207zM403 444v-237
h244q97 0 139.5 29t42.5 90q0 118 -176 118h-250z" />
    <glyph glyph-name="uni0433" unicode="&#x433;" horiz-adv-x="980" 
d="M418 0h-256v1069h753v-229h-497v-840z" />
    <glyph glyph-name="uni0434" unicode="&#x434;" horiz-adv-x="1314" 
d="M295 -299h-254v528h104q61 74 88 150t27 186v504h846v-840h170v-528h-256v299h-725v-299zM428 229h422v611h-334v-265q0 -210 -88 -346z" />
    <glyph glyph-name="uni0435" unicode="&#x435;" horiz-adv-x="1208" 
d="M1126 436h-782q23 -114 101 -174.5t198 -60.5q88 0 151.5 21t147.5 79l119 -172q-98 -82 -196.5 -117t-229.5 -35q-159 0 -286 74t-197 201.5t-70 282.5q0 154 72 282t197 201.5t274 73.5q97 0 178.5 -29t140.5 -81t100.5 -122.5t61.5 -154t20 -175.5v-94zM342 621h532
q-10 107 -72.5 179t-174.5 72q-111 0 -187.5 -65.5t-97.5 -185.5z" />
    <glyph glyph-name="uni0436" unicode="&#x436;" horiz-adv-x="1662" 
d="M319 0h-305l447 543l-430 526h305l369 -453v453h253v-453l369 453h305l-430 -526l445 -543h-306l-383 463v-463h-253v463z" />
    <glyph glyph-name="uni0437" unicode="&#x437;" horiz-adv-x="1067" 
d="M63 147l152 170q103 -116 297 -116q219 0 219 123q0 114 -174 114h-285v209h273q88 0 121.5 29.5t33.5 81.5q0 49 -47 81.5t-145 32.5q-145 0 -299 -102l-127 154q75 77 194 122.5t246 45.5q201 0 315.5 -81t114.5 -231q0 -99 -43.5 -151.5t-117.5 -77.5v-2
q36 -10 67 -27.5t60.5 -46t47 -71.5t17.5 -97q0 -153 -114.5 -241.5t-348.5 -88.5q-130 0 -256 43.5t-201 126.5z" />
    <glyph glyph-name="uni0438" unicode="&#x438;" horiz-adv-x="1269" 
d="M397 0h-235v1069h256v-620h2l452 620h236v-1069h-256v621h-2z" />
    <glyph glyph-name="uni0439" unicode="&#x439;" horiz-adv-x="1269" 
d="M301 1479l154 80q40 -101 76 -137t108 -36q73 0 108.5 35.5t77.5 137.5l154 -82q-56 -140 -130.5 -203.5t-209.5 -63.5t-209.5 64t-128.5 205zM397 0h-235v1069h256v-620h2l452 620h236v-1069h-256v621h-2z" />
    <glyph glyph-name="uni043A" unicode="&#x43a;" horiz-adv-x="1173" 
d="M418 0h-256v1069h256v-430l407 430h322l-430 -455l446 -614h-303l-321 436l-121 -129v-307z" />
    <glyph glyph-name="uni043B" unicode="&#x43b;" horiz-adv-x="1292" 
d="M20 18v220q74 -27 142 -27q66 0 93.5 57.5t27.5 184.5v616h847v-1069h-256v840h-335v-387q0 -238 -78 -357t-248 -119q-43 0 -98.5 11t-94.5 30z" />
    <glyph glyph-name="uni043C" unicode="&#x43c;" horiz-adv-x="1464" 
d="M420 0h-256l-2 1069h254l317 -500l316 500h254v-1069h-259v645l-286 -455h-51l-287 455v-645z" />
    <glyph glyph-name="uni043D" unicode="&#x43d;" horiz-adv-x="1253" 
d="M418 0h-256v1069h256v-416h418v416h256v-1069h-256v424h-418v-424z" />
    <glyph glyph-name="uni043E" unicode="&#x43e;" horiz-adv-x="1271" 
d="M82 535q0 155 71.5 282.5t199 201t284.5 73.5t284.5 -73.5t199 -201t71.5 -282.5t-71.5 -282.5t-199 -201.5t-284.5 -74t-284.5 74t-199 201.5t-71.5 282.5zM637 211q129 0 212 92.5t83 231.5q0 140 -82.5 231.5t-212.5 91.5t-213.5 -91.5t-83.5 -231.5
q0 -139 83.5 -231.5t213.5 -92.5z" />
    <glyph glyph-name="uni043F" unicode="&#x43f;" horiz-adv-x="1253" 
d="M418 0h-256v1069h930v-1069h-256v840h-418v-840z" />
    <glyph glyph-name="uni0440" unicode="&#x440;" horiz-adv-x="1341" 
d="M418 -393h-256v1462h164l45 -160q149 183 399 183q141 0 254 -74t175.5 -201.5t62.5 -281.5q0 -153 -62.5 -280.5t-176 -202.5t-253.5 -75q-120 0 -211 52t-141 121v-543zM707 211q130 0 212 92t82 232q0 141 -81.5 232t-212.5 91q-126 0 -208.5 -92.5t-82.5 -230.5
q0 -137 82.5 -230.5t208.5 -93.5z" />
    <glyph glyph-name="uni0441" unicode="&#x441;" horiz-adv-x="1126" 
d="M887 352l184 -174q-177 -201 -434 -201q-157 0 -284.5 74t-199 201.5t-71.5 282.5t71.5 282.5t199 201t284.5 73.5q128 0 238.5 -50.5t191.5 -146.5l-178 -172q-57 69 -117 102t-135 33q-130 0 -213.5 -91.5t-83.5 -231.5q0 -139 83.5 -231.5t213.5 -92.5q153 0 250 141z
" />
    <glyph glyph-name="uni0442" unicode="&#x442;" horiz-adv-x="1001" 
d="M629 0h-256v840h-322v229h899v-229h-321v-840z" />
    <glyph glyph-name="uni0443" unicode="&#x443;" horiz-adv-x="1126" 
d="M535 -393h-269l164 411l-420 1051h266l285 -743h4l285 743h266z" />
    <glyph glyph-name="uni0444" unicode="&#x444;" horiz-adv-x="1568" 
d="M82 535q0 233 152 385.5t423 169.5v452h256v-452q270 -17 423 -170t153 -385t-153 -385t-423 -170v-373h-256v373q-271 17 -423 169.5t-152 385.5zM340 535q0 -140 78 -231t239 -107v675q-161 -16 -239 -106.5t-78 -230.5zM913 872v-675q160 17 238 107.5t78 230.5
q0 139 -78 229.5t-238 107.5z" />
    <glyph glyph-name="uni0445" unicode="&#x445;" horiz-adv-x="1105" 
d="M322 0h-302l375 537l-372 532h301l229 -332l231 332h299l-372 -532l376 -537h-301l-233 334z" />
    <glyph glyph-name="uni0446" unicode="&#x446;" horiz-adv-x="1302" 
d="M1008 0h-846v1069h256v-840h418v840h256v-840h172v-528h-256v299z" />
    <glyph glyph-name="uni0447" unicode="&#x447;" horiz-adv-x="1202" 
d="M106 793v276h256v-244q0 -134 40.5 -184.5t152.5 -50.5q135 0 231 8v471h256v-1069h-256v367q-139 -11 -268 -11q-194 0 -303 105t-109 332z" />
    <glyph glyph-name="uni0448" unicode="&#x448;" horiz-adv-x="1732" 
d="M1573 -2l-1411 2v1069h256v-840h321v840h256v-840h322v840h256v-1071z" />
    <glyph glyph-name="uni0449" unicode="&#x449;" horiz-adv-x="1783" 
d="M1487 0h-1325v1069h256v-840h321v840h256v-840h322v840h256v-840h170v-528h-256v299z" />
    <glyph glyph-name="uni044A" unicode="&#x44a;" horiz-adv-x="1275" 
d="M795 0h-490v840h-264v229h520v-324h234q78 0 148 -22.5t127.5 -66.5t91.5 -117.5t34 -165.5t-34 -165.5t-91.5 -117.5t-128 -67t-147.5 -23zM561 518v-291h215q79 0 120.5 41.5t41.5 104.5t-41.5 104t-120.5 41h-215z" />
    <glyph glyph-name="uni044B" unicode="&#x44b;" horiz-adv-x="1654" 
d="M1493 -2h-254v1071h254v-1071zM651 0h-489v1069h256v-324h233q77 0 147 -22.5t128 -66.5t92.5 -117.5t34.5 -165.5t-34.5 -165.5t-92.5 -117.5t-128 -67t-147 -23zM418 518v-291h213q80 0 121 41.5t41 104.5t-41 104t-121 41h-213z" />
    <glyph glyph-name="uni044C" unicode="&#x44c;" horiz-adv-x="1153" 
d="M672 0h-510v1069h256v-324h254q77 0 147 -22.5t127.5 -66.5t92 -117.5t34.5 -165.5t-34.5 -165.5t-92 -117.5t-127.5 -67t-147 -23zM418 518v-291h233q80 0 121 41.5t41 104.5t-41 104t-121 41h-233z" />
    <glyph glyph-name="uni044D" unicode="&#x44d;" horiz-adv-x="1122" 
d="M772 432h-430v205h430q-24 104 -95.5 162.5t-180.5 58.5q-152 0 -254 -137l-181 172q172 199 435 199q155 0 281 -74t195.5 -201.5t69.5 -281.5t-69.5 -281.5t-195.5 -202t-281 -74.5q-130 0 -243 52t-194 151l183 174q90 -143 254 -143q109 0 180.5 58.5t95.5 162.5z
" />
    <glyph glyph-name="uni044E" unicode="&#x44e;" horiz-adv-x="1779" 
d="M418 0h-256v1069h256v-420h182q39 195 188.5 319t356.5 124q157 0 284.5 -73.5t199 -201t71.5 -282.5t-71.5 -282.5t-199 -201.5t-284.5 -74q-207 0 -356.5 124.5t-186.5 318.5h-184v-420zM1145 211q130 0 213.5 92.5t83.5 231.5q0 140 -83.5 231.5t-213.5 91.5
t-212.5 -91.5t-82.5 -231.5q0 -139 83 -231.5t212 -92.5z" />
    <glyph glyph-name="uni044F" unicode="&#x44f;" horiz-adv-x="1177" 
d="M354 0h-288l282 401q-112 29 -184 111t-72 215q0 72 22.5 130.5t59.5 97t87 65t102.5 38t107.5 11.5h545v-1069h-250v387l-139 -2zM492 600h274v254h-274q-142 0 -142 -125q0 -61 36.5 -95t105.5 -34z" />
    <glyph glyph-name="uni0450" unicode="&#x450;" horiz-adv-x="1208" 
d="M750 1235h-203l-225 319h231zM1126 436h-782q23 -114 101 -174.5t198 -60.5q88 0 151.5 21t147.5 79l119 -172q-98 -82 -196.5 -117t-229.5 -35q-159 0 -286 74t-197 201.5t-70 282.5q0 154 72 282t197 201.5t274 73.5q97 0 178.5 -29t140.5 -81t100.5 -122.5t61.5 -154
t20 -175.5v-94zM342 621h532q-10 107 -72.5 179t-174.5 72q-111 0 -187.5 -65.5t-97.5 -185.5z" />
    <glyph glyph-name="uni0451" unicode="&#x451;" horiz-adv-x="1208" 
d="M279 1421q0 59 39.5 99.5t99.5 40.5q59 0 100 -41t41 -99t-41 -98.5t-100 -40.5q-60 0 -99.5 40t-39.5 99zM688 1421q0 59 39.5 99.5t99.5 40.5q59 0 99.5 -40.5t40.5 -99.5q0 -58 -40.5 -98.5t-99.5 -40.5q-60 0 -99.5 40t-39.5 99zM1126 436h-782q23 -114 101 -174.5
t198 -60.5q88 0 151.5 21t147.5 79l119 -172q-98 -82 -196.5 -117t-229.5 -35q-159 0 -286 74t-197 201.5t-70 282.5q0 154 72 282t197 201.5t274 73.5q97 0 178.5 -29t140.5 -81t100.5 -122.5t61.5 -154t20 -175.5v-94zM342 621h532q-10 107 -72.5 179t-174.5 72
q-111 0 -187.5 -65.5t-97.5 -185.5z" />
    <glyph glyph-name="uni0452" unicode="&#x452;" horiz-adv-x="1253" 
d="M162 1190h-152v194h152v158h256v-158h256l2 -194h-258v-248q45 59 119.5 104.5t177.5 45.5q87 0 156 -24.5t123.5 -77t84 -144.5t29.5 -219v-684q0 -167 -73 -263t-234 -96q-136 0 -264 68l79 201q78 -35 140 -35q55 0 75.5 30t20.5 95v649q0 133 -56 197.5t-157 64.5
q-99 0 -160 -74.5t-61 -199.5v-580h-256v1190z" />
    <glyph glyph-name="uni0453" unicode="&#x453;" horiz-adv-x="980" 
d="M618 1235h-202l196 319h234zM418 0h-256v1069h753v-229h-497v-840z" />
    <glyph glyph-name="uni0454" unicode="&#x454;" horiz-adv-x="1128" 
d="M887 352l182 -174q-177 -201 -434 -201q-156 0 -283 74t-198.5 201.5t-71.5 282.5t71.5 282.5t198.5 201t283 73.5q128 0 238.5 -50.5t191.5 -146.5l-178 -172q-55 69 -115 102t-137 33q-107 0 -182 -57.5t-101 -159.5h441v-211h-441q26 -103 101 -161t182 -58
q155 0 252 141z" />
    <glyph glyph-name="uni0455" unicode="&#x455;" horiz-adv-x="1079" 
d="M76 121l110 194q97 -63 183.5 -91.5t183.5 -28.5q190 0 190 106q0 54 -53 79.5t-178 39.5q-71 8 -125 20.5t-108 37t-89 59.5t-57 90t-22 127q0 149 114 243.5t303 94.5q105 0 221 -30.5t220 -98.5l-113 -193q-171 107 -332 107q-168 0 -168 -113q0 -53 51 -78.5
t177 -40.5q73 -10 125.5 -21.5t108.5 -35.5t90 -57t56.5 -87t22.5 -125q0 -155 -114.5 -248.5t-327.5 -93.5q-244 0 -469 144z" />
    <glyph glyph-name="uni0456" unicode="&#x456;" horiz-adv-x="577" 
d="M133 1407q0 65 44.5 110.5t109.5 45.5q64 0 109.5 -45.5t45.5 -110.5t-45.5 -110.5t-109.5 -45.5q-65 0 -109.5 45.5t-44.5 110.5zM418 0h-256v1069h256v-1069z" />
    <glyph glyph-name="uni0457" unicode="&#x457;" horiz-adv-x="577" 
d="M-31 1421q0 59 39 100.5t98 41.5q60 0 101 -41.5t41 -100.5t-41 -99t-101 -40q-59 0 -98 40t-39 99zM332 1421q0 59 39 100.5t98 41.5q60 0 100.5 -41.5t40.5 -100.5t-40.5 -99t-100.5 -40q-59 0 -98 40t-39 99zM418 0h-256v1069h256v-1069z" />
    <glyph glyph-name="uni0458" unicode="&#x458;" horiz-adv-x="757" 
d="M305 1407q0 65 45 110.5t111 45.5q64 0 109.5 -45.5t45.5 -110.5t-45.5 -110.5t-109.5 -45.5q-66 0 -111 45.5t-45 110.5zM-47 -352l86 207q86 -37 168 -37q71 0 102 49.5t31 161.5v811h-274v229h530v-1036q0 -216 -91.5 -332.5t-268.5 -116.5q-151 0 -283 64z" />
    <glyph glyph-name="uni0459" unicode="&#x459;" horiz-adv-x="1867" 
d="M20 18v220q74 -27 142 -27q66 0 93.5 57.5t27.5 184.5v616h847v-324h254q61 0 119 -14t109.5 -43.5t90 -72.5t61 -105.5t22.5 -136.5q0 -92 -34 -165.5t-92 -117.5t-128.5 -67t-147.5 -23h-510v840h-335v-387q0 -238 -78 -357t-248 -119q-115 0 -193 41zM1130 518v-291
h236q80 0 121 41.5t41 104.5t-41 104t-121 41h-236z" />
    <glyph glyph-name="uni045A" unicode="&#x45a;" horiz-adv-x="1783" 
d="M418 0h-256v1069h256v-395h401v395h256v-391h225q64 0 119.5 -9.5t108.5 -33.5t90.5 -61.5t60.5 -97t23 -136.5q0 -92 -34 -160.5t-92.5 -106t-127 -55.5t-148.5 -18h-481v444h-401v-444zM1075 465v-256h207q81 0 121.5 34.5t40.5 94.5t-40.5 93.5t-121.5 33.5h-207z" />
    <glyph glyph-name="uni045B" unicode="&#x45b;" horiz-adv-x="1253" 
d="M418 0h-256v1190h-152v194h152v158h256v-158h256v-194h-256v-248q45 59 119.5 104.5t177.5 45.5q87 0 156 -24.5t123.5 -77t84 -144.5t29.5 -219v-627h-256v592q0 133 -56 197.5t-157 64.5q-99 0 -160 -74.5t-61 -199.5v-580z" />
    <glyph glyph-name="uni045C" unicode="&#x45c;" horiz-adv-x="1173" 
d="M698 1235h-202l196 319h234zM418 0h-256v1069h256v-430l407 430h322l-430 -455l446 -614h-303l-321 436l-121 -129v-307z" />
    <glyph glyph-name="uni045D" unicode="&#x45d;" horiz-adv-x="1269" 
d="M766 1235h-203l-225 319h231zM397 0h-235v1069h256v-620h2l452 620h236v-1069h-256v621h-2z" />
    <glyph glyph-name="uni045E" unicode="&#x45e;" horiz-adv-x="1126" 
d="M643 1235h-203l197 319h233zM535 -393h-269l164 411l-420 1051h266l285 -743h4l285 743h266z" />
    <glyph glyph-name="uni045F" unicode="&#x45f;" horiz-adv-x="1286" 
d="M516 0h-354v1069h256v-833h452v833h254v-1069h-354v-299h-254v299z" />
    <glyph glyph-name="uni0462" unicode="&#x462;" horiz-adv-x="1425" 
d="M299 1071h-291v219h291v168h262v-168h475v-219h-475v-186h285q76 0 146.5 -14t137.5 -47t116.5 -82.5t79.5 -126.5t30 -173t-30 -173t-79.5 -126.5t-117 -82.5t-137.5 -46.5t-146 -13.5h-547v1071zM561 649v-413h260q144 0 206.5 53t62.5 153q0 101 -62.5 154t-206.5 53
h-260z" />
    <glyph glyph-name="uni0463" unicode="&#x463;" horiz-adv-x="1183" 
d="M702 0h-512v891h-163v178h163v473h256v-473h357v-178h-357v-146h256q61 0 118 -14t108.5 -43.5t90 -72.5t61 -105.5t22.5 -136.5q0 -92 -34 -165.5t-91.5 -117.5t-127.5 -67t-147 -23zM446 518v-291h236q80 0 121 41.5t41 104.5t-41 104t-121 41h-236z" />
    <glyph glyph-name="uni0472" unicode="&#x472;" horiz-adv-x="1642" 
d="M821 -27q-153 0 -289 58t-234 157t-155 237t-57 292t57 292t155 237t234 156.5t289 57.5t289 -57.5t234 -156.5t155 -237t57 -292t-57 -292t-155 -237t-234 -157t-289 -58zM362 827h918q-32 170 -156 282t-303 112t-303 -112t-156 -282zM1280 608h-918q30 -171 154 -283
t305 -112t305 112t154 283z" />
    <glyph glyph-name="uni0473" unicode="&#x473;" horiz-adv-x="1271" 
d="M82 535q0 155 71.5 282.5t198.5 201t283 73.5q157 0 284.5 -73.5t199 -201t71.5 -282.5t-71.5 -282.5t-199 -201.5t-284.5 -74q-156 0 -283 74t-198.5 201.5t-71.5 282.5zM352 631h568q-25 100 -102.5 163.5t-182.5 63.5q-104 0 -181 -63.5t-102 -163.5zM920 438h-568
q25 -101 102 -164t181 -63q106 0 183 63t102 164z" />
    <glyph glyph-name="uni0474" unicode="&#x474;" horiz-adv-x="1519" 
d="M870 0h-262l-592 1434h277l444 -1088h4l361 883q50 123 135 173t227 52h52v-235h-46q-95 0 -159 -154z" />
    <glyph glyph-name="uni0475" unicode="&#x475;" horiz-adv-x="1140" 
d="M678 0h-256l-426 1069h266l285 -743h4l209 542q47 126 122.5 175t215.5 49h45v-236l-33 2q-51 0 -85.5 -33.5t-66.5 -115.5z" />
    <glyph glyph-name="uni0490" unicode="&#x490;" horiz-adv-x="1132" 
d="M434 0h-262v1434h680v252h250v-492h-668v-1194z" />
    <glyph glyph-name="uni0491" unicode="&#x491;" horiz-adv-x="980" 
d="M418 0h-256v1069h508v227h245v-456h-497v-840z" />
    <glyph glyph-name="Wgrave" unicode="&#x1e80;" horiz-adv-x="2129" 
d="M1184 1618h-203l-225 319h231zM737 0h-264l-473 1434h270l330 -1024h2l332 1024h264l330 -1024h2l332 1024h268l-473 -1434h-264l-328 1053h-2z" />
    <glyph glyph-name="wgrave" unicode="&#x1e81;" horiz-adv-x="1658" 
d="M936 1235h-203l-225 319h231zM598 0h-258l-330 1069h262l207 -709l223 709h256l222 -709l206 709h263l-330 -1069h-256l-234 743z" />
    <glyph glyph-name="Wacute" unicode="&#x1e82;" horiz-adv-x="2142" 
d="M1169 1618h-202l196 319h234zM743 0h-264l-473 1434h270l330 -1024h2l332 1024h264l330 -1024h2l332 1024h268l-473 -1434h-264l-328 1053h-2z" />
    <glyph glyph-name="wacute" unicode="&#x1e83;" horiz-adv-x="1658" 
d="M915 1235h-202l196 319h234zM598 0h-258l-330 1069h262l207 -709l223 709h256l222 -709l206 709h263l-330 -1069h-256l-234 743z" />
    <glyph glyph-name="Wdieresis" unicode="&#x1e84;" horiz-adv-x="2142" 
d="M739 1804q0 59 40 99.5t100 40.5q59 0 100 -41t41 -99t-41 -98.5t-100 -40.5q-60 0 -100 40t-40 99zM1149 1804q0 59 39.5 99.5t99.5 40.5q58 0 98.5 -40.5t40.5 -99.5q0 -58 -40.5 -98.5t-98.5 -40.5q-60 0 -99.5 40t-39.5 99zM743 0h-264l-473 1434h270l330 -1024h2
l332 1024h264l330 -1024h2l332 1024h268l-473 -1434h-264l-328 1053h-2z" />
    <glyph glyph-name="wdieresis" unicode="&#x1e85;" horiz-adv-x="1658" 
d="M483 1419q0 59 40 99.5t100 40.5q59 0 100 -41t41 -99t-41 -98.5t-100 -40.5q-60 0 -100 40t-40 99zM893 1419q0 59 39.5 99.5t99.5 40.5q58 0 98.5 -40.5t40.5 -99.5t-40.5 -99t-98.5 -40q-60 0 -99.5 40t-39.5 99zM598 0h-258l-330 1069h262l207 -709l223 709h256
l222 -709l206 709h263l-330 -1069h-256l-234 743z" />
    <glyph glyph-name="Ygrave" unicode="&#x1ef2;" horiz-adv-x="1359" 
d="M797 1618h-203l-225 319h231zM811 0h-262v539l-549 895h311l371 -617l369 617h309l-549 -895v-539z" />
    <glyph glyph-name="ygrave" unicode="&#x1ef3;" horiz-adv-x="1126" 
d="M680 1235h-203l-225 319h231zM535 -393h-269l164 411l-420 1051h266l285 -743h4l285 743h266z" />
    <glyph glyph-name="endash" unicode="&#x2013;" horiz-adv-x="1394" 
d="M1171 604h-946v236h946v-236z" />
    <glyph glyph-name="emdash" unicode="&#x2014;" horiz-adv-x="2019" 
d="M1796 604h-1571v236h1571v-236z" />
    <glyph glyph-name="uni2015" unicode="&#x2015;" horiz-adv-x="2017" 
d="M1794 604h-1571v236h1571v-236z" />
    <glyph glyph-name="quoteleft" unicode="&#x2018;" horiz-adv-x="608" 
d="M479 1473l66 -138q-134 -43 -195 -114.5t-61 -157.5h16q62 0 105 -47.5t43 -110.5q0 -69 -47.5 -117.5t-116.5 -48.5q-73 0 -123.5 54t-50.5 149v31q0 382 364 500z" />
    <glyph glyph-name="quoteright" unicode="&#x2019;" horiz-adv-x="608" 
d="M129 727l-66 137q134 43 195 114.5t61 158.5h-14q-63 0 -106 47.5t-43 111.5q0 68 48 116t118 48q72 0 122 -54t50 -149v-30q0 -381 -365 -500z" />
    <glyph glyph-name="quotesinglbase" unicode="&#x201a;" horiz-adv-x="581" 
d="M98 -426l-65 137q256 81 256 273h-15q-63 0 -106 47.5t-43 111.5q0 68 48.5 116t117.5 48q73 0 122.5 -53.5t49.5 -149.5v-30q0 -382 -365 -500z" />
    <glyph glyph-name="quotedblleft" unicode="&#x201c;" horiz-adv-x="1048" 
d="M479 1473l66 -138q-134 -43 -195 -114.5t-61 -157.5h16q62 0 105 -47.5t43 -110.5q0 -69 -47.5 -117.5t-116.5 -48.5q-73 0 -123.5 54t-50.5 149v31q0 382 364 500zM920 1473l65 -138q-134 -43 -195 -114.5t-61 -157.5h16q62 0 105 -47.5t43 -110.5q0 -69 -48 -117.5
t-118 -48.5q-72 0 -122 54t-50 149v31q0 381 365 500z" />
    <glyph glyph-name="quotedblright" unicode="&#x201d;" horiz-adv-x="1048" 
d="M569 727l-65 137q134 43 195 114.5t61 158.5h-15q-63 0 -106 47.5t-43 111.5q0 68 48 116t118 48q72 0 122 -54t50 -149v-30q0 -381 -365 -500zM127 727l-66 137q256 81 256 273h-14q-62 0 -104.5 47.5t-42.5 111.5q0 68 47 116t116 48q73 0 123 -54t50 -149v-30
q0 -382 -365 -500z" />
    <glyph glyph-name="quotedblbase" unicode="&#x201e;" horiz-adv-x="1021" 
d="M539 -426l-66 137q256 81 256 273h-14q-63 0 -106.5 47.5t-43.5 111.5q0 68 48.5 116t117.5 48q73 0 122.5 -53.5t49.5 -149.5v-30q0 -383 -364 -500zM98 -426l-65 137q256 81 256 273h-15q-63 0 -106 47.5t-43 111.5q0 68 48.5 116t117.5 48q73 0 122.5 -53.5
t49.5 -149.5v-30q0 -382 -365 -500z" />
    <glyph glyph-name="dagger" unicode="&#x2020;" horiz-adv-x="815" 
d="M510 -203h-207l-22 987h-232v230h232v420h256v-420h229v-230h-234z" />
    <glyph glyph-name="daggerdbl" unicode="&#x2021;" horiz-adv-x="815" 
d="M537 -203h-256v400h-232v229h232v416h-232v229h232v363h256v-363h229v-229h-229v-416h229v-229h-229v-400z" />
    <glyph glyph-name="bullet" unicode="&#x2022;" horiz-adv-x="665" 
d="M125 717q0 87 60 148t147 61q86 0 146.5 -61.5t60.5 -147.5t-60.5 -145.5t-146.5 -59.5q-88 0 -147.5 59.5t-59.5 145.5z" />
    <glyph glyph-name="ellipsis" unicode="&#x2026;" horiz-adv-x="1435" 
d="M125 143q0 68 48.5 116t117.5 48t117.5 -48t48.5 -116t-48.5 -117t-117.5 -49t-117.5 49t-48.5 117zM553 143q0 68 47.5 116t116.5 48t117.5 -48t48.5 -116t-48.5 -117t-117.5 -49q-68 0 -116 49t-48 117zM979 143q0 68 48 116t118 48q69 0 116.5 -48t47.5 -116t-48 -117
t-116 -49q-70 0 -118 49t-48 117z" />
    <glyph glyph-name="perthousand" unicode="&#x2030;" horiz-adv-x="2639" 
d="M449 727q-154 0 -251.5 97.5t-97.5 269.5t97.5 269t251.5 97q156 0 254 -97t98 -269t-98.5 -269.5t-253.5 -97.5zM657 0h-213l727 1434h215zM449 907q69 0 108 50t39 137t-38.5 136.5t-108.5 49.5q-68 0 -106 -49.5t-38 -136.5t38 -137t106 -50zM1386 -23
q-155 0 -252.5 97t-97.5 270t97.5 270t252.5 97q154 0 252.5 -97.5t98.5 -269.5t-98.5 -269.5t-252.5 -97.5zM2189 -23q-155 0 -251.5 97t-96.5 270t96.5 270t251.5 97t253 -97.5t98 -269.5t-98 -269.5t-253 -97.5zM1386 158q68 0 107 50t39 136q0 87 -38.5 136.5
t-107.5 49.5q-70 0 -107.5 -49.5t-37.5 -136.5t37.5 -136.5t107.5 -49.5zM2189 158q69 0 107.5 49.5t38.5 136.5t-38.5 136.5t-107.5 49.5q-68 0 -105.5 -49.5t-37.5 -136.5t37.5 -136.5t105.5 -49.5z" />
    <glyph glyph-name="guilsinglleft" unicode="&#x2039;" horiz-adv-x="831" 
d="M565 172l-491 492v108l491 494l158 -156l-391 -391l391 -391z" />
    <glyph glyph-name="guilsinglright" unicode="&#x203a;" horiz-adv-x="831" 
d="M266 172l-155 156l391 391l-393 391l157 156l494 -494v-108z" />
    <glyph glyph-name="fraction" unicode="&#x2044;" horiz-adv-x="1077" 
d="M274 0h-200l727 1434h203z" />
    <glyph glyph-name="uni2070" unicode="&#x2070;" horiz-adv-x="886" 
d="M444 950q-93 0 -166 37.5t-117.5 103.5t-67.5 153t-23 190q0 139 38.5 245t124.5 171t211 65t210.5 -65t124 -171t38.5 -245q0 -103 -22.5 -190t-67.5 -153t-117.5 -103.5t-165.5 -37.5zM444 1128q83 0 137 76t54 230t-53.5 228.5t-137.5 74.5q-83 0 -136.5 -74
t-53.5 -229q0 -154 53.5 -230t136.5 -76z" />
    <glyph glyph-name="uni2074" unicode="&#x2074;" horiz-adv-x="854" 
d="M481 1188h-436v119l410 581h196v-528h158v-172h-158v-211h-170v211zM489 1659l-215 -305h215v305z" />
    <glyph glyph-name="uni2075" unicode="&#x2075;" horiz-adv-x="823" 
d="M59 1094l115 125q58 -51 105 -71t106 -20q86 0 129 36t43 98q0 57 -39 90.5t-121 33.5h-293l64 502h520v-174h-364l-21 -160h129q137 0 222 -70t85 -216q0 -157 -95.5 -237.5t-252.5 -80.5q-185 0 -332 144z" />
    <glyph glyph-name="uni2076" unicode="&#x2076;" horiz-adv-x="808" 
d="M668 1888l-250 -319q8 2 22 2q138 0 219.5 -88.5t81.5 -222.5q0 -135 -90 -222.5t-245 -87.5q-156 0 -246 87.5t-90 222.5q0 88 33 155.5t98 151.5l254 321h213zM252 1260q0 -65 40 -101.5t114 -36.5q73 0 112 36.5t39 101.5q0 66 -39 102.5t-112 36.5
q-75 0 -114.5 -35.5t-39.5 -103.5z" />
    <glyph glyph-name="uni2077" unicode="&#x2077;" horiz-adv-x="768" 
d="M262 977h-211l459 737h-449v174h666v-162z" />
    <glyph glyph-name="uni2078" unicode="&#x2078;" horiz-adv-x="831" 
d="M229 1444v4q-17 8 -34.5 20.5t-43 38t-41.5 66.5t-16 90q0 109 81.5 180.5t240.5 71.5t240 -72t81 -182q0 -39 -11.5 -74t-27 -57t-36 -40.5t-34.5 -27t-26 -14.5v-4q20 -6 44 -21.5t51.5 -42t46 -69.5t18.5 -94q0 -114 -90.5 -190.5t-255.5 -76.5t-255.5 76.5
t-90.5 190.5q0 51 18.5 94t46.5 69.5t51.5 41.5t42.5 22zM279 1638q0 -52 36 -83t101 -31t102 31t37 83t-37 82.5t-102 30.5t-101 -30.5t-36 -82.5zM254 1239q0 -56 41.5 -90.5t120.5 -34.5q77 0 120.5 34.5t43.5 90.5t-43.5 91.5t-120.5 35.5q-79 0 -120.5 -35t-41.5 -92z
" />
    <glyph glyph-name="uni2079" unicode="&#x2079;" horiz-adv-x="808" 
d="M356 977h-215l252 319q-8 -2 -24 -2q-136 0 -217.5 89t-81.5 223q0 135 89.5 222t246.5 87q156 0 245.5 -87t89.5 -222q0 -88 -33.5 -156t-99.5 -150zM252 1606q0 -66 40.5 -103t113.5 -37q151 0 151 140q0 65 -39 101t-112 36t-113.5 -36t-40.5 -101z" />
    <glyph glyph-name="uni207A" unicode="&#x207a;" horiz-adv-x="958" 
d="M389 1341h-276v183h276v274h182v-274h273l2 -183h-275v-274h-182v274z" />
    <glyph glyph-name="uni207B" unicode="&#x207b;" horiz-adv-x="944" 
d="M829 1341h-716v183h716v-183z" />
    <glyph glyph-name="uni207C" unicode="&#x207c;" horiz-adv-x="933" 
d="M819 1538h-706v182h706v-182zM819 1145h-706v182h706v-182z" />
    <glyph glyph-name="uni207D" unicode="&#x207d;" horiz-adv-x="602" 
d="M520 1030l-90 -135q-157 78 -242.5 214.5t-85.5 307.5v31q0 172 85 308.5t243 215.5l90 -137q-237 -119 -237 -387v-31q0 -269 237 -387z" />
    <glyph glyph-name="uni207E" unicode="&#x207e;" horiz-adv-x="604" 
d="M172 895l-88 135q238 119 238 387v31q0 268 -238 387l88 137q159 -79 244.5 -215.5t85.5 -308.5v-31q0 -171 -85.5 -307.5t-244.5 -214.5z" />
    <glyph glyph-name="uni2080" unicode="&#x2080;" horiz-adv-x="886" 
d="M444 -416q-93 0 -166 37.5t-117.5 103.5t-67.5 153t-23 190q0 139 38.5 245t124.5 171t211 65t210.5 -65t124 -171t38.5 -245q0 -103 -22.5 -190t-67.5 -153t-117.5 -103.5t-165.5 -37.5zM444 -238q83 0 137 75.5t54 230.5q0 154 -53.5 228.5t-137.5 74.5
q-83 0 -136.5 -74t-53.5 -229t53.5 -230.5t136.5 -75.5z" />
    <glyph glyph-name="uni2081" unicode="&#x2081;" horiz-adv-x="595" 
d="M455 -385h-183v702l-170 -67l-67 168l268 108h152v-911z" />
    <glyph glyph-name="uni2082" unicode="&#x2082;" horiz-adv-x="790" 
d="M717 -389h-633v143l367 375q65 65 65 133q0 46 -31 77.5t-90 31.5q-105 0 -217 -127l-117 133q144 172 336 172q139 0 220 -77t81 -196q0 -80 -28.5 -137.5t-85.5 -118.5l-226 -235h359v-174z" />
    <glyph glyph-name="uni2083" unicode="&#x2083;" horiz-adv-x="806" 
d="M53 -260l115 133q67 -59 121.5 -82.5t116.5 -23.5q149 0 149 108q0 109 -160 109h-149v172h151q43 0 72.5 11t41.5 29t16.5 32.5t4.5 29.5q0 53 -34 85t-97 32q-57 0 -108.5 -28t-110.5 -85l-112 133q131 158 340 158q150 0 227.5 -80t77.5 -197q0 -151 -140 -206v-2
q162 -45 162 -209q0 -123 -86.5 -197t-244.5 -74q-209 0 -353 152z" />
    <glyph glyph-name="uni2084" unicode="&#x2084;" horiz-adv-x="854" 
d="M481 -176h-436v121l410 581h196v-528h158v-174h-158v-209h-170v209zM489 297l-215 -305h215v305z" />
    <glyph glyph-name="uni2085" unicode="&#x2085;" horiz-adv-x="823" 
d="M59 -268l115 125q58 -50 105 -70t106 -20q86 0 129 35.5t43 97.5q0 57 -39 91t-121 34h-293l64 501h520v-174h-364l-21 -159h129q137 0 222 -70.5t85 -216.5q0 -157 -95.5 -237.5t-252.5 -80.5q-185 0 -332 144z" />
    <glyph glyph-name="uni2086" unicode="&#x2086;" horiz-adv-x="808" 
d="M668 522l-250 -319q8 2 22 2q138 0 219.5 -88.5t81.5 -222.5q0 -135 -90 -222.5t-245 -87.5q-156 0 -246 87.5t-90 222.5q0 88 33 155.5t98 151.5l254 321h213zM252 -106q0 -65 40 -101.5t114 -36.5q73 0 112 36.5t39 101.5q0 66 -39 102.5t-112 36.5q-75 0 -114.5 -35.5
t-39.5 -103.5z" />
    <glyph glyph-name="uni2087" unicode="&#x2087;" horiz-adv-x="768" 
d="M262 -385h-211l459 737h-449v174h666v-161z" />
    <glyph glyph-name="uni2088" unicode="&#x2088;" horiz-adv-x="831" 
d="M229 78v4q-17 8 -34.5 20.5t-43 38t-41.5 66.5t-16 90q0 109 81.5 180.5t240.5 71.5t240 -72t81 -182q0 -39 -11.5 -74t-27 -57t-36 -40.5t-34.5 -27t-26 -14.5v-4q20 -6 44 -22t51.5 -43t46 -70t18.5 -93q0 -115 -90 -190.5t-256 -75.5t-256 75.5t-90 190.5
q0 50 18.5 93t46.5 70t51.5 43t42.5 22zM279 272q0 -52 36 -83t101 -31t102 31t37 83t-37 82.5t-102 30.5t-101 -30.5t-36 -82.5zM254 -127q0 -56 41.5 -90.5t120.5 -34.5q77 0 120.5 34.5t43.5 90.5t-43.5 91.5t-120.5 35.5q-79 0 -120.5 -35t-41.5 -92z" />
    <glyph glyph-name="uni2089" unicode="&#x2089;" horiz-adv-x="808" 
d="M356 -385h-215l252 319q-8 -2 -24 -2q-136 0 -217.5 89t-81.5 223q0 135 89.5 222t246.5 87q156 0 245.5 -87t89.5 -222q0 -87 -33 -154.5t-100 -152.5zM252 244q0 -66 40.5 -103t113.5 -37q151 0 151 140q0 65 -39 101t-112 36t-113.5 -36t-40.5 -101z" />
    <glyph glyph-name="uni208A" unicode="&#x208a;" horiz-adv-x="958" 
d="M389 -12h-276v182h276v274h182v-274h273l2 -182h-275v-277h-182v277z" />
    <glyph glyph-name="uni208B" unicode="&#x208b;" horiz-adv-x="944" 
d="M829 -12h-716v182h716v-182z" />
    <glyph glyph-name="uni208C" unicode="&#x208c;" horiz-adv-x="933" 
d="M819 182h-706v183h706v-183zM819 -209h-706v182h706v-182z" />
    <glyph glyph-name="uni208D" unicode="&#x208d;" horiz-adv-x="604" 
d="M520 -334l-90 -137q-158 79 -243 215.5t-85 308.5v31q0 172 85 308t243 214l90 -135q-237 -119 -237 -387v-31q0 -269 237 -387z" />
    <glyph glyph-name="uni208E" unicode="&#x208e;" horiz-adv-x="604" 
d="M174 -471l-90 137q238 119 238 387v31q0 268 -238 387l90 135q158 -78 243 -214t85 -308v-31q0 -172 -85 -308.5t-243 -215.5z" />
    <glyph glyph-name="lira" unicode="&#x20a4;" horiz-adv-x="1404" 
d="M303 915l-223 -67v199l223 67v320h256v-242l297 90v-199l-297 -90v-135l297 90v-198l-297 -91v-419h127q164 0 252 96t88 291v182h262v-193q0 -300 -161 -458t-441 -158h-383v582l-223 -70v201l223 67v135z" />
    <glyph glyph-name="Euro" unicode="&#x20ac;" horiz-adv-x="1560" 
d="M1325 406l170 -189q-98 -113 -252.5 -178.5t-308.5 -65.5q-247 0 -438.5 141.5t-262.5 368.5h-172v156h140q-2 25 -2 78q0 51 2 76h-140v155h172q71 228 262 370t439 142q155 0 304.5 -63t258.5 -178l-176 -195q-87 101 -180 149t-207 48q-145 0 -254.5 -74.5
t-167.5 -198.5h612v-155h-655q-6 -37 -6 -76q0 -41 6 -78h655v-156h-610q56 -123 165.5 -196.5t254.5 -73.5q114 0 209 47.5t182 145.5z" />
    <glyph glyph-name="uni20BA" unicode="&#x20ba;" horiz-adv-x="1404" 
d="M303 915l-223 -67v199l223 67v320h256v-242l297 90v-199l-297 -90v-135l297 90v-198l-297 -91v-419h127q164 0 252 96t88 291v182h262v-193q0 -300 -161 -458t-441 -158h-383v582l-223 -70v201l223 67v135z" />
    <glyph glyph-name="uni20BD" unicode="&#x20bd;" horiz-adv-x="1296" 
d="M432 0h-262v225h-125v160h125v1049h547q95 0 182.5 -27t162.5 -80.5t120 -146t45 -211.5q0 -96 -30 -176t-80 -133t-116.5 -90t-137.5 -53.5t-146 -16.5h-285v-115h471v-160h-471v-225zM432 1198v-463h260q141 0 205 64.5t64 169.5q0 103 -64 166t-205 63h-260z" />
    <glyph glyph-name="uni20BF" unicode="&#x20bf;" horiz-adv-x="1382" 
d="M584 -211h-213v211h-199v1434h199v223h213v-223h143h37v223h211v-262q120 -43 193 -131t73 -224q0 -201 -199 -305v-2q250 -107 250 -342q0 -151 -84.5 -241.5t-232.5 -124.5v-236h-211v211h-180v-211zM434 1206v-370h299q117 0 180.5 48.5t63.5 131.5q0 100 -65 145
t-197 45h-281zM434 612v-385h330q137 0 200.5 46t63.5 141q0 90 -69 144t-189 54h-336z" />
    <glyph glyph-name="uni2113" unicode="&#x2113;" horiz-adv-x="1071" 
d="M199 451l-140 -74v233l140 74v490q0 188 104.5 287.5t288.5 99.5t288.5 -99.5t104.5 -287.5v-21q0 -113 -40.5 -197.5t-117.5 -148.5t-211 -135l-194 -103v-204q0 -90 44.5 -133.5t125.5 -43.5q92 0 186 43l76 -196q-122 -58 -262 -58q-184 0 -288.5 99.5t-104.5 288.5
v86zM422 1174v-371l170 90q91 48 130.5 107t39.5 153v21q0 89 -44.5 132.5t-125.5 43.5t-125.5 -43.5t-44.5 -132.5z" />
    <glyph glyph-name="uni2117" unicode="&#x2117;" horiz-adv-x="1640" 
d="M819 -27q-148 0 -284 59.5t-234 159t-156.5 237.5t-58.5 288t58.5 287.5t156.5 237.5t234 159t284 59q200 0 369 -100t267.5 -271t98.5 -372q0 -150 -58 -288t-156.5 -237.5t-235 -159t-285.5 -59.5zM819 127q158 0 293 82t212 217.5t77 290.5t-77 290.5t-212 217.5
t-293 82t-292 -82t-210.5 -217.5t-76.5 -290.5t76.5 -290.5t210.5 -217.5t292 -82zM725 365h-137v704h268q46 0 88.5 -12t80 -37t59.5 -69.5t22 -102.5q0 -57 -22.5 -101t-59 -69.5t-79.5 -38t-89 -12.5h-131v-262zM725 942v-188h117q127 0 127 96q0 92 -127 92h-117z" />
    <glyph glyph-name="trademark" unicode="&#x2122;" horiz-adv-x="1718" 
d="M965 645h-193l102 811h62l281 -536l282 536h62l102 -811h-193l-38 326l-183 -338h-65l-180 338zM479 645h-182v617h-266v172h714v-172h-266v-617z" />
    <glyph glyph-name="uni2126" unicode="&#x2126;" horiz-adv-x="1705" 
d="M768 0h-672v236h293q-270 196 -270 512q0 147 58 279t156 227t234 150.5t287 55.5t287.5 -55.5t234.5 -150.5t155.5 -227t57.5 -279q0 -316 -268 -512h291v-236h-670v211q177 52 280 193.5t103 322.5q0 98 -34.5 187.5t-94.5 157.5t-149.5 108.5t-192.5 40.5
q-136 0 -245 -69t-166.5 -181.5t-57.5 -243.5q0 -182 102.5 -323t280.5 -193v-211z" />
    <glyph glyph-name="estimated" unicode="&#x212e;" horiz-adv-x="1636" 
d="M393 633v-236q69 -114 176.5 -178.5t251.5 -64.5q231 0 416 204l127 -143q-112 -119 -251 -180.5t-292 -61.5t-289 58t-234 157t-155 237t-57 292t57 292t155 237t234 156.5t289 57.5t289 -57.5t234 -156.5t155 -237t57 -292v-84h-1163zM393 1040v-249h852v258
q-66 105 -172 167t-252 62q-262 0 -428 -238z" />
    <glyph glyph-name="arrowleft" unicode="&#x2190;" horiz-adv-x="1351" 
d="M680 106l-606 580v64l608 577l139 -160l-370 -354l245 21h549v-232h-549l-243 19l368 -353z" />
    <glyph glyph-name="arrowup" unicode="&#x2191;" horiz-adv-x="1325" 
d="M629 1454h65l578 -610l-160 -139l-352 368l18 -237v-836h-231v836l18 239l-352 -368l-164 137z" />
    <glyph glyph-name="arrowright" unicode="&#x2192;" horiz-adv-x="1351" 
d="M655 602h-549v232h549l246 -21l-371 354l140 160l610 -577v-64l-608 -580l-142 162l369 353z" />
    <glyph glyph-name="arrowdown" unicode="&#x2193;" horiz-adv-x="1325" 
d="M694 -20h-65l-580 610l164 137l352 -369l-18 240v836h231v-836l-18 -238l352 369l160 -139z" />
    <glyph glyph-name="arrowboth" unicode="&#x2194;" horiz-adv-x="2011" 
d="M680 106l-606 580v64l608 579l139 -162l-368 -354l243 21h619l246 -21l-369 354l137 162l610 -579v-64l-608 -580l-139 162l369 353l-246 -19h-619l-243 19l368 -351z" />
    <glyph glyph-name="arrowupdn" unicode="&#x2195;" horiz-adv-x="1335" 
d="M698 -217l-63 2l-578 608l162 139l350 -366l-16 242v618l16 244l-350 -369l-162 141l578 609h65l578 -609l-160 -139l-352 367l18 -244v-618l-18 -242l350 366l162 -139z" />
    <glyph glyph-name="uni2196" unicode="&#x2196;" horiz-adv-x="1736" 
d="M412 281h-219v1153h1150v-220h-792l184 -155l910 -912l-170 -165l-906 909l-157 186v-796z" />
    <glyph glyph-name="uni2197" unicode="&#x2197;" horiz-adv-x="1726" 
d="M1544 281h-217v796l-160 -186l-905 -909l-170 165l909 912l185 155h-793v220h1151v-1153z" />
    <glyph glyph-name="uni2198" unicode="&#x2198;" horiz-adv-x="1726" 
d="M1327 1149h217v-1153h-1151v219h793l-185 156l-909 911l170 166l905 -909l160 -187v797z" />
    <glyph glyph-name="uni2199" unicode="&#x2199;" horiz-adv-x="1726" 
d="M182 1149h219v-797l158 187l905 909l170 -166l-909 -911l-184 -156h792v-219h-1151v1153z" />
    <glyph glyph-name="partialdiff" unicode="&#x2202;" horiz-adv-x="1261" 
d="M82 516q0 154 69 278.5t188 194.5t263 70q106 0 217 -51q-143 185 -201 282l-149 252h295l182 -305q106 -175 171 -340t65 -336v-45q0 -236 -155.5 -387.5t-395.5 -151.5t-394.5 151.5t-154.5 387.5zM631 211q131 0 211 83t80 222q0 137 -80 220t-211 83t-211 -83
t-80 -220q0 -139 80 -222t211 -83z" />
    <glyph glyph-name="uni2206" unicode="&#x2206;" horiz-adv-x="1529" 
d="M1524 0h-1518l635 1434h248zM764 1098l-375 -854h752l-373 854h-4z" />
    <glyph glyph-name="product" unicode="&#x220f;" horiz-adv-x="1511" 
d="M434 0h-262v1434h1169v-1434h-262v1194h-645v-1194z" />
    <glyph glyph-name="summation" unicode="&#x2211;" horiz-adv-x="1251" 
d="M1149 0h-1077v225l491 494l-491 489v226h1061v-236h-721l454 -457v-45l-454 -460h737v-236z" />
    <glyph glyph-name="minus" unicode="&#x2212;" horiz-adv-x="1363" 
d="M1141 604h-918v236h918v-236z" />
    <glyph glyph-name="uni2215" unicode="&#x2215;" horiz-adv-x="1077" 
d="M274 0h-200l727 1434h203z" />
    <glyph glyph-name="uni2219" unicode="&#x2219;" horiz-adv-x="577" 
d="M109 709q0 74 52.5 127t127.5 53q73 0 125.5 -53t52.5 -127q0 -75 -52 -128t-126 -53q-75 0 -127.5 53t-52.5 128z" />
    <glyph glyph-name="radical" unicode="&#x221a;" horiz-adv-x="1382" 
d="M578 -27h-37l-514 1069h258l274 -600l475 992h324v-238h-182z" />
    <glyph glyph-name="infinity" unicode="&#x221e;" horiz-adv-x="1402" 
d="M690 512h-8q-9 -20 -27.5 -45.5t-50.5 -58.5t-81 -54.5t-105 -21.5q-156 0 -254 108t-98 320q0 209 98 316.5t254 107.5q45 0 87 -15t70 -36t52 -47.5t36 -45.5t19 -34h8q8 24 29 55.5t55.5 67.5t89.5 60.5t117 24.5q157 0 255.5 -117.5t98.5 -338.5q0 -219 -99 -338
t-255 -119q-62 0 -117 24.5t-89.5 61t-55.5 68.5t-29 57zM768 758q20 -107 70.5 -172.5t128.5 -65.5q79 0 129.5 61.5t50.5 176.5q0 114 -50.5 175.5t-129.5 61.5q-78 0 -128.5 -65.5t-70.5 -171.5zM604 758q-15 98 -60.5 153.5t-113.5 55.5q-78 0 -126 -55.5t-48 -153.5
q0 -97 48 -152t126 -55q68 0 113.5 55t60.5 152z" />
    <glyph glyph-name="integral" unicode="&#x222b;" horiz-adv-x="1044" 
d="M31 -426l75 209q103 -35 173 -35q62 0 89 35t27 123v1268q0 196 93.5 291.5t265.5 95.5q131 0 262 -60l-78 -207q-96 35 -172 35q-61 0 -88 -35t-27 -123v-1267q0 -196 -94 -291.5t-266 -95.5q-143 0 -260 57z" />
    <glyph glyph-name="approxequal" unicode="&#x2248;" horiz-adv-x="1038" 
d="M248 754l-154 67q37 113 89 172.5t136 59.5q59 0 137.5 -28.5t145 -56.5t96.5 -28q26 0 46.5 25t48.5 100l151 -68q-37 -113 -89 -172t-136 -59q-62 0 -141 28t-144 56.5t-94 28.5q-27 0 -47 -25.5t-45 -99.5zM248 362l-154 68q37 114 89 174t136 60q59 0 137.5 -28
t145 -56.5t96.5 -28.5q27 0 47 24.5t48 98.5l151 -66q-36 -114 -88.5 -172.5t-136.5 -58.5q-62 0 -141 28t-144 56t-94 28q-26 0 -46.5 -26.5t-45.5 -100.5z" />
    <glyph glyph-name="notequal" unicode="&#x2260;" horiz-adv-x="997" 
d="M293 0h-166l168 418h-176v205h258l76 188h-334v203h416l167 420h166l-168 -420h179v-203h-261l-75 -188h336v-205h-418z" />
    <glyph glyph-name="lessequal" unicode="&#x2264;" horiz-adv-x="1026" 
d="M903 301l-799 344v223l799 346v-241l-504 -215l504 -215v-242zM903 0h-799v211h799v-211z" />
    <glyph glyph-name="greaterequal" unicode="&#x2265;" horiz-adv-x="1026" 
d="M922 645l-797 -346v244l502 215l-502 215v241l797 -344v-225zM924 0h-801v211h801v-211z" />
    <glyph glyph-name="uni24FF" unicode="&#x24ff;" horiz-adv-x="1929" 
d="M86 717q0 179 69.5 342t187 280.5t280.5 186.5t342 69q144 0 278 -44t242 -125t189 -189t125 -242t44 -278q0 -179 -69 -342t-186.5 -280.5t-280.5 -187t-342 -69.5t-342 69.5t-280.5 187t-187 280.5t-69.5 342zM965 236q124 0 209.5 65.5t124 172t38.5 245.5
q0 138 -38 244t-123.5 171.5t-210.5 65.5t-211 -65.5t-125 -171.5t-39 -244q0 -139 39.5 -245.5t125.5 -172t210 -65.5zM965 412q-83 0 -137 76t-54 231q0 153 54 228t137 75t136.5 -75t53.5 -228q0 -155 -53.5 -231t-136.5 -76z" />
    <glyph glyph-name="lozenge" unicode="&#x25ca;" horiz-adv-x="1398" 
d="M735 -14h-69l-635 731l635 731h67l635 -731zM332 717l368 -424l367 424l-367 424z" />
    <glyph glyph-name="uni2776" unicode="&#x2776;" horiz-adv-x="1929" 
d="M86 717q0 179 69.5 342t187 280.5t280.5 186.5t342 69q144 0 278 -44t242 -125t189 -189t125 -242t44 -278q0 -179 -69 -342t-186.5 -280.5t-280.5 -187t-342 -69.5t-342 69.5t-280.5 187t-187 280.5t-69.5 342zM639 436v-174h659v174h-231v738h-143l-289 -105l61 -172
l189 68v-529h-246z" />
    <glyph glyph-name="uni2777" unicode="&#x2777;" horiz-adv-x="1929" 
d="M86 717q0 179 69.5 342t187 280.5t280.5 186.5t342 69q144 0 278 -44t242 -125t189 -189t125 -242t44 -278q0 -179 -69 -342t-186.5 -280.5t-280.5 -187t-342 -69.5t-342 69.5t-280.5 187t-187 280.5t-69.5 342zM657 403v-141h633v174h-358l223 234q59 62 88 119.5
t29 136.5q0 119 -82 196.5t-221 77.5q-192 0 -332 -174l115 -131q114 127 217 127q58 0 88 -32t30 -79q0 -65 -65 -133z" />
    <glyph glyph-name="uni2778" unicode="&#x2778;" horiz-adv-x="1929" 
d="M86 717q0 179 69.5 342t187 280.5t280.5 186.5t342 69q144 0 278 -44t242 -125t189 -189t125 -242t44 -278q0 -179 -69 -342t-186.5 -280.5t-280.5 -187t-342 -69.5t-342 69.5t-280.5 187t-187 280.5t-69.5 342zM729 522l-117 -135q146 -151 353 -151q160 0 246.5 72.5
t86.5 195.5q0 163 -161 209v2q139 55 139 209q0 115 -78 195.5t-227 80.5q-204 0 -342 -158l114 -135q61 59 111 87t107 28q63 0 97 -32t34 -85q0 -16 -4 -30.5t-16 -33t-41.5 -29.5t-72.5 -11h-151v-170h147q160 0 160 -109q0 -110 -147 -110q-65 0 -121 24.5t-117 85.5z
" />
    <glyph glyph-name="uni2779" unicode="&#x2779;" horiz-adv-x="1929" 
d="M86 717q0 179 69.5 342t187 280.5t280.5 186.5t342 69q144 0 278 -44t242 -125t189 -189t125 -242t44 -278q0 -179 -69 -342t-186.5 -280.5t-280.5 -187t-342 -69.5t-342 69.5t-280.5 187t-187 280.5t-69.5 342zM532 594v-123h437v-211h170v211h157v174h-157v529h-197z
M971 645h-205l205 289v-289z" />
    <glyph glyph-name="uni277A" unicode="&#x277a;" horiz-adv-x="1929" 
d="M86 717q0 179 69.5 342t187 280.5t280.5 186.5t342 69q144 0 278 -44t242 -125t189 -189t125 -242t44 -278q0 -179 -69 -342t-186.5 -280.5t-280.5 -187t-342 -69.5t-342 69.5t-280.5 187t-187 280.5t-69.5 342zM727 504l-115 -125q140 -143 330 -143q157 0 253.5 80.5
t96.5 236.5q0 146 -86 216.5t-223 70.5h-129l20 157h365v177h-518l-66 -504h293q160 0 160 -125q0 -63 -42 -98t-130 -35q-59 0 -106.5 20.5t-102.5 71.5z" />
    <glyph glyph-name="uni277B" unicode="&#x277b;" horiz-adv-x="1929" 
d="M86 717q0 179 69.5 342t187 280.5t280.5 186.5t342 69q144 0 278 -44t242 -125t189 -189t125 -242t44 -278q0 -179 -69 -342t-186.5 -280.5t-280.5 -187t-342 -69.5t-342 69.5t-280.5 187t-187 280.5t-69.5 342zM1206 1174h-213l-254 -324q-66 -84 -98.5 -151t-32.5 -156
q0 -133 90.5 -220t245.5 -87t245.5 87t90.5 220q0 139 -80.5 225t-214.5 86q-21 0 -29 -2q2 3 7 8.5t8 9.5zM791 543q0 141 153 141q73 0 112.5 -36.5t39.5 -104.5q0 -65 -39.5 -101t-112.5 -36q-74 0 -113.5 36t-39.5 101z" />
    <glyph glyph-name="uni277C" unicode="&#x277c;" horiz-adv-x="1929" 
d="M86 717q0 179 69.5 342t187 280.5t280.5 186.5t342 69q144 0 278 -44t242 -125t189 -189t125 -242t44 -278q0 -179 -69 -342t-186.5 -280.5t-280.5 -187t-342 -69.5t-342 69.5t-280.5 187t-187 280.5t-69.5 342zM1124 997l-456 -737h211l462 750v161h-665v-176z" />
    <glyph glyph-name="uni277D" unicode="&#x277d;" horiz-adv-x="1929" 
d="M86 717q0 179 69.5 342t187 280.5t280.5 186.5t342 69q144 0 278 -44t242 -125t189 -189t125 -242t44 -278q0 -179 -69 -342t-186.5 -280.5t-280.5 -187t-342 -69.5t-342 69.5t-280.5 187t-187 280.5t-69.5 342zM778 733v-6q-14 -4 -32 -14t-40.5 -29.5t-41 -44
t-31 -61.5t-12.5 -78q0 -114 89 -189t255 -75t256 75.5t90 188.5q0 51 -18.5 94.5t-46 70t-52 42t-43.5 20.5v6q17 8 35 20.5t43 37.5t41 65.5t16 89.5q0 109 -81.5 181.5t-239.5 72.5q-157 0 -239.5 -72.5t-82.5 -181.5q0 -143 135 -213zM827 922q0 53 37 83.5t101 30.5
q66 0 102.5 -30.5t36.5 -83.5q0 -52 -37 -82.5t-102 -30.5q-64 0 -101 31t-37 82zM803 524q0 56 41.5 90.5t120.5 34.5t121 -34.5t42 -90.5t-42 -91.5t-121 -35.5t-120.5 35t-41.5 92z" />
    <glyph glyph-name="uni277E" unicode="&#x277e;" horiz-adv-x="1929" 
d="M965 -162q-179 0 -342 69.5t-280.5 187t-187 280.5t-69.5 342t69.5 342t187 280.5t280.5 186.5t342 69q144 0 278 -44t242 -125t189 -189t125 -242t44 -278q0 -179 -69 -342t-186.5 -280.5t-280.5 -187t-342 -69.5zM938 563l-236 -301h213l254 322q66 84 98.5 151
t32.5 156q0 135 -89.5 222t-245.5 87q-155 0 -244.5 -87t-89.5 -222q0 -139 79.5 -225t213.5 -86q20 0 28 2q-2 -3 -14 -19zM813 891q0 65 39.5 101t112.5 36q74 0 113.5 -36t39.5 -101q0 -141 -153 -141q-73 0 -112.5 37t-39.5 104z" />
    <glyph glyph-name="_0127" horiz-adv-x="1607" 
d="M1438 -137h-1266v1673l1266 2v-1675zM379 442l166 -168l260 263l260 -261l166 164l-262 262l260 261l-164 163l-260 -262l-260 262l-166 -163l262 -261z" />
    <glyph glyph-name="guillemotleft.case" horiz-adv-x="1341" 
d="M723 145l-156 -157l-493 495v107l493 493l156 -155l-391 -391zM1233 143l-158 -155l-481 497v105l481 493l158 -155l-391 -391z" />
    <glyph glyph-name="guillemotright.case" horiz-adv-x="1341" 
d="M1270 483l-494 -495l-158 157l394 392l-391 391l155 155l494 -493v-107zM268 -12l-157 155l391 394l-393 391l157 155l484 -493v-105z" />
    <glyph glyph-name="guilsinglleft.case" horiz-adv-x="831" 
d="M565 -10l-491 491v109l491 493l158 -155l-391 -391l391 -392z" />
    <glyph glyph-name="guilsinglright.case" horiz-adv-x="831" 
d="M266 -10l-155 155l391 392l-393 391l157 155l494 -493v-109z" />
    <glyph glyph-name="zero.numr" horiz-adv-x="886" 
d="M444 496q-124 0 -210 65.5t-125 172t-39 245.5t38.5 245t124.5 171t211 65t210.5 -65t124 -171t38.5 -245t-39 -245.5t-124.5 -172t-209.5 -65.5zM444 674q83 0 137 75.5t54 229.5t-53.5 228.5t-137.5 74.5q-83 0 -136.5 -74t-53.5 -229q0 -154 53.5 -229.5t136.5 -75.5z
" />
    <glyph glyph-name="one.numr" horiz-adv-x="598" 
d="M457 522h-183v703l-170 -68l-67 168l268 109h152v-912z" />
    <glyph glyph-name="two.numr" horiz-adv-x="790" 
d="M717 522h-633v144l367 374q65 65 65 134q0 46 -30.5 77t-90.5 31q-105 0 -217 -127l-117 133q144 172 336 172q139 0 220 -76.5t81 -195.5q0 -80 -28.5 -137.5t-85.5 -118.5l-226 -234h359v-176z" />
    <glyph glyph-name="three.numr" horiz-adv-x="806" 
d="M53 647l115 133q67 -59 121.5 -82.5t116.5 -23.5q149 0 149 108q0 45 -34.5 78t-125.5 33h-149v170h151q43 0 72.5 11t41.5 29t16.5 32.5t4.5 29.5q0 53 -34 85t-97 32q-57 0 -108.5 -28t-110.5 -85l-112 134q131 157 340 157q150 0 227.5 -79.5t77.5 -196.5
q0 -152 -140 -207v-2q162 -45 162 -209q0 -123 -86.5 -196.5t-244.5 -73.5q-210 0 -353 151z" />
    <glyph glyph-name="four.numr" horiz-adv-x="854" 
d="M481 733h-436v119l410 582h196v-529h158v-172h-158v-211h-170v211zM489 1204l-215 -305h215v305z" />
    <glyph glyph-name="five.numr" horiz-adv-x="804" 
d="M55 639l115 125q58 -50 105 -70t106 -20q86 0 129 35.5t43 97.5q0 57 -39 91t-121 34h-293l64 502h520v-174h-365l-20 -160h129q137 0 222 -70.5t85 -216.5q0 -156 -95.5 -236.5t-252.5 -80.5q-186 0 -332 143z" />
    <glyph glyph-name="six.numr" horiz-adv-x="808" 
d="M668 1434l-250 -320q8 2 22 2q138 0 219.5 -88.5t81.5 -222.5q0 -135 -89.5 -222t-245.5 -87t-246 87t-90 222q0 88 33 155.5t98 151.5l254 322h213zM252 805q0 -65 40 -101t114 -36q73 0 112 36t39 101q0 66 -39 102.5t-112 36.5q-75 0 -114.5 -35.5t-39.5 -103.5z" />
    <glyph glyph-name="seven.numr" horiz-adv-x="768" 
d="M262 522h-211l459 738h-449v174h666v-162z" />
    <glyph glyph-name="eight.numr" horiz-adv-x="831" 
d="M229 989v4q-17 8 -34.5 20.5t-43 38t-41.5 66.5t-16 90q0 109 81.5 180.5t240.5 71.5t240 -72t81 -182q0 -39 -11.5 -74t-27 -57t-36 -40.5t-34.5 -27t-26 -14.5v-4q20 -6 44 -21.5t51.5 -42t46 -69.5t18.5 -94q0 -114 -90 -190t-256 -76t-256 76t-90 190q0 51 18.5 94
t46.5 69.5t51.5 41.5t42.5 22zM279 1184q0 -52 36 -83.5t101 -31.5t102 31.5t37 83.5t-37 82t-102 30t-101 -30t-36 -82zM254 784q0 -56 41.5 -90.5t120.5 -34.5q77 0 120.5 34.5t43.5 90.5t-43.5 91.5t-120.5 35.5q-79 0 -120.5 -35t-41.5 -92z" />
    <glyph glyph-name="nine.numr" horiz-adv-x="808" 
d="M356 522h-215l252 320q-8 -2 -24 -2q-136 0 -217.5 88.5t-81.5 222.5q0 135 89.5 222t246.5 87q156 0 245.5 -87t89.5 -222q0 -88 -33.5 -155t-99.5 -150zM252 1151q0 -66 40.5 -102.5t113.5 -36.5q151 0 151 139q0 65 -39 101t-112 36t-113.5 -36t-40.5 -101z" />
    <glyph glyph-name="t_y" horiz-adv-x="2002" 
d="M727 256l82 -205q-112 -74 -262 -74q-172 0 -266.5 95t-94.5 288v480h-135v229h146v227h245v-227h711l285 -743h4l284 743h267l-582 -1462h-268l164 409l-330 824h-535v-480q0 -84 27.5 -116.5t91.5 -32.5q70 0 166 45z" />
    <glyph glyph-name="germandbls.alt" horiz-adv-x="1382" 
d="M434 0h-262v1434h545q109 0 198 -22.5t156 -68t104 -120.5t37 -174q0 -70 -17 -125t-49 -92t-63 -60.5t-73 -44.5v-2q38 -13 73 -31.5t74.5 -50.5t68 -70.5t47.5 -95.5t19 -123q0 -177 -107 -279t-276 -102q-93 0 -176.5 29t-173.5 96l129 185q89 -70 195 -70
q69 0 109 40t40 118t-48 133.5t-116.5 79.5t-146.5 24h-103v221h105q122 0 175.5 52.5t53.5 136.5t-59.5 130t-175.5 46h-283v-1194z" />
    <glyph glyph-name="zero.dnom" horiz-adv-x="886" 
d="M444 -27q-93 0 -166 37.5t-117.5 103.5t-67.5 153t-23 190q0 139 38.5 245t124.5 171t211 65t210.5 -65t124 -171t38.5 -245q0 -103 -22.5 -190t-67.5 -153t-117.5 -103.5t-165.5 -37.5zM444 152q83 0 137 75.5t54 229.5t-53.5 228.5t-137.5 74.5q-83 0 -136.5 -74
t-53.5 -229q0 -154 53.5 -229.5t136.5 -75.5z" />
    <glyph glyph-name="one.dnom" horiz-adv-x="595" 
d="M455 0h-183v702l-170 -67l-67 168l268 108h152v-911z" />
    <glyph glyph-name="two.dnom" horiz-adv-x="790" 
d="M717 0h-633v143l367 375q65 65 65 133q0 46 -31 77.5t-90 31.5q-105 0 -217 -127l-117 133q144 172 336 172q139 0 220 -76.5t81 -195.5q0 -80 -28.5 -137.5t-85.5 -118.5l-226 -234h359v-176z" />
    <glyph glyph-name="three.dnom" horiz-adv-x="806" 
d="M53 125l115 133q67 -59 121.5 -82.5t116.5 -23.5q149 0 149 108q0 45 -34.5 78t-125.5 33h-149v170h151q43 0 72.5 11t41.5 29t16.5 32.5t4.5 29.5q0 53 -34 85t-97 32q-57 0 -108.5 -28t-110.5 -85l-112 133q131 158 340 158q150 0 227.5 -79.5t77.5 -196.5
q0 -152 -140 -207v-2q162 -45 162 -209q0 -123 -86.5 -197t-244.5 -74q-209 0 -353 152z" />
    <glyph glyph-name="four.dnom" horiz-adv-x="854" 
d="M481 211h-436v119l410 581h196v-528h158v-172h-158v-211h-170v211zM489 682l-215 -305h215v305z" />
    <glyph glyph-name="five.dnom" horiz-adv-x="823" 
d="M59 117l115 125q58 -50 105 -70t106 -20q86 0 129 35.5t43 97.5q0 57 -39 91t-121 34h-293l64 501h520v-174h-364l-21 -159h129q137 0 222 -70.5t85 -216.5q0 -157 -95.5 -237.5t-252.5 -80.5q-185 0 -332 144z" />
    <glyph glyph-name="six.dnom" horiz-adv-x="808" 
d="M668 911l-250 -319q8 2 22 2q138 0 219.5 -88.5t81.5 -222.5q0 -135 -90 -222.5t-245 -87.5q-156 0 -246 87.5t-90 222.5q0 88 33 155.5t98 151.5l254 321h213zM252 283q0 -65 40 -101.5t114 -36.5q73 0 112 36.5t39 101.5q0 66 -39 102.5t-112 36.5q-75 0 -114.5 -35.5
t-39.5 -103.5z" />
    <glyph glyph-name="seven.dnom" horiz-adv-x="768" 
d="M262 0h-211l459 737h-449v174h666v-161z" />
    <glyph glyph-name="eight.dnom" horiz-adv-x="831" 
d="M229 467v4q-17 8 -34.5 20.5t-43 38t-41.5 66.5t-16 90q0 109 81.5 180.5t240.5 71.5t240 -72t81 -182q0 -39 -11.5 -74t-27 -57t-36 -40.5t-34.5 -27t-26 -14.5v-4q20 -6 44 -21.5t51.5 -42t46 -69.5t18.5 -94q0 -114 -90.5 -190.5t-255.5 -76.5t-255.5 76.5
t-90.5 190.5q0 51 18.5 94t46.5 69.5t51.5 41.5t42.5 22zM279 662q0 -52 36 -83.5t101 -31.5t102 31.5t37 83.5t-37 82t-102 30t-101 -30t-36 -82zM254 262q0 -56 41.5 -90.5t120.5 -34.5q77 0 120.5 34.5t43.5 90.5t-43.5 91.5t-120.5 35.5q-79 0 -120.5 -35t-41.5 -92z
" />
    <glyph glyph-name="nine.dnom" horiz-adv-x="808" 
d="M356 0h-215l252 319q-8 -2 -24 -2q-136 0 -217.5 89t-81.5 223q0 135 89.5 222t246.5 87q156 0 245.5 -87t89.5 -222q0 -88 -33.5 -155t-99.5 -150zM252 629q0 -66 40.5 -103t113.5 -37q151 0 151 140q0 65 -39 101t-112 36t-113.5 -36t-40.5 -101z" />
    <glyph glyph-name="zero.onum" horiz-adv-x="1206" 
d="M604 -23q-156 0 -276 74.5t-183 200.5t-63 283t63 283t183 200t276 74q155 0 274.5 -74t182.5 -200.5t63 -282.5q0 -157 -63 -283t-182.5 -200.5t-274.5 -74.5zM604 211q125 0 193.5 90.5t68.5 233.5q0 144 -68 231.5t-194 87.5q-127 0 -195.5 -87.5t-68.5 -231.5
t69 -234t195 -90z" />
    <glyph glyph-name="one.onum" horiz-adv-x="1112" 
d="M1049 0h-949v242h349v522l-295 -94l-76 237l489 166h144v-831h338v-242z" />
    <glyph glyph-name="two.onum" horiz-adv-x="1093" 
d="M991 0h-885v197l480 366q59 45 84.5 85t25.5 89q0 51 -36.5 83t-110.5 32q-69 0 -139.5 -35.5t-163.5 -118.5l-152 174q111 113 223.5 166.5t245.5 53.5q179 0 286 -95.5t107 -246.5q0 -109 -46 -188t-136 -148l-233 -178h450v-236z" />
    <glyph glyph-name="three.onum" horiz-adv-x="1185" 
d="M45 -188l162 180q163 -174 368 -174q134 0 197.5 58.5t63.5 154.5q0 92 -70 148.5t-193 56.5h-243v219h237q63 0 110 18t72 48t36.5 62.5t11.5 67.5q0 99 -63 153t-171 54q-90 0 -165.5 -39.5t-170.5 -134.5l-159 178q213 230 516 230q72 0 140.5 -15t130 -47.5
t108 -79.5t73.5 -115.5t27 -150.5q0 -123 -56 -205.5t-139 -124.5v-2q43 -18 80 -43.5t73.5 -65t57.5 -98.5t21 -131q0 -137 -73 -236t-190 -146.5t-262 -47.5q-158 0 -293 59.5t-237 168.5z" />
    <glyph glyph-name="four.onum" horiz-adv-x="1220" 
d="M739 0h-698v205l651 864h299v-836l189 3v-236h-189v-393h-252v393zM743 758l-397 -527h397v527z" />
    <glyph glyph-name="five.onum" horiz-adv-x="1196" 
d="M41 -180l168 182q160 -178 373 -178q127 0 194.5 63t67.5 166q0 107 -71.5 162t-211.5 55h-434l100 799h809v-235h-585l-39 -330h172q526 0 526 -434q0 -236 -142.5 -361t-385.5 -125q-162 0 -300 62.5t-241 173.5z" />
    <glyph glyph-name="six.onum" horiz-adv-x="1214" 
d="M987 1434l-393 -500q18 4 57 4q215 0 347 -134.5t132 -346.5q0 -211 -140 -347.5t-382 -136.5q-243 0 -382.5 136.5t-139.5 347.5q0 72 15 136t47.5 125t62.5 105t80 109l395 502h301zM340 457q0 -115 71 -182.5t197 -67.5t197.5 67.5t71.5 182.5t-71 181.5t-198 66.5
t-197.5 -66t-70.5 -182z" />
    <glyph glyph-name="seven.onum" horiz-adv-x="1177" 
d="M428 -395l-295 2l670 1220h-719v242h1032v-209z" />
    <glyph glyph-name="eight.onum" horiz-adv-x="1239" 
d="M336 733v4q-22 8 -47 23t-55 42.5t-54 61t-40.5 83t-16.5 104.5q0 182 125 295.5t373 113.5q246 0 370.5 -113.5t124.5 -295.5q0 -55 -16.5 -104.5t-40.5 -83t-54 -61t-55 -42.5t-47 -23v-4q250 -105 250 -344q0 -191 -138.5 -303.5t-393.5 -112.5q-256 0 -395.5 112.5
t-139.5 303.5q0 239 250 344zM381 1036q0 -92 64.5 -145t175.5 -53q109 0 174 53t65 145q0 88 -63 142.5t-176 54.5q-114 0 -177 -54t-63 -143zM344 414q0 -96 71 -153.5t206 -57.5q134 0 204 57.5t70 153.5q0 101 -76.5 158t-197.5 57q-122 0 -199.5 -57t-77.5 -158z" />
    <glyph glyph-name="nine.onum" horiz-adv-x="1214" 
d="M512 -393h-301l412 524q-36 -4 -58 -4q-216 0 -347.5 134.5t-131.5 348.5q0 102 35 189.5t100 152.5t165 102.5t222 37.5q242 0 382 -136.5t140 -345.5q0 -72 -15 -136.5t-47.5 -125.5t-63 -105t-80.5 -108zM340 610q0 -115 71 -182.5t197 -67.5q127 0 198 66.5t71 183.5
q0 115 -71 181.5t-198 66.5q-126 0 -197 -66.5t-71 -181.5z" />
    <glyph glyph-name="zero.pnum" 
d="M664 -27q-145 0 -258 58.5t-182.5 161t-105.5 235.5t-36 289q0 124 22 234t69 203.5t114.5 161.5t164 106t212.5 38t212.5 -38t164 -106t114 -161.5t68.5 -203.5t22 -234q0 -156 -35.5 -289t-105.5 -235.5t-182.5 -161t-257.5 -58.5zM664 213q72 0 128 28.5t91 75
t57.5 113t31.5 136.5t9 151t-9 151t-32 136.5t-58 113.5t-91 75t-127 28t-127 -28t-91 -75t-57.5 -113.5t-31.5 -136.5t-9 -151t9 -151t31.5 -136.5t57.5 -113.5t91 -75t127 -28z" />
    <glyph glyph-name="one.pnum" 
d="M1149 0h-975v242h363v884l-310 -98l-77 240l512 166h137v-1192h350v-242z" />
    <glyph glyph-name="two.pnum" 
d="M1141 0h-996v186l541 551q78 78 111.5 138t33.5 137q0 98 -58.5 153.5t-158.5 55.5q-78 0 -156.5 -40t-170.5 -130l-162 182q114 111 236.5 169t269.5 58q214 0 340.5 -118.5t126.5 -313.5q0 -119 -49.5 -220.5t-157.5 -211.5l-350 -360h600v-236z" />
    <glyph glyph-name="three.pnum" 
d="M119 203l162 178q166 -174 374 -174q139 0 213 54.5t74 154.5q0 98 -66.5 144t-197.5 46h-225v158l366 434h-409v-215h-246v451h981v-211l-348 -400h10q58 -5 112.5 -20.5t108 -47t92.5 -75t63.5 -109t24.5 -145.5q0 -213 -152.5 -333t-402.5 -120q-160 0 -296.5 60.5
t-237.5 169.5z" />
    <glyph glyph-name="four.pnum" 
d="M803 326h-699v204l674 904h275v-875h190v-233h-190v-326h-250v326zM807 1092l-401 -535h401v535z" />
    <glyph glyph-name="five.pnum" 
d="M102 209l168 182q157 -178 373 -178q126 0 194 63.5t68 165.5q0 107 -72 162t-210 55h-435l99 775h811v-236h-586l-41 -305h172q116 0 209 -23.5t165.5 -73.5t112 -136t39.5 -203q0 -232 -143 -358t-385 -126q-162 0 -300 63t-239 173z" />
    <glyph glyph-name="six.pnum" 
d="M1042 1434l-393 -500q20 4 58 4q215 0 347 -134.5t132 -346.5q0 -211 -140 -347.5t-382 -136.5t-382.5 137t-140.5 347q0 72 15 136t48.5 125t63 104.5t80.5 109.5l391 502h303zM395 457q0 -115 71.5 -182.5t197.5 -67.5t197 67.5t71 182.5t-71 181.5t-197 66.5
q-127 0 -198 -66t-71 -182z" />
    <glyph glyph-name="seven.pnum" 
d="M508 0h-297l704 1192h-542v-209h-238v451h1096v-213z" />
    <glyph glyph-name="eight.pnum" 
d="M381 733v4q-28 10 -61 32.5t-69.5 59.5t-60.5 95.5t-24 126.5q0 88 30 161t89.5 129t156 87.5t222.5 31.5t222.5 -31.5t155.5 -87.5t89 -129t30 -161q0 -68 -24 -126.5t-60.5 -95.5t-68.5 -59.5t-60 -32.5v-4q250 -105 250 -344q0 -191 -139.5 -303.5t-394.5 -112.5
t-395 112.5t-140 303.5q0 241 252 344zM424 1036q0 -92 65.5 -145t174.5 -53q111 0 175 53t64 145q0 89 -62.5 143t-176.5 54q-113 0 -176.5 -54.5t-63.5 -142.5zM387 414q0 -96 71 -153.5t206 -57.5t205.5 57.5t70.5 153.5q0 101 -77 158t-199 57t-199.5 -57t-77.5 -158z
" />
    <glyph glyph-name="nine.pnum" 
d="M590 0h-301l391 500q-18 -4 -55 -4q-215 0 -347.5 134.5t-132.5 346.5q0 210 140.5 346.5t382.5 136.5t382 -136.5t140 -346.5q0 -72 -15.5 -136t-48 -125t-63 -104.5t-80.5 -107.5zM399 977q0 -115 71 -181.5t198 -66.5t197.5 66t70.5 182t-70.5 183t-197.5 67t-198 -67
t-71 -183z" />
    <glyph glyph-name="zero.onum.pnum" 
d="M664 -23q-156 0 -276 74.5t-183.5 200.5t-63.5 283t63.5 283t183.5 200t276 74t276 -74t183 -200t63 -283t-63 -283t-183 -200.5t-276 -74.5zM664 211q126 0 195 90t69 234t-68.5 231.5t-195.5 87.5t-195 -87.5t-68 -231.5t68.5 -234t194.5 -90z" />
    <glyph glyph-name="one.onum.pnum" 
d="M1143 0h-948v242h348v522l-295 -94l-76 237l487 166h146v-831h338v-242z" />
    <glyph glyph-name="two.onum.pnum" 
d="M1092 0h-885v197l479 366q58 45 83.5 85t25.5 89q0 51 -36 83t-110 32q-69 0 -139.5 -35.5t-163.5 -118.5l-153 174q114 114 226.5 167t244.5 53q179 0 285 -95t106 -247q0 -109 -45.5 -188.5t-135.5 -147.5l-235 -178h453v-236z" />
    <glyph glyph-name="three.onum.pnum" 
d="M117 -186l164 176q89 -92 179.5 -132t194.5 -40q139 0 214 61t75 164q0 197 -264 197h-223v157l368 437h-415v-216h-246v451h987v-211l-350 -401h10q72 -6 139.5 -32.5t126.5 -73.5t95 -122.5t36 -169.5q0 -214 -147.5 -344.5t-403.5 -130.5q-323 0 -540 230z" />
    <glyph glyph-name="four.onum.pnum" 
d="M803 0h-699v205l650 864h299v-836h190v-233h-190v-393h-250v393zM807 760l-397 -529h397v529z" />
    <glyph glyph-name="five.onum.pnum" 
d="M102 -180l168 182q157 -178 373 -178q126 0 193 63.5t67 165.5q0 107 -71 162t-209 55h-437l101 799h811v-235h-586l-41 -330h172q116 0 209 -23.5t165.5 -73.5t112 -136t39.5 -203q0 -232 -143 -358t-385 -126q-162 0 -300 63t-239 173z" />
    <glyph glyph-name="six.onum.pnum" 
d="M1042 1434l-393 -500q20 4 58 4q215 0 347 -134.5t132 -346.5q0 -211 -140 -347.5t-382 -136.5t-382.5 137t-140.5 347q0 72 15 136t48.5 125t63 104.5t80.5 109.5l391 502h303zM395 457q0 -115 71.5 -182.5t197.5 -67.5t197 67.5t71 182.5t-71 181.5t-197 66.5
q-127 0 -198 -66t-71 -182z" />
    <glyph glyph-name="seven.onum.pnum" 
d="M494 -393h-299l720 1220h-542v-209h-238v451h1096v-213z" />
    <glyph glyph-name="eight.onum.pnum" 
d="M381 733v4q-28 10 -61 32.5t-69.5 59.5t-60.5 95.5t-24 126.5q0 88 30 161t89.5 129t156 87.5t222.5 31.5t222.5 -31.5t155.5 -87.5t89 -129t30 -161q0 -68 -24 -126.5t-60.5 -95.5t-68.5 -59.5t-60 -32.5v-4q250 -105 250 -344q0 -191 -139.5 -303.5t-394.5 -112.5
t-395 112.5t-140 303.5q0 241 252 344zM424 1036q0 -92 65.5 -145t174.5 -53q111 0 175 53t64 145q0 89 -62.5 143t-176.5 54q-113 0 -176.5 -54.5t-63.5 -142.5zM387 414q0 -96 71 -153.5t206 -57.5t205.5 57.5t70.5 153.5q0 101 -77 158t-199 57t-199.5 -57t-77.5 -158z
" />
    <glyph glyph-name="nine.onum.pnum" 
d="M567 -393h-301l412 524q-40 -4 -57 -4q-215 0 -347.5 134.5t-132.5 348.5q0 209 140.5 345.5t382.5 136.5t382 -136.5t140 -345.5q0 -72 -15.5 -136.5t-48 -125.5t-63 -105t-80.5 -108zM395 610q0 -115 71.5 -182.5t197.5 -67.5q127 0 197.5 66.5t70.5 183.5
q0 115 -71 181.5t-197 66.5q-127 0 -198 -66.5t-71 -181.5z" />
    <glyph glyph-name="g.alt" horiz-adv-x="1275" 
d="M154 694q0 172 121 285t317 113q118 0 211.5 -43t152.5 -119q22 80 95.5 125t210.5 37l-33 -263q-38 6 -67 2.5t-50 -8t-35.5 -17t-23 -23.5t-13.5 -28t-6.5 -30.5t-1.5 -30.5q0 -172 -121 -284.5t-319 -112.5h-227q-27 0 -45.5 -16.5t-18.5 -42.5q0 -28 18.5 -44
t45.5 -16h434q211 0 310 -62.5t99 -199.5q0 -152 -145.5 -242t-394.5 -90h-88q-241 0 -376.5 69.5t-135.5 201.5q0 120 106 176q-106 63 -106 182q0 83 51.5 138t138.5 73q-104 110 -104 270zM389 694q0 -80 54.5 -131t148.5 -51q96 0 149.5 51t53.5 131q0 81 -53.5 132
t-149.5 51q-94 0 -148.5 -51.5t-54.5 -131.5zM793 -12h-359q-131 0 -131 -84q0 -50 67.5 -81.5t221.5 -31.5h65q299 0 299 113q0 43 -36 63.5t-127 20.5z" />
    <glyph glyph-name="gcircumflex.alt" horiz-adv-x="1275" 
d="M506 1219h-201l217 350h217l217 -350h-198l-125 204h-4zM154 694q0 172 121 285t317 113q118 0 211.5 -43t152.5 -119q22 80 95.5 125t210.5 37l-33 -263q-38 6 -67 2.5t-50 -8t-35.5 -17t-23 -23.5t-13.5 -28t-6.5 -30.5t-1.5 -30.5q0 -172 -121 -284.5t-319 -112.5
h-227q-27 0 -45.5 -16.5t-18.5 -42.5q0 -28 18.5 -44t45.5 -16h434q211 0 310 -62.5t99 -199.5q0 -152 -145.5 -242t-394.5 -90h-88q-241 0 -376.5 69.5t-135.5 201.5q0 120 106 176q-106 63 -106 182q0 83 51.5 138t138.5 73q-104 110 -104 270zM389 694q0 -80 54.5 -131
t148.5 -51q96 0 149.5 51t53.5 131q0 81 -53.5 132t-149.5 51q-94 0 -148.5 -51.5t-54.5 -131.5zM793 -12h-359q-131 0 -131 -84q0 -50 67.5 -81.5t221.5 -31.5h65q299 0 299 113q0 43 -36 63.5t-127 20.5z" />
    <glyph glyph-name="gbreve.alt" horiz-adv-x="1275" 
d="M291 1479l153 80q40 -101 76.5 -137t108.5 -36q73 0 108.5 35.5t77.5 137.5l154 -82q-56 -140 -130.5 -203.5t-209.5 -63.5t-209.5 64t-128.5 205zM154 694q0 172 121 285t317 113q118 0 211.5 -43t152.5 -119q22 80 95.5 125t210.5 37l-33 -263q-38 6 -67 2.5t-50 -8
t-35.5 -17t-23 -23.5t-13.5 -28t-6.5 -30.5t-1.5 -30.5q0 -172 -121 -284.5t-319 -112.5h-227q-27 0 -45.5 -16.5t-18.5 -42.5q0 -28 18.5 -44t45.5 -16h434q211 0 310 -62.5t99 -199.5q0 -152 -145.5 -242t-394.5 -90h-88q-241 0 -376.5 69.5t-135.5 201.5q0 120 106 176
q-106 63 -106 182q0 83 51.5 138t138.5 73q-104 110 -104 270zM389 694q0 -80 54.5 -131t148.5 -51q96 0 149.5 51t53.5 131q0 81 -53.5 132t-149.5 51q-94 0 -148.5 -51.5t-54.5 -131.5zM793 -12h-359q-131 0 -131 -84q0 -50 67.5 -81.5t221.5 -31.5h65q299 0 299 113
q0 43 -36 63.5t-127 20.5z" />
    <glyph glyph-name="gdotaccent.alt" horiz-adv-x="1275" 
d="M461 1407q0 65 44 110.5t109 45.5q64 0 110 -45.5t46 -110.5t-46 -110.5t-110 -45.5q-65 0 -109 45.5t-44 110.5zM154 694q0 172 121 285t317 113q118 0 211.5 -43t152.5 -119q22 80 95.5 125t210.5 37l-33 -263q-38 6 -67 2.5t-50 -8t-35.5 -17t-23 -23.5t-13.5 -28
t-6.5 -30.5t-1.5 -30.5q0 -172 -121 -284.5t-319 -112.5h-227q-27 0 -45.5 -16.5t-18.5 -42.5q0 -28 18.5 -44t45.5 -16h434q211 0 310 -62.5t99 -199.5q0 -152 -145.5 -242t-394.5 -90h-88q-241 0 -376.5 69.5t-135.5 201.5q0 120 106 176q-106 63 -106 182q0 83 51.5 138
t138.5 73q-104 110 -104 270zM389 694q0 -80 54.5 -131t148.5 -51q96 0 149.5 51t53.5 131q0 81 -53.5 132t-149.5 51q-94 0 -148.5 -51.5t-54.5 -131.5zM793 -12h-359q-131 0 -131 -84q0 -50 67.5 -81.5t221.5 -31.5h65q299 0 299 113q0 43 -36 63.5t-127 20.5z" />
    <glyph glyph-name="uni0123.alt" horiz-adv-x="1275" 
d="M719 1223h-246l158 319h194zM154 694q0 172 121 285t317 113q118 0 211.5 -43t152.5 -119q22 80 95.5 125t210.5 37l-33 -263q-38 6 -67 2.5t-50 -8t-35.5 -17t-23 -23.5t-13.5 -28t-6.5 -30.5t-1.5 -30.5q0 -172 -121 -284.5t-319 -112.5h-227q-27 0 -45.5 -16.5
t-18.5 -42.5q0 -28 18.5 -44t45.5 -16h434q211 0 310 -62.5t99 -199.5q0 -152 -145.5 -242t-394.5 -90h-88q-241 0 -376.5 69.5t-135.5 201.5q0 120 106 176q-106 63 -106 182q0 83 51.5 138t138.5 73q-104 110 -104 270zM389 694q0 -80 54.5 -131t148.5 -51q96 0 149.5 51
t53.5 131q0 81 -53.5 132t-149.5 51q-94 0 -148.5 -51.5t-54.5 -131.5zM793 -12h-359q-131 0 -131 -84q0 -50 67.5 -81.5t221.5 -31.5h65q299 0 299 113q0 43 -36 63.5t-127 20.5z" />
    <glyph glyph-name="t_t" horiz-adv-x="1708" 
d="M725 256l82 -205q-109 -74 -262 -74q-171 0 -265 95t-94 288v476h-135v229h144v231h247v-231h598v231h246v-231h326v-229h-326v-476q0 -84 27.5 -116.5t89.5 -32.5q75 0 166 45l84 -205q-112 -74 -262 -74q-172 0 -266.5 95t-94.5 288v476h-588v-476q0 -84 27.5 -116.5
t89.5 -32.5q75 0 166 45z" />
    </font>
</defs>
</svg>
