<svg width="32" height="32" viewBox="0 0 32 32" fill="none" xmlns="http://www.w3.org/2000/svg">
<circle cx="16" cy="16" r="16" fill="#50AF95"/>
<g clip-path="url(#clip0)">
<path fill-rule="evenodd" clip-rule="evenodd" d="M6.87379 4.92554L1.62254 16.1966C1.60256 16.2385 1.59623 16.2859 1.60447 16.3317C1.61271 16.3776 1.6351 16.4196 1.66836 16.4515L15.8507 30.3383C15.891 30.3778 15.9447 30.3998 16.0005 30.3998C16.0563 30.3998 16.11 30.3778 16.1502 30.3383L30.3326 16.4524C30.3659 16.4204 30.3882 16.3785 30.3965 16.3326C30.4047 16.2867 30.3984 16.2394 30.3784 16.1975L25.1272 4.9264C25.1102 4.88855 25.083 4.85648 25.0487 4.83404C25.0144 4.81159 24.9745 4.79971 24.9337 4.79982H7.06894C7.02801 4.7993 6.98781 4.81089 6.95318 4.8332C6.91855 4.85551 6.89098 4.88758 6.87379 4.92554Z" fill="#50AF95"/>
<path fill-rule="evenodd" clip-rule="evenodd" d="M17.8222 17.3541C17.7204 17.3619 17.1943 17.394 16.0208 17.394C15.0875 17.394 14.4249 17.3654 14.1924 17.3541C10.5855 17.192 7.89324 16.5504 7.89324 15.7822C7.89324 15.0141 10.5855 14.3733 14.1924 14.2086V16.7151C14.4282 16.7325 15.1036 16.7732 16.037 16.7732C17.157 16.7732 17.7178 16.7255 17.8188 16.716V14.2103C21.418 14.3742 24.1043 15.0158 24.1043 15.7822C24.1043 16.5486 21.4189 17.1902 17.8188 17.3532L17.8222 17.3541ZM17.8222 13.9511V11.7082H22.8452V8.28784H9.16936V11.7082H14.1915V13.9502C10.1095 14.1418 7.03967 14.9681 7.03967 15.9582C7.03967 16.9483 10.1095 17.7737 14.1915 17.9662V25.1537H17.8213V17.9636C21.894 17.772 24.9587 16.9466 24.9587 15.9574C24.9587 14.9681 21.8966 14.1427 17.8213 13.9502L17.8222 13.9511Z" fill="white"/>
</g>
<defs>
<clipPath id="clip0">
<rect width="28.8" height="25.6" fill="white" transform="translate(1.60005 4.7998)"/>
</clipPath>
</defs>
</svg>
