<svg width="25" height="25" viewBox="0 0 25 25" fill="none" xmlns="http://www.w3.org/2000/svg">
<path fill-rule="evenodd" clip-rule="evenodd" d="M12.9102 24.9951C19.5376 24.9951 24.9102 19.6225 24.9102 12.9951C24.9102 6.3677 19.5376 0.995117 12.9102 0.995117C6.28274 0.995117 0.910156 6.3677 0.910156 12.9951C0.910156 19.6225 6.28274 24.9951 12.9102 24.9951ZM15.0702 7.7085L15.1049 7.6959H15.0828L15.0702 7.7085ZM10.8005 7.69485C10.8005 7.69485 9.01641 7.62765 7.09158 9.02848C7.09158 9.02848 5.16675 12.33 5.16675 16.4002C5.16675 16.4002 6.23365 18.2273 9.15922 18.2967C9.15922 18.2967 9.58661 17.7369 10.0182 17.2445C8.3748 16.753 7.73529 15.7701 7.73529 15.7701L8.28449 16.0494C8.39071 16.0926 8.49734 16.1364 8.60473 16.1806C10.1217 16.8045 11.7915 17.4913 14.6197 17.0323L14.6641 17.0225C15.2888 16.8841 15.9146 16.7455 16.5393 16.4705C16.654 16.4126 16.776 16.3547 16.9044 16.2938C17.2415 16.1337 17.6225 15.9529 18.0294 15.6966C18.0294 15.6966 17.3889 16.6795 15.6772 17.1709C16.03 17.6603 16.5257 18.221 16.5257 18.221C18.9236 18.1694 20.1203 16.9334 20.5096 16.5313C20.5954 16.4427 20.642 16.3945 20.6536 16.4086C20.6536 12.3447 18.7172 9.03688 18.7172 9.03688C16.9867 7.77151 15.3695 7.7148 15.0639 7.71375L14.8686 7.90592C17.0791 8.53598 18.1491 9.51992 18.1491 9.51992C14.9421 7.94057 11.4778 7.85027 8.30549 9.09778C7.8067 9.31095 7.52107 9.45062 7.52107 9.45062C7.52107 9.45062 8.58902 8.39842 10.9444 7.83661L10.8005 7.69485ZM16.6487 13.732C16.6487 14.509 16.0407 15.1391 15.2941 15.1391C14.5475 15.1391 13.9395 14.509 13.9395 13.7383C13.9416 12.9612 14.5506 12.3332 15.2941 12.3332V12.3301C16.0439 12.3301 16.6487 12.9601 16.6487 13.732ZM10.4445 15.1391C11.1911 15.1391 11.7991 14.509 11.7991 13.732C11.7991 12.9601 11.1953 12.3301 10.4487 12.3301L10.4445 12.3332C9.69785 12.3332 9.08984 12.9612 9.08984 13.7383C9.08984 14.509 9.69785 15.1391 10.4445 15.1391Z" fill="#4AFEBF"/>
</svg>
