<svg width="25" height="25" viewBox="0 0 25 25" fill="none" xmlns="http://www.w3.org/2000/svg">
<path fill-rule="evenodd" clip-rule="evenodd" d="M12.9102 24.4951C19.5376 24.4951 24.9102 19.1225 24.9102 12.4951C24.9102 5.8677 19.5376 0.495117 12.9102 0.495117C6.28274 0.495117 0.910156 5.8677 0.910156 12.4951C0.910156 19.1225 6.28274 24.4951 12.9102 24.4951ZM17.6939 11.2705C18.0109 10.9459 18.4416 10.7376 18.931 10.7376C20.737 10.7389 21.3368 13.2209 19.7078 14.0789C19.7795 14.344 19.8085 14.6391 19.8085 14.9205C19.8085 17.7289 16.7254 20.0045 12.9236 20.0045C9.13796 20.0045 6.05482 17.7289 6.05482 14.9205C6.05482 14.6391 6.08129 14.357 6.14005 14.0926C4.47742 13.2378 5.07209 10.7376 6.88775 10.7376C7.37718 10.7376 7.82464 10.9459 8.14167 11.2842C9.311 10.4556 10.8658 9.92339 12.5937 9.8496L13.5867 5.23837C13.6293 5.07383 13.7862 4.95629 13.9464 5.00004L17.1276 5.72352C17.3439 5.29779 17.7778 4.98633 18.2808 4.98633C19.0027 4.98633 19.5767 5.59293 19.5767 6.31707C19.5767 7.04121 18.9988 7.64781 18.2802 7.64781C17.5751 7.64781 17.0004 7.05688 17.0004 6.33339L14.12 5.66998L13.2154 9.85287C14.9569 9.90968 16.5284 10.4425 17.6939 11.2705ZM10.0748 12.9394C9.35297 12.9394 8.77831 13.533 8.77831 14.2702C8.77831 14.9943 9.3562 15.5879 10.0748 15.5846C10.7806 15.5846 11.3552 14.9943 11.3552 14.2702C11.3552 13.5291 10.7799 12.9394 10.0748 12.9394ZM10.0445 17.4031C11.2338 18.6228 14.5882 18.6228 15.7769 17.4031C15.9073 17.2862 15.9073 17.0786 15.7736 16.9441C15.6594 16.8265 15.4566 16.8265 15.3423 16.9441C14.3951 17.9157 11.3836 17.8993 10.4758 16.9441C10.3615 16.8265 10.1588 16.8265 10.0445 16.9441C9.91342 17.0779 9.91342 17.2856 10.0445 17.4031ZM14.4707 14.2741C14.4707 14.9976 15.0453 15.5872 15.7504 15.5872C16.469 15.5872 17.0437 14.9943 17.0469 14.2741C17.0469 13.533 16.469 12.9433 15.7504 12.9433C15.0453 12.9433 14.4707 13.5369 14.4707 14.2741Z" fill="#4AFEBF"/>
</svg>
