<svg width="25" height="25" viewBox="0 0 25 25" fill="none" xmlns="http://www.w3.org/2000/svg">
<path d="M9.95864 17.0445L14.741 14.0991C14.8269 14.0463 14.9153 14.1625 14.8415 14.231L10.8947 17.8997C10.756 18.0289 10.6665 18.2017 10.6412 18.3892L10.5067 19.3856C10.4889 19.5186 10.302 19.5318 10.2653 19.4031L9.74826 17.5862C9.68904 17.379 9.77534 17.1576 9.95864 17.0445Z" fill="#4AFEBF"/>
<path fill-rule="evenodd" clip-rule="evenodd" d="M25 13C25 19.6274 19.6274 25 13 25C6.37258 25 1 19.6274 1 13C1 6.37258 6.37258 1 13 1C19.6274 1 25 6.37258 25 13ZM6.71715 16.6174L9.16414 17.5307L10.1113 20.5767C10.1719 20.7717 10.4104 20.8439 10.5688 20.7144L11.9328 19.6024C12.0757 19.4859 12.2794 19.4801 12.4288 19.5886L14.889 21.3747C15.0584 21.4978 15.2983 21.405 15.3408 21.2004L17.143 12.5315C17.1894 12.3079 16.9697 12.1214 16.7568 12.2037L6.71429 16.0778C6.46646 16.1734 6.46862 16.5243 6.71715 16.6174ZM12.3207 9.73973L11.665 9.00251C11.2227 9.50439 10.72 9.75533 10.1568 9.75533C9.79939 9.75533 9.48054 9.66432 9.20025 9.48229C8.91997 9.29766 8.70654 9.05712 8.55997 8.76067C8.4134 8.46423 8.34011 8.14048 8.34011 7.78942C8.34011 7.43836 8.4134 7.11461 8.55997 6.81817C8.70654 6.52172 8.91997 6.28248 9.20025 6.10045C9.48054 5.91582 9.79939 5.82351 10.1568 5.82351C10.4474 5.82351 10.7122 5.88592 10.9514 6.01074C11.1931 6.13556 11.4258 6.32929 11.6495 6.59193L12.3284 5.83131C12.0481 5.53226 11.7151 5.30082 11.3294 5.137C10.9462 4.97317 10.5554 4.89126 10.1568 4.89126C9.76339 4.89126 9.39182 4.96667 9.04211 5.1175C8.6924 5.26572 8.39154 5.46855 8.13954 5.72599C7.88754 5.98343 7.68826 6.29158 7.54169 6.65044C7.39512 7.0093 7.32183 7.38896 7.32183 7.78942C7.32183 8.18988 7.39512 8.56954 7.54169 8.9284C7.68826 9.28726 7.88754 9.59541 8.13954 9.85285C8.39154 10.1103 8.6924 10.3144 9.04211 10.4652C9.39182 10.6161 9.76339 10.6915 10.1568 10.6915C10.5528 10.6915 10.9488 10.607 11.3448 10.4379C11.7434 10.2663 12.0687 10.0336 12.3207 9.73973ZM13.2387 10.5862H14.2492V6.72845H14.2569L17.0611 10.5862H18.0408V4.99268H17.0302V8.84649H17.0225L14.2107 4.99268H13.2387V10.5862Z" fill="#4AFEBF"/>
</svg>
