<svg width="25" height="25" viewBox="0 0 25 25" fill="none" xmlns="http://www.w3.org/2000/svg">
<path d="M12.9102 0.495117C6.28375 0.495117 0.910156 5.86871 0.910156 12.4951C0.910156 19.1215 6.28375 24.4951 12.9102 24.4951C19.5366 24.4951 24.9102 19.1215 24.9102 12.4951C24.9102 5.86871 19.5366 0.495117 12.9102 0.495117ZM9.4231 18.6357H6.50055V9.8432H9.4231V18.6357ZM7.96191 8.64258H7.94287C6.96216 8.64258 6.32788 7.96747 6.32788 7.12372C6.32788 6.26093 6.98157 5.60449 7.98132 5.60449C8.98108 5.60449 9.59631 6.26093 9.61536 7.12372C9.61536 7.96747 8.98108 8.64258 7.96191 8.64258ZM19.9612 18.6357H17.039V13.9319C17.039 12.7498 16.6158 11.9436 15.5584 11.9436C14.7511 11.9436 14.2703 12.4874 14.059 13.0124C13.9817 13.2003 13.9628 13.4628 13.9628 13.7256V18.6357H11.0405C11.0405 18.6357 11.0787 10.6681 11.0405 9.8432H13.9628V11.0881C14.3512 10.489 15.0461 9.63684 16.5966 9.63684C18.5194 9.63684 19.9612 10.8935 19.9612 13.5941V18.6357Z" fill="#4AFEBF"/>
</svg>
