<svg width="31" height="31" viewBox="0 0 31 31" fill="none" xmlns="http://www.w3.org/2000/svg">
<path fill-rule="evenodd" clip-rule="evenodd" d="M15.6456 30.5218C24.0354 30.5218 30.8367 23.7964 30.8367 15.5002C30.8367 7.20394 24.0354 0.478516 15.6456 0.478516C7.25585 0.478516 0.45459 7.20394 0.45459 15.5002C0.45459 23.7964 7.25585 30.5218 15.6456 30.5218ZM6.64563 11.7515C6.64563 8.85647 8.99992 6.5 11.8942 6.5H19.3942C22.2892 6.5 24.6456 8.85429 24.6456 11.7485V19.2485C24.6456 22.1435 22.2913 24.5 19.3971 24.5H11.8971C9.0021 24.5 6.64563 22.1457 6.64563 19.2515V11.7515ZM21.6456 10.25C21.6456 9.836 21.3096 9.5 20.8956 9.5C20.4816 9.5 20.1456 9.836 20.1456 10.25C20.1456 10.664 20.4816 11 20.8956 11C21.3096 11 21.6456 10.664 21.6456 10.25ZM20.1456 15.5C20.1456 13.0182 18.1274 11 15.6456 11C13.1639 11 11.1456 13.0182 11.1456 15.5C11.1456 17.9818 13.1639 20 15.6456 20C18.1274 20 20.1456 17.9818 20.1456 15.5ZM13.5243 13.3787C14.0869 12.8161 14.85 12.5 15.6456 12.5C16.4413 12.5 17.2043 12.8161 17.7669 13.3787C18.3296 13.9413 18.6456 14.7044 18.6456 15.5C18.6456 16.2956 18.3296 17.0587 17.7669 17.6213C17.2043 18.1839 16.4413 18.5 15.6456 18.5C14.85 18.5 14.0869 18.1839 13.5243 17.6213C12.9617 17.0587 12.6456 16.2956 12.6456 15.5C12.6456 14.7044 12.9617 13.9413 13.5243 13.3787Z" fill="#4AFEBF"/>
</svg>
