<svg width="25" height="25" viewBox="0 0 25 25" fill="none" xmlns="http://www.w3.org/2000/svg">
<path fill-rule="evenodd" clip-rule="evenodd" d="M12.9102 24.9951C19.5376 24.9951 24.9102 19.6225 24.9102 12.9951C24.9102 6.3677 19.5376 0.995117 12.9102 0.995117C6.28274 0.995117 0.910156 6.3677 0.910156 12.9951C0.910156 19.6225 6.28274 24.9951 12.9102 24.9951ZM9.94264 18.8224C10.2782 18.9893 10.5813 18.8224 10.5813 18.4182C10.5736 9.4459 10.6111 9.30976 10.5666 9.27296C10.564 9.27084 10.5612 9.26905 10.558 9.2659L6.57721 7.27666C6.12876 7.05331 5.93042 7.20279 5.93042 7.53317V16.3899C5.93042 16.5092 5.96881 16.6302 6.04384 16.7517C6.11887 16.8733 6.21077 16.96 6.32013 17.0117L9.94264 18.8224ZM15.2397 16.8175L11.0798 10.0889V14.7509L15.2397 16.8175ZM19.89 18.4182V10.2291L15.6835 17.0426L19.1187 18.752C19.238 18.8195 19.3601 18.8532 19.4846 18.8532C19.6091 18.8532 19.708 18.8131 19.7807 18.7328C19.8539 18.6526 19.89 18.5479 19.89 18.4182ZM17.8688 12.5557C19.2008 10.399 19.8667 9.31244 19.8667 9.29673C19.8667 9.27579 19.8563 9.26009 19.8359 9.2502L15.6213 7.15219C15.4322 7.05796 15.1507 7.09752 15.0135 7.3232L12.4897 11.4174L15.5276 16.3434C15.7562 15.9758 16.5368 14.7125 17.8688 12.5557Z" fill="#4AFEBF"/>
</svg>
