<svg width="25" height="25" viewBox="0 0 25 25" fill="none" xmlns="http://www.w3.org/2000/svg">
<path fill-rule="evenodd" clip-rule="evenodd" d="M12.9102 24.9951C19.5376 24.9951 24.9102 19.6225 24.9102 12.9951C24.9102 6.3677 19.5376 0.995117 12.9102 0.995117C6.28274 0.995117 0.910156 6.3677 0.910156 12.9951C0.910156 19.6225 6.28274 24.9951 12.9102 24.9951ZM9.2276 13.9918L5.85927 12.7347C5.51716 12.6065 5.51419 12.1235 5.85533 11.9919L19.679 6.65915C19.9721 6.54581 20.2745 6.80255 20.2106 7.11031L17.7299 19.0432C17.6714 19.3249 17.3411 19.4527 17.1079 19.2832L13.7215 16.8246C13.5158 16.6753 13.2355 16.6833 13.0387 16.8436L11.1611 18.3743C10.9431 18.5525 10.6148 18.4532 10.5313 18.1847L9.2276 13.9918ZM16.9042 9.26815L10.3212 13.3226C10.0689 13.4783 9.95013 13.783 10.0316 14.0683L10.7434 16.5692C10.7939 16.7464 11.0512 16.7283 11.0757 16.5451L11.2607 15.1737C11.2956 14.9155 11.4188 14.6776 11.6098 14.4998L17.0426 9.44971C17.1442 9.35547 17.0225 9.1955 16.9042 9.26815Z" fill="#4AFEBF"/>
</svg>
