<svg width="25" height="25" viewBox="0 0 25 25" fill="none" xmlns="http://www.w3.org/2000/svg">
<path fill-rule="evenodd" clip-rule="evenodd" d="M12.9102 24.9951C19.5376 24.9951 24.9102 19.6225 24.9102 12.9951C24.9102 6.3677 19.5376 0.995117 12.9102 0.995117C6.28274 0.995117 0.910156 6.3677 0.910156 12.9951C0.910156 19.6225 6.28274 24.9951 12.9102 24.9951ZM19.5474 8.58421C19.7922 8.51338 20.0319 8.42613 20.2649 8.32276C20.3624 8.27959 20.4765 8.30596 20.545 8.38751C20.6136 8.46902 20.62 8.58603 20.5608 8.67457C20.1711 9.25755 19.6922 9.76477 19.1359 10.1839C19.1386 10.2718 19.1399 10.3601 19.1399 10.4475C19.1399 12.5394 18.3313 14.6566 16.9213 16.2561C15.7906 17.5389 13.7621 19.068 10.5194 19.068C8.86994 19.068 7.26382 18.5972 5.87478 17.7066C5.78093 17.6464 5.74111 17.5294 5.77868 17.4245C5.81625 17.3196 5.92173 17.2544 6.03205 17.2675C6.25412 17.2938 6.48102 17.3071 6.70663 17.3071C7.78788 17.3071 8.81787 17.0116 9.71854 16.4475C8.6326 16.2032 7.73432 15.402 7.38543 14.3127C7.35963 14.2323 7.37815 14.1442 7.43415 14.081C7.49005 14.0178 7.57529 13.9888 7.65818 14.0046C7.73858 14.02 7.81951 14.0317 7.90049 14.0398C6.9579 13.4777 6.34137 12.4463 6.34137 11.3008C6.34137 11.2865 6.34137 11.2724 6.3417 11.2583C6.34362 11.1745 6.38923 11.0978 6.46197 11.0561C6.53467 11.0144 6.62398 11.0138 6.69716 11.0545C6.83346 11.1302 6.97627 11.1939 7.12344 11.2449C6.63944 10.6759 6.36544 9.94778 6.36544 9.18035C6.36544 8.6169 6.51462 8.06312 6.7968 7.57892C6.83633 7.5111 6.90664 7.46698 6.98489 7.46085C7.06309 7.45458 7.13948 7.48737 7.18906 7.5482C8.58034 9.25482 10.6064 10.326 12.7857 10.5173C12.7683 10.3817 12.7596 10.2441 12.7596 10.1058C12.7596 8.34965 14.1884 6.9209 15.9446 6.9209C16.7766 6.9209 17.5814 7.25041 18.174 7.82942C18.7622 7.69981 19.3232 7.47818 19.8432 7.16977C19.9287 7.11909 20.0367 7.1265 20.1143 7.18843C20.1921 7.25032 20.2234 7.35388 20.1932 7.4485C20.0583 7.87063 19.8373 8.25637 19.5474 8.58421Z" fill="#4AFEBF"/>
</svg>
