<svg width="25" height="25" viewBox="0 0 25 25" fill="none" xmlns="http://www.w3.org/2000/svg">
<path fill-rule="evenodd" clip-rule="evenodd" d="M0.910156 12.4951C0.910156 5.86871 6.28375 0.495117 12.9102 0.495117C19.5366 0.495117 24.9102 5.86871 24.9102 12.4951C24.9102 19.1215 19.5366 24.4951 12.9102 24.4951C6.28375 24.4951 0.910156 19.1215 0.910156 12.4951ZM20.0996 16.1146C20.4083 14.941 20.4083 12.5074 20.4083 12.5074C20.4083 12.5074 20.4208 10.0616 20.0996 8.88812C19.9266 8.24579 19.4201 7.73914 18.7778 7.56628C17.6042 7.24512 12.9102 7.24512 12.9102 7.24512C12.9102 7.24512 8.21606 7.24512 7.04254 7.55402C6.41248 7.72687 5.89355 8.24579 5.7207 8.88812C5.4118 10.0616 5.4118 12.4951 5.4118 12.4951C5.4118 12.4951 5.4118 14.941 5.7207 16.1021C5.89374 16.7444 6.40021 17.2511 7.04254 17.424C8.22833 17.7451 12.9102 17.7451 12.9102 17.7451C12.9102 17.7451 17.6042 17.7451 18.7778 17.4362C19.4201 17.2634 19.9266 16.7569 20.0996 16.1146ZM15.3187 12.4952L11.4153 14.7434V10.2471L15.3187 12.4952Z" fill="#4AFEBF"/>
</svg>
